<svg xmlns="http://www.w3.org/2000/svg" xmlns:xlink="http://www.w3.org/1999/xlink" width="271" height="263" contentScriptType="application/ecmascript" contentStyleType="text/css" style="width:271px;height:263px" preserveAspectRatio="none" version="1.1" viewBox="0 0 271 263" zoomAndPan="magnify"><defs><filter id="f1an4zz7lbetfg" width="300%" height="300%" x="-1" y="-1"><feGaussianBlur result="blurOut" stdDeviation="2"/><feColorMatrix in="blurOut" result="blurOut2" type="matrix" values="0 0 0 0 0 0 0 0 0 0 0 0 0 0 0 0 0 0 .4 0"/><feOffset dx="4" dy="4" in="blurOut2" result="blurOut3"/><feBlend in="SourceGraphic" in2="blurOut3" mode="normal"/></filter></defs><g><a href="DoaArbitraryShapeCollider.html" target="_top" title="DoaArbitraryShapeCollider.html" xlink:actuate="onRequest" xlink:href="DoaArbitraryShapeCollider.html" xlink:show="new" xlink:title="DoaArbitraryShapeCollider.html" xlink:type="simple"><rect id="doa.engine.scene.elements.physics.DoaArbitraryShapeCollider" width="243" height="97.695" x="9" y="129" fill="#FEFECE" codeLine="5" filter="url(#f1an4zz7lbetfg)" style="stroke:#a80036;stroke-width:1.5"/><ellipse cx="42.9" cy="149.094" fill="#ADD1B2" rx="11" ry="11" style="stroke:#a80036;stroke-width:1"/><path d="M45.6656,144.9688 Q45.8219,144.75 46.0094,144.6406 Q46.1969,144.5313 46.4156,144.5313 Q46.7906,144.5313 47.025,144.7969 Q47.2594,145.0469 47.2594,145.6563 L47.2594,147.1094 Q47.2594,147.7188 47.025,147.9844 Q46.7906,148.25 46.4156,148.25 Q46.0719,148.25 45.8688,148.0469 Q45.6656,147.8594 45.5563,147.3438 Q45.5094,146.9844 45.3219,146.7969 Q44.9938,146.4219 44.3844,146.2031 Q43.775,145.9844 43.15,145.9844 Q42.3844,145.9844 41.7438,146.3125 Q41.1188,146.6406 40.6188,147.3906 Q40.1344,148.1406 40.1344,149.1719 L40.1344,150.2656 Q40.1344,151.5 41.025,152.3281 Q41.9156,153.1406 43.5094,153.1406 Q44.4469,153.1406 45.1031,152.8906 Q45.4938,152.7344 45.9156,152.2969 Q46.1813,152.0313 46.3219,151.9531 Q46.4781,151.875 46.6813,151.875 Q47.0094,151.875 47.2594,152.1406 Q47.525,152.3906 47.525,152.7344 Q47.525,153.0781 47.1813,153.4844 Q46.6813,154.0625 45.8844,154.3906 Q44.8063,154.8438 43.5094,154.8438 Q41.9938,154.8438 40.7906,154.2188 Q39.8063,153.7188 39.1188,152.6563 Q38.4313,151.5781 38.4313,150.2969 L38.4313,149.1406 Q38.4313,147.8125 39.0406,146.6719 Q39.6656,145.5156 40.7594,144.9063 Q41.8531,144.2813 43.0875,144.2813 Q43.8219,144.2813 44.4625,144.4531 Q45.1188,144.6094 45.6656,144.9688 Z"/><text x="61.1" y="148.533" fill="#000" font-family="sans-serif" font-size="14" lengthAdjust="spacingAndGlyphs" textLength="169">DoaArbitraryShapeCollider</text><text x="61.6" y="161.99" fill="#000" font-family="sans-serif" font-size="10" lengthAdjust="spacingAndGlyphs" textLength="168">doa.engine.scene.elements.physics</text><line style="stroke:#a80036;stroke-width:1.5" x1="10" x2="251" y1="169.188" y2="169.188"/><polygon fill="none" points="20 175.188 24 179.188 20 183.188 16 179.188" style="stroke:#b38d22;stroke-width:1"/><text x="29" y="184.606" fill="#000" font-family="sans-serif" font-size="11" lengthAdjust="spacingAndGlyphs" textLength="116">points: List&lt;DoaVector&gt;</text><line style="stroke:#a80036;stroke-width:1.5" x1="10" x2="251" y1="191.023" y2="191.023"/><ellipse cx="20" cy="202.023" fill="#84BE84" rx="3" ry="3" style="stroke:#038048;stroke-width:1"/><text x="29" y="206.442" fill="#000" font-family="sans-serif" font-size="11" lengthAdjust="spacingAndGlyphs" textLength="217">DoaArbitraryShapeCollider(List&lt;DoaVector&gt;)</text><ellipse cx="20" cy="215.859" fill="#84BE84" rx="3" ry="3" style="stroke:#038048;stroke-width:1"/><text x="29" y="220.278" fill="#000" font-family="sans-serif" font-size="11" lengthAdjust="spacingAndGlyphs" textLength="139">getPoints(): List&lt;DoaVector&gt;</text></a><a href="DoaCollider.html" target="_top" title="DoaCollider.html" xlink:actuate="onRequest" xlink:href="DoaCollider.html" xlink:show="new" xlink:title="DoaCollider.html" xlink:type="simple"><rect id="doa.engine.scene.elements.physics.DoaCollider" width="200" height="62.023" x="30.5" y="7" fill="#FEFECE" codeLine="11" filter="url(#f1an4zz7lbetfg)" style="stroke:#a80036;stroke-width:1.5"/><ellipse cx="45.5" cy="27.094" fill="#A9DCDF" rx="11" ry="11" style="stroke:#a80036;stroke-width:1"/><path d="M47.6875,28.8594 L43.5469,28.8594 L43.125,29.8906 L43.5469,29.8906 Q44.1563,29.8906 44.4219,30.125 Q44.6875,30.3594 44.6875,30.75 Q44.6875,31.125 44.4219,31.3594 Q44.1563,31.5938 43.5469,31.5938 L41.25,31.5938 Q40.6406,31.5938 40.3906,31.3594 Q40.125,31.125 40.125,30.7344 Q40.125,30.3594 40.4063,30.125 Q40.6719,29.875 41.2969,29.8906 L43.9688,23.2344 L42.8594,23.2344 Q42.25,23.2344 41.9844,23 Q41.7188,22.7656 41.7188,22.375 Q41.7188,22 41.9844,21.7656 Q42.25,21.5313 42.8594,21.5313 L46.5313,21.5313 L49.9219,29.8906 Q50.5156,29.8906 50.7031,30.0313 Q51.0938,30.2969 51.0938,30.75 Q51.0938,31.125 50.8281,31.3594 Q50.5781,31.5938 49.9688,31.5938 L47.6719,31.5938 Q47.0625,31.5938 46.7969,31.3594 Q46.5313,31.125 46.5313,30.7344 Q46.5313,30.3594 46.7969,30.125 Q47.0625,29.8906 47.6719,29.8906 L48.0938,29.8906 L47.6875,28.8594 Z M46.9688,27.1563 L45.6094,23.7813 L44.2344,27.1563 L46.9688,27.1563 Z"/><text x="106.5" y="26.533" fill="#000" font-family="sans-serif" font-size="14" font-style="italic" lengthAdjust="spacingAndGlyphs" textLength="74">DoaCollider</text><text x="59.5" y="39.99" fill="#000" font-family="sans-serif" font-size="10" font-style="italic" lengthAdjust="spacingAndGlyphs" textLength="168">doa.engine.scene.elements.physics</text><line style="stroke:#a80036;stroke-width:1.5" x1="31.5" x2="229.5" y1="47.188" y2="47.188"/><ellipse cx="41.5" cy="58.188" fill="#84BE84" rx="3" ry="3" style="stroke:#038048;stroke-width:1"/><text x="50.5" y="62.606" fill="#000" font-family="sans-serif" font-size="11" font-style="italic" lengthAdjust="spacingAndGlyphs" textLength="142">getPoints(): List&lt;DoaVector&gt;</text></a><path id="doa.engine.scene.elements.physics.DoaCollider-backto-doa.engine.scene.elements.physics.DoaArbitraryShapeCollider" fill="none" d="M130.5,89.65 C130.5,102.47 130.5,116.2 130.5,128.89" codeLine="15" style="stroke:#a80036;stroke-width:1"/><polygon fill="none" points="123.5 89.28 130.5 69.28 137.5 89.28 123.5 89.28" style="stroke:#a80036;stroke-width:1"/><text x="31.5" y="250.076" fill="#888" font-family="sans-serif" font-size="10" lengthAdjust="spacingAndGlyphs" textLength="190">UMLDoclet 2.0.12, PlantUML 1.2020.16</text></g></svg>