<svg xmlns="http://www.w3.org/2000/svg" xmlns:xlink="http://www.w3.org/1999/xlink" width="226" height="127" contentScriptType="application/ecmascript" contentStyleType="text/css" style="width:226px;height:127px" preserveAspectRatio="none" version="1.1" viewBox="0 0 226 127" zoomAndPan="magnify"><defs><filter id="f6ktypv7y4hu2" width="300%" height="300%" x="-1" y="-1"><feGaussianBlur result="blurOut" stdDeviation="2"/><feColorMatrix in="blurOut" result="blurOut2" type="matrix" values="0 0 0 0 0 0 0 0 0 0 0 0 0 0 0 0 0 0 .4 0"/><feOffset dx="4" dy="4" in="blurOut2" result="blurOut3"/><feBlend in="SourceGraphic" in2="blurOut3" mode="normal"/></filter></defs><g><a href="DoaBodyType.html" target="_top" title="DoaBodyType.html" xlink:actuate="onRequest" xlink:href="DoaBodyType.html" xlink:show="new" xlink:title="DoaBodyType.html" xlink:type="simple"><rect id="doa.engine.scene.elements.physics.DoaBodyType" width="200" height="89.695" x="7" y="7" fill="#FEFECE" codeLine="5" filter="url(#f6ktypv7y4hu2)" style="stroke:#a80036;stroke-width:1.5"/><ellipse cx="22" cy="27.094" fill="#EB937F" rx="11" ry="11" style="stroke:#a80036;stroke-width:1"/><path d="M20.8594,27.8906 L20.8594,30.3906 L25.1875,30.3906 L25.1875,29.4688 Q25.1875,28.8594 25.4219,28.5938 Q25.6719,28.3281 26.0469,28.3281 Q26.4219,28.3281 26.6563,28.5938 Q26.8906,28.8594 26.8906,29.4688 L26.8906,32.0938 L18.8906,32.0938 Q18.2656,32.0938 18,31.8594 Q17.75,31.625 17.75,31.2344 Q17.75,30.8594 18.0156,30.625 Q18.2813,30.3906 18.8906,30.3906 L19.1563,30.3906 L19.1563,23.7344 L18.8906,23.7344 Q18.2656,23.7344 18,23.5 Q17.75,23.2656 17.75,22.875 Q17.75,22.5 18,22.2656 Q18.2656,22.0313 18.8906,22.0313 L26.5156,22.0313 L26.5156,24.625 Q26.5156,25.2344 26.2813,25.5 Q26.0625,25.75 25.6719,25.75 Q25.2969,25.75 25.0625,25.5 Q24.8281,25.2344 24.8281,24.625 L24.8281,23.7344 L20.8594,23.7344 L20.8594,26.1875 L22.3438,26.1875 Q22.3438,25.5313 22.4688,25.3438 Q22.7344,24.9375 23.2031,24.9375 Q23.5781,24.9375 23.8125,25.2031 Q24.0469,25.4531 24.0469,26.0625 L24.0469,28.0313 Q24.0469,28.5781 23.9219,28.7656 Q23.6563,29.1563 23.2031,29.1563 Q22.7344,29.1563 22.4688,28.75 Q22.3438,28.5625 22.3438,27.8906 L20.8594,27.8906 Z"/><text x="75" y="26.533" fill="#000" font-family="sans-serif" font-size="14" lengthAdjust="spacingAndGlyphs" textLength="90">DoaBodyType</text><text x="36" y="39.99" fill="#000" font-family="sans-serif" font-size="10" lengthAdjust="spacingAndGlyphs" textLength="168">doa.engine.scene.elements.physics</text><line style="stroke:#a80036;stroke-width:1.5" x1="8" x2="206" y1="47.188" y2="47.188"/><ellipse cx="18" cy="58.188" fill="none" rx="3" ry="3" style="stroke:#038048;stroke-width:1"/><text x="27" y="62.606" fill="#000" font-family="sans-serif" font-size="11" lengthAdjust="spacingAndGlyphs" text-decoration="underline" textLength="36">STATIC</text><ellipse cx="18" cy="72.023" fill="none" rx="3" ry="3" style="stroke:#038048;stroke-width:1"/><text x="27" y="76.442" fill="#000" font-family="sans-serif" font-size="11" lengthAdjust="spacingAndGlyphs" text-decoration="underline" textLength="47">DYNAMIC</text><ellipse cx="18" cy="85.859" fill="none" rx="3" ry="3" style="stroke:#038048;stroke-width:1"/><text x="27" y="90.278" fill="#000" font-family="sans-serif" font-size="11" lengthAdjust="spacingAndGlyphs" text-decoration="underline" textLength="53">KINEMATIC</text></a><text x="12" y="114.076" fill="#888" font-family="sans-serif" font-size="10" lengthAdjust="spacingAndGlyphs" textLength="190">UMLDoclet 2.0.12, PlantUML 1.2020.16</text></g></svg>