<svg xmlns="http://www.w3.org/2000/svg" xmlns:xlink="http://www.w3.org/1999/xlink" width="243" height="297" contentScriptType="application/ecmascript" contentStyleType="text/css" style="width:243px;height:297px" preserveAspectRatio="none" version="1.1" viewBox="0 0 243 297" zoomAndPan="magnify"><defs><filter id="f10y5v3f4mhrba" width="300%" height="300%" x="-1" y="-1"><feGaussianBlur result="blurOut" stdDeviation="2"/><feColorMatrix in="blurOut" result="blurOut2" type="matrix" values="0 0 0 0 0 0 0 0 0 0 0 0 0 0 0 0 0 0 .4 0"/><feOffset dx="4" dy="4" in="blurOut2" result="blurOut3"/><feBlend in="SourceGraphic" in2="blurOut3" mode="normal"/></filter></defs><g><a href="DoaBoxCollider.html" target="_top" title="DoaBoxCollider.html" xlink:actuate="onRequest" xlink:href="DoaBoxCollider.html" xlink:show="new" xlink:title="DoaBoxCollider.html" xlink:type="simple"><rect id="doa.engine.scene.elements.physics.DoaBoxCollider" width="217" height="131.203" x="7" y="129" fill="#FEFECE" codeLine="5" filter="url(#f10y5v3f4mhrba)" style="stroke:#a80036;stroke-width:1.5"/><ellipse cx="29.65" cy="149.094" fill="#ADD1B2" rx="11" ry="11" style="stroke:#a80036;stroke-width:1"/><path d="M32.4156,144.9688 Q32.5719,144.75 32.7594,144.6406 Q32.9469,144.5313 33.1656,144.5313 Q33.5406,144.5313 33.775,144.7969 Q34.0094,145.0469 34.0094,145.6563 L34.0094,147.1094 Q34.0094,147.7188 33.775,147.9844 Q33.5406,148.25 33.1656,148.25 Q32.8219,148.25 32.6188,148.0469 Q32.4156,147.8594 32.3063,147.3438 Q32.2594,146.9844 32.0719,146.7969 Q31.7438,146.4219 31.1344,146.2031 Q30.525,145.9844 29.9,145.9844 Q29.1344,145.9844 28.4938,146.3125 Q27.8688,146.6406 27.3688,147.3906 Q26.8844,148.1406 26.8844,149.1719 L26.8844,150.2656 Q26.8844,151.5 27.775,152.3281 Q28.6656,153.1406 30.2594,153.1406 Q31.1969,153.1406 31.8531,152.8906 Q32.2438,152.7344 32.6656,152.2969 Q32.9313,152.0313 33.0719,151.9531 Q33.2281,151.875 33.4313,151.875 Q33.7594,151.875 34.0094,152.1406 Q34.275,152.3906 34.275,152.7344 Q34.275,153.0781 33.9313,153.4844 Q33.4313,154.0625 32.6344,154.3906 Q31.5563,154.8438 30.2594,154.8438 Q28.7438,154.8438 27.5406,154.2188 Q26.5563,153.7188 25.8688,152.6563 Q25.1813,151.5781 25.1813,150.2969 L25.1813,149.1406 Q25.1813,147.8125 25.7906,146.6719 Q26.4156,145.5156 27.5094,144.9063 Q28.6031,144.2813 29.8375,144.2813 Q30.5719,144.2813 31.2125,144.4531 Q31.8688,144.6094 32.4156,144.9688 Z"/><text x="80.85" y="148.533" fill="#000" font-family="sans-serif" font-size="14" lengthAdjust="spacingAndGlyphs" textLength="97">DoaBoxCollider</text><text x="45.35" y="161.99" fill="#000" font-family="sans-serif" font-size="10" lengthAdjust="spacingAndGlyphs" textLength="168">doa.engine.scene.elements.physics</text><line style="stroke:#a80036;stroke-width:1.5" x1="8" x2="223" y1="169.188" y2="169.188"/><ellipse cx="18" cy="180.188" fill="#84BE84" rx="3" ry="3" style="stroke:#038048;stroke-width:1"/><text x="27" y="184.606" fill="#000" font-family="sans-serif" font-size="11" lengthAdjust="spacingAndGlyphs" textLength="133">DoaBoxCollider(DoaVector)</text><ellipse cx="18" cy="194.023" fill="#84BE84" rx="3" ry="3" style="stroke:#038048;stroke-width:1"/><text x="27" y="198.442" fill="#000" font-family="sans-serif" font-size="11" lengthAdjust="spacingAndGlyphs" textLength="191">DoaBoxCollider(DoaVector, DoaVector)</text><ellipse cx="18" cy="207.859" fill="#84BE84" rx="3" ry="3" style="stroke:#038048;stroke-width:1"/><text x="27" y="212.278" fill="#000" font-family="sans-serif" font-size="11" lengthAdjust="spacingAndGlyphs" textLength="136">getDimensions(): DoaVector</text><ellipse cx="18" cy="221.695" fill="#84BE84" rx="3" ry="3" style="stroke:#038048;stroke-width:1"/><text x="27" y="226.114" fill="#000" font-family="sans-serif" font-size="11" lengthAdjust="spacingAndGlyphs" textLength="112">getOffset(): DoaVector</text><ellipse cx="18" cy="235.531" fill="#84BE84" rx="3" ry="3" style="stroke:#038048;stroke-width:1"/><text x="27" y="239.95" fill="#000" font-family="sans-serif" font-size="11" lengthAdjust="spacingAndGlyphs" textLength="139">getPoints(): List&lt;DoaVector&gt;</text><ellipse cx="18" cy="249.367" fill="#84BE84" rx="3" ry="3" style="stroke:#038048;stroke-width:1"/><text x="27" y="253.786" fill="#000" font-family="sans-serif" font-size="11" lengthAdjust="spacingAndGlyphs" textLength="99">debugRender(): void</text></a><a href="DoaCollider.html" target="_top" title="DoaCollider.html" xlink:actuate="onRequest" xlink:href="DoaCollider.html" xlink:show="new" xlink:title="DoaCollider.html" xlink:type="simple"><rect id="doa.engine.scene.elements.physics.DoaCollider" width="200" height="62.023" x="15.5" y="7" fill="#FEFECE" codeLine="14" filter="url(#f10y5v3f4mhrba)" style="stroke:#a80036;stroke-width:1.5"/><ellipse cx="30.5" cy="27.094" fill="#A9DCDF" rx="11" ry="11" style="stroke:#a80036;stroke-width:1"/><path d="M32.6875,28.8594 L28.5469,28.8594 L28.125,29.8906 L28.5469,29.8906 Q29.1563,29.8906 29.4219,30.125 Q29.6875,30.3594 29.6875,30.75 Q29.6875,31.125 29.4219,31.3594 Q29.1563,31.5938 28.5469,31.5938 L26.25,31.5938 Q25.6406,31.5938 25.3906,31.3594 Q25.125,31.125 25.125,30.7344 Q25.125,30.3594 25.4063,30.125 Q25.6719,29.875 26.2969,29.8906 L28.9688,23.2344 L27.8594,23.2344 Q27.25,23.2344 26.9844,23 Q26.7188,22.7656 26.7188,22.375 Q26.7188,22 26.9844,21.7656 Q27.25,21.5313 27.8594,21.5313 L31.5313,21.5313 L34.9219,29.8906 Q35.5156,29.8906 35.7031,30.0313 Q36.0938,30.2969 36.0938,30.75 Q36.0938,31.125 35.8281,31.3594 Q35.5781,31.5938 34.9688,31.5938 L32.6719,31.5938 Q32.0625,31.5938 31.7969,31.3594 Q31.5313,31.125 31.5313,30.7344 Q31.5313,30.3594 31.7969,30.125 Q32.0625,29.8906 32.6719,29.8906 L33.0938,29.8906 L32.6875,28.8594 Z M31.9688,27.1563 L30.6094,23.7813 L29.2344,27.1563 L31.9688,27.1563 Z"/><text x="91.5" y="26.533" fill="#000" font-family="sans-serif" font-size="14" font-style="italic" lengthAdjust="spacingAndGlyphs" textLength="74">DoaCollider</text><text x="44.5" y="39.99" fill="#000" font-family="sans-serif" font-size="10" font-style="italic" lengthAdjust="spacingAndGlyphs" textLength="168">doa.engine.scene.elements.physics</text><line style="stroke:#a80036;stroke-width:1.5" x1="16.5" x2="214.5" y1="47.188" y2="47.188"/><ellipse cx="26.5" cy="58.188" fill="#84BE84" rx="3" ry="3" style="stroke:#038048;stroke-width:1"/><text x="35.5" y="62.606" fill="#000" font-family="sans-serif" font-size="11" font-style="italic" lengthAdjust="spacingAndGlyphs" textLength="142">getPoints(): List&lt;DoaVector&gt;</text></a><path id="doa.engine.scene.elements.physics.DoaCollider-backto-doa.engine.scene.elements.physics.DoaBoxCollider" fill="none" d="M115.5,89.61 C115.5,102.16 115.5,115.78 115.5,128.9" codeLine="18" style="stroke:#a80036;stroke-width:1"/><polygon fill="none" points="108.5 89.16 115.5 69.16 122.5 89.16 108.5 89.16" style="stroke:#a80036;stroke-width:1"/><text x="17.5" y="283.584" fill="#888" font-family="sans-serif" font-size="10" lengthAdjust="spacingAndGlyphs" textLength="190">UMLDoclet 2.0.12, PlantUML 1.2020.16</text></g></svg>