<?xml version="1.0" encoding="UTF-8" standalone="no"?><svg xmlns="http://www.w3.org/2000/svg" xmlns:xlink="http://www.w3.org/1999/xlink" contentScriptType="application/ecmascript" contentStyleType="text/css" height="352px" preserveAspectRatio="none" style="width:265px;height:352px;" version="1.1" viewBox="0 0 265 352" width="265px" zoomAndPan="magnify"><defs><filter height="300%" id="fux8izvarat4a" width="300%" x="-1" y="-1"><feGaussianBlur result="blurOut" stdDeviation="2.0"/><feColorMatrix in="blurOut" result="blurOut2" type="matrix" values="0 0 0 0 0 0 0 0 0 0 0 0 0 0 0 0 0 0 .4 0"/><feOffset dx="4.0" dy="4.0" in="blurOut2" result="blurOut3"/><feBlend in="SourceGraphic" in2="blurOut3" mode="normal"/></filter></defs><g><!--MD5=[c4cd81f58d2b8c73d81c60eed353e63a]
class doa.engine.scene.elements.physics.DoaCollider--><a href="DoaCollider.html" target="_top" title="DoaCollider.html" xlink:actuate="onRequest" xlink:href="DoaCollider.html" xlink:show="new" xlink:title="DoaCollider.html" xlink:type="simple"><rect codeLine="5" fill="#FEFECE" filter="url(#fux8izvarat4a)" height="208.3828" id="doa.engine.scene.elements.physics.DoaCollider" style="stroke: #A80036; stroke-width: 1.5;" width="237" x="9" y="107"/><ellipse cx="40.65" cy="127.0938" fill="#A9DCDF" rx="11" ry="11" style="stroke: #A80036; stroke-width: 1.0;"/><path d="M42.8375,128.8594 L38.6969,128.8594 L38.275,129.8906 L38.6969,129.8906 Q39.3063,129.8906 39.5719,130.125 Q39.8375,130.3594 39.8375,130.75 Q39.8375,131.125 39.5719,131.3594 Q39.3063,131.5938 38.6969,131.5938 L36.4,131.5938 Q35.7906,131.5938 35.5406,131.3594 Q35.275,131.125 35.275,130.7344 Q35.275,130.3594 35.5563,130.125 Q35.8219,129.875 36.4469,129.8906 L39.1188,123.2344 L38.0094,123.2344 Q37.4,123.2344 37.1344,123 Q36.8688,122.7656 36.8688,122.375 Q36.8688,122 37.1344,121.7656 Q37.4,121.5313 38.0094,121.5313 L41.6813,121.5313 L45.0719,129.8906 Q45.6656,129.8906 45.8531,130.0313 Q46.2438,130.2969 46.2438,130.75 Q46.2438,131.125 45.9781,131.3594 Q45.7281,131.5938 45.1188,131.5938 L42.8219,131.5938 Q42.2125,131.5938 41.9469,131.3594 Q41.6813,131.125 41.6813,130.7344 Q41.6813,130.3594 41.9469,130.125 Q42.2125,129.8906 42.8219,129.8906 L43.2438,129.8906 L42.8375,128.8594 Z M42.1188,127.1563 L40.7594,123.7813 L39.3844,127.1563 L42.1188,127.1563 Z "/><text fill="#000000" font-family="sans-serif" font-size="14" font-style="italic" lengthAdjust="spacingAndGlyphs" textLength="74" x="105.35" y="126.5332">DoaCollider</text><text fill="#000000" font-family="sans-serif" font-size="10" font-style="italic" lengthAdjust="spacingAndGlyphs" textLength="168" x="58.35" y="139.9902">doa.engine.scene.elements.physics</text><line style="stroke: #A80036; stroke-width: 1.5;" x1="10" x2="245" y1="147.1875" y2="147.1875"/><polygon fill="none" points="20,153.1875,24,157.1875,20,161.1875,16,157.1875" style="stroke: #B38D22; stroke-width: 1.0;"/><text fill="#000000" font-family="sans-serif" font-size="11" lengthAdjust="spacingAndGlyphs" textLength="86" x="29" y="162.6064">isTrigger: boolean</text><polygon fill="none" points="20,167.0234,24,171.0234,20,175.0234,16,171.0234" style="stroke: #B38D22; stroke-width: 1.0;"/><text fill="#000000" font-family="sans-serif" font-size="11" lengthAdjust="spacingAndGlyphs" textLength="45" x="29" y="176.4424">group: int</text><line style="stroke: #A80036; stroke-width: 1.5;" x1="10" x2="245" y1="182.8594" y2="182.8594"/><ellipse cx="20" cy="193.8594" fill="#84BE84" rx="3" ry="3" style="stroke: #038048; stroke-width: 1.0;"/><text fill="#000000" font-family="sans-serif" font-size="11" font-style="italic" lengthAdjust="spacingAndGlyphs" textLength="142" x="29" y="198.2783">getPoints(): List&lt;DoaVector&gt;</text><ellipse cx="20" cy="207.6953" fill="#84BE84" rx="3" ry="3" style="stroke: #038048; stroke-width: 1.0;"/><text fill="#000000" font-family="sans-serif" font-size="11" lengthAdjust="spacingAndGlyphs" textLength="127" x="29" y="212.1143">makeTrigger(): DoaCollider</text><ellipse cx="20" cy="221.5313" fill="#84BE84" rx="3" ry="3" style="stroke: #038048; stroke-width: 1.0;"/><text fill="#000000" font-family="sans-serif" font-size="11" lengthAdjust="spacingAndGlyphs" textLength="146" x="29" y="225.9502">makeNonTrigger(): DoaCollider</text><ellipse cx="20" cy="235.3672" fill="#84BE84" rx="3" ry="3" style="stroke: #038048; stroke-width: 1.0;"/><text fill="#000000" font-family="sans-serif" font-size="11" lengthAdjust="spacingAndGlyphs" textLength="94" x="29" y="239.7861">isTrigger(): boolean</text><ellipse cx="20" cy="249.2031" fill="#84BE84" rx="3" ry="3" style="stroke: #038048; stroke-width: 1.0;"/><text fill="#000000" font-family="sans-serif" font-size="11" lengthAdjust="spacingAndGlyphs" textLength="107" x="29" y="253.6221">group(int): DoaCollider</text><ellipse cx="20" cy="263.0391" fill="#84BE84" rx="3" ry="3" style="stroke: #038048; stroke-width: 1.0;"/><text fill="#000000" font-family="sans-serif" font-size="11" lengthAdjust="spacingAndGlyphs" textLength="70" x="29" y="267.458">getGroup(): int</text><ellipse cx="20" cy="276.875" fill="#84BE84" rx="3" ry="3" style="stroke: #038048; stroke-width: 1.0;"/><text fill="#000000" font-family="sans-serif" font-size="11" lengthAdjust="spacingAndGlyphs" textLength="211" x="29" y="281.2939">onTriggerEnter(DoaObject, DoaObject): void</text><ellipse cx="20" cy="290.7109" fill="#84BE84" rx="3" ry="3" style="stroke: #038048; stroke-width: 1.0;"/><text fill="#000000" font-family="sans-serif" font-size="11" lengthAdjust="spacingAndGlyphs" textLength="203" x="29" y="295.1299">onTriggerExit(DoaObject, DoaObject): void</text><ellipse cx="20" cy="304.5469" fill="#84BE84" rx="3" ry="3" style="stroke: #038048; stroke-width: 1.0;"/><text fill="#000000" font-family="sans-serif" font-size="11" lengthAdjust="spacingAndGlyphs" textLength="99" x="29" y="308.9658">debugRender(): void</text></a><!--MD5=[5a5af9b0547913863cbe0ddf55a9ab5e]
class java.io.Serializable--><rect codeLine="19" fill="#FEFECE" filter="url(#fux8izvarat4a)" height="40.1875" id="java.io.Serializable" style="stroke: #A80036; stroke-width: 1.5;" width="105" x="75" y="7"/><ellipse cx="90" cy="27.0938" fill="#B4A7E5" rx="11" ry="11" style="stroke: #A80036; stroke-width: 1.0;"/><path d="M90.9531,23.7344 L90.9531,30.3906 L92.6719,30.3906 Q93.2813,30.3906 93.5469,30.625 Q93.8125,30.8594 93.8125,31.25 Q93.8125,31.625 93.5469,31.8594 Q93.2813,32.0938 92.6719,32.0938 L87.5313,32.0938 Q86.9219,32.0938 86.6563,31.8594 Q86.3906,31.625 86.3906,31.2344 Q86.3906,30.8594 86.6563,30.625 Q86.9219,30.3906 87.5313,30.3906 L89.25,30.3906 L89.25,23.7344 L87.5313,23.7344 Q86.9219,23.7344 86.6563,23.5 Q86.3906,23.2656 86.3906,22.875 Q86.3906,22.5 86.6563,22.2656 Q86.9219,22.0313 87.5313,22.0313 L92.6719,22.0313 Q93.2813,22.0313 93.5469,22.2656 Q93.8125,22.5 93.8125,22.875 Q93.8125,23.2656 93.5469,23.5 Q93.2813,23.7344 92.6719,23.7344 L90.9531,23.7344 Z "/><text fill="#000000" font-family="sans-serif" font-size="14" font-style="italic" lengthAdjust="spacingAndGlyphs" textLength="73" x="104" y="26.5332">Serializable</text><text fill="#000000" font-family="sans-serif" font-size="10" font-style="italic" lengthAdjust="spacingAndGlyphs" textLength="31" x="125" y="39.9902">java.io</text><!--MD5=[e2ee44eae0d430c9ec15f05fa2157361]
reverse link java.io.Serializable to doa.engine.scene.elements.physics.DoaCollider--><path codeLine="21" d="M127.5,67.43 C127.5,79.29 127.5,92.89 127.5,106.88 " fill="none" id="java.io.Serializable-backto-doa.engine.scene.elements.physics.DoaCollider" style="stroke: #A80036; stroke-width: 1.0; stroke-dasharray: 7.0,7.0;"/><polygon fill="none" points="120.5,67.13,127.5,47.13,134.5,67.13,120.5,67.13" style="stroke: #A80036; stroke-width: 1.0;"/><text fill="#888888" font-family="sans-serif" font-size="10" lengthAdjust="spacingAndGlyphs" textLength="190" x="28.5" y="338.7637">UMLDoclet 2.0.12, PlantUML 1.2020.16</text><!--MD5=[2aa4c706f452cf8a97ba3e70d1ddf467]
@startuml
    set namespaceSeparator none
    hide empty fields
    hide empty methods

    abstract class "<size:14>DoaCollider\n<size:10>doa.engine.scene.elements.physics" as doa.engine.scene.elements.physics.DoaCollider [[DoaCollider.html]] {
        #isTrigger: boolean
        #group: int
        {abstract} +getPoints(): List<DoaVector>
        +makeTrigger(): DoaCollider
        +makeNonTrigger(): DoaCollider
        +isTrigger(): boolean
        +group(int): DoaCollider
        +getGroup(): int
        +onTriggerEnter(DoaObject, DoaObject): void
        +onTriggerExit(DoaObject, DoaObject): void
        +debugRender(): void
    }

    interface "<size:14>Serializable\n<size:10>java.io" as java.io.Serializable

    java.io.Serializable <|.. doa.engine.scene.elements.physics.DoaCollider

    center footer UMLDoclet 2.0.12, PlantUML 1.2020.16
@enduml

PlantUML version 1.2020.16(Sun Aug 23 23:20:43 TRT 2020)
(APACHE source distribution)
Java Runtime: OpenJDK Runtime Environment
JVM: OpenJDK 64-Bit Server VM
Default Encoding: Cp1252
Language: en
Country: GB
--></g></svg>