<svg xmlns="http://www.w3.org/2000/svg" xmlns:xlink="http://www.w3.org/1999/xlink" width="265" height="352" contentScriptType="application/ecmascript" contentStyleType="text/css" style="width:265px;height:352px" preserveAspectRatio="none" version="1.1" viewBox="0 0 265 352" zoomAndPan="magnify"><defs><filter id="fux8izvarat4a" width="300%" height="300%" x="-1" y="-1"><feGaussianBlur result="blurOut" stdDeviation="2"/><feColorMatrix in="blurOut" result="blurOut2" type="matrix" values="0 0 0 0 0 0 0 0 0 0 0 0 0 0 0 0 0 0 .4 0"/><feOffset dx="4" dy="4" in="blurOut2" result="blurOut3"/><feBlend in="SourceGraphic" in2="blurOut3" mode="normal"/></filter></defs><g><a href="DoaCollider.html" target="_top" title="DoaCollider.html" xlink:actuate="onRequest" xlink:href="DoaCollider.html" xlink:show="new" xlink:title="DoaCollider.html" xlink:type="simple"><rect id="doa.engine.scene.elements.physics.DoaCollider" width="237" height="208.383" x="9" y="107" fill="#FEFECE" codeLine="5" filter="url(#fux8izvarat4a)" style="stroke:#a80036;stroke-width:1.5"/><ellipse cx="40.65" cy="127.094" fill="#A9DCDF" rx="11" ry="11" style="stroke:#a80036;stroke-width:1"/><path d="M42.8375,128.8594 L38.6969,128.8594 L38.275,129.8906 L38.6969,129.8906 Q39.3063,129.8906 39.5719,130.125 Q39.8375,130.3594 39.8375,130.75 Q39.8375,131.125 39.5719,131.3594 Q39.3063,131.5938 38.6969,131.5938 L36.4,131.5938 Q35.7906,131.5938 35.5406,131.3594 Q35.275,131.125 35.275,130.7344 Q35.275,130.3594 35.5563,130.125 Q35.8219,129.875 36.4469,129.8906 L39.1188,123.2344 L38.0094,123.2344 Q37.4,123.2344 37.1344,123 Q36.8688,122.7656 36.8688,122.375 Q36.8688,122 37.1344,121.7656 Q37.4,121.5313 38.0094,121.5313 L41.6813,121.5313 L45.0719,129.8906 Q45.6656,129.8906 45.8531,130.0313 Q46.2438,130.2969 46.2438,130.75 Q46.2438,131.125 45.9781,131.3594 Q45.7281,131.5938 45.1188,131.5938 L42.8219,131.5938 Q42.2125,131.5938 41.9469,131.3594 Q41.6813,131.125 41.6813,130.7344 Q41.6813,130.3594 41.9469,130.125 Q42.2125,129.8906 42.8219,129.8906 L43.2438,129.8906 L42.8375,128.8594 Z M42.1188,127.1563 L40.7594,123.7813 L39.3844,127.1563 L42.1188,127.1563 Z"/><text x="105.35" y="126.533" fill="#000" font-family="sans-serif" font-size="14" font-style="italic" lengthAdjust="spacingAndGlyphs" textLength="74">DoaCollider</text><text x="58.35" y="139.99" fill="#000" font-family="sans-serif" font-size="10" font-style="italic" lengthAdjust="spacingAndGlyphs" textLength="168">doa.engine.scene.elements.physics</text><line style="stroke:#a80036;stroke-width:1.5" x1="10" x2="245" y1="147.188" y2="147.188"/><polygon fill="none" points="20 153.188 24 157.188 20 161.188 16 157.188" style="stroke:#b38d22;stroke-width:1"/><text x="29" y="162.606" fill="#000" font-family="sans-serif" font-size="11" lengthAdjust="spacingAndGlyphs" textLength="86">isTrigger: boolean</text><polygon fill="none" points="20 167.023 24 171.023 20 175.023 16 171.023" style="stroke:#b38d22;stroke-width:1"/><text x="29" y="176.442" fill="#000" font-family="sans-serif" font-size="11" lengthAdjust="spacingAndGlyphs" textLength="45">group: int</text><line style="stroke:#a80036;stroke-width:1.5" x1="10" x2="245" y1="182.859" y2="182.859"/><ellipse cx="20" cy="193.859" fill="#84BE84" rx="3" ry="3" style="stroke:#038048;stroke-width:1"/><text x="29" y="198.278" fill="#000" font-family="sans-serif" font-size="11" font-style="italic" lengthAdjust="spacingAndGlyphs" textLength="142">getPoints(): List&lt;DoaVector&gt;</text><ellipse cx="20" cy="207.695" fill="#84BE84" rx="3" ry="3" style="stroke:#038048;stroke-width:1"/><text x="29" y="212.114" fill="#000" font-family="sans-serif" font-size="11" lengthAdjust="spacingAndGlyphs" textLength="127">makeTrigger(): DoaCollider</text><ellipse cx="20" cy="221.531" fill="#84BE84" rx="3" ry="3" style="stroke:#038048;stroke-width:1"/><text x="29" y="225.95" fill="#000" font-family="sans-serif" font-size="11" lengthAdjust="spacingAndGlyphs" textLength="146">makeNonTrigger(): DoaCollider</text><ellipse cx="20" cy="235.367" fill="#84BE84" rx="3" ry="3" style="stroke:#038048;stroke-width:1"/><text x="29" y="239.786" fill="#000" font-family="sans-serif" font-size="11" lengthAdjust="spacingAndGlyphs" textLength="94">isTrigger(): boolean</text><ellipse cx="20" cy="249.203" fill="#84BE84" rx="3" ry="3" style="stroke:#038048;stroke-width:1"/><text x="29" y="253.622" fill="#000" font-family="sans-serif" font-size="11" lengthAdjust="spacingAndGlyphs" textLength="107">group(int): DoaCollider</text><ellipse cx="20" cy="263.039" fill="#84BE84" rx="3" ry="3" style="stroke:#038048;stroke-width:1"/><text x="29" y="267.458" fill="#000" font-family="sans-serif" font-size="11" lengthAdjust="spacingAndGlyphs" textLength="70">getGroup(): int</text><ellipse cx="20" cy="276.875" fill="#84BE84" rx="3" ry="3" style="stroke:#038048;stroke-width:1"/><text x="29" y="281.294" fill="#000" font-family="sans-serif" font-size="11" lengthAdjust="spacingAndGlyphs" textLength="211">onTriggerEnter(DoaObject, DoaObject): void</text><ellipse cx="20" cy="290.711" fill="#84BE84" rx="3" ry="3" style="stroke:#038048;stroke-width:1"/><text x="29" y="295.13" fill="#000" font-family="sans-serif" font-size="11" lengthAdjust="spacingAndGlyphs" textLength="203">onTriggerExit(DoaObject, DoaObject): void</text><ellipse cx="20" cy="304.547" fill="#84BE84" rx="3" ry="3" style="stroke:#038048;stroke-width:1"/><text x="29" y="308.966" fill="#000" font-family="sans-serif" font-size="11" lengthAdjust="spacingAndGlyphs" textLength="99">debugRender(): void</text></a><rect id="java.io.Serializable" width="105" height="40.188" x="75" y="7" fill="#FEFECE" codeLine="19" filter="url(#fux8izvarat4a)" style="stroke:#a80036;stroke-width:1.5"/><ellipse cx="90" cy="27.094" fill="#B4A7E5" rx="11" ry="11" style="stroke:#a80036;stroke-width:1"/><path d="M90.9531,23.7344 L90.9531,30.3906 L92.6719,30.3906 Q93.2813,30.3906 93.5469,30.625 Q93.8125,30.8594 93.8125,31.25 Q93.8125,31.625 93.5469,31.8594 Q93.2813,32.0938 92.6719,32.0938 L87.5313,32.0938 Q86.9219,32.0938 86.6563,31.8594 Q86.3906,31.625 86.3906,31.2344 Q86.3906,30.8594 86.6563,30.625 Q86.9219,30.3906 87.5313,30.3906 L89.25,30.3906 L89.25,23.7344 L87.5313,23.7344 Q86.9219,23.7344 86.6563,23.5 Q86.3906,23.2656 86.3906,22.875 Q86.3906,22.5 86.6563,22.2656 Q86.9219,22.0313 87.5313,22.0313 L92.6719,22.0313 Q93.2813,22.0313 93.5469,22.2656 Q93.8125,22.5 93.8125,22.875 Q93.8125,23.2656 93.5469,23.5 Q93.2813,23.7344 92.6719,23.7344 L90.9531,23.7344 Z"/><text x="104" y="26.533" fill="#000" font-family="sans-serif" font-size="14" font-style="italic" lengthAdjust="spacingAndGlyphs" textLength="73">Serializable</text><text x="125" y="39.99" fill="#000" font-family="sans-serif" font-size="10" font-style="italic" lengthAdjust="spacingAndGlyphs" textLength="31">java.io</text><path id="java.io.Serializable-backto-doa.engine.scene.elements.physics.DoaCollider" fill="none" d="M127.5,67.43 C127.5,79.29 127.5,92.89 127.5,106.88" codeLine="21" style="stroke:#a80036;stroke-width:1;stroke-dasharray:7,7"/><polygon fill="none" points="120.5 67.13 127.5 47.13 134.5 67.13 120.5 67.13" style="stroke:#a80036;stroke-width:1"/><text x="28.5" y="338.764" fill="#888" font-family="sans-serif" font-size="10" lengthAdjust="spacingAndGlyphs" textLength="190">UMLDoclet 2.0.12, PlantUML 1.2020.16</text></g></svg>