<svg xmlns="http://www.w3.org/2000/svg" xmlns:xlink="http://www.w3.org/1999/xlink" width="252" height="255" contentScriptType="application/ecmascript" contentStyleType="text/css" style="width:252px;height:255px" preserveAspectRatio="none" version="1.1" viewBox="0 0 252 255" zoomAndPan="magnify"><defs><filter id="fflqn7pcb0x7v" width="300%" height="300%" x="-1" y="-1"><feGaussianBlur result="blurOut" stdDeviation="2"/><feColorMatrix in="blurOut" result="blurOut2" type="matrix" values="0 0 0 0 0 0 0 0 0 0 0 0 0 0 0 0 0 0 .4 0"/><feOffset dx="4" dy="4" in="blurOut2" result="blurOut3"/><feBlend in="SourceGraphic" in2="blurOut3" mode="normal"/></filter></defs><g><a href="DoaEllipseCollider.html" target="_top" title="DoaEllipseCollider.html" xlink:actuate="onRequest" xlink:href="DoaEllipseCollider.html" xlink:show="new" xlink:title="DoaEllipseCollider.html" xlink:type="simple"><rect id="doa.engine.scene.elements.physics.DoaEllipseCollider" width="224" height="111.531" x="9" y="107" fill="#FEFECE" codeLine="5" filter="url(#fflqn7pcb0x7v)" style="stroke:#a80036;stroke-width:1.5"/><ellipse cx="34.8" cy="127.094" fill="#ADD1B2" rx="11" ry="11" style="stroke:#a80036;stroke-width:1"/><path d="M37.5656,122.9688 Q37.7219,122.75 37.9094,122.6406 Q38.0969,122.5313 38.3156,122.5313 Q38.6906,122.5313 38.925,122.7969 Q39.1594,123.0469 39.1594,123.6563 L39.1594,125.1094 Q39.1594,125.7188 38.925,125.9844 Q38.6906,126.25 38.3156,126.25 Q37.9719,126.25 37.7688,126.0469 Q37.5656,125.8594 37.4563,125.3438 Q37.4094,124.9844 37.2219,124.7969 Q36.8938,124.4219 36.2844,124.2031 Q35.675,123.9844 35.05,123.9844 Q34.2844,123.9844 33.6438,124.3125 Q33.0188,124.6406 32.5188,125.3906 Q32.0344,126.1406 32.0344,127.1719 L32.0344,128.2656 Q32.0344,129.5 32.925,130.3281 Q33.8156,131.1406 35.4094,131.1406 Q36.3469,131.1406 37.0031,130.8906 Q37.3938,130.7344 37.8156,130.2969 Q38.0813,130.0313 38.2219,129.9531 Q38.3781,129.875 38.5813,129.875 Q38.9094,129.875 39.1594,130.1406 Q39.425,130.3906 39.425,130.7344 Q39.425,131.0781 39.0813,131.4844 Q38.5813,132.0625 37.7844,132.3906 Q36.7063,132.8438 35.4094,132.8438 Q33.8938,132.8438 32.6906,132.2188 Q31.7062,131.7188 31.0187,130.6563 Q30.3312,129.5781 30.3312,128.2969 L30.3312,127.1406 Q30.3312,125.8125 30.9406,124.6719 Q31.5656,123.5156 32.6594,122.9063 Q33.7531,122.2813 34.9875,122.2813 Q35.7219,122.2813 36.3625,122.4531 Q37.0188,122.6094 37.5656,122.9688 Z"/><text x="77.7" y="126.533" fill="#000" font-family="sans-serif" font-size="14" lengthAdjust="spacingAndGlyphs" textLength="115">DoaEllipseCollider</text><text x="51.2" y="139.99" fill="#000" font-family="sans-serif" font-size="10" lengthAdjust="spacingAndGlyphs" textLength="168">doa.engine.scene.elements.physics</text><line style="stroke:#a80036;stroke-width:1.5" x1="10" x2="232" y1="147.188" y2="147.188"/><polygon fill="none" points="20 153.188 24 157.188 20 161.188 16 157.188" style="stroke:#b38d22;stroke-width:1"/><text x="29" y="162.606" fill="#000" font-family="sans-serif" font-size="11" lengthAdjust="spacingAndGlyphs" textLength="75">majorAxis: float</text><polygon fill="none" points="20 167.023 24 171.023 20 175.023 16 171.023" style="stroke:#b38d22;stroke-width:1"/><text x="29" y="176.442" fill="#000" font-family="sans-serif" font-size="11" lengthAdjust="spacingAndGlyphs" textLength="75">minorAxis: float</text><line style="stroke:#a80036;stroke-width:1.5" x1="10" x2="232" y1="182.859" y2="182.859"/><ellipse cx="20" cy="193.859" fill="#84BE84" rx="3" ry="3" style="stroke:#038048;stroke-width:1"/><text x="29" y="198.278" fill="#000" font-family="sans-serif" font-size="11" lengthAdjust="spacingAndGlyphs" textLength="140">DoaEllipseCollider(float, float)</text><ellipse cx="20" cy="207.695" fill="#84BE84" rx="3" ry="3" style="stroke:#038048;stroke-width:1"/><text x="29" y="212.114" fill="#000" font-family="sans-serif" font-size="11" lengthAdjust="spacingAndGlyphs" textLength="198">DoaEllipseCollider(float, float, DoaVector)</text></a><a href="DoaArbitraryShapeCollider.html" target="_top" title="DoaArbitraryShapeCollider.html" xlink:actuate="onRequest" xlink:href="DoaArbitraryShapeCollider.html" xlink:show="new" xlink:title="DoaArbitraryShapeCollider.html" xlink:type="simple"><rect id="doa.engine.scene.elements.physics.DoaArbitraryShapeCollider" width="201" height="40.188" x="20.5" y="7" fill="#FEFECE" codeLine="12" filter="url(#fflqn7pcb0x7v)" style="stroke:#a80036;stroke-width:1.5"/><ellipse cx="35.5" cy="27.094" fill="#ADD1B2" rx="11" ry="11" style="stroke:#a80036;stroke-width:1"/><path d="M38.2656,22.9688 Q38.4219,22.75 38.6094,22.6406 Q38.7969,22.5313 39.0156,22.5313 Q39.3906,22.5313 39.625,22.7969 Q39.8594,23.0469 39.8594,23.6563 L39.8594,25.1094 Q39.8594,25.7188 39.625,25.9844 Q39.3906,26.25 39.0156,26.25 Q38.6719,26.25 38.4688,26.0469 Q38.2656,25.8594 38.1563,25.3438 Q38.1094,24.9844 37.9219,24.7969 Q37.5938,24.4219 36.9844,24.2031 Q36.375,23.9844 35.75,23.9844 Q34.9844,23.9844 34.3438,24.3125 Q33.7188,24.6406 33.2188,25.3906 Q32.7344,26.1406 32.7344,27.1719 L32.7344,28.2656 Q32.7344,29.5 33.625,30.3281 Q34.5156,31.1406 36.1094,31.1406 Q37.0469,31.1406 37.7031,30.8906 Q38.0938,30.7344 38.5156,30.2969 Q38.7813,30.0313 38.9219,29.9531 Q39.0781,29.875 39.2813,29.875 Q39.6094,29.875 39.8594,30.1406 Q40.125,30.3906 40.125,30.7344 Q40.125,31.0781 39.7813,31.4844 Q39.2813,32.0625 38.4844,32.3906 Q37.4063,32.8438 36.1094,32.8438 Q34.5938,32.8438 33.3906,32.2188 Q32.4063,31.7188 31.7188,30.6563 Q31.0313,29.5781 31.0313,28.2969 L31.0313,27.1406 Q31.0313,25.8125 31.6406,24.6719 Q32.2656,23.5156 33.3594,22.9063 Q34.4531,22.2813 35.6875,22.2813 Q36.4219,22.2813 37.0625,22.4531 Q37.7188,22.6094 38.2656,22.9688 Z"/><text x="49.5" y="26.533" fill="#000" font-family="sans-serif" font-size="14" lengthAdjust="spacingAndGlyphs" textLength="169">DoaArbitraryShapeCollider</text><text x="50" y="39.99" fill="#000" font-family="sans-serif" font-size="10" lengthAdjust="spacingAndGlyphs" textLength="168">doa.engine.scene.elements.physics</text></a><path id="doa.engine.scene.elements.physics.DoaArbitraryShapeCollider-backto-doa.engine.scene.elements.physics.DoaEllipseCollider" fill="none" d="M121,67.37 C121,79.75 121,93.66 121,106.93" codeLine="14" style="stroke:#a80036;stroke-width:1"/><polygon fill="none" points="114 67.2 121 47.2 128 67.2 114 67.2" style="stroke:#a80036;stroke-width:1"/><text x="22" y="241.912" fill="#888" font-family="sans-serif" font-size="10" lengthAdjust="spacingAndGlyphs" textLength="190">UMLDoclet 2.0.12, PlantUML 1.2020.16</text></g></svg>