<?xml version="1.0" encoding="UTF-8" standalone="no"?><svg xmlns="http://www.w3.org/2000/svg" xmlns:xlink="http://www.w3.org/1999/xlink" contentScriptType="application/ecmascript" contentStyleType="text/css" height="587px" preserveAspectRatio="none" style="width:290px;height:587px;" version="1.1" viewBox="0 0 290 587" width="290px" zoomAndPan="magnify"><defs><filter height="300%" id="f1pq1kzmo0ljb8" width="300%" x="-1" y="-1"><feGaussianBlur result="blurOut" stdDeviation="2.0"/><feColorMatrix in="blurOut" result="blurOut2" type="matrix" values="0 0 0 0 0 0 0 0 0 0 0 0 0 0 0 0 0 0 .4 0"/><feOffset dx="4.0" dy="4.0" in="blurOut2" result="blurOut3"/><feBlend in="SourceGraphic" in2="blurOut3" mode="normal"/></filter></defs><g><!--MD5=[9cf1629c098f8cba5fd0064358a7def7]
class doa.engine.scene.elements.physics.DoaRigidBody--><a href="DoaRigidBody.html" target="_top" title="DoaRigidBody.html" xlink:actuate="onRequest" xlink:href="DoaRigidBody.html" xlink:show="new" xlink:title="DoaRigidBody.html" xlink:type="simple"><rect codeLine="5" fill="#FEFECE" filter="url(#f1pq1kzmo0ljb8)" height="443.5938" id="doa.engine.scene.elements.physics.DoaRigidBody" style="stroke: #A80036; stroke-width: 1.5;" width="262" x="9" y="107"/><ellipse cx="51.9" cy="127.0938" fill="#ADD1B2" rx="11" ry="11" style="stroke: #A80036; stroke-width: 1.0;"/><path d="M54.6656,122.9688 Q54.8219,122.75 55.0094,122.6406 Q55.1969,122.5313 55.4156,122.5313 Q55.7906,122.5313 56.025,122.7969 Q56.2594,123.0469 56.2594,123.6563 L56.2594,125.1094 Q56.2594,125.7188 56.025,125.9844 Q55.7906,126.25 55.4156,126.25 Q55.0719,126.25 54.8688,126.0469 Q54.6656,125.8594 54.5563,125.3438 Q54.5094,124.9844 54.3219,124.7969 Q53.9938,124.4219 53.3844,124.2031 Q52.775,123.9844 52.15,123.9844 Q51.3844,123.9844 50.7438,124.3125 Q50.1188,124.6406 49.6188,125.3906 Q49.1344,126.1406 49.1344,127.1719 L49.1344,128.2656 Q49.1344,129.5 50.025,130.3281 Q50.9156,131.1406 52.5094,131.1406 Q53.4469,131.1406 54.1031,130.8906 Q54.4938,130.7344 54.9156,130.2969 Q55.1813,130.0313 55.3219,129.9531 Q55.4781,129.875 55.6813,129.875 Q56.0094,129.875 56.2594,130.1406 Q56.525,130.3906 56.525,130.7344 Q56.525,131.0781 56.1813,131.4844 Q55.6813,132.0625 54.8844,132.3906 Q53.8063,132.8438 52.5094,132.8438 Q50.9938,132.8438 49.7906,132.2188 Q48.8063,131.7188 48.1188,130.6563 Q47.4313,129.5781 47.4313,128.2969 L47.4313,127.1406 Q47.4313,125.8125 48.0406,124.6719 Q48.6656,123.5156 49.7594,122.9063 Q50.8531,122.2813 52.0875,122.2813 Q52.8219,122.2813 53.4625,122.4531 Q54.1188,122.6094 54.6656,122.9688 Z "/><text fill="#000000" font-family="sans-serif" font-size="14" lengthAdjust="spacingAndGlyphs" textLength="90" x="111.1" y="126.5332">DoaRigidBody</text><text fill="#000000" font-family="sans-serif" font-size="10" lengthAdjust="spacingAndGlyphs" textLength="168" x="72.1" y="139.9902">doa.engine.scene.elements.physics</text><line style="stroke: #A80036; stroke-width: 1.5;" x1="10" x2="270" y1="147.1875" y2="147.1875"/><ellipse cx="20" cy="158.1875" fill="none" rx="3" ry="3" style="stroke: #038048; stroke-width: 1.0;"/><text fill="#000000" font-family="sans-serif" font-size="11" lengthAdjust="spacingAndGlyphs" textLength="123" x="29" y="162.6064">linearVelocity: DoaVector</text><ellipse cx="20" cy="172.0234" fill="none" rx="3" ry="3" style="stroke: #038048; stroke-width: 1.0;"/><text fill="#000000" font-family="sans-serif" font-size="11" lengthAdjust="spacingAndGlyphs" textLength="102" x="29" y="176.4424">angularVelocity: float</text><ellipse cx="20" cy="185.8594" fill="none" rx="3" ry="3" style="stroke: #038048; stroke-width: 1.0;"/><text fill="#000000" font-family="sans-serif" font-size="11" lengthAdjust="spacingAndGlyphs" textLength="106" x="29" y="190.2783">linearDampening: float</text><ellipse cx="20" cy="199.6953" fill="none" rx="3" ry="3" style="stroke: #038048; stroke-width: 1.0;"/><text fill="#000000" font-family="sans-serif" font-size="11" lengthAdjust="spacingAndGlyphs" textLength="116" x="29" y="204.1143">angularDampening: float</text><ellipse cx="20" cy="213.5313" fill="none" rx="3" ry="3" style="stroke: #038048; stroke-width: 1.0;"/><text fill="#000000" font-family="sans-serif" font-size="11" lengthAdjust="spacingAndGlyphs" textLength="53" x="29" y="217.9502">mass: float</text><ellipse cx="20" cy="227.3672" fill="none" rx="3" ry="3" style="stroke: #038048; stroke-width: 1.0;"/><text fill="#000000" font-family="sans-serif" font-size="11" lengthAdjust="spacingAndGlyphs" textLength="60" x="29" y="231.7861">friction: float</text><ellipse cx="20" cy="241.2031" fill="none" rx="3" ry="3" style="stroke: #038048; stroke-width: 1.0;"/><text fill="#000000" font-family="sans-serif" font-size="11" lengthAdjust="spacingAndGlyphs" textLength="69" x="29" y="245.6221">elasticity: float</text><ellipse cx="20" cy="255.0391" fill="none" rx="3" ry="3" style="stroke: #038048; stroke-width: 1.0;"/><text fill="#000000" font-family="sans-serif" font-size="11" lengthAdjust="spacingAndGlyphs" textLength="95" x="29" y="259.458">type: DoaBodyType</text><ellipse cx="20" cy="268.875" fill="none" rx="3" ry="3" style="stroke: #038048; stroke-width: 1.0;"/><text fill="#000000" font-family="sans-serif" font-size="11" lengthAdjust="spacingAndGlyphs" textLength="129" x="29" y="273.2939">colliders: List&lt;DoaCollider&gt;</text><ellipse cx="20" cy="282.7109" fill="none" rx="3" ry="3" style="stroke: #038048; stroke-width: 1.0;"/><text fill="#000000" font-family="sans-serif" font-size="11" lengthAdjust="spacingAndGlyphs" textLength="107" x="29" y="287.1299">fixedRotation: boolean</text><ellipse cx="20" cy="296.5469" fill="none" rx="3" ry="3" style="stroke: #038048; stroke-width: 1.0;"/><text fill="#000000" font-family="sans-serif" font-size="11" lengthAdjust="spacingAndGlyphs" textLength="78" x="29" y="300.9658">isBullet: boolean</text><ellipse cx="20" cy="310.3828" fill="none" rx="3" ry="3" style="stroke: #038048; stroke-width: 1.0;"/><text fill="#000000" font-family="sans-serif" font-size="11" lengthAdjust="spacingAndGlyphs" textLength="89" x="29" y="314.8018">canSleep: boolean</text><line style="stroke: #A80036; stroke-width: 1.5;" x1="10" x2="270" y1="321.2188" y2="321.2188"/><ellipse cx="20" cy="332.2188" fill="#84BE84" rx="3" ry="3" style="stroke: #038048; stroke-width: 1.0;"/><text fill="#000000" font-family="sans-serif" font-size="11" lengthAdjust="spacingAndGlyphs" textLength="170" x="29" y="336.6377">setLinearVelocity(DoaVector): void</text><ellipse cx="20" cy="346.0547" fill="#84BE84" rx="3" ry="3" style="stroke: #038048; stroke-width: 1.0;"/><text fill="#000000" font-family="sans-serif" font-size="11" lengthAdjust="spacingAndGlyphs" textLength="150" x="29" y="350.4736">getLinearVelocity(): DoaVector</text><ellipse cx="20" cy="359.8906" fill="#84BE84" rx="3" ry="3" style="stroke: #038048; stroke-width: 1.0;"/><text fill="#000000" font-family="sans-serif" font-size="11" lengthAdjust="spacingAndGlyphs" textLength="147" x="29" y="364.3096">setAngularVelocity(float): void</text><ellipse cx="20" cy="373.7266" fill="#84BE84" rx="3" ry="3" style="stroke: #038048; stroke-width: 1.0;"/><text fill="#000000" font-family="sans-serif" font-size="11" lengthAdjust="spacingAndGlyphs" textLength="127" x="29" y="378.1455">getAngularVelocity(): float</text><ellipse cx="20" cy="387.5625" fill="#84BE84" rx="3" ry="3" style="stroke: #038048; stroke-width: 1.0;"/><text fill="#000000" font-family="sans-serif" font-size="11" lengthAdjust="spacingAndGlyphs" textLength="168" x="29" y="391.9814">setTransform(DoaTransform): void</text><ellipse cx="20" cy="401.3984" fill="#84BE84" rx="3" ry="3" style="stroke: #038048; stroke-width: 1.0;"/><text fill="#000000" font-family="sans-serif" font-size="11" lengthAdjust="spacingAndGlyphs" textLength="148" x="29" y="405.8174">getTransform(): DoaTransform</text><ellipse cx="20" cy="415.2344" fill="#84BE84" rx="3" ry="3" style="stroke: #038048; stroke-width: 1.0;"/><text fill="#000000" font-family="sans-serif" font-size="11" lengthAdjust="spacingAndGlyphs" textLength="198" x="29" y="419.6533">applyForce(DoaVector, DoaVector): void</text><ellipse cx="20" cy="429.0703" fill="#84BE84" rx="3" ry="3" style="stroke: #038048; stroke-width: 1.0;"/><text fill="#000000" font-family="sans-serif" font-size="11" lengthAdjust="spacingAndGlyphs" textLength="184" x="29" y="433.4893">applyForceToCenter(DoaVector): void</text><ellipse cx="20" cy="442.9063" fill="#84BE84" rx="3" ry="3" style="stroke: #038048; stroke-width: 1.0;"/><text fill="#000000" font-family="sans-serif" font-size="11" lengthAdjust="spacingAndGlyphs" textLength="115" x="29" y="447.3252">applyTorque(float): void</text><ellipse cx="20" cy="456.7422" fill="#84BE84" rx="3" ry="3" style="stroke: #038048; stroke-width: 1.0;"/><text fill="#000000" font-family="sans-serif" font-size="11" lengthAdjust="spacingAndGlyphs" textLength="236" x="29" y="461.1611">applyLinearImpulse(DoaVector, DoaVector): void</text><ellipse cx="20" cy="470.5781" fill="#84BE84" rx="3" ry="3" style="stroke: #038048; stroke-width: 1.0;"/><text fill="#000000" font-family="sans-serif" font-size="11" lengthAdjust="spacingAndGlyphs" textLength="155" x="29" y="474.9971">applyAngularImpulse(float): void</text><ellipse cx="20" cy="484.4141" fill="#84BE84" rx="3" ry="3" style="stroke: #038048; stroke-width: 1.0;"/><text fill="#000000" font-family="sans-serif" font-size="11" lengthAdjust="spacingAndGlyphs" textLength="50" x="29" y="488.833">tick(): void</text><polygon fill="#FFFF44" points="20,493.25,24,497.25,20,501.25,16,497.25" style="stroke: #B38D22; stroke-width: 1.0;"/><text fill="#000000" font-family="sans-serif" font-size="11" lengthAdjust="spacingAndGlyphs" textLength="116" x="29" y="502.6689">onAdd(DoaObject): void</text><polygon fill="#FFFF44" points="20,507.0859,24,511.0859,20,515.0859,16,511.0859" style="stroke: #B38D22; stroke-width: 1.0;"/><text fill="#000000" font-family="sans-serif" font-size="11" lengthAdjust="spacingAndGlyphs" textLength="135" x="29" y="516.5049">onRemove(DoaObject): void</text><ellipse cx="20" cy="525.9219" fill="#84BE84" rx="3" ry="3" style="stroke: #038048; stroke-width: 1.0;"/><text fill="#000000" font-family="sans-serif" font-size="11" lengthAdjust="spacingAndGlyphs" textLength="129" x="29" y="530.3408">setNativeBody(Body): void</text><ellipse cx="20" cy="539.7578" fill="#84BE84" rx="3" ry="3" style="stroke: #038048; stroke-width: 1.0;"/><text fill="#000000" font-family="sans-serif" font-size="11" lengthAdjust="spacingAndGlyphs" textLength="109" x="29" y="544.1768">getNativeBody(): Body</text></a><!--MD5=[446a402d650adfd9c60db59099938794]
class doa.engine.scene.DoaComponent--><a href="..\..\DoaComponent.html" target="_top" title="..\..\DoaComponent.html" xlink:actuate="onRequest" xlink:href="..\..\DoaComponent.html" xlink:show="new" xlink:title="..\..\DoaComponent.html" xlink:type="simple"><rect codeLine="36" fill="#FEFECE" filter="url(#f1pq1kzmo0ljb8)" height="40.1875" id="doa.engine.scene.DoaComponent" style="stroke: #A80036; stroke-width: 1.5;" width="131" x="74.5" y="7"/><ellipse cx="89.5" cy="27.0938" fill="#A9DCDF" rx="11" ry="11" style="stroke: #A80036; stroke-width: 1.0;"/><path d="M91.6875,28.8594 L87.5469,28.8594 L87.125,29.8906 L87.5469,29.8906 Q88.1563,29.8906 88.4219,30.125 Q88.6875,30.3594 88.6875,30.75 Q88.6875,31.125 88.4219,31.3594 Q88.1563,31.5938 87.5469,31.5938 L85.25,31.5938 Q84.6406,31.5938 84.3906,31.3594 Q84.125,31.125 84.125,30.7344 Q84.125,30.3594 84.4063,30.125 Q84.6719,29.875 85.2969,29.8906 L87.9688,23.2344 L86.8594,23.2344 Q86.25,23.2344 85.9844,23 Q85.7188,22.7656 85.7188,22.375 Q85.7188,22 85.9844,21.7656 Q86.25,21.5313 86.8594,21.5313 L90.5313,21.5313 L93.9219,29.8906 Q94.5156,29.8906 94.7031,30.0313 Q95.0938,30.2969 95.0938,30.75 Q95.0938,31.125 94.8281,31.3594 Q94.5781,31.5938 93.9688,31.5938 L91.6719,31.5938 Q91.0625,31.5938 90.7969,31.3594 Q90.5313,31.125 90.5313,30.7344 Q90.5313,30.3594 90.7969,30.125 Q91.0625,29.8906 91.6719,29.8906 L92.0938,29.8906 L91.6875,28.8594 Z M90.9688,27.1563 L89.6094,23.7813 L88.2344,27.1563 L90.9688,27.1563 Z "/><text fill="#000000" font-family="sans-serif" font-size="14" font-style="italic" lengthAdjust="spacingAndGlyphs" textLength="99" x="103.5" y="26.5332">DoaComponent</text><text fill="#000000" font-family="sans-serif" font-size="10" font-style="italic" lengthAdjust="spacingAndGlyphs" textLength="85" x="110.5" y="39.9902">doa.engine.scene</text></a><!--MD5=[68e72c051863043aadc141a8c96e32ba]
reverse link doa.engine.scene.DoaComponent to doa.engine.scene.elements.physics.DoaRigidBody--><path codeLine="38" d="M140,67.26 C140,78.76 140,92.21 140,106.84 " fill="none" id="doa.engine.scene.DoaComponent-backto-doa.engine.scene.elements.physics.DoaRigidBody" style="stroke: #A80036; stroke-width: 1.0;"/><polygon fill="none" points="133,67.22,140,47.22,147,67.22,133,67.22" style="stroke: #A80036; stroke-width: 1.0;"/><text fill="#888888" font-family="sans-serif" font-size="10" lengthAdjust="spacingAndGlyphs" textLength="190" x="41" y="573.9746">UMLDoclet 2.0.12, PlantUML 1.2020.16</text><!--MD5=[e089d74037dd8ca85740f884eee9d0b3]
@startuml
    set namespaceSeparator none
    hide empty fields
    hide empty methods

    class "<size:14>DoaRigidBody\n<size:10>doa.engine.scene.elements.physics" as doa.engine.scene.elements.physics.DoaRigidBody [[DoaRigidBody.html]] {
        +linearVelocity: DoaVector
        +angularVelocity: float
        +linearDampening: float
        +angularDampening: float
        +mass: float
        +friction: float
        +elasticity: float
        +type: DoaBodyType
        +colliders: List<DoaCollider>
        +fixedRotation: boolean
        +isBullet: boolean
        +canSleep: boolean
        +setLinearVelocity(DoaVector): void
        +getLinearVelocity(): DoaVector
        +setAngularVelocity(float): void
        +getAngularVelocity(): float
        +setTransform(DoaTransform): void
        +getTransform(): DoaTransform
        +applyForce(DoaVector, DoaVector): void
        +applyForceToCenter(DoaVector): void
        +applyTorque(float): void
        +applyLinearImpulse(DoaVector, DoaVector): void
        +applyAngularImpulse(float): void
        +tick(): void
        #onAdd(DoaObject): void
        #onRemove(DoaObject): void
        +setNativeBody(Body): void
        +getNativeBody(): Body
    }

    abstract class "<size:14>DoaComponent\n<size:10>doa.engine.scene" as doa.engine.scene.DoaComponent [[..\..\DoaComponent.html]]

    doa.engine.scene.DoaComponent <|- - doa.engine.scene.elements.physics.DoaRigidBody

    center footer UMLDoclet 2.0.12, PlantUML 1.2020.16
@enduml

PlantUML version 1.2020.16(Sun Aug 23 23:20:43 TRT 2020)
(APACHE source distribution)
Java Runtime: OpenJDK Runtime Environment
JVM: OpenJDK 64-Bit Server VM
Default Encoding: Cp1252
Language: en
Country: GB
--></g></svg>