<?xml version="1.0" encoding="UTF-8" standalone="no"?><svg xmlns="http://www.w3.org/2000/svg" xmlns:xlink="http://www.w3.org/1999/xlink" contentScriptType="application/ecmascript" contentStyleType="text/css" height="1304px" preserveAspectRatio="none" style="width:951px;height:1304px;" version="1.1" viewBox="0 0 951 1304" width="951px" zoomAndPan="magnify"><defs><filter height="300%" id="f1pbihg8onb0ls" width="300%" x="-1" y="-1"><feGaussianBlur result="blurOut" stdDeviation="2.0"/><feColorMatrix in="blurOut" result="blurOut2" type="matrix" values="0 0 0 0 0 0 0 0 0 0 0 0 0 0 0 0 0 0 .4 0"/><feOffset dx="4.0" dy="4.0" in="blurOut2" result="blurOut3"/><feBlend in="SourceGraphic" in2="blurOut3" mode="normal"/></filter></defs><g><!--MD5=[b981a40d8139f07c4f62ef0df263a62b]
cluster doa.engine.scene.elements.physics--><polygon fill="#FFFFFF" filter="url(#f1pbihg8onb0ls)" points="16,181,274,181,281,204.6094,773,204.6094,773,1275,16,1275,16,181" style="stroke: #000000; stroke-width: 1.5;"/><line style="stroke: #000000; stroke-width: 1.5;" x1="16" x2="281" y1="204.6094" y2="204.6094"/><text fill="#000000" font-family="sans-serif" font-size="14" font-weight="bold" lengthAdjust="spacingAndGlyphs" textLength="252" x="20" y="197.5332">doa.engine.scene.elements.physics</text><!--MD5=[0d852700fdad35b7061d461d6907a324]
cluster java.io--><polygon fill="#FFFFFF" filter="url(#f1pbihg8onb0ls)" points="797,361,849,361,856,384.6094,929,384.6094,929,461,797,461,797,361" style="stroke: #000000; stroke-width: 1.5;"/><line style="stroke: #000000; stroke-width: 1.5;" x1="797" x2="856" y1="384.6094" y2="384.6094"/><text fill="#000000" font-family="sans-serif" font-size="14" font-weight="bold" lengthAdjust="spacingAndGlyphs" textLength="46" x="801" y="377.5332">java.io</text><!--MD5=[8099be491052978abf5cae05cc1ddf0f]
cluster doa.engine.scene--><polygon fill="#FFFFFF" filter="url(#f1pbihg8onb0ls)" points="314,6,446,6,453,29.6094,482,29.6094,482,148,314,148,314,6" style="stroke: #000000; stroke-width: 1.5;"/><line style="stroke: #000000; stroke-width: 1.5;" x1="314" x2="453" y1="29.6094" y2="29.6094"/><text fill="#000000" font-family="sans-serif" font-size="14" font-weight="bold" lengthAdjust="spacingAndGlyphs" textLength="126" x="318" y="22.5332">doa.engine.scene</text><!--MD5=[3a35777257effd77a61f5032829c48bf]
class doa.engine.scene.elements.physics.DoaArbitraryShapeCollider--><a href="DoaArbitraryShapeCollider.html" target="_top" title="DoaArbitraryShapeCollider.html" xlink:actuate="onRequest" xlink:href="DoaArbitraryShapeCollider.html" xlink:show="new" xlink:title="DoaArbitraryShapeCollider.html" xlink:type="simple"><rect codeLine="3" fill="#FEFECE" filter="url(#f1pbihg8onb0ls)" height="89.5078" id="doa.engine.scene.elements.physics.DoaArbitraryShapeCollider" style="stroke: #A80036; stroke-width: 1.5;" width="243" x="32.5" y="984.5"/><ellipse cx="76.75" cy="1000.5" fill="#ADD1B2" rx="11" ry="11" style="stroke: #A80036; stroke-width: 1.0;"/><path d="M79.5156,996.375 Q79.6719,996.1563 79.8594,996.0469 Q80.0469,995.9375 80.2656,995.9375 Q80.6406,995.9375 80.875,996.2031 Q81.1094,996.4531 81.1094,997.0625 L81.1094,998.5156 Q81.1094,999.125 80.875,999.3906 Q80.6406,999.6563 80.2656,999.6563 Q79.9219,999.6563 79.7188,999.4531 Q79.5156,999.2656 79.4063,998.75 Q79.3594,998.3906 79.1719,998.2031 Q78.8438,997.8281 78.2344,997.6094 Q77.625,997.3906 77,997.3906 Q76.2344,997.3906 75.5938,997.7188 Q74.9688,998.0469 74.4688,998.7969 Q73.9844,999.5469 73.9844,1000.5781 L73.9844,1001.6719 Q73.9844,1002.9063 74.875,1003.7344 Q75.7656,1004.5469 77.3594,1004.5469 Q78.2969,1004.5469 78.9531,1004.2969 Q79.3438,1004.1406 79.7656,1003.7031 Q80.0313,1003.4375 80.1719,1003.3594 Q80.3281,1003.2813 80.5313,1003.2813 Q80.8594,1003.2813 81.1094,1003.5469 Q81.375,1003.7969 81.375,1004.1406 Q81.375,1004.4844 81.0313,1004.8906 Q80.5313,1005.4688 79.7344,1005.7969 Q78.6563,1006.25 77.3594,1006.25 Q75.8438,1006.25 74.6406,1005.625 Q73.6563,1005.125 72.9688,1004.0625 Q72.2813,1002.9844 72.2813,1001.7031 L72.2813,1000.5469 Q72.2813,999.2188 72.8906,998.0781 Q73.5156,996.9219 74.6094,996.3125 Q75.7031,995.6875 76.9375,995.6875 Q77.6719,995.6875 78.3125,995.8594 Q78.9688,996.0156 79.5156,996.375 Z "/><text fill="#000000" font-family="sans-serif" font-size="12" lengthAdjust="spacingAndGlyphs" textLength="146" x="97.25" y="1005.4102">DoaArbitraryShapeCollider</text><line style="stroke: #A80036; stroke-width: 1.5;" x1="33.5" x2="274.5" y1="1016.5" y2="1016.5"/><polygon fill="none" points="43.5,1022.5,47.5,1026.5,43.5,1030.5,39.5,1026.5" style="stroke: #B38D22; stroke-width: 1.0;"/><text fill="#000000" font-family="sans-serif" font-size="11" lengthAdjust="spacingAndGlyphs" textLength="116" x="52.5" y="1031.9189">points: List&lt;DoaVector&gt;</text><line style="stroke: #A80036; stroke-width: 1.5;" x1="33.5" x2="274.5" y1="1038.3359" y2="1038.3359"/><ellipse cx="43.5" cy="1049.3359" fill="#84BE84" rx="3" ry="3" style="stroke: #038048; stroke-width: 1.0;"/><text fill="#000000" font-family="sans-serif" font-size="11" lengthAdjust="spacingAndGlyphs" textLength="217" x="52.5" y="1053.7549">DoaArbitraryShapeCollider(List&lt;DoaVector&gt;)</text><ellipse cx="43.5" cy="1063.1719" fill="#84BE84" rx="3" ry="3" style="stroke: #038048; stroke-width: 1.0;"/><text fill="#000000" font-family="sans-serif" font-size="11" lengthAdjust="spacingAndGlyphs" textLength="139" x="52.5" y="1067.5908">getPoints(): List&lt;DoaVector&gt;</text></a><!--MD5=[e1232e5db2a8f0a02bbeb2f0ecd14609]
class doa.engine.scene.elements.physics.DoaBodyType--><a href="DoaBodyType.html" target="_top" title="DoaBodyType.html" xlink:actuate="onRequest" xlink:href="DoaBodyType.html" xlink:show="new" xlink:title="DoaBodyType.html" xlink:type="simple"><rect codeLine="9" fill="#FEFECE" filter="url(#f1pbihg8onb0ls)" height="89.5078" id="doa.engine.scene.elements.physics.DoaBodyType" style="stroke: #A80036; stroke-width: 1.5;" width="108" x="277" y="758"/><ellipse cx="292" cy="774" fill="#EB937F" rx="11" ry="11" style="stroke: #A80036; stroke-width: 1.0;"/><path d="M290.8594,774.7969 L290.8594,777.2969 L295.1875,777.2969 L295.1875,776.375 Q295.1875,775.7656 295.4219,775.5 Q295.6719,775.2344 296.0469,775.2344 Q296.4219,775.2344 296.6563,775.5 Q296.8906,775.7656 296.8906,776.375 L296.8906,779 L288.8906,779 Q288.2656,779 288,778.7656 Q287.75,778.5313 287.75,778.1406 Q287.75,777.7656 288.0156,777.5313 Q288.2813,777.2969 288.8906,777.2969 L289.1563,777.2969 L289.1563,770.6406 L288.8906,770.6406 Q288.2656,770.6406 288,770.4063 Q287.75,770.1719 287.75,769.7813 Q287.75,769.4063 288,769.1719 Q288.2656,768.9375 288.8906,768.9375 L296.5156,768.9375 L296.5156,771.5313 Q296.5156,772.1406 296.2813,772.4063 Q296.0625,772.6563 295.6719,772.6563 Q295.2969,772.6563 295.0625,772.4063 Q294.8281,772.1406 294.8281,771.5313 L294.8281,770.6406 L290.8594,770.6406 L290.8594,773.0938 L292.3438,773.0938 Q292.3438,772.4375 292.4688,772.25 Q292.7344,771.8438 293.2031,771.8438 Q293.5781,771.8438 293.8125,772.1094 Q294.0469,772.3594 294.0469,772.9688 L294.0469,774.9375 Q294.0469,775.4844 293.9219,775.6719 Q293.6563,776.0625 293.2031,776.0625 Q292.7344,776.0625 292.4688,775.6563 Q292.3438,775.4688 292.3438,774.7969 L290.8594,774.7969 Z "/><text fill="#000000" font-family="sans-serif" font-size="12" lengthAdjust="spacingAndGlyphs" textLength="76" x="306" y="778.9102">DoaBodyType</text><line style="stroke: #A80036; stroke-width: 1.5;" x1="278" x2="384" y1="790" y2="790"/><ellipse cx="288" cy="801" fill="none" rx="3" ry="3" style="stroke: #038048; stroke-width: 1.0;"/><text fill="#000000" font-family="sans-serif" font-size="11" lengthAdjust="spacingAndGlyphs" text-decoration="underline" textLength="36" x="297" y="805.4189">STATIC</text><ellipse cx="288" cy="814.8359" fill="none" rx="3" ry="3" style="stroke: #038048; stroke-width: 1.0;"/><text fill="#000000" font-family="sans-serif" font-size="11" lengthAdjust="spacingAndGlyphs" text-decoration="underline" textLength="47" x="297" y="819.2549">DYNAMIC</text><ellipse cx="288" cy="828.6719" fill="none" rx="3" ry="3" style="stroke: #038048; stroke-width: 1.0;"/><text fill="#000000" font-family="sans-serif" font-size="11" lengthAdjust="spacingAndGlyphs" text-decoration="underline" textLength="53" x="297" y="833.0908">KINEMATIC</text><line style="stroke: #A80036; stroke-width: 1.5;" x1="278" x2="384" y1="839.5078" y2="839.5078"/></a><!--MD5=[851482830ca6ffc5df4471a772e5bd81]
class doa.engine.scene.elements.physics.DoaBoxCollider--><a href="DoaBoxCollider.html" target="_top" title="DoaBoxCollider.html" xlink:actuate="onRequest" xlink:href="DoaBoxCollider.html" xlink:show="new" xlink:title="DoaBoxCollider.html" xlink:type="simple"><rect codeLine="15" fill="#FEFECE" filter="url(#f1pbihg8onb0ls)" height="131.0156" id="doa.engine.scene.elements.physics.DoaBoxCollider" style="stroke: #A80036; stroke-width: 1.5;" width="217" x="310.5" y="964"/><ellipse cx="371.75" cy="980" fill="#ADD1B2" rx="11" ry="11" style="stroke: #A80036; stroke-width: 1.0;"/><path d="M374.5156,975.875 Q374.6719,975.6563 374.8594,975.5469 Q375.0469,975.4375 375.2656,975.4375 Q375.6406,975.4375 375.875,975.7031 Q376.1094,975.9531 376.1094,976.5625 L376.1094,978.0156 Q376.1094,978.625 375.875,978.8906 Q375.6406,979.1563 375.2656,979.1563 Q374.9219,979.1563 374.7188,978.9531 Q374.5156,978.7656 374.4063,978.25 Q374.3594,977.8906 374.1719,977.7031 Q373.8438,977.3281 373.2344,977.1094 Q372.625,976.8906 372,976.8906 Q371.2344,976.8906 370.5938,977.2188 Q369.9688,977.5469 369.4688,978.2969 Q368.9844,979.0469 368.9844,980.0781 L368.9844,981.1719 Q368.9844,982.4063 369.875,983.2344 Q370.7656,984.0469 372.3594,984.0469 Q373.2969,984.0469 373.9531,983.7969 Q374.3438,983.6406 374.7656,983.2031 Q375.0313,982.9375 375.1719,982.8594 Q375.3281,982.7813 375.5313,982.7813 Q375.8594,982.7813 376.1094,983.0469 Q376.375,983.2969 376.375,983.6406 Q376.375,983.9844 376.0313,984.3906 Q375.5313,984.9688 374.7344,985.2969 Q373.6563,985.75 372.3594,985.75 Q370.8438,985.75 369.6406,985.125 Q368.6563,984.625 367.9688,983.5625 Q367.2813,982.4844 367.2813,981.2031 L367.2813,980.0469 Q367.2813,978.7188 367.8906,977.5781 Q368.5156,976.4219 369.6094,975.8125 Q370.7031,975.1875 371.9375,975.1875 Q372.6719,975.1875 373.3125,975.3594 Q373.9688,975.5156 374.5156,975.875 Z "/><text fill="#000000" font-family="sans-serif" font-size="12" lengthAdjust="spacingAndGlyphs" textLength="86" x="392.25" y="984.9102">DoaBoxCollider</text><line style="stroke: #A80036; stroke-width: 1.5;" x1="311.5" x2="526.5" y1="996" y2="996"/><line style="stroke: #A80036; stroke-width: 1.5;" x1="311.5" x2="526.5" y1="1004" y2="1004"/><ellipse cx="321.5" cy="1015" fill="#84BE84" rx="3" ry="3" style="stroke: #038048; stroke-width: 1.0;"/><text fill="#000000" font-family="sans-serif" font-size="11" lengthAdjust="spacingAndGlyphs" textLength="133" x="330.5" y="1019.4189">DoaBoxCollider(DoaVector)</text><ellipse cx="321.5" cy="1028.8359" fill="#84BE84" rx="3" ry="3" style="stroke: #038048; stroke-width: 1.0;"/><text fill="#000000" font-family="sans-serif" font-size="11" lengthAdjust="spacingAndGlyphs" textLength="191" x="330.5" y="1033.2549">DoaBoxCollider(DoaVector, DoaVector)</text><ellipse cx="321.5" cy="1042.6719" fill="#84BE84" rx="3" ry="3" style="stroke: #038048; stroke-width: 1.0;"/><text fill="#000000" font-family="sans-serif" font-size="11" lengthAdjust="spacingAndGlyphs" textLength="136" x="330.5" y="1047.0908">getDimensions(): DoaVector</text><ellipse cx="321.5" cy="1056.5078" fill="#84BE84" rx="3" ry="3" style="stroke: #038048; stroke-width: 1.0;"/><text fill="#000000" font-family="sans-serif" font-size="11" lengthAdjust="spacingAndGlyphs" textLength="112" x="330.5" y="1060.9268">getOffset(): DoaVector</text><ellipse cx="321.5" cy="1070.3438" fill="#84BE84" rx="3" ry="3" style="stroke: #038048; stroke-width: 1.0;"/><text fill="#000000" font-family="sans-serif" font-size="11" lengthAdjust="spacingAndGlyphs" textLength="139" x="330.5" y="1074.7627">getPoints(): List&lt;DoaVector&gt;</text><ellipse cx="321.5" cy="1084.1797" fill="#84BE84" rx="3" ry="3" style="stroke: #038048; stroke-width: 1.0;"/><text fill="#000000" font-family="sans-serif" font-size="11" lengthAdjust="spacingAndGlyphs" textLength="99" x="330.5" y="1088.5986">debugRender(): void</text></a><!--MD5=[52ad29ba0326a1aca89f096141c632a3]
class doa.engine.scene.elements.physics.DoaCircleCollider--><a href="DoaCircleCollider.html" target="_top" title="DoaCircleCollider.html" xlink:actuate="onRequest" xlink:href="DoaCircleCollider.html" xlink:show="new" xlink:title="DoaCircleCollider.html" xlink:type="simple"><rect codeLine="24" fill="#FEFECE" filter="url(#f1pbihg8onb0ls)" height="131.0156" id="doa.engine.scene.elements.physics.DoaCircleCollider" style="stroke: #A80036; stroke-width: 1.5;" width="194" x="563" y="964"/><ellipse cx="606.8" cy="980" fill="#ADD1B2" rx="11" ry="11" style="stroke: #A80036; stroke-width: 1.0;"/><path d="M609.5656,975.875 Q609.7219,975.6563 609.9094,975.5469 Q610.0969,975.4375 610.3156,975.4375 Q610.6906,975.4375 610.925,975.7031 Q611.1594,975.9531 611.1594,976.5625 L611.1594,978.0156 Q611.1594,978.625 610.925,978.8906 Q610.6906,979.1563 610.3156,979.1563 Q609.9719,979.1563 609.7688,978.9531 Q609.5656,978.7656 609.4563,978.25 Q609.4094,977.8906 609.2219,977.7031 Q608.8938,977.3281 608.2844,977.1094 Q607.675,976.8906 607.05,976.8906 Q606.2844,976.8906 605.6438,977.2188 Q605.0188,977.5469 604.5188,978.2969 Q604.0344,979.0469 604.0344,980.0781 L604.0344,981.1719 Q604.0344,982.4063 604.925,983.2344 Q605.8156,984.0469 607.4094,984.0469 Q608.3469,984.0469 609.0031,983.7969 Q609.3938,983.6406 609.8156,983.2031 Q610.0813,982.9375 610.2219,982.8594 Q610.3781,982.7813 610.5813,982.7813 Q610.9094,982.7813 611.1594,983.0469 Q611.425,983.2969 611.425,983.6406 Q611.425,983.9844 611.0813,984.3906 Q610.5813,984.9688 609.7844,985.2969 Q608.7063,985.75 607.4094,985.75 Q605.8938,985.75 604.6906,985.125 Q603.7063,984.625 603.0188,983.5625 Q602.3313,982.4844 602.3313,981.2031 L602.3313,980.0469 Q602.3313,978.7188 602.9406,977.5781 Q603.5656,976.4219 604.6594,975.8125 Q605.7531,975.1875 606.9875,975.1875 Q607.7219,975.1875 608.3625,975.3594 Q609.0188,975.5156 609.5656,975.875 Z "/><text fill="#000000" font-family="sans-serif" font-size="12" lengthAdjust="spacingAndGlyphs" textLength="98" x="627.2" y="984.9102">DoaCircleCollider</text><line style="stroke: #A80036; stroke-width: 1.5;" x1="564" x2="756" y1="996" y2="996"/><line style="stroke: #A80036; stroke-width: 1.5;" x1="564" x2="756" y1="1004" y2="1004"/><ellipse cx="574" cy="1015" fill="#84BE84" rx="3" ry="3" style="stroke: #038048; stroke-width: 1.0;"/><text fill="#000000" font-family="sans-serif" font-size="11" lengthAdjust="spacingAndGlyphs" textLength="110" x="583" y="1019.4189">DoaCircleCollider(float)</text><ellipse cx="574" cy="1028.8359" fill="#84BE84" rx="3" ry="3" style="stroke: #038048; stroke-width: 1.0;"/><text fill="#000000" font-family="sans-serif" font-size="11" lengthAdjust="spacingAndGlyphs" textLength="168" x="583" y="1033.2549">DoaCircleCollider(float, DoaVector)</text><ellipse cx="574" cy="1042.6719" fill="#84BE84" rx="3" ry="3" style="stroke: #038048; stroke-width: 1.0;"/><text fill="#000000" font-family="sans-serif" font-size="11" lengthAdjust="spacingAndGlyphs" textLength="83" x="583" y="1047.0908">getRadius(): float</text><ellipse cx="574" cy="1056.5078" fill="#84BE84" rx="3" ry="3" style="stroke: #038048; stroke-width: 1.0;"/><text fill="#000000" font-family="sans-serif" font-size="11" lengthAdjust="spacingAndGlyphs" textLength="112" x="583" y="1060.9268">getOffset(): DoaVector</text><ellipse cx="574" cy="1070.3438" fill="#84BE84" rx="3" ry="3" style="stroke: #038048; stroke-width: 1.0;"/><text fill="#000000" font-family="sans-serif" font-size="11" lengthAdjust="spacingAndGlyphs" textLength="139" x="583" y="1074.7627">getPoints(): List&lt;DoaVector&gt;</text><ellipse cx="574" cy="1084.1797" fill="#84BE84" rx="3" ry="3" style="stroke: #038048; stroke-width: 1.0;"/><text fill="#000000" font-family="sans-serif" font-size="11" lengthAdjust="spacingAndGlyphs" textLength="99" x="583" y="1088.5986">debugRender(): void</text></a><!--MD5=[c4cd81f58d2b8c73d81c60eed353e63a]
class doa.engine.scene.elements.physics.DoaCollider--><a href="DoaCollider.html" target="_top" title="DoaCollider.html" xlink:actuate="onRequest" xlink:href="DoaCollider.html" xlink:show="new" xlink:title="DoaCollider.html" xlink:type="simple"><rect codeLine="33" fill="#FEFECE" filter="url(#f1pbihg8onb0ls)" height="200.1953" id="doa.engine.scene.elements.physics.DoaCollider" style="stroke: #A80036; stroke-width: 1.5;" width="237" x="420.5" y="703"/><ellipse cx="501.75" cy="719" fill="#A9DCDF" rx="11" ry="11" style="stroke: #A80036; stroke-width: 1.0;"/><path d="M503.9375,720.7656 L499.7969,720.7656 L499.375,721.7969 L499.7969,721.7969 Q500.4063,721.7969 500.6719,722.0313 Q500.9375,722.2656 500.9375,722.6563 Q500.9375,723.0313 500.6719,723.2656 Q500.4063,723.5 499.7969,723.5 L497.5,723.5 Q496.8906,723.5 496.6406,723.2656 Q496.375,723.0313 496.375,722.6406 Q496.375,722.2656 496.6563,722.0313 Q496.9219,721.7813 497.5469,721.7969 L500.2188,715.1406 L499.1094,715.1406 Q498.5,715.1406 498.2344,714.9063 Q497.9688,714.6719 497.9688,714.2813 Q497.9688,713.9063 498.2344,713.6719 Q498.5,713.4375 499.1094,713.4375 L502.7813,713.4375 L506.1719,721.7969 Q506.7656,721.7969 506.9531,721.9375 Q507.3438,722.2031 507.3438,722.6563 Q507.3438,723.0313 507.0781,723.2656 Q506.8281,723.5 506.2188,723.5 L503.9219,723.5 Q503.3125,723.5 503.0469,723.2656 Q502.7813,723.0313 502.7813,722.6406 Q502.7813,722.2656 503.0469,722.0313 Q503.3125,721.7969 503.9219,721.7969 L504.3438,721.7969 L503.9375,720.7656 Z M503.2188,719.0625 L501.8594,715.6875 L500.4844,719.0625 L503.2188,719.0625 Z "/><text fill="#000000" font-family="sans-serif" font-size="12" font-style="italic" lengthAdjust="spacingAndGlyphs" textLength="66" x="522.25" y="723.9102">DoaCollider</text><line style="stroke: #A80036; stroke-width: 1.5;" x1="421.5" x2="656.5" y1="735" y2="735"/><polygon fill="none" points="431.5,741,435.5,745,431.5,749,427.5,745" style="stroke: #B38D22; stroke-width: 1.0;"/><text fill="#000000" font-family="sans-serif" font-size="11" lengthAdjust="spacingAndGlyphs" textLength="86" x="440.5" y="750.4189">isTrigger: boolean</text><polygon fill="none" points="431.5,754.8359,435.5,758.8359,431.5,762.8359,427.5,758.8359" style="stroke: #B38D22; stroke-width: 1.0;"/><text fill="#000000" font-family="sans-serif" font-size="11" lengthAdjust="spacingAndGlyphs" textLength="45" x="440.5" y="764.2549">group: int</text><line style="stroke: #A80036; stroke-width: 1.5;" x1="421.5" x2="656.5" y1="770.6719" y2="770.6719"/><ellipse cx="431.5" cy="781.6719" fill="#84BE84" rx="3" ry="3" style="stroke: #038048; stroke-width: 1.0;"/><text fill="#000000" font-family="sans-serif" font-size="11" font-style="italic" lengthAdjust="spacingAndGlyphs" textLength="142" x="440.5" y="786.0908">getPoints(): List&lt;DoaVector&gt;</text><ellipse cx="431.5" cy="795.5078" fill="#84BE84" rx="3" ry="3" style="stroke: #038048; stroke-width: 1.0;"/><text fill="#000000" font-family="sans-serif" font-size="11" lengthAdjust="spacingAndGlyphs" textLength="127" x="440.5" y="799.9268">makeTrigger(): DoaCollider</text><ellipse cx="431.5" cy="809.3438" fill="#84BE84" rx="3" ry="3" style="stroke: #038048; stroke-width: 1.0;"/><text fill="#000000" font-family="sans-serif" font-size="11" lengthAdjust="spacingAndGlyphs" textLength="146" x="440.5" y="813.7627">makeNonTrigger(): DoaCollider</text><ellipse cx="431.5" cy="823.1797" fill="#84BE84" rx="3" ry="3" style="stroke: #038048; stroke-width: 1.0;"/><text fill="#000000" font-family="sans-serif" font-size="11" lengthAdjust="spacingAndGlyphs" textLength="94" x="440.5" y="827.5986">isTrigger(): boolean</text><ellipse cx="431.5" cy="837.0156" fill="#84BE84" rx="3" ry="3" style="stroke: #038048; stroke-width: 1.0;"/><text fill="#000000" font-family="sans-serif" font-size="11" lengthAdjust="spacingAndGlyphs" textLength="107" x="440.5" y="841.4346">group(int): DoaCollider</text><ellipse cx="431.5" cy="850.8516" fill="#84BE84" rx="3" ry="3" style="stroke: #038048; stroke-width: 1.0;"/><text fill="#000000" font-family="sans-serif" font-size="11" lengthAdjust="spacingAndGlyphs" textLength="70" x="440.5" y="855.2705">getGroup(): int</text><ellipse cx="431.5" cy="864.6875" fill="#84BE84" rx="3" ry="3" style="stroke: #038048; stroke-width: 1.0;"/><text fill="#000000" font-family="sans-serif" font-size="11" lengthAdjust="spacingAndGlyphs" textLength="211" x="440.5" y="869.1064">onTriggerEnter(DoaObject, DoaObject): void</text><ellipse cx="431.5" cy="878.5234" fill="#84BE84" rx="3" ry="3" style="stroke: #038048; stroke-width: 1.0;"/><text fill="#000000" font-family="sans-serif" font-size="11" lengthAdjust="spacingAndGlyphs" textLength="203" x="440.5" y="882.9424">onTriggerExit(DoaObject, DoaObject): void</text><ellipse cx="431.5" cy="892.3594" fill="#84BE84" rx="3" ry="3" style="stroke: #038048; stroke-width: 1.0;"/><text fill="#000000" font-family="sans-serif" font-size="11" lengthAdjust="spacingAndGlyphs" textLength="99" x="440.5" y="896.7783">debugRender(): void</text></a><!--MD5=[1362c7c1a3bb9c9b20ae615ef1ff5611]
class doa.engine.scene.elements.physics.DoaEllipseCollider--><a href="DoaEllipseCollider.html" target="_top" title="DoaEllipseCollider.html" xlink:actuate="onRequest" xlink:href="DoaEllipseCollider.html" xlink:show="new" xlink:title="DoaEllipseCollider.html" xlink:type="simple"><rect codeLine="47" fill="#FEFECE" filter="url(#f1pbihg8onb0ls)" height="103.3438" id="doa.engine.scene.elements.physics.DoaEllipseCollider" style="stroke: #A80036; stroke-width: 1.5;" width="224" x="42" y="1156"/><ellipse cx="97.75" cy="1172" fill="#ADD1B2" rx="11" ry="11" style="stroke: #A80036; stroke-width: 1.0;"/><path d="M100.5156,1167.875 Q100.6719,1167.6563 100.8594,1167.5469 Q101.0469,1167.4375 101.2656,1167.4375 Q101.6406,1167.4375 101.875,1167.7031 Q102.1094,1167.9531 102.1094,1168.5625 L102.1094,1170.0156 Q102.1094,1170.625 101.875,1170.8906 Q101.6406,1171.1563 101.2656,1171.1563 Q100.9219,1171.1563 100.7188,1170.9531 Q100.5156,1170.7656 100.4063,1170.25 Q100.3594,1169.8906 100.1719,1169.7031 Q99.8438,1169.3281 99.2344,1169.1094 Q98.625,1168.8906 98,1168.8906 Q97.2344,1168.8906 96.5938,1169.2188 Q95.9688,1169.5469 95.4688,1170.2969 Q94.9844,1171.0469 94.9844,1172.0781 L94.9844,1173.1719 Q94.9844,1174.4063 95.875,1175.2344 Q96.7656,1176.0469 98.3594,1176.0469 Q99.2969,1176.0469 99.9531,1175.7969 Q100.3438,1175.6406 100.7656,1175.2031 Q101.0313,1174.9375 101.1719,1174.8594 Q101.3281,1174.7813 101.5313,1174.7813 Q101.8594,1174.7813 102.1094,1175.0469 Q102.375,1175.2969 102.375,1175.6406 Q102.375,1175.9844 102.0313,1176.3906 Q101.5313,1176.9688 100.7344,1177.2969 Q99.6563,1177.75 98.3594,1177.75 Q96.8438,1177.75 95.6406,1177.125 Q94.6563,1176.625 93.9688,1175.5625 Q93.2813,1174.4844 93.2813,1173.2031 L93.2813,1172.0469 Q93.2813,1170.7188 93.8906,1169.5781 Q94.5156,1168.4219 95.6094,1167.8125 Q96.7031,1167.1875 97.9375,1167.1875 Q98.6719,1167.1875 99.3125,1167.3594 Q99.9688,1167.5156 100.5156,1167.875 Z "/><text fill="#000000" font-family="sans-serif" font-size="12" lengthAdjust="spacingAndGlyphs" textLength="104" x="118.25" y="1176.9102">DoaEllipseCollider</text><line style="stroke: #A80036; stroke-width: 1.5;" x1="43" x2="265" y1="1188" y2="1188"/><polygon fill="none" points="53,1194,57,1198,53,1202,49,1198" style="stroke: #B38D22; stroke-width: 1.0;"/><text fill="#000000" font-family="sans-serif" font-size="11" lengthAdjust="spacingAndGlyphs" textLength="75" x="62" y="1203.4189">majorAxis: float</text><polygon fill="none" points="53,1207.8359,57,1211.8359,53,1215.8359,49,1211.8359" style="stroke: #B38D22; stroke-width: 1.0;"/><text fill="#000000" font-family="sans-serif" font-size="11" lengthAdjust="spacingAndGlyphs" textLength="75" x="62" y="1217.2549">minorAxis: float</text><line style="stroke: #A80036; stroke-width: 1.5;" x1="43" x2="265" y1="1223.6719" y2="1223.6719"/><ellipse cx="53" cy="1234.6719" fill="#84BE84" rx="3" ry="3" style="stroke: #038048; stroke-width: 1.0;"/><text fill="#000000" font-family="sans-serif" font-size="11" lengthAdjust="spacingAndGlyphs" textLength="140" x="62" y="1239.0908">DoaEllipseCollider(float, float)</text><ellipse cx="53" cy="1248.5078" fill="#84BE84" rx="3" ry="3" style="stroke: #038048; stroke-width: 1.0;"/><text fill="#000000" font-family="sans-serif" font-size="11" lengthAdjust="spacingAndGlyphs" textLength="198" x="62" y="1252.9268">DoaEllipseCollider(float, float, DoaVector)</text></a><!--MD5=[9cf1629c098f8cba5fd0064358a7def7]
class doa.engine.scene.elements.physics.DoaRigidBody--><a href="DoaRigidBody.html" target="_top" title="DoaRigidBody.html" xlink:actuate="onRequest" xlink:href="DoaRigidBody.html" xlink:show="new" xlink:title="DoaRigidBody.html" xlink:type="simple"><rect codeLine="54" fill="#FEFECE" filter="url(#f1pbihg8onb0ls)" height="407.7344" id="doa.engine.scene.elements.physics.DoaRigidBody" style="stroke: #A80036; stroke-width: 1.5;" width="262" x="267" y="217"/><ellipse cx="354.25" cy="233" fill="#ADD1B2" rx="11" ry="11" style="stroke: #A80036; stroke-width: 1.0;"/><path d="M357.0156,228.875 Q357.1719,228.6563 357.3594,228.5469 Q357.5469,228.4375 357.7656,228.4375 Q358.1406,228.4375 358.375,228.7031 Q358.6094,228.9531 358.6094,229.5625 L358.6094,231.0156 Q358.6094,231.625 358.375,231.8906 Q358.1406,232.1563 357.7656,232.1563 Q357.4219,232.1563 357.2188,231.9531 Q357.0156,231.7656 356.9063,231.25 Q356.8594,230.8906 356.6719,230.7031 Q356.3438,230.3281 355.7344,230.1094 Q355.125,229.8906 354.5,229.8906 Q353.7344,229.8906 353.0938,230.2188 Q352.4688,230.5469 351.9688,231.2969 Q351.4844,232.0469 351.4844,233.0781 L351.4844,234.1719 Q351.4844,235.4063 352.375,236.2344 Q353.2656,237.0469 354.8594,237.0469 Q355.7969,237.0469 356.4531,236.7969 Q356.8438,236.6406 357.2656,236.2031 Q357.5313,235.9375 357.6719,235.8594 Q357.8281,235.7813 358.0313,235.7813 Q358.3594,235.7813 358.6094,236.0469 Q358.875,236.2969 358.875,236.6406 Q358.875,236.9844 358.5313,237.3906 Q358.0313,237.9688 357.2344,238.2969 Q356.1563,238.75 354.8594,238.75 Q353.3438,238.75 352.1406,238.125 Q351.1563,237.625 350.4688,236.5625 Q349.7813,235.4844 349.7813,234.2031 L349.7813,233.0469 Q349.7813,231.7188 350.3906,230.5781 Q351.0156,229.4219 352.1094,228.8125 Q353.2031,228.1875 354.4375,228.1875 Q355.1719,228.1875 355.8125,228.3594 Q356.4688,228.5156 357.0156,228.875 Z "/><text fill="#000000" font-family="sans-serif" font-size="12" lengthAdjust="spacingAndGlyphs" textLength="79" x="374.75" y="237.9102">DoaRigidBody</text><line style="stroke: #A80036; stroke-width: 1.5;" x1="268" x2="528" y1="249" y2="249"/><ellipse cx="278" cy="260" fill="none" rx="3" ry="3" style="stroke: #038048; stroke-width: 1.0;"/><text fill="#000000" font-family="sans-serif" font-size="11" lengthAdjust="spacingAndGlyphs" textLength="123" x="287" y="264.4189">linearVelocity: DoaVector</text><ellipse cx="278" cy="273.8359" fill="none" rx="3" ry="3" style="stroke: #038048; stroke-width: 1.0;"/><text fill="#000000" font-family="sans-serif" font-size="11" lengthAdjust="spacingAndGlyphs" textLength="102" x="287" y="278.2549">angularVelocity: float</text><ellipse cx="278" cy="287.6719" fill="none" rx="3" ry="3" style="stroke: #038048; stroke-width: 1.0;"/><text fill="#000000" font-family="sans-serif" font-size="11" lengthAdjust="spacingAndGlyphs" textLength="106" x="287" y="292.0908">linearDampening: float</text><ellipse cx="278" cy="301.5078" fill="none" rx="3" ry="3" style="stroke: #038048; stroke-width: 1.0;"/><text fill="#000000" font-family="sans-serif" font-size="11" lengthAdjust="spacingAndGlyphs" textLength="116" x="287" y="305.9268">angularDampening: float</text><ellipse cx="278" cy="315.3438" fill="none" rx="3" ry="3" style="stroke: #038048; stroke-width: 1.0;"/><text fill="#000000" font-family="sans-serif" font-size="11" lengthAdjust="spacingAndGlyphs" textLength="53" x="287" y="319.7627">mass: float</text><ellipse cx="278" cy="329.1797" fill="none" rx="3" ry="3" style="stroke: #038048; stroke-width: 1.0;"/><text fill="#000000" font-family="sans-serif" font-size="11" lengthAdjust="spacingAndGlyphs" textLength="60" x="287" y="333.5986">friction: float</text><ellipse cx="278" cy="343.0156" fill="none" rx="3" ry="3" style="stroke: #038048; stroke-width: 1.0;"/><text fill="#000000" font-family="sans-serif" font-size="11" lengthAdjust="spacingAndGlyphs" textLength="69" x="287" y="347.4346">elasticity: float</text><ellipse cx="278" cy="356.8516" fill="none" rx="3" ry="3" style="stroke: #038048; stroke-width: 1.0;"/><text fill="#000000" font-family="sans-serif" font-size="11" lengthAdjust="spacingAndGlyphs" textLength="107" x="287" y="361.2705">fixedRotation: boolean</text><ellipse cx="278" cy="370.6875" fill="none" rx="3" ry="3" style="stroke: #038048; stroke-width: 1.0;"/><text fill="#000000" font-family="sans-serif" font-size="11" lengthAdjust="spacingAndGlyphs" textLength="78" x="287" y="375.1064">isBullet: boolean</text><ellipse cx="278" cy="384.5234" fill="none" rx="3" ry="3" style="stroke: #038048; stroke-width: 1.0;"/><text fill="#000000" font-family="sans-serif" font-size="11" lengthAdjust="spacingAndGlyphs" textLength="89" x="287" y="388.9424">canSleep: boolean</text><line style="stroke: #A80036; stroke-width: 1.5;" x1="268" x2="528" y1="395.3594" y2="395.3594"/><ellipse cx="278" cy="406.3594" fill="#84BE84" rx="3" ry="3" style="stroke: #038048; stroke-width: 1.0;"/><text fill="#000000" font-family="sans-serif" font-size="11" lengthAdjust="spacingAndGlyphs" textLength="170" x="287" y="410.7783">setLinearVelocity(DoaVector): void</text><ellipse cx="278" cy="420.1953" fill="#84BE84" rx="3" ry="3" style="stroke: #038048; stroke-width: 1.0;"/><text fill="#000000" font-family="sans-serif" font-size="11" lengthAdjust="spacingAndGlyphs" textLength="150" x="287" y="424.6143">getLinearVelocity(): DoaVector</text><ellipse cx="278" cy="434.0313" fill="#84BE84" rx="3" ry="3" style="stroke: #038048; stroke-width: 1.0;"/><text fill="#000000" font-family="sans-serif" font-size="11" lengthAdjust="spacingAndGlyphs" textLength="147" x="287" y="438.4502">setAngularVelocity(float): void</text><ellipse cx="278" cy="447.8672" fill="#84BE84" rx="3" ry="3" style="stroke: #038048; stroke-width: 1.0;"/><text fill="#000000" font-family="sans-serif" font-size="11" lengthAdjust="spacingAndGlyphs" textLength="127" x="287" y="452.2861">getAngularVelocity(): float</text><ellipse cx="278" cy="461.7031" fill="#84BE84" rx="3" ry="3" style="stroke: #038048; stroke-width: 1.0;"/><text fill="#000000" font-family="sans-serif" font-size="11" lengthAdjust="spacingAndGlyphs" textLength="168" x="287" y="466.1221">setTransform(DoaTransform): void</text><ellipse cx="278" cy="475.5391" fill="#84BE84" rx="3" ry="3" style="stroke: #038048; stroke-width: 1.0;"/><text fill="#000000" font-family="sans-serif" font-size="11" lengthAdjust="spacingAndGlyphs" textLength="148" x="287" y="479.958">getTransform(): DoaTransform</text><ellipse cx="278" cy="489.375" fill="#84BE84" rx="3" ry="3" style="stroke: #038048; stroke-width: 1.0;"/><text fill="#000000" font-family="sans-serif" font-size="11" lengthAdjust="spacingAndGlyphs" textLength="198" x="287" y="493.7939">applyForce(DoaVector, DoaVector): void</text><ellipse cx="278" cy="503.2109" fill="#84BE84" rx="3" ry="3" style="stroke: #038048; stroke-width: 1.0;"/><text fill="#000000" font-family="sans-serif" font-size="11" lengthAdjust="spacingAndGlyphs" textLength="184" x="287" y="507.6299">applyForceToCenter(DoaVector): void</text><ellipse cx="278" cy="517.0469" fill="#84BE84" rx="3" ry="3" style="stroke: #038048; stroke-width: 1.0;"/><text fill="#000000" font-family="sans-serif" font-size="11" lengthAdjust="spacingAndGlyphs" textLength="115" x="287" y="521.4658">applyTorque(float): void</text><ellipse cx="278" cy="530.8828" fill="#84BE84" rx="3" ry="3" style="stroke: #038048; stroke-width: 1.0;"/><text fill="#000000" font-family="sans-serif" font-size="11" lengthAdjust="spacingAndGlyphs" textLength="236" x="287" y="535.3018">applyLinearImpulse(DoaVector, DoaVector): void</text><ellipse cx="278" cy="544.7188" fill="#84BE84" rx="3" ry="3" style="stroke: #038048; stroke-width: 1.0;"/><text fill="#000000" font-family="sans-serif" font-size="11" lengthAdjust="spacingAndGlyphs" textLength="155" x="287" y="549.1377">applyAngularImpulse(float): void</text><ellipse cx="278" cy="558.5547" fill="#84BE84" rx="3" ry="3" style="stroke: #038048; stroke-width: 1.0;"/><text fill="#000000" font-family="sans-serif" font-size="11" lengthAdjust="spacingAndGlyphs" textLength="50" x="287" y="562.9736">tick(): void</text><polygon fill="#FFFF44" points="278,567.3906,282,571.3906,278,575.3906,274,571.3906" style="stroke: #B38D22; stroke-width: 1.0;"/><text fill="#000000" font-family="sans-serif" font-size="11" lengthAdjust="spacingAndGlyphs" textLength="116" x="287" y="576.8096">onAdd(DoaObject): void</text><polygon fill="#FFFF44" points="278,581.2266,282,585.2266,278,589.2266,274,585.2266" style="stroke: #B38D22; stroke-width: 1.0;"/><text fill="#000000" font-family="sans-serif" font-size="11" lengthAdjust="spacingAndGlyphs" textLength="135" x="287" y="590.6455">onRemove(DoaObject): void</text><ellipse cx="278" cy="600.0625" fill="#84BE84" rx="3" ry="3" style="stroke: #038048; stroke-width: 1.0;"/><text fill="#000000" font-family="sans-serif" font-size="11" lengthAdjust="spacingAndGlyphs" textLength="129" x="287" y="604.4814">setNativeBody(Body): void</text><ellipse cx="278" cy="613.8984" fill="#84BE84" rx="3" ry="3" style="stroke: #038048; stroke-width: 1.0;"/><text fill="#000000" font-family="sans-serif" font-size="11" lengthAdjust="spacingAndGlyphs" textLength="109" x="287" y="618.3174">getNativeBody(): Body</text></a><!--MD5=[5a5af9b0547913863cbe0ddf55a9ab5e]
class java.io.Serializable--><rect codeLine="94" fill="#FEFECE" filter="url(#f1pbihg8onb0ls)" height="48" id="java.io.Serializable" style="stroke: #A80036; stroke-width: 1.5;" width="99" x="813.5" y="397"/><ellipse cx="828.5" cy="413" fill="#B4A7E5" rx="11" ry="11" style="stroke: #A80036; stroke-width: 1.0;"/><path d="M829.4531,409.6406 L829.4531,416.2969 L831.1719,416.2969 Q831.7813,416.2969 832.0469,416.5313 Q832.3125,416.7656 832.3125,417.1563 Q832.3125,417.5313 832.0469,417.7656 Q831.7813,418 831.1719,418 L826.0313,418 Q825.4219,418 825.1563,417.7656 Q824.8906,417.5313 824.8906,417.1406 Q824.8906,416.7656 825.1563,416.5313 Q825.4219,416.2969 826.0313,416.2969 L827.75,416.2969 L827.75,409.6406 L826.0313,409.6406 Q825.4219,409.6406 825.1563,409.4063 Q824.8906,409.1719 824.8906,408.7813 Q824.8906,408.4063 825.1563,408.1719 Q825.4219,407.9375 826.0313,407.9375 L831.1719,407.9375 Q831.7813,407.9375 832.0469,408.1719 Q832.3125,408.4063 832.3125,408.7813 Q832.3125,409.1719 832.0469,409.4063 Q831.7813,409.6406 831.1719,409.6406 L829.4531,409.6406 Z "/><text fill="#000000" font-family="sans-serif" font-size="12" font-style="italic" lengthAdjust="spacingAndGlyphs" textLength="67" x="842.5" y="417.9102">Serializable</text><line style="stroke: #A80036; stroke-width: 1.5;" x1="814.5" x2="911.5" y1="429" y2="429"/><line style="stroke: #A80036; stroke-width: 1.5;" x1="814.5" x2="911.5" y1="437" y2="437"/><!--MD5=[446a402d650adfd9c60db59099938794]
class doa.engine.scene.DoaComponent--><a href="..\..\DoaComponent.html" target="_top" title="..\..\DoaComponent.html" xlink:actuate="onRequest" xlink:href="..\..\DoaComponent.html" xlink:show="new" xlink:title="..\..\DoaComponent.html" xlink:type="simple"><rect codeLine="98" fill="#FEFECE" filter="url(#f1pbihg8onb0ls)" height="89.5078" id="doa.engine.scene.DoaComponent" style="stroke: #A80036; stroke-width: 1.5;" width="135" x="330.5" y="42"/><ellipse cx="352.25" cy="58" fill="#A9DCDF" rx="11" ry="11" style="stroke: #A80036; stroke-width: 1.0;"/><path d="M354.4375,59.7656 L350.2969,59.7656 L349.875,60.7969 L350.2969,60.7969 Q350.9063,60.7969 351.1719,61.0313 Q351.4375,61.2656 351.4375,61.6563 Q351.4375,62.0313 351.1719,62.2656 Q350.9063,62.5 350.2969,62.5 L348,62.5 Q347.3906,62.5 347.1406,62.2656 Q346.875,62.0313 346.875,61.6406 Q346.875,61.2656 347.1563,61.0313 Q347.4219,60.7813 348.0469,60.7969 L350.7188,54.1406 L349.6094,54.1406 Q349,54.1406 348.7344,53.9063 Q348.4688,53.6719 348.4688,53.2813 Q348.4688,52.9063 348.7344,52.6719 Q349,52.4375 349.6094,52.4375 L353.2813,52.4375 L356.6719,60.7969 Q357.2656,60.7969 357.4531,60.9375 Q357.8438,61.2031 357.8438,61.6563 Q357.8438,62.0313 357.5781,62.2656 Q357.3281,62.5 356.7188,62.5 L354.4219,62.5 Q353.8125,62.5 353.5469,62.2656 Q353.2813,62.0313 353.2813,61.6406 Q353.2813,61.2656 353.5469,61.0313 Q353.8125,60.7969 354.4219,60.7969 L354.8438,60.7969 L354.4375,59.7656 Z M353.7188,58.0625 L352.3594,54.6875 L350.9844,58.0625 L353.7188,58.0625 Z "/><text fill="#000000" font-family="sans-serif" font-size="12" font-style="italic" lengthAdjust="spacingAndGlyphs" textLength="88" x="367.75" y="62.9102">DoaComponent</text><line style="stroke: #A80036; stroke-width: 1.5;" x1="331.5" x2="464.5" y1="74" y2="74"/><polygon fill="none" points="341.5,80,345.5,84,341.5,88,337.5,84" style="stroke: #B38D22; stroke-width: 1.0;"/><text fill="#000000" font-family="sans-serif" font-size="11" lengthAdjust="spacingAndGlyphs" textLength="90" x="350.5" y="89.4189">isEnabled: boolean</text><ellipse cx="341.5" cy="98.8359" fill="none" rx="3" ry="3" style="stroke: #038048; stroke-width: 1.0;"/><text fill="#000000" font-family="sans-serif" font-size="11" lengthAdjust="spacingAndGlyphs" textLength="60" x="350.5" y="103.2549">name: String</text><ellipse cx="341.5" cy="112.6719" fill="none" rx="3" ry="3" style="stroke: #038048; stroke-width: 1.0;"/><text fill="#000000" font-family="sans-serif" font-size="11" lengthAdjust="spacingAndGlyphs" textLength="109" x="350.5" y="117.0908">debugRender: boolean</text><line style="stroke: #A80036; stroke-width: 1.5;" x1="331.5" x2="464.5" y1="123.5078" y2="123.5078"/></a><!--MD5=[ed15149c4396976e75373a2cb1c89177]
reverse link doa.engine.scene.elements.physics.DoaCollider to doa.engine.scene.elements.physics.DoaArbitraryShapeCollider--><path codeLine="83" d="M403.27,902.84 C403.18,902.89 403.09,902.95 403,903 C354.24,932.76 297.53,961.75 250.56,984.36 " fill="none" id="doa.engine.scene.elements.physics.DoaCollider-backto-doa.engine.scene.elements.physics.DoaArbitraryShapeCollider" style="stroke: #A80036; stroke-width: 1.0;"/><polygon fill="none" points="399.7,896.81,420.34,892.05,407.17,908.65,399.7,896.81" style="stroke: #A80036; stroke-width: 1.0;"/><!--MD5=[0d67fa8822c72d245d0726830f95a8bb]
reverse link doa.engine.scene.elements.physics.DoaCollider to doa.engine.scene.elements.physics.DoaBoxCollider--><path codeLine="84" d="M476.45,921.03 C468.59,935.72 460.8,950.3 453.6,963.77 " fill="none" id="doa.engine.scene.elements.physics.DoaCollider-backto-doa.engine.scene.elements.physics.DoaBoxCollider" style="stroke: #A80036; stroke-width: 1.0;"/><polygon fill="none" points="470.42,917.46,486.02,903.12,482.76,924.06,470.42,917.46" style="stroke: #A80036; stroke-width: 1.0;"/><!--MD5=[225ffef437b0b39718ddbb678789da8a]
reverse link doa.engine.scene.elements.physics.DoaCollider to doa.engine.scene.elements.physics.DoaCircleCollider--><path codeLine="85" d="M602.08,921.03 C609.99,935.72 617.85,950.3 625.11,963.77 " fill="none" id="doa.engine.scene.elements.physics.DoaCollider-backto-doa.engine.scene.elements.physics.DoaCircleCollider" style="stroke: #A80036; stroke-width: 1.0;"/><polygon fill="none" points="595.75,924.05,592.42,903.12,608.08,917.41,595.75,924.05" style="stroke: #A80036; stroke-width: 1.0;"/><!--MD5=[e2ee44eae0d430c9ec15f05fa2157361]
reverse link java.io.Serializable to doa.engine.scene.elements.physics.DoaCollider--><path codeLine="86" d="M851.2,464.22 C837.53,507.77 811.79,576.06 773,625 C741.12,665.22 698.09,701.19 657.62,730.04 " fill="none" id="java.io.Serializable-backto-doa.engine.scene.elements.physics.DoaCollider" style="stroke: #A80036; stroke-width: 1.0; stroke-dasharray: 7.0,7.0;"/><polygon fill="none" points="844.5,462.17,856.94,445.02,857.92,466.19,844.5,462.17" style="stroke: #A80036; stroke-width: 1.0;"/><!--MD5=[aa06861a5caeda9407335759c8944cd9]
reverse link doa.engine.scene.elements.physics.DoaArbitraryShapeCollider to doa.engine.scene.elements.physics.DoaEllipseCollider--><path codeLine="87" d="M154,1095 C154,1115.06 154,1136.89 154,1155.87 " fill="none" id="doa.engine.scene.elements.physics.DoaArbitraryShapeCollider-backto-doa.engine.scene.elements.physics.DoaEllipseCollider" style="stroke: #A80036; stroke-width: 1.0;"/><polygon fill="none" points="147,1094.91,154,1074.91,161,1094.91,147,1094.91" style="stroke: #A80036; stroke-width: 1.0;"/><!--MD5=[68e72c051863043aadc141a8c96e32ba]
reverse link doa.engine.scene.DoaComponent to doa.engine.scene.elements.physics.DoaRigidBody--><path codeLine="88" d="M398,152.35 C398,171.48 398,193.55 398,216.64 " fill="none" id="doa.engine.scene.DoaComponent-backto-doa.engine.scene.elements.physics.DoaRigidBody" style="stroke: #A80036; stroke-width: 1.0;"/><polygon fill="none" points="391,152.09,398,132.09,405,152.09,391,152.09" style="stroke: #A80036; stroke-width: 1.0;"/><!--MD5=[a00648f42f872a9ea7780082e3834baa]
link doa.engine.scene.elements.physics.DoaRigidBody to doa.engine.scene.elements.physics.DoaBodyType--><path codeLine="89" d="M362.2,625.07 C353.8,672.69 345.6,719.22 339.71,752.6 " fill="none" id="doa.engine.scene.elements.physics.DoaRigidBody-to-doa.engine.scene.elements.physics.DoaBodyType" style="stroke: #A80036; stroke-width: 1.0;"/><polygon fill="#A80036" points="338.79,757.84,344.2959,749.6739,339.6606,752.9164,336.4181,748.281,338.79,757.84" style="stroke: #A80036; stroke-width: 1.0;"/><text fill="#000000" font-family="sans-serif" font-size="13" lengthAdjust="spacingAndGlyphs" textLength="25" x="357" y="669.4951">type</text><!--MD5=[5dbdf961f753a7cb4d77958be9e3a18f]
link doa.engine.scene.elements.physics.DoaRigidBody to doa.engine.scene.elements.physics.DoaCollider--><path codeLine="90" d="M473.35,625.07 C482.71,650.31 491.96,675.23 500.43,698.05 " fill="none" id="doa.engine.scene.elements.physics.DoaRigidBody-to-doa.engine.scene.elements.physics.DoaCollider" style="stroke: #A80036; stroke-width: 1.0;"/><polygon fill="#A80036" points="502.23,702.89,502.8679,693.0618,500.4995,698.199,495.3623,695.8306,502.23,702.89" style="stroke: #A80036; stroke-width: 1.0;"/><text fill="#000000" font-family="sans-serif" font-size="13" lengthAdjust="spacingAndGlyphs" textLength="48" x="490" y="669.4951">colliders</text><text fill="#000000" font-family="sans-serif" font-size="13" lengthAdjust="spacingAndGlyphs" textLength="5" x="494.2234" y="692.1139">*</text><text fill="#888888" font-family="sans-serif" font-size="10" lengthAdjust="spacingAndGlyphs" textLength="190" x="371.5" y="1291.3809">UMLDoclet 2.0.12, PlantUML 1.2020.16</text><!--MD5=[95f16e1e2a66c6dfcaff3aac3ef46984]
@startuml
    namespace doa.engine.scene.elements.physics {

        class DoaArbitraryShapeCollider [[DoaArbitraryShapeCollider.html]] {
            #points: List<DoaVector>
            +DoaArbitraryShapeCollider(List<DoaVector>)
            +getPoints(): List<DoaVector>
        }

        enum DoaBodyType [[DoaBodyType.html]] {
            {static} +STATIC
            {static} +DYNAMIC
            {static} +KINEMATIC
        }

        class DoaBoxCollider [[DoaBoxCollider.html]] {
            +DoaBoxCollider(DoaVector)
            +DoaBoxCollider(DoaVector, DoaVector)
            +getDimensions(): DoaVector
            +getOffset(): DoaVector
            +getPoints(): List<DoaVector>
            +debugRender(): void
        }

        class DoaCircleCollider [[DoaCircleCollider.html]] {
            +DoaCircleCollider(float)
            +DoaCircleCollider(float, DoaVector)
            +getRadius(): float
            +getOffset(): DoaVector
            +getPoints(): List<DoaVector>
            +debugRender(): void
        }

        abstract class DoaCollider [[DoaCollider.html]] {
            #isTrigger: boolean
            #group: int
            {abstract} +getPoints(): List<DoaVector>
            +makeTrigger(): DoaCollider
            +makeNonTrigger(): DoaCollider
            +isTrigger(): boolean
            +group(int): DoaCollider
            +getGroup(): int
            +onTriggerEnter(DoaObject, DoaObject): void
            +onTriggerExit(DoaObject, DoaObject): void
            +debugRender(): void
        }

        class DoaEllipseCollider [[DoaEllipseCollider.html]] {
            #majorAxis: float
            #minorAxis: float
            +DoaEllipseCollider(float, float)
            +DoaEllipseCollider(float, float, DoaVector)
        }

        class DoaRigidBody [[DoaRigidBody.html]] {
            +linearVelocity: DoaVector
            +angularVelocity: float
            +linearDampening: float
            +angularDampening: float
            +mass: float
            +friction: float
            +elasticity: float
            +fixedRotation: boolean
            +isBullet: boolean
            +canSleep: boolean
            +setLinearVelocity(DoaVector): void
            +getLinearVelocity(): DoaVector
            +setAngularVelocity(float): void
            +getAngularVelocity(): float
            +setTransform(DoaTransform): void
            +getTransform(): DoaTransform
            +applyForce(DoaVector, DoaVector): void
            +applyForceToCenter(DoaVector): void
            +applyTorque(float): void
            +applyLinearImpulse(DoaVector, DoaVector): void
            +applyAngularImpulse(float): void
            +tick(): void
            #onAdd(DoaObject): void
            #onRemove(DoaObject): void
            +setNativeBody(Body): void
            +getNativeBody(): Body
        }

        DoaCollider <|- - DoaArbitraryShapeCollider
        DoaCollider <|- - DoaBoxCollider
        DoaCollider <|- - DoaCircleCollider
        java.io.Serializable <|.. DoaCollider
        DoaArbitraryShapeCollider <|- - DoaEllipseCollider
        doa.engine.scene.DoaComponent <|- - DoaRigidBody
        DoaRigidBody - -> DoaBodyType: type
        DoaRigidBody - -> "*" DoaCollider: colliders
    }

    namespace java.io {
        interface Serializable
    }

    namespace doa.engine.scene {
        abstract class DoaComponent [[..\..\DoaComponent.html]] {
            #isEnabled: boolean
            +name: String
            +debugRender: boolean
        }
    }

    center footer UMLDoclet 2.0.12, PlantUML 1.2020.16
@enduml

PlantUML version 1.2020.16(Sun Aug 23 23:20:43 TRT 2020)
(APACHE source distribution)
Java Runtime: OpenJDK Runtime Environment
JVM: OpenJDK 64-Bit Server VM
Default Encoding: Cp1252
Language: en
Country: GB
--></g></svg>