<?xml version="1.0" encoding="UTF-8" standalone="no"?><svg xmlns="http://www.w3.org/2000/svg" xmlns:xlink="http://www.w3.org/1999/xlink" contentScriptType="application/ecmascript" contentStyleType="text/css" height="634px" preserveAspectRatio="none" style="width:281px;height:634px;" version="1.1" viewBox="0 0 281 634" width="281px" zoomAndPan="magnify"><defs><filter height="300%" id="f1k1srdoi7qkri" width="300%" x="-1" y="-1"><feGaussianBlur result="blurOut" stdDeviation="2.0"/><feColorMatrix in="blurOut" result="blurOut2" type="matrix" values="0 0 0 0 0 0 0 0 0 0 0 0 0 0 0 0 0 0 .4 0"/><feOffset dx="4.0" dy="4.0" in="blurOut2" result="blurOut3"/><feBlend in="SourceGraphic" in2="blurOut3" mode="normal"/></filter></defs><g><!--MD5=[45a62c7e2f34287901619d17c23d07f2]
class doa.engine.core.DoaCamera--><a href="DoaCamera.html" target="_top" title="DoaCamera.html" xlink:actuate="onRequest" xlink:href="DoaCamera.html" xlink:show="new" xlink:title="DoaCamera.html" xlink:type="simple"><rect codeLine="5" fill="#FEFECE" filter="url(#f1k1srdoi7qkri)" height="490.9375" id="doa.engine.core.DoaCamera" style="stroke: #A80036; stroke-width: 1.5;" width="255" x="7" y="107"/><ellipse cx="91.25" cy="127.0938" fill="#ADD1B2" rx="11" ry="11" style="stroke: #A80036; stroke-width: 1.0;"/><path d="M94.0156,122.9688 Q94.1719,122.75 94.3594,122.6406 Q94.5469,122.5313 94.7656,122.5313 Q95.1406,122.5313 95.375,122.7969 Q95.6094,123.0469 95.6094,123.6563 L95.6094,125.1094 Q95.6094,125.7188 95.375,125.9844 Q95.1406,126.25 94.7656,126.25 Q94.4219,126.25 94.2188,126.0469 Q94.0156,125.8594 93.9063,125.3438 Q93.8594,124.9844 93.6719,124.7969 Q93.3438,124.4219 92.7344,124.2031 Q92.125,123.9844 91.5,123.9844 Q90.7344,123.9844 90.0938,124.3125 Q89.4688,124.6406 88.9688,125.3906 Q88.4844,126.1406 88.4844,127.1719 L88.4844,128.2656 Q88.4844,129.5 89.375,130.3281 Q90.2656,131.1406 91.8594,131.1406 Q92.7969,131.1406 93.4531,130.8906 Q93.8438,130.7344 94.2656,130.2969 Q94.5313,130.0313 94.6719,129.9531 Q94.8281,129.875 95.0313,129.875 Q95.3594,129.875 95.6094,130.1406 Q95.875,130.3906 95.875,130.7344 Q95.875,131.0781 95.5313,131.4844 Q95.0313,132.0625 94.2344,132.3906 Q93.1563,132.8438 91.8594,132.8438 Q90.3438,132.8438 89.1406,132.2188 Q88.1563,131.7188 87.4688,130.6563 Q86.7813,129.5781 86.7813,128.2969 L86.7813,127.1406 Q86.7813,125.8125 87.3906,124.6719 Q88.0156,123.5156 89.1094,122.9063 Q90.2031,122.2813 91.4375,122.2813 Q92.1719,122.2813 92.8125,122.4531 Q93.4688,122.6094 94.0156,122.9688 Z "/><text fill="#000000" font-family="sans-serif" font-size="14" lengthAdjust="spacingAndGlyphs" textLength="76" x="112.75" y="126.5332">DoaCamera</text><text fill="#000000" font-family="sans-serif" font-size="10" lengthAdjust="spacingAndGlyphs" textLength="78" x="111.75" y="139.9902">doa.engine.core</text><line style="stroke: #A80036; stroke-width: 1.5;" x1="8" x2="261" y1="147.1875" y2="147.1875"/><ellipse cx="18" cy="158.1875" fill="#84BE84" rx="3" ry="3" style="stroke: #038048; stroke-width: 1.0;"/><text fill="#000000" font-family="sans-serif" font-size="11" lengthAdjust="spacingAndGlyphs" text-decoration="underline" textLength="218" x="27" y="162.6064">adjustCamera(DoaObject, int, int, int, int): void</text><ellipse cx="18" cy="172.0234" fill="#84BE84" rx="3" ry="3" style="stroke: #038048; stroke-width: 1.0;"/><text fill="#000000" font-family="sans-serif" font-size="11" lengthAdjust="spacingAndGlyphs" text-decoration="underline" textLength="229" x="27" y="176.4424">enableMouseZoom(DoaObject, float, float): void</text><ellipse cx="18" cy="185.8594" fill="#84BE84" rx="3" ry="3" style="stroke: #038048; stroke-width: 1.0;"/><text fill="#000000" font-family="sans-serif" font-size="11" lengthAdjust="spacingAndGlyphs" text-decoration="underline" textLength="118" x="27" y="190.2783">resetMouseZoom(): void</text><ellipse cx="18" cy="199.6953" fill="#84BE84" rx="3" ry="3" style="stroke: #038048; stroke-width: 1.0;"/><text fill="#000000" font-family="sans-serif" font-size="11" lengthAdjust="spacingAndGlyphs" text-decoration="underline" textLength="127" x="27" y="204.1143">disableMouseZoom(): void</text><ellipse cx="18" cy="213.5313" fill="#84BE84" rx="3" ry="3" style="stroke: #038048; stroke-width: 1.0;"/><text fill="#000000" font-family="sans-serif" font-size="11" lengthAdjust="spacingAndGlyphs" text-decoration="underline" textLength="77" x="27" y="217.9502">setX(float): void</text><ellipse cx="18" cy="227.3672" fill="#84BE84" rx="3" ry="3" style="stroke: #038048; stroke-width: 1.0;"/><text fill="#000000" font-family="sans-serif" font-size="11" lengthAdjust="spacingAndGlyphs" text-decoration="underline" textLength="78" x="27" y="231.7861">setY(float): void</text><ellipse cx="18" cy="241.2031" fill="#84BE84" rx="3" ry="3" style="stroke: #038048; stroke-width: 1.0;"/><text fill="#000000" font-family="sans-serif" font-size="11" lengthAdjust="spacingAndGlyphs" text-decoration="underline" textLength="77" x="27" y="245.6221">setZ(float): void</text><ellipse cx="18" cy="255.0391" fill="#84BE84" rx="3" ry="3" style="stroke: #038048; stroke-width: 1.0;"/><text fill="#000000" font-family="sans-serif" font-size="11" lengthAdjust="spacingAndGlyphs" text-decoration="underline" textLength="93" x="27" y="259.458">setMinX(float): void</text><ellipse cx="18" cy="268.875" fill="#84BE84" rx="3" ry="3" style="stroke: #038048; stroke-width: 1.0;"/><text fill="#000000" font-family="sans-serif" font-size="11" lengthAdjust="spacingAndGlyphs" text-decoration="underline" textLength="94" x="27" y="273.2939">setMinY(float): void</text><ellipse cx="18" cy="282.7109" fill="#84BE84" rx="3" ry="3" style="stroke: #038048; stroke-width: 1.0;"/><text fill="#000000" font-family="sans-serif" font-size="11" lengthAdjust="spacingAndGlyphs" text-decoration="underline" textLength="93" x="27" y="287.1299">setMinZ(float): void</text><ellipse cx="18" cy="296.5469" fill="#84BE84" rx="3" ry="3" style="stroke: #038048; stroke-width: 1.0;"/><text fill="#000000" font-family="sans-serif" font-size="11" lengthAdjust="spacingAndGlyphs" text-decoration="underline" textLength="97" x="27" y="300.9658">setMaxX(float): void</text><ellipse cx="18" cy="310.3828" fill="#84BE84" rx="3" ry="3" style="stroke: #038048; stroke-width: 1.0;"/><text fill="#000000" font-family="sans-serif" font-size="11" lengthAdjust="spacingAndGlyphs" text-decoration="underline" textLength="98" x="27" y="314.8018">setMaxY(float): void</text><ellipse cx="18" cy="324.2188" fill="#84BE84" rx="3" ry="3" style="stroke: #038048; stroke-width: 1.0;"/><text fill="#000000" font-family="sans-serif" font-size="11" lengthAdjust="spacingAndGlyphs" text-decoration="underline" textLength="97" x="27" y="328.6377">setMaxZ(float): void</text><ellipse cx="18" cy="338.0547" fill="#84BE84" rx="3" ry="3" style="stroke: #038048; stroke-width: 1.0;"/><text fill="#000000" font-family="sans-serif" font-size="11" lengthAdjust="spacingAndGlyphs" text-decoration="underline" textLength="148" x="27" y="342.4736">setTweenAmountX(float): void</text><ellipse cx="18" cy="351.8906" fill="#84BE84" rx="3" ry="3" style="stroke: #038048; stroke-width: 1.0;"/><text fill="#000000" font-family="sans-serif" font-size="11" lengthAdjust="spacingAndGlyphs" text-decoration="underline" textLength="149" x="27" y="356.3096">setTweenAmountY(float): void</text><ellipse cx="18" cy="365.7266" fill="#84BE84" rx="3" ry="3" style="stroke: #038048; stroke-width: 1.0;"/><text fill="#000000" font-family="sans-serif" font-size="11" lengthAdjust="spacingAndGlyphs" text-decoration="underline" textLength="148" x="27" y="370.1455">setTweenAmountZ(float): void</text><ellipse cx="18" cy="379.5625" fill="#84BE84" rx="3" ry="3" style="stroke: #038048; stroke-width: 1.0;"/><text fill="#000000" font-family="sans-serif" font-size="11" lengthAdjust="spacingAndGlyphs" text-decoration="underline" textLength="154" x="27" y="383.9814">getObjectToFollow(): DoaObject</text><ellipse cx="18" cy="393.3984" fill="#84BE84" rx="3" ry="3" style="stroke: #038048; stroke-width: 1.0;"/><text fill="#000000" font-family="sans-serif" font-size="11" lengthAdjust="spacingAndGlyphs" text-decoration="underline" textLength="166" x="27" y="397.8174">getObjectToZoomInto(): DoaObject</text><ellipse cx="18" cy="407.2344" fill="#84BE84" rx="3" ry="3" style="stroke: #038048; stroke-width: 1.0;"/><text fill="#000000" font-family="sans-serif" font-size="11" lengthAdjust="spacingAndGlyphs" text-decoration="underline" textLength="57" x="27" y="411.6533">getX(): float</text><ellipse cx="18" cy="421.0703" fill="#84BE84" rx="3" ry="3" style="stroke: #038048; stroke-width: 1.0;"/><text fill="#000000" font-family="sans-serif" font-size="11" lengthAdjust="spacingAndGlyphs" text-decoration="underline" textLength="58" x="27" y="425.4893">getY(): float</text><ellipse cx="18" cy="434.9063" fill="#84BE84" rx="3" ry="3" style="stroke: #038048; stroke-width: 1.0;"/><text fill="#000000" font-family="sans-serif" font-size="11" lengthAdjust="spacingAndGlyphs" text-decoration="underline" textLength="57" x="27" y="439.3252">getZ(): float</text><ellipse cx="18" cy="448.7422" fill="#84BE84" rx="3" ry="3" style="stroke: #038048; stroke-width: 1.0;"/><text fill="#000000" font-family="sans-serif" font-size="11" lengthAdjust="spacingAndGlyphs" text-decoration="underline" textLength="73" x="27" y="453.1611">getMinX(): float</text><ellipse cx="18" cy="462.5781" fill="#84BE84" rx="3" ry="3" style="stroke: #038048; stroke-width: 1.0;"/><text fill="#000000" font-family="sans-serif" font-size="11" lengthAdjust="spacingAndGlyphs" text-decoration="underline" textLength="74" x="27" y="466.9971">getMinY(): float</text><ellipse cx="18" cy="476.4141" fill="#84BE84" rx="3" ry="3" style="stroke: #038048; stroke-width: 1.0;"/><text fill="#000000" font-family="sans-serif" font-size="11" lengthAdjust="spacingAndGlyphs" text-decoration="underline" textLength="73" x="27" y="480.833">getMinZ(): float</text><ellipse cx="18" cy="490.25" fill="#84BE84" rx="3" ry="3" style="stroke: #038048; stroke-width: 1.0;"/><text fill="#000000" font-family="sans-serif" font-size="11" lengthAdjust="spacingAndGlyphs" text-decoration="underline" textLength="77" x="27" y="494.6689">getMaxX(): float</text><ellipse cx="18" cy="504.0859" fill="#84BE84" rx="3" ry="3" style="stroke: #038048; stroke-width: 1.0;"/><text fill="#000000" font-family="sans-serif" font-size="11" lengthAdjust="spacingAndGlyphs" text-decoration="underline" textLength="78" x="27" y="508.5049">getMaxY(): float</text><ellipse cx="18" cy="517.9219" fill="#84BE84" rx="3" ry="3" style="stroke: #038048; stroke-width: 1.0;"/><text fill="#000000" font-family="sans-serif" font-size="11" lengthAdjust="spacingAndGlyphs" text-decoration="underline" textLength="77" x="27" y="522.3408">getMaxZ(): float</text><ellipse cx="18" cy="531.7578" fill="#84BE84" rx="3" ry="3" style="stroke: #038048; stroke-width: 1.0;"/><text fill="#000000" font-family="sans-serif" font-size="11" lengthAdjust="spacingAndGlyphs" text-decoration="underline" textLength="128" x="27" y="536.1768">getTweenAmountX(): float</text><ellipse cx="18" cy="545.5938" fill="#84BE84" rx="3" ry="3" style="stroke: #038048; stroke-width: 1.0;"/><text fill="#000000" font-family="sans-serif" font-size="11" lengthAdjust="spacingAndGlyphs" text-decoration="underline" textLength="129" x="27" y="550.0127">getTweenAmountY(): float</text><ellipse cx="18" cy="559.4297" fill="#84BE84" rx="3" ry="3" style="stroke: #038048; stroke-width: 1.0;"/><text fill="#000000" font-family="sans-serif" font-size="11" lengthAdjust="spacingAndGlyphs" text-decoration="underline" textLength="128" x="27" y="563.8486">getTweenAmountZ(): float</text><ellipse cx="18" cy="573.2656" fill="#84BE84" rx="3" ry="3" style="stroke: #038048; stroke-width: 1.0;"/><text fill="#000000" font-family="sans-serif" font-size="11" lengthAdjust="spacingAndGlyphs" text-decoration="underline" textLength="178" x="27" y="577.6846">isObjectToFollowInitialized(): boolean</text><ellipse cx="18" cy="587.1016" fill="#84BE84" rx="3" ry="3" style="stroke: #038048; stroke-width: 1.0;"/><text fill="#000000" font-family="sans-serif" font-size="11" lengthAdjust="spacingAndGlyphs" text-decoration="underline" textLength="171" x="27" y="591.5205">isMouseZoomingEnabled(): boolean</text></a><!--MD5=[5a5af9b0547913863cbe0ddf55a9ab5e]
class java.io.Serializable--><rect codeLine="40" fill="#FEFECE" filter="url(#f1k1srdoi7qkri)" height="40.1875" id="java.io.Serializable" style="stroke: #A80036; stroke-width: 1.5;" width="105" x="82" y="7"/><ellipse cx="97" cy="27.0938" fill="#B4A7E5" rx="11" ry="11" style="stroke: #A80036; stroke-width: 1.0;"/><path d="M97.9531,23.7344 L97.9531,30.3906 L99.6719,30.3906 Q100.2813,30.3906 100.5469,30.625 Q100.8125,30.8594 100.8125,31.25 Q100.8125,31.625 100.5469,31.8594 Q100.2813,32.0938 99.6719,32.0938 L94.5313,32.0938 Q93.9219,32.0938 93.6563,31.8594 Q93.3906,31.625 93.3906,31.2344 Q93.3906,30.8594 93.6563,30.625 Q93.9219,30.3906 94.5313,30.3906 L96.25,30.3906 L96.25,23.7344 L94.5313,23.7344 Q93.9219,23.7344 93.6563,23.5 Q93.3906,23.2656 93.3906,22.875 Q93.3906,22.5 93.6563,22.2656 Q93.9219,22.0313 94.5313,22.0313 L99.6719,22.0313 Q100.2813,22.0313 100.5469,22.2656 Q100.8125,22.5 100.8125,22.875 Q100.8125,23.2656 100.5469,23.5 Q100.2813,23.7344 99.6719,23.7344 L97.9531,23.7344 Z "/><text fill="#000000" font-family="sans-serif" font-size="14" font-style="italic" lengthAdjust="spacingAndGlyphs" textLength="73" x="111" y="26.5332">Serializable</text><text fill="#000000" font-family="sans-serif" font-size="10" font-style="italic" lengthAdjust="spacingAndGlyphs" textLength="31" x="132" y="39.9902">java.io</text><!--MD5=[febe6337942d5aaf19a8b844b5460b47]
reverse link java.io.Serializable to doa.engine.core.DoaCamera--><path codeLine="42" d="M134.5,67.65 C134.5,79.01 134.5,92.28 134.5,106.78 " fill="none" id="java.io.Serializable-backto-doa.engine.core.DoaCamera" style="stroke: #A80036; stroke-width: 1.0; stroke-dasharray: 7.0,7.0;"/><polygon fill="none" points="127.5,67.27,134.5,47.27,141.5,67.27,127.5,67.27" style="stroke: #A80036; stroke-width: 1.0;"/><text fill="#888888" font-family="sans-serif" font-size="10" lengthAdjust="spacingAndGlyphs" textLength="190" x="36.5" y="621.3184">UMLDoclet 2.0.12, PlantUML 1.2020.16</text><!--MD5=[f3b1e8bdae432f0aeff7367b7a003494]
@startuml
    set namespaceSeparator none
    hide empty fields
    hide empty methods

    class "<size:14>DoaCamera\n<size:10>doa.engine.core" as doa.engine.core.DoaCamera [[DoaCamera.html]] {
        {static} +adjustCamera(DoaObject, int, int, int, int): void
        {static} +enableMouseZoom(DoaObject, float, float): void
        {static} +resetMouseZoom(): void
        {static} +disableMouseZoom(): void
        {static} +setX(float): void
        {static} +setY(float): void
        {static} +setZ(float): void
        {static} +setMinX(float): void
        {static} +setMinY(float): void
        {static} +setMinZ(float): void
        {static} +setMaxX(float): void
        {static} +setMaxY(float): void
        {static} +setMaxZ(float): void
        {static} +setTweenAmountX(float): void
        {static} +setTweenAmountY(float): void
        {static} +setTweenAmountZ(float): void
        {static} +getObjectToFollow(): DoaObject
        {static} +getObjectToZoomInto(): DoaObject
        {static} +getX(): float
        {static} +getY(): float
        {static} +getZ(): float
        {static} +getMinX(): float
        {static} +getMinY(): float
        {static} +getMinZ(): float
        {static} +getMaxX(): float
        {static} +getMaxY(): float
        {static} +getMaxZ(): float
        {static} +getTweenAmountX(): float
        {static} +getTweenAmountY(): float
        {static} +getTweenAmountZ(): float
        {static} +isObjectToFollowInitialized(): boolean
        {static} +isMouseZoomingEnabled(): boolean
    }

    interface "<size:14>Serializable\n<size:10>java.io" as java.io.Serializable

    java.io.Serializable <|.. doa.engine.core.DoaCamera

    center footer UMLDoclet 2.0.12, PlantUML 1.2020.16
@enduml

PlantUML version 1.2020.16(Sun Aug 23 23:20:43 TRT 2020)
(APACHE source distribution)
Java Runtime: OpenJDK Runtime Environment
JVM: OpenJDK 64-Bit Server VM
Default Encoding: Cp1252
Language: en
Country: GB
--></g></svg>