<svg xmlns="http://www.w3.org/2000/svg" xmlns:xlink="http://www.w3.org/1999/xlink" width="244" height="169" contentScriptType="application/ecmascript" contentStyleType="text/css" style="width:244px;height:169px" preserveAspectRatio="none" version="1.1" viewBox="0 0 244 169" zoomAndPan="magnify"><defs><filter id="f1860oee6vpzlp" width="300%" height="300%" x="-1" y="-1"><feGaussianBlur result="blurOut" stdDeviation="2"/><feColorMatrix in="blurOut" result="blurOut2" type="matrix" values="0 0 0 0 0 0 0 0 0 0 0 0 0 0 0 0 0 0 .4 0"/><feOffset dx="4" dy="4" in="blurOut2" result="blurOut3"/><feBlend in="SourceGraphic" in2="blurOut3" mode="normal"/></filter></defs><g><a href="DoaEngineSettings.html" target="_top" title="DoaEngineSettings.html" xlink:actuate="onRequest" xlink:href="DoaEngineSettings.html" xlink:show="new" xlink:title="DoaEngineSettings.html" xlink:type="simple"><rect id="doa.engine.core.DoaEngineSettings" width="218" height="131.203" x="7" y="7" fill="#FEFECE" codeLine="5" filter="url(#f1860oee6vpzlp)" style="stroke:#a80036;stroke-width:1.5"/><ellipse cx="51.25" cy="27.094" fill="#ADD1B2" rx="11" ry="11" style="stroke:#a80036;stroke-width:1"/><path d="M54.0156,22.9688 Q54.1719,22.75 54.3594,22.6406 Q54.5469,22.5313 54.7656,22.5313 Q55.1406,22.5313 55.375,22.7969 Q55.6094,23.0469 55.6094,23.6563 L55.6094,25.1094 Q55.6094,25.7188 55.375,25.9844 Q55.1406,26.25 54.7656,26.25 Q54.4219,26.25 54.2188,26.0469 Q54.0156,25.8594 53.9063,25.3438 Q53.8594,24.9844 53.6719,24.7969 Q53.3438,24.4219 52.7344,24.2031 Q52.125,23.9844 51.5,23.9844 Q50.7344,23.9844 50.0938,24.3125 Q49.4688,24.6406 48.9688,25.3906 Q48.4844,26.1406 48.4844,27.1719 L48.4844,28.2656 Q48.4844,29.5 49.375,30.3281 Q50.2656,31.1406 51.8594,31.1406 Q52.7969,31.1406 53.4531,30.8906 Q53.8438,30.7344 54.2656,30.2969 Q54.5313,30.0313 54.6719,29.9531 Q54.8281,29.875 55.0313,29.875 Q55.3594,29.875 55.6094,30.1406 Q55.875,30.3906 55.875,30.7344 Q55.875,31.0781 55.5313,31.4844 Q55.0313,32.0625 54.2344,32.3906 Q53.1563,32.8438 51.8594,32.8438 Q50.3438,32.8438 49.1406,32.2188 Q48.1563,31.7188 47.4688,30.6563 Q46.7813,29.5781 46.7813,28.2969 L46.7813,27.1406 Q46.7813,25.8125 47.3906,24.6719 Q48.0156,23.5156 49.1094,22.9063 Q50.2031,22.2813 51.4375,22.2813 Q52.1719,22.2813 52.8125,22.4531 Q53.4688,22.6094 54.0156,22.9688 Z"/><text x="71.75" y="26.533" fill="#000" font-family="sans-serif" font-size="14" lengthAdjust="spacingAndGlyphs" textLength="121">DoaEngineSettings</text><text x="93.25" y="39.99" fill="#000" font-family="sans-serif" font-size="10" lengthAdjust="spacingAndGlyphs" textLength="78">doa.engine.core</text><line style="stroke:#a80036;stroke-width:1.5" x1="8" x2="224" y1="47.188" y2="47.188"/><ellipse cx="18" cy="58.188" fill="none" rx="3" ry="3" style="stroke:#038048;stroke-width:1"/><text x="27" y="62.606" fill="#000" font-family="sans-serif" font-size="11" lengthAdjust="spacingAndGlyphs" textLength="72">TICK_RATE: int</text><ellipse cx="18" cy="72.023" fill="none" rx="3" ry="3" style="stroke:#038048;stroke-width:1"/><text x="27" y="76.442" fill="#000" font-family="sans-serif" font-size="11" lengthAdjust="spacingAndGlyphs" textLength="107">CLEAR_COLOR: Color</text><ellipse cx="18" cy="85.859" fill="none" rx="3" ry="3" style="stroke:#038048;stroke-width:1"/><text x="27" y="90.278" fill="#000" font-family="sans-serif" font-size="11" lengthAdjust="spacingAndGlyphs" textLength="192">RENDERING_MODE: DoaRenderingMode</text><ellipse cx="18" cy="99.695" fill="none" rx="3" ry="3" style="stroke:#038048;stroke-width:1"/><text x="27" y="104.114" fill="#000" font-family="sans-serif" font-size="11" lengthAdjust="spacingAndGlyphs" textLength="119">AXIS_HELPERS: boolean</text><ellipse cx="18" cy="113.531" fill="none" rx="3" ry="3" style="stroke:#038048;stroke-width:1"/><text x="27" y="117.95" fill="#000" font-family="sans-serif" font-size="11" lengthAdjust="spacingAndGlyphs" textLength="172">CUSTOM_HINTS: Map&lt;Key, Object&gt;</text><ellipse cx="18" cy="127.367" fill="none" rx="3" ry="3" style="stroke:#038048;stroke-width:1"/><text x="27" y="131.786" fill="#000" font-family="sans-serif" font-size="11" lengthAdjust="spacingAndGlyphs" textLength="183">REFERENCE_RESOLUTION: Dimension</text></a><text x="21" y="155.584" fill="#888" font-family="sans-serif" font-size="10" lengthAdjust="spacingAndGlyphs" textLength="190">UMLDoclet 2.0.12, PlantUML 1.2020.16</text></g></svg>