<svg xmlns="http://www.w3.org/2000/svg" xmlns:xlink="http://www.w3.org/1999/xlink" width="202" height="99" contentScriptType="application/ecmascript" contentStyleType="text/css" style="width:202px;height:99px" preserveAspectRatio="none" version="1.1" viewBox="0 0 202 99" zoomAndPan="magnify"><defs><filter id="fjg3qepszl6h2" width="300%" height="300%" x="-1" y="-1"><feGaussianBlur result="blurOut" stdDeviation="2"/><feColorMatrix in="blurOut" result="blurOut2" type="matrix" values="0 0 0 0 0 0 0 0 0 0 0 0 0 0 0 0 0 0 .4 0"/><feOffset dx="4" dy="4" in="blurOut2" result="blurOut3"/><feBlend in="SourceGraphic" in2="blurOut3" mode="normal"/></filter></defs><g><a href="DoaEngine.html" target="_top" title="DoaEngine.html" xlink:actuate="onRequest" xlink:href="DoaEngine.html" xlink:show="new" xlink:title="DoaEngine.html" xlink:type="simple"><rect id="doa.engine.core.DoaEngine" width="110" height="62.023" x="40" y="7" fill="#FEFECE" codeLine="5" filter="url(#fjg3qepszl6h2)" style="stroke:#a80036;stroke-width:1.5"/><ellipse cx="55" cy="27.094" fill="#ADD1B2" rx="11" ry="11" style="stroke:#a80036;stroke-width:1"/><path d="M57.7656,22.9688 Q57.9219,22.75 58.1094,22.6406 Q58.2969,22.5313 58.5156,22.5313 Q58.8906,22.5313 59.125,22.7969 Q59.3594,23.0469 59.3594,23.6563 L59.3594,25.1094 Q59.3594,25.7188 59.125,25.9844 Q58.8906,26.25 58.5156,26.25 Q58.1719,26.25 57.9688,26.0469 Q57.7656,25.8594 57.6563,25.3438 Q57.6094,24.9844 57.4219,24.7969 Q57.0938,24.4219 56.4844,24.2031 Q55.875,23.9844 55.25,23.9844 Q54.4844,23.9844 53.8438,24.3125 Q53.2188,24.6406 52.7188,25.3906 Q52.2344,26.1406 52.2344,27.1719 L52.2344,28.2656 Q52.2344,29.5 53.125,30.3281 Q54.0156,31.1406 55.6094,31.1406 Q56.5469,31.1406 57.2031,30.8906 Q57.5938,30.7344 58.0156,30.2969 Q58.2813,30.0313 58.4219,29.9531 Q58.5781,29.875 58.7813,29.875 Q59.1094,29.875 59.3594,30.1406 Q59.625,30.3906 59.625,30.7344 Q59.625,31.0781 59.2813,31.4844 Q58.7813,32.0625 57.9844,32.3906 Q56.9063,32.8438 55.6094,32.8438 Q54.0938,32.8438 52.8906,32.2188 Q51.9063,31.7188 51.2188,30.6563 Q50.5313,29.5781 50.5313,28.2969 L50.5313,27.1406 Q50.5313,25.8125 51.1406,24.6719 Q51.7656,23.5156 52.8594,22.9063 Q53.9531,22.2813 55.1875,22.2813 Q55.9219,22.2813 56.5625,22.4531 Q57.2188,22.6094 57.7656,22.9688 Z"/><text x="73" y="26.533" fill="#000" font-family="sans-serif" font-size="14" lengthAdjust="spacingAndGlyphs" textLength="70">DoaEngine</text><text x="69" y="39.99" fill="#000" font-family="sans-serif" font-size="10" lengthAdjust="spacingAndGlyphs" textLength="78">doa.engine.core</text><line style="stroke:#a80036;stroke-width:1.5" x1="41" x2="149" y1="47.188" y2="47.188"/><ellipse cx="51" cy="58.188" fill="none" rx="3" ry="3" style="stroke:#038048;stroke-width:1"/><text x="60" y="62.606" fill="#000" font-family="sans-serif" font-size="11" lengthAdjust="spacingAndGlyphs" text-decoration="underline" textLength="79">VERSION: String</text></a><text x="0" y="86.404" fill="#888" font-family="sans-serif" font-size="10" lengthAdjust="spacingAndGlyphs" textLength="190">UMLDoclet 2.0.12, PlantUML 1.2020.16</text></g></svg>