<?xml version="1.0" encoding="UTF-8" standalone="no"?><svg xmlns="http://www.w3.org/2000/svg" xmlns:xlink="http://www.w3.org/1999/xlink" contentScriptType="application/ecmascript" contentStyleType="text/css" height="127px" preserveAspectRatio="none" style="width:371px;height:127px;" version="1.1" viewBox="0 0 371 127" width="371px" zoomAndPan="magnify"><defs><filter height="300%" id="f1fsycu35s4sv5" width="300%" x="-1" y="-1"><feGaussianBlur result="blurOut" stdDeviation="2.0"/><feColorMatrix in="blurOut" result="blurOut2" type="matrix" values="0 0 0 0 0 0 0 0 0 0 0 0 0 0 0 0 0 0 .4 0"/><feOffset dx="4.0" dy="4.0" in="blurOut2" result="blurOut3"/><feBlend in="SourceGraphic" in2="blurOut3" mode="normal"/></filter></defs><g><!--MD5=[bc2ee63a29935e2a3ad95dcd0ff4c0db]
class doa.engine.core.DoaGame--><a href="DoaGame.html" target="_top" title="DoaGame.html" xlink:actuate="onRequest" xlink:href="DoaGame.html" xlink:show="new" xlink:title="DoaGame.html" xlink:type="simple"><rect codeLine="5" fill="#FEFECE" filter="url(#f1fsycu35s4sv5)" height="89.6953" id="doa.engine.core.DoaGame" style="stroke: #A80036; stroke-width: 1.5;" width="345" x="7" y="7"/><ellipse cx="136.75" cy="27.0938" fill="#A9DCDF" rx="11" ry="11" style="stroke: #A80036; stroke-width: 1.0;"/><path d="M138.9375,28.8594 L134.7969,28.8594 L134.375,29.8906 L134.7969,29.8906 Q135.4063,29.8906 135.6719,30.125 Q135.9375,30.3594 135.9375,30.75 Q135.9375,31.125 135.6719,31.3594 Q135.4063,31.5938 134.7969,31.5938 L132.5,31.5938 Q131.8906,31.5938 131.6406,31.3594 Q131.375,31.125 131.375,30.7344 Q131.375,30.3594 131.6563,30.125 Q131.9219,29.875 132.5469,29.8906 L135.2188,23.2344 L134.1094,23.2344 Q133.5,23.2344 133.2344,23 Q132.9688,22.7656 132.9688,22.375 Q132.9688,22 133.2344,21.7656 Q133.5,21.5313 134.1094,21.5313 L137.7813,21.5313 L141.1719,29.8906 Q141.7656,29.8906 141.9531,30.0313 Q142.3438,30.2969 142.3438,30.75 Q142.3438,31.125 142.0781,31.3594 Q141.8281,31.5938 141.2188,31.5938 L138.9219,31.5938 Q138.3125,31.5938 138.0469,31.3594 Q137.7813,31.125 137.7813,30.7344 Q137.7813,30.3594 138.0469,30.125 Q138.3125,29.8906 138.9219,29.8906 L139.3438,29.8906 L138.9375,28.8594 Z M138.2188,27.1563 L136.8594,23.7813 L135.4844,27.1563 L138.2188,27.1563 Z "/><text fill="#000000" font-family="sans-serif" font-size="14" font-style="italic" lengthAdjust="spacingAndGlyphs" textLength="64" x="163.75" y="26.5332">DoaGame</text><text fill="#000000" font-family="sans-serif" font-size="10" font-style="italic" lengthAdjust="spacingAndGlyphs" textLength="77" x="157.25" y="39.9902">doa.engine.core</text><line style="stroke: #A80036; stroke-width: 1.5;" x1="8" x2="351" y1="47.1875" y2="47.1875"/><ellipse cx="18" cy="58.1875" fill="#84BE84" rx="3" ry="3" style="stroke: #038048; stroke-width: 1.0;"/><text fill="#000000" font-family="sans-serif" font-size="11" lengthAdjust="spacingAndGlyphs" text-decoration="underline" textLength="103" x="27" y="62.6064">launch(String...): void</text><ellipse cx="18" cy="72.0234" fill="#84BE84" rx="3" ry="3" style="stroke: #038048; stroke-width: 1.0;"/><text fill="#000000" font-family="sans-serif" font-size="11" lengthAdjust="spacingAndGlyphs" textLength="108" x="27" y="76.4424">isLaunched(): boolean</text><ellipse cx="18" cy="85.8594" fill="#84BE84" rx="3" ry="3" style="stroke: #038048; stroke-width: 1.0;"/><text fill="#000000" font-family="sans-serif" font-size="11" font-style="italic" lengthAdjust="spacingAndGlyphs" textLength="319" x="27" y="90.2783">initialize(DoaEngineSettings, DoaWindowSettings, String...): void</text></a><text fill="#888888" font-family="sans-serif" font-size="10" lengthAdjust="spacingAndGlyphs" textLength="190" x="84.5" y="114.0762">UMLDoclet 2.0.12, PlantUML 1.2020.16</text><!--MD5=[cc8a9cf2c245c76ad5f3f643e213bd9f]
@startuml
    set namespaceSeparator none
    hide empty fields
    hide empty methods

    abstract class "<size:14>DoaGame\n<size:10>doa.engine.core" as doa.engine.core.DoaGame [[DoaGame.html]] {
        {static} +launch(String...): void
        +isLaunched(): boolean
        {abstract} +initialize(DoaEngineSettings, DoaWindowSettings, String...): void
    }

    center footer UMLDoclet 2.0.12, PlantUML 1.2020.16
@enduml

PlantUML version 1.2020.16(Sun Aug 23 23:20:43 TRT 2020)
(APACHE source distribution)
Java Runtime: OpenJDK Runtime Environment
JVM: OpenJDK 64-Bit Server VM
Default Encoding: Cp1252
Language: en
Country: GB
--></g></svg>