<svg xmlns="http://www.w3.org/2000/svg" xmlns:xlink="http://www.w3.org/1999/xlink" width="371" height="127" contentScriptType="application/ecmascript" contentStyleType="text/css" style="width:371px;height:127px" preserveAspectRatio="none" version="1.1" viewBox="0 0 371 127" zoomAndPan="magnify"><defs><filter id="f1fsycu35s4sv5" width="300%" height="300%" x="-1" y="-1"><feGaussianBlur result="blurOut" stdDeviation="2"/><feColorMatrix in="blurOut" result="blurOut2" type="matrix" values="0 0 0 0 0 0 0 0 0 0 0 0 0 0 0 0 0 0 .4 0"/><feOffset dx="4" dy="4" in="blurOut2" result="blurOut3"/><feBlend in="SourceGraphic" in2="blurOut3" mode="normal"/></filter></defs><g><a href="DoaGame.html" target="_top" title="DoaGame.html" xlink:actuate="onRequest" xlink:href="DoaGame.html" xlink:show="new" xlink:title="DoaGame.html" xlink:type="simple"><rect id="doa.engine.core.DoaGame" width="345" height="89.695" x="7" y="7" fill="#FEFECE" codeLine="5" filter="url(#f1fsycu35s4sv5)" style="stroke:#a80036;stroke-width:1.5"/><ellipse cx="136.75" cy="27.094" fill="#A9DCDF" rx="11" ry="11" style="stroke:#a80036;stroke-width:1"/><path d="M138.9375,28.8594 L134.7969,28.8594 L134.375,29.8906 L134.7969,29.8906 Q135.4063,29.8906 135.6719,30.125 Q135.9375,30.3594 135.9375,30.75 Q135.9375,31.125 135.6719,31.3594 Q135.4063,31.5938 134.7969,31.5938 L132.5,31.5938 Q131.8906,31.5938 131.6406,31.3594 Q131.375,31.125 131.375,30.7344 Q131.375,30.3594 131.6563,30.125 Q131.9219,29.875 132.5469,29.8906 L135.2188,23.2344 L134.1094,23.2344 Q133.5,23.2344 133.2344,23 Q132.9688,22.7656 132.9688,22.375 Q132.9688,22 133.2344,21.7656 Q133.5,21.5313 134.1094,21.5313 L137.7813,21.5313 L141.1719,29.8906 Q141.7656,29.8906 141.9531,30.0313 Q142.3438,30.2969 142.3438,30.75 Q142.3438,31.125 142.0781,31.3594 Q141.8281,31.5938 141.2188,31.5938 L138.9219,31.5938 Q138.3125,31.5938 138.0469,31.3594 Q137.7813,31.125 137.7813,30.7344 Q137.7813,30.3594 138.0469,30.125 Q138.3125,29.8906 138.9219,29.8906 L139.3438,29.8906 L138.9375,28.8594 Z M138.2188,27.1563 L136.8594,23.7813 L135.4844,27.1563 L138.2188,27.1563 Z"/><text x="163.75" y="26.533" fill="#000" font-family="sans-serif" font-size="14" font-style="italic" lengthAdjust="spacingAndGlyphs" textLength="64">DoaGame</text><text x="157.25" y="39.99" fill="#000" font-family="sans-serif" font-size="10" font-style="italic" lengthAdjust="spacingAndGlyphs" textLength="77">doa.engine.core</text><line style="stroke:#a80036;stroke-width:1.5" x1="8" x2="351" y1="47.188" y2="47.188"/><ellipse cx="18" cy="58.188" fill="#84BE84" rx="3" ry="3" style="stroke:#038048;stroke-width:1"/><text x="27" y="62.606" fill="#000" font-family="sans-serif" font-size="11" lengthAdjust="spacingAndGlyphs" text-decoration="underline" textLength="103">launch(String...): void</text><ellipse cx="18" cy="72.023" fill="#84BE84" rx="3" ry="3" style="stroke:#038048;stroke-width:1"/><text x="27" y="76.442" fill="#000" font-family="sans-serif" font-size="11" lengthAdjust="spacingAndGlyphs" textLength="108">isLaunched(): boolean</text><ellipse cx="18" cy="85.859" fill="#84BE84" rx="3" ry="3" style="stroke:#038048;stroke-width:1"/><text x="27" y="90.278" fill="#000" font-family="sans-serif" font-size="11" font-style="italic" lengthAdjust="spacingAndGlyphs" textLength="319">initialize(DoaEngineSettings, DoaWindowSettings, String...): void</text></a><text x="84.5" y="114.076" fill="#888" font-family="sans-serif" font-size="10" lengthAdjust="spacingAndGlyphs" textLength="190">UMLDoclet 2.0.12, PlantUML 1.2020.16</text></g></svg>