<svg xmlns="http://www.w3.org/2000/svg" xmlns:xlink="http://www.w3.org/1999/xlink" width="202" height="141" contentScriptType="application/ecmascript" contentStyleType="text/css" style="width:202px;height:141px" preserveAspectRatio="none" version="1.1" viewBox="0 0 202 141" zoomAndPan="magnify"><defs><filter id="fe9vie2fbpk8y" width="300%" height="300%" x="-1" y="-1"><feGaussianBlur result="blurOut" stdDeviation="2"/><feColorMatrix in="blurOut" result="blurOut2" type="matrix" values="0 0 0 0 0 0 0 0 0 0 0 0 0 0 0 0 0 0 .4 0"/><feOffset dx="4" dy="4" in="blurOut2" result="blurOut3"/><feBlend in="SourceGraphic" in2="blurOut3" mode="normal"/></filter></defs><g><a href="DoaRenderingMode.html" target="_top" title="DoaRenderingMode.html" xlink:actuate="onRequest" xlink:href="DoaRenderingMode.html" xlink:show="new" xlink:title="DoaRenderingMode.html" xlink:type="simple"><rect id="doa.engine.core.DoaRenderingMode" width="159" height="103.531" x="15.5" y="7" fill="#FEFECE" codeLine="5" filter="url(#fe9vie2fbpk8y)" style="stroke:#a80036;stroke-width:1.5"/><ellipse cx="30.5" cy="27.094" fill="#EB937F" rx="11" ry="11" style="stroke:#a80036;stroke-width:1"/><path d="M29.3594,27.8906 L29.3594,30.3906 L33.6875,30.3906 L33.6875,29.4688 Q33.6875,28.8594 33.9219,28.5938 Q34.1719,28.3281 34.5469,28.3281 Q34.9219,28.3281 35.1563,28.5938 Q35.3906,28.8594 35.3906,29.4688 L35.3906,32.0938 L27.3906,32.0938 Q26.7656,32.0938 26.5,31.8594 Q26.25,31.625 26.25,31.2344 Q26.25,30.8594 26.5156,30.625 Q26.7813,30.3906 27.3906,30.3906 L27.6563,30.3906 L27.6563,23.7344 L27.3906,23.7344 Q26.7656,23.7344 26.5,23.5 Q26.25,23.2656 26.25,22.875 Q26.25,22.5 26.5,22.2656 Q26.7656,22.0313 27.3906,22.0313 L35.0156,22.0313 L35.0156,24.625 Q35.0156,25.2344 34.7813,25.5 Q34.5625,25.75 34.1719,25.75 Q33.7969,25.75 33.5625,25.5 Q33.3281,25.2344 33.3281,24.625 L33.3281,23.7344 L29.3594,23.7344 L29.3594,26.1875 L30.8438,26.1875 Q30.8438,25.5313 30.9688,25.3438 Q31.2344,24.9375 31.7031,24.9375 Q32.0781,24.9375 32.3125,25.2031 Q32.5469,25.4531 32.5469,26.0625 L32.5469,28.0313 Q32.5469,28.5781 32.4219,28.7656 Q32.1563,29.1563 31.7031,29.1563 Q31.2344,29.1563 30.9688,28.75 Q30.8438,28.5625 30.8438,27.8906 L29.3594,27.8906 Z"/><text x="44.5" y="26.533" fill="#000" font-family="sans-serif" font-size="14" lengthAdjust="spacingAndGlyphs" textLength="127">DoaRenderingMode</text><text x="69" y="39.99" fill="#000" font-family="sans-serif" font-size="10" lengthAdjust="spacingAndGlyphs" textLength="78">doa.engine.core</text><line style="stroke:#a80036;stroke-width:1.5" x1="16.5" x2="173.5" y1="47.188" y2="47.188"/><ellipse cx="26.5" cy="58.188" fill="none" rx="3" ry="3" style="stroke:#038048;stroke-width:1"/><text x="35.5" y="62.606" fill="#000" font-family="sans-serif" font-size="11" lengthAdjust="spacingAndGlyphs" text-decoration="underline" textLength="45">QUALITY</text><ellipse cx="26.5" cy="72.023" fill="none" rx="3" ry="3" style="stroke:#038048;stroke-width:1"/><text x="35.5" y="76.442" fill="#000" font-family="sans-serif" font-size="11" lengthAdjust="spacingAndGlyphs" text-decoration="underline" textLength="56">BALANCED</text><ellipse cx="26.5" cy="85.859" fill="none" rx="3" ry="3" style="stroke:#038048;stroke-width:1"/><text x="35.5" y="90.278" fill="#000" font-family="sans-serif" font-size="11" lengthAdjust="spacingAndGlyphs" text-decoration="underline" textLength="32">SPEED</text><ellipse cx="26.5" cy="99.695" fill="none" rx="3" ry="3" style="stroke:#038048;stroke-width:1"/><text x="35.5" y="104.114" fill="#000" font-family="sans-serif" font-size="11" lengthAdjust="spacingAndGlyphs" text-decoration="underline" textLength="43">CUSTOM</text></a><text x="0" y="127.912" fill="#888" font-family="sans-serif" font-size="10" lengthAdjust="spacingAndGlyphs" textLength="190">UMLDoclet 2.0.12, PlantUML 1.2020.16</text></g></svg>