<svg xmlns="http://www.w3.org/2000/svg" xmlns:xlink="http://www.w3.org/1999/xlink" width="202" height="335" contentScriptType="application/ecmascript" contentStyleType="text/css" style="width:202px;height:335px" preserveAspectRatio="none" version="1.1" viewBox="0 0 202 335" zoomAndPan="magnify"><defs><filter id="ffsh2kgm9v4v6" width="300%" height="300%" x="-1" y="-1"><feGaussianBlur result="blurOut" stdDeviation="2"/><feColorMatrix in="blurOut" result="blurOut2" type="matrix" values="0 0 0 0 0 0 0 0 0 0 0 0 0 0 0 0 0 0 .4 0"/><feOffset dx="4" dy="4" in="blurOut2" result="blurOut3"/><feBlend in="SourceGraphic" in2="blurOut3" mode="normal"/></filter></defs><g><a href="DoaWindowSettings.html" target="_top" title="DoaWindowSettings.html" xlink:actuate="onRequest" xlink:href="DoaWindowSettings.html" xlink:show="new" xlink:title="DoaWindowSettings.html" xlink:type="simple"><rect id="doa.engine.core.DoaWindowSettings" width="174" height="297.234" x="8" y="7" fill="#FEFECE" codeLine="5" filter="url(#ffsh2kgm9v4v6)" style="stroke:#a80036;stroke-width:1.5"/><ellipse cx="30.2" cy="27.094" fill="#ADD1B2" rx="11" ry="11" style="stroke:#a80036;stroke-width:1"/><path d="M32.9656,22.9688 Q33.1219,22.75 33.3094,22.6406 Q33.4969,22.5313 33.7156,22.5313 Q34.0906,22.5313 34.325,22.7969 Q34.5594,23.0469 34.5594,23.6563 L34.5594,25.1094 Q34.5594,25.7188 34.325,25.9844 Q34.0906,26.25 33.7156,26.25 Q33.3719,26.25 33.1688,26.0469 Q32.9656,25.8594 32.8563,25.3438 Q32.8094,24.9844 32.6219,24.7969 Q32.2938,24.4219 31.6844,24.2031 Q31.075,23.9844 30.45,23.9844 Q29.6844,23.9844 29.0438,24.3125 Q28.4188,24.6406 27.9188,25.3906 Q27.4344,26.1406 27.4344,27.1719 L27.4344,28.2656 Q27.4344,29.5 28.325,30.3281 Q29.2156,31.1406 30.8094,31.1406 Q31.7469,31.1406 32.4031,30.8906 Q32.7938,30.7344 33.2156,30.2969 Q33.4813,30.0313 33.6219,29.9531 Q33.7781,29.875 33.9813,29.875 Q34.3094,29.875 34.5594,30.1406 Q34.825,30.3906 34.825,30.7344 Q34.825,31.0781 34.4813,31.4844 Q33.9813,32.0625 33.1844,32.3906 Q32.1063,32.8438 30.8094,32.8438 Q29.2938,32.8438 28.0906,32.2188 Q27.1063,31.7188 26.4188,30.6563 Q25.7313,29.5781 25.7313,28.2969 L25.7313,27.1406 Q25.7313,25.8125 26.3406,24.6719 Q26.9656,23.5156 28.0594,22.9063 Q29.1531,22.2813 30.3875,22.2813 Q31.1219,22.2813 31.7625,22.4531 Q32.4188,22.6094 32.9656,22.9688 Z"/><text x="45.8" y="26.533" fill="#000" font-family="sans-serif" font-size="14" lengthAdjust="spacingAndGlyphs" textLength="126">DoaWindowSettings</text><text x="69.8" y="39.99" fill="#000" font-family="sans-serif" font-size="10" lengthAdjust="spacingAndGlyphs" textLength="78">doa.engine.core</text><line style="stroke:#a80036;stroke-width:1.5" x1="9" x2="181" y1="47.188" y2="47.188"/><ellipse cx="19" cy="58.188" fill="none" rx="3" ry="3" style="stroke:#038048;stroke-width:1"/><text x="28" y="62.606" fill="#000" font-family="sans-serif" font-size="11" lengthAdjust="spacingAndGlyphs" textLength="60">TITLE: String</text><ellipse cx="19" cy="72.023" fill="none" rx="3" ry="3" style="stroke:#038048;stroke-width:1"/><text x="28" y="76.442" fill="#000" font-family="sans-serif" font-size="11" lengthAdjust="spacingAndGlyphs" textLength="123">SCREEN: GraphicsDevice</text><ellipse cx="19" cy="85.859" fill="none" rx="3" ry="3" style="stroke:#038048;stroke-width:1"/><text x="28" y="90.278" fill="#000" font-family="sans-serif" font-size="11" lengthAdjust="spacingAndGlyphs" textLength="82">DM: DisplayMode</text><ellipse cx="19" cy="99.695" fill="none" rx="3" ry="3" style="stroke:#038048;stroke-width:1"/><text x="28" y="104.114" fill="#000" font-family="sans-serif" font-size="11" lengthAdjust="spacingAndGlyphs" textLength="134">DEFAULT_CURSOR: Cursor</text><ellipse cx="19" cy="113.531" fill="none" rx="3" ry="3" style="stroke:#038048;stroke-width:1"/><text x="28" y="117.95" fill="#000" font-family="sans-serif" font-size="11" lengthAdjust="spacingAndGlyphs" textLength="148">CROSSHAIR_CURSOR: Cursor</text><ellipse cx="19" cy="127.367" fill="none" rx="3" ry="3" style="stroke:#038048;stroke-width:1"/><text x="28" y="131.786" fill="#000" font-family="sans-serif" font-size="11" lengthAdjust="spacingAndGlyphs" textLength="113">TEXT_CURSOR: Cursor</text><ellipse cx="19" cy="141.203" fill="none" rx="3" ry="3" style="stroke:#038048;stroke-width:1"/><text x="28" y="145.622" fill="#000" font-family="sans-serif" font-size="11" lengthAdjust="spacingAndGlyphs" textLength="114">WAIT_CURSOR: Cursor</text><ellipse cx="19" cy="155.039" fill="none" rx="3" ry="3" style="stroke:#038048;stroke-width:1"/><text x="28" y="159.458" fill="#000" font-family="sans-serif" font-size="11" lengthAdjust="spacingAndGlyphs" textLength="146">SW_RESIZE_CURSOR: Cursor</text><ellipse cx="19" cy="168.875" fill="none" rx="3" ry="3" style="stroke:#038048;stroke-width:1"/><text x="28" y="173.294" fill="#000" font-family="sans-serif" font-size="11" lengthAdjust="spacingAndGlyphs" textLength="142">SE_RESIZE_CURSOR: Cursor</text><ellipse cx="19" cy="182.711" fill="none" rx="3" ry="3" style="stroke:#038048;stroke-width:1"/><text x="28" y="187.13" fill="#000" font-family="sans-serif" font-size="11" lengthAdjust="spacingAndGlyphs" textLength="146">NW_RESIZE_CURSOR: Cursor</text><ellipse cx="19" cy="196.547" fill="none" rx="3" ry="3" style="stroke:#038048;stroke-width:1"/><text x="28" y="200.966" fill="#000" font-family="sans-serif" font-size="11" lengthAdjust="spacingAndGlyphs" textLength="142">NE_RESIZE_CURSOR: Cursor</text><ellipse cx="19" cy="210.383" fill="none" rx="3" ry="3" style="stroke:#038048;stroke-width:1"/><text x="28" y="214.802" fill="#000" font-family="sans-serif" font-size="11" lengthAdjust="spacingAndGlyphs" textLength="136">N_RESIZE_CURSOR: Cursor</text><ellipse cx="19" cy="224.219" fill="none" rx="3" ry="3" style="stroke:#038048;stroke-width:1"/><text x="28" y="228.638" fill="#000" font-family="sans-serif" font-size="11" lengthAdjust="spacingAndGlyphs" textLength="136">S_RESIZE_CURSOR: Cursor</text><ellipse cx="19" cy="238.055" fill="none" rx="3" ry="3" style="stroke:#038048;stroke-width:1"/><text x="28" y="242.474" fill="#000" font-family="sans-serif" font-size="11" lengthAdjust="spacingAndGlyphs" textLength="139">W_RESIZE_CURSOR: Cursor</text><ellipse cx="19" cy="251.891" fill="none" rx="3" ry="3" style="stroke:#038048;stroke-width:1"/><text x="28" y="256.31" fill="#000" font-family="sans-serif" font-size="11" lengthAdjust="spacingAndGlyphs" textLength="135">E_RESIZE_CURSOR: Cursor</text><ellipse cx="19" cy="265.727" fill="none" rx="3" ry="3" style="stroke:#038048;stroke-width:1"/><text x="28" y="270.146" fill="#000" font-family="sans-serif" font-size="11" lengthAdjust="spacingAndGlyphs" textLength="117">HAND_CURSOR: Cursor</text><ellipse cx="19" cy="279.563" fill="none" rx="3" ry="3" style="stroke:#038048;stroke-width:1"/><text x="28" y="283.981" fill="#000" font-family="sans-serif" font-size="11" lengthAdjust="spacingAndGlyphs" textLength="118">MOVE_CURSOR: Cursor</text><ellipse cx="19" cy="293.398" fill="none" rx="3" ry="3" style="stroke:#038048;stroke-width:1"/><text x="28" y="297.817" fill="#000" font-family="sans-serif" font-size="11" lengthAdjust="spacingAndGlyphs" textLength="58">ICON: Image</text></a><text x="0" y="321.615" fill="#888" font-family="sans-serif" font-size="10" lengthAdjust="spacingAndGlyphs" textLength="190">UMLDoclet 2.0.12, PlantUML 1.2020.16</text></g></svg>