<svg xmlns="http://www.w3.org/2000/svg" xmlns:xlink="http://www.w3.org/1999/xlink" width="271" height="273" contentScriptType="application/ecmascript" contentStyleType="text/css" style="width:271px;height:273px" preserveAspectRatio="none" version="1.1" viewBox="0 0 271 273" zoomAndPan="magnify"><defs><filter id="f1f2gh64k067ud" width="300%" height="300%" x="-1" y="-1"><feGaussianBlur result="blurOut" stdDeviation="2"/><feColorMatrix in="blurOut" result="blurOut2" type="matrix" values="0 0 0 0 0 0 0 0 0 0 0 0 0 0 0 0 0 0 .4 0"/><feOffset dx="4" dy="4" in="blurOut2" result="blurOut3"/><feBlend in="SourceGraphic" in2="blurOut3" mode="normal"/></filter></defs><g><a href="DoaClient.html" target="_top" title="DoaClient.html" xlink:actuate="onRequest" xlink:href="DoaClient.html" xlink:show="new" xlink:title="DoaClient.html" xlink:type="simple"><rect id="doa.engine.net.DoaClient" width="245" height="236.055" x="7" y="7" fill="#FEFECE" codeLine="5" filter="url(#f1f2gh64k067ud)" style="stroke:#a80036;stroke-width:1.5"/><ellipse cx="89.25" cy="27.094" fill="#ADD1B2" rx="11" ry="11" style="stroke:#a80036;stroke-width:1"/><path d="M92.0156,22.9688 Q92.1719,22.75 92.3594,22.6406 Q92.5469,22.5313 92.7656,22.5313 Q93.1406,22.5313 93.375,22.7969 Q93.6094,23.0469 93.6094,23.6563 L93.6094,25.1094 Q93.6094,25.7188 93.375,25.9844 Q93.1406,26.25 92.7656,26.25 Q92.4219,26.25 92.2188,26.0469 Q92.0156,25.8594 91.9063,25.3438 Q91.8594,24.9844 91.6719,24.7969 Q91.3438,24.4219 90.7344,24.2031 Q90.125,23.9844 89.5,23.9844 Q88.7344,23.9844 88.0938,24.3125 Q87.4688,24.6406 86.9688,25.3906 Q86.4844,26.1406 86.4844,27.1719 L86.4844,28.2656 Q86.4844,29.5 87.375,30.3281 Q88.2656,31.1406 89.8594,31.1406 Q90.7969,31.1406 91.4531,30.8906 Q91.8438,30.7344 92.2656,30.2969 Q92.5313,30.0313 92.6719,29.9531 Q92.8281,29.875 93.0313,29.875 Q93.3594,29.875 93.6094,30.1406 Q93.875,30.3906 93.875,30.7344 Q93.875,31.0781 93.5313,31.4844 Q93.0313,32.0625 92.2344,32.3906 Q91.1563,32.8438 89.8594,32.8438 Q88.3438,32.8438 87.1406,32.2188 Q86.1563,31.7188 85.4688,30.6563 Q84.7813,29.5781 84.7813,28.2969 L84.7813,27.1406 Q84.7813,25.8125 85.3906,24.6719 Q86.0156,23.5156 87.1094,22.9063 Q88.2031,22.2813 89.4375,22.2813 Q90.1719,22.2813 90.8125,22.4531 Q91.4688,22.6094 92.0156,22.9688 Z"/><text x="114.75" y="26.533" fill="#000" font-family="sans-serif" font-size="14" lengthAdjust="spacingAndGlyphs" textLength="62">DoaClient</text><text x="109.75" y="39.99" fill="#000" font-family="sans-serif" font-size="10" lengthAdjust="spacingAndGlyphs" textLength="72">doa.engine.net</text><line style="stroke:#a80036;stroke-width:1.5" x1="8" x2="251" y1="47.188" y2="47.188"/><polygon fill="none" points="18 53.188 22 57.188 18 61.188 14 57.188" style="stroke:#b38d22;stroke-width:1"/><text x="27" y="62.606" fill="#000" font-family="sans-serif" font-size="11" lengthAdjust="spacingAndGlyphs" textLength="71">socket: Socket</text><polygon fill="none" points="18 67.023 22 71.023 18 75.023 14 71.023" style="stroke:#b38d22;stroke-width:1"/><text x="27" y="76.442" fill="#000" font-family="sans-serif" font-size="11" lengthAdjust="spacingAndGlyphs" textLength="117">input: ObjectInputStream</text><polygon fill="none" points="18 80.859 22 84.859 18 88.859 14 84.859" style="stroke:#b38d22;stroke-width:1"/><text x="27" y="90.278" fill="#000" font-family="sans-serif" font-size="11" lengthAdjust="spacingAndGlyphs" textLength="133">output: ObjectOutputStream</text><polygon fill="none" points="18 94.695 22 98.695 18 102.695 14 98.695" style="stroke:#b38d22;stroke-width:1"/><text x="27" y="104.114" fill="#000" font-family="sans-serif" font-size="11" lengthAdjust="spacingAndGlyphs" textLength="25">id: int</text><polygon fill="none" points="18 108.531 22 112.531 18 116.531 14 112.531" style="stroke:#b38d22;stroke-width:1"/><text x="27" y="117.95" fill="#000" font-family="sans-serif" font-size="11" lengthAdjust="spacingAndGlyphs" textLength="190">q: Queue&lt;DoaNetPacket&lt;Serializable&gt;&gt;</text><line style="stroke:#a80036;stroke-width:1.5" x1="8" x2="251" y1="124.367" y2="124.367"/><ellipse cx="18" cy="135.367" fill="#84BE84" rx="3" ry="3" style="stroke:#038048;stroke-width:1"/><text x="27" y="139.786" fill="#000" font-family="sans-serif" font-size="11" lengthAdjust="spacingAndGlyphs" textLength="118">connect(String, int): void</text><ellipse cx="18" cy="149.203" fill="#84BE84" rx="3" ry="3" style="stroke:#038048;stroke-width:1"/><text x="27" y="153.622" fill="#000" font-family="sans-serif" font-size="11" lengthAdjust="spacingAndGlyphs" textLength="192">send(DoaNetPacket&lt;Serializable&gt;): void</text><ellipse cx="18" cy="163.039" fill="#84BE84" rx="3" ry="3" style="stroke:#038048;stroke-width:1"/><text x="27" y="167.458" fill="#000" font-family="sans-serif" font-size="11" lengthAdjust="spacingAndGlyphs" textLength="87">disconnect(): void</text><ellipse cx="18" cy="176.875" fill="#84BE84" rx="3" ry="3" style="stroke:#038048;stroke-width:1"/><text x="27" y="181.294" fill="#000" font-family="sans-serif" font-size="11" lengthAdjust="spacingAndGlyphs" textLength="112">isConnected(): boolean</text><ellipse cx="18" cy="190.711" fill="#84BE84" rx="3" ry="3" style="stroke:#038048;stroke-width:1"/><text x="27" y="195.13" fill="#000" font-family="sans-serif" font-size="11" lengthAdjust="spacingAndGlyphs" textLength="49">getID(): int</text><polygon fill="#FF4" points="18 199.547 22 203.547 18 207.547 14 203.547" style="stroke:#b38d22;stroke-width:1"/><text x="27" y="208.966" fill="#000" font-family="sans-serif" font-size="11" lengthAdjust="spacingAndGlyphs" textLength="86">onConnect(): void</text><polygon fill="#FF4" points="18 213.383 22 217.383 18 221.383 14 217.383" style="stroke:#b38d22;stroke-width:1"/><text x="27" y="222.802" fill="#000" font-family="sans-serif" font-size="11" lengthAdjust="spacingAndGlyphs" textLength="219">onReceive(DoaNetPacket&lt;Serializable&gt;): void</text><polygon fill="#FF4" points="18 227.219 22 231.219 18 235.219 14 231.219" style="stroke:#b38d22;stroke-width:1"/><text x="27" y="236.638" fill="#000" font-family="sans-serif" font-size="11" lengthAdjust="spacingAndGlyphs" textLength="100">onDisconnect(): void</text></a><text x="34.5" y="260.435" fill="#888" font-family="sans-serif" font-size="10" lengthAdjust="spacingAndGlyphs" textLength="190">UMLDoclet 2.0.12, PlantUML 1.2020.16</text></g></svg>