<?xml version="1.0" encoding="UTF-8" standalone="no"?><svg xmlns="http://www.w3.org/2000/svg" xmlns:xlink="http://www.w3.org/1999/xlink" contentScriptType="application/ecmascript" contentStyleType="text/css" height="273px" preserveAspectRatio="none" style="width:271px;height:273px;" version="1.1" viewBox="0 0 271 273" width="271px" zoomAndPan="magnify"><defs><filter height="300%" id="f1f2gh64k067ud" width="300%" x="-1" y="-1"><feGaussianBlur result="blurOut" stdDeviation="2.0"/><feColorMatrix in="blurOut" result="blurOut2" type="matrix" values="0 0 0 0 0 0 0 0 0 0 0 0 0 0 0 0 0 0 .4 0"/><feOffset dx="4.0" dy="4.0" in="blurOut2" result="blurOut3"/><feBlend in="SourceGraphic" in2="blurOut3" mode="normal"/></filter></defs><g><!--MD5=[7e2639237111573c9023c569a8791f26]
class doa.engine.net.DoaClient--><a href="DoaClient.html" target="_top" title="DoaClient.html" xlink:actuate="onRequest" xlink:href="DoaClient.html" xlink:show="new" xlink:title="DoaClient.html" xlink:type="simple"><rect codeLine="5" fill="#FEFECE" filter="url(#f1f2gh64k067ud)" height="236.0547" id="doa.engine.net.DoaClient" style="stroke: #A80036; stroke-width: 1.5;" width="245" x="7" y="7"/><ellipse cx="89.25" cy="27.0938" fill="#ADD1B2" rx="11" ry="11" style="stroke: #A80036; stroke-width: 1.0;"/><path d="M92.0156,22.9688 Q92.1719,22.75 92.3594,22.6406 Q92.5469,22.5313 92.7656,22.5313 Q93.1406,22.5313 93.375,22.7969 Q93.6094,23.0469 93.6094,23.6563 L93.6094,25.1094 Q93.6094,25.7188 93.375,25.9844 Q93.1406,26.25 92.7656,26.25 Q92.4219,26.25 92.2188,26.0469 Q92.0156,25.8594 91.9063,25.3438 Q91.8594,24.9844 91.6719,24.7969 Q91.3438,24.4219 90.7344,24.2031 Q90.125,23.9844 89.5,23.9844 Q88.7344,23.9844 88.0938,24.3125 Q87.4688,24.6406 86.9688,25.3906 Q86.4844,26.1406 86.4844,27.1719 L86.4844,28.2656 Q86.4844,29.5 87.375,30.3281 Q88.2656,31.1406 89.8594,31.1406 Q90.7969,31.1406 91.4531,30.8906 Q91.8438,30.7344 92.2656,30.2969 Q92.5313,30.0313 92.6719,29.9531 Q92.8281,29.875 93.0313,29.875 Q93.3594,29.875 93.6094,30.1406 Q93.875,30.3906 93.875,30.7344 Q93.875,31.0781 93.5313,31.4844 Q93.0313,32.0625 92.2344,32.3906 Q91.1563,32.8438 89.8594,32.8438 Q88.3438,32.8438 87.1406,32.2188 Q86.1563,31.7188 85.4688,30.6563 Q84.7813,29.5781 84.7813,28.2969 L84.7813,27.1406 Q84.7813,25.8125 85.3906,24.6719 Q86.0156,23.5156 87.1094,22.9063 Q88.2031,22.2813 89.4375,22.2813 Q90.1719,22.2813 90.8125,22.4531 Q91.4688,22.6094 92.0156,22.9688 Z "/><text fill="#000000" font-family="sans-serif" font-size="14" lengthAdjust="spacingAndGlyphs" textLength="62" x="114.75" y="26.5332">DoaClient</text><text fill="#000000" font-family="sans-serif" font-size="10" lengthAdjust="spacingAndGlyphs" textLength="72" x="109.75" y="39.9902">doa.engine.net</text><line style="stroke: #A80036; stroke-width: 1.5;" x1="8" x2="251" y1="47.1875" y2="47.1875"/><polygon fill="none" points="18,53.1875,22,57.1875,18,61.1875,14,57.1875" style="stroke: #B38D22; stroke-width: 1.0;"/><text fill="#000000" font-family="sans-serif" font-size="11" lengthAdjust="spacingAndGlyphs" textLength="71" x="27" y="62.6064">socket: Socket</text><polygon fill="none" points="18,67.0234,22,71.0234,18,75.0234,14,71.0234" style="stroke: #B38D22; stroke-width: 1.0;"/><text fill="#000000" font-family="sans-serif" font-size="11" lengthAdjust="spacingAndGlyphs" textLength="117" x="27" y="76.4424">input: ObjectInputStream</text><polygon fill="none" points="18,80.8594,22,84.8594,18,88.8594,14,84.8594" style="stroke: #B38D22; stroke-width: 1.0;"/><text fill="#000000" font-family="sans-serif" font-size="11" lengthAdjust="spacingAndGlyphs" textLength="133" x="27" y="90.2783">output: ObjectOutputStream</text><polygon fill="none" points="18,94.6953,22,98.6953,18,102.6953,14,98.6953" style="stroke: #B38D22; stroke-width: 1.0;"/><text fill="#000000" font-family="sans-serif" font-size="11" lengthAdjust="spacingAndGlyphs" textLength="25" x="27" y="104.1143">id: int</text><polygon fill="none" points="18,108.5313,22,112.5313,18,116.5313,14,112.5313" style="stroke: #B38D22; stroke-width: 1.0;"/><text fill="#000000" font-family="sans-serif" font-size="11" lengthAdjust="spacingAndGlyphs" textLength="190" x="27" y="117.9502">q: Queue&lt;DoaNetPacket&lt;Serializable&gt;&gt;</text><line style="stroke: #A80036; stroke-width: 1.5;" x1="8" x2="251" y1="124.3672" y2="124.3672"/><ellipse cx="18" cy="135.3672" fill="#84BE84" rx="3" ry="3" style="stroke: #038048; stroke-width: 1.0;"/><text fill="#000000" font-family="sans-serif" font-size="11" lengthAdjust="spacingAndGlyphs" textLength="118" x="27" y="139.7861">connect(String, int): void</text><ellipse cx="18" cy="149.2031" fill="#84BE84" rx="3" ry="3" style="stroke: #038048; stroke-width: 1.0;"/><text fill="#000000" font-family="sans-serif" font-size="11" lengthAdjust="spacingAndGlyphs" textLength="192" x="27" y="153.6221">send(DoaNetPacket&lt;Serializable&gt;): void</text><ellipse cx="18" cy="163.0391" fill="#84BE84" rx="3" ry="3" style="stroke: #038048; stroke-width: 1.0;"/><text fill="#000000" font-family="sans-serif" font-size="11" lengthAdjust="spacingAndGlyphs" textLength="87" x="27" y="167.458">disconnect(): void</text><ellipse cx="18" cy="176.875" fill="#84BE84" rx="3" ry="3" style="stroke: #038048; stroke-width: 1.0;"/><text fill="#000000" font-family="sans-serif" font-size="11" lengthAdjust="spacingAndGlyphs" textLength="112" x="27" y="181.2939">isConnected(): boolean</text><ellipse cx="18" cy="190.7109" fill="#84BE84" rx="3" ry="3" style="stroke: #038048; stroke-width: 1.0;"/><text fill="#000000" font-family="sans-serif" font-size="11" lengthAdjust="spacingAndGlyphs" textLength="49" x="27" y="195.1299">getID(): int</text><polygon fill="#FFFF44" points="18,199.5469,22,203.5469,18,207.5469,14,203.5469" style="stroke: #B38D22; stroke-width: 1.0;"/><text fill="#000000" font-family="sans-serif" font-size="11" lengthAdjust="spacingAndGlyphs" textLength="86" x="27" y="208.9658">onConnect(): void</text><polygon fill="#FFFF44" points="18,213.3828,22,217.3828,18,221.3828,14,217.3828" style="stroke: #B38D22; stroke-width: 1.0;"/><text fill="#000000" font-family="sans-serif" font-size="11" lengthAdjust="spacingAndGlyphs" textLength="219" x="27" y="222.8018">onReceive(DoaNetPacket&lt;Serializable&gt;): void</text><polygon fill="#FFFF44" points="18,227.2188,22,231.2188,18,235.2188,14,231.2188" style="stroke: #B38D22; stroke-width: 1.0;"/><text fill="#000000" font-family="sans-serif" font-size="11" lengthAdjust="spacingAndGlyphs" textLength="100" x="27" y="236.6377">onDisconnect(): void</text></a><text fill="#888888" font-family="sans-serif" font-size="10" lengthAdjust="spacingAndGlyphs" textLength="190" x="34.5" y="260.4355">UMLDoclet 2.0.12, PlantUML 1.2020.16</text><!--MD5=[1aebfff550e029bfbe424e6963b6942a]
@startuml
    set namespaceSeparator none
    hide empty fields
    hide empty methods

    class "<size:14>DoaClient\n<size:10>doa.engine.net" as doa.engine.net.DoaClient [[DoaClient.html]] {
        #socket: Socket
        #input: ObjectInputStream
        #output: ObjectOutputStream
        #id: int
        #q: Queue<DoaNetPacket<Serializable>>
        +connect(String, int): void
        +send(DoaNetPacket<Serializable>): void
        +disconnect(): void
        +isConnected(): boolean
        +getID(): int
        #onConnect(): void
        #onReceive(DoaNetPacket<Serializable>): void
        #onDisconnect(): void
    }

    center footer UMLDoclet 2.0.12, PlantUML 1.2020.16
@enduml

PlantUML version 1.2020.16(Sun Aug 23 23:20:43 TRT 2020)
(APACHE source distribution)
Java Runtime: OpenJDK Runtime Environment
JVM: OpenJDK 64-Bit Server VM
Default Encoding: Cp1252
Language: en
Country: GB
--></g></svg>