<svg xmlns="http://www.w3.org/2000/svg" xmlns:xlink="http://www.w3.org/1999/xlink" width="275" height="219" contentScriptType="application/ecmascript" contentStyleType="text/css" style="width:275px;height:219px" preserveAspectRatio="none" version="1.1" viewBox="0 0 275 219" zoomAndPan="magnify"><defs><filter id="f1ljiqzpwt5ppr" width="300%" height="300%" x="-1" y="-1"><feGaussianBlur result="blurOut" stdDeviation="2"/><feColorMatrix in="blurOut" result="blurOut2" type="matrix" values="0 0 0 0 0 0 0 0 0 0 0 0 0 0 0 0 0 0 .4 0"/><feOffset dx="4" dy="4" in="blurOut2" result="blurOut3"/><feBlend in="SourceGraphic" in2="blurOut3" mode="normal"/></filter></defs><g><a href="DoaNetPacket.html" target="_top" title="DoaNetPacket.html" xlink:actuate="onRequest" xlink:href="DoaNetPacket.html" xlink:show="new" xlink:title="DoaNetPacket.html" xlink:type="simple"><rect id="doa.engine.net.DoaNetPacket" width="249" height="75.859" x="7" y="107" fill="#FEFECE" codeLine="5" filter="url(#f1ljiqzpwt5ppr)" style="stroke:#a80036;stroke-width:1.5"/><ellipse cx="22" cy="127.094" fill="#ADD1B2" rx="11" ry="11" style="stroke:#a80036;stroke-width:1"/><path d="M24.7656,122.9688 Q24.9219,122.75 25.1094,122.6406 Q25.2969,122.5313 25.5156,122.5313 Q25.8906,122.5313 26.125,122.7969 Q26.3594,123.0469 26.3594,123.6563 L26.3594,125.1094 Q26.3594,125.7188 26.125,125.9844 Q25.8906,126.25 25.5156,126.25 Q25.1719,126.25 24.9688,126.0469 Q24.7656,125.8594 24.6563,125.3438 Q24.6094,124.9844 24.4219,124.7969 Q24.0938,124.4219 23.4844,124.2031 Q22.875,123.9844 22.25,123.9844 Q21.4844,123.9844 20.8438,124.3125 Q20.2188,124.6406 19.7188,125.3906 Q19.2344,126.1406 19.2344,127.1719 L19.2344,128.2656 Q19.2344,129.5 20.125,130.3281 Q21.0156,131.1406 22.6094,131.1406 Q23.5469,131.1406 24.2031,130.8906 Q24.5938,130.7344 25.0156,130.2969 Q25.2813,130.0313 25.4219,129.9531 Q25.5781,129.875 25.7813,129.875 Q26.1094,129.875 26.3594,130.1406 Q26.625,130.3906 26.625,130.7344 Q26.625,131.0781 26.2813,131.4844 Q25.7813,132.0625 24.9844,132.3906 Q23.9063,132.8438 22.6094,132.8438 Q21.0938,132.8438 19.8906,132.2188 Q18.9063,131.7188 18.2188,130.6563 Q17.5313,129.5781 17.5313,128.2969 L17.5313,127.1406 Q17.5313,125.8125 18.1406,124.6719 Q18.7656,123.5156 19.8594,122.9063 Q20.9531,122.2813 22.1875,122.2813 Q22.9219,122.2813 23.5625,122.4531 Q24.2188,122.6094 24.7656,122.9688 Z"/><text x="36" y="126.533" fill="#000" font-family="sans-serif" font-size="14" lengthAdjust="spacingAndGlyphs" textLength="90">DoaNetPacket</text><text x="45" y="139.99" fill="#000" font-family="sans-serif" font-size="10" lengthAdjust="spacingAndGlyphs" textLength="72">doa.engine.net</text><rect style="stroke:#000;stroke-width:1;stroke-dasharray:2,2" width="125" height="17.094" x="134" y="104" fill="#FFF"/><text x="135" y="117.457" fill="#000" font-family="sans-serif" font-size="12" font-style="italic" lengthAdjust="spacingAndGlyphs" textLength="123">T extends Serializable</text><line style="stroke:#a80036;stroke-width:1.5" x1="8" x2="255" y1="147.188" y2="147.188"/><ellipse cx="18" cy="158.188" fill="#84BE84" rx="3" ry="3" style="stroke:#038048;stroke-width:1"/><text x="27" y="162.606" fill="#000" font-family="sans-serif" font-size="11" lengthAdjust="spacingAndGlyphs" textLength="181">DoaNetPacket(T extends Serializable)</text><ellipse cx="18" cy="172.023" fill="#84BE84" rx="3" ry="3" style="stroke:#038048;stroke-width:1"/><text x="27" y="176.442" fill="#000" font-family="sans-serif" font-size="11" lengthAdjust="spacingAndGlyphs" textLength="157">getData(): T extends Serializable</text></a><rect id="java.io.Serializable" width="105" height="40.188" x="79" y="7" fill="#FEFECE" codeLine="10" filter="url(#f1ljiqzpwt5ppr)" style="stroke:#a80036;stroke-width:1.5"/><ellipse cx="94" cy="27.094" fill="#B4A7E5" rx="11" ry="11" style="stroke:#a80036;stroke-width:1"/><path d="M94.9531,23.7344 L94.9531,30.3906 L96.6719,30.3906 Q97.2813,30.3906 97.5469,30.625 Q97.8125,30.8594 97.8125,31.25 Q97.8125,31.625 97.5469,31.8594 Q97.2813,32.0938 96.6719,32.0938 L91.5313,32.0938 Q90.9219,32.0938 90.6563,31.8594 Q90.3906,31.625 90.3906,31.2344 Q90.3906,30.8594 90.6563,30.625 Q90.9219,30.3906 91.5313,30.3906 L93.25,30.3906 L93.25,23.7344 L91.5313,23.7344 Q90.9219,23.7344 90.6563,23.5 Q90.3906,23.2656 90.3906,22.875 Q90.3906,22.5 90.6563,22.2656 Q90.9219,22.0313 91.5313,22.0313 L96.6719,22.0313 Q97.2813,22.0313 97.5469,22.2656 Q97.8125,22.5 97.8125,22.875 Q97.8125,23.2656 97.5469,23.5 Q97.2813,23.7344 96.6719,23.7344 L94.9531,23.7344 Z"/><text x="108" y="26.533" fill="#000" font-family="sans-serif" font-size="14" font-style="italic" lengthAdjust="spacingAndGlyphs" textLength="73">Serializable</text><text x="129" y="39.99" fill="#000" font-family="sans-serif" font-size="10" font-style="italic" lengthAdjust="spacingAndGlyphs" textLength="31">java.io</text><path id="java.io.Serializable-backto-doa.engine.net.DoaNetPacket" fill="none" d="M131.5,67.49 C131.5,80.27 131.5,94.39 131.5,106.99" codeLine="12" style="stroke:#a80036;stroke-width:1;stroke-dasharray:7,7"/><polygon fill="none" points="124.5 67.16 131.5 47.16 138.5 67.16 124.5 67.16" style="stroke:#a80036;stroke-width:1"/><text x="33.5" y="206.24" fill="#888" font-family="sans-serif" font-size="10" lengthAdjust="spacingAndGlyphs" textLength="190">UMLDoclet 2.0.12, PlantUML 1.2020.16</text></g></svg>