<svg xmlns="http://www.w3.org/2000/svg" xmlns:xlink="http://www.w3.org/1999/xlink" width="286" height="127" contentScriptType="application/ecmascript" contentStyleType="text/css" style="width:286px;height:127px" preserveAspectRatio="none" version="1.1" viewBox="0 0 286 127" zoomAndPan="magnify"><defs><filter id="ffnpq2oj1ssm5" width="300%" height="300%" x="-1" y="-1"><feGaussianBlur result="blurOut" stdDeviation="2"/><feColorMatrix in="blurOut" result="blurOut2" type="matrix" values="0 0 0 0 0 0 0 0 0 0 0 0 0 0 0 0 0 0 .4 0"/><feOffset dx="4" dy="4" in="blurOut2" result="blurOut3"/><feBlend in="SourceGraphic" in2="blurOut3" mode="normal"/></filter></defs><g><a href="DoaServer.html" target="_top" title="DoaServer.html" xlink:actuate="onRequest" xlink:href="DoaServer.html" xlink:show="new" xlink:title="DoaServer.html" xlink:type="simple"><rect id="doa.engine.net.DoaServer" width="260" height="89.695" x="7" y="7" fill="#FEFECE" codeLine="5" filter="url(#ffnpq2oj1ssm5)" style="stroke:#a80036;stroke-width:1.5"/><ellipse cx="96.75" cy="27.094" fill="#ADD1B2" rx="11" ry="11" style="stroke:#a80036;stroke-width:1"/><path d="M99.5156,22.9688 Q99.6719,22.75 99.8594,22.6406 Q100.0469,22.5313 100.2656,22.5313 Q100.6406,22.5313 100.875,22.7969 Q101.1094,23.0469 101.1094,23.6563 L101.1094,25.1094 Q101.1094,25.7188 100.875,25.9844 Q100.6406,26.25 100.2656,26.25 Q99.9219,26.25 99.7188,26.0469 Q99.5156,25.8594 99.4063,25.3438 Q99.3594,24.9844 99.1719,24.7969 Q98.8438,24.4219 98.2344,24.2031 Q97.625,23.9844 97,23.9844 Q96.2344,23.9844 95.5938,24.3125 Q94.9688,24.6406 94.4688,25.3906 Q93.9844,26.1406 93.9844,27.1719 L93.9844,28.2656 Q93.9844,29.5 94.875,30.3281 Q95.7656,31.1406 97.3594,31.1406 Q98.2969,31.1406 98.9531,30.8906 Q99.3438,30.7344 99.7656,30.2969 Q100.0313,30.0313 100.1719,29.9531 Q100.3281,29.875 100.5313,29.875 Q100.8594,29.875 101.1094,30.1406 Q101.375,30.3906 101.375,30.7344 Q101.375,31.0781 101.0313,31.4844 Q100.5313,32.0625 99.7344,32.3906 Q98.6563,32.8438 97.3594,32.8438 Q95.8438,32.8438 94.6406,32.2188 Q93.6563,31.7188 92.9688,30.6563 Q92.2813,29.5781 92.2813,28.2969 L92.2813,27.1406 Q92.2813,25.8125 92.8906,24.6719 Q93.5156,23.5156 94.6094,22.9063 Q95.7031,22.2813 96.9375,22.2813 Q97.6719,22.2813 98.3125,22.4531 Q98.9688,22.6094 99.5156,22.9688 Z"/><text x="119.25" y="26.533" fill="#000" font-family="sans-serif" font-size="14" lengthAdjust="spacingAndGlyphs" textLength="68">DoaServer</text><text x="117.25" y="39.99" fill="#000" font-family="sans-serif" font-size="10" lengthAdjust="spacingAndGlyphs" textLength="72">doa.engine.net</text><line style="stroke:#a80036;stroke-width:1.5" x1="8" x2="266" y1="47.188" y2="47.188"/><ellipse cx="18" cy="58.188" fill="#84BE84" rx="3" ry="3" style="stroke:#038048;stroke-width:1"/><text x="27" y="62.606" fill="#000" font-family="sans-serif" font-size="11" lengthAdjust="spacingAndGlyphs" textLength="60">open(int): int</text><ellipse cx="18" cy="72.023" fill="#84BE84" rx="3" ry="3" style="stroke:#038048;stroke-width:1"/><text x="27" y="76.442" fill="#000" font-family="sans-serif" font-size="11" lengthAdjust="spacingAndGlyphs" textLength="60">close(): void</text><ellipse cx="18" cy="85.859" fill="#84BE84" rx="3" ry="3" style="stroke:#038048;stroke-width:1"/><text x="27" y="90.278" fill="#000" font-family="sans-serif" font-size="11" lengthAdjust="spacingAndGlyphs" textLength="234">broadcast(int, DoaNetPacket&lt;Serializable&gt;): void</text></a><text x="42" y="114.076" fill="#888" font-family="sans-serif" font-size="10" lengthAdjust="spacingAndGlyphs" textLength="190">UMLDoclet 2.0.12, PlantUML 1.2020.16</text></g></svg>