<svg xmlns="http://www.w3.org/2000/svg" xmlns:xlink="http://www.w3.org/1999/xlink" width="767" height="455" contentScriptType="application/ecmascript" contentStyleType="text/css" style="width:767px;height:455px" preserveAspectRatio="none" version="1.1" viewBox="0 0 767 455" zoomAndPan="magnify"><defs><filter id="f1mzklxk4ts945" width="300%" height="300%" x="-1" y="-1"><feGaussianBlur result="blurOut" stdDeviation="2"/><feColorMatrix in="blurOut" result="blurOut2" type="matrix" values="0 0 0 0 0 0 0 0 0 0 0 0 0 0 0 0 0 0 .4 0"/><feOffset dx="4" dy="4" in="blurOut2" result="blurOut3"/><feBlend in="SourceGraphic" in2="blurOut3" mode="normal"/></filter></defs><g><polygon fill="#FFF" points="16 6 128 6 135 29.609 589 29.609 589 426 16 426 16 6" filter="url(#f1mzklxk4ts945)" style="stroke:#000;stroke-width:1.5"/><line style="stroke:#000;stroke-width:1.5" x1="16" x2="135" y1="29.609" y2="29.609"/><text x="20" y="22.533" fill="#000" font-family="sans-serif" font-size="14" font-weight="bold" lengthAdjust="spacingAndGlyphs" textLength="106">doa.engine.net</text><polygon fill="#FFF" points="613 89 665 89 672 112.609 745 112.609 745 189 613 189 613 89" filter="url(#f1mzklxk4ts945)" style="stroke:#000;stroke-width:1.5"/><line style="stroke:#000;stroke-width:1.5" x1="613" x2="672" y1="112.609" y2="112.609"/><text x="617" y="105.533" fill="#000" font-family="sans-serif" font-size="14" font-weight="bold" lengthAdjust="spacingAndGlyphs" textLength="46">java.io</text><a href="DoaClient.html" target="_top" title="DoaClient.html" xlink:actuate="onRequest" xlink:href="DoaClient.html" xlink:show="new" xlink:title="DoaClient.html" xlink:type="simple"><rect id="doa.engine.net.DoaClient" width="245" height="214.031" x="327.5" y="42" fill="#FEFECE" codeLine="3" filter="url(#f1mzklxk4ts945)" style="stroke:#a80036;stroke-width:1.5"/><ellipse cx="418.25" cy="58" fill="#ADD1B2" rx="11" ry="11" style="stroke:#a80036;stroke-width:1"/><path d="M421.0156,53.875 Q421.1719,53.6563 421.3594,53.5469 Q421.5469,53.4375 421.7656,53.4375 Q422.1406,53.4375 422.375,53.7031 Q422.6094,53.9531 422.6094,54.5625 L422.6094,56.0156 Q422.6094,56.625 422.375,56.8906 Q422.1406,57.1563 421.7656,57.1563 Q421.4219,57.1563 421.2188,56.9531 Q421.0156,56.7656 420.9063,56.25 Q420.8594,55.8906 420.6719,55.7031 Q420.3438,55.3281 419.7344,55.1094 Q419.125,54.8906 418.5,54.8906 Q417.7344,54.8906 417.0938,55.2188 Q416.4688,55.5469 415.9688,56.2969 Q415.4844,57.0469 415.4844,58.0781 L415.4844,59.1719 Q415.4844,60.4063 416.375,61.2344 Q417.2656,62.0469 418.8594,62.0469 Q419.7969,62.0469 420.4531,61.7969 Q420.8438,61.6406 421.2656,61.2031 Q421.5313,60.9375 421.6719,60.8594 Q421.8281,60.7813 422.0313,60.7813 Q422.3594,60.7813 422.6094,61.0469 Q422.875,61.2969 422.875,61.6406 Q422.875,61.9844 422.5313,62.3906 Q422.0313,62.9688 421.2344,63.2969 Q420.1563,63.75 418.8594,63.75 Q417.3438,63.75 416.1406,63.125 Q415.1563,62.625 414.4688,61.5625 Q413.7813,60.4844 413.7813,59.2031 L413.7813,58.0469 Q413.7813,56.7188 414.3906,55.5781 Q415.0156,54.4219 416.1094,53.8125 Q417.2031,53.1875 418.4375,53.1875 Q419.1719,53.1875 419.8125,53.3594 Q420.4688,53.5156 421.0156,53.875 Z"/><text x="438.75" y="62.91" fill="#000" font-family="sans-serif" font-size="12" lengthAdjust="spacingAndGlyphs" textLength="55">DoaClient</text><line style="stroke:#a80036;stroke-width:1.5" x1="328.5" x2="571.5" y1="74" y2="74"/><polygon fill="none" points="338.5 80 342.5 84 338.5 88 334.5 84" style="stroke:#b38d22;stroke-width:1"/><text x="347.5" y="89.419" fill="#000" font-family="sans-serif" font-size="11" lengthAdjust="spacingAndGlyphs" textLength="71">socket: Socket</text><polygon fill="none" points="338.5 93.836 342.5 97.836 338.5 101.836 334.5 97.836" style="stroke:#b38d22;stroke-width:1"/><text x="347.5" y="103.255" fill="#000" font-family="sans-serif" font-size="11" lengthAdjust="spacingAndGlyphs" textLength="117">input: ObjectInputStream</text><polygon fill="none" points="338.5 107.672 342.5 111.672 338.5 115.672 334.5 111.672" style="stroke:#b38d22;stroke-width:1"/><text x="347.5" y="117.091" fill="#000" font-family="sans-serif" font-size="11" lengthAdjust="spacingAndGlyphs" textLength="133">output: ObjectOutputStream</text><polygon fill="none" points="338.5 121.508 342.5 125.508 338.5 129.508 334.5 125.508" style="stroke:#b38d22;stroke-width:1"/><text x="347.5" y="130.927" fill="#000" font-family="sans-serif" font-size="11" lengthAdjust="spacingAndGlyphs" textLength="25">id: int</text><line style="stroke:#a80036;stroke-width:1.5" x1="328.5" x2="571.5" y1="137.344" y2="137.344"/><ellipse cx="338.5" cy="148.344" fill="#84BE84" rx="3" ry="3" style="stroke:#038048;stroke-width:1"/><text x="347.5" y="152.763" fill="#000" font-family="sans-serif" font-size="11" lengthAdjust="spacingAndGlyphs" textLength="118">connect(String, int): void</text><ellipse cx="338.5" cy="162.18" fill="#84BE84" rx="3" ry="3" style="stroke:#038048;stroke-width:1"/><text x="347.5" y="166.599" fill="#000" font-family="sans-serif" font-size="11" lengthAdjust="spacingAndGlyphs" textLength="192">send(DoaNetPacket&lt;Serializable&gt;): void</text><ellipse cx="338.5" cy="176.016" fill="#84BE84" rx="3" ry="3" style="stroke:#038048;stroke-width:1"/><text x="347.5" y="180.435" fill="#000" font-family="sans-serif" font-size="11" lengthAdjust="spacingAndGlyphs" textLength="87">disconnect(): void</text><ellipse cx="338.5" cy="189.852" fill="#84BE84" rx="3" ry="3" style="stroke:#038048;stroke-width:1"/><text x="347.5" y="194.27" fill="#000" font-family="sans-serif" font-size="11" lengthAdjust="spacingAndGlyphs" textLength="112">isConnected(): boolean</text><ellipse cx="338.5" cy="203.688" fill="#84BE84" rx="3" ry="3" style="stroke:#038048;stroke-width:1"/><text x="347.5" y="208.106" fill="#000" font-family="sans-serif" font-size="11" lengthAdjust="spacingAndGlyphs" textLength="49">getID(): int</text><polygon fill="#FF4" points="338.5 212.523 342.5 216.523 338.5 220.523 334.5 216.523" style="stroke:#b38d22;stroke-width:1"/><text x="347.5" y="221.942" fill="#000" font-family="sans-serif" font-size="11" lengthAdjust="spacingAndGlyphs" textLength="86">onConnect(): void</text><polygon fill="#FF4" points="338.5 226.359 342.5 230.359 338.5 234.359 334.5 230.359" style="stroke:#b38d22;stroke-width:1"/><text x="347.5" y="235.778" fill="#000" font-family="sans-serif" font-size="11" lengthAdjust="spacingAndGlyphs" textLength="219">onReceive(DoaNetPacket&lt;Serializable&gt;): void</text><polygon fill="#FF4" points="338.5 240.195 342.5 244.195 338.5 248.195 334.5 244.195" style="stroke:#b38d22;stroke-width:1"/><text x="347.5" y="249.614" fill="#000" font-family="sans-serif" font-size="11" lengthAdjust="spacingAndGlyphs" textLength="100">onDisconnect(): void</text></a><a href="DoaNetPacket.html" target="_top" title="DoaNetPacket.html" xlink:actuate="onRequest" xlink:href="DoaNetPacket.html" xlink:show="new" xlink:title="DoaNetPacket.html" xlink:type="simple"><rect id="doa.engine.net.DoaNetPacket" width="238" height="75.672" x="333" y="334" fill="#FEFECE" codeLine="18" filter="url(#f1mzklxk4ts945)" style="stroke:#a80036;stroke-width:1.5"/><ellipse cx="348" cy="350" fill="#ADD1B2" rx="11" ry="11" style="stroke:#a80036;stroke-width:1"/><path d="M350.7656,345.875 Q350.9219,345.6563 351.1094,345.5469 Q351.2969,345.4375 351.5156,345.4375 Q351.8906,345.4375 352.125,345.7031 Q352.3594,345.9531 352.3594,346.5625 L352.3594,348.0156 Q352.3594,348.625 352.125,348.8906 Q351.8906,349.1563 351.5156,349.1563 Q351.1719,349.1563 350.9688,348.9531 Q350.7656,348.7656 350.6563,348.25 Q350.6094,347.8906 350.4219,347.7031 Q350.0938,347.3281 349.4844,347.1094 Q348.875,346.8906 348.25,346.8906 Q347.4844,346.8906 346.8438,347.2188 Q346.2188,347.5469 345.7188,348.2969 Q345.2344,349.0469 345.2344,350.0781 L345.2344,351.1719 Q345.2344,352.4063 346.125,353.2344 Q347.0156,354.0469 348.6094,354.0469 Q349.5469,354.0469 350.2031,353.7969 Q350.5938,353.6406 351.0156,353.2031 Q351.2813,352.9375 351.4219,352.8594 Q351.5781,352.7813 351.7813,352.7813 Q352.1094,352.7813 352.3594,353.0469 Q352.625,353.2969 352.625,353.6406 Q352.625,353.9844 352.2813,354.3906 Q351.7813,354.9688 350.9844,355.2969 Q349.9063,355.75 348.6094,355.75 Q347.0938,355.75 345.8906,355.125 Q344.9063,354.625 344.2188,353.5625 Q343.5313,352.4844 343.5313,351.2031 L343.5313,350.0469 Q343.5313,348.7188 344.1406,347.5781 Q344.7656,346.4219 345.8594,345.8125 Q346.9531,345.1875 348.1875,345.1875 Q348.9219,345.1875 349.5625,345.3594 Q350.2188,345.5156 350.7656,345.875 Z"/><text x="362" y="354.91" fill="#000" font-family="sans-serif" font-size="12" lengthAdjust="spacingAndGlyphs" textLength="79">DoaNetPacket</text><rect style="stroke:#000;stroke-width:1;stroke-dasharray:2,2" width="125" height="17.094" x="449" y="331" fill="#FFF"/><text x="450" y="344.457" fill="#000" font-family="sans-serif" font-size="12" font-style="italic" lengthAdjust="spacingAndGlyphs" textLength="123">T extends Serializable</text><line style="stroke:#a80036;stroke-width:1.5" x1="334" x2="570" y1="366" y2="366"/><line style="stroke:#a80036;stroke-width:1.5" x1="334" x2="570" y1="374" y2="374"/><ellipse cx="344" cy="385" fill="#84BE84" rx="3" ry="3" style="stroke:#038048;stroke-width:1"/><text x="353" y="389.419" fill="#000" font-family="sans-serif" font-size="11" lengthAdjust="spacingAndGlyphs" textLength="181">DoaNetPacket(T extends Serializable)</text><ellipse cx="344" cy="398.836" fill="#84BE84" rx="3" ry="3" style="stroke:#038048;stroke-width:1"/><text x="353" y="403.255" fill="#000" font-family="sans-serif" font-size="11" lengthAdjust="spacingAndGlyphs" textLength="157">getData(): T extends Serializable</text></a><a href="DoaServer.html" target="_top" title="DoaServer.html" xlink:actuate="onRequest" xlink:href="DoaServer.html" xlink:show="new" xlink:title="DoaServer.html" xlink:type="simple"><rect id="doa.engine.net.DoaServer" width="260" height="89.508" x="32" y="104" fill="#FEFECE" codeLine="23" filter="url(#f1mzklxk4ts945)" style="stroke:#a80036;stroke-width:1.5"/><ellipse cx="128.75" cy="120" fill="#ADD1B2" rx="11" ry="11" style="stroke:#a80036;stroke-width:1"/><path d="M131.5156,115.875 Q131.6719,115.6563 131.8594,115.5469 Q132.0469,115.4375 132.2656,115.4375 Q132.6406,115.4375 132.875,115.7031 Q133.1094,115.9531 133.1094,116.5625 L133.1094,118.0156 Q133.1094,118.625 132.875,118.8906 Q132.6406,119.1563 132.2656,119.1563 Q131.9219,119.1563 131.7188,118.9531 Q131.5156,118.7656 131.4063,118.25 Q131.3594,117.8906 131.1719,117.7031 Q130.8438,117.3281 130.2344,117.1094 Q129.625,116.8906 129,116.8906 Q128.2344,116.8906 127.5938,117.2188 Q126.9688,117.5469 126.4688,118.2969 Q125.9844,119.0469 125.9844,120.0781 L125.9844,121.1719 Q125.9844,122.4063 126.875,123.2344 Q127.7656,124.0469 129.3594,124.0469 Q130.2969,124.0469 130.9531,123.7969 Q131.3438,123.6406 131.7656,123.2031 Q132.0313,122.9375 132.1719,122.8594 Q132.3281,122.7813 132.5313,122.7813 Q132.8594,122.7813 133.1094,123.0469 Q133.375,123.2969 133.375,123.6406 Q133.375,123.9844 133.0313,124.3906 Q132.5313,124.9688 131.7344,125.2969 Q130.6563,125.75 129.3594,125.75 Q127.8438,125.75 126.6406,125.125 Q125.6563,124.625 124.9688,123.5625 Q124.2813,122.4844 124.2813,121.2031 L124.2813,120.0469 Q124.2813,118.7188 124.8906,117.5781 Q125.5156,116.4219 126.6094,115.8125 Q127.7031,115.1875 128.9375,115.1875 Q129.6719,115.1875 130.3125,115.3594 Q130.9688,115.5156 131.5156,115.875 Z"/><text x="149.25" y="124.91" fill="#000" font-family="sans-serif" font-size="12" lengthAdjust="spacingAndGlyphs" textLength="58">DoaServer</text><line style="stroke:#a80036;stroke-width:1.5" x1="33" x2="291" y1="136" y2="136"/><line style="stroke:#a80036;stroke-width:1.5" x1="33" x2="291" y1="144" y2="144"/><ellipse cx="43" cy="155" fill="#84BE84" rx="3" ry="3" style="stroke:#038048;stroke-width:1"/><text x="52" y="159.419" fill="#000" font-family="sans-serif" font-size="11" lengthAdjust="spacingAndGlyphs" textLength="60">open(int): int</text><ellipse cx="43" cy="168.836" fill="#84BE84" rx="3" ry="3" style="stroke:#038048;stroke-width:1"/><text x="52" y="173.255" fill="#000" font-family="sans-serif" font-size="11" lengthAdjust="spacingAndGlyphs" textLength="60">close(): void</text><ellipse cx="43" cy="182.672" fill="#84BE84" rx="3" ry="3" style="stroke:#038048;stroke-width:1"/><text x="52" y="187.091" fill="#000" font-family="sans-serif" font-size="11" lengthAdjust="spacingAndGlyphs" textLength="234">broadcast(int, DoaNetPacket&lt;Serializable&gt;): void</text></a><rect id="java.io.Serializable" width="99" height="48" x="629.5" y="125" fill="#FEFECE" codeLine="34" filter="url(#f1mzklxk4ts945)" style="stroke:#a80036;stroke-width:1.5"/><ellipse cx="644.5" cy="141" fill="#B4A7E5" rx="11" ry="11" style="stroke:#a80036;stroke-width:1"/><path d="M645.4531,137.6406 L645.4531,144.2969 L647.1719,144.2969 Q647.7813,144.2969 648.0469,144.5313 Q648.3125,144.7656 648.3125,145.1563 Q648.3125,145.5313 648.0469,145.7656 Q647.7813,146 647.1719,146 L642.0313,146 Q641.4219,146 641.1563,145.7656 Q640.8906,145.5313 640.8906,145.1406 Q640.8906,144.7656 641.1563,144.5313 Q641.4219,144.2969 642.0313,144.2969 L643.75,144.2969 L643.75,137.6406 L642.0313,137.6406 Q641.4219,137.6406 641.1563,137.4063 Q640.8906,137.1719 640.8906,136.7813 Q640.8906,136.4063 641.1563,136.1719 Q641.4219,135.9375 642.0313,135.9375 L647.1719,135.9375 Q647.7813,135.9375 648.0469,136.1719 Q648.3125,136.4063 648.3125,136.7813 Q648.3125,137.1719 648.0469,137.4063 Q647.7813,137.6406 647.1719,137.6406 L645.4531,137.6406 Z"/><text x="658.5" y="145.91" fill="#000" font-family="sans-serif" font-size="12" font-style="italic" lengthAdjust="spacingAndGlyphs" textLength="67">Serializable</text><line style="stroke:#a80036;stroke-width:1.5" x1="630.5" x2="727.5" y1="157" y2="157"/><line style="stroke:#a80036;stroke-width:1.5" x1="630.5" x2="727.5" y1="165" y2="165"/><path id="doa.engine.net.DoaClient-to-doa.engine.net.DoaNetPacket" fill="none" d="M450.96,256.29 C451.19,281.98 451.43,307.97 451.62,328.71" codeLine="29" style="stroke:#a80036;stroke-width:1"/><polygon fill="#A80036" points="451.66 333.86 455.557 324.815 451.603 328.86 447.557 324.906 451.66 333.86" style="stroke:#a80036;stroke-width:1"/><text x="452" y="300.495" fill="#000" font-family="sans-serif" font-size="13" lengthAdjust="spacingAndGlyphs" textLength="7">q</text><text x="446.154" y="323.197" fill="#000" font-family="sans-serif" font-size="13" lengthAdjust="spacingAndGlyphs" textLength="5">*</text><path id="java.io.Serializable-backto-doa.engine.net.DoaNetPacket" fill="none" d="M648.52,189.01 C631.75,209.66 610.1,235.02 589,256 C561.14,283.7 527.37,312.1 500.32,333.75" codeLine="30" style="stroke:#a80036;stroke-width:1;stroke-dasharray:7,7"/><polygon fill="none" points="643.13 184.55 661.09 173.31 654.06 193.3 643.13 184.55" style="stroke:#a80036;stroke-width:1"/><text x="279.5" y="442.381" fill="#888" font-family="sans-serif" font-size="10" lengthAdjust="spacingAndGlyphs" textLength="190">UMLDoclet 2.0.12, PlantUML 1.2020.16</text></g></svg>