<svg xmlns="http://www.w3.org/2000/svg" xmlns:xlink="http://www.w3.org/1999/xlink" width="202" height="99" contentScriptType="application/ecmascript" contentStyleType="text/css" style="width:202px;height:99px" preserveAspectRatio="none" version="1.1" viewBox="0 0 202 99" zoomAndPan="magnify"><defs><filter id="fqf6d8ygmegbf" width="300%" height="300%" x="-1" y="-1"><feGaussianBlur result="blurOut" stdDeviation="2"/><feColorMatrix in="blurOut" result="blurOut2" type="matrix" values="0 0 0 0 0 0 0 0 0 0 0 0 0 0 0 0 0 0 .4 0"/><feOffset dx="4" dy="4" in="blurOut2" result="blurOut3"/><feBlend in="SourceGraphic" in2="blurOut3" mode="normal"/></filter></defs><g><a href="DoaUtils.html" target="_top" title="DoaUtils.html" xlink:actuate="onRequest" xlink:href="DoaUtils.html" xlink:show="new" xlink:title="DoaUtils.html" xlink:type="simple"><rect id="doa.engine.utils.DoaUtils" width="122" height="62.023" x="34" y="7" fill="#FEFECE" codeLine="5" filter="url(#fqf6d8ygmegbf)" style="stroke:#a80036;stroke-width:1.5"/><ellipse cx="55.3" cy="27.094" fill="#ADD1B2" rx="11" ry="11" style="stroke:#a80036;stroke-width:1"/><path d="M58.0656,22.9688 Q58.2219,22.75 58.4094,22.6406 Q58.5969,22.5313 58.8156,22.5313 Q59.1906,22.5313 59.425,22.7969 Q59.6594,23.0469 59.6594,23.6563 L59.6594,25.1094 Q59.6594,25.7188 59.425,25.9844 Q59.1906,26.25 58.8156,26.25 Q58.4719,26.25 58.2688,26.0469 Q58.0656,25.8594 57.9563,25.3438 Q57.9094,24.9844 57.7219,24.7969 Q57.3938,24.4219 56.7844,24.2031 Q56.175,23.9844 55.55,23.9844 Q54.7844,23.9844 54.1438,24.3125 Q53.5188,24.6406 53.0188,25.3906 Q52.5344,26.1406 52.5344,27.1719 L52.5344,28.2656 Q52.5344,29.5 53.425,30.3281 Q54.3156,31.1406 55.9094,31.1406 Q56.8469,31.1406 57.5031,30.8906 Q57.8938,30.7344 58.3156,30.2969 Q58.5813,30.0313 58.7219,29.9531 Q58.8781,29.875 59.0813,29.875 Q59.4094,29.875 59.6594,30.1406 Q59.925,30.3906 59.925,30.7344 Q59.925,31.0781 59.5813,31.4844 Q59.0813,32.0625 58.2844,32.3906 Q57.2063,32.8438 55.9094,32.8438 Q54.3938,32.8438 53.1906,32.2188 Q52.2063,31.7188 51.5188,30.6563 Q50.8313,29.5781 50.8313,28.2969 L50.8313,27.1406 Q50.8313,25.8125 51.4406,24.6719 Q52.0656,23.5156 53.1594,22.9063 Q54.2531,22.2813 55.4875,22.2813 Q56.2219,22.2813 56.8625,22.4531 Q57.5188,22.6094 58.0656,22.9688 Z"/><text x="82.7" y="26.533" fill="#000" font-family="sans-serif" font-size="14" lengthAdjust="spacingAndGlyphs" textLength="52">DoaUtils</text><text x="70.7" y="39.99" fill="#000" font-family="sans-serif" font-size="10" lengthAdjust="spacingAndGlyphs" textLength="76">doa.engine.utils</text><line style="stroke:#a80036;stroke-width:1.5" x1="35" x2="155" y1="47.188" y2="47.188"/><ellipse cx="45" cy="58.188" fill="#84BE84" rx="3" ry="3" style="stroke:#038048;stroke-width:1"/><text x="54" y="62.606" fill="#000" font-family="sans-serif" font-size="11" lengthAdjust="spacingAndGlyphs" text-decoration="underline" textLength="96">sleepFor(long): void</text></a><text x="0" y="86.404" fill="#888" font-family="sans-serif" font-size="10" lengthAdjust="spacingAndGlyphs" textLength="190">UMLDoclet 2.0.12, PlantUML 1.2020.16</text></g></svg>