<svg xmlns="http://www.w3.org/2000/svg" xmlns:xlink="http://www.w3.org/1999/xlink" width="202" height="149" contentScriptType="application/ecmascript" contentStyleType="text/css" style="width:202px;height:149px" preserveAspectRatio="none" version="1.1" viewBox="0 0 202 149" zoomAndPan="magnify"><defs><filter id="f19tv0ghcn12l9" width="300%" height="300%" x="-1" y="-1"><feGaussianBlur result="blurOut" stdDeviation="2"/><feColorMatrix in="blurOut" result="blurOut2" type="matrix" values="0 0 0 0 0 0 0 0 0 0 0 0 0 0 0 0 0 0 .4 0"/><feOffset dx="4" dy="4" in="blurOut2" result="blurOut3"/><feBlend in="SourceGraphic" in2="blurOut3" mode="normal"/></filter></defs><g><polygon fill="#FFF" points="24 6 143 6 150 29.609 178 29.609 178 120 24 120 24 6" filter="url(#f19tv0ghcn12l9)" style="stroke:#000;stroke-width:1.5"/><line style="stroke:#000;stroke-width:1.5" x1="24" x2="150" y1="29.609" y2="29.609"/><text x="28" y="22.533" fill="#000" font-family="sans-serif" font-size="14" font-weight="bold" lengthAdjust="spacingAndGlyphs" textLength="113">doa.engine.utils</text><a href="DoaUtils.html" target="_top" title="DoaUtils.html" xlink:actuate="onRequest" xlink:href="DoaUtils.html" xlink:show="new" xlink:title="DoaUtils.html" xlink:type="simple"><rect id="doa.engine.utils.DoaUtils" width="122" height="61.836" x="40" y="42" fill="#FEFECE" codeLine="3" filter="url(#f19tv0ghcn12l9)" style="stroke:#a80036;stroke-width:1.5"/><ellipse cx="73.9" cy="58" fill="#ADD1B2" rx="11" ry="11" style="stroke:#a80036;stroke-width:1"/><path d="M76.6656,53.875 Q76.8219,53.6563 77.0094,53.5469 Q77.1969,53.4375 77.4156,53.4375 Q77.7906,53.4375 78.025,53.7031 Q78.2594,53.9531 78.2594,54.5625 L78.2594,56.0156 Q78.2594,56.625 78.025,56.8906 Q77.7906,57.1563 77.4156,57.1563 Q77.0719,57.1563 76.8688,56.9531 Q76.6656,56.7656 76.5563,56.25 Q76.5094,55.8906 76.3219,55.7031 Q75.9938,55.3281 75.3844,55.1094 Q74.775,54.8906 74.15,54.8906 Q73.3844,54.8906 72.7438,55.2188 Q72.1188,55.5469 71.6188,56.2969 Q71.1344,57.0469 71.1344,58.0781 L71.1344,59.1719 Q71.1344,60.4063 72.025,61.2344 Q72.9156,62.0469 74.5094,62.0469 Q75.4469,62.0469 76.1031,61.7969 Q76.4938,61.6406 76.9156,61.2031 Q77.1813,60.9375 77.3219,60.8594 Q77.4781,60.7813 77.6813,60.7813 Q78.0094,60.7813 78.2594,61.0469 Q78.525,61.2969 78.525,61.6406 Q78.525,61.9844 78.1813,62.3906 Q77.6813,62.9688 76.8844,63.2969 Q75.8063,63.75 74.5094,63.75 Q72.9938,63.75 71.7906,63.125 Q70.8063,62.625 70.1188,61.5625 Q69.4313,60.4844 69.4313,59.2031 L69.4313,58.0469 Q69.4313,56.7188 70.0406,55.5781 Q70.6656,54.4219 71.7594,53.8125 Q72.8531,53.1875 74.0875,53.1875 Q74.8219,53.1875 75.4625,53.3594 Q76.1188,53.5156 76.6656,53.875 Z"/><text x="92.1" y="62.91" fill="#000" font-family="sans-serif" font-size="12" lengthAdjust="spacingAndGlyphs" textLength="48">DoaUtils</text><line style="stroke:#a80036;stroke-width:1.5" x1="41" x2="161" y1="74" y2="74"/><line style="stroke:#a80036;stroke-width:1.5" x1="41" x2="161" y1="82" y2="82"/><ellipse cx="51" cy="93" fill="#84BE84" rx="3" ry="3" style="stroke:#038048;stroke-width:1"/><text x="60" y="97.419" fill="#000" font-family="sans-serif" font-size="11" lengthAdjust="spacingAndGlyphs" text-decoration="underline" textLength="96">sleepFor(long): void</text></a><text x="0" y="136.381" fill="#888" font-family="sans-serif" font-size="10" lengthAdjust="spacingAndGlyphs" textLength="190">UMLDoclet 2.0.12, PlantUML 1.2020.16</text></g></svg>