<svg xmlns="http://www.w3.org/2000/svg" xmlns:xlink="http://www.w3.org/1999/xlink" width="274" height="149" contentScriptType="application/ecmascript" contentStyleType="text/css" style="width:274px;height:149px" preserveAspectRatio="none" version="1.1" viewBox="0 0 274 149" zoomAndPan="magnify"><defs><filter id="f10shyscpddf21" width="300%" height="300%" x="-1" y="-1"><feGaussianBlur result="blurOut" stdDeviation="2"/><feColorMatrix in="blurOut" result="blurOut2" type="matrix" values="0 0 0 0 0 0 0 0 0 0 0 0 0 0 0 0 0 0 .4 0"/><feOffset dx="4" dy="4" in="blurOut2" result="blurOut3"/><feBlend in="SourceGraphic" in2="blurOut3" mode="normal"/></filter></defs><g><a href="DoaSounds.html" target="_top" title="DoaSounds.html" xlink:actuate="onRequest" xlink:href="DoaSounds.html" xlink:show="new" xlink:title="DoaSounds.html" xlink:type="simple"><rect id="doa.engine.sound.DoaSounds" width="248" height="111.531" x="7" y="7" fill="#FEFECE" codeLine="5" filter="url(#f10shyscpddf21)" style="stroke:#a80036;stroke-width:1.5"/><ellipse cx="84.25" cy="27.094" fill="#ADD1B2" rx="11" ry="11" style="stroke:#a80036;stroke-width:1"/><path d="M87.0156,22.9688 Q87.1719,22.75 87.3594,22.6406 Q87.5469,22.5313 87.7656,22.5313 Q88.1406,22.5313 88.375,22.7969 Q88.6094,23.0469 88.6094,23.6563 L88.6094,25.1094 Q88.6094,25.7188 88.375,25.9844 Q88.1406,26.25 87.7656,26.25 Q87.4219,26.25 87.2188,26.0469 Q87.0156,25.8594 86.9063,25.3438 Q86.8594,24.9844 86.6719,24.7969 Q86.3438,24.4219 85.7344,24.2031 Q85.125,23.9844 84.5,23.9844 Q83.7344,23.9844 83.0938,24.3125 Q82.4688,24.6406 81.9688,25.3906 Q81.4844,26.1406 81.4844,27.1719 L81.4844,28.2656 Q81.4844,29.5 82.375,30.3281 Q83.2656,31.1406 84.8594,31.1406 Q85.7969,31.1406 86.4531,30.8906 Q86.8438,30.7344 87.2656,30.2969 Q87.5313,30.0313 87.6719,29.9531 Q87.8281,29.875 88.0313,29.875 Q88.3594,29.875 88.6094,30.1406 Q88.875,30.3906 88.875,30.7344 Q88.875,31.0781 88.5313,31.4844 Q88.0313,32.0625 87.2344,32.3906 Q86.1563,32.8438 84.8594,32.8438 Q83.3438,32.8438 82.1406,32.2188 Q81.1563,31.7188 80.4688,30.6563 Q79.7813,29.5781 79.7813,28.2969 L79.7813,27.1406 Q79.7813,25.8125 80.3906,24.6719 Q81.0156,23.5156 82.1094,22.9063 Q83.2031,22.2813 84.4375,22.2813 Q85.1719,22.2813 85.8125,22.4531 Q86.4688,22.6094 87.0156,22.9688 Z"/><text x="110.25" y="26.533" fill="#000" font-family="sans-serif" font-size="14" lengthAdjust="spacingAndGlyphs" textLength="74">DoaSounds</text><text x="104.75" y="39.99" fill="#000" font-family="sans-serif" font-size="10" lengthAdjust="spacingAndGlyphs" textLength="85">doa.engine.sound</text><line style="stroke:#a80036;stroke-width:1.5" x1="8" x2="254" y1="47.188" y2="47.188"/><ellipse cx="18" cy="58.188" fill="none" rx="3" ry="3" style="stroke:#038048;stroke-width:1"/><text x="27" y="62.606" fill="#000" font-family="sans-serif" font-size="11" lengthAdjust="spacingAndGlyphs" text-decoration="underline" textLength="209">SOUND_CLIPS: Map&lt;String, DoaSoundClip&gt;</text><line style="stroke:#a80036;stroke-width:1.5" x1="8" x2="254" y1="69.023" y2="69.023"/><ellipse cx="18" cy="80.023" fill="#84BE84" rx="3" ry="3" style="stroke:#038048;stroke-width:1"/><text x="27" y="84.442" fill="#000" font-family="sans-serif" font-size="11" lengthAdjust="spacingAndGlyphs" text-decoration="underline" textLength="136">setGlobalVolume(float): void</text><ellipse cx="18" cy="93.859" fill="#84BE84" rx="3" ry="3" style="stroke:#038048;stroke-width:1"/><text x="27" y="98.278" fill="#000" font-family="sans-serif" font-size="11" lengthAdjust="spacingAndGlyphs" text-decoration="underline" textLength="222">createSoundClip(String, String): DoaSoundClip</text><ellipse cx="18" cy="107.695" fill="#84BE84" rx="3" ry="3" style="stroke:#038048;stroke-width:1"/><text x="27" y="112.114" fill="#000" font-family="sans-serif" font-size="11" lengthAdjust="spacingAndGlyphs" text-decoration="underline" textLength="172">getSoundClip(String): DoaSoundClip</text></a><text x="36" y="135.912" fill="#888" font-family="sans-serif" font-size="10" lengthAdjust="spacingAndGlyphs" textLength="190">UMLDoclet 2.0.12, PlantUML 1.2020.16</text></g></svg>