<?xml version="1.0" encoding="UTF-8" standalone="no"?><svg xmlns="http://www.w3.org/2000/svg" xmlns:xlink="http://www.w3.org/1999/xlink" contentScriptType="application/ecmascript" contentStyleType="text/css" height="149px" preserveAspectRatio="none" style="width:274px;height:149px;" version="1.1" viewBox="0 0 274 149" width="274px" zoomAndPan="magnify"><defs><filter height="300%" id="f10shyscpddf21" width="300%" x="-1" y="-1"><feGaussianBlur result="blurOut" stdDeviation="2.0"/><feColorMatrix in="blurOut" result="blurOut2" type="matrix" values="0 0 0 0 0 0 0 0 0 0 0 0 0 0 0 0 0 0 .4 0"/><feOffset dx="4.0" dy="4.0" in="blurOut2" result="blurOut3"/><feBlend in="SourceGraphic" in2="blurOut3" mode="normal"/></filter></defs><g><!--MD5=[f505cf2e440a7fb877729e393da11fdd]
class doa.engine.sound.DoaSounds--><a href="DoaSounds.html" target="_top" title="DoaSounds.html" xlink:actuate="onRequest" xlink:href="DoaSounds.html" xlink:show="new" xlink:title="DoaSounds.html" xlink:type="simple"><rect codeLine="5" fill="#FEFECE" filter="url(#f10shyscpddf21)" height="111.5313" id="doa.engine.sound.DoaSounds" style="stroke: #A80036; stroke-width: 1.5;" width="248" x="7" y="7"/><ellipse cx="84.25" cy="27.0938" fill="#ADD1B2" rx="11" ry="11" style="stroke: #A80036; stroke-width: 1.0;"/><path d="M87.0156,22.9688 Q87.1719,22.75 87.3594,22.6406 Q87.5469,22.5313 87.7656,22.5313 Q88.1406,22.5313 88.375,22.7969 Q88.6094,23.0469 88.6094,23.6563 L88.6094,25.1094 Q88.6094,25.7188 88.375,25.9844 Q88.1406,26.25 87.7656,26.25 Q87.4219,26.25 87.2188,26.0469 Q87.0156,25.8594 86.9063,25.3438 Q86.8594,24.9844 86.6719,24.7969 Q86.3438,24.4219 85.7344,24.2031 Q85.125,23.9844 84.5,23.9844 Q83.7344,23.9844 83.0938,24.3125 Q82.4688,24.6406 81.9688,25.3906 Q81.4844,26.1406 81.4844,27.1719 L81.4844,28.2656 Q81.4844,29.5 82.375,30.3281 Q83.2656,31.1406 84.8594,31.1406 Q85.7969,31.1406 86.4531,30.8906 Q86.8438,30.7344 87.2656,30.2969 Q87.5313,30.0313 87.6719,29.9531 Q87.8281,29.875 88.0313,29.875 Q88.3594,29.875 88.6094,30.1406 Q88.875,30.3906 88.875,30.7344 Q88.875,31.0781 88.5313,31.4844 Q88.0313,32.0625 87.2344,32.3906 Q86.1563,32.8438 84.8594,32.8438 Q83.3438,32.8438 82.1406,32.2188 Q81.1563,31.7188 80.4688,30.6563 Q79.7813,29.5781 79.7813,28.2969 L79.7813,27.1406 Q79.7813,25.8125 80.3906,24.6719 Q81.0156,23.5156 82.1094,22.9063 Q83.2031,22.2813 84.4375,22.2813 Q85.1719,22.2813 85.8125,22.4531 Q86.4688,22.6094 87.0156,22.9688 Z "/><text fill="#000000" font-family="sans-serif" font-size="14" lengthAdjust="spacingAndGlyphs" textLength="74" x="110.25" y="26.5332">DoaSounds</text><text fill="#000000" font-family="sans-serif" font-size="10" lengthAdjust="spacingAndGlyphs" textLength="85" x="104.75" y="39.9902">doa.engine.sound</text><line style="stroke: #A80036; stroke-width: 1.5;" x1="8" x2="254" y1="47.1875" y2="47.1875"/><ellipse cx="18" cy="58.1875" fill="none" rx="3" ry="3" style="stroke: #038048; stroke-width: 1.0;"/><text fill="#000000" font-family="sans-serif" font-size="11" lengthAdjust="spacingAndGlyphs" text-decoration="underline" textLength="209" x="27" y="62.6064">SOUND_CLIPS: Map&lt;String, DoaSoundClip&gt;</text><line style="stroke: #A80036; stroke-width: 1.5;" x1="8" x2="254" y1="69.0234" y2="69.0234"/><ellipse cx="18" cy="80.0234" fill="#84BE84" rx="3" ry="3" style="stroke: #038048; stroke-width: 1.0;"/><text fill="#000000" font-family="sans-serif" font-size="11" lengthAdjust="spacingAndGlyphs" text-decoration="underline" textLength="136" x="27" y="84.4424">setGlobalVolume(float): void</text><ellipse cx="18" cy="93.8594" fill="#84BE84" rx="3" ry="3" style="stroke: #038048; stroke-width: 1.0;"/><text fill="#000000" font-family="sans-serif" font-size="11" lengthAdjust="spacingAndGlyphs" text-decoration="underline" textLength="222" x="27" y="98.2783">createSoundClip(String, String): DoaSoundClip</text><ellipse cx="18" cy="107.6953" fill="#84BE84" rx="3" ry="3" style="stroke: #038048; stroke-width: 1.0;"/><text fill="#000000" font-family="sans-serif" font-size="11" lengthAdjust="spacingAndGlyphs" text-decoration="underline" textLength="172" x="27" y="112.1143">getSoundClip(String): DoaSoundClip</text></a><text fill="#888888" font-family="sans-serif" font-size="10" lengthAdjust="spacingAndGlyphs" textLength="190" x="36" y="135.9121">UMLDoclet 2.0.12, PlantUML 1.2020.16</text><!--MD5=[fc53914ae8067e8d51d6f1826b50c084]
@startuml
    set namespaceSeparator none
    hide empty fields
    hide empty methods

    class "<size:14>DoaSounds\n<size:10>doa.engine.sound" as doa.engine.sound.DoaSounds [[DoaSounds.html]] {
        {static} +SOUND_CLIPS: Map<String, DoaSoundClip>
        {static} +setGlobalVolume(float): void
        {static} +createSoundClip(String, String): DoaSoundClip
        {static} +getSoundClip(String): DoaSoundClip
    }

    center footer UMLDoclet 2.0.12, PlantUML 1.2020.16
@enduml

PlantUML version 1.2020.16(Sun Aug 23 23:20:43 TRT 2020)
(APACHE source distribution)
Java Runtime: OpenJDK Runtime Environment
JVM: OpenJDK 64-Bit Server VM
Default Encoding: Cp1252
Language: en
Country: GB
--></g></svg>