<svg xmlns="http://www.w3.org/2000/svg" xmlns:xlink="http://www.w3.org/1999/xlink" width="547" height="273" contentScriptType="application/ecmascript" contentStyleType="text/css" style="width:547px;height:273px" preserveAspectRatio="none" version="1.1" viewBox="0 0 547 273" zoomAndPan="magnify"><defs><filter id="fzrn4lfk5x2gt" width="300%" height="300%" x="-1" y="-1"><feGaussianBlur result="blurOut" stdDeviation="2"/><feColorMatrix in="blurOut" result="blurOut2" type="matrix" values="0 0 0 0 0 0 0 0 0 0 0 0 0 0 0 0 0 0 .4 0"/><feOffset dx="4" dy="4" in="blurOut2" result="blurOut3"/><feBlend in="SourceGraphic" in2="blurOut3" mode="normal"/></filter></defs><g><polygon fill="#FFF" points="16 6 149 6 156 29.609 525 29.609 525 244 16 244 16 6" filter="url(#fzrn4lfk5x2gt)" style="stroke:#000;stroke-width:1.5"/><line style="stroke:#000;stroke-width:1.5" x1="16" x2="156" y1="29.609" y2="29.609"/><text x="20" y="22.533" fill="#000" font-family="sans-serif" font-size="14" font-weight="bold" lengthAdjust="spacingAndGlyphs" textLength="127">doa.engine.sound</text><a href="DoaSoundClip.html" target="_top" title="DoaSoundClip.html" xlink:actuate="onRequest" xlink:href="DoaSoundClip.html" xlink:show="new" xlink:title="DoaSoundClip.html" xlink:type="simple"><rect id="doa.engine.sound.DoaSoundClip" width="194" height="186.359" x="315" y="42" fill="#FEFECE" codeLine="3" filter="url(#fzrn4lfk5x2gt)" style="stroke:#a80036;stroke-width:1.5"/><ellipse cx="367.25" cy="58" fill="#ADD1B2" rx="11" ry="11" style="stroke:#a80036;stroke-width:1"/><path d="M370.0156,53.875 Q370.1719,53.6563 370.3594,53.5469 Q370.5469,53.4375 370.7656,53.4375 Q371.1406,53.4375 371.375,53.7031 Q371.6094,53.9531 371.6094,54.5625 L371.6094,56.0156 Q371.6094,56.625 371.375,56.8906 Q371.1406,57.1563 370.7656,57.1563 Q370.4219,57.1563 370.2188,56.9531 Q370.0156,56.7656 369.9063,56.25 Q369.8594,55.8906 369.6719,55.7031 Q369.3438,55.3281 368.7344,55.1094 Q368.125,54.8906 367.5,54.8906 Q366.7344,54.8906 366.0938,55.2188 Q365.4688,55.5469 364.9688,56.2969 Q364.4844,57.0469 364.4844,58.0781 L364.4844,59.1719 Q364.4844,60.4063 365.375,61.2344 Q366.2656,62.0469 367.8594,62.0469 Q368.7969,62.0469 369.4531,61.7969 Q369.8438,61.6406 370.2656,61.2031 Q370.5313,60.9375 370.6719,60.8594 Q370.8281,60.7813 371.0313,60.7813 Q371.3594,60.7813 371.6094,61.0469 Q371.875,61.2969 371.875,61.6406 Q371.875,61.9844 371.5313,62.3906 Q371.0313,62.9688 370.2344,63.2969 Q369.1563,63.75 367.8594,63.75 Q366.3438,63.75 365.1406,63.125 Q364.1563,62.625 363.4688,61.5625 Q362.7813,60.4844 362.7813,59.2031 L362.7813,58.0469 Q362.7813,56.7188 363.3906,55.5781 Q364.0156,54.4219 365.1094,53.8125 Q366.2031,53.1875 367.4375,53.1875 Q368.1719,53.1875 368.8125,53.3594 Q369.4688,53.5156 370.0156,53.875 Z"/><text x="387.75" y="62.91" fill="#000" font-family="sans-serif" font-size="12" lengthAdjust="spacingAndGlyphs" textLength="81">DoaSoundClip</text><line style="stroke:#a80036;stroke-width:1.5" x1="316" x2="508" y1="74" y2="74"/><ellipse cx="326" cy="85" fill="none" rx="3" ry="3" style="stroke:#038048;stroke-width:1"/><text x="335" y="89.419" fill="#000" font-family="sans-serif" font-size="11" lengthAdjust="spacingAndGlyphs" text-decoration="underline" textLength="65">FOREVER: int</text><line style="stroke:#a80036;stroke-width:1.5" x1="316" x2="508" y1="95.836" y2="95.836"/><ellipse cx="326" cy="106.836" fill="#84BE84" rx="3" ry="3" style="stroke:#038048;stroke-width:1"/><text x="335" y="111.255" fill="#000" font-family="sans-serif" font-size="11" lengthAdjust="spacingAndGlyphs" textLength="65">loop(int): void</text><ellipse cx="326" cy="120.672" fill="#84BE84" rx="3" ry="3" style="stroke:#038048;stroke-width:1"/><text x="335" y="125.091" fill="#000" font-family="sans-serif" font-size="11" lengthAdjust="spacingAndGlyphs" textLength="54">play(): void</text><ellipse cx="326" cy="134.508" fill="#84BE84" rx="3" ry="3" style="stroke:#038048;stroke-width:1"/><text x="335" y="138.927" fill="#000" font-family="sans-serif" font-size="11" lengthAdjust="spacingAndGlyphs" textLength="55">stop(): void</text><ellipse cx="326" cy="148.344" fill="#84BE84" rx="3" ry="3" style="stroke:#038048;stroke-width:1"/><text x="335" y="152.763" fill="#000" font-family="sans-serif" font-size="11" lengthAdjust="spacingAndGlyphs" textLength="64">pause(): void</text><ellipse cx="326" cy="162.18" fill="#84BE84" rx="3" ry="3" style="stroke:#038048;stroke-width:1"/><text x="335" y="166.599" fill="#000" font-family="sans-serif" font-size="11" lengthAdjust="spacingAndGlyphs" textLength="70">resume(): void</text><ellipse cx="326" cy="176.016" fill="#84BE84" rx="3" ry="3" style="stroke:#038048;stroke-width:1"/><text x="335" y="180.435" fill="#000" font-family="sans-serif" font-size="11" lengthAdjust="spacingAndGlyphs" textLength="148">getMicrosecondPosition(): long</text><ellipse cx="326" cy="189.852" fill="#84BE84" rx="3" ry="3" style="stroke:#038048;stroke-width:1"/><text x="335" y="194.27" fill="#000" font-family="sans-serif" font-size="11" lengthAdjust="spacingAndGlyphs" textLength="168">setMicrosecondPosition(long): void</text><ellipse cx="326" cy="203.688" fill="#84BE84" rx="3" ry="3" style="stroke:#038048;stroke-width:1"/><text x="335" y="208.106" fill="#000" font-family="sans-serif" font-size="11" lengthAdjust="spacingAndGlyphs" textLength="86">getVolume(): float</text><ellipse cx="326" cy="217.523" fill="#84BE84" rx="3" ry="3" style="stroke:#038048;stroke-width:1"/><text x="335" y="221.942" fill="#000" font-family="sans-serif" font-size="11" lengthAdjust="spacingAndGlyphs" textLength="106">setVolume(float): void</text></a><a href="DoaSounds.html" target="_top" title="DoaSounds.html" xlink:actuate="onRequest" xlink:href="DoaSounds.html" xlink:show="new" xlink:title="DoaSounds.html" xlink:type="simple"><rect id="doa.engine.sound.DoaSounds" width="248" height="103.344" x="32" y="83.5" fill="#FEFECE" codeLine="16" filter="url(#fzrn4lfk5x2gt)" style="stroke:#a80036;stroke-width:1.5"/><ellipse cx="118.75" cy="99.5" fill="#ADD1B2" rx="11" ry="11" style="stroke:#a80036;stroke-width:1"/><path d="M121.5156,95.375 Q121.6719,95.1563 121.8594,95.0469 Q122.0469,94.9375 122.2656,94.9375 Q122.6406,94.9375 122.875,95.2031 Q123.1094,95.4531 123.1094,96.0625 L123.1094,97.5156 Q123.1094,98.125 122.875,98.3906 Q122.6406,98.6563 122.2656,98.6563 Q121.9219,98.6563 121.7188,98.4531 Q121.5156,98.2656 121.4063,97.75 Q121.3594,97.3906 121.1719,97.2031 Q120.8438,96.8281 120.2344,96.6094 Q119.625,96.3906 119,96.3906 Q118.2344,96.3906 117.5938,96.7188 Q116.9688,97.0469 116.4688,97.7969 Q115.9844,98.5469 115.9844,99.5781 L115.9844,100.6719 Q115.9844,101.9063 116.875,102.7344 Q117.7656,103.5469 119.3594,103.5469 Q120.2969,103.5469 120.9531,103.2969 Q121.3438,103.1406 121.7656,102.7031 Q122.0313,102.4375 122.1719,102.3594 Q122.3281,102.2813 122.5313,102.2813 Q122.8594,102.2813 123.1094,102.5469 Q123.375,102.7969 123.375,103.1406 Q123.375,103.4844 123.0313,103.8906 Q122.5313,104.4688 121.7344,104.7969 Q120.6563,105.25 119.3594,105.25 Q117.8438,105.25 116.6406,104.625 Q115.6563,104.125 114.9688,103.0625 Q114.2813,101.9844 114.2813,100.7031 L114.2813,99.5469 Q114.2813,98.2188 114.8906,97.0781 Q115.5156,95.9219 116.6094,95.3125 Q117.7031,94.6875 118.9375,94.6875 Q119.6719,94.6875 120.3125,94.8594 Q120.9688,95.0156 121.5156,95.375 Z"/><text x="139.25" y="104.41" fill="#000" font-family="sans-serif" font-size="12" lengthAdjust="spacingAndGlyphs" textLength="66">DoaSounds</text><line style="stroke:#a80036;stroke-width:1.5" x1="33" x2="279" y1="115.5" y2="115.5"/><ellipse cx="43" cy="126.5" fill="none" rx="3" ry="3" style="stroke:#038048;stroke-width:1"/><text x="52" y="130.919" fill="#000" font-family="sans-serif" font-size="11" lengthAdjust="spacingAndGlyphs" text-decoration="underline" textLength="209">SOUND_CLIPS: Map&lt;String, DoaSoundClip&gt;</text><line style="stroke:#a80036;stroke-width:1.5" x1="33" x2="279" y1="137.336" y2="137.336"/><ellipse cx="43" cy="148.336" fill="#84BE84" rx="3" ry="3" style="stroke:#038048;stroke-width:1"/><text x="52" y="152.755" fill="#000" font-family="sans-serif" font-size="11" lengthAdjust="spacingAndGlyphs" text-decoration="underline" textLength="136">setGlobalVolume(float): void</text><ellipse cx="43" cy="162.172" fill="#84BE84" rx="3" ry="3" style="stroke:#038048;stroke-width:1"/><text x="52" y="166.591" fill="#000" font-family="sans-serif" font-size="11" lengthAdjust="spacingAndGlyphs" text-decoration="underline" textLength="222">createSoundClip(String, String): DoaSoundClip</text><ellipse cx="43" cy="176.008" fill="#84BE84" rx="3" ry="3" style="stroke:#038048;stroke-width:1"/><text x="52" y="180.427" fill="#000" font-family="sans-serif" font-size="11" lengthAdjust="spacingAndGlyphs" text-decoration="underline" textLength="172">getSoundClip(String): DoaSoundClip</text></a><text x="169.5" y="260.381" fill="#888" font-family="sans-serif" font-size="10" lengthAdjust="spacingAndGlyphs" textLength="190">UMLDoclet 2.0.12, PlantUML 1.2020.16</text></g></svg>