<?xml version="1.0" encoding="UTF-8" standalone="no"?><svg xmlns="http://www.w3.org/2000/svg" xmlns:xlink="http://www.w3.org/1999/xlink" contentScriptType="application/ecmascript" contentStyleType="text/css" height="219px" preserveAspectRatio="none" style="width:202px;height:219px;" version="1.1" viewBox="0 0 202 219" width="202px" zoomAndPan="magnify"><defs><filter height="300%" id="fkgu17ba687f7" width="300%" x="-1" y="-1"><feGaussianBlur result="blurOut" stdDeviation="2.0"/><feColorMatrix in="blurOut" result="blurOut2" type="matrix" values="0 0 0 0 0 0 0 0 0 0 0 0 0 0 0 0 0 0 .4 0"/><feOffset dx="4.0" dy="4.0" in="blurOut2" result="blurOut3"/><feBlend in="SourceGraphic" in2="blurOut3" mode="normal"/></filter></defs><g><!--MD5=[bcf9f27676ec3967bd1ed9d6e212d015]
class doa.engine.task.DoaTaskGuard--><a href="DoaTaskGuard.html" target="_top" title="DoaTaskGuard.html" xlink:actuate="onRequest" xlink:href="DoaTaskGuard.html" xlink:show="new" xlink:title="DoaTaskGuard.html" xlink:type="simple"><rect codeLine="5" fill="#FEFECE" filter="url(#fkgu17ba687f7)" height="75.8594" id="doa.engine.task.DoaTaskGuard" style="stroke: #A80036; stroke-width: 1.5;" width="144" x="26" y="107"/><ellipse cx="47.75" cy="127.0938" fill="#ADD1B2" rx="11" ry="11" style="stroke: #A80036; stroke-width: 1.0;"/><path d="M50.5156,122.9688 Q50.6719,122.75 50.8594,122.6406 Q51.0469,122.5313 51.2656,122.5313 Q51.6406,122.5313 51.875,122.7969 Q52.1094,123.0469 52.1094,123.6563 L52.1094,125.1094 Q52.1094,125.7188 51.875,125.9844 Q51.6406,126.25 51.2656,126.25 Q50.9219,126.25 50.7188,126.0469 Q50.5156,125.8594 50.4063,125.3438 Q50.3594,124.9844 50.1719,124.7969 Q49.8438,124.4219 49.2344,124.2031 Q48.625,123.9844 48,123.9844 Q47.2344,123.9844 46.5938,124.3125 Q45.9688,124.6406 45.4688,125.3906 Q44.9844,126.1406 44.9844,127.1719 L44.9844,128.2656 Q44.9844,129.5 45.875,130.3281 Q46.7656,131.1406 48.3594,131.1406 Q49.2969,131.1406 49.9531,130.8906 Q50.3438,130.7344 50.7656,130.2969 Q51.0313,130.0313 51.1719,129.9531 Q51.3281,129.875 51.5313,129.875 Q51.8594,129.875 52.1094,130.1406 Q52.375,130.3906 52.375,130.7344 Q52.375,131.0781 52.0313,131.4844 Q51.5313,132.0625 50.7344,132.3906 Q49.6563,132.8438 48.3594,132.8438 Q46.8438,132.8438 45.6406,132.2188 Q44.6563,131.7188 43.9688,130.6563 Q43.2813,129.5781 43.2813,128.2969 L43.2813,127.1406 Q43.2813,125.8125 43.8906,124.6719 Q44.5156,123.5156 45.6094,122.9063 Q46.7031,122.2813 47.9375,122.2813 Q48.6719,122.2813 49.3125,122.4531 Q49.9688,122.6094 50.5156,122.9688 Z "/><text fill="#000000" font-family="sans-serif" font-size="14" lengthAdjust="spacingAndGlyphs" textLength="97" x="63.25" y="126.5332">DoaTaskGuard</text><text fill="#000000" font-family="sans-serif" font-size="10" lengthAdjust="spacingAndGlyphs" textLength="74" x="74.75" y="139.9902">doa.engine.task</text><line style="stroke: #A80036; stroke-width: 1.5;" x1="27" x2="169" y1="147.1875" y2="147.1875"/><ellipse cx="37" cy="158.1875" fill="#84BE84" rx="3" ry="3" style="stroke: #038048; stroke-width: 1.0;"/><text fill="#000000" font-family="sans-serif" font-size="11" lengthAdjust="spacingAndGlyphs" textLength="80" x="46" y="162.6064">DoaTaskGuard()</text><ellipse cx="37" cy="172.0234" fill="#84BE84" rx="3" ry="3" style="stroke: #038048; stroke-width: 1.0;"/><text fill="#000000" font-family="sans-serif" font-size="11" lengthAdjust="spacingAndGlyphs" textLength="118" x="46" y="176.4424">DoaTaskGuard(boolean)</text></a><!--MD5=[b66f37d9e2e21a5d08b6fce4515b6364]
class java.util.concurrent.atomic.AtomicBoolean--><rect codeLine="10" fill="#FEFECE" filter="url(#fkgu17ba687f7)" height="40.1875" id="java.util.concurrent.atomic.AtomicBoolean" style="stroke: #A80036; stroke-width: 1.5;" width="160" x="18" y="7"/><ellipse cx="33" cy="27.0938" fill="#ADD1B2" rx="11" ry="11" style="stroke: #A80036; stroke-width: 1.0;"/><path d="M35.7656,22.9688 Q35.9219,22.75 36.1094,22.6406 Q36.2969,22.5313 36.5156,22.5313 Q36.8906,22.5313 37.125,22.7969 Q37.3594,23.0469 37.3594,23.6563 L37.3594,25.1094 Q37.3594,25.7188 37.125,25.9844 Q36.8906,26.25 36.5156,26.25 Q36.1719,26.25 35.9688,26.0469 Q35.7656,25.8594 35.6563,25.3438 Q35.6094,24.9844 35.4219,24.7969 Q35.0938,24.4219 34.4844,24.2031 Q33.875,23.9844 33.25,23.9844 Q32.4844,23.9844 31.8438,24.3125 Q31.2188,24.6406 30.7188,25.3906 Q30.2344,26.1406 30.2344,27.1719 L30.2344,28.2656 Q30.2344,29.5 31.125,30.3281 Q32.0156,31.1406 33.6094,31.1406 Q34.5469,31.1406 35.2031,30.8906 Q35.5938,30.7344 36.0156,30.2969 Q36.2813,30.0313 36.4219,29.9531 Q36.5781,29.875 36.7813,29.875 Q37.1094,29.875 37.3594,30.1406 Q37.625,30.3906 37.625,30.7344 Q37.625,31.0781 37.2813,31.4844 Q36.7813,32.0625 35.9844,32.3906 Q34.9063,32.8438 33.6094,32.8438 Q32.0938,32.8438 30.8906,32.2188 Q29.9063,31.7188 29.2188,30.6563 Q28.5313,29.5781 28.5313,28.2969 L28.5313,27.1406 Q28.5313,25.8125 29.1406,24.6719 Q29.7656,23.5156 30.8594,22.9063 Q31.9531,22.2813 33.1875,22.2813 Q33.9219,22.2813 34.5625,22.4531 Q35.2188,22.6094 35.7656,22.9688 Z "/><text fill="#000000" font-family="sans-serif" font-size="14" lengthAdjust="spacingAndGlyphs" textLength="94" x="64" y="26.5332">AtomicBoolean</text><text fill="#000000" font-family="sans-serif" font-size="10" lengthAdjust="spacingAndGlyphs" textLength="128" x="47" y="39.9902">java.util.concurrent.atomic</text><!--MD5=[f326b36e862038fe94f571200c90540d]
reverse link java.util.concurrent.atomic.AtomicBoolean to doa.engine.task.DoaTaskGuard--><path codeLine="12" d="M98,67.49 C98,80.27 98,94.39 98,106.99 " fill="none" id="java.util.concurrent.atomic.AtomicBoolean-backto-doa.engine.task.DoaTaskGuard" style="stroke: #A80036; stroke-width: 1.0;"/><polygon fill="none" points="91,67.16,98,47.16,105,67.16,91,67.16" style="stroke: #A80036; stroke-width: 1.0;"/><text fill="#888888" font-family="sans-serif" font-size="10" lengthAdjust="spacingAndGlyphs" textLength="190" x="0" y="206.2402">UMLDoclet 2.0.12, PlantUML 1.2020.16</text><!--MD5=[423dee1a6ffd572821b612a80c169068]
@startuml
    set namespaceSeparator none
    hide empty fields
    hide empty methods

    class "<size:14>DoaTaskGuard\n<size:10>doa.engine.task" as doa.engine.task.DoaTaskGuard [[DoaTaskGuard.html]] {
        +DoaTaskGuard()
        +DoaTaskGuard(boolean)
    }

    class "<size:14>AtomicBoolean\n<size:10>java.util.concurrent.atomic" as java.util.concurrent.atomic.AtomicBoolean

    java.util.concurrent.atomic.AtomicBoolean <|- - doa.engine.task.DoaTaskGuard

    center footer UMLDoclet 2.0.12, PlantUML 1.2020.16
@enduml

PlantUML version 1.2020.16(Sun Aug 23 23:20:43 TRT 2020)
(APACHE source distribution)
Java Runtime: OpenJDK Runtime Environment
JVM: OpenJDK 64-Bit Server VM
Default Encoding: Cp1252
Language: en
Country: GB
--></g></svg>