<?xml version="1.0" encoding="UTF-8" standalone="no"?><svg xmlns="http://www.w3.org/2000/svg" xmlns:xlink="http://www.w3.org/1999/xlink" contentScriptType="application/ecmascript" contentStyleType="text/css" height="155px" preserveAspectRatio="none" style="width:310px;height:155px;" version="1.1" viewBox="0 0 310 155" width="310px" zoomAndPan="magnify"><defs><filter height="300%" id="f1octalm9t0r6s" width="300%" x="-1" y="-1"><feGaussianBlur result="blurOut" stdDeviation="2.0"/><feColorMatrix in="blurOut" result="blurOut2" type="matrix" values="0 0 0 0 0 0 0 0 0 0 0 0 0 0 0 0 0 0 .4 0"/><feOffset dx="4.0" dy="4.0" in="blurOut2" result="blurOut3"/><feBlend in="SourceGraphic" in2="blurOut3" mode="normal"/></filter></defs><g><!--MD5=[9f6e77d5553efc5753d6ed71c0f31e25]
class doa.engine.task.DoaTasker--><a href="DoaTasker.html" target="_top" title="DoaTasker.html" xlink:actuate="onRequest" xlink:href="DoaTasker.html" xlink:show="new" xlink:title="DoaTasker.html" xlink:type="simple"><rect codeLine="5" fill="#FEFECE" filter="url(#f1octalm9t0r6s)" height="117.3672" id="doa.engine.task.DoaTasker" style="stroke: #A80036; stroke-width: 1.5;" width="284" x="7" y="7"/><ellipse cx="107.75" cy="27.0938" fill="#ADD1B2" rx="11" ry="11" style="stroke: #A80036; stroke-width: 1.0;"/><path d="M110.5156,22.9688 Q110.6719,22.75 110.8594,22.6406 Q111.0469,22.5313 111.2656,22.5313 Q111.6406,22.5313 111.875,22.7969 Q112.1094,23.0469 112.1094,23.6563 L112.1094,25.1094 Q112.1094,25.7188 111.875,25.9844 Q111.6406,26.25 111.2656,26.25 Q110.9219,26.25 110.7188,26.0469 Q110.5156,25.8594 110.4063,25.3438 Q110.3594,24.9844 110.1719,24.7969 Q109.8438,24.4219 109.2344,24.2031 Q108.625,23.9844 108,23.9844 Q107.2344,23.9844 106.5938,24.3125 Q105.9688,24.6406 105.4688,25.3906 Q104.9844,26.1406 104.9844,27.1719 L104.9844,28.2656 Q104.9844,29.5 105.875,30.3281 Q106.7656,31.1406 108.3594,31.1406 Q109.2969,31.1406 109.9531,30.8906 Q110.3438,30.7344 110.7656,30.2969 Q111.0313,30.0313 111.1719,29.9531 Q111.3281,29.875 111.5313,29.875 Q111.8594,29.875 112.1094,30.1406 Q112.375,30.3906 112.375,30.7344 Q112.375,31.0781 112.0313,31.4844 Q111.5313,32.0625 110.7344,32.3906 Q109.6563,32.8438 108.3594,32.8438 Q106.8438,32.8438 105.6406,32.2188 Q104.6563,31.7188 103.9688,30.6563 Q103.2813,29.5781 103.2813,28.2969 L103.2813,27.1406 Q103.2813,25.8125 103.8906,24.6719 Q104.5156,23.5156 105.6094,22.9063 Q106.7031,22.2813 107.9375,22.2813 Q108.6719,22.2813 109.3125,22.4531 Q109.9688,22.6094 110.5156,22.9688 Z "/><text fill="#000000" font-family="sans-serif" font-size="14" lengthAdjust="spacingAndGlyphs" textLength="70" x="130.25" y="26.5332">DoaTasker</text><text fill="#000000" font-family="sans-serif" font-size="10" lengthAdjust="spacingAndGlyphs" textLength="74" x="128.25" y="39.9902">doa.engine.task</text><line style="stroke: #A80036; stroke-width: 1.5;" x1="8" x2="290" y1="47.1875" y2="47.1875"/><ellipse cx="18" cy="58.1875" fill="#84BE84" rx="3" ry="3" style="stroke: #038048; stroke-width: 1.0;"/><text fill="#000000" font-family="sans-serif" font-size="11" lengthAdjust="spacingAndGlyphs" text-decoration="underline" textLength="160" x="27" y="62.6064">guard(DoaTaskGuard, long): void</text><ellipse cx="18" cy="72.0234" fill="#84BE84" rx="3" ry="3" style="stroke: #038048; stroke-width: 1.0;"/><text fill="#000000" font-family="sans-serif" font-size="11" lengthAdjust="spacingAndGlyphs" text-decoration="underline" textLength="258" x="27" y="76.4424">guardExecution(Runnable, DoaTaskGuard, long): void</text><ellipse cx="18" cy="85.8594" fill="#84BE84" rx="3" ry="3" style="stroke: #038048; stroke-width: 1.0;"/><text fill="#000000" font-family="sans-serif" font-size="11" lengthAdjust="spacingAndGlyphs" text-decoration="underline" textLength="141" x="27" y="90.2783">executeNow(Runnable): void</text><ellipse cx="18" cy="99.6953" fill="#84BE84" rx="3" ry="3" style="stroke: #038048; stroke-width: 1.0;"/><text fill="#000000" font-family="sans-serif" font-size="11" lengthAdjust="spacingAndGlyphs" text-decoration="underline" textLength="236" x="27" y="104.1143">executeAndWait(Runnable, Runnable, long): void</text><ellipse cx="18" cy="113.5313" fill="#84BE84" rx="3" ry="3" style="stroke: #038048; stroke-width: 1.0;"/><text fill="#000000" font-family="sans-serif" font-size="11" lengthAdjust="spacingAndGlyphs" text-decoration="underline" textLength="169" x="27" y="117.9502">executeLater(Runnable, long): void</text></a><text fill="#888888" font-family="sans-serif" font-size="10" lengthAdjust="spacingAndGlyphs" textLength="190" x="54" y="141.748">UMLDoclet 2.0.12, PlantUML 1.2020.16</text><!--MD5=[a9b9c1aacbf2eb8f19e26cc267d7cab1]
@startuml
    set namespaceSeparator none
    hide empty fields
    hide empty methods

    class "<size:14>DoaTasker\n<size:10>doa.engine.task" as doa.engine.task.DoaTasker [[DoaTasker.html]] {
        {static} +guard(DoaTaskGuard, long): void
        {static} +guardExecution(Runnable, DoaTaskGuard, long): void
        {static} +executeNow(Runnable): void
        {static} +executeAndWait(Runnable, Runnable, long): void
        {static} +executeLater(Runnable, long): void
    }

    center footer UMLDoclet 2.0.12, PlantUML 1.2020.16
@enduml

PlantUML version 1.2020.16(Sun Aug 23 23:20:43 TRT 2020)
(APACHE source distribution)
Java Runtime: Java(TM) SE Runtime Environment
JVM: Java HotSpot(TM) 64-Bit Server VM
Default Encoding: Cp1254
Language: en
Country: US
--></g></svg>