<svg xmlns="http://www.w3.org/2000/svg" xmlns:xlink="http://www.w3.org/1999/xlink" width="533" height="328" contentScriptType="application/ecmascript" contentStyleType="text/css" style="width:533px;height:328px" preserveAspectRatio="none" version="1.1" viewBox="0 0 533 328" zoomAndPan="magnify"><defs><filter id="f163dg00ocrn1w" width="300%" height="300%" x="-1" y="-1"><feGaussianBlur result="blurOut" stdDeviation="2"/><feColorMatrix in="blurOut" result="blurOut2" type="matrix" values="0 0 0 0 0 0 0 0 0 0 0 0 0 0 0 0 0 0 .4 0"/><feOffset dx="4" dy="4" in="blurOut2" result="blurOut3"/><feBlend in="SourceGraphic" in2="blurOut3" mode="normal"/></filter></defs><g><polygon fill="#FFF" points="16 130 134 130 141 153.609 511 153.609 511 299 16 299 16 130" filter="url(#f163dg00ocrn1w)" style="stroke:#000;stroke-width:1.5"/><line style="stroke:#000;stroke-width:1.5" x1="16" x2="141" y1="153.609" y2="153.609"/><text x="20" y="146.533" fill="#000" font-family="sans-serif" font-size="14" font-weight="bold" lengthAdjust="spacingAndGlyphs" textLength="112">doa.engine.task</text><polygon fill="#FFF" points="23 6 216 6 223 29.609 226 29.609 226 106 23 106 23 6" filter="url(#f163dg00ocrn1w)" style="stroke:#000;stroke-width:1.5"/><line style="stroke:#000;stroke-width:1.5" x1="23" x2="223" y1="29.609" y2="29.609"/><text x="27" y="22.533" fill="#000" font-family="sans-serif" font-size="14" font-weight="bold" lengthAdjust="spacingAndGlyphs" textLength="187">java.util.concurrent.atomic</text><a href="DoaTasker.html" target="_top" title="DoaTasker.html" xlink:actuate="onRequest" xlink:href="DoaTasker.html" xlink:show="new" xlink:title="DoaTasker.html" xlink:type="simple"><rect id="doa.engine.task.DoaTasker" width="284" height="117.18" x="211" y="166" fill="#FEFECE" codeLine="3" filter="url(#f163dg00ocrn1w)" style="stroke:#a80036;stroke-width:1.5"/><ellipse cx="318.25" cy="182" fill="#ADD1B2" rx="11" ry="11" style="stroke:#a80036;stroke-width:1"/><path d="M321.0156,177.875 Q321.1719,177.6563 321.3594,177.5469 Q321.5469,177.4375 321.7656,177.4375 Q322.1406,177.4375 322.375,177.7031 Q322.6094,177.9531 322.6094,178.5625 L322.6094,180.0156 Q322.6094,180.625 322.375,180.8906 Q322.1406,181.1563 321.7656,181.1563 Q321.4219,181.1563 321.2188,180.9531 Q321.0156,180.7656 320.9063,180.25 Q320.8594,179.8906 320.6719,179.7031 Q320.3438,179.3281 319.7344,179.1094 Q319.125,178.8906 318.5,178.8906 Q317.7344,178.8906 317.0938,179.2188 Q316.4688,179.5469 315.9688,180.2969 Q315.4844,181.0469 315.4844,182.0781 L315.4844,183.1719 Q315.4844,184.4063 316.375,185.2344 Q317.2656,186.0469 318.8594,186.0469 Q319.7969,186.0469 320.4531,185.7969 Q320.8438,185.6406 321.2656,185.2031 Q321.5313,184.9375 321.6719,184.8594 Q321.8281,184.7813 322.0313,184.7813 Q322.3594,184.7813 322.6094,185.0469 Q322.875,185.2969 322.875,185.6406 Q322.875,185.9844 322.5313,186.3906 Q322.0313,186.9688 321.2344,187.2969 Q320.1563,187.75 318.8594,187.75 Q317.3438,187.75 316.1406,187.125 Q315.1563,186.625 314.4688,185.5625 Q313.7813,184.4844 313.7813,183.2031 L313.7813,182.0469 Q313.7813,180.7188 314.3906,179.5781 Q315.0156,178.4219 316.1094,177.8125 Q317.2031,177.1875 318.4375,177.1875 Q319.1719,177.1875 319.8125,177.3594 Q320.4688,177.5156 321.0156,177.875 Z"/><text x="338.75" y="186.91" fill="#000" font-family="sans-serif" font-size="12" lengthAdjust="spacingAndGlyphs" textLength="61">DoaTasker</text><line style="stroke:#a80036;stroke-width:1.5" x1="212" x2="494" y1="198" y2="198"/><line style="stroke:#a80036;stroke-width:1.5" x1="212" x2="494" y1="206" y2="206"/><ellipse cx="222" cy="217" fill="#84BE84" rx="3" ry="3" style="stroke:#038048;stroke-width:1"/><text x="231" y="221.419" fill="#000" font-family="sans-serif" font-size="11" lengthAdjust="spacingAndGlyphs" text-decoration="underline" textLength="160">guard(DoaTaskGuard, long): void</text><ellipse cx="222" cy="230.836" fill="#84BE84" rx="3" ry="3" style="stroke:#038048;stroke-width:1"/><text x="231" y="235.255" fill="#000" font-family="sans-serif" font-size="11" lengthAdjust="spacingAndGlyphs" text-decoration="underline" textLength="258">guardExecution(Runnable, DoaTaskGuard, long): void</text><ellipse cx="222" cy="244.672" fill="#84BE84" rx="3" ry="3" style="stroke:#038048;stroke-width:1"/><text x="231" y="249.091" fill="#000" font-family="sans-serif" font-size="11" lengthAdjust="spacingAndGlyphs" text-decoration="underline" textLength="141">executeNow(Runnable): void</text><ellipse cx="222" cy="258.508" fill="#84BE84" rx="3" ry="3" style="stroke:#038048;stroke-width:1"/><text x="231" y="262.927" fill="#000" font-family="sans-serif" font-size="11" lengthAdjust="spacingAndGlyphs" text-decoration="underline" textLength="236">executeAndWait(Runnable, Runnable, long): void</text><ellipse cx="222" cy="272.344" fill="#84BE84" rx="3" ry="3" style="stroke:#038048;stroke-width:1"/><text x="231" y="276.763" fill="#000" font-family="sans-serif" font-size="11" lengthAdjust="spacingAndGlyphs" text-decoration="underline" textLength="169">executeLater(Runnable, long): void</text></a><a href="DoaTaskGuard.html" target="_top" title="DoaTaskGuard.html" xlink:actuate="onRequest" xlink:href="DoaTaskGuard.html" xlink:show="new" xlink:title="DoaTaskGuard.html" xlink:type="simple"><rect id="doa.engine.task.DoaTaskGuard" width="144" height="75.672" x="32" y="186.5" fill="#FEFECE" codeLine="11" filter="url(#f163dg00ocrn1w)" style="stroke:#a80036;stroke-width:1.5"/><ellipse cx="59.6" cy="202.5" fill="#ADD1B2" rx="11" ry="11" style="stroke:#a80036;stroke-width:1"/><path d="M62.3656,198.375 Q62.5219,198.1563 62.7094,198.0469 Q62.8969,197.9375 63.1156,197.9375 Q63.4906,197.9375 63.725,198.2031 Q63.9594,198.4531 63.9594,199.0625 L63.9594,200.5156 Q63.9594,201.125 63.725,201.3906 Q63.4906,201.6563 63.1156,201.6563 Q62.7719,201.6563 62.5688,201.4531 Q62.3656,201.2656 62.2563,200.75 Q62.2094,200.3906 62.0219,200.2031 Q61.6938,199.8281 61.0844,199.6094 Q60.475,199.3906 59.85,199.3906 Q59.0844,199.3906 58.4438,199.7188 Q57.8188,200.0469 57.3188,200.7969 Q56.8344,201.5469 56.8344,202.5781 L56.8344,203.6719 Q56.8344,204.9063 57.725,205.7344 Q58.6156,206.5469 60.2094,206.5469 Q61.1469,206.5469 61.8031,206.2969 Q62.1938,206.1406 62.6156,205.7031 Q62.8813,205.4375 63.0219,205.3594 Q63.1781,205.2813 63.3813,205.2813 Q63.7094,205.2813 63.9594,205.5469 Q64.225,205.7969 64.225,206.1406 Q64.225,206.4844 63.8813,206.8906 Q63.3813,207.4688 62.5844,207.7969 Q61.5063,208.25 60.2094,208.25 Q58.6938,208.25 57.4906,207.625 Q56.5063,207.125 55.8188,206.0625 Q55.1313,204.9844 55.1313,203.7031 L55.1313,202.5469 Q55.1313,201.2188 55.7406,200.0781 Q56.3656,198.9219 57.4594,198.3125 Q58.5531,197.6875 59.7875,197.6875 Q60.5219,197.6875 61.1625,197.8594 Q61.8188,198.0156 62.3656,198.375 Z"/><text x="76.4" y="207.41" fill="#000" font-family="sans-serif" font-size="12" lengthAdjust="spacingAndGlyphs" textLength="84">DoaTaskGuard</text><line style="stroke:#a80036;stroke-width:1.5" x1="33" x2="175" y1="218.5" y2="218.5"/><line style="stroke:#a80036;stroke-width:1.5" x1="33" x2="175" y1="226.5" y2="226.5"/><ellipse cx="43" cy="237.5" fill="#84BE84" rx="3" ry="3" style="stroke:#038048;stroke-width:1"/><text x="52" y="241.919" fill="#000" font-family="sans-serif" font-size="11" lengthAdjust="spacingAndGlyphs" textLength="80">DoaTaskGuard()</text><ellipse cx="43" cy="251.336" fill="#84BE84" rx="3" ry="3" style="stroke:#038048;stroke-width:1"/><text x="52" y="255.755" fill="#000" font-family="sans-serif" font-size="11" lengthAdjust="spacingAndGlyphs" textLength="118">DoaTaskGuard(boolean)</text></a><rect id="java.util.concurrent.atomic.AtomicBoolean" width="115" height="48" x="46.5" y="42" fill="#FEFECE" codeLine="20" filter="url(#f163dg00ocrn1w)" style="stroke:#a80036;stroke-width:1.5"/><ellipse cx="61.5" cy="58" fill="#ADD1B2" rx="11" ry="11" style="stroke:#a80036;stroke-width:1"/><path d="M64.2656,53.875 Q64.4219,53.6563 64.6094,53.5469 Q64.7969,53.4375 65.0156,53.4375 Q65.3906,53.4375 65.625,53.7031 Q65.8594,53.9531 65.8594,54.5625 L65.8594,56.0156 Q65.8594,56.625 65.625,56.8906 Q65.3906,57.1563 65.0156,57.1563 Q64.6719,57.1563 64.4688,56.9531 Q64.2656,56.7656 64.1563,56.25 Q64.1094,55.8906 63.9219,55.7031 Q63.5938,55.3281 62.9844,55.1094 Q62.375,54.8906 61.75,54.8906 Q60.9844,54.8906 60.3438,55.2188 Q59.7188,55.5469 59.2188,56.2969 Q58.7344,57.0469 58.7344,58.0781 L58.7344,59.1719 Q58.7344,60.4063 59.625,61.2344 Q60.5156,62.0469 62.1094,62.0469 Q63.0469,62.0469 63.7031,61.7969 Q64.0938,61.6406 64.5156,61.2031 Q64.7813,60.9375 64.9219,60.8594 Q65.0781,60.7813 65.2813,60.7813 Q65.6094,60.7813 65.8594,61.0469 Q66.125,61.2969 66.125,61.6406 Q66.125,61.9844 65.7813,62.3906 Q65.2813,62.9688 64.4844,63.2969 Q63.4063,63.75 62.1094,63.75 Q60.5938,63.75 59.3906,63.125 Q58.4063,62.625 57.7188,61.5625 Q57.0313,60.4844 57.0313,59.2031 L57.0313,58.0469 Q57.0313,56.7188 57.6406,55.5781 Q58.2656,54.4219 59.3594,53.8125 Q60.4531,53.1875 61.6875,53.1875 Q62.4219,53.1875 63.0625,53.3594 Q63.7188,53.5156 64.2656,53.875 Z"/><text x="75.5" y="62.91" fill="#000" font-family="sans-serif" font-size="12" lengthAdjust="spacingAndGlyphs" textLength="83">AtomicBoolean</text><line style="stroke:#a80036;stroke-width:1.5" x1="47.5" x2="160.5" y1="74" y2="74"/><line style="stroke:#a80036;stroke-width:1.5" x1="47.5" x2="160.5" y1="82" y2="82"/><path id="java.util.concurrent.atomic.AtomicBoolean-backto-doa.engine.task.DoaTaskGuard" fill="none" d="M104,110.15 C104,134.05 104,163.47 104,186.34" codeLine="16" style="stroke:#a80036;stroke-width:1"/><polygon fill="none" points="97 110.09 104 90.09 111 110.09 97 110.09" style="stroke:#a80036;stroke-width:1"/><text x="162.5" y="315.381" fill="#888" font-family="sans-serif" font-size="10" lengthAdjust="spacingAndGlyphs" textLength="190">UMLDoclet 2.0.12, PlantUML 1.2020.16</text></g></svg>