<?xml version="1.0" encoding="UTF-8" standalone="no"?><svg xmlns="http://www.w3.org/2000/svg" xmlns:xlink="http://www.w3.org/1999/xlink" contentScriptType="application/ecmascript" contentStyleType="text/css" height="163px" preserveAspectRatio="none" style="width:370px;height:163px;" version="1.1" viewBox="0 0 370 163" width="370px" zoomAndPan="magnify"><defs><filter height="300%" id="f1vo5piegz58xx" width="300%" x="-1" y="-1"><feGaussianBlur result="blurOut" stdDeviation="2.0"/><feColorMatrix in="blurOut" result="blurOut2" type="matrix" values="0 0 0 0 0 0 0 0 0 0 0 0 0 0 0 0 0 0 .4 0"/><feOffset dx="4.0" dy="4.0" in="blurOut2" result="blurOut3"/><feBlend in="SourceGraphic" in2="blurOut3" mode="normal"/></filter></defs><g><!--MD5=[d17d7f71641e7766dd4e240d7adbaed1]
class doa.engine.graphics.DoaAnimations--><a href="DoaAnimations.html" target="_top" title="DoaAnimations.html" xlink:actuate="onRequest" xlink:href="DoaAnimations.html" xlink:show="new" xlink:title="DoaAnimations.html" xlink:type="simple"><rect codeLine="5" fill="#FEFECE" filter="url(#f1vo5piegz58xx)" height="125.3672" id="doa.engine.graphics.DoaAnimations" style="stroke: #A80036; stroke-width: 1.5;" width="344" x="7" y="7"/><ellipse cx="126.25" cy="27.0938" fill="#ADD1B2" rx="11" ry="11" style="stroke: #A80036; stroke-width: 1.0;"/><path d="M129.0156,22.9688 Q129.1719,22.75 129.3594,22.6406 Q129.5469,22.5313 129.7656,22.5313 Q130.1406,22.5313 130.375,22.7969 Q130.6094,23.0469 130.6094,23.6563 L130.6094,25.1094 Q130.6094,25.7188 130.375,25.9844 Q130.1406,26.25 129.7656,26.25 Q129.4219,26.25 129.2188,26.0469 Q129.0156,25.8594 128.9063,25.3438 Q128.8594,24.9844 128.6719,24.7969 Q128.3438,24.4219 127.7344,24.2031 Q127.125,23.9844 126.5,23.9844 Q125.7344,23.9844 125.0938,24.3125 Q124.4688,24.6406 123.9688,25.3906 Q123.4844,26.1406 123.4844,27.1719 L123.4844,28.2656 Q123.4844,29.5 124.375,30.3281 Q125.2656,31.1406 126.8594,31.1406 Q127.7969,31.1406 128.4531,30.8906 Q128.8438,30.7344 129.2656,30.2969 Q129.5313,30.0313 129.6719,29.9531 Q129.8281,29.875 130.0313,29.875 Q130.3594,29.875 130.6094,30.1406 Q130.875,30.3906 130.875,30.7344 Q130.875,31.0781 130.5313,31.4844 Q130.0313,32.0625 129.2344,32.3906 Q128.1563,32.8438 126.8594,32.8438 Q125.3438,32.8438 124.1406,32.2188 Q123.1563,31.7188 122.4688,30.6563 Q121.7813,29.5781 121.7813,28.2969 L121.7813,27.1406 Q121.7813,25.8125 122.3906,24.6719 Q123.0156,23.5156 124.1094,22.9063 Q125.2031,22.2813 126.4375,22.2813 Q127.1719,22.2813 127.8125,22.4531 Q128.4688,22.6094 129.0156,22.9688 Z "/><text fill="#000000" font-family="sans-serif" font-size="14" lengthAdjust="spacingAndGlyphs" textLength="95" x="147.75" y="26.5332">DoaAnimations</text><text fill="#000000" font-family="sans-serif" font-size="10" lengthAdjust="spacingAndGlyphs" textLength="97" x="146.75" y="39.9902">doa.engine.graphics</text><line style="stroke: #A80036; stroke-width: 1.5;" x1="8" x2="350" y1="47.1875" y2="47.1875"/><ellipse cx="18" cy="58.1875" fill="none" rx="3" ry="3" style="stroke: #038048; stroke-width: 1.0;"/><text fill="#000000" font-family="sans-serif" font-size="11" lengthAdjust="spacingAndGlyphs" text-decoration="underline" textLength="255" x="27" y="62.6064">ORIGINAL_ANIMATIONS: Map&lt;String, DoaAnimation&gt;</text><ellipse cx="18" cy="72.0234" fill="none" rx="3" ry="3" style="stroke: #038048; stroke-width: 1.0;"/><text fill="#000000" font-family="sans-serif" font-size="11" lengthAdjust="spacingAndGlyphs" text-decoration="underline" textLength="249" x="27" y="76.4424">SHADED_ANIMATIONS: Map&lt;String, DoaAnimation&gt;</text><line style="stroke: #A80036; stroke-width: 1.5;" x1="8" x2="350" y1="82.8594" y2="82.8594"/><ellipse cx="18" cy="93.8594" fill="#84BE84" rx="3" ry="3" style="stroke: #038048; stroke-width: 1.0;"/><text fill="#000000" font-family="sans-serif" font-size="11" lengthAdjust="spacingAndGlyphs" text-decoration="underline" textLength="246" x="27" y="98.2783">createAnimation(String, String, long): DoaAnimation</text><ellipse cx="18" cy="107.6953" fill="#84BE84" rx="3" ry="3" style="stroke: #038048; stroke-width: 1.0;"/><text fill="#000000" font-family="sans-serif" font-size="11" lengthAdjust="spacingAndGlyphs" text-decoration="underline" textLength="318" x="27" y="112.1143">createAnimation(String, List&lt;BufferedImage&gt;, long): DoaAnimation</text><ellipse cx="18" cy="121.5313" fill="#84BE84" rx="3" ry="3" style="stroke: #038048; stroke-width: 1.0;"/><text fill="#000000" font-family="sans-serif" font-size="11" lengthAdjust="spacingAndGlyphs" text-decoration="underline" textLength="170" x="27" y="125.9502">getAnimation(String): DoaAnimation</text></a><text fill="#888888" font-family="sans-serif" font-size="10" lengthAdjust="spacingAndGlyphs" textLength="190" x="84" y="149.748">UMLDoclet 2.0.12, PlantUML 1.2020.16</text><!--MD5=[4e0f7565f911b9ae45ce8842285d0894]
@startuml
    set namespaceSeparator none
    hide empty fields
    hide empty methods

    class "<size:14>DoaAnimations\n<size:10>doa.engine.graphics" as doa.engine.graphics.DoaAnimations [[DoaAnimations.html]] {
        {static} +ORIGINAL_ANIMATIONS: Map<String, DoaAnimation>
        {static} +SHADED_ANIMATIONS: Map<String, DoaAnimation>
        {static} +createAnimation(String, String, long): DoaAnimation
        {static} +createAnimation(String, List<BufferedImage>, long): DoaAnimation
        {static} +getAnimation(String): DoaAnimation
    }

    center footer UMLDoclet 2.0.12, PlantUML 1.2020.16
@enduml

PlantUML version 1.2020.16(Sun Aug 23 23:20:43 TRT 2020)
(APACHE source distribution)
Java Runtime: OpenJDK Runtime Environment
JVM: OpenJDK 64-Bit Server VM
Default Encoding: Cp1252
Language: en
Country: GB
--></g></svg>