<?xml version="1.0" encoding="UTF-8" standalone="no"?><svg xmlns="http://www.w3.org/2000/svg" xmlns:xlink="http://www.w3.org/1999/xlink" contentScriptType="application/ecmascript" contentStyleType="text/css" height="182px" preserveAspectRatio="none" style="width:217px;height:182px;" version="1.1" viewBox="0 0 217 182" width="217px" zoomAndPan="magnify"><defs><filter height="300%" id="f3l2vipfdrj5i" width="300%" x="-1" y="-1"><feGaussianBlur result="blurOut" stdDeviation="2.0"/><feColorMatrix in="blurOut" result="blurOut2" type="matrix" values="0 0 0 0 0 0 0 0 0 0 0 0 0 0 0 0 0 0 .4 0"/><feOffset dx="4.0" dy="4.0" in="blurOut2" result="blurOut3"/><feBlend in="SourceGraphic" in2="blurOut3" mode="normal"/></filter></defs><g><!--MD5=[a6201333649cd02adbab7181ea8c00a9]
class doa.engine.graphics.DoaAnimation--><a href="DoaAnimation.html" target="_top" title="DoaAnimation.html" xlink:actuate="onRequest" xlink:href="DoaAnimation.html" xlink:show="new" xlink:title="DoaAnimation.html" xlink:type="simple"><rect codeLine="5" fill="#FEFECE" filter="url(#f3l2vipfdrj5i)" height="145.0391" id="doa.engine.graphics.DoaAnimation" style="stroke: #A80036; stroke-width: 1.5;" width="191" x="7" y="7"/><ellipse cx="49.9" cy="27.0938" fill="#ADD1B2" rx="11" ry="11" style="stroke: #A80036; stroke-width: 1.0;"/><path d="M52.6656,22.9688 Q52.8219,22.75 53.0094,22.6406 Q53.1969,22.5313 53.4156,22.5313 Q53.7906,22.5313 54.025,22.7969 Q54.2594,23.0469 54.2594,23.6563 L54.2594,25.1094 Q54.2594,25.7188 54.025,25.9844 Q53.7906,26.25 53.4156,26.25 Q53.0719,26.25 52.8688,26.0469 Q52.6656,25.8594 52.5563,25.3438 Q52.5094,24.9844 52.3219,24.7969 Q51.9938,24.4219 51.3844,24.2031 Q50.775,23.9844 50.15,23.9844 Q49.3844,23.9844 48.7438,24.3125 Q48.1188,24.6406 47.6188,25.3906 Q47.1344,26.1406 47.1344,27.1719 L47.1344,28.2656 Q47.1344,29.5 48.025,30.3281 Q48.9156,31.1406 50.5094,31.1406 Q51.4469,31.1406 52.1031,30.8906 Q52.4938,30.7344 52.9156,30.2969 Q53.1813,30.0313 53.3219,29.9531 Q53.4781,29.875 53.6813,29.875 Q54.0094,29.875 54.2594,30.1406 Q54.525,30.3906 54.525,30.7344 Q54.525,31.0781 54.1813,31.4844 Q53.6813,32.0625 52.8844,32.3906 Q51.8063,32.8438 50.5094,32.8438 Q48.9938,32.8438 47.7906,32.2188 Q46.8063,31.7188 46.1188,30.6563 Q45.4313,29.5781 45.4313,28.2969 L45.4313,27.1406 Q45.4313,25.8125 46.0406,24.6719 Q46.6656,23.5156 47.7594,22.9063 Q48.8531,22.2813 50.0875,22.2813 Q50.8219,22.2813 51.4625,22.4531 Q52.1188,22.6094 52.6656,22.9688 Z "/><text fill="#000000" font-family="sans-serif" font-size="14" lengthAdjust="spacingAndGlyphs" textLength="88" x="74.6" y="26.5332">DoaAnimation</text><text fill="#000000" font-family="sans-serif" font-size="10" lengthAdjust="spacingAndGlyphs" textLength="97" x="70.1" y="39.9902">doa.engine.graphics</text><line style="stroke: #A80036; stroke-width: 1.5;" x1="8" x2="197" y1="47.1875" y2="47.1875"/><ellipse cx="18" cy="58.1875" fill="#84BE84" rx="3" ry="3" style="stroke: #038048; stroke-width: 1.0;"/><text fill="#000000" font-family="sans-serif" font-size="11" lengthAdjust="spacingAndGlyphs" textLength="165" x="27" y="62.6064">getFrames(): List&lt;BufferedImage&gt;</text><ellipse cx="18" cy="72.0234" fill="#84BE84" rx="3" ry="3" style="stroke: #038048; stroke-width: 1.0;"/><text fill="#000000" font-family="sans-serif" font-size="11" lengthAdjust="spacingAndGlyphs" textLength="76" x="27" y="76.4424">getDelay(): long</text><ellipse cx="18" cy="85.8594" fill="#84BE84" rx="3" ry="3" style="stroke: #038048; stroke-width: 1.0;"/><text fill="#000000" font-family="sans-serif" font-size="11" lengthAdjust="spacingAndGlyphs" textLength="98" x="27" y="90.2783">getFrameCount(): int</text><ellipse cx="18" cy="99.6953" fill="#84BE84" rx="3" ry="3" style="stroke: #038048; stroke-width: 1.0;"/><text fill="#000000" font-family="sans-serif" font-size="11" lengthAdjust="spacingAndGlyphs" textLength="120" x="27" y="104.1143">current(): BufferedImage</text><ellipse cx="18" cy="113.5313" fill="#84BE84" rx="3" ry="3" style="stroke: #038048; stroke-width: 1.0;"/><text fill="#000000" font-family="sans-serif" font-size="11" lengthAdjust="spacingAndGlyphs" textLength="106" x="27" y="117.9502">next(): BufferedImage</text><ellipse cx="18" cy="127.3672" fill="#84BE84" rx="3" ry="3" style="stroke: #038048; stroke-width: 1.0;"/><text fill="#000000" font-family="sans-serif" font-size="11" lengthAdjust="spacingAndGlyphs" textLength="59" x="27" y="131.7861">reset(): void</text><ellipse cx="18" cy="141.2031" fill="#84BE84" rx="3" ry="3" style="stroke: #038048; stroke-width: 1.0;"/><text fill="#000000" font-family="sans-serif" font-size="11" lengthAdjust="spacingAndGlyphs" textLength="66" x="27" y="145.6221">getIndex(): int</text></a><text fill="#888888" font-family="sans-serif" font-size="10" lengthAdjust="spacingAndGlyphs" textLength="190" x="7.5" y="169.4199">UMLDoclet 2.0.12, PlantUML 1.2020.16</text><!--MD5=[4aa6f03d0aa87c8d665c2bcbb2a37a1d]
@startuml
    set namespaceSeparator none
    hide empty fields
    hide empty methods

    class "<size:14>DoaAnimation\n<size:10>doa.engine.graphics" as doa.engine.graphics.DoaAnimation [[DoaAnimation.html]] {
        +getFrames(): List<BufferedImage>
        +getDelay(): long
        +getFrameCount(): int
        +current(): BufferedImage
        +next(): BufferedImage
        +reset(): void
        +getIndex(): int
    }

    center footer UMLDoclet 2.0.12, PlantUML 1.2020.16
@enduml

PlantUML version 1.2020.16(Sun Aug 23 23:20:43 TRT 2020)
(APACHE source distribution)
Java Runtime: OpenJDK Runtime Environment
JVM: OpenJDK 64-Bit Server VM
Default Encoding: Cp1252
Language: en
Country: GB
--></g></svg>