<?xml version="1.0" encoding="UTF-8" standalone="no"?><svg xmlns="http://www.w3.org/2000/svg" xmlns:xlink="http://www.w3.org/1999/xlink" contentScriptType="application/ecmascript" contentStyleType="text/css" height="135px" preserveAspectRatio="none" style="width:202px;height:135px;" version="1.1" viewBox="0 0 202 135" width="202px" zoomAndPan="magnify"><defs><filter height="300%" id="fbs56nu0fovnm" width="300%" x="-1" y="-1"><feGaussianBlur result="blurOut" stdDeviation="2.0"/><feColorMatrix in="blurOut" result="blurOut2" type="matrix" values="0 0 0 0 0 0 0 0 0 0 0 0 0 0 0 0 0 0 .4 0"/><feOffset dx="4.0" dy="4.0" in="blurOut2" result="blurOut3"/><feBlend in="SourceGraphic" in2="blurOut3" mode="normal"/></filter></defs><g><!--MD5=[307bd13b1f1d365583cfaa322ba59a9e]
class doa.engine.graphics.DoaFonts--><a href="DoaFonts.html" target="_top" title="DoaFonts.html" xlink:actuate="onRequest" xlink:href="DoaFonts.html" xlink:show="new" xlink:title="DoaFonts.html" xlink:type="simple"><rect codeLine="5" fill="#FEFECE" filter="url(#fbs56nu0fovnm)" height="97.6953" id="doa.engine.graphics.DoaFonts" style="stroke: #A80036; stroke-width: 1.5;" width="175" x="7.5" y="7"/><ellipse cx="43.2" cy="27.0938" fill="#ADD1B2" rx="11" ry="11" style="stroke: #A80036; stroke-width: 1.0;"/><path d="M45.9656,22.9688 Q46.1219,22.75 46.3094,22.6406 Q46.4969,22.5313 46.7156,22.5313 Q47.0906,22.5313 47.325,22.7969 Q47.5594,23.0469 47.5594,23.6563 L47.5594,25.1094 Q47.5594,25.7188 47.325,25.9844 Q47.0906,26.25 46.7156,26.25 Q46.3719,26.25 46.1688,26.0469 Q45.9656,25.8594 45.8563,25.3438 Q45.8094,24.9844 45.6219,24.7969 Q45.2938,24.4219 44.6844,24.2031 Q44.075,23.9844 43.45,23.9844 Q42.6844,23.9844 42.0438,24.3125 Q41.4188,24.6406 40.9188,25.3906 Q40.4344,26.1406 40.4344,27.1719 L40.4344,28.2656 Q40.4344,29.5 41.325,30.3281 Q42.2156,31.1406 43.8094,31.1406 Q44.7469,31.1406 45.4031,30.8906 Q45.7938,30.7344 46.2156,30.2969 Q46.4813,30.0313 46.6219,29.9531 Q46.7781,29.875 46.9813,29.875 Q47.3094,29.875 47.5594,30.1406 Q47.825,30.3906 47.825,30.7344 Q47.825,31.0781 47.4813,31.4844 Q46.9813,32.0625 46.1844,32.3906 Q45.1063,32.8438 43.8094,32.8438 Q42.2938,32.8438 41.0906,32.2188 Q40.1063,31.7188 39.4188,30.6563 Q38.7313,29.5781 38.7313,28.2969 L38.7313,27.1406 Q38.7313,25.8125 39.3406,24.6719 Q39.9656,23.5156 41.0594,22.9063 Q42.1531,22.2813 43.3875,22.2813 Q44.1219,22.2813 44.7625,22.4531 Q45.4188,22.6094 45.9656,22.9688 Z "/><text fill="#000000" font-family="sans-serif" font-size="14" lengthAdjust="spacingAndGlyphs" textLength="62" x="79.3" y="26.5332">DoaFonts</text><text fill="#000000" font-family="sans-serif" font-size="10" lengthAdjust="spacingAndGlyphs" textLength="97" x="61.8" y="39.9902">doa.engine.graphics</text><line style="stroke: #A80036; stroke-width: 1.5;" x1="8.5" x2="181.5" y1="47.1875" y2="47.1875"/><ellipse cx="18.5" cy="58.1875" fill="none" rx="3" ry="3" style="stroke: #038048; stroke-width: 1.0;"/><text fill="#000000" font-family="sans-serif" font-size="11" lengthAdjust="spacingAndGlyphs" text-decoration="underline" textLength="127" x="27.5" y="62.6064">FONTS: Map&lt;String, Font&gt;</text><line style="stroke: #A80036; stroke-width: 1.5;" x1="8.5" x2="181.5" y1="69.0234" y2="69.0234"/><ellipse cx="18.5" cy="80.0234" fill="#84BE84" rx="3" ry="3" style="stroke: #038048; stroke-width: 1.0;"/><text fill="#000000" font-family="sans-serif" font-size="11" lengthAdjust="spacingAndGlyphs" text-decoration="underline" textLength="149" x="27.5" y="84.4424">createFont(String, String): Font</text><ellipse cx="18.5" cy="93.8594" fill="#84BE84" rx="3" ry="3" style="stroke: #038048; stroke-width: 1.0;"/><text fill="#000000" font-family="sans-serif" font-size="11" lengthAdjust="spacingAndGlyphs" text-decoration="underline" textLength="99" x="27.5" y="98.2783">getFont(String): Font</text></a><text fill="#888888" font-family="sans-serif" font-size="10" lengthAdjust="spacingAndGlyphs" textLength="190" x="0" y="122.0762">UMLDoclet 2.0.12, PlantUML 1.2020.16</text><!--MD5=[5c708abfcceb597a9aac84e825e6e19b]
@startuml
    set namespaceSeparator none
    hide empty fields
    hide empty methods

    class "<size:14>DoaFonts\n<size:10>doa.engine.graphics" as doa.engine.graphics.DoaFonts [[DoaFonts.html]] {
        {static} +FONTS: Map<String, Font>
        {static} +createFont(String, String): Font
        {static} +getFont(String): Font
    }

    center footer UMLDoclet 2.0.12, PlantUML 1.2020.16
@enduml

PlantUML version 1.2020.16(Sun Aug 23 23:20:43 TRT 2020)
(APACHE source distribution)
Java Runtime: OpenJDK Runtime Environment
JVM: OpenJDK 64-Bit Server VM
Default Encoding: Cp1252
Language: en
Country: GB
--></g></svg>