<svg xmlns="http://www.w3.org/2000/svg" xmlns:xlink="http://www.w3.org/1999/xlink" width="852" height="437" contentScriptType="application/ecmascript" contentStyleType="text/css" style="width:852px;height:437px" preserveAspectRatio="none" version="1.1" viewBox="0 0 852 437" zoomAndPan="magnify"><defs><filter id="f12ebcniu35zfq" width="300%" height="300%" x="-1" y="-1"><feGaussianBlur result="blurOut" stdDeviation="2"/><feColorMatrix in="blurOut" result="blurOut2" type="matrix" values="0 0 0 0 0 0 0 0 0 0 0 0 0 0 0 0 0 0 .4 0"/><feOffset dx="4" dy="4" in="blurOut2" result="blurOut3"/><feBlend in="SourceGraphic" in2="blurOut3" mode="normal"/></filter></defs><g><polygon fill="#FFF" points="16 6 166 6 173 29.609 830 29.609 830 408 16 408 16 6" filter="url(#f12ebcniu35zfq)" style="stroke:#000;stroke-width:1.5"/><line style="stroke:#000;stroke-width:1.5" x1="16" x2="173" y1="29.609" y2="29.609"/><text x="20" y="22.533" fill="#000" font-family="sans-serif" font-size="14" font-weight="bold" lengthAdjust="spacingAndGlyphs" textLength="144">doa.engine.graphics</text><a href="DoaAnimation.html" target="_top" title="DoaAnimation.html" xlink:actuate="onRequest" xlink:href="DoaAnimation.html" xlink:show="new" xlink:title="DoaAnimation.html" xlink:type="simple"><rect id="doa.engine.graphics.DoaAnimation" width="191" height="144.852" x="32.5" y="42" fill="#FEFECE" codeLine="3" filter="url(#f12ebcniu35zfq)" style="stroke:#a80036;stroke-width:1.5"/><ellipse cx="84.75" cy="58" fill="#ADD1B2" rx="11" ry="11" style="stroke:#a80036;stroke-width:1"/><path d="M87.5156,53.875 Q87.6719,53.6563 87.8594,53.5469 Q88.0469,53.4375 88.2656,53.4375 Q88.6406,53.4375 88.875,53.7031 Q89.1094,53.9531 89.1094,54.5625 L89.1094,56.0156 Q89.1094,56.625 88.875,56.8906 Q88.6406,57.1563 88.2656,57.1563 Q87.9219,57.1563 87.7188,56.9531 Q87.5156,56.7656 87.4063,56.25 Q87.3594,55.8906 87.1719,55.7031 Q86.8438,55.3281 86.2344,55.1094 Q85.625,54.8906 85,54.8906 Q84.2344,54.8906 83.5938,55.2188 Q82.9688,55.5469 82.4688,56.2969 Q81.9844,57.0469 81.9844,58.0781 L81.9844,59.1719 Q81.9844,60.4063 82.875,61.2344 Q83.7656,62.0469 85.3594,62.0469 Q86.2969,62.0469 86.9531,61.7969 Q87.3438,61.6406 87.7656,61.2031 Q88.0313,60.9375 88.1719,60.8594 Q88.3281,60.7813 88.5313,60.7813 Q88.8594,60.7813 89.1094,61.0469 Q89.375,61.2969 89.375,61.6406 Q89.375,61.9844 89.0313,62.3906 Q88.5313,62.9688 87.7344,63.2969 Q86.6563,63.75 85.3594,63.75 Q83.8438,63.75 82.6406,63.125 Q81.6563,62.625 80.9688,61.5625 Q80.2813,60.4844 80.2813,59.2031 L80.2813,58.0469 Q80.2813,56.7188 80.8906,55.5781 Q81.5156,54.4219 82.6094,53.8125 Q83.7031,53.1875 84.9375,53.1875 Q85.6719,53.1875 86.3125,53.3594 Q86.9688,53.5156 87.5156,53.875 Z"/><text x="105.25" y="62.91" fill="#000" font-family="sans-serif" font-size="12" lengthAdjust="spacingAndGlyphs" textLength="78">DoaAnimation</text><line style="stroke:#a80036;stroke-width:1.5" x1="33.5" x2="222.5" y1="74" y2="74"/><line style="stroke:#a80036;stroke-width:1.5" x1="33.5" x2="222.5" y1="82" y2="82"/><ellipse cx="43.5" cy="93" fill="#84BE84" rx="3" ry="3" style="stroke:#038048;stroke-width:1"/><text x="52.5" y="97.419" fill="#000" font-family="sans-serif" font-size="11" lengthAdjust="spacingAndGlyphs" textLength="165">getFrames(): List&lt;BufferedImage&gt;</text><ellipse cx="43.5" cy="106.836" fill="#84BE84" rx="3" ry="3" style="stroke:#038048;stroke-width:1"/><text x="52.5" y="111.255" fill="#000" font-family="sans-serif" font-size="11" lengthAdjust="spacingAndGlyphs" textLength="76">getDelay(): long</text><ellipse cx="43.5" cy="120.672" fill="#84BE84" rx="3" ry="3" style="stroke:#038048;stroke-width:1"/><text x="52.5" y="125.091" fill="#000" font-family="sans-serif" font-size="11" lengthAdjust="spacingAndGlyphs" textLength="98">getFrameCount(): int</text><ellipse cx="43.5" cy="134.508" fill="#84BE84" rx="3" ry="3" style="stroke:#038048;stroke-width:1"/><text x="52.5" y="138.927" fill="#000" font-family="sans-serif" font-size="11" lengthAdjust="spacingAndGlyphs" textLength="120">current(): BufferedImage</text><ellipse cx="43.5" cy="148.344" fill="#84BE84" rx="3" ry="3" style="stroke:#038048;stroke-width:1"/><text x="52.5" y="152.763" fill="#000" font-family="sans-serif" font-size="11" lengthAdjust="spacingAndGlyphs" textLength="106">next(): BufferedImage</text><ellipse cx="43.5" cy="162.18" fill="#84BE84" rx="3" ry="3" style="stroke:#038048;stroke-width:1"/><text x="52.5" y="166.599" fill="#000" font-family="sans-serif" font-size="11" lengthAdjust="spacingAndGlyphs" textLength="59">reset(): void</text><ellipse cx="43.5" cy="176.016" fill="#84BE84" rx="3" ry="3" style="stroke:#038048;stroke-width:1"/><text x="52.5" y="180.435" fill="#000" font-family="sans-serif" font-size="11" lengthAdjust="spacingAndGlyphs" textLength="66">getIndex(): int</text></a><a href="DoaAnimations.html" target="_top" title="DoaAnimations.html" xlink:actuate="onRequest" xlink:href="DoaAnimations.html" xlink:show="new" xlink:title="DoaAnimations.html" xlink:type="simple"><rect id="doa.engine.graphics.DoaAnimations" width="344" height="117.18" x="259" y="56" fill="#FEFECE" codeLine="13" filter="url(#f12ebcniu35zfq)" style="stroke:#a80036;stroke-width:1.5"/><ellipse cx="384.25" cy="72" fill="#ADD1B2" rx="11" ry="11" style="stroke:#a80036;stroke-width:1"/><path d="M387.0156,67.875 Q387.1719,67.6563 387.3594,67.5469 Q387.5469,67.4375 387.7656,67.4375 Q388.1406,67.4375 388.375,67.7031 Q388.6094,67.9531 388.6094,68.5625 L388.6094,70.0156 Q388.6094,70.625 388.375,70.8906 Q388.1406,71.1563 387.7656,71.1563 Q387.4219,71.1563 387.2188,70.9531 Q387.0156,70.7656 386.9063,70.25 Q386.8594,69.8906 386.6719,69.7031 Q386.3438,69.3281 385.7344,69.1094 Q385.125,68.8906 384.5,68.8906 Q383.7344,68.8906 383.0938,69.2188 Q382.4688,69.5469 381.9688,70.2969 Q381.4844,71.0469 381.4844,72.0781 L381.4844,73.1719 Q381.4844,74.4063 382.375,75.2344 Q383.2656,76.0469 384.8594,76.0469 Q385.7969,76.0469 386.4531,75.7969 Q386.8438,75.6406 387.2656,75.2031 Q387.5313,74.9375 387.6719,74.8594 Q387.8281,74.7813 388.0313,74.7813 Q388.3594,74.7813 388.6094,75.0469 Q388.875,75.2969 388.875,75.6406 Q388.875,75.9844 388.5313,76.3906 Q388.0313,76.9688 387.2344,77.2969 Q386.1563,77.75 384.8594,77.75 Q383.3438,77.75 382.1406,77.125 Q381.1563,76.625 380.4688,75.5625 Q379.7813,74.4844 379.7813,73.2031 L379.7813,72.0469 Q379.7813,70.7188 380.3906,69.5781 Q381.0156,68.4219 382.1094,67.8125 Q383.2031,67.1875 384.4375,67.1875 Q385.1719,67.1875 385.8125,67.3594 Q386.4688,67.5156 387.0156,67.875 Z"/><text x="404.75" y="76.91" fill="#000" font-family="sans-serif" font-size="12" lengthAdjust="spacingAndGlyphs" textLength="85">DoaAnimations</text><line style="stroke:#a80036;stroke-width:1.5" x1="260" x2="602" y1="88" y2="88"/><ellipse cx="270" cy="99" fill="none" rx="3" ry="3" style="stroke:#038048;stroke-width:1"/><text x="279" y="103.419" fill="#000" font-family="sans-serif" font-size="11" lengthAdjust="spacingAndGlyphs" text-decoration="underline" textLength="255">ORIGINAL_ANIMATIONS: Map&lt;String, DoaAnimation&gt;</text><ellipse cx="270" cy="112.836" fill="none" rx="3" ry="3" style="stroke:#038048;stroke-width:1"/><text x="279" y="117.255" fill="#000" font-family="sans-serif" font-size="11" lengthAdjust="spacingAndGlyphs" text-decoration="underline" textLength="249">SHADED_ANIMATIONS: Map&lt;String, DoaAnimation&gt;</text><line style="stroke:#a80036;stroke-width:1.5" x1="260" x2="602" y1="123.672" y2="123.672"/><ellipse cx="270" cy="134.672" fill="#84BE84" rx="3" ry="3" style="stroke:#038048;stroke-width:1"/><text x="279" y="139.091" fill="#000" font-family="sans-serif" font-size="11" lengthAdjust="spacingAndGlyphs" text-decoration="underline" textLength="246">createAnimation(String, String, long): DoaAnimation</text><ellipse cx="270" cy="148.508" fill="#84BE84" rx="3" ry="3" style="stroke:#038048;stroke-width:1"/><text x="279" y="152.927" fill="#000" font-family="sans-serif" font-size="11" lengthAdjust="spacingAndGlyphs" text-decoration="underline" textLength="318">createAnimation(String, List&lt;BufferedImage&gt;, long): DoaAnimation</text><ellipse cx="270" cy="162.344" fill="#84BE84" rx="3" ry="3" style="stroke:#038048;stroke-width:1"/><text x="279" y="166.763" fill="#000" font-family="sans-serif" font-size="11" lengthAdjust="spacingAndGlyphs" text-decoration="underline" textLength="170">getAnimation(String): DoaAnimation</text></a><a href="DoaFonts.html" target="_top" title="DoaFonts.html" xlink:actuate="onRequest" xlink:href="DoaFonts.html" xlink:show="new" xlink:title="DoaFonts.html" xlink:type="simple"><rect id="doa.engine.graphics.DoaFonts" width="175" height="89.508" x="638.5" y="69.5" fill="#FEFECE" codeLine="21" filter="url(#f12ebcniu35zfq)" style="stroke:#a80036;stroke-width:1.5"/><ellipse cx="694.75" cy="85.5" fill="#ADD1B2" rx="11" ry="11" style="stroke:#a80036;stroke-width:1"/><path d="M697.5156,81.375 Q697.6719,81.1563 697.8594,81.0469 Q698.0469,80.9375 698.2656,80.9375 Q698.6406,80.9375 698.875,81.2031 Q699.1094,81.4531 699.1094,82.0625 L699.1094,83.5156 Q699.1094,84.125 698.875,84.3906 Q698.6406,84.6563 698.2656,84.6563 Q697.9219,84.6563 697.7188,84.4531 Q697.5156,84.2656 697.4063,83.75 Q697.3594,83.3906 697.1719,83.2031 Q696.8438,82.8281 696.2344,82.6094 Q695.625,82.3906 695,82.3906 Q694.2344,82.3906 693.5938,82.7188 Q692.9688,83.0469 692.4688,83.7969 Q691.9844,84.5469 691.9844,85.5781 L691.9844,86.6719 Q691.9844,87.9063 692.875,88.7344 Q693.7656,89.5469 695.3594,89.5469 Q696.2969,89.5469 696.9531,89.2969 Q697.3438,89.1406 697.7656,88.7031 Q698.0313,88.4375 698.1719,88.3594 Q698.3281,88.2813 698.5313,88.2813 Q698.8594,88.2813 699.1094,88.5469 Q699.375,88.7969 699.375,89.1406 Q699.375,89.4844 699.0313,89.8906 Q698.5313,90.4688 697.7344,90.7969 Q696.6563,91.25 695.3594,91.25 Q693.8438,91.25 692.6406,90.625 Q691.6563,90.125 690.9688,89.0625 Q690.2813,87.9844 690.2813,86.7031 L690.2813,85.5469 Q690.2813,84.2188 690.8906,83.0781 Q691.5156,81.9219 692.6094,81.3125 Q693.7031,80.6875 694.9375,80.6875 Q695.6719,80.6875 696.3125,80.8594 Q696.9688,81.0156 697.5156,81.375 Z"/><text x="715.25" y="90.41" fill="#000" font-family="sans-serif" font-size="12" lengthAdjust="spacingAndGlyphs" textLength="54">DoaFonts</text><line style="stroke:#a80036;stroke-width:1.5" x1="639.5" x2="812.5" y1="101.5" y2="101.5"/><ellipse cx="649.5" cy="112.5" fill="none" rx="3" ry="3" style="stroke:#038048;stroke-width:1"/><text x="658.5" y="116.919" fill="#000" font-family="sans-serif" font-size="11" lengthAdjust="spacingAndGlyphs" text-decoration="underline" textLength="127">FONTS: Map&lt;String, Font&gt;</text><line style="stroke:#a80036;stroke-width:1.5" x1="639.5" x2="812.5" y1="123.336" y2="123.336"/><ellipse cx="649.5" cy="134.336" fill="#84BE84" rx="3" ry="3" style="stroke:#038048;stroke-width:1"/><text x="658.5" y="138.755" fill="#000" font-family="sans-serif" font-size="11" lengthAdjust="spacingAndGlyphs" text-decoration="underline" textLength="149">createFont(String, String): Font</text><ellipse cx="649.5" cy="148.172" fill="#84BE84" rx="3" ry="3" style="stroke:#038048;stroke-width:1"/><text x="658.5" y="152.591" fill="#000" font-family="sans-serif" font-size="11" lengthAdjust="spacingAndGlyphs" text-decoration="underline" textLength="99">getFont(String): Font</text></a><a href="DoaLights.html" target="_top" title="DoaLights.html" xlink:actuate="onRequest" xlink:href="DoaLights.html" xlink:show="new" xlink:title="DoaLights.html" xlink:type="simple"><rect id="doa.engine.graphics.DoaLights" width="167" height="75.672" x="44.5" y="281.5" fill="#FEFECE" codeLine="27" filter="url(#f12ebcniu35zfq)" style="stroke:#a80036;stroke-width:1.5"/><ellipse cx="95.25" cy="297.5" fill="#ADD1B2" rx="11" ry="11" style="stroke:#a80036;stroke-width:1"/><path d="M98.0156,293.375 Q98.1719,293.1563 98.3594,293.0469 Q98.5469,292.9375 98.7656,292.9375 Q99.1406,292.9375 99.375,293.2031 Q99.6094,293.4531 99.6094,294.0625 L99.6094,295.5156 Q99.6094,296.125 99.375,296.3906 Q99.1406,296.6563 98.7656,296.6563 Q98.4219,296.6563 98.2188,296.4531 Q98.0156,296.2656 97.9063,295.75 Q97.8594,295.3906 97.6719,295.2031 Q97.3438,294.8281 96.7344,294.6094 Q96.125,294.3906 95.5,294.3906 Q94.7344,294.3906 94.0938,294.7188 Q93.4688,295.0469 92.9688,295.7969 Q92.4844,296.5469 92.4844,297.5781 L92.4844,298.6719 Q92.4844,299.9063 93.375,300.7344 Q94.2656,301.5469 95.8594,301.5469 Q96.7969,301.5469 97.4531,301.2969 Q97.8438,301.1406 98.2656,300.7031 Q98.5313,300.4375 98.6719,300.3594 Q98.8281,300.2813 99.0313,300.2813 Q99.3594,300.2813 99.6094,300.5469 Q99.875,300.7969 99.875,301.1406 Q99.875,301.4844 99.5313,301.8906 Q99.0313,302.4688 98.2344,302.7969 Q97.1563,303.25 95.8594,303.25 Q94.3438,303.25 93.1406,302.625 Q92.1563,302.125 91.4688,301.0625 Q90.7813,299.9844 90.7813,298.7031 L90.7813,297.5469 Q90.7813,296.2188 91.3906,295.0781 Q92.0156,293.9219 93.1094,293.3125 Q94.2031,292.6875 95.4375,292.6875 Q96.1719,292.6875 96.8125,292.8594 Q97.4688,293.0156 98.0156,293.375 Z"/><text x="115.75" y="302.41" fill="#000" font-family="sans-serif" font-size="12" lengthAdjust="spacingAndGlyphs" textLength="57">DoaLights</text><line style="stroke:#a80036;stroke-width:1.5" x1="45.5" x2="210.5" y1="313.5" y2="313.5"/><line style="stroke:#a80036;stroke-width:1.5" x1="45.5" x2="210.5" y1="321.5" y2="321.5"/><ellipse cx="55.5" cy="332.5" fill="#84BE84" rx="3" ry="3" style="stroke:#038048;stroke-width:1"/><text x="64.5" y="336.919" fill="#000" font-family="sans-serif" font-size="11" lengthAdjust="spacingAndGlyphs" text-decoration="underline" textLength="119">ambientLight(Color): void</text><ellipse cx="55.5" cy="346.336" fill="#84BE84" rx="3" ry="3" style="stroke:#038048;stroke-width:1"/><text x="64.5" y="350.755" fill="#000" font-family="sans-serif" font-size="11" lengthAdjust="spacingAndGlyphs" text-decoration="underline" textLength="141">getAmbientLightColor(): Color</text></a><a href="DoaSprites.html" target="_top" title="DoaSprites.html" xlink:actuate="onRequest" xlink:href="DoaSprites.html" xlink:show="new" xlink:title="DoaSprites.html" xlink:type="simple"><rect id="doa.engine.graphics.DoaSprites" width="366" height="144.852" x="247" y="247" fill="#FEFECE" codeLine="32" filter="url(#f12ebcniu35zfq)" style="stroke:#a80036;stroke-width:1.5"/><ellipse cx="394.75" cy="263" fill="#ADD1B2" rx="11" ry="11" style="stroke:#a80036;stroke-width:1"/><path d="M397.5156,258.875 Q397.6719,258.6563 397.8594,258.5469 Q398.0469,258.4375 398.2656,258.4375 Q398.6406,258.4375 398.875,258.7031 Q399.1094,258.9531 399.1094,259.5625 L399.1094,261.0156 Q399.1094,261.625 398.875,261.8906 Q398.6406,262.1563 398.2656,262.1563 Q397.9219,262.1563 397.7188,261.9531 Q397.5156,261.7656 397.4063,261.25 Q397.3594,260.8906 397.1719,260.7031 Q396.8438,260.3281 396.2344,260.1094 Q395.625,259.8906 395,259.8906 Q394.2344,259.8906 393.5938,260.2188 Q392.9688,260.5469 392.4688,261.2969 Q391.9844,262.0469 391.9844,263.0781 L391.9844,264.1719 Q391.9844,265.4063 392.875,266.2344 Q393.7656,267.0469 395.3594,267.0469 Q396.2969,267.0469 396.9531,266.7969 Q397.3438,266.6406 397.7656,266.2031 Q398.0313,265.9375 398.1719,265.8594 Q398.3281,265.7813 398.5313,265.7813 Q398.8594,265.7813 399.1094,266.0469 Q399.375,266.2969 399.375,266.6406 Q399.375,266.9844 399.0313,267.3906 Q398.5313,267.9688 397.7344,268.2969 Q396.6563,268.75 395.3594,268.75 Q393.8438,268.75 392.6406,268.125 Q391.6563,267.625 390.9688,266.5625 Q390.2813,265.4844 390.2813,264.2031 L390.2813,263.0469 Q390.2813,261.7188 390.8906,260.5781 Q391.5156,259.4219 392.6094,258.8125 Q393.7031,258.1875 394.9375,258.1875 Q395.6719,258.1875 396.3125,258.3594 Q396.9688,258.5156 397.5156,258.875 Z"/><text x="415.25" y="267.91" fill="#000" font-family="sans-serif" font-size="12" lengthAdjust="spacingAndGlyphs" textLength="62">DoaSprites</text><line style="stroke:#a80036;stroke-width:1.5" x1="248" x2="612" y1="279" y2="279"/><ellipse cx="258" cy="290" fill="none" rx="3" ry="3" style="stroke:#038048;stroke-width:1"/><text x="267" y="294.419" fill="#000" font-family="sans-serif" font-size="11" lengthAdjust="spacingAndGlyphs" text-decoration="underline" textLength="238">ORIGINAL_SPRITES: Map&lt;String, BufferedImage&gt;</text><ellipse cx="258" cy="303.836" fill="none" rx="3" ry="3" style="stroke:#038048;stroke-width:1"/><text x="267" y="308.255" fill="#000" font-family="sans-serif" font-size="11" lengthAdjust="spacingAndGlyphs" text-decoration="underline" textLength="232">SHADED_SPRITES: Map&lt;String, BufferedImage&gt;</text><line style="stroke:#a80036;stroke-width:1.5" x1="248" x2="612" y1="314.672" y2="314.672"/><ellipse cx="258" cy="325.672" fill="#84BE84" rx="3" ry="3" style="stroke:#038048;stroke-width:1"/><text x="267" y="330.091" fill="#000" font-family="sans-serif" font-size="11" lengthAdjust="spacingAndGlyphs" text-decoration="underline" textLength="206">createSprite(String, String): BufferedImage</text><ellipse cx="258" cy="339.508" fill="#84BE84" rx="3" ry="3" style="stroke:#038048;stroke-width:1"/><text x="267" y="343.927" fill="#000" font-family="sans-serif" font-size="11" lengthAdjust="spacingAndGlyphs" text-decoration="underline" textLength="340">createSpriteFromSpriteSheet(String, String, Rectangle): BufferedImage</text><ellipse cx="258" cy="353.344" fill="#84BE84" rx="3" ry="3" style="stroke:#038048;stroke-width:1"/><text x="267" y="357.763" fill="#000" font-family="sans-serif" font-size="11" lengthAdjust="spacingAndGlyphs" text-decoration="underline" textLength="156">getSprite(String): BufferedImage</text><ellipse cx="258" cy="367.18" fill="#84BE84" rx="3" ry="3" style="stroke:#038048;stroke-width:1"/><text x="267" y="371.599" fill="#000" font-family="sans-serif" font-size="11" lengthAdjust="spacingAndGlyphs" text-decoration="underline" textLength="252">deepCopyDoaSprite(BufferedImage): BufferedImage</text><ellipse cx="258" cy="381.016" fill="#84BE84" rx="3" ry="3" style="stroke:#038048;stroke-width:1"/><text x="267" y="385.435" fill="#000" font-family="sans-serif" font-size="11" lengthAdjust="spacingAndGlyphs" text-decoration="underline" textLength="216">scale(BufferedImage, int, int): BufferedImage</text></a><text x="322" y="424.381" fill="#888" font-family="sans-serif" font-size="10" lengthAdjust="spacingAndGlyphs" textLength="190">UMLDoclet 2.0.12, PlantUML 1.2020.16</text></g></svg>