<svg xmlns="http://www.w3.org/2000/svg" xmlns:xlink="http://www.w3.org/1999/xlink" width="202" height="2325" contentScriptType="application/ecmascript" contentStyleType="text/css" style="width:202px;height:2325px" preserveAspectRatio="none" version="1.1" viewBox="0 0 202 2325" zoomAndPan="magnify"><defs><filter id="f15ompa9pbfj3" width="300%" height="300%" x="-1" y="-1"><feGaussianBlur result="blurOut" stdDeviation="2"/><feColorMatrix in="blurOut" result="blurOut2" type="matrix" values="0 0 0 0 0 0 0 0 0 0 0 0 0 0 0 0 0 0 .4 0"/><feOffset dx="4" dy="4" in="blurOut2" result="blurOut3"/><feBlend in="SourceGraphic" in2="blurOut3" mode="normal"/></filter></defs><g><a href="DoaLogger.html" target="_top" title="DoaLogger.html" xlink:actuate="onRequest" xlink:href="DoaLogger.html" xlink:show="new" xlink:title="DoaLogger.html" xlink:type="simple"><rect id="doa.engine.log.DoaLogger" width="162" height="1135.391" x="17" y="1153" fill="#FEFECE" codeLine="5" filter="url(#f15ompa9pbfj3)" style="stroke:#a80036;stroke-width:1.5"/><ellipse cx="58.1" cy="1173.094" fill="#ADD1B2" rx="11" ry="11" style="stroke:#a80036;stroke-width:1"/><path d="M60.8656,1168.9688 Q61.0219,1168.75 61.2094,1168.6406 Q61.3969,1168.5313 61.6156,1168.5313 Q61.9906,1168.5313 62.225,1168.7969 Q62.4594,1169.0469 62.4594,1169.6563 L62.4594,1171.1094 Q62.4594,1171.7188 62.225,1171.9844 Q61.9906,1172.25 61.6156,1172.25 Q61.2719,1172.25 61.0688,1172.0469 Q60.8656,1171.8594 60.7563,1171.3438 Q60.7094,1170.9844 60.5219,1170.7969 Q60.1938,1170.4219 59.5844,1170.2031 Q58.975,1169.9844 58.35,1169.9844 Q57.5844,1169.9844 56.9438,1170.3125 Q56.3188,1170.6406 55.8188,1171.3906 Q55.3344,1172.1406 55.3344,1173.1719 L55.3344,1174.2656 Q55.3344,1175.5 56.225,1176.3281 Q57.1156,1177.1406 58.7094,1177.1406 Q59.6469,1177.1406 60.3031,1176.8906 Q60.6938,1176.7344 61.1156,1176.2969 Q61.3813,1176.0313 61.5219,1175.9531 Q61.6781,1175.875 61.8813,1175.875 Q62.2094,1175.875 62.4594,1176.1406 Q62.725,1176.3906 62.725,1176.7344 Q62.725,1177.0781 62.3813,1177.4844 Q61.8813,1178.0625 61.0844,1178.3906 Q60.0063,1178.8438 58.7094,1178.8438 Q57.1938,1178.8438 55.9906,1178.2188 Q55.0063,1177.7188 54.3188,1176.6563 Q53.6313,1175.5781 53.6313,1174.2969 L53.6313,1173.1406 Q53.6313,1171.8125 54.2406,1170.6719 Q54.8656,1169.5156 55.9594,1168.9063 Q57.0531,1168.2813 58.2875,1168.2813 Q59.0219,1168.2813 59.6625,1168.4531 Q60.3188,1168.6094 60.8656,1168.9688 Z"/><text x="78.4" y="1172.533" fill="#000" font-family="sans-serif" font-size="14" lengthAdjust="spacingAndGlyphs" textLength="71">DoaLogger</text><text x="77.9" y="1185.99" fill="#000" font-family="sans-serif" font-size="10" lengthAdjust="spacingAndGlyphs" textLength="72">doa.engine.log</text><line style="stroke:#a80036;stroke-width:1.5" x1="18" x2="178" y1="1193.188" y2="1193.188"/><ellipse cx="28" cy="1204.188" fill="none" rx="3" ry="3" style="stroke:#038048;stroke-width:1"/><text x="37" y="1208.606" fill="#000" font-family="sans-serif" font-size="11" lengthAdjust="spacingAndGlyphs" text-decoration="underline" textLength="102">LOGGER: DoaLogger</text><line style="stroke:#a80036;stroke-width:1.5" x1="18" x2="178" y1="1215.023" y2="1215.023"/><ellipse cx="28" cy="1226.023" fill="#84BE84" rx="3" ry="3" style="stroke:#038048;stroke-width:1"/><text x="37" y="1230.442" fill="#000" font-family="sans-serif" font-size="11" lengthAdjust="spacingAndGlyphs" text-decoration="underline" textLength="123">getInstance(): DoaLogger</text><ellipse cx="28" cy="1239.859" fill="#84BE84" rx="3" ry="3" style="stroke:#038048;stroke-width:1"/><text x="37" y="1244.278" fill="#000" font-family="sans-serif" font-size="11" lengthAdjust="spacingAndGlyphs" textLength="99">getLevel(): LogLevel</text><ellipse cx="28" cy="1253.695" fill="#84BE84" rx="3" ry="3" style="stroke:#038048;stroke-width:1"/><text x="37" y="1258.114" fill="#000" font-family="sans-serif" font-size="11" lengthAdjust="spacingAndGlyphs" textLength="119">setLevel(LogLevel): void</text><ellipse cx="28" cy="1267.531" fill="#84BE84" rx="3" ry="3" style="stroke:#038048;stroke-width:1"/><text x="37" y="1271.95" fill="#000" font-family="sans-serif" font-size="11" lengthAdjust="spacingAndGlyphs" textLength="108">setTarget(String): void</text><ellipse cx="28" cy="1281.367" fill="#84BE84" rx="3" ry="3" style="stroke:#038048;stroke-width:1"/><text x="37" y="1285.786" fill="#000" font-family="sans-serif" font-size="11" lengthAdjust="spacingAndGlyphs" textLength="136">log(LogLevel, boolean): void</text><ellipse cx="28" cy="1295.203" fill="#84BE84" rx="3" ry="3" style="stroke:#038048;stroke-width:1"/><text x="37" y="1299.622" fill="#000" font-family="sans-serif" font-size="11" lengthAdjust="spacingAndGlyphs" textLength="120">log(LogLevel, char): void</text><ellipse cx="28" cy="1309.039" fill="#84BE84" rx="3" ry="3" style="stroke:#038048;stroke-width:1"/><text x="37" y="1313.458" fill="#000" font-family="sans-serif" font-size="11" lengthAdjust="spacingAndGlyphs" textLength="126">log(LogLevel, char[]): void</text><ellipse cx="28" cy="1322.875" fill="#84BE84" rx="3" ry="3" style="stroke:#038048;stroke-width:1"/><text x="37" y="1327.294" fill="#000" font-family="sans-serif" font-size="11" lengthAdjust="spacingAndGlyphs" textLength="130">log(LogLevel, double): void</text><ellipse cx="28" cy="1336.711" fill="#84BE84" rx="3" ry="3" style="stroke:#038048;stroke-width:1"/><text x="37" y="1341.13" fill="#000" font-family="sans-serif" font-size="11" lengthAdjust="spacingAndGlyphs" textLength="119">log(LogLevel, float): void</text><ellipse cx="28" cy="1350.547" fill="#84BE84" rx="3" ry="3" style="stroke:#038048;stroke-width:1"/><text x="37" y="1354.966" fill="#000" font-family="sans-serif" font-size="11" lengthAdjust="spacingAndGlyphs" textLength="109">log(LogLevel, int): void</text><ellipse cx="28" cy="1364.383" fill="#84BE84" rx="3" ry="3" style="stroke:#038048;stroke-width:1"/><text x="37" y="1368.802" fill="#000" font-family="sans-serif" font-size="11" lengthAdjust="spacingAndGlyphs" textLength="118">log(LogLevel, long): void</text><ellipse cx="28" cy="1378.219" fill="#84BE84" rx="3" ry="3" style="stroke:#038048;stroke-width:1"/><text x="37" y="1382.638" fill="#000" font-family="sans-serif" font-size="11" lengthAdjust="spacingAndGlyphs" textLength="129">log(LogLevel, Object): void</text><ellipse cx="28" cy="1392.055" fill="#84BE84" rx="3" ry="3" style="stroke:#038048;stroke-width:1"/><text x="37" y="1396.474" fill="#000" font-family="sans-serif" font-size="11" lengthAdjust="spacingAndGlyphs" textLength="126">log(LogLevel, String): void</text><ellipse cx="28" cy="1405.891" fill="#84BE84" rx="3" ry="3" style="stroke:#038048;stroke-width:1"/><text x="37" y="1410.31" fill="#000" font-family="sans-serif" font-size="11" lengthAdjust="spacingAndGlyphs" textLength="99">finest(boolean): void</text><ellipse cx="28" cy="1419.727" fill="#84BE84" rx="3" ry="3" style="stroke:#038048;stroke-width:1"/><text x="37" y="1424.146" fill="#000" font-family="sans-serif" font-size="11" lengthAdjust="spacingAndGlyphs" textLength="83">finest(char): void</text><ellipse cx="28" cy="1433.563" fill="#84BE84" rx="3" ry="3" style="stroke:#038048;stroke-width:1"/><text x="37" y="1437.981" fill="#000" font-family="sans-serif" font-size="11" lengthAdjust="spacingAndGlyphs" textLength="89">finest(char[]): void</text><ellipse cx="28" cy="1447.398" fill="#84BE84" rx="3" ry="3" style="stroke:#038048;stroke-width:1"/><text x="37" y="1451.817" fill="#000" font-family="sans-serif" font-size="11" lengthAdjust="spacingAndGlyphs" textLength="93">finest(double): void</text><ellipse cx="28" cy="1461.234" fill="#84BE84" rx="3" ry="3" style="stroke:#038048;stroke-width:1"/><text x="37" y="1465.653" fill="#000" font-family="sans-serif" font-size="11" lengthAdjust="spacingAndGlyphs" textLength="82">finest(float): void</text><ellipse cx="28" cy="1475.07" fill="#84BE84" rx="3" ry="3" style="stroke:#038048;stroke-width:1"/><text x="37" y="1479.489" fill="#000" font-family="sans-serif" font-size="11" lengthAdjust="spacingAndGlyphs" textLength="72">finest(int): void</text><ellipse cx="28" cy="1488.906" fill="#84BE84" rx="3" ry="3" style="stroke:#038048;stroke-width:1"/><text x="37" y="1493.325" fill="#000" font-family="sans-serif" font-size="11" lengthAdjust="spacingAndGlyphs" textLength="81">finest(long): void</text><ellipse cx="28" cy="1502.742" fill="#84BE84" rx="3" ry="3" style="stroke:#038048;stroke-width:1"/><text x="37" y="1507.161" fill="#000" font-family="sans-serif" font-size="11" lengthAdjust="spacingAndGlyphs" textLength="92">finest(Object): void</text><ellipse cx="28" cy="1516.578" fill="#84BE84" rx="3" ry="3" style="stroke:#038048;stroke-width:1"/><text x="37" y="1520.997" fill="#000" font-family="sans-serif" font-size="11" lengthAdjust="spacingAndGlyphs" textLength="89">finest(String): void</text><ellipse cx="28" cy="1530.414" fill="#84BE84" rx="3" ry="3" style="stroke:#038048;stroke-width:1"/><text x="37" y="1534.833" fill="#000" font-family="sans-serif" font-size="11" lengthAdjust="spacingAndGlyphs" textLength="94">finer(boolean): void</text><ellipse cx="28" cy="1544.25" fill="#84BE84" rx="3" ry="3" style="stroke:#038048;stroke-width:1"/><text x="37" y="1548.669" fill="#000" font-family="sans-serif" font-size="11" lengthAdjust="spacingAndGlyphs" textLength="78">finer(char): void</text><ellipse cx="28" cy="1558.086" fill="#84BE84" rx="3" ry="3" style="stroke:#038048;stroke-width:1"/><text x="37" y="1562.505" fill="#000" font-family="sans-serif" font-size="11" lengthAdjust="spacingAndGlyphs" textLength="84">finer(char[]): void</text><ellipse cx="28" cy="1571.922" fill="#84BE84" rx="3" ry="3" style="stroke:#038048;stroke-width:1"/><text x="37" y="1576.341" fill="#000" font-family="sans-serif" font-size="11" lengthAdjust="spacingAndGlyphs" textLength="88">finer(double): void</text><ellipse cx="28" cy="1585.758" fill="#84BE84" rx="3" ry="3" style="stroke:#038048;stroke-width:1"/><text x="37" y="1590.177" fill="#000" font-family="sans-serif" font-size="11" lengthAdjust="spacingAndGlyphs" textLength="77">finer(float): void</text><ellipse cx="28" cy="1599.594" fill="#84BE84" rx="3" ry="3" style="stroke:#038048;stroke-width:1"/><text x="37" y="1604.013" fill="#000" font-family="sans-serif" font-size="11" lengthAdjust="spacingAndGlyphs" textLength="67">finer(int): void</text><ellipse cx="28" cy="1613.43" fill="#84BE84" rx="3" ry="3" style="stroke:#038048;stroke-width:1"/><text x="37" y="1617.849" fill="#000" font-family="sans-serif" font-size="11" lengthAdjust="spacingAndGlyphs" textLength="76">finer(long): void</text><ellipse cx="28" cy="1627.266" fill="#84BE84" rx="3" ry="3" style="stroke:#038048;stroke-width:1"/><text x="37" y="1631.685" fill="#000" font-family="sans-serif" font-size="11" lengthAdjust="spacingAndGlyphs" textLength="87">finer(Object): void</text><ellipse cx="28" cy="1641.102" fill="#84BE84" rx="3" ry="3" style="stroke:#038048;stroke-width:1"/><text x="37" y="1645.521" fill="#000" font-family="sans-serif" font-size="11" lengthAdjust="spacingAndGlyphs" textLength="84">finer(String): void</text><ellipse cx="28" cy="1654.938" fill="#84BE84" rx="3" ry="3" style="stroke:#038048;stroke-width:1"/><text x="37" y="1659.356" fill="#000" font-family="sans-serif" font-size="11" lengthAdjust="spacingAndGlyphs" textLength="90">fine(boolean): void</text><ellipse cx="28" cy="1668.773" fill="#84BE84" rx="3" ry="3" style="stroke:#038048;stroke-width:1"/><text x="37" y="1673.192" fill="#000" font-family="sans-serif" font-size="11" lengthAdjust="spacingAndGlyphs" textLength="74">fine(char): void</text><ellipse cx="28" cy="1682.609" fill="#84BE84" rx="3" ry="3" style="stroke:#038048;stroke-width:1"/><text x="37" y="1687.028" fill="#000" font-family="sans-serif" font-size="11" lengthAdjust="spacingAndGlyphs" textLength="80">fine(char[]): void</text><ellipse cx="28" cy="1696.445" fill="#84BE84" rx="3" ry="3" style="stroke:#038048;stroke-width:1"/><text x="37" y="1700.864" fill="#000" font-family="sans-serif" font-size="11" lengthAdjust="spacingAndGlyphs" textLength="84">fine(double): void</text><ellipse cx="28" cy="1710.281" fill="#84BE84" rx="3" ry="3" style="stroke:#038048;stroke-width:1"/><text x="37" y="1714.7" fill="#000" font-family="sans-serif" font-size="11" lengthAdjust="spacingAndGlyphs" textLength="73">fine(float): void</text><ellipse cx="28" cy="1724.117" fill="#84BE84" rx="3" ry="3" style="stroke:#038048;stroke-width:1"/><text x="37" y="1728.536" fill="#000" font-family="sans-serif" font-size="11" lengthAdjust="spacingAndGlyphs" textLength="63">fine(int): void</text><ellipse cx="28" cy="1737.953" fill="#84BE84" rx="3" ry="3" style="stroke:#038048;stroke-width:1"/><text x="37" y="1742.372" fill="#000" font-family="sans-serif" font-size="11" lengthAdjust="spacingAndGlyphs" textLength="72">fine(long): void</text><ellipse cx="28" cy="1751.789" fill="#84BE84" rx="3" ry="3" style="stroke:#038048;stroke-width:1"/><text x="37" y="1756.208" fill="#000" font-family="sans-serif" font-size="11" lengthAdjust="spacingAndGlyphs" textLength="83">fine(Object): void</text><ellipse cx="28" cy="1765.625" fill="#84BE84" rx="3" ry="3" style="stroke:#038048;stroke-width:1"/><text x="37" y="1770.044" fill="#000" font-family="sans-serif" font-size="11" lengthAdjust="spacingAndGlyphs" textLength="80">fine(String): void</text><ellipse cx="28" cy="1779.461" fill="#84BE84" rx="3" ry="3" style="stroke:#038048;stroke-width:1"/><text x="37" y="1783.88" fill="#000" font-family="sans-serif" font-size="11" lengthAdjust="spacingAndGlyphs" textLength="102">config(boolean): void</text><ellipse cx="28" cy="1793.297" fill="#84BE84" rx="3" ry="3" style="stroke:#038048;stroke-width:1"/><text x="37" y="1797.716" fill="#000" font-family="sans-serif" font-size="11" lengthAdjust="spacingAndGlyphs" textLength="86">config(char): void</text><ellipse cx="28" cy="1807.133" fill="#84BE84" rx="3" ry="3" style="stroke:#038048;stroke-width:1"/><text x="37" y="1811.552" fill="#000" font-family="sans-serif" font-size="11" lengthAdjust="spacingAndGlyphs" textLength="92">config(char[]): void</text><ellipse cx="28" cy="1820.969" fill="#84BE84" rx="3" ry="3" style="stroke:#038048;stroke-width:1"/><text x="37" y="1825.388" fill="#000" font-family="sans-serif" font-size="11" lengthAdjust="spacingAndGlyphs" textLength="96">config(double): void</text><ellipse cx="28" cy="1834.805" fill="#84BE84" rx="3" ry="3" style="stroke:#038048;stroke-width:1"/><text x="37" y="1839.224" fill="#000" font-family="sans-serif" font-size="11" lengthAdjust="spacingAndGlyphs" textLength="85">config(float): void</text><ellipse cx="28" cy="1848.641" fill="#84BE84" rx="3" ry="3" style="stroke:#038048;stroke-width:1"/><text x="37" y="1853.06" fill="#000" font-family="sans-serif" font-size="11" lengthAdjust="spacingAndGlyphs" textLength="75">config(int): void</text><ellipse cx="28" cy="1862.477" fill="#84BE84" rx="3" ry="3" style="stroke:#038048;stroke-width:1"/><text x="37" y="1866.896" fill="#000" font-family="sans-serif" font-size="11" lengthAdjust="spacingAndGlyphs" textLength="84">config(long): void</text><ellipse cx="28" cy="1876.313" fill="#84BE84" rx="3" ry="3" style="stroke:#038048;stroke-width:1"/><text x="37" y="1880.731" fill="#000" font-family="sans-serif" font-size="11" lengthAdjust="spacingAndGlyphs" textLength="95">config(Object): void</text><ellipse cx="28" cy="1890.148" fill="#84BE84" rx="3" ry="3" style="stroke:#038048;stroke-width:1"/><text x="37" y="1894.567" fill="#000" font-family="sans-serif" font-size="11" lengthAdjust="spacingAndGlyphs" textLength="92">config(String): void</text><ellipse cx="28" cy="1903.984" fill="#84BE84" rx="3" ry="3" style="stroke:#038048;stroke-width:1"/><text x="37" y="1908.403" fill="#000" font-family="sans-serif" font-size="11" lengthAdjust="spacingAndGlyphs" textLength="90">info(boolean): void</text><ellipse cx="28" cy="1917.82" fill="#84BE84" rx="3" ry="3" style="stroke:#038048;stroke-width:1"/><text x="37" y="1922.239" fill="#000" font-family="sans-serif" font-size="11" lengthAdjust="spacingAndGlyphs" textLength="74">info(char): void</text><ellipse cx="28" cy="1931.656" fill="#84BE84" rx="3" ry="3" style="stroke:#038048;stroke-width:1"/><text x="37" y="1936.075" fill="#000" font-family="sans-serif" font-size="11" lengthAdjust="spacingAndGlyphs" textLength="80">info(char[]): void</text><ellipse cx="28" cy="1945.492" fill="#84BE84" rx="3" ry="3" style="stroke:#038048;stroke-width:1"/><text x="37" y="1949.911" fill="#000" font-family="sans-serif" font-size="11" lengthAdjust="spacingAndGlyphs" textLength="84">info(double): void</text><ellipse cx="28" cy="1959.328" fill="#84BE84" rx="3" ry="3" style="stroke:#038048;stroke-width:1"/><text x="37" y="1963.747" fill="#000" font-family="sans-serif" font-size="11" lengthAdjust="spacingAndGlyphs" textLength="73">info(float): void</text><ellipse cx="28" cy="1973.164" fill="#84BE84" rx="3" ry="3" style="stroke:#038048;stroke-width:1"/><text x="37" y="1977.583" fill="#000" font-family="sans-serif" font-size="11" lengthAdjust="spacingAndGlyphs" textLength="63">info(int): void</text><ellipse cx="28" cy="1987" fill="#84BE84" rx="3" ry="3" style="stroke:#038048;stroke-width:1"/><text x="37" y="1991.419" fill="#000" font-family="sans-serif" font-size="11" lengthAdjust="spacingAndGlyphs" textLength="72">info(long): void</text><ellipse cx="28" cy="2000.836" fill="#84BE84" rx="3" ry="3" style="stroke:#038048;stroke-width:1"/><text x="37" y="2005.255" fill="#000" font-family="sans-serif" font-size="11" lengthAdjust="spacingAndGlyphs" textLength="83">info(Object): void</text><ellipse cx="28" cy="2014.672" fill="#84BE84" rx="3" ry="3" style="stroke:#038048;stroke-width:1"/><text x="37" y="2019.091" fill="#000" font-family="sans-serif" font-size="11" lengthAdjust="spacingAndGlyphs" textLength="80">info(String): void</text><ellipse cx="28" cy="2028.508" fill="#84BE84" rx="3" ry="3" style="stroke:#038048;stroke-width:1"/><text x="37" y="2032.927" fill="#000" font-family="sans-serif" font-size="11" lengthAdjust="spacingAndGlyphs" textLength="112">warning(boolean): void</text><ellipse cx="28" cy="2042.344" fill="#84BE84" rx="3" ry="3" style="stroke:#038048;stroke-width:1"/><text x="37" y="2046.763" fill="#000" font-family="sans-serif" font-size="11" lengthAdjust="spacingAndGlyphs" textLength="96">warning(char): void</text><ellipse cx="28" cy="2056.18" fill="#84BE84" rx="3" ry="3" style="stroke:#038048;stroke-width:1"/><text x="37" y="2060.599" fill="#000" font-family="sans-serif" font-size="11" lengthAdjust="spacingAndGlyphs" textLength="102">warning(char[]): void</text><ellipse cx="28" cy="2070.016" fill="#84BE84" rx="3" ry="3" style="stroke:#038048;stroke-width:1"/><text x="37" y="2074.435" fill="#000" font-family="sans-serif" font-size="11" lengthAdjust="spacingAndGlyphs" textLength="106">warning(double): void</text><ellipse cx="28" cy="2083.852" fill="#84BE84" rx="3" ry="3" style="stroke:#038048;stroke-width:1"/><text x="37" y="2088.271" fill="#000" font-family="sans-serif" font-size="11" lengthAdjust="spacingAndGlyphs" textLength="95">warning(float): void</text><ellipse cx="28" cy="2097.688" fill="#84BE84" rx="3" ry="3" style="stroke:#038048;stroke-width:1"/><text x="37" y="2102.106" fill="#000" font-family="sans-serif" font-size="11" lengthAdjust="spacingAndGlyphs" textLength="85">warning(int): void</text><ellipse cx="28" cy="2111.523" fill="#84BE84" rx="3" ry="3" style="stroke:#038048;stroke-width:1"/><text x="37" y="2115.942" fill="#000" font-family="sans-serif" font-size="11" lengthAdjust="spacingAndGlyphs" textLength="94">warning(long): void</text><ellipse cx="28" cy="2125.359" fill="#84BE84" rx="3" ry="3" style="stroke:#038048;stroke-width:1"/><text x="37" y="2129.778" fill="#000" font-family="sans-serif" font-size="11" lengthAdjust="spacingAndGlyphs" textLength="105">warning(Object): void</text><ellipse cx="28" cy="2139.195" fill="#84BE84" rx="3" ry="3" style="stroke:#038048;stroke-width:1"/><text x="37" y="2143.614" fill="#000" font-family="sans-serif" font-size="11" lengthAdjust="spacingAndGlyphs" textLength="102">warning(String): void</text><ellipse cx="28" cy="2153.031" fill="#84BE84" rx="3" ry="3" style="stroke:#038048;stroke-width:1"/><text x="37" y="2157.45" fill="#000" font-family="sans-serif" font-size="11" lengthAdjust="spacingAndGlyphs" textLength="106">severe(boolean): void</text><ellipse cx="28" cy="2166.867" fill="#84BE84" rx="3" ry="3" style="stroke:#038048;stroke-width:1"/><text x="37" y="2171.286" fill="#000" font-family="sans-serif" font-size="11" lengthAdjust="spacingAndGlyphs" textLength="90">severe(char): void</text><ellipse cx="28" cy="2180.703" fill="#84BE84" rx="3" ry="3" style="stroke:#038048;stroke-width:1"/><text x="37" y="2185.122" fill="#000" font-family="sans-serif" font-size="11" lengthAdjust="spacingAndGlyphs" textLength="96">severe(char[]): void</text><ellipse cx="28" cy="2194.539" fill="#84BE84" rx="3" ry="3" style="stroke:#038048;stroke-width:1"/><text x="37" y="2198.958" fill="#000" font-family="sans-serif" font-size="11" lengthAdjust="spacingAndGlyphs" textLength="100">severe(double): void</text><ellipse cx="28" cy="2208.375" fill="#84BE84" rx="3" ry="3" style="stroke:#038048;stroke-width:1"/><text x="37" y="2212.794" fill="#000" font-family="sans-serif" font-size="11" lengthAdjust="spacingAndGlyphs" textLength="89">severe(float): void</text><ellipse cx="28" cy="2222.211" fill="#84BE84" rx="3" ry="3" style="stroke:#038048;stroke-width:1"/><text x="37" y="2226.63" fill="#000" font-family="sans-serif" font-size="11" lengthAdjust="spacingAndGlyphs" textLength="79">severe(int): void</text><ellipse cx="28" cy="2236.047" fill="#84BE84" rx="3" ry="3" style="stroke:#038048;stroke-width:1"/><text x="37" y="2240.466" fill="#000" font-family="sans-serif" font-size="11" lengthAdjust="spacingAndGlyphs" textLength="88">severe(long): void</text><ellipse cx="28" cy="2249.883" fill="#84BE84" rx="3" ry="3" style="stroke:#038048;stroke-width:1"/><text x="37" y="2254.302" fill="#000" font-family="sans-serif" font-size="11" lengthAdjust="spacingAndGlyphs" textLength="99">severe(Object): void</text><ellipse cx="28" cy="2263.719" fill="#84BE84" rx="3" ry="3" style="stroke:#038048;stroke-width:1"/><text x="37" y="2268.138" fill="#000" font-family="sans-serif" font-size="11" lengthAdjust="spacingAndGlyphs" textLength="96">severe(String): void</text><ellipse cx="28" cy="2277.555" fill="#84BE84" rx="3" ry="3" style="stroke:#038048;stroke-width:1"/><text x="37" y="2281.974" fill="#000" font-family="sans-serif" font-size="11" lengthAdjust="spacingAndGlyphs" textLength="76">newLine(): void</text></a><a href="Logger.html" target="_top" title="Logger.html" xlink:actuate="onRequest" xlink:href="Logger.html" xlink:show="new" xlink:title="Logger.html" xlink:type="simple"><rect id="doa.engine.log.Logger" width="165" height="1085.883" x="15.5" y="7" fill="#FEFECE" codeLine="86" filter="url(#f15ompa9pbfj3)" style="stroke:#a80036;stroke-width:1.5"/><ellipse cx="57.95" cy="27.094" fill="#B4A7E5" rx="11" ry="11" style="stroke:#a80036;stroke-width:1"/><path d="M58.9031,23.7344 L58.9031,30.3906 L60.6219,30.3906 Q61.2313,30.3906 61.4969,30.625 Q61.7625,30.8594 61.7625,31.25 Q61.7625,31.625 61.4969,31.8594 Q61.2313,32.0938 60.6219,32.0938 L55.4813,32.0938 Q54.8719,32.0938 54.6063,31.8594 Q54.3406,31.625 54.3406,31.2344 Q54.3406,30.8594 54.6063,30.625 Q54.8719,30.3906 55.4813,30.3906 L57.2,30.3906 L57.2,23.7344 L55.4813,23.7344 Q54.8719,23.7344 54.6063,23.5 Q54.3406,23.2656 54.3406,22.875 Q54.3406,22.5 54.6063,22.2656 Q54.8719,22.0313 55.4813,22.0313 L60.6219,22.0313 Q61.2313,22.0313 61.4969,22.2656 Q61.7625,22.5 61.7625,22.875 Q61.7625,23.2656 61.4969,23.5 Q61.2313,23.7344 60.6219,23.7344 L58.9031,23.7344 Z"/><text x="91.55" y="26.533" fill="#000" font-family="sans-serif" font-size="14" font-style="italic" lengthAdjust="spacingAndGlyphs" textLength="45">Logger</text><text x="78.05" y="39.99" fill="#000" font-family="sans-serif" font-size="10" font-style="italic" lengthAdjust="spacingAndGlyphs" textLength="72">doa.engine.log</text><line style="stroke:#a80036;stroke-width:1.5" x1="16.5" x2="179.5" y1="47.188" y2="47.188"/><ellipse cx="26.5" cy="58.188" fill="#84BE84" rx="3" ry="3" style="stroke:#038048;stroke-width:1"/><text x="35.5" y="62.606" fill="#000" font-family="sans-serif" font-size="11" font-style="italic" lengthAdjust="spacingAndGlyphs" textLength="119">setLevel(LogLevel): void</text><ellipse cx="26.5" cy="72.023" fill="#84BE84" rx="3" ry="3" style="stroke:#038048;stroke-width:1"/><text x="35.5" y="76.442" fill="#000" font-family="sans-serif" font-size="11" font-style="italic" lengthAdjust="spacingAndGlyphs" textLength="110">setTarget(String): void</text><ellipse cx="26.5" cy="85.859" fill="#84BE84" rx="3" ry="3" style="stroke:#038048;stroke-width:1"/><text x="35.5" y="90.278" fill="#000" font-family="sans-serif" font-size="11" font-style="italic" lengthAdjust="spacingAndGlyphs" textLength="139">log(LogLevel, boolean): void</text><ellipse cx="26.5" cy="99.695" fill="#84BE84" rx="3" ry="3" style="stroke:#038048;stroke-width:1"/><text x="35.5" y="104.114" fill="#000" font-family="sans-serif" font-size="11" font-style="italic" lengthAdjust="spacingAndGlyphs" textLength="121">log(LogLevel, char): void</text><ellipse cx="26.5" cy="113.531" fill="#84BE84" rx="3" ry="3" style="stroke:#038048;stroke-width:1"/><text x="35.5" y="117.95" fill="#000" font-family="sans-serif" font-size="11" font-style="italic" lengthAdjust="spacingAndGlyphs" textLength="127">log(LogLevel, char[]): void</text><ellipse cx="26.5" cy="127.367" fill="#84BE84" rx="3" ry="3" style="stroke:#038048;stroke-width:1"/><text x="35.5" y="131.786" fill="#000" font-family="sans-serif" font-size="11" font-style="italic" lengthAdjust="spacingAndGlyphs" textLength="133">log(LogLevel, double): void</text><ellipse cx="26.5" cy="141.203" fill="#84BE84" rx="3" ry="3" style="stroke:#038048;stroke-width:1"/><text x="35.5" y="145.622" fill="#000" font-family="sans-serif" font-size="11" font-style="italic" lengthAdjust="spacingAndGlyphs" textLength="120">log(LogLevel, float): void</text><ellipse cx="26.5" cy="155.039" fill="#84BE84" rx="3" ry="3" style="stroke:#038048;stroke-width:1"/><text x="35.5" y="159.458" fill="#000" font-family="sans-serif" font-size="11" font-style="italic" lengthAdjust="spacingAndGlyphs" textLength="111">log(LogLevel, int): void</text><ellipse cx="26.5" cy="168.875" fill="#84BE84" rx="3" ry="3" style="stroke:#038048;stroke-width:1"/><text x="35.5" y="173.294" fill="#000" font-family="sans-serif" font-size="11" font-style="italic" lengthAdjust="spacingAndGlyphs" textLength="120">log(LogLevel, long): void</text><ellipse cx="26.5" cy="182.711" fill="#84BE84" rx="3" ry="3" style="stroke:#038048;stroke-width:1"/><text x="35.5" y="187.13" fill="#000" font-family="sans-serif" font-size="11" font-style="italic" lengthAdjust="spacingAndGlyphs" textLength="133">log(LogLevel, Object): void</text><ellipse cx="26.5" cy="196.547" fill="#84BE84" rx="3" ry="3" style="stroke:#038048;stroke-width:1"/><text x="35.5" y="200.966" fill="#000" font-family="sans-serif" font-size="11" font-style="italic" lengthAdjust="spacingAndGlyphs" textLength="128">log(LogLevel, String): void</text><ellipse cx="26.5" cy="210.383" fill="#84BE84" rx="3" ry="3" style="stroke:#038048;stroke-width:1"/><text x="35.5" y="214.802" fill="#000" font-family="sans-serif" font-size="11" font-style="italic" lengthAdjust="spacingAndGlyphs" textLength="101">finest(boolean): void</text><ellipse cx="26.5" cy="224.219" fill="#84BE84" rx="3" ry="3" style="stroke:#038048;stroke-width:1"/><text x="35.5" y="228.638" fill="#000" font-family="sans-serif" font-size="11" font-style="italic" lengthAdjust="spacingAndGlyphs" textLength="83">finest(char): void</text><ellipse cx="26.5" cy="238.055" fill="#84BE84" rx="3" ry="3" style="stroke:#038048;stroke-width:1"/><text x="35.5" y="242.474" fill="#000" font-family="sans-serif" font-size="11" font-style="italic" lengthAdjust="spacingAndGlyphs" textLength="89">finest(char[]): void</text><ellipse cx="26.5" cy="251.891" fill="#84BE84" rx="3" ry="3" style="stroke:#038048;stroke-width:1"/><text x="35.5" y="256.31" fill="#000" font-family="sans-serif" font-size="11" font-style="italic" lengthAdjust="spacingAndGlyphs" textLength="95">finest(double): void</text><ellipse cx="26.5" cy="265.727" fill="#84BE84" rx="3" ry="3" style="stroke:#038048;stroke-width:1"/><text x="35.5" y="270.146" fill="#000" font-family="sans-serif" font-size="11" font-style="italic" lengthAdjust="spacingAndGlyphs" textLength="82">finest(float): void</text><ellipse cx="26.5" cy="279.563" fill="#84BE84" rx="3" ry="3" style="stroke:#038048;stroke-width:1"/><text x="35.5" y="283.981" fill="#000" font-family="sans-serif" font-size="11" font-style="italic" lengthAdjust="spacingAndGlyphs" textLength="73">finest(int): void</text><ellipse cx="26.5" cy="293.398" fill="#84BE84" rx="3" ry="3" style="stroke:#038048;stroke-width:1"/><text x="35.5" y="297.817" fill="#000" font-family="sans-serif" font-size="11" font-style="italic" lengthAdjust="spacingAndGlyphs" textLength="82">finest(long): void</text><ellipse cx="26.5" cy="307.234" fill="#84BE84" rx="3" ry="3" style="stroke:#038048;stroke-width:1"/><text x="35.5" y="311.653" fill="#000" font-family="sans-serif" font-size="11" font-style="italic" lengthAdjust="spacingAndGlyphs" textLength="95">finest(Object): void</text><ellipse cx="26.5" cy="321.07" fill="#84BE84" rx="3" ry="3" style="stroke:#038048;stroke-width:1"/><text x="35.5" y="325.489" fill="#000" font-family="sans-serif" font-size="11" font-style="italic" lengthAdjust="spacingAndGlyphs" textLength="90">finest(String): void</text><ellipse cx="26.5" cy="334.906" fill="#84BE84" rx="3" ry="3" style="stroke:#038048;stroke-width:1"/><text x="35.5" y="339.325" fill="#000" font-family="sans-serif" font-size="11" font-style="italic" lengthAdjust="spacingAndGlyphs" textLength="96">finer(boolean): void</text><ellipse cx="26.5" cy="348.742" fill="#84BE84" rx="3" ry="3" style="stroke:#038048;stroke-width:1"/><text x="35.5" y="353.161" fill="#000" font-family="sans-serif" font-size="11" font-style="italic" lengthAdjust="spacingAndGlyphs" textLength="78">finer(char): void</text><ellipse cx="26.5" cy="362.578" fill="#84BE84" rx="3" ry="3" style="stroke:#038048;stroke-width:1"/><text x="35.5" y="366.997" fill="#000" font-family="sans-serif" font-size="11" font-style="italic" lengthAdjust="spacingAndGlyphs" textLength="84">finer(char[]): void</text><ellipse cx="26.5" cy="376.414" fill="#84BE84" rx="3" ry="3" style="stroke:#038048;stroke-width:1"/><text x="35.5" y="380.833" fill="#000" font-family="sans-serif" font-size="11" font-style="italic" lengthAdjust="spacingAndGlyphs" textLength="90">finer(double): void</text><ellipse cx="26.5" cy="390.25" fill="#84BE84" rx="3" ry="3" style="stroke:#038048;stroke-width:1"/><text x="35.5" y="394.669" fill="#000" font-family="sans-serif" font-size="11" font-style="italic" lengthAdjust="spacingAndGlyphs" textLength="77">finer(float): void</text><ellipse cx="26.5" cy="404.086" fill="#84BE84" rx="3" ry="3" style="stroke:#038048;stroke-width:1"/><text x="35.5" y="408.505" fill="#000" font-family="sans-serif" font-size="11" font-style="italic" lengthAdjust="spacingAndGlyphs" textLength="68">finer(int): void</text><ellipse cx="26.5" cy="417.922" fill="#84BE84" rx="3" ry="3" style="stroke:#038048;stroke-width:1"/><text x="35.5" y="422.341" fill="#000" font-family="sans-serif" font-size="11" font-style="italic" lengthAdjust="spacingAndGlyphs" textLength="77">finer(long): void</text><ellipse cx="26.5" cy="431.758" fill="#84BE84" rx="3" ry="3" style="stroke:#038048;stroke-width:1"/><text x="35.5" y="436.177" fill="#000" font-family="sans-serif" font-size="11" font-style="italic" lengthAdjust="spacingAndGlyphs" textLength="90">finer(Object): void</text><ellipse cx="26.5" cy="445.594" fill="#84BE84" rx="3" ry="3" style="stroke:#038048;stroke-width:1"/><text x="35.5" y="450.013" fill="#000" font-family="sans-serif" font-size="11" font-style="italic" lengthAdjust="spacingAndGlyphs" textLength="85">finer(String): void</text><ellipse cx="26.5" cy="459.43" fill="#84BE84" rx="3" ry="3" style="stroke:#038048;stroke-width:1"/><text x="35.5" y="463.849" fill="#000" font-family="sans-serif" font-size="11" font-style="italic" lengthAdjust="spacingAndGlyphs" textLength="92">fine(boolean): void</text><ellipse cx="26.5" cy="473.266" fill="#84BE84" rx="3" ry="3" style="stroke:#038048;stroke-width:1"/><text x="35.5" y="477.685" fill="#000" font-family="sans-serif" font-size="11" font-style="italic" lengthAdjust="spacingAndGlyphs" textLength="74">fine(char): void</text><ellipse cx="26.5" cy="487.102" fill="#84BE84" rx="3" ry="3" style="stroke:#038048;stroke-width:1"/><text x="35.5" y="491.521" fill="#000" font-family="sans-serif" font-size="11" font-style="italic" lengthAdjust="spacingAndGlyphs" textLength="80">fine(char[]): void</text><ellipse cx="26.5" cy="500.938" fill="#84BE84" rx="3" ry="3" style="stroke:#038048;stroke-width:1"/><text x="35.5" y="505.356" fill="#000" font-family="sans-serif" font-size="11" font-style="italic" lengthAdjust="spacingAndGlyphs" textLength="86">fine(double): void</text><ellipse cx="26.5" cy="514.773" fill="#84BE84" rx="3" ry="3" style="stroke:#038048;stroke-width:1"/><text x="35.5" y="519.192" fill="#000" font-family="sans-serif" font-size="11" font-style="italic" lengthAdjust="spacingAndGlyphs" textLength="73">fine(float): void</text><ellipse cx="26.5" cy="528.609" fill="#84BE84" rx="3" ry="3" style="stroke:#038048;stroke-width:1"/><text x="35.5" y="533.028" fill="#000" font-family="sans-serif" font-size="11" font-style="italic" lengthAdjust="spacingAndGlyphs" textLength="64">fine(int): void</text><ellipse cx="26.5" cy="542.445" fill="#84BE84" rx="3" ry="3" style="stroke:#038048;stroke-width:1"/><text x="35.5" y="546.864" fill="#000" font-family="sans-serif" font-size="11" font-style="italic" lengthAdjust="spacingAndGlyphs" textLength="73">fine(long): void</text><ellipse cx="26.5" cy="556.281" fill="#84BE84" rx="3" ry="3" style="stroke:#038048;stroke-width:1"/><text x="35.5" y="560.7" fill="#000" font-family="sans-serif" font-size="11" font-style="italic" lengthAdjust="spacingAndGlyphs" textLength="86">fine(Object): void</text><ellipse cx="26.5" cy="570.117" fill="#84BE84" rx="3" ry="3" style="stroke:#038048;stroke-width:1"/><text x="35.5" y="574.536" fill="#000" font-family="sans-serif" font-size="11" font-style="italic" lengthAdjust="spacingAndGlyphs" textLength="81">fine(String): void</text><ellipse cx="26.5" cy="583.953" fill="#84BE84" rx="3" ry="3" style="stroke:#038048;stroke-width:1"/><text x="35.5" y="588.372" fill="#000" font-family="sans-serif" font-size="11" font-style="italic" lengthAdjust="spacingAndGlyphs" textLength="104">config(boolean): void</text><ellipse cx="26.5" cy="597.789" fill="#84BE84" rx="3" ry="3" style="stroke:#038048;stroke-width:1"/><text x="35.5" y="602.208" fill="#000" font-family="sans-serif" font-size="11" font-style="italic" lengthAdjust="spacingAndGlyphs" textLength="86">config(char): void</text><ellipse cx="26.5" cy="611.625" fill="#84BE84" rx="3" ry="3" style="stroke:#038048;stroke-width:1"/><text x="35.5" y="616.044" fill="#000" font-family="sans-serif" font-size="11" font-style="italic" lengthAdjust="spacingAndGlyphs" textLength="92">config(char[]): void</text><ellipse cx="26.5" cy="625.461" fill="#84BE84" rx="3" ry="3" style="stroke:#038048;stroke-width:1"/><text x="35.5" y="629.88" fill="#000" font-family="sans-serif" font-size="11" font-style="italic" lengthAdjust="spacingAndGlyphs" textLength="98">config(double): void</text><ellipse cx="26.5" cy="639.297" fill="#84BE84" rx="3" ry="3" style="stroke:#038048;stroke-width:1"/><text x="35.5" y="643.716" fill="#000" font-family="sans-serif" font-size="11" font-style="italic" lengthAdjust="spacingAndGlyphs" textLength="85">config(float): void</text><ellipse cx="26.5" cy="653.133" fill="#84BE84" rx="3" ry="3" style="stroke:#038048;stroke-width:1"/><text x="35.5" y="657.552" fill="#000" font-family="sans-serif" font-size="11" font-style="italic" lengthAdjust="spacingAndGlyphs" textLength="76">config(int): void</text><ellipse cx="26.5" cy="666.969" fill="#84BE84" rx="3" ry="3" style="stroke:#038048;stroke-width:1"/><text x="35.5" y="671.388" fill="#000" font-family="sans-serif" font-size="11" font-style="italic" lengthAdjust="spacingAndGlyphs" textLength="85">config(long): void</text><ellipse cx="26.5" cy="680.805" fill="#84BE84" rx="3" ry="3" style="stroke:#038048;stroke-width:1"/><text x="35.5" y="685.224" fill="#000" font-family="sans-serif" font-size="11" font-style="italic" lengthAdjust="spacingAndGlyphs" textLength="98">config(Object): void</text><ellipse cx="26.5" cy="694.641" fill="#84BE84" rx="3" ry="3" style="stroke:#038048;stroke-width:1"/><text x="35.5" y="699.06" fill="#000" font-family="sans-serif" font-size="11" font-style="italic" lengthAdjust="spacingAndGlyphs" textLength="93">config(String): void</text><ellipse cx="26.5" cy="708.477" fill="#84BE84" rx="3" ry="3" style="stroke:#038048;stroke-width:1"/><text x="35.5" y="712.895" fill="#000" font-family="sans-serif" font-size="11" font-style="italic" lengthAdjust="spacingAndGlyphs" textLength="92">info(boolean): void</text><ellipse cx="26.5" cy="722.313" fill="#84BE84" rx="3" ry="3" style="stroke:#038048;stroke-width:1"/><text x="35.5" y="726.731" fill="#000" font-family="sans-serif" font-size="11" font-style="italic" lengthAdjust="spacingAndGlyphs" textLength="74">info(char): void</text><ellipse cx="26.5" cy="736.148" fill="#84BE84" rx="3" ry="3" style="stroke:#038048;stroke-width:1"/><text x="35.5" y="740.567" fill="#000" font-family="sans-serif" font-size="11" font-style="italic" lengthAdjust="spacingAndGlyphs" textLength="80">info(char[]): void</text><ellipse cx="26.5" cy="749.984" fill="#84BE84" rx="3" ry="3" style="stroke:#038048;stroke-width:1"/><text x="35.5" y="754.403" fill="#000" font-family="sans-serif" font-size="11" font-style="italic" lengthAdjust="spacingAndGlyphs" textLength="86">info(double): void</text><ellipse cx="26.5" cy="763.82" fill="#84BE84" rx="3" ry="3" style="stroke:#038048;stroke-width:1"/><text x="35.5" y="768.239" fill="#000" font-family="sans-serif" font-size="11" font-style="italic" lengthAdjust="spacingAndGlyphs" textLength="73">info(float): void</text><ellipse cx="26.5" cy="777.656" fill="#84BE84" rx="3" ry="3" style="stroke:#038048;stroke-width:1"/><text x="35.5" y="782.075" fill="#000" font-family="sans-serif" font-size="11" font-style="italic" lengthAdjust="spacingAndGlyphs" textLength="64">info(int): void</text><ellipse cx="26.5" cy="791.492" fill="#84BE84" rx="3" ry="3" style="stroke:#038048;stroke-width:1"/><text x="35.5" y="795.911" fill="#000" font-family="sans-serif" font-size="11" font-style="italic" lengthAdjust="spacingAndGlyphs" textLength="73">info(long): void</text><ellipse cx="26.5" cy="805.328" fill="#84BE84" rx="3" ry="3" style="stroke:#038048;stroke-width:1"/><text x="35.5" y="809.747" fill="#000" font-family="sans-serif" font-size="11" font-style="italic" lengthAdjust="spacingAndGlyphs" textLength="86">info(Object): void</text><ellipse cx="26.5" cy="819.164" fill="#84BE84" rx="3" ry="3" style="stroke:#038048;stroke-width:1"/><text x="35.5" y="823.583" fill="#000" font-family="sans-serif" font-size="11" font-style="italic" lengthAdjust="spacingAndGlyphs" textLength="81">info(String): void</text><ellipse cx="26.5" cy="833" fill="#84BE84" rx="3" ry="3" style="stroke:#038048;stroke-width:1"/><text x="35.5" y="837.419" fill="#000" font-family="sans-serif" font-size="11" font-style="italic" lengthAdjust="spacingAndGlyphs" textLength="112">warning(boolean): void</text><ellipse cx="26.5" cy="846.836" fill="#84BE84" rx="3" ry="3" style="stroke:#038048;stroke-width:1"/><text x="35.5" y="851.255" fill="#000" font-family="sans-serif" font-size="11" font-style="italic" lengthAdjust="spacingAndGlyphs" textLength="94">warning(char): void</text><ellipse cx="26.5" cy="860.672" fill="#84BE84" rx="3" ry="3" style="stroke:#038048;stroke-width:1"/><text x="35.5" y="865.091" fill="#000" font-family="sans-serif" font-size="11" font-style="italic" lengthAdjust="spacingAndGlyphs" textLength="100">warning(char[]): void</text><ellipse cx="26.5" cy="874.508" fill="#84BE84" rx="3" ry="3" style="stroke:#038048;stroke-width:1"/><text x="35.5" y="878.927" fill="#000" font-family="sans-serif" font-size="11" font-style="italic" lengthAdjust="spacingAndGlyphs" textLength="106">warning(double): void</text><ellipse cx="26.5" cy="888.344" fill="#84BE84" rx="3" ry="3" style="stroke:#038048;stroke-width:1"/><text x="35.5" y="892.763" fill="#000" font-family="sans-serif" font-size="11" font-style="italic" lengthAdjust="spacingAndGlyphs" textLength="93">warning(float): void</text><ellipse cx="26.5" cy="902.18" fill="#84BE84" rx="3" ry="3" style="stroke:#038048;stroke-width:1"/><text x="35.5" y="906.599" fill="#000" font-family="sans-serif" font-size="11" font-style="italic" lengthAdjust="spacingAndGlyphs" textLength="84">warning(int): void</text><ellipse cx="26.5" cy="916.016" fill="#84BE84" rx="3" ry="3" style="stroke:#038048;stroke-width:1"/><text x="35.5" y="920.435" fill="#000" font-family="sans-serif" font-size="11" font-style="italic" lengthAdjust="spacingAndGlyphs" textLength="93">warning(long): void</text><ellipse cx="26.5" cy="929.852" fill="#84BE84" rx="3" ry="3" style="stroke:#038048;stroke-width:1"/><text x="35.5" y="934.27" fill="#000" font-family="sans-serif" font-size="11" font-style="italic" lengthAdjust="spacingAndGlyphs" textLength="106">warning(Object): void</text><ellipse cx="26.5" cy="943.688" fill="#84BE84" rx="3" ry="3" style="stroke:#038048;stroke-width:1"/><text x="35.5" y="948.106" fill="#000" font-family="sans-serif" font-size="11" font-style="italic" lengthAdjust="spacingAndGlyphs" textLength="101">warning(String): void</text><ellipse cx="26.5" cy="957.523" fill="#84BE84" rx="3" ry="3" style="stroke:#038048;stroke-width:1"/><text x="35.5" y="961.942" fill="#000" font-family="sans-serif" font-size="11" font-style="italic" lengthAdjust="spacingAndGlyphs" textLength="107">severe(boolean): void</text><ellipse cx="26.5" cy="971.359" fill="#84BE84" rx="3" ry="3" style="stroke:#038048;stroke-width:1"/><text x="35.5" y="975.778" fill="#000" font-family="sans-serif" font-size="11" font-style="italic" lengthAdjust="spacingAndGlyphs" textLength="89">severe(char): void</text><ellipse cx="26.5" cy="985.195" fill="#84BE84" rx="3" ry="3" style="stroke:#038048;stroke-width:1"/><text x="35.5" y="989.614" fill="#000" font-family="sans-serif" font-size="11" font-style="italic" lengthAdjust="spacingAndGlyphs" textLength="95">severe(char[]): void</text><ellipse cx="26.5" cy="999.031" fill="#84BE84" rx="3" ry="3" style="stroke:#038048;stroke-width:1"/><text x="35.5" y="1003.45" fill="#000" font-family="sans-serif" font-size="11" font-style="italic" lengthAdjust="spacingAndGlyphs" textLength="101">severe(double): void</text><ellipse cx="26.5" cy="1012.867" fill="#84BE84" rx="3" ry="3" style="stroke:#038048;stroke-width:1"/><text x="35.5" y="1017.286" fill="#000" font-family="sans-serif" font-size="11" font-style="italic" lengthAdjust="spacingAndGlyphs" textLength="88">severe(float): void</text><ellipse cx="26.5" cy="1026.703" fill="#84BE84" rx="3" ry="3" style="stroke:#038048;stroke-width:1"/><text x="35.5" y="1031.122" fill="#000" font-family="sans-serif" font-size="11" font-style="italic" lengthAdjust="spacingAndGlyphs" textLength="79">severe(int): void</text><ellipse cx="26.5" cy="1040.539" fill="#84BE84" rx="3" ry="3" style="stroke:#038048;stroke-width:1"/><text x="35.5" y="1044.958" fill="#000" font-family="sans-serif" font-size="11" font-style="italic" lengthAdjust="spacingAndGlyphs" textLength="88">severe(long): void</text><ellipse cx="26.5" cy="1054.375" fill="#84BE84" rx="3" ry="3" style="stroke:#038048;stroke-width:1"/><text x="35.5" y="1058.794" fill="#000" font-family="sans-serif" font-size="11" font-style="italic" lengthAdjust="spacingAndGlyphs" textLength="101">severe(Object): void</text><ellipse cx="26.5" cy="1068.211" fill="#84BE84" rx="3" ry="3" style="stroke:#038048;stroke-width:1"/><text x="35.5" y="1072.63" fill="#000" font-family="sans-serif" font-size="11" font-style="italic" lengthAdjust="spacingAndGlyphs" textLength="96">severe(String): void</text><ellipse cx="26.5" cy="1082.047" fill="#84BE84" rx="3" ry="3" style="stroke:#038048;stroke-width:1"/><text x="35.5" y="1086.466" fill="#000" font-family="sans-serif" font-size="11" font-style="italic" lengthAdjust="spacingAndGlyphs" textLength="74">newLine(): void</text></a><path id="doa.engine.log.Logger-backto-doa.engine.log.DoaLogger" fill="none" d="M98,1113.35 C98,1126.55 98,1139.75 98,1152.95" codeLine="164" style="stroke:#a80036;stroke-width:1;stroke-dasharray:7,7"/><polygon fill="none" points="91 1113.35 98 1093.35 105 1113.35 91 1113.35" style="stroke:#a80036;stroke-width:1"/><text x="0" y="2311.771" fill="#888" font-family="sans-serif" font-size="10" lengthAdjust="spacingAndGlyphs" textLength="190">UMLDoclet 2.0.12, PlantUML 1.2020.16</text></g></svg>