<?xml version="1.0" encoding="UTF-8" standalone="no"?><svg xmlns="http://www.w3.org/2000/svg" xmlns:xlink="http://www.w3.org/1999/xlink" contentScriptType="application/ecmascript" contentStyleType="text/css" height="232px" preserveAspectRatio="none" style="width:219px;height:232px;" version="1.1" viewBox="0 0 219 232" width="219px" zoomAndPan="magnify"><defs><filter height="300%" id="f580e414s60zw" width="300%" x="-1" y="-1"><feGaussianBlur result="blurOut" stdDeviation="2.0"/><feColorMatrix in="blurOut" result="blurOut2" type="matrix" values="0 0 0 0 0 0 0 0 0 0 0 0 0 0 0 0 0 0 .4 0"/><feOffset dx="4.0" dy="4.0" in="blurOut2" result="blurOut3"/><feBlend in="SourceGraphic" in2="blurOut3" mode="normal"/></filter></defs><g><!--MD5=[758ed8ee94f706de2aca89fbd03aa085]
class doa.engine.log.LogLevel--><a href="LogLevel.html" target="_top" title="LogLevel.html" xlink:actuate="onRequest" xlink:href="LogLevel.html" xlink:show="new" xlink:title="LogLevel.html" xlink:type="simple"><rect codeLine="5" fill="#FEFECE" filter="url(#f580e414s60zw)" height="194.5469" id="doa.engine.log.LogLevel" style="stroke: #A80036; stroke-width: 1.5;" width="193" x="7" y="7"/><ellipse cx="63.25" cy="27.0938" fill="#EB937F" rx="11" ry="11" style="stroke: #A80036; stroke-width: 1.0;"/><path d="M62.1094,27.8906 L62.1094,30.3906 L66.4375,30.3906 L66.4375,29.4688 Q66.4375,28.8594 66.6719,28.5938 Q66.9219,28.3281 67.2969,28.3281 Q67.6719,28.3281 67.9063,28.5938 Q68.1406,28.8594 68.1406,29.4688 L68.1406,32.0938 L60.1406,32.0938 Q59.5156,32.0938 59.25,31.8594 Q59,31.625 59,31.2344 Q59,30.8594 59.2656,30.625 Q59.5313,30.3906 60.1406,30.3906 L60.4063,30.3906 L60.4063,23.7344 L60.1406,23.7344 Q59.5156,23.7344 59.25,23.5 Q59,23.2656 59,22.875 Q59,22.5 59.25,22.2656 Q59.5156,22.0313 60.1406,22.0313 L67.7656,22.0313 L67.7656,24.625 Q67.7656,25.2344 67.5313,25.5 Q67.3125,25.75 66.9219,25.75 Q66.5469,25.75 66.3125,25.5 Q66.0781,25.2344 66.0781,24.625 L66.0781,23.7344 L62.1094,23.7344 L62.1094,26.1875 L63.5938,26.1875 Q63.5938,25.5313 63.7188,25.3438 Q63.9844,24.9375 64.4531,24.9375 Q64.8281,24.9375 65.0625,25.2031 Q65.2969,25.4531 65.2969,26.0625 L65.2969,28.0313 Q65.2969,28.5781 65.1719,28.7656 Q64.9063,29.1563 64.4531,29.1563 Q63.9844,29.1563 63.7188,28.75 Q63.5938,28.5625 63.5938,27.8906 L62.1094,27.8906 Z "/><text fill="#000000" font-family="sans-serif" font-size="14" lengthAdjust="spacingAndGlyphs" textLength="58" x="90.75" y="26.5332">LogLevel</text><text fill="#000000" font-family="sans-serif" font-size="10" lengthAdjust="spacingAndGlyphs" textLength="72" x="83.75" y="39.9902">doa.engine.log</text><line style="stroke: #A80036; stroke-width: 1.5;" x1="8" x2="199" y1="47.1875" y2="47.1875"/><ellipse cx="18" cy="58.1875" fill="none" rx="3" ry="3" style="stroke: #038048; stroke-width: 1.0;"/><text fill="#000000" font-family="sans-serif" font-size="11" lengthAdjust="spacingAndGlyphs" text-decoration="underline" textLength="20" x="27" y="62.6064">OFF</text><ellipse cx="18" cy="72.0234" fill="none" rx="3" ry="3" style="stroke: #038048; stroke-width: 1.0;"/><text fill="#000000" font-family="sans-serif" font-size="11" lengthAdjust="spacingAndGlyphs" text-decoration="underline" textLength="40" x="27" y="76.4424">SEVERE</text><ellipse cx="18" cy="85.8594" fill="none" rx="3" ry="3" style="stroke: #038048; stroke-width: 1.0;"/><text fill="#000000" font-family="sans-serif" font-size="11" lengthAdjust="spacingAndGlyphs" text-decoration="underline" textLength="49" x="27" y="90.2783">WARNING</text><ellipse cx="18" cy="99.6953" fill="none" rx="3" ry="3" style="stroke: #038048; stroke-width: 1.0;"/><text fill="#000000" font-family="sans-serif" font-size="11" lengthAdjust="spacingAndGlyphs" text-decoration="underline" textLength="23" x="27" y="104.1143">INFO</text><ellipse cx="18" cy="113.5313" fill="none" rx="3" ry="3" style="stroke: #038048; stroke-width: 1.0;"/><text fill="#000000" font-family="sans-serif" font-size="11" lengthAdjust="spacingAndGlyphs" text-decoration="underline" textLength="38" x="27" y="117.9502">CONFIG</text><ellipse cx="18" cy="127.3672" fill="none" rx="3" ry="3" style="stroke: #038048; stroke-width: 1.0;"/><text fill="#000000" font-family="sans-serif" font-size="11" lengthAdjust="spacingAndGlyphs" text-decoration="underline" textLength="21" x="27" y="131.7861">FINE</text><ellipse cx="18" cy="141.2031" fill="none" rx="3" ry="3" style="stroke: #038048; stroke-width: 1.0;"/><text fill="#000000" font-family="sans-serif" font-size="11" lengthAdjust="spacingAndGlyphs" text-decoration="underline" textLength="28" x="27" y="145.6221">FINER</text><ellipse cx="18" cy="155.0391" fill="none" rx="3" ry="3" style="stroke: #038048; stroke-width: 1.0;"/><text fill="#000000" font-family="sans-serif" font-size="11" lengthAdjust="spacingAndGlyphs" text-decoration="underline" textLength="34" x="27" y="159.458">FINEST</text><line style="stroke: #A80036; stroke-width: 1.5;" x1="8" x2="199" y1="165.875" y2="165.875"/><ellipse cx="18" cy="176.875" fill="#84BE84" rx="3" ry="3" style="stroke: #038048; stroke-width: 1.0;"/><text fill="#000000" font-family="sans-serif" font-size="11" lengthAdjust="spacingAndGlyphs" textLength="131" x="27" y="181.2939">getColorSequence(): String</text><ellipse cx="18" cy="190.7109" fill="#84BE84" rx="3" ry="3" style="stroke: #038048; stroke-width: 1.0;"/><text fill="#000000" font-family="sans-serif" font-size="11" lengthAdjust="spacingAndGlyphs" textLength="167" x="27" y="195.1299">getExtraSpaceCharacters(): String</text></a><text fill="#888888" font-family="sans-serif" font-size="10" lengthAdjust="spacingAndGlyphs" textLength="190" x="8.5" y="218.9277">UMLDoclet 2.0.12, PlantUML 1.2020.16</text><!--MD5=[2e2fef3b7a52af3386f98f50b5c00ba4]
@startuml
    set namespaceSeparator none
    hide empty fields
    hide empty methods

    enum "<size:14>LogLevel\n<size:10>doa.engine.log" as doa.engine.log.LogLevel [[LogLevel.html]] {
        {static} +OFF
        {static} +SEVERE
        {static} +WARNING
        {static} +INFO
        {static} +CONFIG
        {static} +FINE
        {static} +FINER
        {static} +FINEST
        +getColorSequence(): String
        +getExtraSpaceCharacters(): String
    }

    center footer UMLDoclet 2.0.12, PlantUML 1.2020.16
@enduml

PlantUML version 1.2020.16(Sun Aug 23 23:20:43 TRT 2020)
(APACHE source distribution)
Java Runtime: Java(TM) SE Runtime Environment
JVM: Java HotSpot(TM) 64-Bit Server VM
Default Encoding: Cp1254
Language: en
Country: US
--></g></svg>