<svg xmlns="http://www.w3.org/2000/svg" xmlns:xlink="http://www.w3.org/1999/xlink" width="219" height="232" contentScriptType="application/ecmascript" contentStyleType="text/css" style="width:219px;height:232px" preserveAspectRatio="none" version="1.1" viewBox="0 0 219 232" zoomAndPan="magnify"><defs><filter id="f580e414s60zw" width="300%" height="300%" x="-1" y="-1"><feGaussianBlur result="blurOut" stdDeviation="2"/><feColorMatrix in="blurOut" result="blurOut2" type="matrix" values="0 0 0 0 0 0 0 0 0 0 0 0 0 0 0 0 0 0 .4 0"/><feOffset dx="4" dy="4" in="blurOut2" result="blurOut3"/><feBlend in="SourceGraphic" in2="blurOut3" mode="normal"/></filter></defs><g><a href="LogLevel.html" target="_top" title="LogLevel.html" xlink:actuate="onRequest" xlink:href="LogLevel.html" xlink:show="new" xlink:title="LogLevel.html" xlink:type="simple"><rect id="doa.engine.log.LogLevel" width="193" height="194.547" x="7" y="7" fill="#FEFECE" codeLine="5" filter="url(#f580e414s60zw)" style="stroke:#a80036;stroke-width:1.5"/><ellipse cx="63.25" cy="27.094" fill="#EB937F" rx="11" ry="11" style="stroke:#a80036;stroke-width:1"/><path d="M62.1094,27.8906 L62.1094,30.3906 L66.4375,30.3906 L66.4375,29.4688 Q66.4375,28.8594 66.6719,28.5938 Q66.9219,28.3281 67.2969,28.3281 Q67.6719,28.3281 67.9063,28.5938 Q68.1406,28.8594 68.1406,29.4688 L68.1406,32.0938 L60.1406,32.0938 Q59.5156,32.0938 59.25,31.8594 Q59,31.625 59,31.2344 Q59,30.8594 59.2656,30.625 Q59.5313,30.3906 60.1406,30.3906 L60.4063,30.3906 L60.4063,23.7344 L60.1406,23.7344 Q59.5156,23.7344 59.25,23.5 Q59,23.2656 59,22.875 Q59,22.5 59.25,22.2656 Q59.5156,22.0313 60.1406,22.0313 L67.7656,22.0313 L67.7656,24.625 Q67.7656,25.2344 67.5313,25.5 Q67.3125,25.75 66.9219,25.75 Q66.5469,25.75 66.3125,25.5 Q66.0781,25.2344 66.0781,24.625 L66.0781,23.7344 L62.1094,23.7344 L62.1094,26.1875 L63.5938,26.1875 Q63.5938,25.5313 63.7188,25.3438 Q63.9844,24.9375 64.4531,24.9375 Q64.8281,24.9375 65.0625,25.2031 Q65.2969,25.4531 65.2969,26.0625 L65.2969,28.0313 Q65.2969,28.5781 65.1719,28.7656 Q64.9063,29.1563 64.4531,29.1563 Q63.9844,29.1563 63.7188,28.75 Q63.5938,28.5625 63.5938,27.8906 L62.1094,27.8906 Z"/><text x="90.75" y="26.533" fill="#000" font-family="sans-serif" font-size="14" lengthAdjust="spacingAndGlyphs" textLength="58">LogLevel</text><text x="83.75" y="39.99" fill="#000" font-family="sans-serif" font-size="10" lengthAdjust="spacingAndGlyphs" textLength="72">doa.engine.log</text><line style="stroke:#a80036;stroke-width:1.5" x1="8" x2="199" y1="47.188" y2="47.188"/><ellipse cx="18" cy="58.188" fill="none" rx="3" ry="3" style="stroke:#038048;stroke-width:1"/><text x="27" y="62.606" fill="#000" font-family="sans-serif" font-size="11" lengthAdjust="spacingAndGlyphs" text-decoration="underline" textLength="20">OFF</text><ellipse cx="18" cy="72.023" fill="none" rx="3" ry="3" style="stroke:#038048;stroke-width:1"/><text x="27" y="76.442" fill="#000" font-family="sans-serif" font-size="11" lengthAdjust="spacingAndGlyphs" text-decoration="underline" textLength="40">SEVERE</text><ellipse cx="18" cy="85.859" fill="none" rx="3" ry="3" style="stroke:#038048;stroke-width:1"/><text x="27" y="90.278" fill="#000" font-family="sans-serif" font-size="11" lengthAdjust="spacingAndGlyphs" text-decoration="underline" textLength="49">WARNING</text><ellipse cx="18" cy="99.695" fill="none" rx="3" ry="3" style="stroke:#038048;stroke-width:1"/><text x="27" y="104.114" fill="#000" font-family="sans-serif" font-size="11" lengthAdjust="spacingAndGlyphs" text-decoration="underline" textLength="23">INFO</text><ellipse cx="18" cy="113.531" fill="none" rx="3" ry="3" style="stroke:#038048;stroke-width:1"/><text x="27" y="117.95" fill="#000" font-family="sans-serif" font-size="11" lengthAdjust="spacingAndGlyphs" text-decoration="underline" textLength="38">CONFIG</text><ellipse cx="18" cy="127.367" fill="none" rx="3" ry="3" style="stroke:#038048;stroke-width:1"/><text x="27" y="131.786" fill="#000" font-family="sans-serif" font-size="11" lengthAdjust="spacingAndGlyphs" text-decoration="underline" textLength="21">FINE</text><ellipse cx="18" cy="141.203" fill="none" rx="3" ry="3" style="stroke:#038048;stroke-width:1"/><text x="27" y="145.622" fill="#000" font-family="sans-serif" font-size="11" lengthAdjust="spacingAndGlyphs" text-decoration="underline" textLength="28">FINER</text><ellipse cx="18" cy="155.039" fill="none" rx="3" ry="3" style="stroke:#038048;stroke-width:1"/><text x="27" y="159.458" fill="#000" font-family="sans-serif" font-size="11" lengthAdjust="spacingAndGlyphs" text-decoration="underline" textLength="34">FINEST</text><line style="stroke:#a80036;stroke-width:1.5" x1="8" x2="199" y1="165.875" y2="165.875"/><ellipse cx="18" cy="176.875" fill="#84BE84" rx="3" ry="3" style="stroke:#038048;stroke-width:1"/><text x="27" y="181.294" fill="#000" font-family="sans-serif" font-size="11" lengthAdjust="spacingAndGlyphs" textLength="131">getColorSequence(): String</text><ellipse cx="18" cy="190.711" fill="#84BE84" rx="3" ry="3" style="stroke:#038048;stroke-width:1"/><text x="27" y="195.13" fill="#000" font-family="sans-serif" font-size="11" lengthAdjust="spacingAndGlyphs" textLength="167">getExtraSpaceCharacters(): String</text></a><text x="8.5" y="218.928" fill="#888" font-family="sans-serif" font-size="10" lengthAdjust="spacingAndGlyphs" textLength="190">UMLDoclet 2.0.12, PlantUML 1.2020.16</text></g></svg>