<svg xmlns="http://www.w3.org/2000/svg" xmlns:xlink="http://www.w3.org/1999/xlink" width="1846" height="408" contentScriptType="application/ecmascript" contentStyleType="text/css" style="width:1846px;height:408px" preserveAspectRatio="none" version="1.1" viewBox="0 0 1846 408" zoomAndPan="magnify"><defs><filter id="f1vrj13bbr8jfp" width="300%" height="300%" x="-1" y="-1"><feGaussianBlur result="blurOut" stdDeviation="2"/><feColorMatrix in="blurOut" result="blurOut2" type="matrix" values="0 0 0 0 0 0 0 0 0 0 0 0 0 0 0 0 0 0 .4 0"/><feOffset dx="4" dy="4" in="blurOut2" result="blurOut3"/><feBlend in="SourceGraphic" in2="blurOut3" mode="normal"/></filter></defs><g><a href="doa\engine\core\package-summary.html" target="_top" title="doa\engine\core\package-summary.html" xlink:actuate="onRequest" xlink:href="doa\engine\core\package-summary.html" xlink:show="new" xlink:title="doa\engine\core\package-summary.html" xlink:type="simple"><rect id="doa.engine.core" width="95" height="25.094" x="137.01" y="7" fill="#FEFECE" codeLine="33" filter="url(#f1vrj13bbr8jfp)" style="stroke:#a80036;stroke-width:1.5"/><text x="140.01" y="24.457" fill="#000" font-family="sans-serif" font-size="12" lengthAdjust="spacingAndGlyphs" textLength="89">doa.engine.core</text></a><a href="doa\engine\scene\package-summary.html" target="_top" title="doa\engine\scene\package-summary.html" xlink:actuate="onRequest" xlink:href="doa\engine\scene\package-summary.html" xlink:show="new" xlink:title="doa\engine\scene\package-summary.html" xlink:type="simple"><rect id="doa.engine.scene" width="105" height="25.094" x="621.01" y="92" fill="#FEFECE" codeLine="35" filter="url(#f1vrj13bbr8jfp)" style="stroke:#a80036;stroke-width:1.5"/><text x="624.01" y="109.457" fill="#000" font-family="sans-serif" font-size="12" lengthAdjust="spacingAndGlyphs" textLength="99">doa.engine.scene</text></a><a href="doa\engine\maths\package-summary.html" target="_top" title="doa\engine\maths\package-summary.html" xlink:actuate="onRequest" xlink:href="doa\engine\maths\package-summary.html" xlink:show="new" xlink:title="doa\engine\maths\package-summary.html" xlink:type="simple"><rect id="doa.engine.maths" width="106" height="25.094" x="583.51" y="347" fill="#FEFECE" codeLine="37" filter="url(#f1vrj13bbr8jfp)" style="stroke:#a80036;stroke-width:1.5"/><text x="586.51" y="364.457" fill="#000" font-family="sans-serif" font-size="12" lengthAdjust="spacingAndGlyphs" textLength="100">doa.engine.maths</text></a><rect id="org.lwjgl.opengl.awt" width="115" height="25.094" x="51.01" y="92" fill="#FEFECE" filter="url(#f1vrj13bbr8jfp)" style="stroke:#a80036;stroke-width:1.5"/><text x="54.01" y="109.457" fill="#000" font-family="sans-serif" font-size="12" lengthAdjust="spacingAndGlyphs" textLength="109">org.lwjgl.opengl.awt</text><a href="doa\engine\graphics\package-summary.html" target="_top" title="doa\engine\graphics\package-summary.html" xlink:actuate="onRequest" xlink:href="doa\engine\graphics\package-summary.html" xlink:show="new" xlink:title="doa\engine\graphics\package-summary.html" xlink:type="simple"><rect id="doa.engine.graphics" width="119" height="25.094" x="201.01" y="92" fill="#FEFECE" codeLine="39" filter="url(#f1vrj13bbr8jfp)" style="stroke:#a80036;stroke-width:1.5"/><text x="204.01" y="109.457" fill="#000" font-family="sans-serif" font-size="12" lengthAdjust="spacingAndGlyphs" textLength="113">doa.engine.graphics</text></a><a href="doa\engine\log\package-summary.html" target="_top" title="doa\engine\log\package-summary.html" xlink:actuate="onRequest" xlink:href="doa\engine\log\package-summary.html" xlink:show="new" xlink:title="doa\engine\log\package-summary.html" xlink:type="simple"><rect id="doa.engine.log" width="88" height="25.094" x="50.51" y="177" fill="#FEFECE" codeLine="41" filter="url(#f1vrj13bbr8jfp)" style="stroke:#a80036;stroke-width:1.5"/><text x="53.51" y="194.457" fill="#000" font-family="sans-serif" font-size="12" lengthAdjust="spacingAndGlyphs" textLength="82">doa.engine.log</text></a><a href="doa\engine\scene\elements\package-summary.html" target="_top" title="doa\engine\scene\elements\package-summary.html" xlink:actuate="onRequest" xlink:href="doa\engine\scene\elements\package-summary.html" xlink:show="new" xlink:title="doa\engine\scene\elements\package-summary.html" xlink:type="simple"><rect id="doa.engine.scene.elements" width="160" height="25.094" x="420.51" y="262" fill="#FEFECE" codeLine="43" filter="url(#f1vrj13bbr8jfp)" style="stroke:#a80036;stroke-width:1.5"/><text x="423.51" y="279.457" fill="#000" font-family="sans-serif" font-size="12" lengthAdjust="spacingAndGlyphs" textLength="154">doa.engine.scene.elements</text></a><a href="doa\engine\scene\elements\physics\package-summary.html" target="_top" title="doa\engine\scene\elements\physics\package-summary.html" xlink:actuate="onRequest" xlink:href="doa\engine\scene\elements\physics\package-summary.html" xlink:show="new" xlink:title="doa\engine\scene\elements\physics\package-summary.html" xlink:type="simple"><rect id="doa.engine.scene.elements.physics" width="205" height="25.094" x="853.01" y="177" fill="#FEFECE" codeLine="45" filter="url(#f1vrj13bbr8jfp)" style="stroke:#a80036;stroke-width:1.5"/><text x="856.01" y="194.457" fill="#000" font-family="sans-serif" font-size="12" lengthAdjust="spacingAndGlyphs" textLength="199">doa.engine.scene.elements.physics</text></a><rect id="org.jbox2d.callbacks" width="118" height="25.094" x="244.51" y="177" fill="#FEFECE" filter="url(#f1vrj13bbr8jfp)" style="stroke:#a80036;stroke-width:1.5"/><text x="247.51" y="194.457" fill="#000" font-family="sans-serif" font-size="12" lengthAdjust="spacingAndGlyphs" textLength="112">org.jbox2d.callbacks</text><rect id="org.jbox2d.dynamics.contacts" width="168" height="25.094" x="502.51" y="177" fill="#FEFECE" filter="url(#f1vrj13bbr8jfp)" style="stroke:#a80036;stroke-width:1.5"/><text x="505.51" y="194.457" fill="#000" font-family="sans-serif" font-size="12" lengthAdjust="spacingAndGlyphs" textLength="162">org.jbox2d.dynamics.contacts</text><rect id="org.jbox2d.collision" width="112" height="25.094" x="705.51" y="177" fill="#FEFECE" filter="url(#f1vrj13bbr8jfp)" style="stroke:#a80036;stroke-width:1.5"/><text x="708.51" y="194.457" fill="#000" font-family="sans-serif" font-size="12" lengthAdjust="spacingAndGlyphs" textLength="106">org.jbox2d.collision</text><rect id="org.jbox2d.dynamics" width="119" height="25.094" x="1021.01" y="262" fill="#FEFECE" filter="url(#f1vrj13bbr8jfp)" style="stroke:#a80036;stroke-width:1.5"/><text x="1024.01" y="279.457" fill="#000" font-family="sans-serif" font-size="12" lengthAdjust="spacingAndGlyphs" textLength="113">org.jbox2d.dynamics</text><rect id="com.google.common.collect" width="161" height="25.094" x="1093.01" y="177" fill="#FEFECE" filter="url(#f1vrj13bbr8jfp)" style="stroke:#a80036;stroke-width:1.5"/><text x="1096.01" y="194.457" fill="#000" font-family="sans-serif" font-size="12" lengthAdjust="spacingAndGlyphs" textLength="155">com.google.common.collect</text><a href="doa\engine\scene\elements\renderers\package-summary.html" target="_top" title="doa\engine\scene\elements\renderers\package-summary.html" xlink:actuate="onRequest" xlink:href="doa\engine\scene\elements\renderers\package-summary.html" xlink:show="new" xlink:title="doa\engine\scene\elements\renderers\package-summary.html" xlink:type="simple"><rect id="doa.engine.scene.elements.renderers" width="217" height="25.094" x="742.01" y="7" fill="#FEFECE" codeLine="47" filter="url(#f1vrj13bbr8jfp)" style="stroke:#a80036;stroke-width:1.5"/><text x="745.01" y="24.457" fill="#000" font-family="sans-serif" font-size="12" lengthAdjust="spacingAndGlyphs" textLength="211">doa.engine.scene.elements.renderers</text></a><a href="doa\engine\scene\elements\scripts\package-summary.html" target="_top" title="doa\engine\scene\elements\scripts\package-summary.html" xlink:actuate="onRequest" xlink:href="doa\engine\scene\elements\scripts\package-summary.html" xlink:show="new" xlink:title="doa\engine\scene\elements\scripts\package-summary.html" xlink:type="simple"><rect id="doa.engine.scene.elements.scripts" width="200" height="25.094" x="1172.51" y="7" fill="#FEFECE" codeLine="49" filter="url(#f1vrj13bbr8jfp)" style="stroke:#a80036;stroke-width:1.5"/><text x="1175.51" y="24.457" fill="#000" font-family="sans-serif" font-size="12" lengthAdjust="spacingAndGlyphs" textLength="194">doa.engine.scene.elements.scripts</text></a><a href="doa\engine\utils\discordapi\package-summary.html" target="_top" title="doa\engine\utils\discordapi\package-summary.html" xlink:actuate="onRequest" xlink:href="doa\engine\utils\discordapi\package-summary.html" xlink:show="new" xlink:title="doa\engine\utils\discordapi\package-summary.html" xlink:type="simple"><rect id="doa.engine.utils.discordapi" width="155" height="25.094" x="1672.01" y="7" fill="#FEFECE" codeLine="51" filter="url(#f1vrj13bbr8jfp)" style="stroke:#a80036;stroke-width:1.5"/><text x="1675.01" y="24.457" fill="#000" font-family="sans-serif" font-size="12" lengthAdjust="spacingAndGlyphs" textLength="149">doa.engine.utils.discordapi</text></a><rect id="de.jcm.discordgamesdk" width="139" height="25.094" x="1680.01" y="92" fill="#FEFECE" filter="url(#f1vrj13bbr8jfp)" style="stroke:#a80036;stroke-width:1.5"/><text x="1683.01" y="109.457" fill="#000" font-family="sans-serif" font-size="12" lengthAdjust="spacingAndGlyphs" textLength="133">de.jcm.discordgamesdk</text><path id="doa.engine.core-to-doa.engine.scene" fill="none" d="M232.29,28.61 C322.6,43.94 518.01,77.11 615.61,93.67" codeLine="6" style="stroke:#a80036;stroke-width:1"/><polygon fill="#A80036" points="620.75 94.55 612.538 89.113 615.819 93.721 611.211 97.002 620.75 94.55" style="stroke:#a80036;stroke-width:1"/><path id="doa.engine.core-to-doa.engine.maths" fill="none" d="M136.77,29.2 C101.64,38.36 56.21,56.59 33.51,92 C7.12,133.16 6,160.92 32.51,202 C92.24,294.56 438.3,338.83 578.02,353.11" codeLine="7" style="stroke:#a80036;stroke-width:1"/><polygon fill="#A80036" points="583.31 353.65 574.754 348.772 578.335 353.151 573.956 356.732 583.31 353.65" style="stroke:#a80036;stroke-width:1"/><path id="doa.engine.core-to-org.lwjgl.opengl.awt" fill="none" d="M173.94,32.04 C160.63,46.58 137.71,71.61 122.83,87.86" codeLine="8" style="stroke:#a80036;stroke-width:1"/><polygon fill="#A80036" points="119.23 91.79 128.256 87.849 122.605 88.101 122.353 82.449 119.23 91.79" style="stroke:#a80036;stroke-width:1"/><path id="doa.engine.core-to-doa.engine.graphics" fill="none" d="M195.08,32.04 C208.39,46.58 231.31,71.61 246.19,87.86" codeLine="9" style="stroke:#a80036;stroke-width:1"/><polygon fill="#A80036" points="249.79 91.79 246.667 82.449 246.415 88.101 240.764 87.849 249.79 91.79" style="stroke:#a80036;stroke-width:1"/><path id="doa.engine.graphics-to-doa.engine.log" fill="none" d="M237.43,117.04 C207.29,132.11 154.57,158.47 122.27,174.62" codeLine="10" style="stroke:#a80036;stroke-width:1"/><polygon fill="#A80036" points="117.66 176.92 127.498 176.46 122.129 174.678 123.911 169.309 117.66 176.92" style="stroke:#a80036;stroke-width:1"/><path id="doa.engine.scene-to-doa.engine.scene.elements" fill="none" d="M620.66,107.94 C571.09,113.06 500.81,128.8 467.51,177 C450.59,201.49 464.35,237.7 480.16,258.08" codeLine="11" style="stroke:#a80036;stroke-width:1"/><polygon fill="#A80036" points="483.34 261.94 480.693 252.454 480.156 258.085 474.525 257.548 483.34 261.94" style="stroke:#a80036;stroke-width:1"/><path id="doa.engine.scene.elements-to-doa.engine.scene" fill="none" d="M504.7,261.94 C501.32,242.58 484.46,203.13 502.51,177 C528.37,139.57 576.53,121.71 615.42,113.21" codeLine="20" style="stroke:#a80036;stroke-width:1"/><polygon fill="#A80036" points="620.6 112.12 610.97 110.054 615.707 113.147 612.614 117.884 620.6 112.12" style="stroke:#a80036;stroke-width:1"/><path id="doa.engine.scene-to-doa.engine.scene.elements.physics" fill="none" d="M703.57,117.04 C751.16,132.42 843.23,159.56 902.13,175.6" codeLine="12" style="stroke:#a80036;stroke-width:1"/><polygon fill="#A80036" points="907.02 176.92 899.391 170.691 902.197 175.603 897.284 178.409 907.02 176.92" style="stroke:#a80036;stroke-width:1"/><path id="doa.engine.scene.elements.physics-to-doa.engine.scene" fill="none" d="M925.88,176.92 C878.49,161.53 786.42,134.39 727.32,118.37" codeLine="23" style="stroke:#a80036;stroke-width:1"/><polygon fill="#A80036" points="722.41 117.04 730.061 123.242 727.238 118.34 732.14 115.517 722.41 117.04" style="stroke:#a80036;stroke-width:1"/><path id="doa.engine.scene-to-doa.engine.log" fill="none" d="M620.8,112.55 C528.47,124.99 331.5,151.88 165.51,177 C158.49,178.06 151.08,179.22 143.81,180.38" codeLine="13" style="stroke:#a80036;stroke-width:1"/><polygon fill="#A80036" points="138.8 181.18 148.316 183.718 143.738 180.395 147.06 175.817 138.8 181.18" style="stroke:#a80036;stroke-width:1"/><path id="doa.engine.scene-to-org.jbox2d.callbacks" fill="none" d="M622.06,117.04 C553.13,132.5 431.22,159.85 359.87,175.86" codeLine="14" style="stroke:#a80036;stroke-width:1"/><polygon fill="#A80036" points="354.82 176.99 364.48 178.909 359.697 175.889 362.718 171.106 354.82 176.99" style="stroke:#a80036;stroke-width:1"/><path id="doa.engine.scene-to-org.jbox2d.dynamics.contacts" fill="none" d="M661.41,117.04 C646.05,131.7 619.49,157.04 602.47,173.27" codeLine="15" style="stroke:#a80036;stroke-width:1"/><polygon fill="#A80036" points="598.78 176.79 608.049 173.46 602.393 173.334 602.519 167.678 598.78 176.79" style="stroke:#a80036;stroke-width:1"/><path id="doa.engine.scene-to-org.jbox2d.collision" fill="none" d="M685.75,117.04 C701.29,131.7 728.15,157.04 745.36,173.27" codeLine="16" style="stroke:#a80036;stroke-width:1"/><polygon fill="#A80036" points="749.09 176.79 745.295 167.702 745.456 173.356 739.801 173.516 749.09 176.79" style="stroke:#a80036;stroke-width:1"/><path id="doa.engine.scene-to-doa.engine.maths" fill="none" d="M620.82,105.76 C513.76,107.54 276.68,118.17 226.51,177 C123.91,297.32 442.29,340.97 578.16,353.87" codeLine="17" style="stroke:#a80036;stroke-width:1"/><polygon fill="#A80036" points="583.31 354.35 574.713 349.545 578.331 353.894 573.982 357.512 583.31 354.35" style="stroke:#a80036;stroke-width:1"/><path id="doa.engine.scene-to-org.jbox2d.dynamics" fill="none" d="M726.14,107.87 C865.44,114.68 1235.53,136.46 1271.51,177 C1313.36,224.15 1215.82,251.19 1145.29,264.06" codeLine="18" style="stroke:#a80036;stroke-width:1"/><polygon fill="#A80036" points="1140.26 264.97 1149.826 267.315 1145.181 264.086 1148.411 259.441 1140.26 264.97" style="stroke:#a80036;stroke-width:1"/><path id="doa.engine.scene-to-com.google.common.collect" fill="none" d="M726.07,114.23 C815.33,129.04 996.77,159.16 1099.06,176.14" codeLine="19" style="stroke:#a80036;stroke-width:1"/><polygon fill="#A80036" points="1104.17 176.99 1095.955 171.557 1099.239 176.163 1094.633 179.447 1104.17 176.99" style="stroke:#a80036;stroke-width:1"/><path id="doa.engine.scene.elements-to-doa.engine.maths" fill="none" d="M519.42,287.04 C543.84,301.95 586.36,327.89 612.89,344.08" codeLine="21" style="stroke:#a80036;stroke-width:1"/><polygon fill="#A80036" points="617.32 346.79 611.732 338.68 613.055 344.18 607.556 345.503 617.32 346.79" style="stroke:#a80036;stroke-width:1"/><path id="doa.engine.scene.elements.physics-to-doa.engine.maths" fill="none" d="M933.58,202.05 C876.79,231.96 725.01,311.89 663.23,344.43" codeLine="22" style="stroke:#a80036;stroke-width:1"/><polygon fill="#A80036" points="658.59 346.87 668.418 346.222 663.015 344.543 664.694 339.141 658.59 346.87" style="stroke:#a80036;stroke-width:1"/><path id="doa.engine.scene.elements.physics-to-org.jbox2d.dynamics" fill="none" d="M972.89,202.04 C995.25,216.89 1034.09,242.68 1058.49,258.88" codeLine="24" style="stroke:#a80036;stroke-width:1"/><polygon fill="#A80036" points="1062.87 261.79 1057.6 253.47 1058.71 259.017 1053.163 260.126 1062.87 261.79" style="stroke:#a80036;stroke-width:1"/><path id="doa.engine.scene.elements.physics-to-doa.engine.scene.elements" fill="none" d="M892.24,202.04 C807.13,217.57 656.35,245.07 568.76,261.05" codeLine="25" style="stroke:#a80036;stroke-width:1"/><polygon fill="#A80036" points="563.6 261.99 573.173 264.303 568.518 261.089 571.732 256.434 563.6 261.99" style="stroke:#a80036;stroke-width:1"/><path id="doa.engine.scene.elements.renderers-to-doa.engine.maths" fill="none" d="M959.22,23.64 C1116.13,32.77 1379.34,67.91 1302.51,202 C1265.37,266.82 1228.1,262.56 1157.51,287 C996.47,342.75 793.28,355.22 695.03,357.88" codeLine="26" style="stroke:#a80036;stroke-width:1"/><polygon fill="#A80036" points="689.86 358.01 698.96 361.777 694.858 357.882 698.754 353.78 689.86 358.01" style="stroke:#a80036;stroke-width:1"/><path id="doa.engine.scene.elements.renderers-to-doa.engine.scene" fill="none" d="M825.9,32.04 C793.76,47.11 737.55,73.47 703.11,89.62" codeLine="27" style="stroke:#a80036;stroke-width:1"/><polygon fill="#A80036" points="698.2 91.92 708.047 91.712 702.725 89.793 704.644 84.472 698.2 91.92" style="stroke:#a80036;stroke-width:1"/><path id="doa.engine.scene.elements.scripts-to-doa.engine.maths" fill="none" d="M1282.74,32.39 C1306.92,62.02 1363.4,141.13 1333.51,202 C1306.28,257.46 1280.67,263.54 1223.51,287 C1128.55,325.98 823.75,347.69 694.9,355.33" codeLine="28" style="stroke:#a80036;stroke-width:1"/><polygon fill="#A80036" points="689.64 355.64 698.854 359.118 694.632 355.354 698.396 351.132 689.64 355.64" style="stroke:#a80036;stroke-width:1"/><path id="doa.engine.scene.elements.scripts-to-doa.engine.scene" fill="none" d="M1189.22,32.04 C1065.81,49.14 837.52,80.77 731.02,95.53" codeLine="29" style="stroke:#a80036;stroke-width:1"/><polygon fill="#A80036" points="726.04 96.22 735.503 98.949 730.993 95.535 734.407 91.025 726.04 96.22" style="stroke:#a80036;stroke-width:1"/><path id="doa.engine.utils.discordapi-to-de.jcm.discordgamesdk" fill="none" d="M1749.51,32.04 C1749.51,46.21 1749.51,70.35 1749.51,86.6" codeLine="30" style="stroke:#a80036;stroke-width:1"/><polygon fill="#A80036" points="1749.51 91.79 1753.51 82.79 1749.51 86.79 1745.51 82.79 1749.51 91.79" style="stroke:#a80036;stroke-width:1"/><text x="819.005" y="395.475" fill="#888" font-family="sans-serif" font-size="10" lengthAdjust="spacingAndGlyphs" textLength="190">UMLDoclet 2.0.12, PlantUML 1.2020.16</text></g></svg>