<?xml version="1.0" encoding="UTF-8" standalone="no"?><svg xmlns="http://www.w3.org/2000/svg" xmlns:xlink="http://www.w3.org/1999/xlink" contentScriptType="application/ecmascript" contentStyleType="text/css" height="393px" preserveAspectRatio="none" style="width:221px;height:393px;" version="1.1" viewBox="0 0 221 393" width="221px" zoomAndPan="magnify"><defs><filter height="300%" id="faa4h0a7xq05f" width="300%" x="-1" y="-1"><feGaussianBlur result="blurOut" stdDeviation="2.0"/><feColorMatrix in="blurOut" result="blurOut2" type="matrix" values="0 0 0 0 0 0 0 0 0 0 0 0 0 0 0 0 0 0 .4 0"/><feOffset dx="4.0" dy="4.0" in="blurOut2" result="blurOut3"/><feBlend in="SourceGraphic" in2="blurOut3" mode="normal"/></filter></defs><g><!--MD5=[782892c25a4634ace078aace9069034b]
class doa.engine.scene.elements.scripts.DoaMouseAdapter--><a href="DoaMouseAdapter.html" target="_top" title="DoaMouseAdapter.html" xlink:actuate="onRequest" xlink:href="DoaMouseAdapter.html" xlink:show="new" xlink:title="DoaMouseAdapter.html" xlink:type="simple"><rect codeLine="5" fill="#FEFECE" filter="url(#faa4h0a7xq05f)" height="228.0547" id="doa.engine.scene.elements.scripts.DoaMouseAdapter" style="stroke: #A80036; stroke-width: 1.5;" width="195" x="7" y="129"/><ellipse cx="22" cy="149.0938" fill="#A9DCDF" rx="11" ry="11" style="stroke: #A80036; stroke-width: 1.0;"/><path d="M24.1875,150.8594 L20.0469,150.8594 L19.625,151.8906 L20.0469,151.8906 Q20.6563,151.8906 20.9219,152.125 Q21.1875,152.3594 21.1875,152.75 Q21.1875,153.125 20.9219,153.3594 Q20.6563,153.5938 20.0469,153.5938 L17.75,153.5938 Q17.1406,153.5938 16.8906,153.3594 Q16.625,153.125 16.625,152.7344 Q16.625,152.3594 16.9063,152.125 Q17.1719,151.875 17.7969,151.8906 L20.4688,145.2344 L19.3594,145.2344 Q18.75,145.2344 18.4844,145 Q18.2188,144.7656 18.2188,144.375 Q18.2188,144 18.4844,143.7656 Q18.75,143.5313 19.3594,143.5313 L23.0313,143.5313 L26.4219,151.8906 Q27.0156,151.8906 27.2031,152.0313 Q27.5938,152.2969 27.5938,152.75 Q27.5938,153.125 27.3281,153.3594 Q27.0781,153.5938 26.4688,153.5938 L24.1719,153.5938 Q23.5625,153.5938 23.2969,153.3594 Q23.0313,153.125 23.0313,152.7344 Q23.0313,152.3594 23.2969,152.125 Q23.5625,151.8906 24.1719,151.8906 L24.5938,151.8906 L24.1875,150.8594 Z M23.4688,149.1563 L22.1094,145.7813 L20.7344,149.1563 L23.4688,149.1563 Z "/><text fill="#000000" font-family="sans-serif" font-size="14" font-style="italic" lengthAdjust="spacingAndGlyphs" textLength="119" x="58" y="148.5332">DoaMouseAdapter</text><text fill="#000000" font-family="sans-serif" font-size="10" font-style="italic" lengthAdjust="spacingAndGlyphs" textLength="163" x="36" y="161.9902">doa.engine.scene.elements.scripts</text><line style="stroke: #A80036; stroke-width: 1.5;" x1="8" x2="201" y1="169.1875" y2="169.1875"/><ellipse cx="18" cy="180.1875" fill="#84BE84" rx="3" ry="3" style="stroke: #038048; stroke-width: 1.0;"/><text fill="#000000" font-family="sans-serif" font-size="11" lengthAdjust="spacingAndGlyphs" textLength="50" x="27" y="184.6064">tick(): void</text><ellipse cx="18" cy="194.0234" fill="#84BE84" rx="3" ry="3" style="stroke: #038048; stroke-width: 1.0;"/><text fill="#000000" font-family="sans-serif" font-size="11" lengthAdjust="spacingAndGlyphs" textLength="106" x="27" y="198.4424">onMouse1Click(): void</text><ellipse cx="18" cy="207.8594" fill="#84BE84" rx="3" ry="3" style="stroke: #038048; stroke-width: 1.0;"/><text fill="#000000" font-family="sans-serif" font-size="11" lengthAdjust="spacingAndGlyphs" textLength="105" x="27" y="212.2783">onMouse1Hold(): void</text><ellipse cx="18" cy="221.6953" fill="#84BE84" rx="3" ry="3" style="stroke: #038048; stroke-width: 1.0;"/><text fill="#000000" font-family="sans-serif" font-size="11" lengthAdjust="spacingAndGlyphs" textLength="123" x="27" y="226.1143">onMouse1Release(): void</text><ellipse cx="18" cy="235.5313" fill="#84BE84" rx="3" ry="3" style="stroke: #038048; stroke-width: 1.0;"/><text fill="#000000" font-family="sans-serif" font-size="11" lengthAdjust="spacingAndGlyphs" textLength="106" x="27" y="239.9502">onMouse2Click(): void</text><ellipse cx="18" cy="249.3672" fill="#84BE84" rx="3" ry="3" style="stroke: #038048; stroke-width: 1.0;"/><text fill="#000000" font-family="sans-serif" font-size="11" lengthAdjust="spacingAndGlyphs" textLength="105" x="27" y="253.7861">onMouse2Hold(): void</text><ellipse cx="18" cy="263.2031" fill="#84BE84" rx="3" ry="3" style="stroke: #038048; stroke-width: 1.0;"/><text fill="#000000" font-family="sans-serif" font-size="11" lengthAdjust="spacingAndGlyphs" textLength="123" x="27" y="267.6221">onMouse2Release(): void</text><ellipse cx="18" cy="277.0391" fill="#84BE84" rx="3" ry="3" style="stroke: #038048; stroke-width: 1.0;"/><text fill="#000000" font-family="sans-serif" font-size="11" lengthAdjust="spacingAndGlyphs" textLength="106" x="27" y="281.458">onMouse3Click(): void</text><ellipse cx="18" cy="290.875" fill="#84BE84" rx="3" ry="3" style="stroke: #038048; stroke-width: 1.0;"/><text fill="#000000" font-family="sans-serif" font-size="11" lengthAdjust="spacingAndGlyphs" textLength="105" x="27" y="295.2939">onMouse3Hold(): void</text><ellipse cx="18" cy="304.7109" fill="#84BE84" rx="3" ry="3" style="stroke: #038048; stroke-width: 1.0;"/><text fill="#000000" font-family="sans-serif" font-size="11" lengthAdjust="spacingAndGlyphs" textLength="123" x="27" y="309.1299">onMouse3Release(): void</text><ellipse cx="18" cy="318.5469" fill="#84BE84" rx="3" ry="3" style="stroke: #038048; stroke-width: 1.0;"/><text fill="#000000" font-family="sans-serif" font-size="11" lengthAdjust="spacingAndGlyphs" textLength="103" x="27" y="322.9658">onMouseEnter(): void</text><ellipse cx="18" cy="332.3828" fill="#84BE84" rx="3" ry="3" style="stroke: #038048; stroke-width: 1.0;"/><text fill="#000000" font-family="sans-serif" font-size="11" lengthAdjust="spacingAndGlyphs" textLength="107" x="27" y="336.8018">onMouseHover(): void</text><ellipse cx="18" cy="346.2188" fill="#84BE84" rx="3" ry="3" style="stroke: #038048; stroke-width: 1.0;"/><text fill="#000000" font-family="sans-serif" font-size="11" lengthAdjust="spacingAndGlyphs" textLength="95" x="27" y="350.6377">onMouseExit(): void</text></a><!--MD5=[e9471824b515c18ceea710438c12d6bf]
class doa.engine.scene.elements.scripts.DoaScript--><a href="DoaScript.html" target="_top" title="DoaScript.html" xlink:actuate="onRequest" xlink:href="DoaScript.html" xlink:show="new" xlink:title="DoaScript.html" xlink:type="simple"><rect codeLine="21" fill="#FEFECE" filter="url(#faa4h0a7xq05f)" height="62.0234" id="doa.engine.scene.elements.scripts.DoaScript" style="stroke: #A80036; stroke-width: 1.5;" width="195" x="7" y="7"/><ellipse cx="22" cy="27.0938" fill="#A9DCDF" rx="11" ry="11" style="stroke: #A80036; stroke-width: 1.0;"/><path d="M24.1875,28.8594 L20.0469,28.8594 L19.625,29.8906 L20.0469,29.8906 Q20.6563,29.8906 20.9219,30.125 Q21.1875,30.3594 21.1875,30.75 Q21.1875,31.125 20.9219,31.3594 Q20.6563,31.5938 20.0469,31.5938 L17.75,31.5938 Q17.1406,31.5938 16.8906,31.3594 Q16.625,31.125 16.625,30.7344 Q16.625,30.3594 16.9063,30.125 Q17.1719,29.875 17.7969,29.8906 L20.4688,23.2344 L19.3594,23.2344 Q18.75,23.2344 18.4844,23 Q18.2188,22.7656 18.2188,22.375 Q18.2188,22 18.4844,21.7656 Q18.75,21.5313 19.3594,21.5313 L23.0313,21.5313 L26.4219,29.8906 Q27.0156,29.8906 27.2031,30.0313 Q27.5938,30.2969 27.5938,30.75 Q27.5938,31.125 27.3281,31.3594 Q27.0781,31.5938 26.4688,31.5938 L24.1719,31.5938 Q23.5625,31.5938 23.2969,31.3594 Q23.0313,31.125 23.0313,30.7344 Q23.0313,30.3594 23.2969,30.125 Q23.5625,29.8906 24.1719,29.8906 L24.5938,29.8906 L24.1875,28.8594 Z M23.4688,27.1563 L22.1094,23.7813 L20.7344,27.1563 L23.4688,27.1563 Z "/><text fill="#000000" font-family="sans-serif" font-size="14" font-style="italic" lengthAdjust="spacingAndGlyphs" textLength="62" x="86.5" y="26.5332">DoaScript</text><text fill="#000000" font-family="sans-serif" font-size="10" font-style="italic" lengthAdjust="spacingAndGlyphs" textLength="163" x="36" y="39.9902">doa.engine.scene.elements.scripts</text><line style="stroke: #A80036; stroke-width: 1.5;" x1="8" x2="201" y1="47.1875" y2="47.1875"/><ellipse cx="18" cy="58.1875" fill="#84BE84" rx="3" ry="3" style="stroke: #038048; stroke-width: 1.0;"/><text fill="#000000" font-family="sans-serif" font-size="11" font-style="italic" lengthAdjust="spacingAndGlyphs" textLength="52" x="27" y="62.6064">tick(): void</text></a><!--MD5=[1bb1565f8dcb02ae3a7c5f6178d2ef74]
reverse link doa.engine.scene.elements.scripts.DoaScript to doa.engine.scene.elements.scripts.DoaMouseAdapter--><path codeLine="25" d="M104.5,89.53 C104.5,101.62 104.5,115.01 104.5,128.7 " fill="none" id="doa.engine.scene.elements.scripts.DoaScript-backto-doa.engine.scene.elements.scripts.DoaMouseAdapter" style="stroke: #A80036; stroke-width: 1.0;"/><polygon fill="none" points="97.5,89.39,104.5,69.39,111.5,89.39,97.5,89.39" style="stroke: #A80036; stroke-width: 1.0;"/><text fill="#888888" font-family="sans-serif" font-size="10" lengthAdjust="spacingAndGlyphs" textLength="190" x="6.5" y="380.4355">UMLDoclet 2.0.12, PlantUML 1.2020.16</text><!--MD5=[00ef354317c20208aaa1d195553a127c]
@startuml
    set namespaceSeparator none
    hide empty fields
    hide empty methods

    abstract class "<size:14>DoaMouseAdapter\n<size:10>doa.engine.scene.elements.scripts" as doa.engine.scene.elements.scripts.DoaMouseAdapter [[DoaMouseAdapter.html]] {
        +tick(): void
        +onMouse1Click(): void
        +onMouse1Hold(): void
        +onMouse1Release(): void
        +onMouse2Click(): void
        +onMouse2Hold(): void
        +onMouse2Release(): void
        +onMouse3Click(): void
        +onMouse3Hold(): void
        +onMouse3Release(): void
        +onMouseEnter(): void
        +onMouseHover(): void
        +onMouseExit(): void
    }

    abstract class "<size:14>DoaScript\n<size:10>doa.engine.scene.elements.scripts" as doa.engine.scene.elements.scripts.DoaScript [[DoaScript.html]] {
        {abstract} +tick(): void
    }

    doa.engine.scene.elements.scripts.DoaScript <|- - doa.engine.scene.elements.scripts.DoaMouseAdapter

    center footer UMLDoclet 2.0.12, PlantUML 1.2020.16
@enduml

PlantUML version 1.2020.16(Sun Aug 23 23:20:43 TRT 2020)
(APACHE source distribution)
Java Runtime: OpenJDK Runtime Environment
JVM: OpenJDK 64-Bit Server VM
Default Encoding: Cp1252
Language: en
Country: GB
--></g></svg>