<svg xmlns="http://www.w3.org/2000/svg" xmlns:xlink="http://www.w3.org/1999/xlink" width="221" height="393" contentScriptType="application/ecmascript" contentStyleType="text/css" style="width:221px;height:393px" preserveAspectRatio="none" version="1.1" viewBox="0 0 221 393" zoomAndPan="magnify"><defs><filter id="faa4h0a7xq05f" width="300%" height="300%" x="-1" y="-1"><feGaussianBlur result="blurOut" stdDeviation="2"/><feColorMatrix in="blurOut" result="blurOut2" type="matrix" values="0 0 0 0 0 0 0 0 0 0 0 0 0 0 0 0 0 0 .4 0"/><feOffset dx="4" dy="4" in="blurOut2" result="blurOut3"/><feBlend in="SourceGraphic" in2="blurOut3" mode="normal"/></filter></defs><g><a href="DoaMouseAdapter.html" target="_top" title="DoaMouseAdapter.html" xlink:actuate="onRequest" xlink:href="DoaMouseAdapter.html" xlink:show="new" xlink:title="DoaMouseAdapter.html" xlink:type="simple"><rect id="doa.engine.scene.elements.scripts.DoaMouseAdapter" width="195" height="228.055" x="7" y="129" fill="#FEFECE" codeLine="5" filter="url(#faa4h0a7xq05f)" style="stroke:#a80036;stroke-width:1.5"/><ellipse cx="22" cy="149.094" fill="#A9DCDF" rx="11" ry="11" style="stroke:#a80036;stroke-width:1"/><path d="M24.1875,150.8594 L20.0469,150.8594 L19.625,151.8906 L20.0469,151.8906 Q20.6563,151.8906 20.9219,152.125 Q21.1875,152.3594 21.1875,152.75 Q21.1875,153.125 20.9219,153.3594 Q20.6563,153.5938 20.0469,153.5938 L17.75,153.5938 Q17.1406,153.5938 16.8906,153.3594 Q16.625,153.125 16.625,152.7344 Q16.625,152.3594 16.9063,152.125 Q17.1719,151.875 17.7969,151.8906 L20.4688,145.2344 L19.3594,145.2344 Q18.75,145.2344 18.4844,145 Q18.2188,144.7656 18.2188,144.375 Q18.2188,144 18.4844,143.7656 Q18.75,143.5313 19.3594,143.5313 L23.0313,143.5313 L26.4219,151.8906 Q27.0156,151.8906 27.2031,152.0313 Q27.5938,152.2969 27.5938,152.75 Q27.5938,153.125 27.3281,153.3594 Q27.0781,153.5938 26.4688,153.5938 L24.1719,153.5938 Q23.5625,153.5938 23.2969,153.3594 Q23.0313,153.125 23.0313,152.7344 Q23.0313,152.3594 23.2969,152.125 Q23.5625,151.8906 24.1719,151.8906 L24.5938,151.8906 L24.1875,150.8594 Z M23.4688,149.1563 L22.1094,145.7813 L20.7344,149.1563 L23.4688,149.1563 Z"/><text x="58" y="148.533" fill="#000" font-family="sans-serif" font-size="14" font-style="italic" lengthAdjust="spacingAndGlyphs" textLength="119">DoaMouseAdapter</text><text x="36" y="161.99" fill="#000" font-family="sans-serif" font-size="10" font-style="italic" lengthAdjust="spacingAndGlyphs" textLength="163">doa.engine.scene.elements.scripts</text><line style="stroke:#a80036;stroke-width:1.5" x1="8" x2="201" y1="169.188" y2="169.188"/><ellipse cx="18" cy="180.188" fill="#84BE84" rx="3" ry="3" style="stroke:#038048;stroke-width:1"/><text x="27" y="184.606" fill="#000" font-family="sans-serif" font-size="11" lengthAdjust="spacingAndGlyphs" textLength="50">tick(): void</text><ellipse cx="18" cy="194.023" fill="#84BE84" rx="3" ry="3" style="stroke:#038048;stroke-width:1"/><text x="27" y="198.442" fill="#000" font-family="sans-serif" font-size="11" lengthAdjust="spacingAndGlyphs" textLength="106">onMouse1Click(): void</text><ellipse cx="18" cy="207.859" fill="#84BE84" rx="3" ry="3" style="stroke:#038048;stroke-width:1"/><text x="27" y="212.278" fill="#000" font-family="sans-serif" font-size="11" lengthAdjust="spacingAndGlyphs" textLength="105">onMouse1Hold(): void</text><ellipse cx="18" cy="221.695" fill="#84BE84" rx="3" ry="3" style="stroke:#038048;stroke-width:1"/><text x="27" y="226.114" fill="#000" font-family="sans-serif" font-size="11" lengthAdjust="spacingAndGlyphs" textLength="123">onMouse1Release(): void</text><ellipse cx="18" cy="235.531" fill="#84BE84" rx="3" ry="3" style="stroke:#038048;stroke-width:1"/><text x="27" y="239.95" fill="#000" font-family="sans-serif" font-size="11" lengthAdjust="spacingAndGlyphs" textLength="106">onMouse2Click(): void</text><ellipse cx="18" cy="249.367" fill="#84BE84" rx="3" ry="3" style="stroke:#038048;stroke-width:1"/><text x="27" y="253.786" fill="#000" font-family="sans-serif" font-size="11" lengthAdjust="spacingAndGlyphs" textLength="105">onMouse2Hold(): void</text><ellipse cx="18" cy="263.203" fill="#84BE84" rx="3" ry="3" style="stroke:#038048;stroke-width:1"/><text x="27" y="267.622" fill="#000" font-family="sans-serif" font-size="11" lengthAdjust="spacingAndGlyphs" textLength="123">onMouse2Release(): void</text><ellipse cx="18" cy="277.039" fill="#84BE84" rx="3" ry="3" style="stroke:#038048;stroke-width:1"/><text x="27" y="281.458" fill="#000" font-family="sans-serif" font-size="11" lengthAdjust="spacingAndGlyphs" textLength="106">onMouse3Click(): void</text><ellipse cx="18" cy="290.875" fill="#84BE84" rx="3" ry="3" style="stroke:#038048;stroke-width:1"/><text x="27" y="295.294" fill="#000" font-family="sans-serif" font-size="11" lengthAdjust="spacingAndGlyphs" textLength="105">onMouse3Hold(): void</text><ellipse cx="18" cy="304.711" fill="#84BE84" rx="3" ry="3" style="stroke:#038048;stroke-width:1"/><text x="27" y="309.13" fill="#000" font-family="sans-serif" font-size="11" lengthAdjust="spacingAndGlyphs" textLength="123">onMouse3Release(): void</text><ellipse cx="18" cy="318.547" fill="#84BE84" rx="3" ry="3" style="stroke:#038048;stroke-width:1"/><text x="27" y="322.966" fill="#000" font-family="sans-serif" font-size="11" lengthAdjust="spacingAndGlyphs" textLength="103">onMouseEnter(): void</text><ellipse cx="18" cy="332.383" fill="#84BE84" rx="3" ry="3" style="stroke:#038048;stroke-width:1"/><text x="27" y="336.802" fill="#000" font-family="sans-serif" font-size="11" lengthAdjust="spacingAndGlyphs" textLength="107">onMouseHover(): void</text><ellipse cx="18" cy="346.219" fill="#84BE84" rx="3" ry="3" style="stroke:#038048;stroke-width:1"/><text x="27" y="350.638" fill="#000" font-family="sans-serif" font-size="11" lengthAdjust="spacingAndGlyphs" textLength="95">onMouseExit(): void</text></a><a href="DoaScript.html" target="_top" title="DoaScript.html" xlink:actuate="onRequest" xlink:href="DoaScript.html" xlink:show="new" xlink:title="DoaScript.html" xlink:type="simple"><rect id="doa.engine.scene.elements.scripts.DoaScript" width="195" height="62.023" x="7" y="7" fill="#FEFECE" codeLine="21" filter="url(#faa4h0a7xq05f)" style="stroke:#a80036;stroke-width:1.5"/><ellipse cx="22" cy="27.094" fill="#A9DCDF" rx="11" ry="11" style="stroke:#a80036;stroke-width:1"/><path d="M24.1875,28.8594 L20.0469,28.8594 L19.625,29.8906 L20.0469,29.8906 Q20.6563,29.8906 20.9219,30.125 Q21.1875,30.3594 21.1875,30.75 Q21.1875,31.125 20.9219,31.3594 Q20.6563,31.5938 20.0469,31.5938 L17.75,31.5938 Q17.1406,31.5938 16.8906,31.3594 Q16.625,31.125 16.625,30.7344 Q16.625,30.3594 16.9063,30.125 Q17.1719,29.875 17.7969,29.8906 L20.4688,23.2344 L19.3594,23.2344 Q18.75,23.2344 18.4844,23 Q18.2188,22.7656 18.2188,22.375 Q18.2188,22 18.4844,21.7656 Q18.75,21.5313 19.3594,21.5313 L23.0313,21.5313 L26.4219,29.8906 Q27.0156,29.8906 27.2031,30.0313 Q27.5938,30.2969 27.5938,30.75 Q27.5938,31.125 27.3281,31.3594 Q27.0781,31.5938 26.4688,31.5938 L24.1719,31.5938 Q23.5625,31.5938 23.2969,31.3594 Q23.0313,31.125 23.0313,30.7344 Q23.0313,30.3594 23.2969,30.125 Q23.5625,29.8906 24.1719,29.8906 L24.5938,29.8906 L24.1875,28.8594 Z M23.4688,27.1563 L22.1094,23.7813 L20.7344,27.1563 L23.4688,27.1563 Z"/><text x="86.5" y="26.533" fill="#000" font-family="sans-serif" font-size="14" font-style="italic" lengthAdjust="spacingAndGlyphs" textLength="62">DoaScript</text><text x="36" y="39.99" fill="#000" font-family="sans-serif" font-size="10" font-style="italic" lengthAdjust="spacingAndGlyphs" textLength="163">doa.engine.scene.elements.scripts</text><line style="stroke:#a80036;stroke-width:1.5" x1="8" x2="201" y1="47.188" y2="47.188"/><ellipse cx="18" cy="58.188" fill="#84BE84" rx="3" ry="3" style="stroke:#038048;stroke-width:1"/><text x="27" y="62.606" fill="#000" font-family="sans-serif" font-size="11" font-style="italic" lengthAdjust="spacingAndGlyphs" textLength="52">tick(): void</text></a><path id="doa.engine.scene.elements.scripts.DoaScript-backto-doa.engine.scene.elements.scripts.DoaMouseAdapter" fill="none" d="M104.5,89.53 C104.5,101.62 104.5,115.01 104.5,128.7" codeLine="25" style="stroke:#a80036;stroke-width:1"/><polygon fill="none" points="97.5 89.39 104.5 69.39 111.5 89.39 97.5 89.39" style="stroke:#a80036;stroke-width:1"/><text x="6.5" y="380.435" fill="#888" font-family="sans-serif" font-size="10" lengthAdjust="spacingAndGlyphs" textLength="190">UMLDoclet 2.0.12, PlantUML 1.2020.16</text></g></svg>