<svg xmlns="http://www.w3.org/2000/svg" xmlns:xlink="http://www.w3.org/1999/xlink" width="221" height="219" contentScriptType="application/ecmascript" contentStyleType="text/css" style="width:221px;height:219px" preserveAspectRatio="none" version="1.1" viewBox="0 0 221 219" zoomAndPan="magnify"><defs><filter id="fwz5fk58odd3v" width="300%" height="300%" x="-1" y="-1"><feGaussianBlur result="blurOut" stdDeviation="2"/><feColorMatrix in="blurOut" result="blurOut2" type="matrix" values="0 0 0 0 0 0 0 0 0 0 0 0 0 0 0 0 0 0 .4 0"/><feOffset dx="4" dy="4" in="blurOut2" result="blurOut3"/><feBlend in="SourceGraphic" in2="blurOut3" mode="normal"/></filter></defs><g><a href="DoaScript.html" target="_top" title="DoaScript.html" xlink:actuate="onRequest" xlink:href="DoaScript.html" xlink:show="new" xlink:title="DoaScript.html" xlink:type="simple"><rect id="doa.engine.scene.elements.scripts.DoaScript" width="195" height="75.859" x="7" y="107" fill="#FEFECE" codeLine="5" filter="url(#fwz5fk58odd3v)" style="stroke:#a80036;stroke-width:1.5"/><ellipse cx="22" cy="127.094" fill="#A9DCDF" rx="11" ry="11" style="stroke:#a80036;stroke-width:1"/><path d="M24.1875,128.8594 L20.0469,128.8594 L19.625,129.8906 L20.0469,129.8906 Q20.6563,129.8906 20.9219,130.125 Q21.1875,130.3594 21.1875,130.75 Q21.1875,131.125 20.9219,131.3594 Q20.6563,131.5938 20.0469,131.5938 L17.75,131.5938 Q17.1406,131.5938 16.8906,131.3594 Q16.625,131.125 16.625,130.7344 Q16.625,130.3594 16.9063,130.125 Q17.1719,129.875 17.7969,129.8906 L20.4688,123.2344 L19.3594,123.2344 Q18.75,123.2344 18.4844,123 Q18.2188,122.7656 18.2188,122.375 Q18.2188,122 18.4844,121.7656 Q18.75,121.5313 19.3594,121.5313 L23.0313,121.5313 L26.4219,129.8906 Q27.0156,129.8906 27.2031,130.0313 Q27.5938,130.2969 27.5938,130.75 Q27.5938,131.125 27.3281,131.3594 Q27.0781,131.5938 26.4688,131.5938 L24.1719,131.5938 Q23.5625,131.5938 23.2969,131.3594 Q23.0313,131.125 23.0313,130.7344 Q23.0313,130.3594 23.2969,130.125 Q23.5625,129.8906 24.1719,129.8906 L24.5938,129.8906 L24.1875,128.8594 Z M23.4688,127.1563 L22.1094,123.7813 L20.7344,127.1563 L23.4688,127.1563 Z"/><text x="86.5" y="126.533" fill="#000" font-family="sans-serif" font-size="14" font-style="italic" lengthAdjust="spacingAndGlyphs" textLength="62">DoaScript</text><text x="36" y="139.99" fill="#000" font-family="sans-serif" font-size="10" font-style="italic" lengthAdjust="spacingAndGlyphs" textLength="163">doa.engine.scene.elements.scripts</text><line style="stroke:#a80036;stroke-width:1.5" x1="8" x2="201" y1="147.188" y2="147.188"/><ellipse cx="18" cy="158.188" fill="#84BE84" rx="3" ry="3" style="stroke:#038048;stroke-width:1"/><text x="27" y="162.606" fill="#000" font-family="sans-serif" font-size="11" font-style="italic" lengthAdjust="spacingAndGlyphs" textLength="52">tick(): void</text><ellipse cx="18" cy="172.023" fill="#84BE84" rx="3" ry="3" style="stroke:#038048;stroke-width:1"/><text x="27" y="176.442" fill="#000" font-family="sans-serif" font-size="11" lengthAdjust="spacingAndGlyphs" textLength="99">debugRender(): void</text></a><a href="..\..\DoaComponent.html" target="_top" title="..\..\DoaComponent.html" xlink:actuate="onRequest" xlink:href="..\..\DoaComponent.html" xlink:show="new" xlink:title="..\..\DoaComponent.html" xlink:type="simple"><rect id="doa.engine.scene.DoaComponent" width="131" height="40.188" x="39" y="7" fill="#FEFECE" codeLine="10" filter="url(#fwz5fk58odd3v)" style="stroke:#a80036;stroke-width:1.5"/><ellipse cx="54" cy="27.094" fill="#A9DCDF" rx="11" ry="11" style="stroke:#a80036;stroke-width:1"/><path d="M56.1875,28.8594 L52.0469,28.8594 L51.625,29.8906 L52.0469,29.8906 Q52.6563,29.8906 52.9219,30.125 Q53.1875,30.3594 53.1875,30.75 Q53.1875,31.125 52.9219,31.3594 Q52.6563,31.5938 52.0469,31.5938 L49.75,31.5938 Q49.1406,31.5938 48.8906,31.3594 Q48.625,31.125 48.625,30.7344 Q48.625,30.3594 48.9063,30.125 Q49.1719,29.875 49.7969,29.8906 L52.4688,23.2344 L51.3594,23.2344 Q50.75,23.2344 50.4844,23 Q50.2188,22.7656 50.2188,22.375 Q50.2188,22 50.4844,21.7656 Q50.75,21.5313 51.3594,21.5313 L55.0313,21.5313 L58.4219,29.8906 Q59.0156,29.8906 59.2031,30.0313 Q59.5938,30.2969 59.5938,30.75 Q59.5938,31.125 59.3281,31.3594 Q59.0781,31.5938 58.4688,31.5938 L56.1719,31.5938 Q55.5625,31.5938 55.2969,31.3594 Q55.0313,31.125 55.0313,30.7344 Q55.0313,30.3594 55.2969,30.125 Q55.5625,29.8906 56.1719,29.8906 L56.5938,29.8906 L56.1875,28.8594 Z M55.4688,27.1563 L54.1094,23.7813 L52.7344,27.1563 L55.4688,27.1563 Z"/><text x="68" y="26.533" fill="#000" font-family="sans-serif" font-size="14" font-style="italic" lengthAdjust="spacingAndGlyphs" textLength="99">DoaComponent</text><text x="75" y="39.99" fill="#000" font-family="sans-serif" font-size="10" font-style="italic" lengthAdjust="spacingAndGlyphs" textLength="85">doa.engine.scene</text></a><path id="doa.engine.scene.DoaComponent-backto-doa.engine.scene.elements.scripts.DoaScript" fill="none" d="M104.5,67.49 C104.5,80.27 104.5,94.39 104.5,106.99" codeLine="12" style="stroke:#a80036;stroke-width:1"/><polygon fill="none" points="97.5 67.16 104.5 47.16 111.5 67.16 97.5 67.16" style="stroke:#a80036;stroke-width:1"/><text x="6.5" y="206.24" fill="#888" font-family="sans-serif" font-size="10" lengthAdjust="spacingAndGlyphs" textLength="190">UMLDoclet 2.0.12, PlantUML 1.2020.16</text></g></svg>