<?xml version="1.0" encoding="UTF-8" standalone="no"?><svg xmlns="http://www.w3.org/2000/svg" xmlns:xlink="http://www.w3.org/1999/xlink" contentScriptType="application/ecmascript" contentStyleType="text/css" height="617px" preserveAspectRatio="none" style="width:757px;height:617px;" version="1.1" viewBox="0 0 757 617" width="757px" zoomAndPan="magnify"><defs><filter height="300%" id="fnil3n2unttkr" width="300%" x="-1" y="-1"><feGaussianBlur result="blurOut" stdDeviation="2.0"/><feColorMatrix in="blurOut" result="blurOut2" type="matrix" values="0 0 0 0 0 0 0 0 0 0 0 0 0 0 0 0 0 0 .4 0"/><feOffset dx="4.0" dy="4.0" in="blurOut2" result="blurOut3"/><feBlend in="SourceGraphic" in2="blurOut3" mode="normal"/></filter></defs><g><!--MD5=[c3029d8e4e1e38befec29cb0deb4931a]
cluster doa.engine.scene.elements.scripts--><polygon fill="#FFFFFF" filter="url(#fnil3n2unttkr)" points="16,172,269,172,276,195.6094,735,195.6094,735,588,16,588,16,172" style="stroke: #000000; stroke-width: 1.5;"/><line style="stroke: #000000; stroke-width: 1.5;" x1="16" x2="276" y1="195.6094" y2="195.6094"/><text fill="#000000" font-family="sans-serif" font-size="14" font-weight="bold" lengthAdjust="spacingAndGlyphs" textLength="247" x="20" y="188.5332">doa.engine.scene.elements.scripts</text><!--MD5=[8099be491052978abf5cae05cc1ddf0f]
cluster doa.engine.scene--><polygon fill="#FFFFFF" filter="url(#fnil3n2unttkr)" points="303,6,435,6,442,29.6094,471,29.6094,471,148,303,148,303,6" style="stroke: #000000; stroke-width: 1.5;"/><line style="stroke: #000000; stroke-width: 1.5;" x1="303" x2="442" y1="29.6094" y2="29.6094"/><text fill="#000000" font-family="sans-serif" font-size="14" font-weight="bold" lengthAdjust="spacingAndGlyphs" textLength="126" x="307" y="22.5332">doa.engine.scene</text><!--MD5=[fde7a5f273a9cf861419b09967bf0b6e]
class doa.engine.scene.elements.scripts.DoaArrowKeysControl--><a href="DoaArrowKeysControl.html" target="_top" title="DoaArrowKeysControl.html" xlink:actuate="onRequest" xlink:href="DoaArrowKeysControl.html" xlink:show="new" xlink:title="DoaArrowKeysControl.html" xlink:type="simple"><rect codeLine="3" fill="#FEFECE" filter="url(#fnil3n2unttkr)" height="75.6719" id="doa.engine.scene.elements.scripts.DoaArrowKeysControl" style="stroke: #A80036; stroke-width: 1.5;" width="153" x="32.5" y="420"/><ellipse cx="47.5" cy="436" fill="#ADD1B2" rx="11" ry="11" style="stroke: #A80036; stroke-width: 1.0;"/><path d="M50.2656,431.875 Q50.4219,431.6563 50.6094,431.5469 Q50.7969,431.4375 51.0156,431.4375 Q51.3906,431.4375 51.625,431.7031 Q51.8594,431.9531 51.8594,432.5625 L51.8594,434.0156 Q51.8594,434.625 51.625,434.8906 Q51.3906,435.1563 51.0156,435.1563 Q50.6719,435.1563 50.4688,434.9531 Q50.2656,434.7656 50.1563,434.25 Q50.1094,433.8906 49.9219,433.7031 Q49.5938,433.3281 48.9844,433.1094 Q48.375,432.8906 47.75,432.8906 Q46.9844,432.8906 46.3438,433.2188 Q45.7188,433.5469 45.2188,434.2969 Q44.7344,435.0469 44.7344,436.0781 L44.7344,437.1719 Q44.7344,438.4063 45.625,439.2344 Q46.5156,440.0469 48.1094,440.0469 Q49.0469,440.0469 49.7031,439.7969 Q50.0938,439.6406 50.5156,439.2031 Q50.7813,438.9375 50.9219,438.8594 Q51.0781,438.7813 51.2813,438.7813 Q51.6094,438.7813 51.8594,439.0469 Q52.125,439.2969 52.125,439.6406 Q52.125,439.9844 51.7813,440.3906 Q51.2813,440.9688 50.4844,441.2969 Q49.4063,441.75 48.1094,441.75 Q46.5938,441.75 45.3906,441.125 Q44.4063,440.625 43.7188,439.5625 Q43.0313,438.4844 43.0313,437.2031 L43.0313,436.0469 Q43.0313,434.7188 43.6406,433.5781 Q44.2656,432.4219 45.3594,431.8125 Q46.4531,431.1875 47.6875,431.1875 Q48.4219,431.1875 49.0625,431.3594 Q49.7188,431.5156 50.2656,431.875 Z "/><text fill="#000000" font-family="sans-serif" font-size="12" lengthAdjust="spacingAndGlyphs" textLength="121" x="61.5" y="440.9102">DoaArrowKeysControl</text><line style="stroke: #A80036; stroke-width: 1.5;" x1="33.5" x2="184.5" y1="452" y2="452"/><ellipse cx="43.5" cy="463" fill="none" rx="3" ry="3" style="stroke: #038048; stroke-width: 1.0;"/><text fill="#000000" font-family="sans-serif" font-size="11" lengthAdjust="spacingAndGlyphs" textLength="57" x="52.5" y="467.4189">speed: float</text><line style="stroke: #A80036; stroke-width: 1.5;" x1="33.5" x2="184.5" y1="473.8359" y2="473.8359"/><ellipse cx="43.5" cy="484.8359" fill="#84BE84" rx="3" ry="3" style="stroke: #038048; stroke-width: 1.0;"/><text fill="#000000" font-family="sans-serif" font-size="11" lengthAdjust="spacingAndGlyphs" textLength="50" x="52.5" y="489.2549">tick(): void</text></a><!--MD5=[304c1c0d16361bbe6e102a50dba68367]
class doa.engine.scene.elements.scripts.DoaDebugTransform--><a href="DoaDebugTransform.html" target="_top" title="DoaDebugTransform.html" xlink:actuate="onRequest" xlink:href="DoaDebugTransform.html" xlink:show="new" xlink:title="DoaDebugTransform.html" xlink:type="simple"><rect codeLine="8" fill="#FEFECE" filter="url(#fnil3n2unttkr)" height="61.8359" id="doa.engine.scene.elements.scripts.DoaDebugTransform" style="stroke: #A80036; stroke-width: 1.5;" width="149" x="220.5" y="427"/><ellipse cx="235.5" cy="443" fill="#ADD1B2" rx="11" ry="11" style="stroke: #A80036; stroke-width: 1.0;"/><path d="M238.2656,438.875 Q238.4219,438.6563 238.6094,438.5469 Q238.7969,438.4375 239.0156,438.4375 Q239.3906,438.4375 239.625,438.7031 Q239.8594,438.9531 239.8594,439.5625 L239.8594,441.0156 Q239.8594,441.625 239.625,441.8906 Q239.3906,442.1563 239.0156,442.1563 Q238.6719,442.1563 238.4688,441.9531 Q238.2656,441.7656 238.1563,441.25 Q238.1094,440.8906 237.9219,440.7031 Q237.5938,440.3281 236.9844,440.1094 Q236.375,439.8906 235.75,439.8906 Q234.9844,439.8906 234.3438,440.2188 Q233.7188,440.5469 233.2188,441.2969 Q232.7344,442.0469 232.7344,443.0781 L232.7344,444.1719 Q232.7344,445.4063 233.625,446.2344 Q234.5156,447.0469 236.1094,447.0469 Q237.0469,447.0469 237.7031,446.7969 Q238.0938,446.6406 238.5156,446.2031 Q238.7813,445.9375 238.9219,445.8594 Q239.0781,445.7813 239.2813,445.7813 Q239.6094,445.7813 239.8594,446.0469 Q240.125,446.2969 240.125,446.6406 Q240.125,446.9844 239.7813,447.3906 Q239.2813,447.9688 238.4844,448.2969 Q237.4063,448.75 236.1094,448.75 Q234.5938,448.75 233.3906,448.125 Q232.4063,447.625 231.7188,446.5625 Q231.0313,445.4844 231.0313,444.2031 L231.0313,443.0469 Q231.0313,441.7188 231.6406,440.5781 Q232.2656,439.4219 233.3594,438.8125 Q234.4531,438.1875 235.6875,438.1875 Q236.4219,438.1875 237.0625,438.3594 Q237.7188,438.5156 238.2656,438.875 Z "/><text fill="#000000" font-family="sans-serif" font-size="12" lengthAdjust="spacingAndGlyphs" textLength="117" x="249.5" y="447.9102">DoaDebugTransform</text><line style="stroke: #A80036; stroke-width: 1.5;" x1="221.5" x2="368.5" y1="459" y2="459"/><line style="stroke: #A80036; stroke-width: 1.5;" x1="221.5" x2="368.5" y1="467" y2="467"/><ellipse cx="231.5" cy="478" fill="#84BE84" rx="3" ry="3" style="stroke: #038048; stroke-width: 1.0;"/><text fill="#000000" font-family="sans-serif" font-size="11" lengthAdjust="spacingAndGlyphs" textLength="50" x="240.5" y="482.4189">tick(): void</text></a><!--MD5=[782892c25a4634ace078aace9069034b]
class doa.engine.scene.elements.scripts.DoaMouseAdapter--><a href="DoaMouseAdapter.html" target="_top" title="DoaMouseAdapter.html" xlink:actuate="onRequest" xlink:href="DoaMouseAdapter.html" xlink:show="new" xlink:title="DoaMouseAdapter.html" xlink:type="simple"><rect codeLine="12" fill="#FEFECE" filter="url(#fnil3n2unttkr)" height="227.8672" id="doa.engine.scene.elements.scripts.DoaMouseAdapter" style="stroke: #A80036; stroke-width: 1.5;" width="149" x="404.5" y="344"/><ellipse cx="426.25" cy="360" fill="#A9DCDF" rx="11" ry="11" style="stroke: #A80036; stroke-width: 1.0;"/><path d="M428.4375,361.7656 L424.2969,361.7656 L423.875,362.7969 L424.2969,362.7969 Q424.9063,362.7969 425.1719,363.0313 Q425.4375,363.2656 425.4375,363.6563 Q425.4375,364.0313 425.1719,364.2656 Q424.9063,364.5 424.2969,364.5 L422,364.5 Q421.3906,364.5 421.1406,364.2656 Q420.875,364.0313 420.875,363.6406 Q420.875,363.2656 421.1563,363.0313 Q421.4219,362.7813 422.0469,362.7969 L424.7188,356.1406 L423.6094,356.1406 Q423,356.1406 422.7344,355.9063 Q422.4688,355.6719 422.4688,355.2813 Q422.4688,354.9063 422.7344,354.6719 Q423,354.4375 423.6094,354.4375 L427.2813,354.4375 L430.6719,362.7969 Q431.2656,362.7969 431.4531,362.9375 Q431.8438,363.2031 431.8438,363.6563 Q431.8438,364.0313 431.5781,364.2656 Q431.3281,364.5 430.7188,364.5 L428.4219,364.5 Q427.8125,364.5 427.5469,364.2656 Q427.2813,364.0313 427.2813,363.6406 Q427.2813,363.2656 427.5469,363.0313 Q427.8125,362.7969 428.4219,362.7969 L428.8438,362.7969 L428.4375,361.7656 Z M427.7188,360.0625 L426.3594,356.6875 L424.9844,360.0625 L427.7188,360.0625 Z "/><text fill="#000000" font-family="sans-serif" font-size="12" font-style="italic" lengthAdjust="spacingAndGlyphs" textLength="102" x="441.75" y="364.9102">DoaMouseAdapter</text><line style="stroke: #A80036; stroke-width: 1.5;" x1="405.5" x2="552.5" y1="376" y2="376"/><line style="stroke: #A80036; stroke-width: 1.5;" x1="405.5" x2="552.5" y1="384" y2="384"/><ellipse cx="415.5" cy="395" fill="#84BE84" rx="3" ry="3" style="stroke: #038048; stroke-width: 1.0;"/><text fill="#000000" font-family="sans-serif" font-size="11" lengthAdjust="spacingAndGlyphs" textLength="50" x="424.5" y="399.4189">tick(): void</text><ellipse cx="415.5" cy="408.8359" fill="#84BE84" rx="3" ry="3" style="stroke: #038048; stroke-width: 1.0;"/><text fill="#000000" font-family="sans-serif" font-size="11" lengthAdjust="spacingAndGlyphs" textLength="106" x="424.5" y="413.2549">onMouse1Click(): void</text><ellipse cx="415.5" cy="422.6719" fill="#84BE84" rx="3" ry="3" style="stroke: #038048; stroke-width: 1.0;"/><text fill="#000000" font-family="sans-serif" font-size="11" lengthAdjust="spacingAndGlyphs" textLength="105" x="424.5" y="427.0908">onMouse1Hold(): void</text><ellipse cx="415.5" cy="436.5078" fill="#84BE84" rx="3" ry="3" style="stroke: #038048; stroke-width: 1.0;"/><text fill="#000000" font-family="sans-serif" font-size="11" lengthAdjust="spacingAndGlyphs" textLength="123" x="424.5" y="440.9268">onMouse1Release(): void</text><ellipse cx="415.5" cy="450.3438" fill="#84BE84" rx="3" ry="3" style="stroke: #038048; stroke-width: 1.0;"/><text fill="#000000" font-family="sans-serif" font-size="11" lengthAdjust="spacingAndGlyphs" textLength="106" x="424.5" y="454.7627">onMouse2Click(): void</text><ellipse cx="415.5" cy="464.1797" fill="#84BE84" rx="3" ry="3" style="stroke: #038048; stroke-width: 1.0;"/><text fill="#000000" font-family="sans-serif" font-size="11" lengthAdjust="spacingAndGlyphs" textLength="105" x="424.5" y="468.5986">onMouse2Hold(): void</text><ellipse cx="415.5" cy="478.0156" fill="#84BE84" rx="3" ry="3" style="stroke: #038048; stroke-width: 1.0;"/><text fill="#000000" font-family="sans-serif" font-size="11" lengthAdjust="spacingAndGlyphs" textLength="123" x="424.5" y="482.4346">onMouse2Release(): void</text><ellipse cx="415.5" cy="491.8516" fill="#84BE84" rx="3" ry="3" style="stroke: #038048; stroke-width: 1.0;"/><text fill="#000000" font-family="sans-serif" font-size="11" lengthAdjust="spacingAndGlyphs" textLength="106" x="424.5" y="496.2705">onMouse3Click(): void</text><ellipse cx="415.5" cy="505.6875" fill="#84BE84" rx="3" ry="3" style="stroke: #038048; stroke-width: 1.0;"/><text fill="#000000" font-family="sans-serif" font-size="11" lengthAdjust="spacingAndGlyphs" textLength="105" x="424.5" y="510.1064">onMouse3Hold(): void</text><ellipse cx="415.5" cy="519.5234" fill="#84BE84" rx="3" ry="3" style="stroke: #038048; stroke-width: 1.0;"/><text fill="#000000" font-family="sans-serif" font-size="11" lengthAdjust="spacingAndGlyphs" textLength="123" x="424.5" y="523.9424">onMouse3Release(): void</text><ellipse cx="415.5" cy="533.3594" fill="#84BE84" rx="3" ry="3" style="stroke: #038048; stroke-width: 1.0;"/><text fill="#000000" font-family="sans-serif" font-size="11" lengthAdjust="spacingAndGlyphs" textLength="103" x="424.5" y="537.7783">onMouseEnter(): void</text><ellipse cx="415.5" cy="547.1953" fill="#84BE84" rx="3" ry="3" style="stroke: #038048; stroke-width: 1.0;"/><text fill="#000000" font-family="sans-serif" font-size="11" lengthAdjust="spacingAndGlyphs" textLength="107" x="424.5" y="551.6143">onMouseHover(): void</text><ellipse cx="415.5" cy="561.0313" fill="#84BE84" rx="3" ry="3" style="stroke: #038048; stroke-width: 1.0;"/><text fill="#000000" font-family="sans-serif" font-size="11" lengthAdjust="spacingAndGlyphs" textLength="95" x="424.5" y="565.4502">onMouseExit(): void</text></a><!--MD5=[e9471824b515c18ceea710438c12d6bf]
class doa.engine.scene.elements.scripts.DoaScript--><a href="DoaScript.html" target="_top" title="DoaScript.html" xlink:actuate="onRequest" xlink:href="DoaScript.html" xlink:show="new" xlink:title="DoaScript.html" xlink:type="simple"><rect codeLine="28" fill="#FEFECE" filter="url(#fnil3n2unttkr)" height="75.6719" id="doa.engine.scene.elements.scripts.DoaScript" style="stroke: #A80036; stroke-width: 1.5;" width="125" x="324.5" y="208"/><ellipse cx="357.05" cy="224" fill="#A9DCDF" rx="11" ry="11" style="stroke: #A80036; stroke-width: 1.0;"/><path d="M359.2375,225.7656 L355.0969,225.7656 L354.675,226.7969 L355.0969,226.7969 Q355.7063,226.7969 355.9719,227.0313 Q356.2375,227.2656 356.2375,227.6563 Q356.2375,228.0313 355.9719,228.2656 Q355.7063,228.5 355.0969,228.5 L352.8,228.5 Q352.1906,228.5 351.9406,228.2656 Q351.675,228.0313 351.675,227.6406 Q351.675,227.2656 351.9563,227.0313 Q352.2219,226.7813 352.8469,226.7969 L355.5188,220.1406 L354.4094,220.1406 Q353.8,220.1406 353.5344,219.9063 Q353.2688,219.6719 353.2688,219.2813 Q353.2688,218.9063 353.5344,218.6719 Q353.8,218.4375 354.4094,218.4375 L358.0813,218.4375 L361.4719,226.7969 Q362.0656,226.7969 362.2531,226.9375 Q362.6438,227.2031 362.6438,227.6563 Q362.6438,228.0313 362.3781,228.2656 Q362.1281,228.5 361.5188,228.5 L359.2219,228.5 Q358.6125,228.5 358.3469,228.2656 Q358.0813,228.0313 358.0813,227.6406 Q358.0813,227.2656 358.3469,227.0313 Q358.6125,226.7969 359.2219,226.7969 L359.6438,226.7969 L359.2375,225.7656 Z M358.5188,224.0625 L357.1594,220.6875 L355.7844,224.0625 L358.5188,224.0625 Z "/><text fill="#000000" font-family="sans-serif" font-size="12" font-style="italic" lengthAdjust="spacingAndGlyphs" textLength="54" x="374.95" y="228.9102">DoaScript</text><line style="stroke: #A80036; stroke-width: 1.5;" x1="325.5" x2="448.5" y1="240" y2="240"/><line style="stroke: #A80036; stroke-width: 1.5;" x1="325.5" x2="448.5" y1="248" y2="248"/><ellipse cx="335.5" cy="259" fill="#84BE84" rx="3" ry="3" style="stroke: #038048; stroke-width: 1.0;"/><text fill="#000000" font-family="sans-serif" font-size="11" font-style="italic" lengthAdjust="spacingAndGlyphs" textLength="52" x="344.5" y="263.4189">tick(): void</text><ellipse cx="335.5" cy="272.8359" fill="#84BE84" rx="3" ry="3" style="stroke: #038048; stroke-width: 1.0;"/><text fill="#000000" font-family="sans-serif" font-size="11" lengthAdjust="spacingAndGlyphs" textLength="99" x="344.5" y="277.2549">debugRender(): void</text></a><!--MD5=[4a70833442b882ce516b5e1e52ffe278]
class doa.engine.scene.elements.scripts.DoaWASDControl--><a href="DoaWASDControl.html" target="_top" title="DoaWASDControl.html" xlink:actuate="onRequest" xlink:href="DoaWASDControl.html" xlink:show="new" xlink:title="DoaWASDControl.html" xlink:type="simple"><rect codeLine="33" fill="#FEFECE" filter="url(#fnil3n2unttkr)" height="75.6719" id="doa.engine.scene.elements.scripts.DoaWASDControl" style="stroke: #A80036; stroke-width: 1.5;" width="130" x="589" y="420"/><ellipse cx="604" cy="436" fill="#ADD1B2" rx="11" ry="11" style="stroke: #A80036; stroke-width: 1.0;"/><path d="M606.7656,431.875 Q606.9219,431.6563 607.1094,431.5469 Q607.2969,431.4375 607.5156,431.4375 Q607.8906,431.4375 608.125,431.7031 Q608.3594,431.9531 608.3594,432.5625 L608.3594,434.0156 Q608.3594,434.625 608.125,434.8906 Q607.8906,435.1563 607.5156,435.1563 Q607.1719,435.1563 606.9688,434.9531 Q606.7656,434.7656 606.6563,434.25 Q606.6094,433.8906 606.4219,433.7031 Q606.0938,433.3281 605.4844,433.1094 Q604.875,432.8906 604.25,432.8906 Q603.4844,432.8906 602.8438,433.2188 Q602.2188,433.5469 601.7188,434.2969 Q601.2344,435.0469 601.2344,436.0781 L601.2344,437.1719 Q601.2344,438.4063 602.125,439.2344 Q603.0156,440.0469 604.6094,440.0469 Q605.5469,440.0469 606.2031,439.7969 Q606.5938,439.6406 607.0156,439.2031 Q607.2813,438.9375 607.4219,438.8594 Q607.5781,438.7813 607.7813,438.7813 Q608.1094,438.7813 608.3594,439.0469 Q608.625,439.2969 608.625,439.6406 Q608.625,439.9844 608.2813,440.3906 Q607.7813,440.9688 606.9844,441.2969 Q605.9063,441.75 604.6094,441.75 Q603.0938,441.75 601.8906,441.125 Q600.9063,440.625 600.2188,439.5625 Q599.5313,438.4844 599.5313,437.2031 L599.5313,436.0469 Q599.5313,434.7188 600.1406,433.5781 Q600.7656,432.4219 601.8594,431.8125 Q602.9531,431.1875 604.1875,431.1875 Q604.9219,431.1875 605.5625,431.3594 Q606.2188,431.5156 606.7656,431.875 Z "/><text fill="#000000" font-family="sans-serif" font-size="12" lengthAdjust="spacingAndGlyphs" textLength="98" x="618" y="440.9102">DoaWASDControl</text><line style="stroke: #A80036; stroke-width: 1.5;" x1="590" x2="718" y1="452" y2="452"/><ellipse cx="600" cy="463" fill="none" rx="3" ry="3" style="stroke: #038048; stroke-width: 1.0;"/><text fill="#000000" font-family="sans-serif" font-size="11" lengthAdjust="spacingAndGlyphs" textLength="57" x="609" y="467.4189">speed: float</text><line style="stroke: #A80036; stroke-width: 1.5;" x1="590" x2="718" y1="473.8359" y2="473.8359"/><ellipse cx="600" cy="484.8359" fill="#84BE84" rx="3" ry="3" style="stroke: #038048; stroke-width: 1.0;"/><text fill="#000000" font-family="sans-serif" font-size="11" lengthAdjust="spacingAndGlyphs" textLength="50" x="609" y="489.2549">tick(): void</text></a><!--MD5=[446a402d650adfd9c60db59099938794]
class doa.engine.scene.DoaComponent--><a href="..\..\DoaComponent.html" target="_top" title="..\..\DoaComponent.html" xlink:actuate="onRequest" xlink:href="..\..\DoaComponent.html" xlink:show="new" xlink:title="..\..\DoaComponent.html" xlink:type="simple"><rect codeLine="46" fill="#FEFECE" filter="url(#fnil3n2unttkr)" height="89.5078" id="doa.engine.scene.DoaComponent" style="stroke: #A80036; stroke-width: 1.5;" width="135" x="319.5" y="42"/><ellipse cx="341.25" cy="58" fill="#A9DCDF" rx="11" ry="11" style="stroke: #A80036; stroke-width: 1.0;"/><path d="M343.4375,59.7656 L339.2969,59.7656 L338.875,60.7969 L339.2969,60.7969 Q339.9063,60.7969 340.1719,61.0313 Q340.4375,61.2656 340.4375,61.6563 Q340.4375,62.0313 340.1719,62.2656 Q339.9063,62.5 339.2969,62.5 L337,62.5 Q336.3906,62.5 336.1406,62.2656 Q335.875,62.0313 335.875,61.6406 Q335.875,61.2656 336.1563,61.0313 Q336.4219,60.7813 337.0469,60.7969 L339.7188,54.1406 L338.6094,54.1406 Q338,54.1406 337.7344,53.9063 Q337.4688,53.6719 337.4688,53.2813 Q337.4688,52.9063 337.7344,52.6719 Q338,52.4375 338.6094,52.4375 L342.2813,52.4375 L345.6719,60.7969 Q346.2656,60.7969 346.4531,60.9375 Q346.8438,61.2031 346.8438,61.6563 Q346.8438,62.0313 346.5781,62.2656 Q346.3281,62.5 345.7188,62.5 L343.4219,62.5 Q342.8125,62.5 342.5469,62.2656 Q342.2813,62.0313 342.2813,61.6406 Q342.2813,61.2656 342.5469,61.0313 Q342.8125,60.7969 343.4219,60.7969 L343.8438,60.7969 L343.4375,59.7656 Z M342.7188,58.0625 L341.3594,54.6875 L339.9844,58.0625 L342.7188,58.0625 Z "/><text fill="#000000" font-family="sans-serif" font-size="12" font-style="italic" lengthAdjust="spacingAndGlyphs" textLength="88" x="356.75" y="62.9102">DoaComponent</text><line style="stroke: #A80036; stroke-width: 1.5;" x1="320.5" x2="453.5" y1="74" y2="74"/><polygon fill="none" points="330.5,80,334.5,84,330.5,88,326.5,84" style="stroke: #B38D22; stroke-width: 1.0;"/><text fill="#000000" font-family="sans-serif" font-size="11" lengthAdjust="spacingAndGlyphs" textLength="90" x="339.5" y="89.4189">isEnabled: boolean</text><ellipse cx="330.5" cy="98.8359" fill="none" rx="3" ry="3" style="stroke: #038048; stroke-width: 1.0;"/><text fill="#000000" font-family="sans-serif" font-size="11" lengthAdjust="spacingAndGlyphs" textLength="60" x="339.5" y="103.2549">name: String</text><ellipse cx="330.5" cy="112.6719" fill="none" rx="3" ry="3" style="stroke: #038048; stroke-width: 1.0;"/><text fill="#000000" font-family="sans-serif" font-size="11" lengthAdjust="spacingAndGlyphs" textLength="109" x="339.5" y="117.0908">debugRender: boolean</text><line style="stroke: #A80036; stroke-width: 1.5;" x1="320.5" x2="453.5" y1="123.5078" y2="123.5078"/></a><!--MD5=[668c3d9e0fb5f9bc6935687bd4ab12a1]
reverse link doa.engine.scene.elements.scripts.DoaScript to doa.engine.scene.elements.scripts.DoaArrowKeysControl--><path codeLine="38" d="M305.94,281.21 C272.25,297.52 233.89,318.97 203,344 C176.14,365.77 151.38,396.15 134.02,419.93 " fill="none" id="doa.engine.scene.elements.scripts.DoaScript-backto-doa.engine.scene.elements.scripts.DoaArrowKeysControl" style="stroke: #A80036; stroke-width: 1.0;"/><polygon fill="none" points="303.01,274.85,324.09,272.69,308.96,287.52,303.01,274.85" style="stroke: #A80036; stroke-width: 1.0;"/><!--MD5=[4c7b120e71e264b7c725c19326883ea7]
reverse link doa.engine.scene.elements.scripts.DoaScript to doa.engine.scene.elements.scripts.DoaDebugTransform--><path codeLine="39" d="M362.7,302.47 C345.26,342.27 322.43,394.38 308.24,426.77 " fill="none" id="doa.engine.scene.elements.scripts.DoaScript-backto-doa.engine.scene.elements.scripts.DoaDebugTransform" style="stroke: #A80036; stroke-width: 1.0;"/><polygon fill="none" points="356.33,299.57,370.76,284.06,369.15,305.19,356.33,299.57" style="stroke: #A80036; stroke-width: 1.0;"/><!--MD5=[1bb1565f8dcb02ae3a7c5f6178d2ef74]
reverse link doa.engine.scene.elements.scripts.DoaScript to doa.engine.scene.elements.scripts.DoaMouseAdapter--><path codeLine="40" d="M411.28,302.41 C416.9,315.24 423.08,329.36 429.36,343.68 " fill="none" id="doa.engine.scene.elements.scripts.DoaScript-backto-doa.engine.scene.elements.scripts.DoaMouseAdapter" style="stroke: #A80036; stroke-width: 1.0;"/><polygon fill="none" points="404.85,305.19,403.24,284.06,417.67,299.57,404.85,305.19" style="stroke: #A80036; stroke-width: 1.0;"/><!--MD5=[4d51185d968deb721d9ac43f44b41a29]
reverse link doa.engine.scene.DoaComponent to doa.engine.scene.elements.scripts.DoaScript--><path codeLine="41" d="M387,152.36 C387,171.24 387,191.24 387,207.81 " fill="none" id="doa.engine.scene.DoaComponent-backto-doa.engine.scene.elements.scripts.DoaScript" style="stroke: #A80036; stroke-width: 1.0;"/><polygon fill="none" points="380,152.15,387,132.15,394,152.15,380,152.15" style="stroke: #A80036; stroke-width: 1.0;"/><!--MD5=[3372c6eeef0e35a111e5c32e2362d257]
reverse link doa.engine.scene.elements.scripts.DoaScript to doa.engine.scene.elements.scripts.DoaWASDControl--><path codeLine="42" d="M468.04,279.94 C502.04,296.14 540.65,317.85 571,344 C595.99,365.53 617.78,395.93 632.75,419.77 " fill="none" id="doa.engine.scene.elements.scripts.DoaScript-backto-doa.engine.scene.elements.scripts.DoaWASDControl" style="stroke: #A80036; stroke-width: 1.0;"/><polygon fill="none" points="464.95,286.23,449.7,271.52,470.8,273.51,464.95,286.23" style="stroke: #A80036; stroke-width: 1.0;"/><text fill="#888888" font-family="sans-serif" font-size="10" lengthAdjust="spacingAndGlyphs" textLength="190" x="274.5" y="604.3809">UMLDoclet 2.0.12, PlantUML 1.2020.16</text><!--MD5=[a50e1e60b7de379bf4a11577fcf73228]
@startuml
    namespace doa.engine.scene.elements.scripts {

        class DoaArrowKeysControl [[DoaArrowKeysControl.html]] {
            +speed: float
            +tick(): void
        }

        class DoaDebugTransform [[DoaDebugTransform.html]] {
            +tick(): void
        }

        abstract class DoaMouseAdapter [[DoaMouseAdapter.html]] {
            +tick(): void
            +onMouse1Click(): void
            +onMouse1Hold(): void
            +onMouse1Release(): void
            +onMouse2Click(): void
            +onMouse2Hold(): void
            +onMouse2Release(): void
            +onMouse3Click(): void
            +onMouse3Hold(): void
            +onMouse3Release(): void
            +onMouseEnter(): void
            +onMouseHover(): void
            +onMouseExit(): void
        }

        abstract class DoaScript [[DoaScript.html]] {
            {abstract} +tick(): void
            +debugRender(): void
        }

        class DoaWASDControl [[DoaWASDControl.html]] {
            +speed: float
            +tick(): void
        }

        DoaScript <|- - DoaArrowKeysControl
        DoaScript <|- - DoaDebugTransform
        DoaScript <|- - DoaMouseAdapter
        doa.engine.scene.DoaComponent <|- - DoaScript
        DoaScript <|- - DoaWASDControl
    }

    namespace doa.engine.scene {
        abstract class DoaComponent [[..\..\DoaComponent.html]] {
            #isEnabled: boolean
            +name: String
            +debugRender: boolean
        }
    }

    center footer UMLDoclet 2.0.12, PlantUML 1.2020.16
@enduml

PlantUML version 1.2020.16(Sun Aug 23 23:20:43 TRT 2020)
(APACHE source distribution)
Java Runtime: OpenJDK Runtime Environment
JVM: OpenJDK 64-Bit Server VM
Default Encoding: Cp1252
Language: en
Country: GB
--></g></svg>