<svg xmlns="http://www.w3.org/2000/svg" xmlns:xlink="http://www.w3.org/1999/xlink" width="202" height="78" contentScriptType="application/ecmascript" contentStyleType="text/css" style="width:202px;height:78px" preserveAspectRatio="none" version="1.1" viewBox="0 0 202 78" zoomAndPan="magnify"><defs><filter id="f964a56efcgc2" width="300%" height="300%" x="-1" y="-1"><feGaussianBlur result="blurOut" stdDeviation="2"/><feColorMatrix in="blurOut" result="blurOut2" type="matrix" values="0 0 0 0 0 0 0 0 0 0 0 0 0 0 0 0 0 0 .4 0"/><feOffset dx="4" dy="4" in="blurOut2" result="blurOut3"/><feBlend in="SourceGraphic" in2="blurOut3" mode="normal"/></filter></defs><g><a href="Internal.html" target="_top" title="Internal.html" xlink:actuate="onRequest" xlink:href="Internal.html" xlink:show="new" xlink:title="Internal.html" xlink:type="simple"><rect id="doa.engine.Internal" width="86" height="40.188" x="52" y="7" fill="#FEFECE" codeLine="5" filter="url(#f964a56efcgc2)" style="stroke:#a80036;stroke-width:1.5"/><ellipse cx="67" cy="27.094" fill="#E3664A" rx="11" ry="11" style="stroke:#a80036;stroke-width:1"/><path d="M69.3438,24.6719 L69.3438,24.1563 Q69.3438,23.3281 68.8594,22.8281 Q68.3906,22.3281 67.6406,22.3281 Q67.0469,22.3281 66.5156,22.7344 Q65.9844,23.125 65.7188,23.75 Q65.25,24.8438 65.25,25.9531 L65.25,28.4688 Q65.25,30.3906 66.1094,31.5156 Q66.6719,32.2656 67.6875,32.2656 Q68.2344,32.2656 68.6719,32.125 Q69.125,31.9844 69.375,31.7344 Q69.625,31.4844 69.8438,31.4844 Q70.1094,31.4844 70.2969,31.6719 Q70.4844,31.8594 70.4844,32.125 Q70.4844,32.5469 69.9063,32.9375 Q69.0781,33.5 67.6406,33.5 Q66.5469,33.5 65.8281,33 Q64.9063,32.3594 64.4531,31.0938 Q64,29.8281 64,28.5938 L64,25.8594 Q64,23.875 64.9844,22.4844 Q65.9688,21.0781 67.6094,21.0781 Q68.3594,21.0781 69,21.3906 Q69.6563,21.6875 70.125,22.4531 Q70.5938,23.2188 70.5938,24.1563 L70.5938,28.6875 Q70.9531,28.8594 70.9531,29.25 Q70.9531,29.5313 70.75,29.7188 Q70.5625,29.8906 70.0938,29.8906 L69.3438,29.8906 L69.3438,29.8438 Q68.9531,29.9063 68.7656,29.9063 Q67.7656,29.9063 67.0156,29.1719 Q66.2813,28.4219 66.2813,27.4219 Q66.2813,26.3594 67.0938,25.5625 Q67.9219,24.7656 69.3438,24.6719 Z M69.3438,25.9531 Q68.4531,26.0469 67.9844,26.4688 Q67.5313,26.8906 67.5313,27.4375 Q67.5313,27.9219 67.9063,28.2656 Q68.2969,28.6094 68.9375,28.6094 Q69.0625,28.6094 69.3438,28.5938 L69.3438,25.9531 Z"/><text x="84.5" y="26.533" fill="#000" font-family="sans-serif" font-size="14" lengthAdjust="spacingAndGlyphs" textLength="47">Internal</text><text x="81" y="39.99" fill="#000" font-family="sans-serif" font-size="10" lengthAdjust="spacingAndGlyphs" textLength="54">doa.engine</text></a><text x="0" y="64.568" fill="#888" font-family="sans-serif" font-size="10" lengthAdjust="spacingAndGlyphs" textLength="190">UMLDoclet 2.0.12, PlantUML 1.2020.16</text></g></svg>