<svg xmlns="http://www.w3.org/2000/svg" xmlns:xlink="http://www.w3.org/1999/xlink" width="202" height="135" contentScriptType="application/ecmascript" contentStyleType="text/css" style="width:202px;height:135px" preserveAspectRatio="none" version="1.1" viewBox="0 0 202 135" zoomAndPan="magnify"><defs><filter id="f6ivtnz4i76rx" width="300%" height="300%" x="-1" y="-1"><feGaussianBlur result="blurOut" stdDeviation="2"/><feColorMatrix in="blurOut" result="blurOut2" type="matrix" values="0 0 0 0 0 0 0 0 0 0 0 0 0 0 0 0 0 0 .4 0"/><feOffset dx="4" dy="4" in="blurOut2" result="blurOut3"/><feBlend in="SourceGraphic" in2="blurOut3" mode="normal"/></filter></defs><g><polygon fill="#FFF" points="48 6 133 6 140 29.609 154 29.609 154 106 48 106 48 6" filter="url(#f6ivtnz4i76rx)" style="stroke:#000;stroke-width:1.5"/><line style="stroke:#000;stroke-width:1.5" x1="48" x2="140" y1="29.609" y2="29.609"/><text x="52" y="22.533" fill="#000" font-family="sans-serif" font-size="14" font-weight="bold" lengthAdjust="spacingAndGlyphs" textLength="79">doa.engine</text><a href="Internal.html" target="_top" title="Internal.html" xlink:actuate="onRequest" xlink:href="Internal.html" xlink:show="new" xlink:title="Internal.html" xlink:type="simple"><rect id="doa.engine.Internal" width="73" height="48" x="64.5" y="42" fill="#FEFECE" codeLine="3" filter="url(#f6ivtnz4i76rx)" style="stroke:#a80036;stroke-width:1.5"/><ellipse cx="79.5" cy="58" fill="#E3664A" rx="11" ry="11" style="stroke:#a80036;stroke-width:1"/><path d="M81.8438,55.5781 L81.8438,55.0625 Q81.8438,54.2344 81.3594,53.7344 Q80.8906,53.2344 80.1406,53.2344 Q79.5469,53.2344 79.0156,53.6406 Q78.4844,54.0313 78.2188,54.6563 Q77.75,55.75 77.75,56.8594 L77.75,59.375 Q77.75,61.2969 78.6094,62.4219 Q79.1719,63.1719 80.1875,63.1719 Q80.7344,63.1719 81.1719,63.0313 Q81.625,62.8906 81.875,62.6406 Q82.125,62.3906 82.3438,62.3906 Q82.6094,62.3906 82.7969,62.5781 Q82.9844,62.7656 82.9844,63.0313 Q82.9844,63.4531 82.4063,63.8438 Q81.5781,64.4063 80.1406,64.4063 Q79.0469,64.4063 78.3281,63.9063 Q77.4063,63.2656 76.9531,62 Q76.5,60.7344 76.5,59.5 L76.5,56.7656 Q76.5,54.7813 77.4844,53.3906 Q78.4688,51.9844 80.1094,51.9844 Q80.8594,51.9844 81.5,52.2969 Q82.1563,52.5938 82.625,53.3594 Q83.0938,54.125 83.0938,55.0625 L83.0938,59.5938 Q83.4531,59.7656 83.4531,60.1563 Q83.4531,60.4375 83.25,60.625 Q83.0625,60.7969 82.5938,60.7969 L81.8438,60.7969 L81.8438,60.75 Q81.4531,60.8125 81.2656,60.8125 Q80.2656,60.8125 79.5156,60.0781 Q78.7813,59.3281 78.7813,58.3281 Q78.7813,57.2656 79.5938,56.4688 Q80.4219,55.6719 81.8438,55.5781 Z M81.8438,56.8594 Q80.9531,56.9531 80.4844,57.375 Q80.0313,57.7969 80.0313,58.3438 Q80.0313,58.8281 80.4063,59.1719 Q80.7969,59.5156 81.4375,59.5156 Q81.5625,59.5156 81.8438,59.5 L81.8438,56.8594 Z"/><text x="93.5" y="62.91" fill="#000" font-family="sans-serif" font-size="12" lengthAdjust="spacingAndGlyphs" textLength="41">Internal</text><line style="stroke:#a80036;stroke-width:1.5" x1="65.5" x2="136.5" y1="74" y2="74"/><line style="stroke:#a80036;stroke-width:1.5" x1="65.5" x2="136.5" y1="82" y2="82"/></a><text x="0" y="122.381" fill="#888" font-family="sans-serif" font-size="10" lengthAdjust="spacingAndGlyphs" textLength="190">UMLDoclet 2.0.12, PlantUML 1.2020.16</text></g></svg>