<?xml version="1.0" encoding="UTF-8" standalone="no"?><svg xmlns="http://www.w3.org/2000/svg" xmlns:xlink="http://www.w3.org/1999/xlink" contentScriptType="application/ecmascript" contentStyleType="text/css" height="269px" preserveAspectRatio="none" style="width:380px;height:269px;" version="1.1" viewBox="0 0 380 269" width="380px" zoomAndPan="magnify"><defs><filter height="300%" id="f1d7vsvfaurzy0" width="300%" x="-1" y="-1"><feGaussianBlur result="blurOut" stdDeviation="2.0"/><feColorMatrix in="blurOut" result="blurOut2" type="matrix" values="0 0 0 0 0 0 0 0 0 0 0 0 0 0 0 0 0 0 .4 0"/><feOffset dx="4.0" dy="4.0" in="blurOut2" result="blurOut3"/><feBlend in="SourceGraphic" in2="blurOut3" mode="normal"/></filter></defs><g><!--MD5=[cd3034e8e56ac459c4f7cee464e8022e]
class doa.engine.scene.elements.DoaTransform--><a href="DoaTransform.html" target="_top" title="DoaTransform.html" xlink:actuate="onRequest" xlink:href="DoaTransform.html" xlink:show="new" xlink:title="DoaTransform.html" xlink:type="simple"><rect codeLine="5" fill="#FEFECE" filter="url(#f1d7vsvfaurzy0)" height="125.3672" id="doa.engine.scene.elements.DoaTransform" style="stroke: #A80036; stroke-width: 1.5;" width="163" x="88" y="107"/><ellipse cx="103" cy="127.0938" fill="#ADD1B2" rx="11" ry="11" style="stroke: #A80036; stroke-width: 1.0;"/><path d="M105.7656,122.9688 Q105.9219,122.75 106.1094,122.6406 Q106.2969,122.5313 106.5156,122.5313 Q106.8906,122.5313 107.125,122.7969 Q107.3594,123.0469 107.3594,123.6563 L107.3594,125.1094 Q107.3594,125.7188 107.125,125.9844 Q106.8906,126.25 106.5156,126.25 Q106.1719,126.25 105.9688,126.0469 Q105.7656,125.8594 105.6563,125.3438 Q105.6094,124.9844 105.4219,124.7969 Q105.0938,124.4219 104.4844,124.2031 Q103.875,123.9844 103.25,123.9844 Q102.4844,123.9844 101.8438,124.3125 Q101.2188,124.6406 100.7188,125.3906 Q100.2344,126.1406 100.2344,127.1719 L100.2344,128.2656 Q100.2344,129.5 101.125,130.3281 Q102.0156,131.1406 103.6094,131.1406 Q104.5469,131.1406 105.2031,130.8906 Q105.5938,130.7344 106.0156,130.2969 Q106.2813,130.0313 106.4219,129.9531 Q106.5781,129.875 106.7813,129.875 Q107.1094,129.875 107.3594,130.1406 Q107.625,130.3906 107.625,130.7344 Q107.625,131.0781 107.2813,131.4844 Q106.7813,132.0625 105.9844,132.3906 Q104.9063,132.8438 103.6094,132.8438 Q102.0938,132.8438 100.8906,132.2188 Q99.9063,131.7188 99.2188,130.6563 Q98.5313,129.5781 98.5313,128.2969 L98.5313,127.1406 Q98.5313,125.8125 99.1406,124.6719 Q99.7656,123.5156 100.8594,122.9063 Q101.9531,122.2813 103.1875,122.2813 Q103.9219,122.2813 104.5625,122.4531 Q105.2188,122.6094 105.7656,122.9688 Z "/><text fill="#000000" font-family="sans-serif" font-size="14" lengthAdjust="spacingAndGlyphs" textLength="91" x="137" y="126.5332">DoaTransform</text><text fill="#000000" font-family="sans-serif" font-size="10" lengthAdjust="spacingAndGlyphs" textLength="131" x="117" y="139.9902">doa.engine.scene.elements</text><line style="stroke: #A80036; stroke-width: 1.5;" x1="89" x2="250" y1="147.1875" y2="147.1875"/><ellipse cx="99" cy="158.1875" fill="none" rx="3" ry="3" style="stroke: #038048; stroke-width: 1.0;"/><text fill="#000000" font-family="sans-serif" font-size="11" lengthAdjust="spacingAndGlyphs" textLength="95" x="108" y="162.6064">position: DoaVector</text><ellipse cx="99" cy="172.0234" fill="none" rx="3" ry="3" style="stroke: #038048; stroke-width: 1.0;"/><text fill="#000000" font-family="sans-serif" font-size="11" lengthAdjust="spacingAndGlyphs" textLength="63" x="108" y="176.4424">rotation: float</text><ellipse cx="99" cy="185.8594" fill="none" rx="3" ry="3" style="stroke: #038048; stroke-width: 1.0;"/><text fill="#000000" font-family="sans-serif" font-size="11" lengthAdjust="spacingAndGlyphs" textLength="84" x="108" y="190.2783">scale: DoaVector</text><line style="stroke: #A80036; stroke-width: 1.5;" x1="89" x2="250" y1="196.6953" y2="196.6953"/><ellipse cx="99" cy="207.6953" fill="#84BE84" rx="3" ry="3" style="stroke: #038048; stroke-width: 1.0;"/><text fill="#000000" font-family="sans-serif" font-size="11" lengthAdjust="spacingAndGlyphs" textLength="75" x="108" y="212.1143">AABB(): Shape</text><ellipse cx="99" cy="221.5313" fill="#84BE84" rx="3" ry="3" style="stroke: #038048; stroke-width: 1.0;"/><text fill="#000000" font-family="sans-serif" font-size="11" lengthAdjust="spacingAndGlyphs" textLength="133" x="108" y="225.9502">getPreciseBounds(): Shape</text></a><!--MD5=[446a402d650adfd9c60db59099938794]
class doa.engine.scene.DoaComponent--><a href="..\DoaComponent.html" target="_top" title="..\DoaComponent.html" xlink:actuate="onRequest" xlink:href="..\DoaComponent.html" xlink:show="new" xlink:title="..\DoaComponent.html" xlink:type="simple"><rect codeLine="13" fill="#FEFECE" filter="url(#f1d7vsvfaurzy0)" height="40.1875" id="doa.engine.scene.DoaComponent" style="stroke: #A80036; stroke-width: 1.5;" width="131" x="7" y="7"/><ellipse cx="22" cy="27.0938" fill="#A9DCDF" rx="11" ry="11" style="stroke: #A80036; stroke-width: 1.0;"/><path d="M24.1875,28.8594 L20.0469,28.8594 L19.625,29.8906 L20.0469,29.8906 Q20.6563,29.8906 20.9219,30.125 Q21.1875,30.3594 21.1875,30.75 Q21.1875,31.125 20.9219,31.3594 Q20.6563,31.5938 20.0469,31.5938 L17.75,31.5938 Q17.1406,31.5938 16.8906,31.3594 Q16.625,31.125 16.625,30.7344 Q16.625,30.3594 16.9063,30.125 Q17.1719,29.875 17.7969,29.8906 L20.4688,23.2344 L19.3594,23.2344 Q18.75,23.2344 18.4844,23 Q18.2188,22.7656 18.2188,22.375 Q18.2188,22 18.4844,21.7656 Q18.75,21.5313 19.3594,21.5313 L23.0313,21.5313 L26.4219,29.8906 Q27.0156,29.8906 27.2031,30.0313 Q27.5938,30.2969 27.5938,30.75 Q27.5938,31.125 27.3281,31.3594 Q27.0781,31.5938 26.4688,31.5938 L24.1719,31.5938 Q23.5625,31.5938 23.2969,31.3594 Q23.0313,31.125 23.0313,30.7344 Q23.0313,30.3594 23.2969,30.125 Q23.5625,29.8906 24.1719,29.8906 L24.5938,29.8906 L24.1875,28.8594 Z M23.4688,27.1563 L22.1094,23.7813 L20.7344,27.1563 L23.4688,27.1563 Z "/><text fill="#000000" font-family="sans-serif" font-size="14" font-style="italic" lengthAdjust="spacingAndGlyphs" textLength="99" x="36" y="26.5332">DoaComponent</text><text fill="#000000" font-family="sans-serif" font-size="10" font-style="italic" lengthAdjust="spacingAndGlyphs" textLength="85" x="43" y="39.9902">doa.engine.scene</text></a><!--MD5=[3ec528fcdeb440cdedd47ef865ed8385]
class doa.engine.scene.elements.DoaEssentialComponent--><a href="DoaEssentialComponent.html" target="_top" title="DoaEssentialComponent.html" xlink:actuate="onRequest" xlink:href="DoaEssentialComponent.html" xlink:show="new" xlink:title="DoaEssentialComponent.html" xlink:type="simple"><rect codeLine="14" fill="#FEFECE" filter="url(#f1d7vsvfaurzy0)" height="40.1875" id="doa.engine.scene.elements.DoaEssentialComponent" style="stroke: #A80036; stroke-width: 1.5;" width="188" x="173.5" y="7"/><ellipse cx="188.5" cy="27.0938" fill="#B4A7E5" rx="11" ry="11" style="stroke: #A80036; stroke-width: 1.0;"/><path d="M189.4531,23.7344 L189.4531,30.3906 L191.1719,30.3906 Q191.7813,30.3906 192.0469,30.625 Q192.3125,30.8594 192.3125,31.25 Q192.3125,31.625 192.0469,31.8594 Q191.7813,32.0938 191.1719,32.0938 L186.0313,32.0938 Q185.4219,32.0938 185.1563,31.8594 Q184.8906,31.625 184.8906,31.2344 Q184.8906,30.8594 185.1563,30.625 Q185.4219,30.3906 186.0313,30.3906 L187.75,30.3906 L187.75,23.7344 L186.0313,23.7344 Q185.4219,23.7344 185.1563,23.5 Q184.8906,23.2656 184.8906,22.875 Q184.8906,22.5 185.1563,22.2656 Q185.4219,22.0313 186.0313,22.0313 L191.1719,22.0313 Q191.7813,22.0313 192.0469,22.2656 Q192.3125,22.5 192.3125,22.875 Q192.3125,23.2656 192.0469,23.5 Q191.7813,23.7344 191.1719,23.7344 L189.4531,23.7344 Z "/><text fill="#000000" font-family="sans-serif" font-size="14" font-style="italic" lengthAdjust="spacingAndGlyphs" textLength="156" x="202.5" y="26.5332">DoaEssentialComponent</text><text fill="#000000" font-family="sans-serif" font-size="10" font-style="italic" lengthAdjust="spacingAndGlyphs" textLength="130" x="215.5" y="39.9902">doa.engine.scene.elements</text></a><!--MD5=[432b582efbb4a86a29a848263a561fdf]
reverse link doa.engine.scene.DoaComponent to doa.engine.scene.elements.DoaTransform--><path codeLine="16" d="M97.39,64.05 C106.41,77.12 116.88,92.28 126.99,106.92 " fill="none" id="doa.engine.scene.DoaComponent-backto-doa.engine.scene.elements.DoaTransform" style="stroke: #A80036; stroke-width: 1.0;"/><polygon fill="none" points="91.39,67.68,85.78,47.24,102.91,59.72,91.39,67.68" style="stroke: #A80036; stroke-width: 1.0;"/><!--MD5=[b4d927ba283e9ea2841a56c7b254011f]
reverse link doa.engine.scene.elements.DoaEssentialComponent to doa.engine.scene.elements.DoaTransform--><path codeLine="17" d="M242.35,64.05 C233.24,77.12 222.67,92.28 212.45,106.92 " fill="none" id="doa.engine.scene.elements.DoaEssentialComponent-backto-doa.engine.scene.elements.DoaTransform" style="stroke: #A80036; stroke-width: 1.0; stroke-dasharray: 7.0,7.0;"/><polygon fill="none" points="236.9,59.64,254.08,47.24,248.38,67.65,236.9,59.64" style="stroke: #A80036; stroke-width: 1.0;"/><text fill="#888888" font-family="sans-serif" font-size="10" lengthAdjust="spacingAndGlyphs" textLength="190" x="86.25" y="255.748">UMLDoclet 2.0.12, PlantUML 1.2020.16</text><!--MD5=[cfb089faa44be35581e4ead150cc90bc]
@startuml
    set namespaceSeparator none
    hide empty fields
    hide empty methods

    class "<size:14>DoaTransform\n<size:10>doa.engine.scene.elements" as doa.engine.scene.elements.DoaTransform [[DoaTransform.html]] {
        +position: DoaVector
        +rotation: float
        +scale: DoaVector
        +AABB(): Shape
        +getPreciseBounds(): Shape
    }

    abstract class "<size:14>DoaComponent\n<size:10>doa.engine.scene" as doa.engine.scene.DoaComponent [[..\DoaComponent.html]]
    interface "<size:14>DoaEssentialComponent\n<size:10>doa.engine.scene.elements" as doa.engine.scene.elements.DoaEssentialComponent [[DoaEssentialComponent.html]]

    doa.engine.scene.DoaComponent <|- - doa.engine.scene.elements.DoaTransform
    doa.engine.scene.elements.DoaEssentialComponent <|.. doa.engine.scene.elements.DoaTransform

    center footer UMLDoclet 2.0.12, PlantUML 1.2020.16
@enduml

PlantUML version 1.2020.16(Sun Aug 23 23:20:43 TRT 2020)
(APACHE source distribution)
Java Runtime: OpenJDK Runtime Environment
JVM: OpenJDK 64-Bit Server VM
Default Encoding: Cp1252
Language: en
Country: GB
--></g></svg>