<?xml version="1.0" encoding="UTF-8" standalone="no"?><svg xmlns="http://www.w3.org/2000/svg" xmlns:xlink="http://www.w3.org/1999/xlink" contentScriptType="application/ecmascript" contentStyleType="text/css" height="354px" preserveAspectRatio="none" style="width:441px;height:354px;" version="1.1" viewBox="0 0 441 354" width="441px" zoomAndPan="magnify"><defs><filter height="300%" id="fi4lfx3a454n4" width="300%" x="-1" y="-1"><feGaussianBlur result="blurOut" stdDeviation="2.0"/><feColorMatrix in="blurOut" result="blurOut2" type="matrix" values="0 0 0 0 0 0 0 0 0 0 0 0 0 0 0 0 0 0 .4 0"/><feOffset dx="4.0" dy="4.0" in="blurOut2" result="blurOut3"/><feBlend in="SourceGraphic" in2="blurOut3" mode="normal"/></filter></defs><g><!--MD5=[02bb4a544004d472639de040be298bbc]
cluster doa.engine.scene.elements--><polygon fill="#FFFFFF" filter="url(#fi4lfx3a454n4)" points="16,27,217,27,224,50.6094,227,50.6094,227,325,16,325,16,27" style="stroke: #000000; stroke-width: 1.5;"/><line style="stroke: #000000; stroke-width: 1.5;" x1="16" x2="224" y1="50.6094" y2="50.6094"/><text fill="#000000" font-family="sans-serif" font-size="14" font-weight="bold" lengthAdjust="spacingAndGlyphs" textLength="195" x="20" y="43.5332">doa.engine.scene.elements</text><!--MD5=[8099be491052978abf5cae05cc1ddf0f]
cluster doa.engine.scene--><polygon fill="#FFFFFF" filter="url(#fi4lfx3a454n4)" points="251,6,383,6,390,29.6094,419,29.6094,419,148,251,148,251,6" style="stroke: #000000; stroke-width: 1.5;"/><line style="stroke: #000000; stroke-width: 1.5;" x1="251" x2="390" y1="29.6094" y2="29.6094"/><text fill="#000000" font-family="sans-serif" font-size="14" font-weight="bold" lengthAdjust="spacingAndGlyphs" textLength="126" x="255" y="22.5332">doa.engine.scene</text><!--MD5=[3ec528fcdeb440cdedd47ef865ed8385]
class doa.engine.scene.elements.DoaEssentialComponent--><a href="DoaEssentialComponent.html" target="_top" title="DoaEssentialComponent.html" xlink:actuate="onRequest" xlink:href="DoaEssentialComponent.html" xlink:show="new" xlink:title="DoaEssentialComponent.html" xlink:type="simple"><rect codeLine="3" fill="#FEFECE" filter="url(#fi4lfx3a454n4)" height="48" id="doa.engine.scene.elements.DoaEssentialComponent" style="stroke: #A80036; stroke-width: 1.5;" width="170" x="41" y="63"/><ellipse cx="56" cy="79" fill="#B4A7E5" rx="11" ry="11" style="stroke: #A80036; stroke-width: 1.0;"/><path d="M56.9531,75.6406 L56.9531,82.2969 L58.6719,82.2969 Q59.2813,82.2969 59.5469,82.5313 Q59.8125,82.7656 59.8125,83.1563 Q59.8125,83.5313 59.5469,83.7656 Q59.2813,84 58.6719,84 L53.5313,84 Q52.9219,84 52.6563,83.7656 Q52.3906,83.5313 52.3906,83.1406 Q52.3906,82.7656 52.6563,82.5313 Q52.9219,82.2969 53.5313,82.2969 L55.25,82.2969 L55.25,75.6406 L53.5313,75.6406 Q52.9219,75.6406 52.6563,75.4063 Q52.3906,75.1719 52.3906,74.7813 Q52.3906,74.4063 52.6563,74.1719 Q52.9219,73.9375 53.5313,73.9375 L58.6719,73.9375 Q59.2813,73.9375 59.5469,74.1719 Q59.8125,74.4063 59.8125,74.7813 Q59.8125,75.1719 59.5469,75.4063 Q59.2813,75.6406 58.6719,75.6406 L56.9531,75.6406 Z "/><text fill="#000000" font-family="sans-serif" font-size="12" font-style="italic" lengthAdjust="spacingAndGlyphs" textLength="138" x="70" y="83.9102">DoaEssentialComponent</text><line style="stroke: #A80036; stroke-width: 1.5;" x1="42" x2="210" y1="95" y2="95"/><line style="stroke: #A80036; stroke-width: 1.5;" x1="42" x2="210" y1="103" y2="103"/></a><!--MD5=[cd3034e8e56ac459c4f7cee464e8022e]
class doa.engine.scene.elements.DoaTransform--><a href="DoaTransform.html" target="_top" title="DoaTransform.html" xlink:actuate="onRequest" xlink:href="DoaTransform.html" xlink:show="new" xlink:title="DoaTransform.html" xlink:type="simple"><rect codeLine="5" fill="#FEFECE" filter="url(#fi4lfx3a454n4)" height="117.1797" id="doa.engine.scene.elements.DoaTransform" style="stroke: #A80036; stroke-width: 1.5;" width="159" x="48.5" y="192"/><ellipse cx="84.65" cy="208" fill="#ADD1B2" rx="11" ry="11" style="stroke: #A80036; stroke-width: 1.0;"/><path d="M87.4156,203.875 Q87.5719,203.6563 87.7594,203.5469 Q87.9469,203.4375 88.1656,203.4375 Q88.5406,203.4375 88.775,203.7031 Q89.0094,203.9531 89.0094,204.5625 L89.0094,206.0156 Q89.0094,206.625 88.775,206.8906 Q88.5406,207.1563 88.1656,207.1563 Q87.8219,207.1563 87.6188,206.9531 Q87.4156,206.7656 87.3063,206.25 Q87.2594,205.8906 87.0719,205.7031 Q86.7438,205.3281 86.1344,205.1094 Q85.525,204.8906 84.9,204.8906 Q84.1344,204.8906 83.4938,205.2188 Q82.8688,205.5469 82.3688,206.2969 Q81.8844,207.0469 81.8844,208.0781 L81.8844,209.1719 Q81.8844,210.4063 82.775,211.2344 Q83.6656,212.0469 85.2594,212.0469 Q86.1969,212.0469 86.8531,211.7969 Q87.2438,211.6406 87.6656,211.2031 Q87.9313,210.9375 88.0719,210.8594 Q88.2281,210.7813 88.4313,210.7813 Q88.7594,210.7813 89.0094,211.0469 Q89.275,211.2969 89.275,211.6406 Q89.275,211.9844 88.9313,212.3906 Q88.4313,212.9688 87.6344,213.2969 Q86.5563,213.75 85.2594,213.75 Q83.7438,213.75 82.5406,213.125 Q81.5563,212.625 80.8688,211.5625 Q80.1813,210.4844 80.1813,209.2031 L80.1813,208.0469 Q80.1813,206.7188 80.7906,205.5781 Q81.4156,204.4219 82.5094,203.8125 Q83.6031,203.1875 84.8375,203.1875 Q85.5719,203.1875 86.2125,203.3594 Q86.8688,203.5156 87.4156,203.875 Z "/><text fill="#000000" font-family="sans-serif" font-size="12" lengthAdjust="spacingAndGlyphs" textLength="80" x="103.35" y="212.9102">DoaTransform</text><line style="stroke: #A80036; stroke-width: 1.5;" x1="49.5" x2="206.5" y1="224" y2="224"/><ellipse cx="59.5" cy="235" fill="none" rx="3" ry="3" style="stroke: #038048; stroke-width: 1.0;"/><text fill="#000000" font-family="sans-serif" font-size="11" lengthAdjust="spacingAndGlyphs" textLength="95" x="68.5" y="239.4189">position: DoaVector</text><ellipse cx="59.5" cy="248.8359" fill="none" rx="3" ry="3" style="stroke: #038048; stroke-width: 1.0;"/><text fill="#000000" font-family="sans-serif" font-size="11" lengthAdjust="spacingAndGlyphs" textLength="63" x="68.5" y="253.2549">rotation: float</text><ellipse cx="59.5" cy="262.6719" fill="none" rx="3" ry="3" style="stroke: #038048; stroke-width: 1.0;"/><text fill="#000000" font-family="sans-serif" font-size="11" lengthAdjust="spacingAndGlyphs" textLength="84" x="68.5" y="267.0908">scale: DoaVector</text><line style="stroke: #A80036; stroke-width: 1.5;" x1="49.5" x2="206.5" y1="273.5078" y2="273.5078"/><ellipse cx="59.5" cy="284.5078" fill="#84BE84" rx="3" ry="3" style="stroke: #038048; stroke-width: 1.0;"/><text fill="#000000" font-family="sans-serif" font-size="11" lengthAdjust="spacingAndGlyphs" textLength="75" x="68.5" y="288.9268">AABB(): Shape</text><ellipse cx="59.5" cy="298.3438" fill="#84BE84" rx="3" ry="3" style="stroke: #038048; stroke-width: 1.0;"/><text fill="#000000" font-family="sans-serif" font-size="11" lengthAdjust="spacingAndGlyphs" textLength="133" x="68.5" y="302.7627">getPreciseBounds(): Shape</text></a><!--MD5=[446a402d650adfd9c60db59099938794]
class doa.engine.scene.DoaComponent--><a href="..\DoaComponent.html" target="_top" title="..\DoaComponent.html" xlink:actuate="onRequest" xlink:href="..\DoaComponent.html" xlink:show="new" xlink:title="..\DoaComponent.html" xlink:type="simple"><rect codeLine="18" fill="#FEFECE" filter="url(#fi4lfx3a454n4)" height="89.5078" id="doa.engine.scene.DoaComponent" style="stroke: #A80036; stroke-width: 1.5;" width="135" x="267.5" y="42"/><ellipse cx="289.25" cy="58" fill="#A9DCDF" rx="11" ry="11" style="stroke: #A80036; stroke-width: 1.0;"/><path d="M291.4375,59.7656 L287.2969,59.7656 L286.875,60.7969 L287.2969,60.7969 Q287.9063,60.7969 288.1719,61.0313 Q288.4375,61.2656 288.4375,61.6563 Q288.4375,62.0313 288.1719,62.2656 Q287.9063,62.5 287.2969,62.5 L285,62.5 Q284.3906,62.5 284.1406,62.2656 Q283.875,62.0313 283.875,61.6406 Q283.875,61.2656 284.1563,61.0313 Q284.4219,60.7813 285.0469,60.7969 L287.7188,54.1406 L286.6094,54.1406 Q286,54.1406 285.7344,53.9063 Q285.4688,53.6719 285.4688,53.2813 Q285.4688,52.9063 285.7344,52.6719 Q286,52.4375 286.6094,52.4375 L290.2813,52.4375 L293.6719,60.7969 Q294.2656,60.7969 294.4531,60.9375 Q294.8438,61.2031 294.8438,61.6563 Q294.8438,62.0313 294.5781,62.2656 Q294.3281,62.5 293.7188,62.5 L291.4219,62.5 Q290.8125,62.5 290.5469,62.2656 Q290.2813,62.0313 290.2813,61.6406 Q290.2813,61.2656 290.5469,61.0313 Q290.8125,60.7969 291.4219,60.7969 L291.8438,60.7969 L291.4375,59.7656 Z M290.7188,58.0625 L289.3594,54.6875 L287.9844,58.0625 L290.7188,58.0625 Z "/><text fill="#000000" font-family="sans-serif" font-size="12" font-style="italic" lengthAdjust="spacingAndGlyphs" textLength="88" x="304.75" y="62.9102">DoaComponent</text><line style="stroke: #A80036; stroke-width: 1.5;" x1="268.5" x2="401.5" y1="74" y2="74"/><polygon fill="none" points="278.5,80,282.5,84,278.5,88,274.5,84" style="stroke: #B38D22; stroke-width: 1.0;"/><text fill="#000000" font-family="sans-serif" font-size="11" lengthAdjust="spacingAndGlyphs" textLength="90" x="287.5" y="89.4189">isEnabled: boolean</text><ellipse cx="278.5" cy="98.8359" fill="none" rx="3" ry="3" style="stroke: #038048; stroke-width: 1.0;"/><text fill="#000000" font-family="sans-serif" font-size="11" lengthAdjust="spacingAndGlyphs" textLength="60" x="287.5" y="103.2549">name: String</text><ellipse cx="278.5" cy="112.6719" fill="none" rx="3" ry="3" style="stroke: #038048; stroke-width: 1.0;"/><text fill="#000000" font-family="sans-serif" font-size="11" lengthAdjust="spacingAndGlyphs" textLength="109" x="287.5" y="117.0908">debugRender: boolean</text><line style="stroke: #A80036; stroke-width: 1.5;" x1="268.5" x2="401.5" y1="123.5078" y2="123.5078"/></a><!--MD5=[432b582efbb4a86a29a848263a561fdf]
reverse link doa.engine.scene.DoaComponent to doa.engine.scene.elements.DoaTransform--><path codeLine="13" d="M262.44,144.61 C242.85,159.89 221.64,176.44 201.98,191.78 " fill="none" id="doa.engine.scene.DoaComponent-backto-doa.engine.scene.elements.DoaTransform" style="stroke: #A80036; stroke-width: 1.0;"/><polygon fill="none" points="258.36,138.91,278.44,132.13,266.97,149.95,258.36,138.91" style="stroke: #A80036; stroke-width: 1.0;"/><!--MD5=[b4d927ba283e9ea2841a56c7b254011f]
reverse link doa.engine.scene.elements.DoaEssentialComponent to doa.engine.scene.elements.DoaTransform--><path codeLine="14" d="M126.54,131.43 C126.77,150.02 127.04,171.99 127.29,191.91 " fill="none" id="doa.engine.scene.elements.DoaEssentialComponent-backto-doa.engine.scene.elements.DoaTransform" style="stroke: #A80036; stroke-width: 1.0; stroke-dasharray: 7.0,7.0;"/><polygon fill="none" points="119.53,131.22,126.29,111.14,133.53,131.05,119.53,131.22" style="stroke: #A80036; stroke-width: 1.0;"/><text fill="#888888" font-family="sans-serif" font-size="10" lengthAdjust="spacingAndGlyphs" textLength="190" x="116.5" y="341.3809">UMLDoclet 2.0.12, PlantUML 1.2020.16</text><!--MD5=[784b16d8bf1b9f89f0d5d6b4c3310845]
@startuml
    namespace doa.engine.scene.elements {

        interface DoaEssentialComponent [[DoaEssentialComponent.html]]

        class DoaTransform [[DoaTransform.html]] {
            +position: DoaVector
            +rotation: float
            +scale: DoaVector
            +AABB(): Shape
            +getPreciseBounds(): Shape
        }

        doa.engine.scene.DoaComponent <|- - DoaTransform
        DoaEssentialComponent <|.. DoaTransform
    }

    namespace doa.engine.scene {
        abstract class DoaComponent [[..\DoaComponent.html]] {
            #isEnabled: boolean
            +name: String
            +debugRender: boolean
        }
    }

    center footer UMLDoclet 2.0.12, PlantUML 1.2020.16
@enduml

PlantUML version 1.2020.16(Sun Aug 23 23:20:43 TRT 2020)
(APACHE source distribution)
Java Runtime: OpenJDK Runtime Environment
JVM: OpenJDK 64-Bit Server VM
Default Encoding: Cp1252
Language: en
Country: GB
--></g></svg>