<svg xmlns="http://www.w3.org/2000/svg" xmlns:xlink="http://www.w3.org/1999/xlink" width="202" height="1325" contentScriptType="application/ecmascript" contentStyleType="text/css" style="width:202px;height:1325px" preserveAspectRatio="none" version="1.1" viewBox="0 0 202 1325" zoomAndPan="magnify"><defs><filter id="f1ag1ha1dl6a75" width="300%" height="300%" x="-1" y="-1"><feGaussianBlur result="blurOut" stdDeviation="2"/><feColorMatrix in="blurOut" result="blurOut2" type="matrix" values="0 0 0 0 0 0 0 0 0 0 0 0 0 0 0 0 0 0 .4 0"/><feOffset dx="4" dy="4" in="blurOut2" result="blurOut3"/><feBlend in="SourceGraphic" in2="blurOut3" mode="normal"/></filter></defs><g><a href="DoaKeyboard.html" target="_top" title="DoaKeyboard.html" xlink:actuate="onRequest" xlink:href="DoaKeyboard.html" xlink:show="new" xlink:title="DoaKeyboard.html" xlink:type="simple"><rect id="doa.engine.input.DoaKeyboard" width="145" height="1287.586" x="22.5" y="7" fill="#FEFECE" codeLine="5" filter="url(#f1ag1ha1dl6a75)" style="stroke:#a80036;stroke-width:1.5"/><ellipse cx="49.2" cy="27.094" fill="#ADD1B2" rx="11" ry="11" style="stroke:#a80036;stroke-width:1"/><path d="M51.9656,22.9688 Q52.1219,22.75 52.3094,22.6406 Q52.4969,22.5313 52.7156,22.5313 Q53.0906,22.5313 53.325,22.7969 Q53.5594,23.0469 53.5594,23.6563 L53.5594,25.1094 Q53.5594,25.7188 53.325,25.9844 Q53.0906,26.25 52.7156,26.25 Q52.3719,26.25 52.1688,26.0469 Q51.9656,25.8594 51.8563,25.3438 Q51.8094,24.9844 51.6219,24.7969 Q51.2938,24.4219 50.6844,24.2031 Q50.075,23.9844 49.45,23.9844 Q48.6844,23.9844 48.0438,24.3125 Q47.4188,24.6406 46.9188,25.3906 Q46.4344,26.1406 46.4344,27.1719 L46.4344,28.2656 Q46.4344,29.5 47.325,30.3281 Q48.2156,31.1406 49.8094,31.1406 Q50.7469,31.1406 51.4031,30.8906 Q51.7938,30.7344 52.2156,30.2969 Q52.4813,30.0313 52.6219,29.9531 Q52.7781,29.875 52.9813,29.875 Q53.3094,29.875 53.5594,30.1406 Q53.825,30.3906 53.825,30.7344 Q53.825,31.0781 53.4813,31.4844 Q52.9813,32.0625 52.1844,32.3906 Q51.1063,32.8438 49.8094,32.8438 Q48.2938,32.8438 47.0906,32.2188 Q46.1063,31.7188 45.4188,30.6563 Q44.7313,29.5781 44.7313,28.2969 L44.7313,27.1406 Q44.7313,25.8125 45.3406,24.6719 Q45.9656,23.5156 47.0594,22.9063 Q48.1531,22.2813 49.3875,22.2813 Q50.1219,22.2813 50.7625,22.4531 Q51.4188,22.6094 51.9656,22.9688 Z"/><text x="65.8" y="26.533" fill="#000" font-family="sans-serif" font-size="14" lengthAdjust="spacingAndGlyphs" textLength="87">DoaKeyboard</text><text x="68.8" y="39.99" fill="#000" font-family="sans-serif" font-size="10" lengthAdjust="spacingAndGlyphs" textLength="81">doa.engine.input</text><line style="stroke:#a80036;stroke-width:1.5" x1="23.5" x2="166.5" y1="47.188" y2="47.188"/><ellipse cx="33.5" cy="58.188" fill="none" rx="3" ry="3" style="stroke:#038048;stroke-width:1"/><text x="42.5" y="62.606" fill="#000" font-family="sans-serif" font-size="11" lengthAdjust="spacingAndGlyphs" text-decoration="underline" textLength="92">INPUT: KeyAdapter</text><ellipse cx="33.5" cy="72.023" fill="none" rx="3" ry="3" style="stroke:#038048;stroke-width:1"/><text x="42.5" y="76.442" fill="#000" font-family="sans-serif" font-size="11" lengthAdjust="spacingAndGlyphs" text-decoration="underline" textLength="84">ESCAPE: boolean</text><ellipse cx="33.5" cy="85.859" fill="none" rx="3" ry="3" style="stroke:#038048;stroke-width:1"/><text x="42.5" y="90.278" fill="#000" font-family="sans-serif" font-size="11" lengthAdjust="spacingAndGlyphs" text-decoration="underline" textLength="56">F1: boolean</text><ellipse cx="33.5" cy="99.695" fill="none" rx="3" ry="3" style="stroke:#038048;stroke-width:1"/><text x="42.5" y="104.114" fill="#000" font-family="sans-serif" font-size="11" lengthAdjust="spacingAndGlyphs" text-decoration="underline" textLength="56">F2: boolean</text><ellipse cx="33.5" cy="113.531" fill="none" rx="3" ry="3" style="stroke:#038048;stroke-width:1"/><text x="42.5" y="117.95" fill="#000" font-family="sans-serif" font-size="11" lengthAdjust="spacingAndGlyphs" text-decoration="underline" textLength="56">F3: boolean</text><ellipse cx="33.5" cy="127.367" fill="none" rx="3" ry="3" style="stroke:#038048;stroke-width:1"/><text x="42.5" y="131.786" fill="#000" font-family="sans-serif" font-size="11" lengthAdjust="spacingAndGlyphs" text-decoration="underline" textLength="56">F4: boolean</text><ellipse cx="33.5" cy="141.203" fill="none" rx="3" ry="3" style="stroke:#038048;stroke-width:1"/><text x="42.5" y="145.622" fill="#000" font-family="sans-serif" font-size="11" lengthAdjust="spacingAndGlyphs" text-decoration="underline" textLength="56">F5: boolean</text><ellipse cx="33.5" cy="155.039" fill="none" rx="3" ry="3" style="stroke:#038048;stroke-width:1"/><text x="42.5" y="159.458" fill="#000" font-family="sans-serif" font-size="11" lengthAdjust="spacingAndGlyphs" text-decoration="underline" textLength="56">F6: boolean</text><ellipse cx="33.5" cy="168.875" fill="none" rx="3" ry="3" style="stroke:#038048;stroke-width:1"/><text x="42.5" y="173.294" fill="#000" font-family="sans-serif" font-size="11" lengthAdjust="spacingAndGlyphs" text-decoration="underline" textLength="56">F7: boolean</text><ellipse cx="33.5" cy="182.711" fill="none" rx="3" ry="3" style="stroke:#038048;stroke-width:1"/><text x="42.5" y="187.13" fill="#000" font-family="sans-serif" font-size="11" lengthAdjust="spacingAndGlyphs" text-decoration="underline" textLength="56">F8: boolean</text><ellipse cx="33.5" cy="196.547" fill="none" rx="3" ry="3" style="stroke:#038048;stroke-width:1"/><text x="42.5" y="200.966" fill="#000" font-family="sans-serif" font-size="11" lengthAdjust="spacingAndGlyphs" text-decoration="underline" textLength="56">F9: boolean</text><ellipse cx="33.5" cy="210.383" fill="none" rx="3" ry="3" style="stroke:#038048;stroke-width:1"/><text x="42.5" y="214.802" fill="#000" font-family="sans-serif" font-size="11" lengthAdjust="spacingAndGlyphs" text-decoration="underline" textLength="62">F10: boolean</text><ellipse cx="33.5" cy="224.219" fill="none" rx="3" ry="3" style="stroke:#038048;stroke-width:1"/><text x="42.5" y="228.638" fill="#000" font-family="sans-serif" font-size="11" lengthAdjust="spacingAndGlyphs" text-decoration="underline" textLength="62">F11: boolean</text><ellipse cx="33.5" cy="238.055" fill="none" rx="3" ry="3" style="stroke:#038048;stroke-width:1"/><text x="42.5" y="242.474" fill="#000" font-family="sans-serif" font-size="11" lengthAdjust="spacingAndGlyphs" text-decoration="underline" textLength="62">F12: boolean</text><ellipse cx="33.5" cy="251.891" fill="none" rx="3" ry="3" style="stroke:#038048;stroke-width:1"/><text x="42.5" y="256.31" fill="#000" font-family="sans-serif" font-size="11" lengthAdjust="spacingAndGlyphs" text-decoration="underline" textLength="118">PRINT_SCREEN: boolean</text><ellipse cx="33.5" cy="265.727" fill="none" rx="3" ry="3" style="stroke:#038048;stroke-width:1"/><text x="42.5" y="270.146" fill="#000" font-family="sans-serif" font-size="11" lengthAdjust="spacingAndGlyphs" text-decoration="underline" textLength="119">SCROLL_LOCK: boolean</text><ellipse cx="33.5" cy="279.563" fill="none" rx="3" ry="3" style="stroke:#038048;stroke-width:1"/><text x="42.5" y="283.981" fill="#000" font-family="sans-serif" font-size="11" lengthAdjust="spacingAndGlyphs" text-decoration="underline" textLength="119">PAUSE_BREAK: boolean</text><ellipse cx="33.5" cy="293.398" fill="none" rx="3" ry="3" style="stroke:#038048;stroke-width:1"/><text x="42.5" y="297.817" fill="#000" font-family="sans-serif" font-size="11" lengthAdjust="spacingAndGlyphs" text-decoration="underline" textLength="71">TILDE: boolean</text><ellipse cx="33.5" cy="307.234" fill="none" rx="3" ry="3" style="stroke:#038048;stroke-width:1"/><text x="42.5" y="311.653" fill="#000" font-family="sans-serif" font-size="11" lengthAdjust="spacingAndGlyphs" text-decoration="underline" textLength="72">ZERO: boolean</text><ellipse cx="33.5" cy="321.07" fill="none" rx="3" ry="3" style="stroke:#038048;stroke-width:1"/><text x="42.5" y="325.489" fill="#000" font-family="sans-serif" font-size="11" lengthAdjust="spacingAndGlyphs" text-decoration="underline" textLength="65">ONE: boolean</text><ellipse cx="33.5" cy="334.906" fill="none" rx="3" ry="3" style="stroke:#038048;stroke-width:1"/><text x="42.5" y="339.325" fill="#000" font-family="sans-serif" font-size="11" lengthAdjust="spacingAndGlyphs" text-decoration="underline" textLength="68">TWO: boolean</text><ellipse cx="33.5" cy="348.742" fill="none" rx="3" ry="3" style="stroke:#038048;stroke-width:1"/><text x="42.5" y="353.161" fill="#000" font-family="sans-serif" font-size="11" lengthAdjust="spacingAndGlyphs" text-decoration="underline" textLength="76">THREE: boolean</text><ellipse cx="33.5" cy="362.578" fill="none" rx="3" ry="3" style="stroke:#038048;stroke-width:1"/><text x="42.5" y="366.997" fill="#000" font-family="sans-serif" font-size="11" lengthAdjust="spacingAndGlyphs" text-decoration="underline" textLength="72">FOUR: boolean</text><ellipse cx="33.5" cy="376.414" fill="none" rx="3" ry="3" style="stroke:#038048;stroke-width:1"/><text x="42.5" y="380.833" fill="#000" font-family="sans-serif" font-size="11" lengthAdjust="spacingAndGlyphs" text-decoration="underline" textLength="66">FIVE: boolean</text><ellipse cx="33.5" cy="390.25" fill="none" rx="3" ry="3" style="stroke:#038048;stroke-width:1"/><text x="42.5" y="394.669" fill="#000" font-family="sans-serif" font-size="11" lengthAdjust="spacingAndGlyphs" text-decoration="underline" textLength="60">SIX: boolean</text><ellipse cx="33.5" cy="404.086" fill="none" rx="3" ry="3" style="stroke:#038048;stroke-width:1"/><text x="42.5" y="408.505" fill="#000" font-family="sans-serif" font-size="11" lengthAdjust="spacingAndGlyphs" text-decoration="underline" textLength="78">SEVEN: boolean</text><ellipse cx="33.5" cy="417.922" fill="none" rx="3" ry="3" style="stroke:#038048;stroke-width:1"/><text x="42.5" y="422.341" fill="#000" font-family="sans-serif" font-size="11" lengthAdjust="spacingAndGlyphs" text-decoration="underline" textLength="73">EIGHT: boolean</text><ellipse cx="33.5" cy="431.758" fill="none" rx="3" ry="3" style="stroke:#038048;stroke-width:1"/><text x="42.5" y="436.177" fill="#000" font-family="sans-serif" font-size="11" lengthAdjust="spacingAndGlyphs" text-decoration="underline" textLength="66">NINE: boolean</text><ellipse cx="33.5" cy="445.594" fill="none" rx="3" ry="3" style="stroke:#038048;stroke-width:1"/><text x="42.5" y="450.013" fill="#000" font-family="sans-serif" font-size="11" lengthAdjust="spacingAndGlyphs" text-decoration="underline" textLength="113">BACK_SPACE: boolean</text><ellipse cx="33.5" cy="459.43" fill="none" rx="3" ry="3" style="stroke:#038048;stroke-width:1"/><text x="42.5" y="463.849" fill="#000" font-family="sans-serif" font-size="11" lengthAdjust="spacingAndGlyphs" text-decoration="underline" textLength="79">INSERT: boolean</text><ellipse cx="33.5" cy="473.266" fill="none" rx="3" ry="3" style="stroke:#038048;stroke-width:1"/><text x="42.5" y="477.685" fill="#000" font-family="sans-serif" font-size="11" lengthAdjust="spacingAndGlyphs" text-decoration="underline" textLength="81">DELETE: boolean</text><ellipse cx="33.5" cy="487.102" fill="none" rx="3" ry="3" style="stroke:#038048;stroke-width:1"/><text x="42.5" y="491.521" fill="#000" font-family="sans-serif" font-size="11" lengthAdjust="spacingAndGlyphs" text-decoration="underline" textLength="73">HOME: boolean</text><ellipse cx="33.5" cy="500.938" fill="none" rx="3" ry="3" style="stroke:#038048;stroke-width:1"/><text x="42.5" y="505.356" fill="#000" font-family="sans-serif" font-size="11" lengthAdjust="spacingAndGlyphs" text-decoration="underline" textLength="64">END: boolean</text><ellipse cx="33.5" cy="514.773" fill="none" rx="3" ry="3" style="stroke:#038048;stroke-width:1"/><text x="42.5" y="519.192" fill="#000" font-family="sans-serif" font-size="11" lengthAdjust="spacingAndGlyphs" text-decoration="underline" textLength="91">PAGE_UP: boolean</text><ellipse cx="33.5" cy="528.609" fill="none" rx="3" ry="3" style="stroke:#038048;stroke-width:1"/><text x="42.5" y="533.028" fill="#000" font-family="sans-serif" font-size="11" lengthAdjust="spacingAndGlyphs" text-decoration="underline" textLength="110">PAGE_DOWN: boolean</text><ellipse cx="33.5" cy="542.445" fill="none" rx="3" ry="3" style="stroke:#038048;stroke-width:1"/><text x="42.5" y="546.864" fill="#000" font-family="sans-serif" font-size="11" lengthAdjust="spacingAndGlyphs" text-decoration="underline" textLength="52">A: boolean</text><ellipse cx="33.5" cy="556.281" fill="none" rx="3" ry="3" style="stroke:#038048;stroke-width:1"/><text x="42.5" y="560.7" fill="#000" font-family="sans-serif" font-size="11" lengthAdjust="spacingAndGlyphs" text-decoration="underline" textLength="51">B: boolean</text><ellipse cx="33.5" cy="570.117" fill="none" rx="3" ry="3" style="stroke:#038048;stroke-width:1"/><text x="42.5" y="574.536" fill="#000" font-family="sans-serif" font-size="11" lengthAdjust="spacingAndGlyphs" text-decoration="underline" textLength="51">C: boolean</text><ellipse cx="33.5" cy="583.953" fill="none" rx="3" ry="3" style="stroke:#038048;stroke-width:1"/><text x="42.5" y="588.372" fill="#000" font-family="sans-serif" font-size="11" lengthAdjust="spacingAndGlyphs" text-decoration="underline" textLength="51">D: boolean</text><ellipse cx="33.5" cy="597.789" fill="none" rx="3" ry="3" style="stroke:#038048;stroke-width:1"/><text x="42.5" y="602.208" fill="#000" font-family="sans-serif" font-size="11" lengthAdjust="spacingAndGlyphs" text-decoration="underline" textLength="50">E: boolean</text><ellipse cx="33.5" cy="611.625" fill="none" rx="3" ry="3" style="stroke:#038048;stroke-width:1"/><text x="42.5" y="616.044" fill="#000" font-family="sans-serif" font-size="11" lengthAdjust="spacingAndGlyphs" text-decoration="underline" textLength="50">F: boolean</text><ellipse cx="33.5" cy="625.461" fill="none" rx="3" ry="3" style="stroke:#038048;stroke-width:1"/><text x="42.5" y="629.88" fill="#000" font-family="sans-serif" font-size="11" lengthAdjust="spacingAndGlyphs" text-decoration="underline" textLength="52">G: boolean</text><ellipse cx="33.5" cy="639.297" fill="none" rx="3" ry="3" style="stroke:#038048;stroke-width:1"/><text x="42.5" y="643.716" fill="#000" font-family="sans-serif" font-size="11" lengthAdjust="spacingAndGlyphs" text-decoration="underline" textLength="51">H: boolean</text><ellipse cx="33.5" cy="653.133" fill="none" rx="3" ry="3" style="stroke:#038048;stroke-width:1"/><text x="42.5" y="657.552" fill="#000" font-family="sans-serif" font-size="11" lengthAdjust="spacingAndGlyphs" text-decoration="underline" textLength="46">I: boolean</text><ellipse cx="33.5" cy="666.969" fill="none" rx="3" ry="3" style="stroke:#038048;stroke-width:1"/><text x="42.5" y="671.388" fill="#000" font-family="sans-serif" font-size="11" lengthAdjust="spacingAndGlyphs" text-decoration="underline" textLength="49">J: boolean</text><ellipse cx="33.5" cy="680.805" fill="none" rx="3" ry="3" style="stroke:#038048;stroke-width:1"/><text x="42.5" y="685.224" fill="#000" font-family="sans-serif" font-size="11" lengthAdjust="spacingAndGlyphs" text-decoration="underline" textLength="51">K: boolean</text><ellipse cx="33.5" cy="694.641" fill="none" rx="3" ry="3" style="stroke:#038048;stroke-width:1"/><text x="42.5" y="699.06" fill="#000" font-family="sans-serif" font-size="11" lengthAdjust="spacingAndGlyphs" text-decoration="underline" textLength="50">L: boolean</text><ellipse cx="33.5" cy="708.477" fill="none" rx="3" ry="3" style="stroke:#038048;stroke-width:1"/><text x="42.5" y="712.895" fill="#000" font-family="sans-serif" font-size="11" lengthAdjust="spacingAndGlyphs" text-decoration="underline" textLength="52">M: boolean</text><ellipse cx="33.5" cy="722.313" fill="none" rx="3" ry="3" style="stroke:#038048;stroke-width:1"/><text x="42.5" y="726.731" fill="#000" font-family="sans-serif" font-size="11" lengthAdjust="spacingAndGlyphs" text-decoration="underline" textLength="51">N: boolean</text><ellipse cx="33.5" cy="736.148" fill="none" rx="3" ry="3" style="stroke:#038048;stroke-width:1"/><text x="42.5" y="740.567" fill="#000" font-family="sans-serif" font-size="11" lengthAdjust="spacingAndGlyphs" text-decoration="underline" textLength="52">O: boolean</text><ellipse cx="33.5" cy="749.984" fill="none" rx="3" ry="3" style="stroke:#038048;stroke-width:1"/><text x="42.5" y="754.403" fill="#000" font-family="sans-serif" font-size="11" lengthAdjust="spacingAndGlyphs" text-decoration="underline" textLength="50">P: boolean</text><ellipse cx="33.5" cy="763.82" fill="none" rx="3" ry="3" style="stroke:#038048;stroke-width:1"/><text x="42.5" y="768.239" fill="#000" font-family="sans-serif" font-size="11" lengthAdjust="spacingAndGlyphs" text-decoration="underline" textLength="52">Q: boolean</text><ellipse cx="33.5" cy="777.656" fill="none" rx="3" ry="3" style="stroke:#038048;stroke-width:1"/><text x="42.5" y="782.075" fill="#000" font-family="sans-serif" font-size="11" lengthAdjust="spacingAndGlyphs" text-decoration="underline" textLength="51">R: boolean</text><ellipse cx="33.5" cy="791.492" fill="none" rx="3" ry="3" style="stroke:#038048;stroke-width:1"/><text x="42.5" y="795.911" fill="#000" font-family="sans-serif" font-size="11" lengthAdjust="spacingAndGlyphs" text-decoration="underline" textLength="51">S: boolean</text><ellipse cx="33.5" cy="805.328" fill="none" rx="3" ry="3" style="stroke:#038048;stroke-width:1"/><text x="42.5" y="809.747" fill="#000" font-family="sans-serif" font-size="11" lengthAdjust="spacingAndGlyphs" text-decoration="underline" textLength="50">T: boolean</text><ellipse cx="33.5" cy="819.164" fill="none" rx="3" ry="3" style="stroke:#038048;stroke-width:1"/><text x="42.5" y="823.583" fill="#000" font-family="sans-serif" font-size="11" lengthAdjust="spacingAndGlyphs" text-decoration="underline" textLength="51">U: boolean</text><ellipse cx="33.5" cy="833" fill="none" rx="3" ry="3" style="stroke:#038048;stroke-width:1"/><text x="42.5" y="837.419" fill="#000" font-family="sans-serif" font-size="11" lengthAdjust="spacingAndGlyphs" text-decoration="underline" textLength="52">V: boolean</text><ellipse cx="33.5" cy="846.836" fill="none" rx="3" ry="3" style="stroke:#038048;stroke-width:1"/><text x="42.5" y="851.255" fill="#000" font-family="sans-serif" font-size="11" lengthAdjust="spacingAndGlyphs" text-decoration="underline" textLength="54">W: boolean</text><ellipse cx="33.5" cy="860.672" fill="none" rx="3" ry="3" style="stroke:#038048;stroke-width:1"/><text x="42.5" y="865.091" fill="#000" font-family="sans-serif" font-size="11" lengthAdjust="spacingAndGlyphs" text-decoration="underline" textLength="51">X: boolean</text><ellipse cx="33.5" cy="874.508" fill="none" rx="3" ry="3" style="stroke:#038048;stroke-width:1"/><text x="42.5" y="878.927" fill="#000" font-family="sans-serif" font-size="11" lengthAdjust="spacingAndGlyphs" text-decoration="underline" textLength="52">Y: boolean</text><ellipse cx="33.5" cy="888.344" fill="none" rx="3" ry="3" style="stroke:#038048;stroke-width:1"/><text x="42.5" y="892.763" fill="#000" font-family="sans-serif" font-size="11" lengthAdjust="spacingAndGlyphs" text-decoration="underline" textLength="51">Z: boolean</text><ellipse cx="33.5" cy="902.18" fill="none" rx="3" ry="3" style="stroke:#038048;stroke-width:1"/><text x="42.5" y="906.599" fill="#000" font-family="sans-serif" font-size="11" lengthAdjust="spacingAndGlyphs" text-decoration="underline" textLength="65">TAB: boolean</text><ellipse cx="33.5" cy="916.016" fill="none" rx="3" ry="3" style="stroke:#038048;stroke-width:1"/><text x="42.5" y="920.435" fill="#000" font-family="sans-serif" font-size="11" lengthAdjust="spacingAndGlyphs" text-decoration="underline" textLength="106">CAPS_LOCK: boolean</text><ellipse cx="33.5" cy="929.852" fill="none" rx="3" ry="3" style="stroke:#038048;stroke-width:1"/><text x="42.5" y="934.27" fill="#000" font-family="sans-serif" font-size="11" lengthAdjust="spacingAndGlyphs" text-decoration="underline" textLength="72">SHIFT: boolean</text><ellipse cx="33.5" cy="943.688" fill="none" rx="3" ry="3" style="stroke:#038048;stroke-width:1"/><text x="42.5" y="948.106" fill="#000" font-family="sans-serif" font-size="11" lengthAdjust="spacingAndGlyphs" text-decoration="underline" textLength="70">CTRL: boolean</text><ellipse cx="33.5" cy="957.523" fill="none" rx="3" ry="3" style="stroke:#038048;stroke-width:1"/><text x="42.5" y="961.942" fill="#000" font-family="sans-serif" font-size="11" lengthAdjust="spacingAndGlyphs" text-decoration="underline" textLength="95">WINDOWS: boolean</text><ellipse cx="33.5" cy="971.359" fill="none" rx="3" ry="3" style="stroke:#038048;stroke-width:1"/><text x="42.5" y="975.778" fill="#000" font-family="sans-serif" font-size="11" lengthAdjust="spacingAndGlyphs" text-decoration="underline" textLength="64">ALT: boolean</text><ellipse cx="33.5" cy="985.195" fill="none" rx="3" ry="3" style="stroke:#038048;stroke-width:1"/><text x="42.5" y="989.614" fill="#000" font-family="sans-serif" font-size="11" lengthAdjust="spacingAndGlyphs" text-decoration="underline" textLength="78">NUM_1: boolean</text><ellipse cx="33.5" cy="999.031" fill="none" rx="3" ry="3" style="stroke:#038048;stroke-width:1"/><text x="42.5" y="1003.45" fill="#000" font-family="sans-serif" font-size="11" lengthAdjust="spacingAndGlyphs" text-decoration="underline" textLength="78">NUM_2: boolean</text><ellipse cx="33.5" cy="1012.867" fill="none" rx="3" ry="3" style="stroke:#038048;stroke-width:1"/><text x="42.5" y="1017.286" fill="#000" font-family="sans-serif" font-size="11" lengthAdjust="spacingAndGlyphs" text-decoration="underline" textLength="78">NUM_3: boolean</text><ellipse cx="33.5" cy="1026.703" fill="none" rx="3" ry="3" style="stroke:#038048;stroke-width:1"/><text x="42.5" y="1031.122" fill="#000" font-family="sans-serif" font-size="11" lengthAdjust="spacingAndGlyphs" text-decoration="underline" textLength="78">NUM_4: boolean</text><ellipse cx="33.5" cy="1040.539" fill="none" rx="3" ry="3" style="stroke:#038048;stroke-width:1"/><text x="42.5" y="1044.958" fill="#000" font-family="sans-serif" font-size="11" lengthAdjust="spacingAndGlyphs" text-decoration="underline" textLength="78">NUM_5: boolean</text><ellipse cx="33.5" cy="1054.375" fill="none" rx="3" ry="3" style="stroke:#038048;stroke-width:1"/><text x="42.5" y="1058.794" fill="#000" font-family="sans-serif" font-size="11" lengthAdjust="spacingAndGlyphs" text-decoration="underline" textLength="78">NUM_6: boolean</text><ellipse cx="33.5" cy="1068.211" fill="none" rx="3" ry="3" style="stroke:#038048;stroke-width:1"/><text x="42.5" y="1072.63" fill="#000" font-family="sans-serif" font-size="11" lengthAdjust="spacingAndGlyphs" text-decoration="underline" textLength="78">NUM_7: boolean</text><ellipse cx="33.5" cy="1082.047" fill="none" rx="3" ry="3" style="stroke:#038048;stroke-width:1"/><text x="42.5" y="1086.466" fill="#000" font-family="sans-serif" font-size="11" lengthAdjust="spacingAndGlyphs" text-decoration="underline" textLength="78">NUM_8: boolean</text><ellipse cx="33.5" cy="1095.883" fill="none" rx="3" ry="3" style="stroke:#038048;stroke-width:1"/><text x="42.5" y="1100.302" fill="#000" font-family="sans-serif" font-size="11" lengthAdjust="spacingAndGlyphs" text-decoration="underline" textLength="78">NUM_9: boolean</text><ellipse cx="33.5" cy="1109.719" fill="none" rx="3" ry="3" style="stroke:#038048;stroke-width:1"/><text x="42.5" y="1114.138" fill="#000" font-family="sans-serif" font-size="11" lengthAdjust="spacingAndGlyphs" text-decoration="underline" textLength="78">NUM_0: boolean</text><ellipse cx="33.5" cy="1123.555" fill="none" rx="3" ry="3" style="stroke:#038048;stroke-width:1"/><text x="42.5" y="1127.974" fill="#000" font-family="sans-serif" font-size="11" lengthAdjust="spacingAndGlyphs" text-decoration="underline" textLength="63">DEL: boolean</text><ellipse cx="33.5" cy="1137.391" fill="none" rx="3" ry="3" style="stroke:#038048;stroke-width:1"/><text x="42.5" y="1141.81" fill="#000" font-family="sans-serif" font-size="11" lengthAdjust="spacingAndGlyphs" text-decoration="underline" textLength="76">ENTER: boolean</text><ellipse cx="33.5" cy="1151.227" fill="none" rx="3" ry="3" style="stroke:#038048;stroke-width:1"/><text x="42.5" y="1155.646" fill="#000" font-family="sans-serif" font-size="11" lengthAdjust="spacingAndGlyphs" text-decoration="underline" textLength="78">SPACE: boolean</text><ellipse cx="33.5" cy="1165.063" fill="none" rx="3" ry="3" style="stroke:#038048;stroke-width:1"/><text x="42.5" y="1169.481" fill="#000" font-family="sans-serif" font-size="11" lengthAdjust="spacingAndGlyphs" text-decoration="underline" textLength="79">SLASH: boolean</text><ellipse cx="33.5" cy="1178.898" fill="none" rx="3" ry="3" style="stroke:#038048;stroke-width:1"/><text x="42.5" y="1183.317" fill="#000" font-family="sans-serif" font-size="11" lengthAdjust="spacingAndGlyphs" text-decoration="underline" textLength="72">STAR: boolean</text><ellipse cx="33.5" cy="1192.734" fill="none" rx="3" ry="3" style="stroke:#038048;stroke-width:1"/><text x="42.5" y="1197.153" fill="#000" font-family="sans-serif" font-size="11" lengthAdjust="spacingAndGlyphs" text-decoration="underline" textLength="73">DASH: boolean</text><ellipse cx="33.5" cy="1206.57" fill="none" rx="3" ry="3" style="stroke:#038048;stroke-width:1"/><text x="42.5" y="1210.989" fill="#000" font-family="sans-serif" font-size="11" lengthAdjust="spacingAndGlyphs" text-decoration="underline" textLength="70">PLUS: boolean</text><ellipse cx="33.5" cy="1220.406" fill="none" rx="3" ry="3" style="stroke:#038048;stroke-width:1"/><text x="42.5" y="1224.825" fill="#000" font-family="sans-serif" font-size="11" lengthAdjust="spacingAndGlyphs" text-decoration="underline" textLength="84">KEY_UP: boolean</text><ellipse cx="33.5" cy="1234.242" fill="none" rx="3" ry="3" style="stroke:#038048;stroke-width:1"/><text x="42.5" y="1238.661" fill="#000" font-family="sans-serif" font-size="11" lengthAdjust="spacingAndGlyphs" text-decoration="underline" textLength="103">KEY_DOWN: boolean</text><ellipse cx="33.5" cy="1248.078" fill="none" rx="3" ry="3" style="stroke:#038048;stroke-width:1"/><text x="42.5" y="1252.497" fill="#000" font-family="sans-serif" font-size="11" lengthAdjust="spacingAndGlyphs" text-decoration="underline" textLength="101">KEY_RIGHT: boolean</text><ellipse cx="33.5" cy="1261.914" fill="none" rx="3" ry="3" style="stroke:#038048;stroke-width:1"/><text x="42.5" y="1266.333" fill="#000" font-family="sans-serif" font-size="11" lengthAdjust="spacingAndGlyphs" text-decoration="underline" textLength="95">KEY_LEFT: boolean</text><line style="stroke:#a80036;stroke-width:1.5" x1="23.5" x2="166.5" y1="1272.75" y2="1272.75"/><ellipse cx="33.5" cy="1283.75" fill="#84BE84" rx="3" ry="3" style="stroke:#038048;stroke-width:1"/><text x="42.5" y="1288.169" fill="#000" font-family="sans-serif" font-size="11" lengthAdjust="spacingAndGlyphs" text-decoration="underline" textLength="50">tick(): void</text></a><text x="0" y="1311.967" fill="#888" font-family="sans-serif" font-size="10" lengthAdjust="spacingAndGlyphs" textLength="190">UMLDoclet 2.0.12, PlantUML 1.2020.16</text></g></svg>