<svg xmlns="http://www.w3.org/2000/svg" xmlns:xlink="http://www.w3.org/1999/xlink" width="202" height="407" contentScriptType="application/ecmascript" contentStyleType="text/css" style="width:202px;height:407px" preserveAspectRatio="none" version="1.1" viewBox="0 0 202 407" zoomAndPan="magnify"><defs><filter id="fc8e3ha2npcp1" width="300%" height="300%" x="-1" y="-1"><feGaussianBlur result="blurOut" stdDeviation="2"/><feColorMatrix in="blurOut" result="blurOut2" type="matrix" values="0 0 0 0 0 0 0 0 0 0 0 0 0 0 0 0 0 0 .4 0"/><feOffset dx="4" dy="4" in="blurOut2" result="blurOut3"/><feBlend in="SourceGraphic" in2="blurOut3" mode="normal"/></filter></defs><g><a href="DoaMouse.html" target="_top" title="DoaMouse.html" xlink:actuate="onRequest" xlink:href="DoaMouse.html" xlink:show="new" xlink:title="DoaMouse.html" xlink:type="simple"><rect id="doa.engine.input.DoaMouse" width="166" height="263.727" x="15" y="107" fill="#FEFECE" codeLine="5" filter="url(#fc8e3ha2npcp1)" style="stroke:#a80036;stroke-width:1.5"/><ellipse cx="53.85" cy="127.094" fill="#ADD1B2" rx="11" ry="11" style="stroke:#a80036;stroke-width:1"/><path d="M56.6156,122.9688 Q56.7719,122.75 56.9594,122.6406 Q57.1469,122.5313 57.3656,122.5313 Q57.7406,122.5313 57.975,122.7969 Q58.2094,123.0469 58.2094,123.6563 L58.2094,125.1094 Q58.2094,125.7188 57.975,125.9844 Q57.7406,126.25 57.3656,126.25 Q57.0219,126.25 56.8188,126.0469 Q56.6156,125.8594 56.5063,125.3438 Q56.4594,124.9844 56.2719,124.7969 Q55.9438,124.4219 55.3344,124.2031 Q54.725,123.9844 54.1,123.9844 Q53.3344,123.9844 52.6938,124.3125 Q52.0688,124.6406 51.5688,125.3906 Q51.0844,126.1406 51.0844,127.1719 L51.0844,128.2656 Q51.0844,129.5 51.975,130.3281 Q52.8656,131.1406 54.4594,131.1406 Q55.3969,131.1406 56.0531,130.8906 Q56.4438,130.7344 56.8656,130.2969 Q57.1313,130.0313 57.2719,129.9531 Q57.4281,129.875 57.6313,129.875 Q57.9594,129.875 58.2094,130.1406 Q58.475,130.3906 58.475,130.7344 Q58.475,131.0781 58.1313,131.4844 Q57.6313,132.0625 56.8344,132.3906 Q55.7563,132.8438 54.4594,132.8438 Q52.9438,132.8438 51.7406,132.2188 Q50.7563,131.7188 50.0688,130.6563 Q49.3813,129.5781 49.3813,128.2969 L49.3813,127.1406 Q49.3813,125.8125 49.9906,124.6719 Q50.6156,123.5156 51.7094,122.9063 Q52.8031,122.2813 54.0375,122.2813 Q54.7719,122.2813 55.4125,122.4531 Q56.0688,122.6094 56.6156,122.9688 Z"/><text x="79.65" y="126.533" fill="#000" font-family="sans-serif" font-size="14" lengthAdjust="spacingAndGlyphs" textLength="68">DoaMouse</text><text x="73.15" y="139.99" fill="#000" font-family="sans-serif" font-size="10" lengthAdjust="spacingAndGlyphs" textLength="81">doa.engine.input</text><line style="stroke:#a80036;stroke-width:1.5" x1="16" x2="180" y1="147.188" y2="147.188"/><ellipse cx="26" cy="158.188" fill="none" rx="3" ry="3" style="stroke:#038048;stroke-width:1"/><text x="35" y="162.606" fill="#000" font-family="sans-serif" font-size="11" lengthAdjust="spacingAndGlyphs" text-decoration="underline" textLength="128">INPUT: MouseInputAdapter</text><ellipse cx="26" cy="172.023" fill="none" rx="3" ry="3" style="stroke:#038048;stroke-width:1"/><text x="35" y="176.442" fill="#000" font-family="sans-serif" font-size="11" lengthAdjust="spacingAndGlyphs" text-decoration="underline" textLength="65">MB1: boolean</text><ellipse cx="26" cy="185.859" fill="none" rx="3" ry="3" style="stroke:#038048;stroke-width:1"/><text x="35" y="190.278" fill="#000" font-family="sans-serif" font-size="11" lengthAdjust="spacingAndGlyphs" text-decoration="underline" textLength="65">MB2: boolean</text><ellipse cx="26" cy="199.695" fill="none" rx="3" ry="3" style="stroke:#038048;stroke-width:1"/><text x="35" y="204.114" fill="#000" font-family="sans-serif" font-size="11" lengthAdjust="spacingAndGlyphs" text-decoration="underline" textLength="65">MB3: boolean</text><ellipse cx="26" cy="213.531" fill="none" rx="3" ry="3" style="stroke:#038048;stroke-width:1"/><text x="35" y="217.95" fill="#000" font-family="sans-serif" font-size="11" lengthAdjust="spacingAndGlyphs" text-decoration="underline" textLength="99">MB1_HOLD: boolean</text><ellipse cx="26" cy="227.367" fill="none" rx="3" ry="3" style="stroke:#038048;stroke-width:1"/><text x="35" y="231.786" fill="#000" font-family="sans-serif" font-size="11" lengthAdjust="spacingAndGlyphs" text-decoration="underline" textLength="99">MB2_HOLD: boolean</text><ellipse cx="26" cy="241.203" fill="none" rx="3" ry="3" style="stroke:#038048;stroke-width:1"/><text x="35" y="245.622" fill="#000" font-family="sans-serif" font-size="11" lengthAdjust="spacingAndGlyphs" text-decoration="underline" textLength="99">MB3_HOLD: boolean</text><ellipse cx="26" cy="255.039" fill="none" rx="3" ry="3" style="stroke:#038048;stroke-width:1"/><text x="35" y="259.458" fill="#000" font-family="sans-serif" font-size="11" lengthAdjust="spacingAndGlyphs" text-decoration="underline" textLength="117">MB1_RELEASE: boolean</text><ellipse cx="26" cy="268.875" fill="none" rx="3" ry="3" style="stroke:#038048;stroke-width:1"/><text x="35" y="273.294" fill="#000" font-family="sans-serif" font-size="11" lengthAdjust="spacingAndGlyphs" text-decoration="underline" textLength="117">MB2_RELEASE: boolean</text><ellipse cx="26" cy="282.711" fill="none" rx="3" ry="3" style="stroke:#038048;stroke-width:1"/><text x="35" y="287.13" fill="#000" font-family="sans-serif" font-size="11" lengthAdjust="spacingAndGlyphs" text-decoration="underline" textLength="117">MB3_RELEASE: boolean</text><ellipse cx="26" cy="296.547" fill="none" rx="3" ry="3" style="stroke:#038048;stroke-width:1"/><text x="35" y="300.966" fill="#000" font-family="sans-serif" font-size="11" lengthAdjust="spacingAndGlyphs" text-decoration="underline" textLength="34">X: float</text><ellipse cx="26" cy="310.383" fill="none" rx="3" ry="3" style="stroke:#038048;stroke-width:1"/><text x="35" y="314.802" fill="#000" font-family="sans-serif" font-size="11" lengthAdjust="spacingAndGlyphs" text-decoration="underline" textLength="35">Y: float</text><ellipse cx="26" cy="324.219" fill="none" rx="3" ry="3" style="stroke:#038048;stroke-width:1"/><text x="35" y="328.638" fill="#000" font-family="sans-serif" font-size="11" lengthAdjust="spacingAndGlyphs" text-decoration="underline" textLength="62">WHEEL: float</text><line style="stroke:#a80036;stroke-width:1.5" x1="16" x2="180" y1="335.055" y2="335.055"/><ellipse cx="26" cy="346.055" fill="#84BE84" rx="3" ry="3" style="stroke:#038048;stroke-width:1"/><text x="35" y="350.474" fill="#000" font-family="sans-serif" font-size="11" lengthAdjust="spacingAndGlyphs" text-decoration="underline" textLength="50">tick(): void</text><ellipse cx="26" cy="359.891" fill="#84BE84" rx="3" ry="3" style="stroke:#038048;stroke-width:1"/><text x="35" y="364.31" fill="#000" font-family="sans-serif" font-size="11" lengthAdjust="spacingAndGlyphs" text-decoration="underline" textLength="140">clampWheel(float, float): void</text></a><rect id="javax.swing.event.MouseInputAdapter" width="157" height="40.188" x="19.5" y="7" fill="#FEFECE" codeLine="23" filter="url(#fc8e3ha2npcp1)" style="stroke:#a80036;stroke-width:1.5"/><ellipse cx="34.5" cy="27.094" fill="#A9DCDF" rx="11" ry="11" style="stroke:#a80036;stroke-width:1"/><path d="M36.6875,28.8594 L32.5469,28.8594 L32.125,29.8906 L32.5469,29.8906 Q33.1563,29.8906 33.4219,30.125 Q33.6875,30.3594 33.6875,30.75 Q33.6875,31.125 33.4219,31.3594 Q33.1563,31.5938 32.5469,31.5938 L30.25,31.5938 Q29.6406,31.5938 29.3906,31.3594 Q29.125,31.125 29.125,30.7344 Q29.125,30.3594 29.4063,30.125 Q29.6719,29.875 30.2969,29.8906 L32.9688,23.2344 L31.8594,23.2344 Q31.25,23.2344 30.9844,23 Q30.7188,22.7656 30.7188,22.375 Q30.7188,22 30.9844,21.7656 Q31.25,21.5313 31.8594,21.5313 L35.5313,21.5313 L38.9219,29.8906 Q39.5156,29.8906 39.7031,30.0313 Q40.0938,30.2969 40.0938,30.75 Q40.0938,31.125 39.8281,31.3594 Q39.5781,31.5938 38.9688,31.5938 L36.6719,31.5938 Q36.0625,31.5938 35.7969,31.3594 Q35.5313,31.125 35.5313,30.7344 Q35.5313,30.3594 35.7969,30.125 Q36.0625,29.8906 36.6719,29.8906 L37.0938,29.8906 L36.6875,28.8594 Z M35.9688,27.1563 L34.6094,23.7813 L33.2344,27.1563 L35.9688,27.1563 Z"/><text x="48.5" y="26.533" fill="#000" font-family="sans-serif" font-size="14" font-style="italic" lengthAdjust="spacingAndGlyphs" textLength="125">MouseInputAdapter</text><text x="69" y="39.99" fill="#000" font-family="sans-serif" font-size="10" font-style="italic" lengthAdjust="spacingAndGlyphs" textLength="84">javax.swing.event</text><path id="javax.swing.event.MouseInputAdapter-backto-doa.engine.input.DoaMouse" fill="none" d="M98,67.07 C98,78.86 98,92.51 98,106.85" codeLine="25" style="stroke:#a80036;stroke-width:1"/><polygon fill="none" points="91 67.01 98 47.01 105 67.01 91 67.01" style="stroke:#a80036;stroke-width:1"/><text x="0" y="394.107" fill="#888" font-family="sans-serif" font-size="10" lengthAdjust="spacingAndGlyphs" textLength="190">UMLDoclet 2.0.12, PlantUML 1.2020.16</text></g></svg>