<?xml version="1.0" encoding="UTF-8" standalone="no"?><svg xmlns="http://www.w3.org/2000/svg" xmlns:xlink="http://www.w3.org/1999/xlink" contentScriptType="application/ecmascript" contentStyleType="text/css" height="407px" preserveAspectRatio="none" style="width:202px;height:407px;" version="1.1" viewBox="0 0 202 407" width="202px" zoomAndPan="magnify"><defs><filter height="300%" id="fc8e3ha2npcp1" width="300%" x="-1" y="-1"><feGaussianBlur result="blurOut" stdDeviation="2.0"/><feColorMatrix in="blurOut" result="blurOut2" type="matrix" values="0 0 0 0 0 0 0 0 0 0 0 0 0 0 0 0 0 0 .4 0"/><feOffset dx="4.0" dy="4.0" in="blurOut2" result="blurOut3"/><feBlend in="SourceGraphic" in2="blurOut3" mode="normal"/></filter></defs><g><!--MD5=[3140ac6ae23e00df064b5f9aeb372319]
class doa.engine.input.DoaMouse--><a href="DoaMouse.html" target="_top" title="DoaMouse.html" xlink:actuate="onRequest" xlink:href="DoaMouse.html" xlink:show="new" xlink:title="DoaMouse.html" xlink:type="simple"><rect codeLine="5" fill="#FEFECE" filter="url(#fc8e3ha2npcp1)" height="263.7266" id="doa.engine.input.DoaMouse" style="stroke: #A80036; stroke-width: 1.5;" width="166" x="15" y="107"/><ellipse cx="53.85" cy="127.0938" fill="#ADD1B2" rx="11" ry="11" style="stroke: #A80036; stroke-width: 1.0;"/><path d="M56.6156,122.9688 Q56.7719,122.75 56.9594,122.6406 Q57.1469,122.5313 57.3656,122.5313 Q57.7406,122.5313 57.975,122.7969 Q58.2094,123.0469 58.2094,123.6563 L58.2094,125.1094 Q58.2094,125.7188 57.975,125.9844 Q57.7406,126.25 57.3656,126.25 Q57.0219,126.25 56.8188,126.0469 Q56.6156,125.8594 56.5063,125.3438 Q56.4594,124.9844 56.2719,124.7969 Q55.9438,124.4219 55.3344,124.2031 Q54.725,123.9844 54.1,123.9844 Q53.3344,123.9844 52.6938,124.3125 Q52.0688,124.6406 51.5688,125.3906 Q51.0844,126.1406 51.0844,127.1719 L51.0844,128.2656 Q51.0844,129.5 51.975,130.3281 Q52.8656,131.1406 54.4594,131.1406 Q55.3969,131.1406 56.0531,130.8906 Q56.4438,130.7344 56.8656,130.2969 Q57.1313,130.0313 57.2719,129.9531 Q57.4281,129.875 57.6313,129.875 Q57.9594,129.875 58.2094,130.1406 Q58.475,130.3906 58.475,130.7344 Q58.475,131.0781 58.1313,131.4844 Q57.6313,132.0625 56.8344,132.3906 Q55.7563,132.8438 54.4594,132.8438 Q52.9438,132.8438 51.7406,132.2188 Q50.7563,131.7188 50.0688,130.6563 Q49.3813,129.5781 49.3813,128.2969 L49.3813,127.1406 Q49.3813,125.8125 49.9906,124.6719 Q50.6156,123.5156 51.7094,122.9063 Q52.8031,122.2813 54.0375,122.2813 Q54.7719,122.2813 55.4125,122.4531 Q56.0688,122.6094 56.6156,122.9688 Z "/><text fill="#000000" font-family="sans-serif" font-size="14" lengthAdjust="spacingAndGlyphs" textLength="68" x="79.65" y="126.5332">DoaMouse</text><text fill="#000000" font-family="sans-serif" font-size="10" lengthAdjust="spacingAndGlyphs" textLength="81" x="73.15" y="139.9902">doa.engine.input</text><line style="stroke: #A80036; stroke-width: 1.5;" x1="16" x2="180" y1="147.1875" y2="147.1875"/><ellipse cx="26" cy="158.1875" fill="none" rx="3" ry="3" style="stroke: #038048; stroke-width: 1.0;"/><text fill="#000000" font-family="sans-serif" font-size="11" lengthAdjust="spacingAndGlyphs" text-decoration="underline" textLength="128" x="35" y="162.6064">INPUT: MouseInputAdapter</text><ellipse cx="26" cy="172.0234" fill="none" rx="3" ry="3" style="stroke: #038048; stroke-width: 1.0;"/><text fill="#000000" font-family="sans-serif" font-size="11" lengthAdjust="spacingAndGlyphs" text-decoration="underline" textLength="65" x="35" y="176.4424">MB1: boolean</text><ellipse cx="26" cy="185.8594" fill="none" rx="3" ry="3" style="stroke: #038048; stroke-width: 1.0;"/><text fill="#000000" font-family="sans-serif" font-size="11" lengthAdjust="spacingAndGlyphs" text-decoration="underline" textLength="65" x="35" y="190.2783">MB2: boolean</text><ellipse cx="26" cy="199.6953" fill="none" rx="3" ry="3" style="stroke: #038048; stroke-width: 1.0;"/><text fill="#000000" font-family="sans-serif" font-size="11" lengthAdjust="spacingAndGlyphs" text-decoration="underline" textLength="65" x="35" y="204.1143">MB3: boolean</text><ellipse cx="26" cy="213.5313" fill="none" rx="3" ry="3" style="stroke: #038048; stroke-width: 1.0;"/><text fill="#000000" font-family="sans-serif" font-size="11" lengthAdjust="spacingAndGlyphs" text-decoration="underline" textLength="99" x="35" y="217.9502">MB1_HOLD: boolean</text><ellipse cx="26" cy="227.3672" fill="none" rx="3" ry="3" style="stroke: #038048; stroke-width: 1.0;"/><text fill="#000000" font-family="sans-serif" font-size="11" lengthAdjust="spacingAndGlyphs" text-decoration="underline" textLength="99" x="35" y="231.7861">MB2_HOLD: boolean</text><ellipse cx="26" cy="241.2031" fill="none" rx="3" ry="3" style="stroke: #038048; stroke-width: 1.0;"/><text fill="#000000" font-family="sans-serif" font-size="11" lengthAdjust="spacingAndGlyphs" text-decoration="underline" textLength="99" x="35" y="245.6221">MB3_HOLD: boolean</text><ellipse cx="26" cy="255.0391" fill="none" rx="3" ry="3" style="stroke: #038048; stroke-width: 1.0;"/><text fill="#000000" font-family="sans-serif" font-size="11" lengthAdjust="spacingAndGlyphs" text-decoration="underline" textLength="117" x="35" y="259.458">MB1_RELEASE: boolean</text><ellipse cx="26" cy="268.875" fill="none" rx="3" ry="3" style="stroke: #038048; stroke-width: 1.0;"/><text fill="#000000" font-family="sans-serif" font-size="11" lengthAdjust="spacingAndGlyphs" text-decoration="underline" textLength="117" x="35" y="273.2939">MB2_RELEASE: boolean</text><ellipse cx="26" cy="282.7109" fill="none" rx="3" ry="3" style="stroke: #038048; stroke-width: 1.0;"/><text fill="#000000" font-family="sans-serif" font-size="11" lengthAdjust="spacingAndGlyphs" text-decoration="underline" textLength="117" x="35" y="287.1299">MB3_RELEASE: boolean</text><ellipse cx="26" cy="296.5469" fill="none" rx="3" ry="3" style="stroke: #038048; stroke-width: 1.0;"/><text fill="#000000" font-family="sans-serif" font-size="11" lengthAdjust="spacingAndGlyphs" text-decoration="underline" textLength="34" x="35" y="300.9658">X: float</text><ellipse cx="26" cy="310.3828" fill="none" rx="3" ry="3" style="stroke: #038048; stroke-width: 1.0;"/><text fill="#000000" font-family="sans-serif" font-size="11" lengthAdjust="spacingAndGlyphs" text-decoration="underline" textLength="35" x="35" y="314.8018">Y: float</text><ellipse cx="26" cy="324.2188" fill="none" rx="3" ry="3" style="stroke: #038048; stroke-width: 1.0;"/><text fill="#000000" font-family="sans-serif" font-size="11" lengthAdjust="spacingAndGlyphs" text-decoration="underline" textLength="62" x="35" y="328.6377">WHEEL: float</text><line style="stroke: #A80036; stroke-width: 1.5;" x1="16" x2="180" y1="335.0547" y2="335.0547"/><ellipse cx="26" cy="346.0547" fill="#84BE84" rx="3" ry="3" style="stroke: #038048; stroke-width: 1.0;"/><text fill="#000000" font-family="sans-serif" font-size="11" lengthAdjust="spacingAndGlyphs" text-decoration="underline" textLength="50" x="35" y="350.4736">tick(): void</text><ellipse cx="26" cy="359.8906" fill="#84BE84" rx="3" ry="3" style="stroke: #038048; stroke-width: 1.0;"/><text fill="#000000" font-family="sans-serif" font-size="11" lengthAdjust="spacingAndGlyphs" text-decoration="underline" textLength="140" x="35" y="364.3096">clampWheel(float, float): void</text></a><!--MD5=[0df3bf66c1ea09e113d54b885c88f11a]
class javax.swing.event.MouseInputAdapter--><rect codeLine="23" fill="#FEFECE" filter="url(#fc8e3ha2npcp1)" height="40.1875" id="javax.swing.event.MouseInputAdapter" style="stroke: #A80036; stroke-width: 1.5;" width="157" x="19.5" y="7"/><ellipse cx="34.5" cy="27.0938" fill="#A9DCDF" rx="11" ry="11" style="stroke: #A80036; stroke-width: 1.0;"/><path d="M36.6875,28.8594 L32.5469,28.8594 L32.125,29.8906 L32.5469,29.8906 Q33.1563,29.8906 33.4219,30.125 Q33.6875,30.3594 33.6875,30.75 Q33.6875,31.125 33.4219,31.3594 Q33.1563,31.5938 32.5469,31.5938 L30.25,31.5938 Q29.6406,31.5938 29.3906,31.3594 Q29.125,31.125 29.125,30.7344 Q29.125,30.3594 29.4063,30.125 Q29.6719,29.875 30.2969,29.8906 L32.9688,23.2344 L31.8594,23.2344 Q31.25,23.2344 30.9844,23 Q30.7188,22.7656 30.7188,22.375 Q30.7188,22 30.9844,21.7656 Q31.25,21.5313 31.8594,21.5313 L35.5313,21.5313 L38.9219,29.8906 Q39.5156,29.8906 39.7031,30.0313 Q40.0938,30.2969 40.0938,30.75 Q40.0938,31.125 39.8281,31.3594 Q39.5781,31.5938 38.9688,31.5938 L36.6719,31.5938 Q36.0625,31.5938 35.7969,31.3594 Q35.5313,31.125 35.5313,30.7344 Q35.5313,30.3594 35.7969,30.125 Q36.0625,29.8906 36.6719,29.8906 L37.0938,29.8906 L36.6875,28.8594 Z M35.9688,27.1563 L34.6094,23.7813 L33.2344,27.1563 L35.9688,27.1563 Z "/><text fill="#000000" font-family="sans-serif" font-size="14" font-style="italic" lengthAdjust="spacingAndGlyphs" textLength="125" x="48.5" y="26.5332">MouseInputAdapter</text><text fill="#000000" font-family="sans-serif" font-size="10" font-style="italic" lengthAdjust="spacingAndGlyphs" textLength="84" x="69" y="39.9902">javax.swing.event</text><!--MD5=[bbc91050449bea74e075d4630f8902d3]
reverse link javax.swing.event.MouseInputAdapter to doa.engine.input.DoaMouse--><path codeLine="25" d="M98,67.07 C98,78.86 98,92.51 98,106.85 " fill="none" id="javax.swing.event.MouseInputAdapter-backto-doa.engine.input.DoaMouse" style="stroke: #A80036; stroke-width: 1.0;"/><polygon fill="none" points="91,67.01,98,47.01,105,67.01,91,67.01" style="stroke: #A80036; stroke-width: 1.0;"/><text fill="#888888" font-family="sans-serif" font-size="10" lengthAdjust="spacingAndGlyphs" textLength="190" x="0" y="394.1074">UMLDoclet 2.0.12, PlantUML 1.2020.16</text><!--MD5=[34c79e13acf798213fab818904a66e36]
@startuml
    set namespaceSeparator none
    hide empty fields
    hide empty methods

    class "<size:14>DoaMouse\n<size:10>doa.engine.input" as doa.engine.input.DoaMouse [[DoaMouse.html]] {
        {static} +INPUT: MouseInputAdapter
        {static} +MB1: boolean
        {static} +MB2: boolean
        {static} +MB3: boolean
        {static} +MB1_HOLD: boolean
        {static} +MB2_HOLD: boolean
        {static} +MB3_HOLD: boolean
        {static} +MB1_RELEASE: boolean
        {static} +MB2_RELEASE: boolean
        {static} +MB3_RELEASE: boolean
        {static} +X: float
        {static} +Y: float
        {static} +WHEEL: float
        {static} +tick(): void
        {static} +clampWheel(float, float): void
    }

    abstract class "<size:14>MouseInputAdapter\n<size:10>javax.swing.event" as javax.swing.event.MouseInputAdapter

    javax.swing.event.MouseInputAdapter <|- - doa.engine.input.DoaMouse

    center footer UMLDoclet 2.0.12, PlantUML 1.2020.16
@enduml

PlantUML version 1.2020.16(Sun Aug 23 23:20:43 TRT 2020)
(APACHE source distribution)
Java Runtime: OpenJDK Runtime Environment
JVM: OpenJDK 64-Bit Server VM
Default Encoding: Cp1252
Language: en
Country: GB
--></g></svg>