<?xml version="1.0" encoding="UTF-8" standalone="no"?><svg xmlns="http://www.w3.org/2000/svg" xmlns:xlink="http://www.w3.org/1999/xlink" contentScriptType="application/ecmascript" contentStyleType="text/css" height="1490px" preserveAspectRatio="none" style="width:417px;height:1490px;" version="1.1" viewBox="0 0 417 1490" width="417px" zoomAndPan="magnify"><defs><filter height="300%" id="fpypl8bt3hh7x" width="300%" x="-1" y="-1"><feGaussianBlur result="blurOut" stdDeviation="2.0"/><feColorMatrix in="blurOut" result="blurOut2" type="matrix" values="0 0 0 0 0 0 0 0 0 0 0 0 0 0 0 0 0 0 .4 0"/><feOffset dx="4.0" dy="4.0" in="blurOut2" result="blurOut3"/><feBlend in="SourceGraphic" in2="blurOut3" mode="normal"/></filter></defs><g><!--MD5=[8347cc248e045d7cbd782837f6826e94]
cluster doa.engine.input--><polygon fill="#FFFFFF" filter="url(#fpypl8bt3hh7x)" points="16,130,141,130,148,153.6094,395,153.6094,395,1461,16,1461,16,130" style="stroke: #000000; stroke-width: 1.5;"/><line style="stroke: #000000; stroke-width: 1.5;" x1="16" x2="148" y1="153.6094" y2="153.6094"/><text fill="#000000" font-family="sans-serif" font-size="14" font-weight="bold" lengthAdjust="spacingAndGlyphs" textLength="119" x="20" y="146.5332">doa.engine.input</text><!--MD5=[a77ce62c8c742147d9013f50f761222f]
cluster javax.swing.event--><polygon fill="#FFFFFF" filter="url(#fpypl8bt3hh7x)" points="29,6,162,6,169,29.6094,201,29.6094,201,106,29,106,29,6" style="stroke: #000000; stroke-width: 1.5;"/><line style="stroke: #000000; stroke-width: 1.5;" x1="29" x2="169" y1="29.6094" y2="29.6094"/><text fill="#000000" font-family="sans-serif" font-size="14" font-weight="bold" lengthAdjust="spacingAndGlyphs" textLength="127" x="33" y="22.5332">javax.swing.event</text><!--MD5=[7ff10973ae412cac375ec4ad79dad3b7]
class doa.engine.input.DoaKeyboard--><a href="DoaKeyboard.html" target="_top" title="DoaKeyboard.html" xlink:actuate="onRequest" xlink:href="DoaKeyboard.html" xlink:show="new" xlink:title="DoaKeyboard.html" xlink:type="simple"><rect codeLine="3" fill="#FEFECE" filter="url(#fpypl8bt3hh7x)" height="1279.3984" id="doa.engine.input.DoaKeyboard" style="stroke: #A80036; stroke-width: 1.5;" width="145" x="233.5" y="166"/><ellipse cx="265.6" cy="182" fill="#ADD1B2" rx="11" ry="11" style="stroke: #A80036; stroke-width: 1.0;"/><path d="M268.3656,177.875 Q268.5219,177.6563 268.7094,177.5469 Q268.8969,177.4375 269.1156,177.4375 Q269.4906,177.4375 269.725,177.7031 Q269.9594,177.9531 269.9594,178.5625 L269.9594,180.0156 Q269.9594,180.625 269.725,180.8906 Q269.4906,181.1563 269.1156,181.1563 Q268.7719,181.1563 268.5688,180.9531 Q268.3656,180.7656 268.2563,180.25 Q268.2094,179.8906 268.0219,179.7031 Q267.6938,179.3281 267.0844,179.1094 Q266.475,178.8906 265.85,178.8906 Q265.0844,178.8906 264.4438,179.2188 Q263.8188,179.5469 263.3188,180.2969 Q262.8344,181.0469 262.8344,182.0781 L262.8344,183.1719 Q262.8344,184.4063 263.725,185.2344 Q264.6156,186.0469 266.2094,186.0469 Q267.1469,186.0469 267.8031,185.7969 Q268.1938,185.6406 268.6156,185.2031 Q268.8813,184.9375 269.0219,184.8594 Q269.1781,184.7813 269.3813,184.7813 Q269.7094,184.7813 269.9594,185.0469 Q270.225,185.2969 270.225,185.6406 Q270.225,185.9844 269.8813,186.3906 Q269.3813,186.9688 268.5844,187.2969 Q267.5063,187.75 266.2094,187.75 Q264.6938,187.75 263.4906,187.125 Q262.5063,186.625 261.8188,185.5625 Q261.1313,184.4844 261.1313,183.2031 L261.1313,182.0469 Q261.1313,180.7188 261.7406,179.5781 Q262.3656,178.4219 263.4594,177.8125 Q264.5531,177.1875 265.7875,177.1875 Q266.5219,177.1875 267.1625,177.3594 Q267.8188,177.5156 268.3656,177.875 Z "/><text fill="#000000" font-family="sans-serif" font-size="12" lengthAdjust="spacingAndGlyphs" textLength="75" x="283.4" y="186.9102">DoaKeyboard</text><line style="stroke: #A80036; stroke-width: 1.5;" x1="234.5" x2="377.5" y1="198" y2="198"/><ellipse cx="244.5" cy="209" fill="none" rx="3" ry="3" style="stroke: #038048; stroke-width: 1.0;"/><text fill="#000000" font-family="sans-serif" font-size="11" lengthAdjust="spacingAndGlyphs" text-decoration="underline" textLength="92" x="253.5" y="213.4189">INPUT: KeyAdapter</text><ellipse cx="244.5" cy="222.8359" fill="none" rx="3" ry="3" style="stroke: #038048; stroke-width: 1.0;"/><text fill="#000000" font-family="sans-serif" font-size="11" lengthAdjust="spacingAndGlyphs" text-decoration="underline" textLength="84" x="253.5" y="227.2549">ESCAPE: boolean</text><ellipse cx="244.5" cy="236.6719" fill="none" rx="3" ry="3" style="stroke: #038048; stroke-width: 1.0;"/><text fill="#000000" font-family="sans-serif" font-size="11" lengthAdjust="spacingAndGlyphs" text-decoration="underline" textLength="56" x="253.5" y="241.0908">F1: boolean</text><ellipse cx="244.5" cy="250.5078" fill="none" rx="3" ry="3" style="stroke: #038048; stroke-width: 1.0;"/><text fill="#000000" font-family="sans-serif" font-size="11" lengthAdjust="spacingAndGlyphs" text-decoration="underline" textLength="56" x="253.5" y="254.9268">F2: boolean</text><ellipse cx="244.5" cy="264.3438" fill="none" rx="3" ry="3" style="stroke: #038048; stroke-width: 1.0;"/><text fill="#000000" font-family="sans-serif" font-size="11" lengthAdjust="spacingAndGlyphs" text-decoration="underline" textLength="56" x="253.5" y="268.7627">F3: boolean</text><ellipse cx="244.5" cy="278.1797" fill="none" rx="3" ry="3" style="stroke: #038048; stroke-width: 1.0;"/><text fill="#000000" font-family="sans-serif" font-size="11" lengthAdjust="spacingAndGlyphs" text-decoration="underline" textLength="56" x="253.5" y="282.5986">F4: boolean</text><ellipse cx="244.5" cy="292.0156" fill="none" rx="3" ry="3" style="stroke: #038048; stroke-width: 1.0;"/><text fill="#000000" font-family="sans-serif" font-size="11" lengthAdjust="spacingAndGlyphs" text-decoration="underline" textLength="56" x="253.5" y="296.4346">F5: boolean</text><ellipse cx="244.5" cy="305.8516" fill="none" rx="3" ry="3" style="stroke: #038048; stroke-width: 1.0;"/><text fill="#000000" font-family="sans-serif" font-size="11" lengthAdjust="spacingAndGlyphs" text-decoration="underline" textLength="56" x="253.5" y="310.2705">F6: boolean</text><ellipse cx="244.5" cy="319.6875" fill="none" rx="3" ry="3" style="stroke: #038048; stroke-width: 1.0;"/><text fill="#000000" font-family="sans-serif" font-size="11" lengthAdjust="spacingAndGlyphs" text-decoration="underline" textLength="56" x="253.5" y="324.1064">F7: boolean</text><ellipse cx="244.5" cy="333.5234" fill="none" rx="3" ry="3" style="stroke: #038048; stroke-width: 1.0;"/><text fill="#000000" font-family="sans-serif" font-size="11" lengthAdjust="spacingAndGlyphs" text-decoration="underline" textLength="56" x="253.5" y="337.9424">F8: boolean</text><ellipse cx="244.5" cy="347.3594" fill="none" rx="3" ry="3" style="stroke: #038048; stroke-width: 1.0;"/><text fill="#000000" font-family="sans-serif" font-size="11" lengthAdjust="spacingAndGlyphs" text-decoration="underline" textLength="56" x="253.5" y="351.7783">F9: boolean</text><ellipse cx="244.5" cy="361.1953" fill="none" rx="3" ry="3" style="stroke: #038048; stroke-width: 1.0;"/><text fill="#000000" font-family="sans-serif" font-size="11" lengthAdjust="spacingAndGlyphs" text-decoration="underline" textLength="62" x="253.5" y="365.6143">F10: boolean</text><ellipse cx="244.5" cy="375.0313" fill="none" rx="3" ry="3" style="stroke: #038048; stroke-width: 1.0;"/><text fill="#000000" font-family="sans-serif" font-size="11" lengthAdjust="spacingAndGlyphs" text-decoration="underline" textLength="62" x="253.5" y="379.4502">F11: boolean</text><ellipse cx="244.5" cy="388.8672" fill="none" rx="3" ry="3" style="stroke: #038048; stroke-width: 1.0;"/><text fill="#000000" font-family="sans-serif" font-size="11" lengthAdjust="spacingAndGlyphs" text-decoration="underline" textLength="62" x="253.5" y="393.2861">F12: boolean</text><ellipse cx="244.5" cy="402.7031" fill="none" rx="3" ry="3" style="stroke: #038048; stroke-width: 1.0;"/><text fill="#000000" font-family="sans-serif" font-size="11" lengthAdjust="spacingAndGlyphs" text-decoration="underline" textLength="118" x="253.5" y="407.1221">PRINT_SCREEN: boolean</text><ellipse cx="244.5" cy="416.5391" fill="none" rx="3" ry="3" style="stroke: #038048; stroke-width: 1.0;"/><text fill="#000000" font-family="sans-serif" font-size="11" lengthAdjust="spacingAndGlyphs" text-decoration="underline" textLength="119" x="253.5" y="420.958">SCROLL_LOCK: boolean</text><ellipse cx="244.5" cy="430.375" fill="none" rx="3" ry="3" style="stroke: #038048; stroke-width: 1.0;"/><text fill="#000000" font-family="sans-serif" font-size="11" lengthAdjust="spacingAndGlyphs" text-decoration="underline" textLength="119" x="253.5" y="434.7939">PAUSE_BREAK: boolean</text><ellipse cx="244.5" cy="444.2109" fill="none" rx="3" ry="3" style="stroke: #038048; stroke-width: 1.0;"/><text fill="#000000" font-family="sans-serif" font-size="11" lengthAdjust="spacingAndGlyphs" text-decoration="underline" textLength="71" x="253.5" y="448.6299">TILDE: boolean</text><ellipse cx="244.5" cy="458.0469" fill="none" rx="3" ry="3" style="stroke: #038048; stroke-width: 1.0;"/><text fill="#000000" font-family="sans-serif" font-size="11" lengthAdjust="spacingAndGlyphs" text-decoration="underline" textLength="72" x="253.5" y="462.4658">ZERO: boolean</text><ellipse cx="244.5" cy="471.8828" fill="none" rx="3" ry="3" style="stroke: #038048; stroke-width: 1.0;"/><text fill="#000000" font-family="sans-serif" font-size="11" lengthAdjust="spacingAndGlyphs" text-decoration="underline" textLength="65" x="253.5" y="476.3018">ONE: boolean</text><ellipse cx="244.5" cy="485.7188" fill="none" rx="3" ry="3" style="stroke: #038048; stroke-width: 1.0;"/><text fill="#000000" font-family="sans-serif" font-size="11" lengthAdjust="spacingAndGlyphs" text-decoration="underline" textLength="68" x="253.5" y="490.1377">TWO: boolean</text><ellipse cx="244.5" cy="499.5547" fill="none" rx="3" ry="3" style="stroke: #038048; stroke-width: 1.0;"/><text fill="#000000" font-family="sans-serif" font-size="11" lengthAdjust="spacingAndGlyphs" text-decoration="underline" textLength="76" x="253.5" y="503.9736">THREE: boolean</text><ellipse cx="244.5" cy="513.3906" fill="none" rx="3" ry="3" style="stroke: #038048; stroke-width: 1.0;"/><text fill="#000000" font-family="sans-serif" font-size="11" lengthAdjust="spacingAndGlyphs" text-decoration="underline" textLength="72" x="253.5" y="517.8096">FOUR: boolean</text><ellipse cx="244.5" cy="527.2266" fill="none" rx="3" ry="3" style="stroke: #038048; stroke-width: 1.0;"/><text fill="#000000" font-family="sans-serif" font-size="11" lengthAdjust="spacingAndGlyphs" text-decoration="underline" textLength="66" x="253.5" y="531.6455">FIVE: boolean</text><ellipse cx="244.5" cy="541.0625" fill="none" rx="3" ry="3" style="stroke: #038048; stroke-width: 1.0;"/><text fill="#000000" font-family="sans-serif" font-size="11" lengthAdjust="spacingAndGlyphs" text-decoration="underline" textLength="60" x="253.5" y="545.4814">SIX: boolean</text><ellipse cx="244.5" cy="554.8984" fill="none" rx="3" ry="3" style="stroke: #038048; stroke-width: 1.0;"/><text fill="#000000" font-family="sans-serif" font-size="11" lengthAdjust="spacingAndGlyphs" text-decoration="underline" textLength="78" x="253.5" y="559.3174">SEVEN: boolean</text><ellipse cx="244.5" cy="568.7344" fill="none" rx="3" ry="3" style="stroke: #038048; stroke-width: 1.0;"/><text fill="#000000" font-family="sans-serif" font-size="11" lengthAdjust="spacingAndGlyphs" text-decoration="underline" textLength="73" x="253.5" y="573.1533">EIGHT: boolean</text><ellipse cx="244.5" cy="582.5703" fill="none" rx="3" ry="3" style="stroke: #038048; stroke-width: 1.0;"/><text fill="#000000" font-family="sans-serif" font-size="11" lengthAdjust="spacingAndGlyphs" text-decoration="underline" textLength="66" x="253.5" y="586.9893">NINE: boolean</text><ellipse cx="244.5" cy="596.4063" fill="none" rx="3" ry="3" style="stroke: #038048; stroke-width: 1.0;"/><text fill="#000000" font-family="sans-serif" font-size="11" lengthAdjust="spacingAndGlyphs" text-decoration="underline" textLength="113" x="253.5" y="600.8252">BACK_SPACE: boolean</text><ellipse cx="244.5" cy="610.2422" fill="none" rx="3" ry="3" style="stroke: #038048; stroke-width: 1.0;"/><text fill="#000000" font-family="sans-serif" font-size="11" lengthAdjust="spacingAndGlyphs" text-decoration="underline" textLength="79" x="253.5" y="614.6611">INSERT: boolean</text><ellipse cx="244.5" cy="624.0781" fill="none" rx="3" ry="3" style="stroke: #038048; stroke-width: 1.0;"/><text fill="#000000" font-family="sans-serif" font-size="11" lengthAdjust="spacingAndGlyphs" text-decoration="underline" textLength="81" x="253.5" y="628.4971">DELETE: boolean</text><ellipse cx="244.5" cy="637.9141" fill="none" rx="3" ry="3" style="stroke: #038048; stroke-width: 1.0;"/><text fill="#000000" font-family="sans-serif" font-size="11" lengthAdjust="spacingAndGlyphs" text-decoration="underline" textLength="73" x="253.5" y="642.333">HOME: boolean</text><ellipse cx="244.5" cy="651.75" fill="none" rx="3" ry="3" style="stroke: #038048; stroke-width: 1.0;"/><text fill="#000000" font-family="sans-serif" font-size="11" lengthAdjust="spacingAndGlyphs" text-decoration="underline" textLength="64" x="253.5" y="656.1689">END: boolean</text><ellipse cx="244.5" cy="665.5859" fill="none" rx="3" ry="3" style="stroke: #038048; stroke-width: 1.0;"/><text fill="#000000" font-family="sans-serif" font-size="11" lengthAdjust="spacingAndGlyphs" text-decoration="underline" textLength="91" x="253.5" y="670.0049">PAGE_UP: boolean</text><ellipse cx="244.5" cy="679.4219" fill="none" rx="3" ry="3" style="stroke: #038048; stroke-width: 1.0;"/><text fill="#000000" font-family="sans-serif" font-size="11" lengthAdjust="spacingAndGlyphs" text-decoration="underline" textLength="110" x="253.5" y="683.8408">PAGE_DOWN: boolean</text><ellipse cx="244.5" cy="693.2578" fill="none" rx="3" ry="3" style="stroke: #038048; stroke-width: 1.0;"/><text fill="#000000" font-family="sans-serif" font-size="11" lengthAdjust="spacingAndGlyphs" text-decoration="underline" textLength="52" x="253.5" y="697.6768">A: boolean</text><ellipse cx="244.5" cy="707.0938" fill="none" rx="3" ry="3" style="stroke: #038048; stroke-width: 1.0;"/><text fill="#000000" font-family="sans-serif" font-size="11" lengthAdjust="spacingAndGlyphs" text-decoration="underline" textLength="51" x="253.5" y="711.5127">B: boolean</text><ellipse cx="244.5" cy="720.9297" fill="none" rx="3" ry="3" style="stroke: #038048; stroke-width: 1.0;"/><text fill="#000000" font-family="sans-serif" font-size="11" lengthAdjust="spacingAndGlyphs" text-decoration="underline" textLength="51" x="253.5" y="725.3486">C: boolean</text><ellipse cx="244.5" cy="734.7656" fill="none" rx="3" ry="3" style="stroke: #038048; stroke-width: 1.0;"/><text fill="#000000" font-family="sans-serif" font-size="11" lengthAdjust="spacingAndGlyphs" text-decoration="underline" textLength="51" x="253.5" y="739.1846">D: boolean</text><ellipse cx="244.5" cy="748.6016" fill="none" rx="3" ry="3" style="stroke: #038048; stroke-width: 1.0;"/><text fill="#000000" font-family="sans-serif" font-size="11" lengthAdjust="spacingAndGlyphs" text-decoration="underline" textLength="50" x="253.5" y="753.0205">E: boolean</text><ellipse cx="244.5" cy="762.4375" fill="none" rx="3" ry="3" style="stroke: #038048; stroke-width: 1.0;"/><text fill="#000000" font-family="sans-serif" font-size="11" lengthAdjust="spacingAndGlyphs" text-decoration="underline" textLength="50" x="253.5" y="766.8564">F: boolean</text><ellipse cx="244.5" cy="776.2734" fill="none" rx="3" ry="3" style="stroke: #038048; stroke-width: 1.0;"/><text fill="#000000" font-family="sans-serif" font-size="11" lengthAdjust="spacingAndGlyphs" text-decoration="underline" textLength="52" x="253.5" y="780.6924">G: boolean</text><ellipse cx="244.5" cy="790.1094" fill="none" rx="3" ry="3" style="stroke: #038048; stroke-width: 1.0;"/><text fill="#000000" font-family="sans-serif" font-size="11" lengthAdjust="spacingAndGlyphs" text-decoration="underline" textLength="51" x="253.5" y="794.5283">H: boolean</text><ellipse cx="244.5" cy="803.9453" fill="none" rx="3" ry="3" style="stroke: #038048; stroke-width: 1.0;"/><text fill="#000000" font-family="sans-serif" font-size="11" lengthAdjust="spacingAndGlyphs" text-decoration="underline" textLength="46" x="253.5" y="808.3643">I: boolean</text><ellipse cx="244.5" cy="817.7813" fill="none" rx="3" ry="3" style="stroke: #038048; stroke-width: 1.0;"/><text fill="#000000" font-family="sans-serif" font-size="11" lengthAdjust="spacingAndGlyphs" text-decoration="underline" textLength="49" x="253.5" y="822.2002">J: boolean</text><ellipse cx="244.5" cy="831.6172" fill="none" rx="3" ry="3" style="stroke: #038048; stroke-width: 1.0;"/><text fill="#000000" font-family="sans-serif" font-size="11" lengthAdjust="spacingAndGlyphs" text-decoration="underline" textLength="51" x="253.5" y="836.0361">K: boolean</text><ellipse cx="244.5" cy="845.4531" fill="none" rx="3" ry="3" style="stroke: #038048; stroke-width: 1.0;"/><text fill="#000000" font-family="sans-serif" font-size="11" lengthAdjust="spacingAndGlyphs" text-decoration="underline" textLength="50" x="253.5" y="849.8721">L: boolean</text><ellipse cx="244.5" cy="859.2891" fill="none" rx="3" ry="3" style="stroke: #038048; stroke-width: 1.0;"/><text fill="#000000" font-family="sans-serif" font-size="11" lengthAdjust="spacingAndGlyphs" text-decoration="underline" textLength="52" x="253.5" y="863.708">M: boolean</text><ellipse cx="244.5" cy="873.125" fill="none" rx="3" ry="3" style="stroke: #038048; stroke-width: 1.0;"/><text fill="#000000" font-family="sans-serif" font-size="11" lengthAdjust="spacingAndGlyphs" text-decoration="underline" textLength="51" x="253.5" y="877.5439">N: boolean</text><ellipse cx="244.5" cy="886.9609" fill="none" rx="3" ry="3" style="stroke: #038048; stroke-width: 1.0;"/><text fill="#000000" font-family="sans-serif" font-size="11" lengthAdjust="spacingAndGlyphs" text-decoration="underline" textLength="52" x="253.5" y="891.3799">O: boolean</text><ellipse cx="244.5" cy="900.7969" fill="none" rx="3" ry="3" style="stroke: #038048; stroke-width: 1.0;"/><text fill="#000000" font-family="sans-serif" font-size="11" lengthAdjust="spacingAndGlyphs" text-decoration="underline" textLength="50" x="253.5" y="905.2158">P: boolean</text><ellipse cx="244.5" cy="914.6328" fill="none" rx="3" ry="3" style="stroke: #038048; stroke-width: 1.0;"/><text fill="#000000" font-family="sans-serif" font-size="11" lengthAdjust="spacingAndGlyphs" text-decoration="underline" textLength="52" x="253.5" y="919.0518">Q: boolean</text><ellipse cx="244.5" cy="928.4688" fill="none" rx="3" ry="3" style="stroke: #038048; stroke-width: 1.0;"/><text fill="#000000" font-family="sans-serif" font-size="11" lengthAdjust="spacingAndGlyphs" text-decoration="underline" textLength="51" x="253.5" y="932.8877">R: boolean</text><ellipse cx="244.5" cy="942.3047" fill="none" rx="3" ry="3" style="stroke: #038048; stroke-width: 1.0;"/><text fill="#000000" font-family="sans-serif" font-size="11" lengthAdjust="spacingAndGlyphs" text-decoration="underline" textLength="51" x="253.5" y="946.7236">S: boolean</text><ellipse cx="244.5" cy="956.1406" fill="none" rx="3" ry="3" style="stroke: #038048; stroke-width: 1.0;"/><text fill="#000000" font-family="sans-serif" font-size="11" lengthAdjust="spacingAndGlyphs" text-decoration="underline" textLength="50" x="253.5" y="960.5596">T: boolean</text><ellipse cx="244.5" cy="969.9766" fill="none" rx="3" ry="3" style="stroke: #038048; stroke-width: 1.0;"/><text fill="#000000" font-family="sans-serif" font-size="11" lengthAdjust="spacingAndGlyphs" text-decoration="underline" textLength="51" x="253.5" y="974.3955">U: boolean</text><ellipse cx="244.5" cy="983.8125" fill="none" rx="3" ry="3" style="stroke: #038048; stroke-width: 1.0;"/><text fill="#000000" font-family="sans-serif" font-size="11" lengthAdjust="spacingAndGlyphs" text-decoration="underline" textLength="52" x="253.5" y="988.2314">V: boolean</text><ellipse cx="244.5" cy="997.6484" fill="none" rx="3" ry="3" style="stroke: #038048; stroke-width: 1.0;"/><text fill="#000000" font-family="sans-serif" font-size="11" lengthAdjust="spacingAndGlyphs" text-decoration="underline" textLength="54" x="253.5" y="1002.0674">W: boolean</text><ellipse cx="244.5" cy="1011.4844" fill="none" rx="3" ry="3" style="stroke: #038048; stroke-width: 1.0;"/><text fill="#000000" font-family="sans-serif" font-size="11" lengthAdjust="spacingAndGlyphs" text-decoration="underline" textLength="51" x="253.5" y="1015.9033">X: boolean</text><ellipse cx="244.5" cy="1025.3203" fill="none" rx="3" ry="3" style="stroke: #038048; stroke-width: 1.0;"/><text fill="#000000" font-family="sans-serif" font-size="11" lengthAdjust="spacingAndGlyphs" text-decoration="underline" textLength="52" x="253.5" y="1029.7393">Y: boolean</text><ellipse cx="244.5" cy="1039.1563" fill="none" rx="3" ry="3" style="stroke: #038048; stroke-width: 1.0;"/><text fill="#000000" font-family="sans-serif" font-size="11" lengthAdjust="spacingAndGlyphs" text-decoration="underline" textLength="51" x="253.5" y="1043.5752">Z: boolean</text><ellipse cx="244.5" cy="1052.9922" fill="none" rx="3" ry="3" style="stroke: #038048; stroke-width: 1.0;"/><text fill="#000000" font-family="sans-serif" font-size="11" lengthAdjust="spacingAndGlyphs" text-decoration="underline" textLength="65" x="253.5" y="1057.4111">TAB: boolean</text><ellipse cx="244.5" cy="1066.8281" fill="none" rx="3" ry="3" style="stroke: #038048; stroke-width: 1.0;"/><text fill="#000000" font-family="sans-serif" font-size="11" lengthAdjust="spacingAndGlyphs" text-decoration="underline" textLength="106" x="253.5" y="1071.2471">CAPS_LOCK: boolean</text><ellipse cx="244.5" cy="1080.6641" fill="none" rx="3" ry="3" style="stroke: #038048; stroke-width: 1.0;"/><text fill="#000000" font-family="sans-serif" font-size="11" lengthAdjust="spacingAndGlyphs" text-decoration="underline" textLength="72" x="253.5" y="1085.083">SHIFT: boolean</text><ellipse cx="244.5" cy="1094.5" fill="none" rx="3" ry="3" style="stroke: #038048; stroke-width: 1.0;"/><text fill="#000000" font-family="sans-serif" font-size="11" lengthAdjust="spacingAndGlyphs" text-decoration="underline" textLength="70" x="253.5" y="1098.9189">CTRL: boolean</text><ellipse cx="244.5" cy="1108.3359" fill="none" rx="3" ry="3" style="stroke: #038048; stroke-width: 1.0;"/><text fill="#000000" font-family="sans-serif" font-size="11" lengthAdjust="spacingAndGlyphs" text-decoration="underline" textLength="95" x="253.5" y="1112.7549">WINDOWS: boolean</text><ellipse cx="244.5" cy="1122.1719" fill="none" rx="3" ry="3" style="stroke: #038048; stroke-width: 1.0;"/><text fill="#000000" font-family="sans-serif" font-size="11" lengthAdjust="spacingAndGlyphs" text-decoration="underline" textLength="64" x="253.5" y="1126.5908">ALT: boolean</text><ellipse cx="244.5" cy="1136.0078" fill="none" rx="3" ry="3" style="stroke: #038048; stroke-width: 1.0;"/><text fill="#000000" font-family="sans-serif" font-size="11" lengthAdjust="spacingAndGlyphs" text-decoration="underline" textLength="78" x="253.5" y="1140.4268">NUM_1: boolean</text><ellipse cx="244.5" cy="1149.8438" fill="none" rx="3" ry="3" style="stroke: #038048; stroke-width: 1.0;"/><text fill="#000000" font-family="sans-serif" font-size="11" lengthAdjust="spacingAndGlyphs" text-decoration="underline" textLength="78" x="253.5" y="1154.2627">NUM_2: boolean</text><ellipse cx="244.5" cy="1163.6797" fill="none" rx="3" ry="3" style="stroke: #038048; stroke-width: 1.0;"/><text fill="#000000" font-family="sans-serif" font-size="11" lengthAdjust="spacingAndGlyphs" text-decoration="underline" textLength="78" x="253.5" y="1168.0986">NUM_3: boolean</text><ellipse cx="244.5" cy="1177.5156" fill="none" rx="3" ry="3" style="stroke: #038048; stroke-width: 1.0;"/><text fill="#000000" font-family="sans-serif" font-size="11" lengthAdjust="spacingAndGlyphs" text-decoration="underline" textLength="78" x="253.5" y="1181.9346">NUM_4: boolean</text><ellipse cx="244.5" cy="1191.3516" fill="none" rx="3" ry="3" style="stroke: #038048; stroke-width: 1.0;"/><text fill="#000000" font-family="sans-serif" font-size="11" lengthAdjust="spacingAndGlyphs" text-decoration="underline" textLength="78" x="253.5" y="1195.7705">NUM_5: boolean</text><ellipse cx="244.5" cy="1205.1875" fill="none" rx="3" ry="3" style="stroke: #038048; stroke-width: 1.0;"/><text fill="#000000" font-family="sans-serif" font-size="11" lengthAdjust="spacingAndGlyphs" text-decoration="underline" textLength="78" x="253.5" y="1209.6064">NUM_6: boolean</text><ellipse cx="244.5" cy="1219.0234" fill="none" rx="3" ry="3" style="stroke: #038048; stroke-width: 1.0;"/><text fill="#000000" font-family="sans-serif" font-size="11" lengthAdjust="spacingAndGlyphs" text-decoration="underline" textLength="78" x="253.5" y="1223.4424">NUM_7: boolean</text><ellipse cx="244.5" cy="1232.8594" fill="none" rx="3" ry="3" style="stroke: #038048; stroke-width: 1.0;"/><text fill="#000000" font-family="sans-serif" font-size="11" lengthAdjust="spacingAndGlyphs" text-decoration="underline" textLength="78" x="253.5" y="1237.2783">NUM_8: boolean</text><ellipse cx="244.5" cy="1246.6953" fill="none" rx="3" ry="3" style="stroke: #038048; stroke-width: 1.0;"/><text fill="#000000" font-family="sans-serif" font-size="11" lengthAdjust="spacingAndGlyphs" text-decoration="underline" textLength="78" x="253.5" y="1251.1143">NUM_9: boolean</text><ellipse cx="244.5" cy="1260.5313" fill="none" rx="3" ry="3" style="stroke: #038048; stroke-width: 1.0;"/><text fill="#000000" font-family="sans-serif" font-size="11" lengthAdjust="spacingAndGlyphs" text-decoration="underline" textLength="78" x="253.5" y="1264.9502">NUM_0: boolean</text><ellipse cx="244.5" cy="1274.3672" fill="none" rx="3" ry="3" style="stroke: #038048; stroke-width: 1.0;"/><text fill="#000000" font-family="sans-serif" font-size="11" lengthAdjust="spacingAndGlyphs" text-decoration="underline" textLength="63" x="253.5" y="1278.7861">DEL: boolean</text><ellipse cx="244.5" cy="1288.2031" fill="none" rx="3" ry="3" style="stroke: #038048; stroke-width: 1.0;"/><text fill="#000000" font-family="sans-serif" font-size="11" lengthAdjust="spacingAndGlyphs" text-decoration="underline" textLength="76" x="253.5" y="1292.6221">ENTER: boolean</text><ellipse cx="244.5" cy="1302.0391" fill="none" rx="3" ry="3" style="stroke: #038048; stroke-width: 1.0;"/><text fill="#000000" font-family="sans-serif" font-size="11" lengthAdjust="spacingAndGlyphs" text-decoration="underline" textLength="78" x="253.5" y="1306.458">SPACE: boolean</text><ellipse cx="244.5" cy="1315.875" fill="none" rx="3" ry="3" style="stroke: #038048; stroke-width: 1.0;"/><text fill="#000000" font-family="sans-serif" font-size="11" lengthAdjust="spacingAndGlyphs" text-decoration="underline" textLength="79" x="253.5" y="1320.2939">SLASH: boolean</text><ellipse cx="244.5" cy="1329.7109" fill="none" rx="3" ry="3" style="stroke: #038048; stroke-width: 1.0;"/><text fill="#000000" font-family="sans-serif" font-size="11" lengthAdjust="spacingAndGlyphs" text-decoration="underline" textLength="72" x="253.5" y="1334.1299">STAR: boolean</text><ellipse cx="244.5" cy="1343.5469" fill="none" rx="3" ry="3" style="stroke: #038048; stroke-width: 1.0;"/><text fill="#000000" font-family="sans-serif" font-size="11" lengthAdjust="spacingAndGlyphs" text-decoration="underline" textLength="73" x="253.5" y="1347.9658">DASH: boolean</text><ellipse cx="244.5" cy="1357.3828" fill="none" rx="3" ry="3" style="stroke: #038048; stroke-width: 1.0;"/><text fill="#000000" font-family="sans-serif" font-size="11" lengthAdjust="spacingAndGlyphs" text-decoration="underline" textLength="70" x="253.5" y="1361.8018">PLUS: boolean</text><ellipse cx="244.5" cy="1371.2188" fill="none" rx="3" ry="3" style="stroke: #038048; stroke-width: 1.0;"/><text fill="#000000" font-family="sans-serif" font-size="11" lengthAdjust="spacingAndGlyphs" text-decoration="underline" textLength="84" x="253.5" y="1375.6377">KEY_UP: boolean</text><ellipse cx="244.5" cy="1385.0547" fill="none" rx="3" ry="3" style="stroke: #038048; stroke-width: 1.0;"/><text fill="#000000" font-family="sans-serif" font-size="11" lengthAdjust="spacingAndGlyphs" text-decoration="underline" textLength="103" x="253.5" y="1389.4736">KEY_DOWN: boolean</text><ellipse cx="244.5" cy="1398.8906" fill="none" rx="3" ry="3" style="stroke: #038048; stroke-width: 1.0;"/><text fill="#000000" font-family="sans-serif" font-size="11" lengthAdjust="spacingAndGlyphs" text-decoration="underline" textLength="101" x="253.5" y="1403.3096">KEY_RIGHT: boolean</text><ellipse cx="244.5" cy="1412.7266" fill="none" rx="3" ry="3" style="stroke: #038048; stroke-width: 1.0;"/><text fill="#000000" font-family="sans-serif" font-size="11" lengthAdjust="spacingAndGlyphs" text-decoration="underline" textLength="95" x="253.5" y="1417.1455">KEY_LEFT: boolean</text><line style="stroke: #A80036; stroke-width: 1.5;" x1="234.5" x2="377.5" y1="1423.5625" y2="1423.5625"/><ellipse cx="244.5" cy="1434.5625" fill="#84BE84" rx="3" ry="3" style="stroke: #038048; stroke-width: 1.0;"/><text fill="#000000" font-family="sans-serif" font-size="11" lengthAdjust="spacingAndGlyphs" text-decoration="underline" textLength="50" x="253.5" y="1438.9814">tick(): void</text></a><!--MD5=[3140ac6ae23e00df064b5f9aeb372319]
class doa.engine.input.DoaMouse--><a href="DoaMouse.html" target="_top" title="DoaMouse.html" xlink:actuate="onRequest" xlink:href="DoaMouse.html" xlink:show="new" xlink:title="DoaMouse.html" xlink:type="simple"><rect codeLine="95" fill="#FEFECE" filter="url(#fpypl8bt3hh7x)" height="255.5391" id="doa.engine.input.DoaMouse" style="stroke: #A80036; stroke-width: 1.5;" width="166" x="32" y="677.5"/><ellipse cx="80.75" cy="693.5" fill="#ADD1B2" rx="11" ry="11" style="stroke: #A80036; stroke-width: 1.0;"/><path d="M83.5156,689.375 Q83.6719,689.1563 83.8594,689.0469 Q84.0469,688.9375 84.2656,688.9375 Q84.6406,688.9375 84.875,689.2031 Q85.1094,689.4531 85.1094,690.0625 L85.1094,691.5156 Q85.1094,692.125 84.875,692.3906 Q84.6406,692.6563 84.2656,692.6563 Q83.9219,692.6563 83.7188,692.4531 Q83.5156,692.2656 83.4063,691.75 Q83.3594,691.3906 83.1719,691.2031 Q82.8438,690.8281 82.2344,690.6094 Q81.625,690.3906 81,690.3906 Q80.2344,690.3906 79.5938,690.7188 Q78.9688,691.0469 78.4688,691.7969 Q77.9844,692.5469 77.9844,693.5781 L77.9844,694.6719 Q77.9844,695.9063 78.875,696.7344 Q79.7656,697.5469 81.3594,697.5469 Q82.2969,697.5469 82.9531,697.2969 Q83.3438,697.1406 83.7656,696.7031 Q84.0313,696.4375 84.1719,696.3594 Q84.3281,696.2813 84.5313,696.2813 Q84.8594,696.2813 85.1094,696.5469 Q85.375,696.7969 85.375,697.1406 Q85.375,697.4844 85.0313,697.8906 Q84.5313,698.4688 83.7344,698.7969 Q82.6563,699.25 81.3594,699.25 Q79.8438,699.25 78.6406,698.625 Q77.6563,698.125 76.9688,697.0625 Q76.2813,695.9844 76.2813,694.7031 L76.2813,693.5469 Q76.2813,692.2188 76.8906,691.0781 Q77.5156,689.9219 78.6094,689.3125 Q79.7031,688.6875 80.9375,688.6875 Q81.6719,688.6875 82.3125,688.8594 Q82.9688,689.0156 83.5156,689.375 Z "/><text fill="#000000" font-family="sans-serif" font-size="12" lengthAdjust="spacingAndGlyphs" textLength="60" x="101.25" y="698.4102">DoaMouse</text><line style="stroke: #A80036; stroke-width: 1.5;" x1="33" x2="197" y1="709.5" y2="709.5"/><ellipse cx="43" cy="720.5" fill="none" rx="3" ry="3" style="stroke: #038048; stroke-width: 1.0;"/><text fill="#000000" font-family="sans-serif" font-size="11" lengthAdjust="spacingAndGlyphs" text-decoration="underline" textLength="128" x="52" y="724.9189">INPUT: MouseInputAdapter</text><ellipse cx="43" cy="734.3359" fill="none" rx="3" ry="3" style="stroke: #038048; stroke-width: 1.0;"/><text fill="#000000" font-family="sans-serif" font-size="11" lengthAdjust="spacingAndGlyphs" text-decoration="underline" textLength="65" x="52" y="738.7549">MB1: boolean</text><ellipse cx="43" cy="748.1719" fill="none" rx="3" ry="3" style="stroke: #038048; stroke-width: 1.0;"/><text fill="#000000" font-family="sans-serif" font-size="11" lengthAdjust="spacingAndGlyphs" text-decoration="underline" textLength="65" x="52" y="752.5908">MB2: boolean</text><ellipse cx="43" cy="762.0078" fill="none" rx="3" ry="3" style="stroke: #038048; stroke-width: 1.0;"/><text fill="#000000" font-family="sans-serif" font-size="11" lengthAdjust="spacingAndGlyphs" text-decoration="underline" textLength="65" x="52" y="766.4268">MB3: boolean</text><ellipse cx="43" cy="775.8438" fill="none" rx="3" ry="3" style="stroke: #038048; stroke-width: 1.0;"/><text fill="#000000" font-family="sans-serif" font-size="11" lengthAdjust="spacingAndGlyphs" text-decoration="underline" textLength="99" x="52" y="780.2627">MB1_HOLD: boolean</text><ellipse cx="43" cy="789.6797" fill="none" rx="3" ry="3" style="stroke: #038048; stroke-width: 1.0;"/><text fill="#000000" font-family="sans-serif" font-size="11" lengthAdjust="spacingAndGlyphs" text-decoration="underline" textLength="99" x="52" y="794.0986">MB2_HOLD: boolean</text><ellipse cx="43" cy="803.5156" fill="none" rx="3" ry="3" style="stroke: #038048; stroke-width: 1.0;"/><text fill="#000000" font-family="sans-serif" font-size="11" lengthAdjust="spacingAndGlyphs" text-decoration="underline" textLength="99" x="52" y="807.9346">MB3_HOLD: boolean</text><ellipse cx="43" cy="817.3516" fill="none" rx="3" ry="3" style="stroke: #038048; stroke-width: 1.0;"/><text fill="#000000" font-family="sans-serif" font-size="11" lengthAdjust="spacingAndGlyphs" text-decoration="underline" textLength="117" x="52" y="821.7705">MB1_RELEASE: boolean</text><ellipse cx="43" cy="831.1875" fill="none" rx="3" ry="3" style="stroke: #038048; stroke-width: 1.0;"/><text fill="#000000" font-family="sans-serif" font-size="11" lengthAdjust="spacingAndGlyphs" text-decoration="underline" textLength="117" x="52" y="835.6064">MB2_RELEASE: boolean</text><ellipse cx="43" cy="845.0234" fill="none" rx="3" ry="3" style="stroke: #038048; stroke-width: 1.0;"/><text fill="#000000" font-family="sans-serif" font-size="11" lengthAdjust="spacingAndGlyphs" text-decoration="underline" textLength="117" x="52" y="849.4424">MB3_RELEASE: boolean</text><ellipse cx="43" cy="858.8594" fill="none" rx="3" ry="3" style="stroke: #038048; stroke-width: 1.0;"/><text fill="#000000" font-family="sans-serif" font-size="11" lengthAdjust="spacingAndGlyphs" text-decoration="underline" textLength="34" x="52" y="863.2783">X: float</text><ellipse cx="43" cy="872.6953" fill="none" rx="3" ry="3" style="stroke: #038048; stroke-width: 1.0;"/><text fill="#000000" font-family="sans-serif" font-size="11" lengthAdjust="spacingAndGlyphs" text-decoration="underline" textLength="35" x="52" y="877.1143">Y: float</text><ellipse cx="43" cy="886.5313" fill="none" rx="3" ry="3" style="stroke: #038048; stroke-width: 1.0;"/><text fill="#000000" font-family="sans-serif" font-size="11" lengthAdjust="spacingAndGlyphs" text-decoration="underline" textLength="62" x="52" y="890.9502">WHEEL: float</text><line style="stroke: #A80036; stroke-width: 1.5;" x1="33" x2="197" y1="897.3672" y2="897.3672"/><ellipse cx="43" cy="908.3672" fill="#84BE84" rx="3" ry="3" style="stroke: #038048; stroke-width: 1.0;"/><text fill="#000000" font-family="sans-serif" font-size="11" lengthAdjust="spacingAndGlyphs" text-decoration="underline" textLength="50" x="52" y="912.7861">tick(): void</text><ellipse cx="43" cy="922.2031" fill="#84BE84" rx="3" ry="3" style="stroke: #038048; stroke-width: 1.0;"/><text fill="#000000" font-family="sans-serif" font-size="11" lengthAdjust="spacingAndGlyphs" text-decoration="underline" textLength="140" x="52" y="926.6221">clampWheel(float, float): void</text></a><!--MD5=[0df3bf66c1ea09e113d54b885c88f11a]
class javax.swing.event.MouseInputAdapter--><rect codeLine="117" fill="#FEFECE" filter="url(#fpypl8bt3hh7x)" height="48" id="javax.swing.event.MouseInputAdapter" style="stroke: #A80036; stroke-width: 1.5;" width="139" x="45.5" y="42"/><ellipse cx="60.5" cy="58" fill="#A9DCDF" rx="11" ry="11" style="stroke: #A80036; stroke-width: 1.0;"/><path d="M62.6875,59.7656 L58.5469,59.7656 L58.125,60.7969 L58.5469,60.7969 Q59.1563,60.7969 59.4219,61.0313 Q59.6875,61.2656 59.6875,61.6563 Q59.6875,62.0313 59.4219,62.2656 Q59.1563,62.5 58.5469,62.5 L56.25,62.5 Q55.6406,62.5 55.3906,62.2656 Q55.125,62.0313 55.125,61.6406 Q55.125,61.2656 55.4063,61.0313 Q55.6719,60.7813 56.2969,60.7969 L58.9688,54.1406 L57.8594,54.1406 Q57.25,54.1406 56.9844,53.9063 Q56.7188,53.6719 56.7188,53.2813 Q56.7188,52.9063 56.9844,52.6719 Q57.25,52.4375 57.8594,52.4375 L61.5313,52.4375 L64.9219,60.7969 Q65.5156,60.7969 65.7031,60.9375 Q66.0938,61.2031 66.0938,61.6563 Q66.0938,62.0313 65.8281,62.2656 Q65.5781,62.5 64.9688,62.5 L62.6719,62.5 Q62.0625,62.5 61.7969,62.2656 Q61.5313,62.0313 61.5313,61.6406 Q61.5313,61.2656 61.7969,61.0313 Q62.0625,60.7969 62.6719,60.7969 L63.0938,60.7969 L62.6875,59.7656 Z M61.9688,58.0625 L60.6094,54.6875 L59.2344,58.0625 L61.9688,58.0625 Z "/><text fill="#000000" font-family="sans-serif" font-size="12" font-style="italic" lengthAdjust="spacingAndGlyphs" textLength="107" x="74.5" y="62.9102">MouseInputAdapter</text><line style="stroke: #A80036; stroke-width: 1.5;" x1="46.5" x2="183.5" y1="74" y2="74"/><line style="stroke: #A80036; stroke-width: 1.5;" x1="46.5" x2="183.5" y1="82" y2="82"/><!--MD5=[bbc91050449bea74e075d4630f8902d3]
reverse link javax.swing.event.MouseInputAdapter to doa.engine.input.DoaMouse--><path codeLine="113" d="M115,110.48 C115,219.7 115,508.85 115,677.47 " fill="none" id="javax.swing.event.MouseInputAdapter-backto-doa.engine.input.DoaMouse" style="stroke: #A80036; stroke-width: 1.0;"/><polygon fill="none" points="108,110.29,115,90.29,122,110.29,108,110.29" style="stroke: #A80036; stroke-width: 1.0;"/><text fill="#888888" font-family="sans-serif" font-size="10" lengthAdjust="spacingAndGlyphs" textLength="190" x="104.5" y="1477.3809">UMLDoclet 2.0.12, PlantUML 1.2020.16</text><!--MD5=[a1f5493d8b0703662e0f5ba5cf4fb596]
@startuml
    namespace doa.engine.input {

        class DoaKeyboard [[DoaKeyboard.html]] {
            {static} +INPUT: KeyAdapter
            {static} +ESCAPE: boolean
            {static} +F1: boolean
            {static} +F2: boolean
            {static} +F3: boolean
            {static} +F4: boolean
            {static} +F5: boolean
            {static} +F6: boolean
            {static} +F7: boolean
            {static} +F8: boolean
            {static} +F9: boolean
            {static} +F10: boolean
            {static} +F11: boolean
            {static} +F12: boolean
            {static} +PRINT_SCREEN: boolean
            {static} +SCROLL_LOCK: boolean
            {static} +PAUSE_BREAK: boolean
            {static} +TILDE: boolean
            {static} +ZERO: boolean
            {static} +ONE: boolean
            {static} +TWO: boolean
            {static} +THREE: boolean
            {static} +FOUR: boolean
            {static} +FIVE: boolean
            {static} +SIX: boolean
            {static} +SEVEN: boolean
            {static} +EIGHT: boolean
            {static} +NINE: boolean
            {static} +BACK_SPACE: boolean
            {static} +INSERT: boolean
            {static} +DELETE: boolean
            {static} +HOME: boolean
            {static} +END: boolean
            {static} +PAGE_UP: boolean
            {static} +PAGE_DOWN: boolean
            {static} +A: boolean
            {static} +B: boolean
            {static} +C: boolean
            {static} +D: boolean
            {static} +E: boolean
            {static} +F: boolean
            {static} +G: boolean
            {static} +H: boolean
            {static} +I: boolean
            {static} +J: boolean
            {static} +K: boolean
            {static} +L: boolean
            {static} +M: boolean
            {static} +N: boolean
            {static} +O: boolean
            {static} +P: boolean
            {static} +Q: boolean
            {static} +R: boolean
            {static} +S: boolean
            {static} +T: boolean
            {static} +U: boolean
            {static} +V: boolean
            {static} +W: boolean
            {static} +X: boolean
            {static} +Y: boolean
            {static} +Z: boolean
            {static} +TAB: boolean
            {static} +CAPS_LOCK: boolean
            {static} +SHIFT: boolean
            {static} +CTRL: boolean
            {static} +WINDOWS: boolean
            {static} +ALT: boolean
            {static} +NUM_1: boolean
            {static} +NUM_2: boolean
            {static} +NUM_3: boolean
            {static} +NUM_4: boolean
            {static} +NUM_5: boolean
            {static} +NUM_6: boolean
            {static} +NUM_7: boolean
            {static} +NUM_8: boolean
            {static} +NUM_9: boolean
            {static} +NUM_0: boolean
            {static} +DEL: boolean
            {static} +ENTER: boolean
            {static} +SPACE: boolean
            {static} +SLASH: boolean
            {static} +STAR: boolean
            {static} +DASH: boolean
            {static} +PLUS: boolean
            {static} +KEY_UP: boolean
            {static} +KEY_DOWN: boolean
            {static} +KEY_RIGHT: boolean
            {static} +KEY_LEFT: boolean
            {static} +tick(): void
        }

        class DoaMouse [[DoaMouse.html]] {
            {static} +INPUT: MouseInputAdapter
            {static} +MB1: boolean
            {static} +MB2: boolean
            {static} +MB3: boolean
            {static} +MB1_HOLD: boolean
            {static} +MB2_HOLD: boolean
            {static} +MB3_HOLD: boolean
            {static} +MB1_RELEASE: boolean
            {static} +MB2_RELEASE: boolean
            {static} +MB3_RELEASE: boolean
            {static} +X: float
            {static} +Y: float
            {static} +WHEEL: float
            {static} +tick(): void
            {static} +clampWheel(float, float): void
        }

        javax.swing.event.MouseInputAdapter <|- - DoaMouse
    }

    namespace javax.swing.event {
        abstract class MouseInputAdapter
    }

    center footer UMLDoclet 2.0.12, PlantUML 1.2020.16
@enduml

PlantUML version 1.2020.16(Sun Aug 23 23:20:43 TRT 2020)
(APACHE source distribution)
Java Runtime: OpenJDK Runtime Environment
JVM: OpenJDK 64-Bit Server VM
Default Encoding: Cp1252
Language: en
Country: GB
--></g></svg>