<svg xmlns="http://www.w3.org/2000/svg" xmlns:xlink="http://www.w3.org/1999/xlink" width="417" height="1490" contentScriptType="application/ecmascript" contentStyleType="text/css" style="width:417px;height:1490px" preserveAspectRatio="none" version="1.1" viewBox="0 0 417 1490" zoomAndPan="magnify"><defs><filter id="fpypl8bt3hh7x" width="300%" height="300%" x="-1" y="-1"><feGaussianBlur result="blurOut" stdDeviation="2"/><feColorMatrix in="blurOut" result="blurOut2" type="matrix" values="0 0 0 0 0 0 0 0 0 0 0 0 0 0 0 0 0 0 .4 0"/><feOffset dx="4" dy="4" in="blurOut2" result="blurOut3"/><feBlend in="SourceGraphic" in2="blurOut3" mode="normal"/></filter></defs><g><polygon fill="#FFF" points="16 130 141 130 148 153.609 395 153.609 395 1461 16 1461 16 130" filter="url(#fpypl8bt3hh7x)" style="stroke:#000;stroke-width:1.5"/><line style="stroke:#000;stroke-width:1.5" x1="16" x2="148" y1="153.609" y2="153.609"/><text x="20" y="146.533" fill="#000" font-family="sans-serif" font-size="14" font-weight="bold" lengthAdjust="spacingAndGlyphs" textLength="119">doa.engine.input</text><polygon fill="#FFF" points="29 6 162 6 169 29.609 201 29.609 201 106 29 106 29 6" filter="url(#fpypl8bt3hh7x)" style="stroke:#000;stroke-width:1.5"/><line style="stroke:#000;stroke-width:1.5" x1="29" x2="169" y1="29.609" y2="29.609"/><text x="33" y="22.533" fill="#000" font-family="sans-serif" font-size="14" font-weight="bold" lengthAdjust="spacingAndGlyphs" textLength="127">javax.swing.event</text><a href="DoaKeyboard.html" target="_top" title="DoaKeyboard.html" xlink:actuate="onRequest" xlink:href="DoaKeyboard.html" xlink:show="new" xlink:title="DoaKeyboard.html" xlink:type="simple"><rect id="doa.engine.input.DoaKeyboard" width="145" height="1279.398" x="233.5" y="166" fill="#FEFECE" codeLine="3" filter="url(#fpypl8bt3hh7x)" style="stroke:#a80036;stroke-width:1.5"/><ellipse cx="265.6" cy="182" fill="#ADD1B2" rx="11" ry="11" style="stroke:#a80036;stroke-width:1"/><path d="M268.3656,177.875 Q268.5219,177.6563 268.7094,177.5469 Q268.8969,177.4375 269.1156,177.4375 Q269.4906,177.4375 269.725,177.7031 Q269.9594,177.9531 269.9594,178.5625 L269.9594,180.0156 Q269.9594,180.625 269.725,180.8906 Q269.4906,181.1563 269.1156,181.1563 Q268.7719,181.1563 268.5688,180.9531 Q268.3656,180.7656 268.2563,180.25 Q268.2094,179.8906 268.0219,179.7031 Q267.6938,179.3281 267.0844,179.1094 Q266.475,178.8906 265.85,178.8906 Q265.0844,178.8906 264.4438,179.2188 Q263.8188,179.5469 263.3188,180.2969 Q262.8344,181.0469 262.8344,182.0781 L262.8344,183.1719 Q262.8344,184.4063 263.725,185.2344 Q264.6156,186.0469 266.2094,186.0469 Q267.1469,186.0469 267.8031,185.7969 Q268.1938,185.6406 268.6156,185.2031 Q268.8813,184.9375 269.0219,184.8594 Q269.1781,184.7813 269.3813,184.7813 Q269.7094,184.7813 269.9594,185.0469 Q270.225,185.2969 270.225,185.6406 Q270.225,185.9844 269.8813,186.3906 Q269.3813,186.9688 268.5844,187.2969 Q267.5063,187.75 266.2094,187.75 Q264.6938,187.75 263.4906,187.125 Q262.5063,186.625 261.8188,185.5625 Q261.1313,184.4844 261.1313,183.2031 L261.1313,182.0469 Q261.1313,180.7188 261.7406,179.5781 Q262.3656,178.4219 263.4594,177.8125 Q264.5531,177.1875 265.7875,177.1875 Q266.5219,177.1875 267.1625,177.3594 Q267.8188,177.5156 268.3656,177.875 Z"/><text x="283.4" y="186.91" fill="#000" font-family="sans-serif" font-size="12" lengthAdjust="spacingAndGlyphs" textLength="75">DoaKeyboard</text><line style="stroke:#a80036;stroke-width:1.5" x1="234.5" x2="377.5" y1="198" y2="198"/><ellipse cx="244.5" cy="209" fill="none" rx="3" ry="3" style="stroke:#038048;stroke-width:1"/><text x="253.5" y="213.419" fill="#000" font-family="sans-serif" font-size="11" lengthAdjust="spacingAndGlyphs" text-decoration="underline" textLength="92">INPUT: KeyAdapter</text><ellipse cx="244.5" cy="222.836" fill="none" rx="3" ry="3" style="stroke:#038048;stroke-width:1"/><text x="253.5" y="227.255" fill="#000" font-family="sans-serif" font-size="11" lengthAdjust="spacingAndGlyphs" text-decoration="underline" textLength="84">ESCAPE: boolean</text><ellipse cx="244.5" cy="236.672" fill="none" rx="3" ry="3" style="stroke:#038048;stroke-width:1"/><text x="253.5" y="241.091" fill="#000" font-family="sans-serif" font-size="11" lengthAdjust="spacingAndGlyphs" text-decoration="underline" textLength="56">F1: boolean</text><ellipse cx="244.5" cy="250.508" fill="none" rx="3" ry="3" style="stroke:#038048;stroke-width:1"/><text x="253.5" y="254.927" fill="#000" font-family="sans-serif" font-size="11" lengthAdjust="spacingAndGlyphs" text-decoration="underline" textLength="56">F2: boolean</text><ellipse cx="244.5" cy="264.344" fill="none" rx="3" ry="3" style="stroke:#038048;stroke-width:1"/><text x="253.5" y="268.763" fill="#000" font-family="sans-serif" font-size="11" lengthAdjust="spacingAndGlyphs" text-decoration="underline" textLength="56">F3: boolean</text><ellipse cx="244.5" cy="278.18" fill="none" rx="3" ry="3" style="stroke:#038048;stroke-width:1"/><text x="253.5" y="282.599" fill="#000" font-family="sans-serif" font-size="11" lengthAdjust="spacingAndGlyphs" text-decoration="underline" textLength="56">F4: boolean</text><ellipse cx="244.5" cy="292.016" fill="none" rx="3" ry="3" style="stroke:#038048;stroke-width:1"/><text x="253.5" y="296.435" fill="#000" font-family="sans-serif" font-size="11" lengthAdjust="spacingAndGlyphs" text-decoration="underline" textLength="56">F5: boolean</text><ellipse cx="244.5" cy="305.852" fill="none" rx="3" ry="3" style="stroke:#038048;stroke-width:1"/><text x="253.5" y="310.271" fill="#000" font-family="sans-serif" font-size="11" lengthAdjust="spacingAndGlyphs" text-decoration="underline" textLength="56">F6: boolean</text><ellipse cx="244.5" cy="319.688" fill="none" rx="3" ry="3" style="stroke:#038048;stroke-width:1"/><text x="253.5" y="324.106" fill="#000" font-family="sans-serif" font-size="11" lengthAdjust="spacingAndGlyphs" text-decoration="underline" textLength="56">F7: boolean</text><ellipse cx="244.5" cy="333.523" fill="none" rx="3" ry="3" style="stroke:#038048;stroke-width:1"/><text x="253.5" y="337.942" fill="#000" font-family="sans-serif" font-size="11" lengthAdjust="spacingAndGlyphs" text-decoration="underline" textLength="56">F8: boolean</text><ellipse cx="244.5" cy="347.359" fill="none" rx="3" ry="3" style="stroke:#038048;stroke-width:1"/><text x="253.5" y="351.778" fill="#000" font-family="sans-serif" font-size="11" lengthAdjust="spacingAndGlyphs" text-decoration="underline" textLength="56">F9: boolean</text><ellipse cx="244.5" cy="361.195" fill="none" rx="3" ry="3" style="stroke:#038048;stroke-width:1"/><text x="253.5" y="365.614" fill="#000" font-family="sans-serif" font-size="11" lengthAdjust="spacingAndGlyphs" text-decoration="underline" textLength="62">F10: boolean</text><ellipse cx="244.5" cy="375.031" fill="none" rx="3" ry="3" style="stroke:#038048;stroke-width:1"/><text x="253.5" y="379.45" fill="#000" font-family="sans-serif" font-size="11" lengthAdjust="spacingAndGlyphs" text-decoration="underline" textLength="62">F11: boolean</text><ellipse cx="244.5" cy="388.867" fill="none" rx="3" ry="3" style="stroke:#038048;stroke-width:1"/><text x="253.5" y="393.286" fill="#000" font-family="sans-serif" font-size="11" lengthAdjust="spacingAndGlyphs" text-decoration="underline" textLength="62">F12: boolean</text><ellipse cx="244.5" cy="402.703" fill="none" rx="3" ry="3" style="stroke:#038048;stroke-width:1"/><text x="253.5" y="407.122" fill="#000" font-family="sans-serif" font-size="11" lengthAdjust="spacingAndGlyphs" text-decoration="underline" textLength="118">PRINT_SCREEN: boolean</text><ellipse cx="244.5" cy="416.539" fill="none" rx="3" ry="3" style="stroke:#038048;stroke-width:1"/><text x="253.5" y="420.958" fill="#000" font-family="sans-serif" font-size="11" lengthAdjust="spacingAndGlyphs" text-decoration="underline" textLength="119">SCROLL_LOCK: boolean</text><ellipse cx="244.5" cy="430.375" fill="none" rx="3" ry="3" style="stroke:#038048;stroke-width:1"/><text x="253.5" y="434.794" fill="#000" font-family="sans-serif" font-size="11" lengthAdjust="spacingAndGlyphs" text-decoration="underline" textLength="119">PAUSE_BREAK: boolean</text><ellipse cx="244.5" cy="444.211" fill="none" rx="3" ry="3" style="stroke:#038048;stroke-width:1"/><text x="253.5" y="448.63" fill="#000" font-family="sans-serif" font-size="11" lengthAdjust="spacingAndGlyphs" text-decoration="underline" textLength="71">TILDE: boolean</text><ellipse cx="244.5" cy="458.047" fill="none" rx="3" ry="3" style="stroke:#038048;stroke-width:1"/><text x="253.5" y="462.466" fill="#000" font-family="sans-serif" font-size="11" lengthAdjust="spacingAndGlyphs" text-decoration="underline" textLength="72">ZERO: boolean</text><ellipse cx="244.5" cy="471.883" fill="none" rx="3" ry="3" style="stroke:#038048;stroke-width:1"/><text x="253.5" y="476.302" fill="#000" font-family="sans-serif" font-size="11" lengthAdjust="spacingAndGlyphs" text-decoration="underline" textLength="65">ONE: boolean</text><ellipse cx="244.5" cy="485.719" fill="none" rx="3" ry="3" style="stroke:#038048;stroke-width:1"/><text x="253.5" y="490.138" fill="#000" font-family="sans-serif" font-size="11" lengthAdjust="spacingAndGlyphs" text-decoration="underline" textLength="68">TWO: boolean</text><ellipse cx="244.5" cy="499.555" fill="none" rx="3" ry="3" style="stroke:#038048;stroke-width:1"/><text x="253.5" y="503.974" fill="#000" font-family="sans-serif" font-size="11" lengthAdjust="spacingAndGlyphs" text-decoration="underline" textLength="76">THREE: boolean</text><ellipse cx="244.5" cy="513.391" fill="none" rx="3" ry="3" style="stroke:#038048;stroke-width:1"/><text x="253.5" y="517.81" fill="#000" font-family="sans-serif" font-size="11" lengthAdjust="spacingAndGlyphs" text-decoration="underline" textLength="72">FOUR: boolean</text><ellipse cx="244.5" cy="527.227" fill="none" rx="3" ry="3" style="stroke:#038048;stroke-width:1"/><text x="253.5" y="531.645" fill="#000" font-family="sans-serif" font-size="11" lengthAdjust="spacingAndGlyphs" text-decoration="underline" textLength="66">FIVE: boolean</text><ellipse cx="244.5" cy="541.063" fill="none" rx="3" ry="3" style="stroke:#038048;stroke-width:1"/><text x="253.5" y="545.481" fill="#000" font-family="sans-serif" font-size="11" lengthAdjust="spacingAndGlyphs" text-decoration="underline" textLength="60">SIX: boolean</text><ellipse cx="244.5" cy="554.898" fill="none" rx="3" ry="3" style="stroke:#038048;stroke-width:1"/><text x="253.5" y="559.317" fill="#000" font-family="sans-serif" font-size="11" lengthAdjust="spacingAndGlyphs" text-decoration="underline" textLength="78">SEVEN: boolean</text><ellipse cx="244.5" cy="568.734" fill="none" rx="3" ry="3" style="stroke:#038048;stroke-width:1"/><text x="253.5" y="573.153" fill="#000" font-family="sans-serif" font-size="11" lengthAdjust="spacingAndGlyphs" text-decoration="underline" textLength="73">EIGHT: boolean</text><ellipse cx="244.5" cy="582.57" fill="none" rx="3" ry="3" style="stroke:#038048;stroke-width:1"/><text x="253.5" y="586.989" fill="#000" font-family="sans-serif" font-size="11" lengthAdjust="spacingAndGlyphs" text-decoration="underline" textLength="66">NINE: boolean</text><ellipse cx="244.5" cy="596.406" fill="none" rx="3" ry="3" style="stroke:#038048;stroke-width:1"/><text x="253.5" y="600.825" fill="#000" font-family="sans-serif" font-size="11" lengthAdjust="spacingAndGlyphs" text-decoration="underline" textLength="113">BACK_SPACE: boolean</text><ellipse cx="244.5" cy="610.242" fill="none" rx="3" ry="3" style="stroke:#038048;stroke-width:1"/><text x="253.5" y="614.661" fill="#000" font-family="sans-serif" font-size="11" lengthAdjust="spacingAndGlyphs" text-decoration="underline" textLength="79">INSERT: boolean</text><ellipse cx="244.5" cy="624.078" fill="none" rx="3" ry="3" style="stroke:#038048;stroke-width:1"/><text x="253.5" y="628.497" fill="#000" font-family="sans-serif" font-size="11" lengthAdjust="spacingAndGlyphs" text-decoration="underline" textLength="81">DELETE: boolean</text><ellipse cx="244.5" cy="637.914" fill="none" rx="3" ry="3" style="stroke:#038048;stroke-width:1"/><text x="253.5" y="642.333" fill="#000" font-family="sans-serif" font-size="11" lengthAdjust="spacingAndGlyphs" text-decoration="underline" textLength="73">HOME: boolean</text><ellipse cx="244.5" cy="651.75" fill="none" rx="3" ry="3" style="stroke:#038048;stroke-width:1"/><text x="253.5" y="656.169" fill="#000" font-family="sans-serif" font-size="11" lengthAdjust="spacingAndGlyphs" text-decoration="underline" textLength="64">END: boolean</text><ellipse cx="244.5" cy="665.586" fill="none" rx="3" ry="3" style="stroke:#038048;stroke-width:1"/><text x="253.5" y="670.005" fill="#000" font-family="sans-serif" font-size="11" lengthAdjust="spacingAndGlyphs" text-decoration="underline" textLength="91">PAGE_UP: boolean</text><ellipse cx="244.5" cy="679.422" fill="none" rx="3" ry="3" style="stroke:#038048;stroke-width:1"/><text x="253.5" y="683.841" fill="#000" font-family="sans-serif" font-size="11" lengthAdjust="spacingAndGlyphs" text-decoration="underline" textLength="110">PAGE_DOWN: boolean</text><ellipse cx="244.5" cy="693.258" fill="none" rx="3" ry="3" style="stroke:#038048;stroke-width:1"/><text x="253.5" y="697.677" fill="#000" font-family="sans-serif" font-size="11" lengthAdjust="spacingAndGlyphs" text-decoration="underline" textLength="52">A: boolean</text><ellipse cx="244.5" cy="707.094" fill="none" rx="3" ry="3" style="stroke:#038048;stroke-width:1"/><text x="253.5" y="711.513" fill="#000" font-family="sans-serif" font-size="11" lengthAdjust="spacingAndGlyphs" text-decoration="underline" textLength="51">B: boolean</text><ellipse cx="244.5" cy="720.93" fill="none" rx="3" ry="3" style="stroke:#038048;stroke-width:1"/><text x="253.5" y="725.349" fill="#000" font-family="sans-serif" font-size="11" lengthAdjust="spacingAndGlyphs" text-decoration="underline" textLength="51">C: boolean</text><ellipse cx="244.5" cy="734.766" fill="none" rx="3" ry="3" style="stroke:#038048;stroke-width:1"/><text x="253.5" y="739.185" fill="#000" font-family="sans-serif" font-size="11" lengthAdjust="spacingAndGlyphs" text-decoration="underline" textLength="51">D: boolean</text><ellipse cx="244.5" cy="748.602" fill="none" rx="3" ry="3" style="stroke:#038048;stroke-width:1"/><text x="253.5" y="753.02" fill="#000" font-family="sans-serif" font-size="11" lengthAdjust="spacingAndGlyphs" text-decoration="underline" textLength="50">E: boolean</text><ellipse cx="244.5" cy="762.438" fill="none" rx="3" ry="3" style="stroke:#038048;stroke-width:1"/><text x="253.5" y="766.856" fill="#000" font-family="sans-serif" font-size="11" lengthAdjust="spacingAndGlyphs" text-decoration="underline" textLength="50">F: boolean</text><ellipse cx="244.5" cy="776.273" fill="none" rx="3" ry="3" style="stroke:#038048;stroke-width:1"/><text x="253.5" y="780.692" fill="#000" font-family="sans-serif" font-size="11" lengthAdjust="spacingAndGlyphs" text-decoration="underline" textLength="52">G: boolean</text><ellipse cx="244.5" cy="790.109" fill="none" rx="3" ry="3" style="stroke:#038048;stroke-width:1"/><text x="253.5" y="794.528" fill="#000" font-family="sans-serif" font-size="11" lengthAdjust="spacingAndGlyphs" text-decoration="underline" textLength="51">H: boolean</text><ellipse cx="244.5" cy="803.945" fill="none" rx="3" ry="3" style="stroke:#038048;stroke-width:1"/><text x="253.5" y="808.364" fill="#000" font-family="sans-serif" font-size="11" lengthAdjust="spacingAndGlyphs" text-decoration="underline" textLength="46">I: boolean</text><ellipse cx="244.5" cy="817.781" fill="none" rx="3" ry="3" style="stroke:#038048;stroke-width:1"/><text x="253.5" y="822.2" fill="#000" font-family="sans-serif" font-size="11" lengthAdjust="spacingAndGlyphs" text-decoration="underline" textLength="49">J: boolean</text><ellipse cx="244.5" cy="831.617" fill="none" rx="3" ry="3" style="stroke:#038048;stroke-width:1"/><text x="253.5" y="836.036" fill="#000" font-family="sans-serif" font-size="11" lengthAdjust="spacingAndGlyphs" text-decoration="underline" textLength="51">K: boolean</text><ellipse cx="244.5" cy="845.453" fill="none" rx="3" ry="3" style="stroke:#038048;stroke-width:1"/><text x="253.5" y="849.872" fill="#000" font-family="sans-serif" font-size="11" lengthAdjust="spacingAndGlyphs" text-decoration="underline" textLength="50">L: boolean</text><ellipse cx="244.5" cy="859.289" fill="none" rx="3" ry="3" style="stroke:#038048;stroke-width:1"/><text x="253.5" y="863.708" fill="#000" font-family="sans-serif" font-size="11" lengthAdjust="spacingAndGlyphs" text-decoration="underline" textLength="52">M: boolean</text><ellipse cx="244.5" cy="873.125" fill="none" rx="3" ry="3" style="stroke:#038048;stroke-width:1"/><text x="253.5" y="877.544" fill="#000" font-family="sans-serif" font-size="11" lengthAdjust="spacingAndGlyphs" text-decoration="underline" textLength="51">N: boolean</text><ellipse cx="244.5" cy="886.961" fill="none" rx="3" ry="3" style="stroke:#038048;stroke-width:1"/><text x="253.5" y="891.38" fill="#000" font-family="sans-serif" font-size="11" lengthAdjust="spacingAndGlyphs" text-decoration="underline" textLength="52">O: boolean</text><ellipse cx="244.5" cy="900.797" fill="none" rx="3" ry="3" style="stroke:#038048;stroke-width:1"/><text x="253.5" y="905.216" fill="#000" font-family="sans-serif" font-size="11" lengthAdjust="spacingAndGlyphs" text-decoration="underline" textLength="50">P: boolean</text><ellipse cx="244.5" cy="914.633" fill="none" rx="3" ry="3" style="stroke:#038048;stroke-width:1"/><text x="253.5" y="919.052" fill="#000" font-family="sans-serif" font-size="11" lengthAdjust="spacingAndGlyphs" text-decoration="underline" textLength="52">Q: boolean</text><ellipse cx="244.5" cy="928.469" fill="none" rx="3" ry="3" style="stroke:#038048;stroke-width:1"/><text x="253.5" y="932.888" fill="#000" font-family="sans-serif" font-size="11" lengthAdjust="spacingAndGlyphs" text-decoration="underline" textLength="51">R: boolean</text><ellipse cx="244.5" cy="942.305" fill="none" rx="3" ry="3" style="stroke:#038048;stroke-width:1"/><text x="253.5" y="946.724" fill="#000" font-family="sans-serif" font-size="11" lengthAdjust="spacingAndGlyphs" text-decoration="underline" textLength="51">S: boolean</text><ellipse cx="244.5" cy="956.141" fill="none" rx="3" ry="3" style="stroke:#038048;stroke-width:1"/><text x="253.5" y="960.56" fill="#000" font-family="sans-serif" font-size="11" lengthAdjust="spacingAndGlyphs" text-decoration="underline" textLength="50">T: boolean</text><ellipse cx="244.5" cy="969.977" fill="none" rx="3" ry="3" style="stroke:#038048;stroke-width:1"/><text x="253.5" y="974.395" fill="#000" font-family="sans-serif" font-size="11" lengthAdjust="spacingAndGlyphs" text-decoration="underline" textLength="51">U: boolean</text><ellipse cx="244.5" cy="983.813" fill="none" rx="3" ry="3" style="stroke:#038048;stroke-width:1"/><text x="253.5" y="988.231" fill="#000" font-family="sans-serif" font-size="11" lengthAdjust="spacingAndGlyphs" text-decoration="underline" textLength="52">V: boolean</text><ellipse cx="244.5" cy="997.648" fill="none" rx="3" ry="3" style="stroke:#038048;stroke-width:1"/><text x="253.5" y="1002.067" fill="#000" font-family="sans-serif" font-size="11" lengthAdjust="spacingAndGlyphs" text-decoration="underline" textLength="54">W: boolean</text><ellipse cx="244.5" cy="1011.484" fill="none" rx="3" ry="3" style="stroke:#038048;stroke-width:1"/><text x="253.5" y="1015.903" fill="#000" font-family="sans-serif" font-size="11" lengthAdjust="spacingAndGlyphs" text-decoration="underline" textLength="51">X: boolean</text><ellipse cx="244.5" cy="1025.32" fill="none" rx="3" ry="3" style="stroke:#038048;stroke-width:1"/><text x="253.5" y="1029.739" fill="#000" font-family="sans-serif" font-size="11" lengthAdjust="spacingAndGlyphs" text-decoration="underline" textLength="52">Y: boolean</text><ellipse cx="244.5" cy="1039.156" fill="none" rx="3" ry="3" style="stroke:#038048;stroke-width:1"/><text x="253.5" y="1043.575" fill="#000" font-family="sans-serif" font-size="11" lengthAdjust="spacingAndGlyphs" text-decoration="underline" textLength="51">Z: boolean</text><ellipse cx="244.5" cy="1052.992" fill="none" rx="3" ry="3" style="stroke:#038048;stroke-width:1"/><text x="253.5" y="1057.411" fill="#000" font-family="sans-serif" font-size="11" lengthAdjust="spacingAndGlyphs" text-decoration="underline" textLength="65">TAB: boolean</text><ellipse cx="244.5" cy="1066.828" fill="none" rx="3" ry="3" style="stroke:#038048;stroke-width:1"/><text x="253.5" y="1071.247" fill="#000" font-family="sans-serif" font-size="11" lengthAdjust="spacingAndGlyphs" text-decoration="underline" textLength="106">CAPS_LOCK: boolean</text><ellipse cx="244.5" cy="1080.664" fill="none" rx="3" ry="3" style="stroke:#038048;stroke-width:1"/><text x="253.5" y="1085.083" fill="#000" font-family="sans-serif" font-size="11" lengthAdjust="spacingAndGlyphs" text-decoration="underline" textLength="72">SHIFT: boolean</text><ellipse cx="244.5" cy="1094.5" fill="none" rx="3" ry="3" style="stroke:#038048;stroke-width:1"/><text x="253.5" y="1098.919" fill="#000" font-family="sans-serif" font-size="11" lengthAdjust="spacingAndGlyphs" text-decoration="underline" textLength="70">CTRL: boolean</text><ellipse cx="244.5" cy="1108.336" fill="none" rx="3" ry="3" style="stroke:#038048;stroke-width:1"/><text x="253.5" y="1112.755" fill="#000" font-family="sans-serif" font-size="11" lengthAdjust="spacingAndGlyphs" text-decoration="underline" textLength="95">WINDOWS: boolean</text><ellipse cx="244.5" cy="1122.172" fill="none" rx="3" ry="3" style="stroke:#038048;stroke-width:1"/><text x="253.5" y="1126.591" fill="#000" font-family="sans-serif" font-size="11" lengthAdjust="spacingAndGlyphs" text-decoration="underline" textLength="64">ALT: boolean</text><ellipse cx="244.5" cy="1136.008" fill="none" rx="3" ry="3" style="stroke:#038048;stroke-width:1"/><text x="253.5" y="1140.427" fill="#000" font-family="sans-serif" font-size="11" lengthAdjust="spacingAndGlyphs" text-decoration="underline" textLength="78">NUM_1: boolean</text><ellipse cx="244.5" cy="1149.844" fill="none" rx="3" ry="3" style="stroke:#038048;stroke-width:1"/><text x="253.5" y="1154.263" fill="#000" font-family="sans-serif" font-size="11" lengthAdjust="spacingAndGlyphs" text-decoration="underline" textLength="78">NUM_2: boolean</text><ellipse cx="244.5" cy="1163.68" fill="none" rx="3" ry="3" style="stroke:#038048;stroke-width:1"/><text x="253.5" y="1168.099" fill="#000" font-family="sans-serif" font-size="11" lengthAdjust="spacingAndGlyphs" text-decoration="underline" textLength="78">NUM_3: boolean</text><ellipse cx="244.5" cy="1177.516" fill="none" rx="3" ry="3" style="stroke:#038048;stroke-width:1"/><text x="253.5" y="1181.935" fill="#000" font-family="sans-serif" font-size="11" lengthAdjust="spacingAndGlyphs" text-decoration="underline" textLength="78">NUM_4: boolean</text><ellipse cx="244.5" cy="1191.352" fill="none" rx="3" ry="3" style="stroke:#038048;stroke-width:1"/><text x="253.5" y="1195.771" fill="#000" font-family="sans-serif" font-size="11" lengthAdjust="spacingAndGlyphs" text-decoration="underline" textLength="78">NUM_5: boolean</text><ellipse cx="244.5" cy="1205.188" fill="none" rx="3" ry="3" style="stroke:#038048;stroke-width:1"/><text x="253.5" y="1209.606" fill="#000" font-family="sans-serif" font-size="11" lengthAdjust="spacingAndGlyphs" text-decoration="underline" textLength="78">NUM_6: boolean</text><ellipse cx="244.5" cy="1219.023" fill="none" rx="3" ry="3" style="stroke:#038048;stroke-width:1"/><text x="253.5" y="1223.442" fill="#000" font-family="sans-serif" font-size="11" lengthAdjust="spacingAndGlyphs" text-decoration="underline" textLength="78">NUM_7: boolean</text><ellipse cx="244.5" cy="1232.859" fill="none" rx="3" ry="3" style="stroke:#038048;stroke-width:1"/><text x="253.5" y="1237.278" fill="#000" font-family="sans-serif" font-size="11" lengthAdjust="spacingAndGlyphs" text-decoration="underline" textLength="78">NUM_8: boolean</text><ellipse cx="244.5" cy="1246.695" fill="none" rx="3" ry="3" style="stroke:#038048;stroke-width:1"/><text x="253.5" y="1251.114" fill="#000" font-family="sans-serif" font-size="11" lengthAdjust="spacingAndGlyphs" text-decoration="underline" textLength="78">NUM_9: boolean</text><ellipse cx="244.5" cy="1260.531" fill="none" rx="3" ry="3" style="stroke:#038048;stroke-width:1"/><text x="253.5" y="1264.95" fill="#000" font-family="sans-serif" font-size="11" lengthAdjust="spacingAndGlyphs" text-decoration="underline" textLength="78">NUM_0: boolean</text><ellipse cx="244.5" cy="1274.367" fill="none" rx="3" ry="3" style="stroke:#038048;stroke-width:1"/><text x="253.5" y="1278.786" fill="#000" font-family="sans-serif" font-size="11" lengthAdjust="spacingAndGlyphs" text-decoration="underline" textLength="63">DEL: boolean</text><ellipse cx="244.5" cy="1288.203" fill="none" rx="3" ry="3" style="stroke:#038048;stroke-width:1"/><text x="253.5" y="1292.622" fill="#000" font-family="sans-serif" font-size="11" lengthAdjust="spacingAndGlyphs" text-decoration="underline" textLength="76">ENTER: boolean</text><ellipse cx="244.5" cy="1302.039" fill="none" rx="3" ry="3" style="stroke:#038048;stroke-width:1"/><text x="253.5" y="1306.458" fill="#000" font-family="sans-serif" font-size="11" lengthAdjust="spacingAndGlyphs" text-decoration="underline" textLength="78">SPACE: boolean</text><ellipse cx="244.5" cy="1315.875" fill="none" rx="3" ry="3" style="stroke:#038048;stroke-width:1"/><text x="253.5" y="1320.294" fill="#000" font-family="sans-serif" font-size="11" lengthAdjust="spacingAndGlyphs" text-decoration="underline" textLength="79">SLASH: boolean</text><ellipse cx="244.5" cy="1329.711" fill="none" rx="3" ry="3" style="stroke:#038048;stroke-width:1"/><text x="253.5" y="1334.13" fill="#000" font-family="sans-serif" font-size="11" lengthAdjust="spacingAndGlyphs" text-decoration="underline" textLength="72">STAR: boolean</text><ellipse cx="244.5" cy="1343.547" fill="none" rx="3" ry="3" style="stroke:#038048;stroke-width:1"/><text x="253.5" y="1347.966" fill="#000" font-family="sans-serif" font-size="11" lengthAdjust="spacingAndGlyphs" text-decoration="underline" textLength="73">DASH: boolean</text><ellipse cx="244.5" cy="1357.383" fill="none" rx="3" ry="3" style="stroke:#038048;stroke-width:1"/><text x="253.5" y="1361.802" fill="#000" font-family="sans-serif" font-size="11" lengthAdjust="spacingAndGlyphs" text-decoration="underline" textLength="70">PLUS: boolean</text><ellipse cx="244.5" cy="1371.219" fill="none" rx="3" ry="3" style="stroke:#038048;stroke-width:1"/><text x="253.5" y="1375.638" fill="#000" font-family="sans-serif" font-size="11" lengthAdjust="spacingAndGlyphs" text-decoration="underline" textLength="84">KEY_UP: boolean</text><ellipse cx="244.5" cy="1385.055" fill="none" rx="3" ry="3" style="stroke:#038048;stroke-width:1"/><text x="253.5" y="1389.474" fill="#000" font-family="sans-serif" font-size="11" lengthAdjust="spacingAndGlyphs" text-decoration="underline" textLength="103">KEY_DOWN: boolean</text><ellipse cx="244.5" cy="1398.891" fill="none" rx="3" ry="3" style="stroke:#038048;stroke-width:1"/><text x="253.5" y="1403.31" fill="#000" font-family="sans-serif" font-size="11" lengthAdjust="spacingAndGlyphs" text-decoration="underline" textLength="101">KEY_RIGHT: boolean</text><ellipse cx="244.5" cy="1412.727" fill="none" rx="3" ry="3" style="stroke:#038048;stroke-width:1"/><text x="253.5" y="1417.146" fill="#000" font-family="sans-serif" font-size="11" lengthAdjust="spacingAndGlyphs" text-decoration="underline" textLength="95">KEY_LEFT: boolean</text><line style="stroke:#a80036;stroke-width:1.5" x1="234.5" x2="377.5" y1="1423.563" y2="1423.563"/><ellipse cx="244.5" cy="1434.563" fill="#84BE84" rx="3" ry="3" style="stroke:#038048;stroke-width:1"/><text x="253.5" y="1438.981" fill="#000" font-family="sans-serif" font-size="11" lengthAdjust="spacingAndGlyphs" text-decoration="underline" textLength="50">tick(): void</text></a><a href="DoaMouse.html" target="_top" title="DoaMouse.html" xlink:actuate="onRequest" xlink:href="DoaMouse.html" xlink:show="new" xlink:title="DoaMouse.html" xlink:type="simple"><rect id="doa.engine.input.DoaMouse" width="166" height="255.539" x="32" y="677.5" fill="#FEFECE" codeLine="95" filter="url(#fpypl8bt3hh7x)" style="stroke:#a80036;stroke-width:1.5"/><ellipse cx="80.75" cy="693.5" fill="#ADD1B2" rx="11" ry="11" style="stroke:#a80036;stroke-width:1"/><path d="M83.5156,689.375 Q83.6719,689.1563 83.8594,689.0469 Q84.0469,688.9375 84.2656,688.9375 Q84.6406,688.9375 84.875,689.2031 Q85.1094,689.4531 85.1094,690.0625 L85.1094,691.5156 Q85.1094,692.125 84.875,692.3906 Q84.6406,692.6563 84.2656,692.6563 Q83.9219,692.6563 83.7188,692.4531 Q83.5156,692.2656 83.4063,691.75 Q83.3594,691.3906 83.1719,691.2031 Q82.8438,690.8281 82.2344,690.6094 Q81.625,690.3906 81,690.3906 Q80.2344,690.3906 79.5938,690.7188 Q78.9688,691.0469 78.4688,691.7969 Q77.9844,692.5469 77.9844,693.5781 L77.9844,694.6719 Q77.9844,695.9063 78.875,696.7344 Q79.7656,697.5469 81.3594,697.5469 Q82.2969,697.5469 82.9531,697.2969 Q83.3438,697.1406 83.7656,696.7031 Q84.0313,696.4375 84.1719,696.3594 Q84.3281,696.2813 84.5313,696.2813 Q84.8594,696.2813 85.1094,696.5469 Q85.375,696.7969 85.375,697.1406 Q85.375,697.4844 85.0313,697.8906 Q84.5313,698.4688 83.7344,698.7969 Q82.6563,699.25 81.3594,699.25 Q79.8438,699.25 78.6406,698.625 Q77.6563,698.125 76.9688,697.0625 Q76.2813,695.9844 76.2813,694.7031 L76.2813,693.5469 Q76.2813,692.2188 76.8906,691.0781 Q77.5156,689.9219 78.6094,689.3125 Q79.7031,688.6875 80.9375,688.6875 Q81.6719,688.6875 82.3125,688.8594 Q82.9688,689.0156 83.5156,689.375 Z"/><text x="101.25" y="698.41" fill="#000" font-family="sans-serif" font-size="12" lengthAdjust="spacingAndGlyphs" textLength="60">DoaMouse</text><line style="stroke:#a80036;stroke-width:1.5" x1="33" x2="197" y1="709.5" y2="709.5"/><ellipse cx="43" cy="720.5" fill="none" rx="3" ry="3" style="stroke:#038048;stroke-width:1"/><text x="52" y="724.919" fill="#000" font-family="sans-serif" font-size="11" lengthAdjust="spacingAndGlyphs" text-decoration="underline" textLength="128">INPUT: MouseInputAdapter</text><ellipse cx="43" cy="734.336" fill="none" rx="3" ry="3" style="stroke:#038048;stroke-width:1"/><text x="52" y="738.755" fill="#000" font-family="sans-serif" font-size="11" lengthAdjust="spacingAndGlyphs" text-decoration="underline" textLength="65">MB1: boolean</text><ellipse cx="43" cy="748.172" fill="none" rx="3" ry="3" style="stroke:#038048;stroke-width:1"/><text x="52" y="752.591" fill="#000" font-family="sans-serif" font-size="11" lengthAdjust="spacingAndGlyphs" text-decoration="underline" textLength="65">MB2: boolean</text><ellipse cx="43" cy="762.008" fill="none" rx="3" ry="3" style="stroke:#038048;stroke-width:1"/><text x="52" y="766.427" fill="#000" font-family="sans-serif" font-size="11" lengthAdjust="spacingAndGlyphs" text-decoration="underline" textLength="65">MB3: boolean</text><ellipse cx="43" cy="775.844" fill="none" rx="3" ry="3" style="stroke:#038048;stroke-width:1"/><text x="52" y="780.263" fill="#000" font-family="sans-serif" font-size="11" lengthAdjust="spacingAndGlyphs" text-decoration="underline" textLength="99">MB1_HOLD: boolean</text><ellipse cx="43" cy="789.68" fill="none" rx="3" ry="3" style="stroke:#038048;stroke-width:1"/><text x="52" y="794.099" fill="#000" font-family="sans-serif" font-size="11" lengthAdjust="spacingAndGlyphs" text-decoration="underline" textLength="99">MB2_HOLD: boolean</text><ellipse cx="43" cy="803.516" fill="none" rx="3" ry="3" style="stroke:#038048;stroke-width:1"/><text x="52" y="807.935" fill="#000" font-family="sans-serif" font-size="11" lengthAdjust="spacingAndGlyphs" text-decoration="underline" textLength="99">MB3_HOLD: boolean</text><ellipse cx="43" cy="817.352" fill="none" rx="3" ry="3" style="stroke:#038048;stroke-width:1"/><text x="52" y="821.77" fill="#000" font-family="sans-serif" font-size="11" lengthAdjust="spacingAndGlyphs" text-decoration="underline" textLength="117">MB1_RELEASE: boolean</text><ellipse cx="43" cy="831.188" fill="none" rx="3" ry="3" style="stroke:#038048;stroke-width:1"/><text x="52" y="835.606" fill="#000" font-family="sans-serif" font-size="11" lengthAdjust="spacingAndGlyphs" text-decoration="underline" textLength="117">MB2_RELEASE: boolean</text><ellipse cx="43" cy="845.023" fill="none" rx="3" ry="3" style="stroke:#038048;stroke-width:1"/><text x="52" y="849.442" fill="#000" font-family="sans-serif" font-size="11" lengthAdjust="spacingAndGlyphs" text-decoration="underline" textLength="117">MB3_RELEASE: boolean</text><ellipse cx="43" cy="858.859" fill="none" rx="3" ry="3" style="stroke:#038048;stroke-width:1"/><text x="52" y="863.278" fill="#000" font-family="sans-serif" font-size="11" lengthAdjust="spacingAndGlyphs" text-decoration="underline" textLength="34">X: float</text><ellipse cx="43" cy="872.695" fill="none" rx="3" ry="3" style="stroke:#038048;stroke-width:1"/><text x="52" y="877.114" fill="#000" font-family="sans-serif" font-size="11" lengthAdjust="spacingAndGlyphs" text-decoration="underline" textLength="35">Y: float</text><ellipse cx="43" cy="886.531" fill="none" rx="3" ry="3" style="stroke:#038048;stroke-width:1"/><text x="52" y="890.95" fill="#000" font-family="sans-serif" font-size="11" lengthAdjust="spacingAndGlyphs" text-decoration="underline" textLength="62">WHEEL: float</text><line style="stroke:#a80036;stroke-width:1.5" x1="33" x2="197" y1="897.367" y2="897.367"/><ellipse cx="43" cy="908.367" fill="#84BE84" rx="3" ry="3" style="stroke:#038048;stroke-width:1"/><text x="52" y="912.786" fill="#000" font-family="sans-serif" font-size="11" lengthAdjust="spacingAndGlyphs" text-decoration="underline" textLength="50">tick(): void</text><ellipse cx="43" cy="922.203" fill="#84BE84" rx="3" ry="3" style="stroke:#038048;stroke-width:1"/><text x="52" y="926.622" fill="#000" font-family="sans-serif" font-size="11" lengthAdjust="spacingAndGlyphs" text-decoration="underline" textLength="140">clampWheel(float, float): void</text></a><rect id="javax.swing.event.MouseInputAdapter" width="139" height="48" x="45.5" y="42" fill="#FEFECE" codeLine="117" filter="url(#fpypl8bt3hh7x)" style="stroke:#a80036;stroke-width:1.5"/><ellipse cx="60.5" cy="58" fill="#A9DCDF" rx="11" ry="11" style="stroke:#a80036;stroke-width:1"/><path d="M62.6875,59.7656 L58.5469,59.7656 L58.125,60.7969 L58.5469,60.7969 Q59.1563,60.7969 59.4219,61.0313 Q59.6875,61.2656 59.6875,61.6563 Q59.6875,62.0313 59.4219,62.2656 Q59.1563,62.5 58.5469,62.5 L56.25,62.5 Q55.6406,62.5 55.3906,62.2656 Q55.125,62.0313 55.125,61.6406 Q55.125,61.2656 55.4063,61.0313 Q55.6719,60.7813 56.2969,60.7969 L58.9688,54.1406 L57.8594,54.1406 Q57.25,54.1406 56.9844,53.9063 Q56.7188,53.6719 56.7188,53.2813 Q56.7188,52.9063 56.9844,52.6719 Q57.25,52.4375 57.8594,52.4375 L61.5313,52.4375 L64.9219,60.7969 Q65.5156,60.7969 65.7031,60.9375 Q66.0938,61.2031 66.0938,61.6563 Q66.0938,62.0313 65.8281,62.2656 Q65.5781,62.5 64.9688,62.5 L62.6719,62.5 Q62.0625,62.5 61.7969,62.2656 Q61.5313,62.0313 61.5313,61.6406 Q61.5313,61.2656 61.7969,61.0313 Q62.0625,60.7969 62.6719,60.7969 L63.0938,60.7969 L62.6875,59.7656 Z M61.9688,58.0625 L60.6094,54.6875 L59.2344,58.0625 L61.9688,58.0625 Z"/><text x="74.5" y="62.91" fill="#000" font-family="sans-serif" font-size="12" font-style="italic" lengthAdjust="spacingAndGlyphs" textLength="107">MouseInputAdapter</text><line style="stroke:#a80036;stroke-width:1.5" x1="46.5" x2="183.5" y1="74" y2="74"/><line style="stroke:#a80036;stroke-width:1.5" x1="46.5" x2="183.5" y1="82" y2="82"/><path id="javax.swing.event.MouseInputAdapter-backto-doa.engine.input.DoaMouse" fill="none" d="M115,110.48 C115,219.7 115,508.85 115,677.47" codeLine="113" style="stroke:#a80036;stroke-width:1"/><polygon fill="none" points="108 110.29 115 90.29 122 110.29 108 110.29" style="stroke:#a80036;stroke-width:1"/><text x="104.5" y="1477.381" fill="#888" font-family="sans-serif" font-size="10" lengthAdjust="spacingAndGlyphs" textLength="190">UMLDoclet 2.0.12, PlantUML 1.2020.16</text></g></svg>