<?xml version="1.0" encoding="UTF-8" standalone="no"?><svg xmlns="http://www.w3.org/2000/svg" xmlns:xlink="http://www.w3.org/1999/xlink" contentScriptType="application/ecmascript" contentStyleType="text/css" height="338px" preserveAspectRatio="none" style="width:202px;height:338px;" version="1.1" viewBox="0 0 202 338" width="202px" zoomAndPan="magnify"><defs><filter height="300%" id="f2hzh7jylpekf" width="300%" x="-1" y="-1"><feGaussianBlur result="blurOut" stdDeviation="2.0"/><feColorMatrix in="blurOut" result="blurOut2" type="matrix" values="0 0 0 0 0 0 0 0 0 0 0 0 0 0 0 0 0 0 .4 0"/><feOffset dx="4.0" dy="4.0" in="blurOut2" result="blurOut3"/><feBlend in="SourceGraphic" in2="blurOut3" mode="normal"/></filter></defs><g><!--MD5=[446a402d650adfd9c60db59099938794]
class doa.engine.scene.DoaComponent--><a href="DoaComponent.html" target="_top" title="DoaComponent.html" xlink:actuate="onRequest" xlink:href="DoaComponent.html" xlink:show="new" xlink:title="DoaComponent.html" xlink:type="simple"><rect codeLine="5" fill="#FEFECE" filter="url(#f2hzh7jylpekf)" height="194.5469" id="doa.engine.scene.DoaComponent" style="stroke: #A80036; stroke-width: 1.5;" width="161" x="18.5" y="107"/><ellipse cx="47" cy="127.0938" fill="#A9DCDF" rx="11" ry="11" style="stroke: #A80036; stroke-width: 1.0;"/><path d="M49.1875,128.8594 L45.0469,128.8594 L44.625,129.8906 L45.0469,129.8906 Q45.6563,129.8906 45.9219,130.125 Q46.1875,130.3594 46.1875,130.75 Q46.1875,131.125 45.9219,131.3594 Q45.6563,131.5938 45.0469,131.5938 L42.75,131.5938 Q42.1406,131.5938 41.8906,131.3594 Q41.625,131.125 41.625,130.7344 Q41.625,130.3594 41.9063,130.125 Q42.1719,129.875 42.7969,129.8906 L45.4688,123.2344 L44.3594,123.2344 Q43.75,123.2344 43.4844,123 Q43.2188,122.7656 43.2188,122.375 Q43.2188,122 43.4844,121.7656 Q43.75,121.5313 44.3594,121.5313 L48.0313,121.5313 L51.4219,129.8906 Q52.0156,129.8906 52.2031,130.0313 Q52.5938,130.2969 52.5938,130.75 Q52.5938,131.125 52.3281,131.3594 Q52.0781,131.5938 51.4688,131.5938 L49.1719,131.5938 Q48.5625,131.5938 48.2969,131.3594 Q48.0313,131.125 48.0313,130.7344 Q48.0313,130.3594 48.2969,130.125 Q48.5625,129.8906 49.1719,129.8906 L49.5938,129.8906 L49.1875,128.8594 Z M48.4688,127.1563 L47.1094,123.7813 L45.7344,127.1563 L48.4688,127.1563 Z "/><text fill="#000000" font-family="sans-serif" font-size="14" font-style="italic" lengthAdjust="spacingAndGlyphs" textLength="99" x="64" y="126.5332">DoaComponent</text><text fill="#000000" font-family="sans-serif" font-size="10" font-style="italic" lengthAdjust="spacingAndGlyphs" textLength="85" x="71" y="139.9902">doa.engine.scene</text><line style="stroke: #A80036; stroke-width: 1.5;" x1="19.5" x2="178.5" y1="147.1875" y2="147.1875"/><polygon fill="none" points="29.5,153.1875,33.5,157.1875,29.5,161.1875,25.5,157.1875" style="stroke: #B38D22; stroke-width: 1.0;"/><text fill="#000000" font-family="sans-serif" font-size="11" lengthAdjust="spacingAndGlyphs" textLength="90" x="38.5" y="162.6064">isEnabled: boolean</text><ellipse cx="29.5" cy="172.0234" fill="none" rx="3" ry="3" style="stroke: #038048; stroke-width: 1.0;"/><text fill="#000000" font-family="sans-serif" font-size="11" lengthAdjust="spacingAndGlyphs" textLength="60" x="38.5" y="176.4424">name: String</text><ellipse cx="29.5" cy="185.8594" fill="none" rx="3" ry="3" style="stroke: #038048; stroke-width: 1.0;"/><text fill="#000000" font-family="sans-serif" font-size="11" lengthAdjust="spacingAndGlyphs" textLength="109" x="38.5" y="190.2783">debugRender: boolean</text><line style="stroke: #A80036; stroke-width: 1.5;" x1="19.5" x2="178.5" y1="196.6953" y2="196.6953"/><polygon fill="#FFFF44" points="29.5,202.6953,33.5,206.6953,29.5,210.6953,25.5,206.6953" style="stroke: #B38D22; stroke-width: 1.0;"/><text fill="#000000" font-family="sans-serif" font-size="11" lengthAdjust="spacingAndGlyphs" textLength="47" x="38.5" y="212.1143">init(): void</text><polygon fill="#FFFF44" points="29.5,216.5313,33.5,220.5313,29.5,224.5313,25.5,220.5313" style="stroke: #B38D22; stroke-width: 1.0;"/><text fill="#000000" font-family="sans-serif" font-size="11" lengthAdjust="spacingAndGlyphs" textLength="116" x="38.5" y="225.9502">onAdd(DoaObject): void</text><polygon fill="#FFFF44" points="29.5,230.3672,33.5,234.3672,29.5,238.3672,25.5,234.3672" style="stroke: #B38D22; stroke-width: 1.0;"/><text fill="#000000" font-family="sans-serif" font-size="11" lengthAdjust="spacingAndGlyphs" textLength="135" x="38.5" y="239.7861">onRemove(DoaObject): void</text><ellipse cx="29.5" cy="249.2031" fill="#84BE84" rx="3" ry="3" style="stroke: #038048; stroke-width: 1.0;"/><text fill="#000000" font-family="sans-serif" font-size="11" lengthAdjust="spacingAndGlyphs" textLength="98" x="38.5" y="253.6221">isEnabled(): boolean</text><ellipse cx="29.5" cy="263.0391" fill="#84BE84" rx="3" ry="3" style="stroke: #038048; stroke-width: 1.0;"/><text fill="#000000" font-family="sans-serif" font-size="11" lengthAdjust="spacingAndGlyphs" textLength="66" x="38.5" y="267.458">enable(): void</text><ellipse cx="29.5" cy="276.875" fill="#84BE84" rx="3" ry="3" style="stroke: #038048; stroke-width: 1.0;"/><text fill="#000000" font-family="sans-serif" font-size="11" lengthAdjust="spacingAndGlyphs" textLength="68" x="38.5" y="281.2939">disable(): void</text><ellipse cx="29.5" cy="290.7109" fill="#84BE84" rx="3" ry="3" style="stroke: #038048; stroke-width: 1.0;"/><text fill="#000000" font-family="sans-serif" font-size="11" lengthAdjust="spacingAndGlyphs" textLength="113" x="38.5" y="295.1299">getOwner(): DoaObject</text></a><!--MD5=[5a5af9b0547913863cbe0ddf55a9ab5e]
class java.io.Serializable--><rect codeLine="18" fill="#FEFECE" filter="url(#f2hzh7jylpekf)" height="40.1875" id="java.io.Serializable" style="stroke: #A80036; stroke-width: 1.5;" width="105" x="46.5" y="7"/><ellipse cx="61.5" cy="27.0938" fill="#B4A7E5" rx="11" ry="11" style="stroke: #A80036; stroke-width: 1.0;"/><path d="M62.4531,23.7344 L62.4531,30.3906 L64.1719,30.3906 Q64.7813,30.3906 65.0469,30.625 Q65.3125,30.8594 65.3125,31.25 Q65.3125,31.625 65.0469,31.8594 Q64.7813,32.0938 64.1719,32.0938 L59.0313,32.0938 Q58.4219,32.0938 58.1563,31.8594 Q57.8906,31.625 57.8906,31.2344 Q57.8906,30.8594 58.1563,30.625 Q58.4219,30.3906 59.0313,30.3906 L60.75,30.3906 L60.75,23.7344 L59.0313,23.7344 Q58.4219,23.7344 58.1563,23.5 Q57.8906,23.2656 57.8906,22.875 Q57.8906,22.5 58.1563,22.2656 Q58.4219,22.0313 59.0313,22.0313 L64.1719,22.0313 Q64.7813,22.0313 65.0469,22.2656 Q65.3125,22.5 65.3125,22.875 Q65.3125,23.2656 65.0469,23.5 Q64.7813,23.7344 64.1719,23.7344 L62.4531,23.7344 Z "/><text fill="#000000" font-family="sans-serif" font-size="14" font-style="italic" lengthAdjust="spacingAndGlyphs" textLength="73" x="75.5" y="26.5332">Serializable</text><text fill="#000000" font-family="sans-serif" font-size="10" font-style="italic" lengthAdjust="spacingAndGlyphs" textLength="31" x="96.5" y="39.9902">java.io</text><!--MD5=[f7d31de98dd975c20868e47eff3056db]
reverse link java.io.Serializable to doa.engine.scene.DoaComponent--><path codeLine="20" d="M99,67.46 C99,79.33 99,92.91 99,106.79 " fill="none" id="java.io.Serializable-backto-doa.engine.scene.DoaComponent" style="stroke: #A80036; stroke-width: 1.0; stroke-dasharray: 7.0,7.0;"/><polygon fill="none" points="92,67.12,99,47.12,106,67.12,92,67.12" style="stroke: #A80036; stroke-width: 1.0;"/><text fill="#888888" font-family="sans-serif" font-size="10" lengthAdjust="spacingAndGlyphs" textLength="190" x="0" y="324.9277">UMLDoclet 2.0.12, PlantUML 1.2020.16</text><!--MD5=[7a6c7df3b8cf6401eb489cf58c5f1c03]
@startuml
    set namespaceSeparator none
    hide empty fields
    hide empty methods

    abstract class "<size:14>DoaComponent\n<size:10>doa.engine.scene" as doa.engine.scene.DoaComponent [[DoaComponent.html]] {
        #isEnabled: boolean
        +name: String
        +debugRender: boolean
        #init(): void
        #onAdd(DoaObject): void
        #onRemove(DoaObject): void
        +isEnabled(): boolean
        +enable(): void
        +disable(): void
        +getOwner(): DoaObject
    }

    interface "<size:14>Serializable\n<size:10>java.io" as java.io.Serializable

    java.io.Serializable <|.. doa.engine.scene.DoaComponent

    center footer UMLDoclet 2.0.12, PlantUML 1.2020.16
@enduml

PlantUML version 1.2020.16(Sun Aug 23 23:20:43 TRT 2020)
(APACHE source distribution)
Java Runtime: OpenJDK Runtime Environment
JVM: OpenJDK 64-Bit Server VM
Default Encoding: Cp1252
Language: en
Country: GB
--></g></svg>