<svg xmlns="http://www.w3.org/2000/svg" xmlns:xlink="http://www.w3.org/1999/xlink" width="202" height="338" contentScriptType="application/ecmascript" contentStyleType="text/css" style="width:202px;height:338px" preserveAspectRatio="none" version="1.1" viewBox="0 0 202 338" zoomAndPan="magnify"><defs><filter id="f2hzh7jylpekf" width="300%" height="300%" x="-1" y="-1"><feGaussianBlur result="blurOut" stdDeviation="2"/><feColorMatrix in="blurOut" result="blurOut2" type="matrix" values="0 0 0 0 0 0 0 0 0 0 0 0 0 0 0 0 0 0 .4 0"/><feOffset dx="4" dy="4" in="blurOut2" result="blurOut3"/><feBlend in="SourceGraphic" in2="blurOut3" mode="normal"/></filter></defs><g><a href="DoaComponent.html" target="_top" title="DoaComponent.html" xlink:actuate="onRequest" xlink:href="DoaComponent.html" xlink:show="new" xlink:title="DoaComponent.html" xlink:type="simple"><rect id="doa.engine.scene.DoaComponent" width="161" height="194.547" x="18.5" y="107" fill="#FEFECE" codeLine="5" filter="url(#f2hzh7jylpekf)" style="stroke:#a80036;stroke-width:1.5"/><ellipse cx="47" cy="127.094" fill="#A9DCDF" rx="11" ry="11" style="stroke:#a80036;stroke-width:1"/><path d="M49.1875,128.8594 L45.0469,128.8594 L44.625,129.8906 L45.0469,129.8906 Q45.6563,129.8906 45.9219,130.125 Q46.1875,130.3594 46.1875,130.75 Q46.1875,131.125 45.9219,131.3594 Q45.6563,131.5938 45.0469,131.5938 L42.75,131.5938 Q42.1406,131.5938 41.8906,131.3594 Q41.625,131.125 41.625,130.7344 Q41.625,130.3594 41.9063,130.125 Q42.1719,129.875 42.7969,129.8906 L45.4688,123.2344 L44.3594,123.2344 Q43.75,123.2344 43.4844,123 Q43.2188,122.7656 43.2188,122.375 Q43.2188,122 43.4844,121.7656 Q43.75,121.5313 44.3594,121.5313 L48.0313,121.5313 L51.4219,129.8906 Q52.0156,129.8906 52.2031,130.0313 Q52.5938,130.2969 52.5938,130.75 Q52.5938,131.125 52.3281,131.3594 Q52.0781,131.5938 51.4688,131.5938 L49.1719,131.5938 Q48.5625,131.5938 48.2969,131.3594 Q48.0313,131.125 48.0313,130.7344 Q48.0313,130.3594 48.2969,130.125 Q48.5625,129.8906 49.1719,129.8906 L49.5938,129.8906 L49.1875,128.8594 Z M48.4688,127.1563 L47.1094,123.7813 L45.7344,127.1563 L48.4688,127.1563 Z"/><text x="64" y="126.533" fill="#000" font-family="sans-serif" font-size="14" font-style="italic" lengthAdjust="spacingAndGlyphs" textLength="99">DoaComponent</text><text x="71" y="139.99" fill="#000" font-family="sans-serif" font-size="10" font-style="italic" lengthAdjust="spacingAndGlyphs" textLength="85">doa.engine.scene</text><line style="stroke:#a80036;stroke-width:1.5" x1="19.5" x2="178.5" y1="147.188" y2="147.188"/><polygon fill="none" points="29.5 153.188 33.5 157.188 29.5 161.188 25.5 157.188" style="stroke:#b38d22;stroke-width:1"/><text x="38.5" y="162.606" fill="#000" font-family="sans-serif" font-size="11" lengthAdjust="spacingAndGlyphs" textLength="90">isEnabled: boolean</text><ellipse cx="29.5" cy="172.023" fill="none" rx="3" ry="3" style="stroke:#038048;stroke-width:1"/><text x="38.5" y="176.442" fill="#000" font-family="sans-serif" font-size="11" lengthAdjust="spacingAndGlyphs" textLength="60">name: String</text><ellipse cx="29.5" cy="185.859" fill="none" rx="3" ry="3" style="stroke:#038048;stroke-width:1"/><text x="38.5" y="190.278" fill="#000" font-family="sans-serif" font-size="11" lengthAdjust="spacingAndGlyphs" textLength="109">debugRender: boolean</text><line style="stroke:#a80036;stroke-width:1.5" x1="19.5" x2="178.5" y1="196.695" y2="196.695"/><polygon fill="#FF4" points="29.5 202.695 33.5 206.695 29.5 210.695 25.5 206.695" style="stroke:#b38d22;stroke-width:1"/><text x="38.5" y="212.114" fill="#000" font-family="sans-serif" font-size="11" lengthAdjust="spacingAndGlyphs" textLength="47">init(): void</text><polygon fill="#FF4" points="29.5 216.531 33.5 220.531 29.5 224.531 25.5 220.531" style="stroke:#b38d22;stroke-width:1"/><text x="38.5" y="225.95" fill="#000" font-family="sans-serif" font-size="11" lengthAdjust="spacingAndGlyphs" textLength="116">onAdd(DoaObject): void</text><polygon fill="#FF4" points="29.5 230.367 33.5 234.367 29.5 238.367 25.5 234.367" style="stroke:#b38d22;stroke-width:1"/><text x="38.5" y="239.786" fill="#000" font-family="sans-serif" font-size="11" lengthAdjust="spacingAndGlyphs" textLength="135">onRemove(DoaObject): void</text><ellipse cx="29.5" cy="249.203" fill="#84BE84" rx="3" ry="3" style="stroke:#038048;stroke-width:1"/><text x="38.5" y="253.622" fill="#000" font-family="sans-serif" font-size="11" lengthAdjust="spacingAndGlyphs" textLength="98">isEnabled(): boolean</text><ellipse cx="29.5" cy="263.039" fill="#84BE84" rx="3" ry="3" style="stroke:#038048;stroke-width:1"/><text x="38.5" y="267.458" fill="#000" font-family="sans-serif" font-size="11" lengthAdjust="spacingAndGlyphs" textLength="66">enable(): void</text><ellipse cx="29.5" cy="276.875" fill="#84BE84" rx="3" ry="3" style="stroke:#038048;stroke-width:1"/><text x="38.5" y="281.294" fill="#000" font-family="sans-serif" font-size="11" lengthAdjust="spacingAndGlyphs" textLength="68">disable(): void</text><ellipse cx="29.5" cy="290.711" fill="#84BE84" rx="3" ry="3" style="stroke:#038048;stroke-width:1"/><text x="38.5" y="295.13" fill="#000" font-family="sans-serif" font-size="11" lengthAdjust="spacingAndGlyphs" textLength="113">getOwner(): DoaObject</text></a><rect id="java.io.Serializable" width="105" height="40.188" x="46.5" y="7" fill="#FEFECE" codeLine="18" filter="url(#f2hzh7jylpekf)" style="stroke:#a80036;stroke-width:1.5"/><ellipse cx="61.5" cy="27.094" fill="#B4A7E5" rx="11" ry="11" style="stroke:#a80036;stroke-width:1"/><path d="M62.4531,23.7344 L62.4531,30.3906 L64.1719,30.3906 Q64.7813,30.3906 65.0469,30.625 Q65.3125,30.8594 65.3125,31.25 Q65.3125,31.625 65.0469,31.8594 Q64.7813,32.0938 64.1719,32.0938 L59.0313,32.0938 Q58.4219,32.0938 58.1563,31.8594 Q57.8906,31.625 57.8906,31.2344 Q57.8906,30.8594 58.1563,30.625 Q58.4219,30.3906 59.0313,30.3906 L60.75,30.3906 L60.75,23.7344 L59.0313,23.7344 Q58.4219,23.7344 58.1563,23.5 Q57.8906,23.2656 57.8906,22.875 Q57.8906,22.5 58.1563,22.2656 Q58.4219,22.0313 59.0313,22.0313 L64.1719,22.0313 Q64.7813,22.0313 65.0469,22.2656 Q65.3125,22.5 65.3125,22.875 Q65.3125,23.2656 65.0469,23.5 Q64.7813,23.7344 64.1719,23.7344 L62.4531,23.7344 Z"/><text x="75.5" y="26.533" fill="#000" font-family="sans-serif" font-size="14" font-style="italic" lengthAdjust="spacingAndGlyphs" textLength="73">Serializable</text><text x="96.5" y="39.99" fill="#000" font-family="sans-serif" font-size="10" font-style="italic" lengthAdjust="spacingAndGlyphs" textLength="31">java.io</text><path id="java.io.Serializable-backto-doa.engine.scene.DoaComponent" fill="none" d="M99,67.46 C99,79.33 99,92.91 99,106.79" codeLine="20" style="stroke:#a80036;stroke-width:1;stroke-dasharray:7,7"/><polygon fill="none" points="92 67.12 99 47.12 106 67.12 92 67.12" style="stroke:#a80036;stroke-width:1"/><text x="0" y="324.928" fill="#888" font-family="sans-serif" font-size="10" lengthAdjust="spacingAndGlyphs" textLength="190">UMLDoclet 2.0.12, PlantUML 1.2020.16</text></g></svg>