<svg xmlns="http://www.w3.org/2000/svg" xmlns:xlink="http://www.w3.org/1999/xlink" width="342" height="170" contentScriptType="application/ecmascript" contentStyleType="text/css" style="width:342px;height:170px" preserveAspectRatio="none" version="1.1" viewBox="0 0 342 170" zoomAndPan="magnify"><defs><filter id="fye343unu9ig1" width="300%" height="300%" x="-1" y="-1"><feGaussianBlur result="blurOut" stdDeviation="2"/><feColorMatrix in="blurOut" result="blurOut2" type="matrix" values="0 0 0 0 0 0 0 0 0 0 0 0 0 0 0 0 0 0 .4 0"/><feOffset dx="4" dy="4" in="blurOut2" result="blurOut3"/><feBlend in="SourceGraphic" in2="blurOut3" mode="normal"/></filter></defs><g><a href="DoaObjectBuilder.html" target="_top" title="DoaObjectBuilder.html" xlink:actuate="onRequest" xlink:href="DoaObjectBuilder.html" xlink:show="new" xlink:title="DoaObjectBuilder.html" xlink:type="simple"><rect id="doa.engine.scene.DoaObjectBuilder" width="316" height="132.461" x="7" y="7" fill="#FEFECE" codeLine="5" filter="url(#fye343unu9ig1)" style="stroke:#a80036;stroke-width:1.5"/><ellipse cx="46.3" cy="34.641" fill="#ADD1B2" rx="11" ry="11" style="stroke:#a80036;stroke-width:1"/><path d="M49.0656,30.5156 Q49.2219,30.2969 49.4094,30.1875 Q49.5969,30.0781 49.8156,30.0781 Q50.1906,30.0781 50.425,30.3438 Q50.6594,30.5938 50.6594,31.2031 L50.6594,32.6563 Q50.6594,33.2656 50.425,33.5313 Q50.1906,33.7969 49.8156,33.7969 Q49.4719,33.7969 49.2688,33.5938 Q49.0656,33.4063 48.9563,32.8906 Q48.9094,32.5313 48.7219,32.3438 Q48.3938,31.9688 47.7844,31.75 Q47.175,31.5313 46.55,31.5313 Q45.7844,31.5313 45.1438,31.8594 Q44.5188,32.1875 44.0188,32.9375 Q43.5344,33.6875 43.5344,34.7188 L43.5344,35.8125 Q43.5344,37.0469 44.425,37.875 Q45.3156,38.6875 46.9094,38.6875 Q47.8469,38.6875 48.5031,38.4375 Q48.8938,38.2813 49.3156,37.8438 Q49.5813,37.5781 49.7219,37.5 Q49.8781,37.4219 50.0813,37.4219 Q50.4094,37.4219 50.6594,37.6875 Q50.925,37.9375 50.925,38.2813 Q50.925,38.625 50.5813,39.0313 Q50.0813,39.6094 49.2844,39.9375 Q48.2063,40.3906 46.9094,40.3906 Q45.3938,40.3906 44.1906,39.7656 Q43.2063,39.2656 42.5188,38.2031 Q41.8313,37.125 41.8313,35.8438 L41.8313,34.6875 Q41.8313,33.3594 42.4406,32.2188 Q43.0656,31.0625 44.1594,30.4531 Q45.2531,29.8281 46.4875,29.8281 Q47.2219,29.8281 47.8625,30 Q48.5188,30.1563 49.0656,30.5156 Z"/><text x="83.2" y="24.457" fill="#000" font-family="sans-serif" font-size="12" font-style="italic" lengthAdjust="spacingAndGlyphs" textLength="76">«deprecated»</text><text x="65.7" y="41.627" fill="#000" font-family="sans-serif" font-size="14" lengthAdjust="spacingAndGlyphs" textLength="111">DoaObjectBuilder</text><text x="78.7" y="55.084" fill="#000" font-family="sans-serif" font-size="10" lengthAdjust="spacingAndGlyphs" textLength="85">doa.engine.scene</text><rect style="stroke:#000;stroke-width:1;stroke-dasharray:2,2" width="117" height="17.094" x="209" y="4" fill="#FFF"/><text x="210" y="17.457" fill="#000" font-family="sans-serif" font-size="12" font-style="italic" lengthAdjust="spacingAndGlyphs" textLength="115">T extends DoaObject</text><line style="stroke:#a80036;stroke-width:1.5" x1="8" x2="322" y1="62.281" y2="62.281"/><ellipse cx="18" cy="73.281" fill="#84BE84" rx="3" ry="3" style="stroke:#038048;stroke-width:1"/><text x="27" y="77.7" fill="#000" font-family="sans-serif" font-size="11" lengthAdjust="spacingAndGlyphs" textLength="231">DoaObjectBuilder(Class&lt;T extends DoaObject&gt;)</text><ellipse cx="18" cy="87.117" fill="#84BE84" rx="3" ry="3" style="stroke:#038048;stroke-width:1"/><text x="27" y="91.536" fill="#000" font-family="sans-serif" font-size="11" lengthAdjust="spacingAndGlyphs" textLength="272">args(Object...): DoaObjectBuilder&lt;T extends DoaObject&gt;</text><ellipse cx="18" cy="100.953" fill="#84BE84" rx="3" ry="3" style="stroke:#038048;stroke-width:1"/><text x="27" y="105.372" fill="#000" font-family="sans-serif" font-size="11" lengthAdjust="spacingAndGlyphs" textLength="290">scene(DoaScene): DoaObjectBuilder&lt;T extends DoaObject&gt;</text><ellipse cx="18" cy="114.789" fill="#84BE84" rx="3" ry="3" style="stroke:#038048;stroke-width:1"/><text x="27" y="119.208" fill="#000" font-family="sans-serif" font-size="11" lengthAdjust="spacingAndGlyphs" textLength="164">instantiate(): T extends DoaObject</text><ellipse cx="18" cy="128.625" fill="#84BE84" rx="3" ry="3" style="stroke:#038048;stroke-width:1"/><text x="27" y="133.044" fill="#000" font-family="sans-serif" font-size="11" lengthAdjust="spacingAndGlyphs" textLength="212">instantiateAndReset(): T extends DoaObject</text></a><text x="70" y="156.842" fill="#888" font-family="sans-serif" font-size="10" lengthAdjust="spacingAndGlyphs" textLength="190">UMLDoclet 2.0.12, PlantUML 1.2020.16</text></g></svg>