<?xml version="1.0" encoding="UTF-8" standalone="no"?><svg xmlns="http://www.w3.org/2000/svg" xmlns:xlink="http://www.w3.org/1999/xlink" contentScriptType="application/ecmascript" contentStyleType="text/css" height="449px" preserveAspectRatio="none" style="width:461px;height:449px;" version="1.1" viewBox="0 0 461 449" width="461px" zoomAndPan="magnify"><defs><filter height="300%" id="f8g6r6mz5rqio" width="300%" x="-1" y="-1"><feGaussianBlur result="blurOut" stdDeviation="2.0"/><feColorMatrix in="blurOut" result="blurOut2" type="matrix" values="0 0 0 0 0 0 0 0 0 0 0 0 0 0 0 0 0 0 .4 0"/><feOffset dx="4.0" dy="4.0" in="blurOut2" result="blurOut3"/><feBlend in="SourceGraphic" in2="blurOut3" mode="normal"/></filter></defs><g><!--MD5=[ffe024f1fe6414601fb2beb518c0fe71]
class doa.engine.scene.DoaObject--><a href="DoaObject.html" target="_top" title="DoaObject.html" xlink:actuate="onRequest" xlink:href="DoaObject.html" xlink:show="new" xlink:title="DoaObject.html" xlink:type="simple"><rect codeLine="5" fill="#FEFECE" filter="url(#f8g6r6mz5rqio)" height="305.2344" id="doa.engine.scene.DoaObject" style="stroke: #A80036; stroke-width: 1.5;" width="433" x="9" y="107"/><ellipse cx="178.75" cy="127.0938" fill="#ADD1B2" rx="11" ry="11" style="stroke: #A80036; stroke-width: 1.0;"/><path d="M181.5156,122.9688 Q181.6719,122.75 181.8594,122.6406 Q182.0469,122.5313 182.2656,122.5313 Q182.6406,122.5313 182.875,122.7969 Q183.1094,123.0469 183.1094,123.6563 L183.1094,125.1094 Q183.1094,125.7188 182.875,125.9844 Q182.6406,126.25 182.2656,126.25 Q181.9219,126.25 181.7188,126.0469 Q181.5156,125.8594 181.4063,125.3438 Q181.3594,124.9844 181.1719,124.7969 Q180.8438,124.4219 180.2344,124.2031 Q179.625,123.9844 179,123.9844 Q178.2344,123.9844 177.5938,124.3125 Q176.9688,124.6406 176.4688,125.3906 Q175.9844,126.1406 175.9844,127.1719 L175.9844,128.2656 Q175.9844,129.5 176.875,130.3281 Q177.7656,131.1406 179.3594,131.1406 Q180.2969,131.1406 180.9531,130.8906 Q181.3438,130.7344 181.7656,130.2969 Q182.0313,130.0313 182.1719,129.9531 Q182.3281,129.875 182.5313,129.875 Q182.8594,129.875 183.1094,130.1406 Q183.375,130.3906 183.375,130.7344 Q183.375,131.0781 183.0313,131.4844 Q182.5313,132.0625 181.7344,132.3906 Q180.6563,132.8438 179.3594,132.8438 Q177.8438,132.8438 176.6406,132.2188 Q175.6563,131.7188 174.9688,130.6563 Q174.2813,129.5781 174.2813,128.2969 L174.2813,127.1406 Q174.2813,125.8125 174.8906,124.6719 Q175.5156,123.5156 176.6094,122.9063 Q177.7031,122.2813 178.9375,122.2813 Q179.6719,122.2813 180.3125,122.4531 Q180.9688,122.6094 181.5156,122.9688 Z "/><text fill="#000000" font-family="sans-serif" font-size="14" lengthAdjust="spacingAndGlyphs" textLength="67" x="208.25" y="126.5332">DoaObject</text><text fill="#000000" font-family="sans-serif" font-size="10" lengthAdjust="spacingAndGlyphs" textLength="85" x="199.25" y="139.9902">doa.engine.scene</text><line style="stroke: #A80036; stroke-width: 1.5;" x1="10" x2="441" y1="147.1875" y2="147.1875"/><ellipse cx="20" cy="158.1875" fill="none" rx="3" ry="3" style="stroke: #038048; stroke-width: 1.0;"/><text fill="#000000" font-family="sans-serif" font-size="11" lengthAdjust="spacingAndGlyphs" textLength="122" x="29" y="162.6064">transform: DoaTransform</text><ellipse cx="20" cy="172.0234" fill="none" rx="3" ry="3" style="stroke: #038048; stroke-width: 1.0;"/><text fill="#000000" font-family="sans-serif" font-size="11" lengthAdjust="spacingAndGlyphs" textLength="118" x="29" y="176.4424">rigidBody: DoaRigidBody</text><polygon fill="none" points="20,180.8594,24,184.8594,20,188.8594,16,184.8594" style="stroke: #B38D22; stroke-width: 1.0;"/><text fill="#000000" font-family="sans-serif" font-size="11" lengthAdjust="spacingAndGlyphs" textLength="195" x="29" y="190.2783">components: ArrayList&lt;DoaComponent&gt;</text><ellipse cx="20" cy="199.6953" fill="none" rx="3" ry="3" style="stroke: #038048; stroke-width: 1.0;"/><text fill="#000000" font-family="sans-serif" font-size="11" lengthAdjust="spacingAndGlyphs" textLength="60" x="29" y="204.1143">name: String</text><line style="stroke: #A80036; stroke-width: 1.5;" x1="10" x2="441" y1="210.5313" y2="210.5313"/><ellipse cx="20" cy="221.5313" fill="#84BE84" rx="3" ry="3" style="stroke: #038048; stroke-width: 1.0;"/><text fill="#000000" font-family="sans-serif" font-size="11" lengthAdjust="spacingAndGlyphs" textLength="58" x="29" y="225.9502">DoaObject()</text><ellipse cx="20" cy="235.3672" fill="#84BE84" rx="3" ry="3" style="stroke: #038048; stroke-width: 1.0;"/><text fill="#000000" font-family="sans-serif" font-size="11" lengthAdjust="spacingAndGlyphs" textLength="86" x="29" y="239.7861">DoaObject(String)</text><ellipse cx="20" cy="249.2031" fill="#84BE84" rx="3" ry="3" style="stroke: #038048; stroke-width: 1.0;"/><text fill="#000000" font-family="sans-serif" font-size="11" lengthAdjust="spacingAndGlyphs" textLength="116" x="29" y="253.6221">makeStatic(): DoaObject</text><ellipse cx="20" cy="263.0391" fill="#84BE84" rx="3" ry="3" style="stroke: #038048; stroke-width: 1.0;"/><text fill="#000000" font-family="sans-serif" font-size="11" lengthAdjust="spacingAndGlyphs" textLength="130" x="29" y="267.458">makeDynamic(): DoaObject</text><ellipse cx="20" cy="276.875" fill="#84BE84" rx="3" ry="3" style="stroke: #038048; stroke-width: 1.0;"/><text fill="#000000" font-family="sans-serif" font-size="11" lengthAdjust="spacingAndGlyphs" textLength="101" x="29" y="281.2939">isDynamic(): boolean</text><ellipse cx="20" cy="290.7109" fill="#84BE84" rx="3" ry="3" style="stroke: #038048; stroke-width: 1.0;"/><text fill="#000000" font-family="sans-serif" font-size="11" lengthAdjust="spacingAndGlyphs" textLength="110" x="29" y="295.1299">getScene(): DoaScene</text><ellipse cx="20" cy="304.5469" fill="#84BE84" rx="3" ry="3" style="stroke: #038048; stroke-width: 1.0;"/><text fill="#000000" font-family="sans-serif" font-size="11" lengthAdjust="spacingAndGlyphs" textLength="74" x="29" y="308.9658">getzOrder(): int</text><ellipse cx="20" cy="318.3828" fill="#84BE84" rx="3" ry="3" style="stroke: #038048; stroke-width: 1.0;"/><text fill="#000000" font-family="sans-serif" font-size="11" lengthAdjust="spacingAndGlyphs" textLength="407" x="29" y="322.8018">getComponentByType(Class&lt;T extends DoaComponent&gt;): Optional&lt;DoaComponent&gt;</text><ellipse cx="20" cy="332.2188" fill="#84BE84" rx="3" ry="3" style="stroke: #038048; stroke-width: 1.0;"/><text fill="#000000" font-family="sans-serif" font-size="11" lengthAdjust="spacingAndGlyphs" textLength="217" x="29" y="336.6377">getComponentsView(): List&lt;DoaComponent&gt;</text><ellipse cx="20" cy="346.0547" fill="#84BE84" rx="3" ry="3" style="stroke: #038048; stroke-width: 1.0;"/><text fill="#000000" font-family="sans-serif" font-size="11" lengthAdjust="spacingAndGlyphs" textLength="94" x="29" y="350.4736">setzOrder(int): void</text><ellipse cx="20" cy="359.8906" fill="#84BE84" rx="3" ry="3" style="stroke: #038048; stroke-width: 1.0;"/><text fill="#000000" font-family="sans-serif" font-size="11" lengthAdjust="spacingAndGlyphs" textLength="159" x="29" y="364.3096">onAddToScene(DoaScene): void</text><ellipse cx="20" cy="373.7266" fill="#84BE84" rx="3" ry="3" style="stroke: #038048; stroke-width: 1.0;"/><text fill="#000000" font-family="sans-serif" font-size="11" lengthAdjust="spacingAndGlyphs" textLength="190" x="29" y="378.1455">onRemoveFromScene(DoaScene): void</text><ellipse cx="20" cy="387.5625" fill="#84BE84" rx="3" ry="3" style="stroke: #038048; stroke-width: 1.0;"/><text fill="#000000" font-family="sans-serif" font-size="11" lengthAdjust="spacingAndGlyphs" textLength="179" x="29" y="391.9814">addComponent(DoaComponent): void</text><ellipse cx="20" cy="401.3984" fill="#84BE84" rx="3" ry="3" style="stroke: #038048; stroke-width: 1.0;"/><text fill="#000000" font-family="sans-serif" font-size="11" lengthAdjust="spacingAndGlyphs" textLength="197" x="29" y="405.8174">removeComponent(DoaComponent): void</text></a><!--MD5=[5a5af9b0547913863cbe0ddf55a9ab5e]
class java.io.Serializable--><rect codeLine="26" fill="#FEFECE" filter="url(#f8g6r6mz5rqio)" height="40.1875" id="java.io.Serializable" style="stroke: #A80036; stroke-width: 1.5;" width="105" x="173" y="7"/><ellipse cx="188" cy="27.0938" fill="#B4A7E5" rx="11" ry="11" style="stroke: #A80036; stroke-width: 1.0;"/><path d="M188.9531,23.7344 L188.9531,30.3906 L190.6719,30.3906 Q191.2813,30.3906 191.5469,30.625 Q191.8125,30.8594 191.8125,31.25 Q191.8125,31.625 191.5469,31.8594 Q191.2813,32.0938 190.6719,32.0938 L185.5313,32.0938 Q184.9219,32.0938 184.6563,31.8594 Q184.3906,31.625 184.3906,31.2344 Q184.3906,30.8594 184.6563,30.625 Q184.9219,30.3906 185.5313,30.3906 L187.25,30.3906 L187.25,23.7344 L185.5313,23.7344 Q184.9219,23.7344 184.6563,23.5 Q184.3906,23.2656 184.3906,22.875 Q184.3906,22.5 184.6563,22.2656 Q184.9219,22.0313 185.5313,22.0313 L190.6719,22.0313 Q191.2813,22.0313 191.5469,22.2656 Q191.8125,22.5 191.8125,22.875 Q191.8125,23.2656 191.5469,23.5 Q191.2813,23.7344 190.6719,23.7344 L188.9531,23.7344 Z "/><text fill="#000000" font-family="sans-serif" font-size="14" font-style="italic" lengthAdjust="spacingAndGlyphs" textLength="73" x="202" y="26.5332">Serializable</text><text fill="#000000" font-family="sans-serif" font-size="10" font-style="italic" lengthAdjust="spacingAndGlyphs" textLength="31" x="223" y="39.9902">java.io</text><!--MD5=[b7207a935f9e14dbe44549960bb12fa9]
reverse link java.io.Serializable to doa.engine.scene.DoaObject--><path codeLine="28" d="M225.5,67.57 C225.5,79.15 225.5,92.56 225.5,106.8 " fill="none" id="java.io.Serializable-backto-doa.engine.scene.DoaObject" style="stroke: #A80036; stroke-width: 1.0; stroke-dasharray: 7.0,7.0;"/><polygon fill="none" points="218.5,67.26,225.5,47.26,232.5,67.26,218.5,67.26" style="stroke: #A80036; stroke-width: 1.0;"/><text fill="#888888" font-family="sans-serif" font-size="10" lengthAdjust="spacingAndGlyphs" textLength="190" x="126.5" y="435.6152">UMLDoclet 2.0.12, PlantUML 1.2020.16</text><!--MD5=[32ed7677a72a1aef902089c86a67ffb2]
@startuml
    set namespaceSeparator none
    hide empty fields
    hide empty methods

    class "<size:14>DoaObject\n<size:10>doa.engine.scene" as doa.engine.scene.DoaObject [[DoaObject.html]] {
        +transform: DoaTransform
        +rigidBody: DoaRigidBody
        #components: ArrayList<DoaComponent>
        +name: String
        +DoaObject()
        +DoaObject(String)
        +makeStatic(): DoaObject
        +makeDynamic(): DoaObject
        +isDynamic(): boolean
        +getScene(): DoaScene
        +getzOrder(): int
        +getComponentByType(Class<T extends DoaComponent>): Optional<DoaComponent>
        +getComponentsView(): List<DoaComponent>
        +setzOrder(int): void
        +onAddToScene(DoaScene): void
        +onRemoveFromScene(DoaScene): void
        +addComponent(DoaComponent): void
        +removeComponent(DoaComponent): void
    }

    interface "<size:14>Serializable\n<size:10>java.io" as java.io.Serializable

    java.io.Serializable <|.. doa.engine.scene.DoaObject

    center footer UMLDoclet 2.0.12, PlantUML 1.2020.16
@enduml

PlantUML version 1.2020.16(Sun Aug 23 23:20:43 TRT 2020)
(APACHE source distribution)
Java Runtime: OpenJDK Runtime Environment
JVM: OpenJDK 64-Bit Server VM
Default Encoding: Cp1252
Language: en
Country: GB
--></g></svg>