<?xml version="1.0" encoding="UTF-8" standalone="no"?><svg xmlns="http://www.w3.org/2000/svg" xmlns:xlink="http://www.w3.org/1999/xlink" contentScriptType="application/ecmascript" contentStyleType="text/css" height="199px" preserveAspectRatio="none" style="width:262px;height:199px;" version="1.1" viewBox="0 0 262 199" width="262px" zoomAndPan="magnify"><defs><filter height="300%" id="f1esquk6gpgo90" width="300%" x="-1" y="-1"><feGaussianBlur result="blurOut" stdDeviation="2.0"/><feColorMatrix in="blurOut" result="blurOut2" type="matrix" values="0 0 0 0 0 0 0 0 0 0 0 0 0 0 0 0 0 0 .4 0"/><feOffset dx="4.0" dy="4.0" in="blurOut2" result="blurOut3"/><feBlend in="SourceGraphic" in2="blurOut3" mode="normal"/></filter></defs><g><!--MD5=[f70cfa74cac33de2f0a09db8702041f6]
class doa.engine.scene.DoaObjectInstantiationException--><a href="DoaObjectInstantiationException.html" target="_top" title="DoaObjectInstantiationException.html" xlink:actuate="onRequest" xlink:href="DoaObjectInstantiationException.html" xlink:show="new" xlink:title="DoaObjectInstantiationException.html" xlink:type="simple"><rect codeLine="5" fill="#FEFECE" filter="url(#f1esquk6gpgo90)" height="55.2813" id="doa.engine.scene.DoaObjectInstantiationException" style="stroke: #A80036; stroke-width: 1.5;" width="236" x="7" y="107"/><ellipse cx="22" cy="134.6406" fill="#ADD1B2" rx="11" ry="11" style="stroke: #A80036; stroke-width: 1.0;"/><path d="M24.7656,130.5156 Q24.9219,130.2969 25.1094,130.1875 Q25.2969,130.0781 25.5156,130.0781 Q25.8906,130.0781 26.125,130.3438 Q26.3594,130.5938 26.3594,131.2031 L26.3594,132.6563 Q26.3594,133.2656 26.125,133.5313 Q25.8906,133.7969 25.5156,133.7969 Q25.1719,133.7969 24.9688,133.5938 Q24.7656,133.4063 24.6563,132.8906 Q24.6094,132.5313 24.4219,132.3438 Q24.0938,131.9688 23.4844,131.75 Q22.875,131.5313 22.25,131.5313 Q21.4844,131.5313 20.8438,131.8594 Q20.2188,132.1875 19.7188,132.9375 Q19.2344,133.6875 19.2344,134.7188 L19.2344,135.8125 Q19.2344,137.0469 20.125,137.875 Q21.0156,138.6875 22.6094,138.6875 Q23.5469,138.6875 24.2031,138.4375 Q24.5938,138.2813 25.0156,137.8438 Q25.2813,137.5781 25.4219,137.5 Q25.5781,137.4219 25.7813,137.4219 Q26.1094,137.4219 26.3594,137.6875 Q26.625,137.9375 26.625,138.2813 Q26.625,138.625 26.2813,139.0313 Q25.7813,139.6094 24.9844,139.9375 Q23.9063,140.3906 22.6094,140.3906 Q21.0938,140.3906 19.8906,139.7656 Q18.9063,139.2656 18.2188,138.2031 Q17.5313,137.125 17.5313,135.8438 L17.5313,134.6875 Q17.5313,133.3594 18.1406,132.2188 Q18.7656,131.0625 19.8594,130.4531 Q20.9531,129.8281 22.1875,129.8281 Q22.9219,129.8281 23.5625,130 Q24.2188,130.1563 24.7656,130.5156 Z "/><text fill="#000000" font-family="sans-serif" font-size="12" font-style="italic" lengthAdjust="spacingAndGlyphs" textLength="76" x="100" y="124.457">«deprecated»</text><text fill="#000000" font-family="sans-serif" font-size="14" lengthAdjust="spacingAndGlyphs" textLength="204" x="36" y="141.627">DoaObjectInstantiationException</text><text fill="#000000" font-family="sans-serif" font-size="10" lengthAdjust="spacingAndGlyphs" textLength="85" x="95.5" y="155.084">doa.engine.scene</text></a><!--MD5=[2afb58502a29dd3bb64ab9e2ee6700c7]
class java.lang.IllegalArgumentException--><rect codeLine="8" fill="#FEFECE" filter="url(#f1esquk6gpgo90)" height="40.1875" id="java.lang.IllegalArgumentException" style="stroke: #A80036; stroke-width: 1.5;" width="190" x="30" y="7"/><ellipse cx="45" cy="27.0938" fill="#ADD1B2" rx="11" ry="11" style="stroke: #A80036; stroke-width: 1.0;"/><path d="M47.7656,22.9688 Q47.9219,22.75 48.1094,22.6406 Q48.2969,22.5313 48.5156,22.5313 Q48.8906,22.5313 49.125,22.7969 Q49.3594,23.0469 49.3594,23.6563 L49.3594,25.1094 Q49.3594,25.7188 49.125,25.9844 Q48.8906,26.25 48.5156,26.25 Q48.1719,26.25 47.9688,26.0469 Q47.7656,25.8594 47.6563,25.3438 Q47.6094,24.9844 47.4219,24.7969 Q47.0938,24.4219 46.4844,24.2031 Q45.875,23.9844 45.25,23.9844 Q44.4844,23.9844 43.8438,24.3125 Q43.2188,24.6406 42.7188,25.3906 Q42.2344,26.1406 42.2344,27.1719 L42.2344,28.2656 Q42.2344,29.5 43.125,30.3281 Q44.0156,31.1406 45.6094,31.1406 Q46.5469,31.1406 47.2031,30.8906 Q47.5938,30.7344 48.0156,30.2969 Q48.2813,30.0313 48.4219,29.9531 Q48.5781,29.875 48.7813,29.875 Q49.1094,29.875 49.3594,30.1406 Q49.625,30.3906 49.625,30.7344 Q49.625,31.0781 49.2813,31.4844 Q48.7813,32.0625 47.9844,32.3906 Q46.9063,32.8438 45.6094,32.8438 Q44.0938,32.8438 42.8906,32.2188 Q41.9063,31.7188 41.2188,30.6563 Q40.5313,29.5781 40.5313,28.2969 L40.5313,27.1406 Q40.5313,25.8125 41.1406,24.6719 Q41.7656,23.5156 42.8594,22.9063 Q43.9531,22.2813 45.1875,22.2813 Q45.9219,22.2813 46.5625,22.4531 Q47.2188,22.6094 47.7656,22.9688 Z "/><text fill="#000000" font-family="sans-serif" font-size="14" lengthAdjust="spacingAndGlyphs" textLength="158" x="59" y="26.5332">IllegalArgumentException</text><text fill="#000000" font-family="sans-serif" font-size="10" lengthAdjust="spacingAndGlyphs" textLength="44" x="116" y="39.9902">java.lang</text><!--MD5=[648e495077770fb2046e3a2ee9d213e1]
reverse link java.lang.IllegalArgumentException to doa.engine.scene.DoaObjectInstantiationException--><path codeLine="10" d="M125,67.62 C125,80.67 125,94.86 125,106.72 " fill="none" id="java.lang.IllegalArgumentException-backto-doa.engine.scene.DoaObjectInstantiationException" style="stroke: #A80036; stroke-width: 1.0;"/><polygon fill="none" points="118,67.35,125,47.35,132,67.35,118,67.35" style="stroke: #A80036; stroke-width: 1.0;"/><text fill="#888888" font-family="sans-serif" font-size="10" lengthAdjust="spacingAndGlyphs" textLength="190" x="27" y="185.6621">UMLDoclet 2.0.12, PlantUML 1.2020.16</text><!--MD5=[eff2b504038991386f66322f19a3cfce]
@startuml
    set namespaceSeparator none
    hide empty fields
    hide empty methods

    class "<size:14>DoaObjectInstantiationException\n<size:10>doa.engine.scene" as doa.engine.scene.DoaObjectInstantiationException <<deprecated>> [[DoaObjectInstantiationException.html]] {
    }

    class "<size:14>IllegalArgumentException\n<size:10>java.lang" as java.lang.IllegalArgumentException

    java.lang.IllegalArgumentException <|- - doa.engine.scene.DoaObjectInstantiationException

    center footer UMLDoclet 2.0.12, PlantUML 1.2020.16
@enduml

PlantUML version 1.2020.16(Sun Aug 23 23:20:43 TRT 2020)
(APACHE source distribution)
Java Runtime: OpenJDK Runtime Environment
JVM: OpenJDK 64-Bit Server VM
Default Encoding: Cp1252
Language: en
Country: GB
--></g></svg>