<svg xmlns="http://www.w3.org/2000/svg" xmlns:xlink="http://www.w3.org/1999/xlink" width="202" height="163" contentScriptType="application/ecmascript" contentStyleType="text/css" style="width:202px;height:163px" preserveAspectRatio="none" version="1.1" viewBox="0 0 202 163" zoomAndPan="magnify"><defs><filter id="f1atuitca730zn" width="300%" height="300%" x="-1" y="-1"><feGaussianBlur result="blurOut" stdDeviation="2"/><feColorMatrix in="blurOut" result="blurOut2" type="matrix" values="0 0 0 0 0 0 0 0 0 0 0 0 0 0 0 0 0 0 .4 0"/><feOffset dx="4" dy="4" in="blurOut2" result="blurOut3"/><feBlend in="SourceGraphic" in2="blurOut3" mode="normal"/></filter></defs><g><a href="DoaPhysics.html" target="_top" title="DoaPhysics.html" xlink:actuate="onRequest" xlink:href="DoaPhysics.html" xlink:show="new" xlink:title="DoaPhysics.html" xlink:type="simple"><rect id="doa.engine.scene.DoaPhysics" width="126" height="125.367" x="32" y="7" fill="#FEFECE" codeLine="5" filter="url(#f1atuitca730zn)" style="stroke:#a80036;stroke-width:1.5"/><ellipse cx="51.05" cy="27.094" fill="#ADD1B2" rx="11" ry="11" style="stroke:#a80036;stroke-width:1"/><path d="M53.8156,22.9688 Q53.9719,22.75 54.1594,22.6406 Q54.3469,22.5313 54.5656,22.5313 Q54.9406,22.5313 55.175,22.7969 Q55.4094,23.0469 55.4094,23.6563 L55.4094,25.1094 Q55.4094,25.7188 55.175,25.9844 Q54.9406,26.25 54.5656,26.25 Q54.2219,26.25 54.0188,26.0469 Q53.8156,25.8594 53.7063,25.3438 Q53.6594,24.9844 53.4719,24.7969 Q53.1438,24.4219 52.5344,24.2031 Q51.925,23.9844 51.3,23.9844 Q50.5344,23.9844 49.8938,24.3125 Q49.2688,24.6406 48.7688,25.3906 Q48.2844,26.1406 48.2844,27.1719 L48.2844,28.2656 Q48.2844,29.5 49.175,30.3281 Q50.0656,31.1406 51.6594,31.1406 Q52.5969,31.1406 53.2531,30.8906 Q53.6438,30.7344 54.0656,30.2969 Q54.3313,30.0313 54.4719,29.9531 Q54.6281,29.875 54.8313,29.875 Q55.1594,29.875 55.4094,30.1406 Q55.675,30.3906 55.675,30.7344 Q55.675,31.0781 55.3313,31.4844 Q54.8313,32.0625 54.0344,32.3906 Q52.9563,32.8438 51.6594,32.8438 Q50.1438,32.8438 48.9406,32.2188 Q47.9563,31.7188 47.2688,30.6563 Q46.5813,29.5781 46.5813,28.2969 L46.5813,27.1406 Q46.5813,25.8125 47.1906,24.6719 Q47.8156,23.5156 48.9094,22.9063 Q50.0031,22.2813 51.2375,22.2813 Q51.9719,22.2813 52.6125,22.4531 Q53.2688,22.6094 53.8156,22.9688 Z"/><text x="71.45" y="26.533" fill="#000" font-family="sans-serif" font-size="14" lengthAdjust="spacingAndGlyphs" textLength="74">DoaPhysics</text><text x="65.95" y="39.99" fill="#000" font-family="sans-serif" font-size="10" lengthAdjust="spacingAndGlyphs" textLength="85">doa.engine.scene</text><line style="stroke:#a80036;stroke-width:1.5" x1="33" x2="157" y1="47.188" y2="47.188"/><ellipse cx="43" cy="58.188" fill="none" rx="3" ry="3" style="stroke:#038048;stroke-width:1"/><text x="52" y="62.606" fill="#000" font-family="sans-serif" font-size="11" lengthAdjust="spacingAndGlyphs" text-decoration="underline" textLength="93">Gravity: DoaVector</text><ellipse cx="43" cy="72.023" fill="none" rx="3" ry="3" style="stroke:#038048;stroke-width:1"/><text x="52" y="76.442" fill="#000" font-family="sans-serif" font-size="11" lengthAdjust="spacingAndGlyphs" text-decoration="underline" textLength="47">PPM: float</text><ellipse cx="43" cy="85.859" fill="none" rx="3" ry="3" style="stroke:#038048;stroke-width:1"/><text x="52" y="90.278" fill="#000" font-family="sans-serif" font-size="11" lengthAdjust="spacingAndGlyphs" text-decoration="underline" textLength="100">VelocityIterations: int</text><ellipse cx="43" cy="99.695" fill="none" rx="3" ry="3" style="stroke:#038048;stroke-width:1"/><text x="52" y="104.114" fill="#000" font-family="sans-serif" font-size="11" lengthAdjust="spacingAndGlyphs" text-decoration="underline" textLength="98">PositionIterations: int</text><line style="stroke:#a80036;stroke-width:1.5" x1="33" x2="157" y1="110.531" y2="110.531"/><ellipse cx="43" cy="121.531" fill="#84BE84" rx="3" ry="3" style="stroke:#038048;stroke-width:1"/><text x="52" y="125.95" fill="#000" font-family="sans-serif" font-size="11" lengthAdjust="spacingAndGlyphs" textLength="61">tick(int): void</text></a><text x="0" y="149.748" fill="#888" font-family="sans-serif" font-size="10" lengthAdjust="spacingAndGlyphs" textLength="190">UMLDoclet 2.0.12, PlantUML 1.2020.16</text></g></svg>