<?xml version="1.0" encoding="UTF-8" standalone="no"?><svg xmlns="http://www.w3.org/2000/svg" xmlns:xlink="http://www.w3.org/1999/xlink" contentScriptType="application/ecmascript" contentStyleType="text/css" height="358px" preserveAspectRatio="none" style="width:220px;height:358px;" version="1.1" viewBox="0 0 220 358" width="220px" zoomAndPan="magnify"><defs><filter height="300%" id="f1d518p9zlde2d" width="300%" x="-1" y="-1"><feGaussianBlur result="blurOut" stdDeviation="2.0"/><feColorMatrix in="blurOut" result="blurOut2" type="matrix" values="0 0 0 0 0 0 0 0 0 0 0 0 0 0 0 0 0 0 .4 0"/><feOffset dx="4.0" dy="4.0" in="blurOut2" result="blurOut3"/><feBlend in="SourceGraphic" in2="blurOut3" mode="normal"/></filter></defs><g><!--MD5=[ebfd6542950b85ebd6357fcb2cec0aec]
class doa.engine.scene.DoaScene--><a href="DoaScene.html" target="_top" title="DoaScene.html" xlink:actuate="onRequest" xlink:href="DoaScene.html" xlink:show="new" xlink:title="DoaScene.html" xlink:type="simple"><rect codeLine="5" fill="#FEFECE" filter="url(#f1d518p9zlde2d)" height="214.2188" id="doa.engine.scene.DoaScene" style="stroke: #A80036; stroke-width: 1.5;" width="194" x="7" y="107"/><ellipse cx="57.25" cy="127.0938" fill="#ADD1B2" rx="11" ry="11" style="stroke: #A80036; stroke-width: 1.0;"/><path d="M60.0156,122.9688 Q60.1719,122.75 60.3594,122.6406 Q60.5469,122.5313 60.7656,122.5313 Q61.1406,122.5313 61.375,122.7969 Q61.6094,123.0469 61.6094,123.6563 L61.6094,125.1094 Q61.6094,125.7188 61.375,125.9844 Q61.1406,126.25 60.7656,126.25 Q60.4219,126.25 60.2188,126.0469 Q60.0156,125.8594 59.9063,125.3438 Q59.8594,124.9844 59.6719,124.7969 Q59.3438,124.4219 58.7344,124.2031 Q58.125,123.9844 57.5,123.9844 Q56.7344,123.9844 56.0938,124.3125 Q55.4688,124.6406 54.9688,125.3906 Q54.4844,126.1406 54.4844,127.1719 L54.4844,128.2656 Q54.4844,129.5 55.375,130.3281 Q56.2656,131.1406 57.8594,131.1406 Q58.7969,131.1406 59.4531,130.8906 Q59.8438,130.7344 60.2656,130.2969 Q60.5313,130.0313 60.6719,129.9531 Q60.8281,129.875 61.0313,129.875 Q61.3594,129.875 61.6094,130.1406 Q61.875,130.3906 61.875,130.7344 Q61.875,131.0781 61.5313,131.4844 Q61.0313,132.0625 60.2344,132.3906 Q59.1563,132.8438 57.8594,132.8438 Q56.3438,132.8438 55.1406,132.2188 Q54.1563,131.7188 53.4688,130.6563 Q52.7813,129.5781 52.7813,128.2969 L52.7813,127.1406 Q52.7813,125.8125 53.3906,124.6719 Q54.0156,123.5156 55.1094,122.9063 Q56.2031,122.2813 57.4375,122.2813 Q58.1719,122.2813 58.8125,122.4531 Q59.4688,122.6094 60.0156,122.9688 Z "/><text fill="#000000" font-family="sans-serif" font-size="14" lengthAdjust="spacingAndGlyphs" textLength="66" x="87.25" y="126.5332">DoaScene</text><text fill="#000000" font-family="sans-serif" font-size="10" lengthAdjust="spacingAndGlyphs" textLength="85" x="77.75" y="139.9902">doa.engine.scene</text><line style="stroke: #A80036; stroke-width: 1.5;" x1="8" x2="200" y1="147.1875" y2="147.1875"/><ellipse cx="18" cy="158.1875" fill="#84BE84" rx="3" ry="3" style="stroke: #038048; stroke-width: 1.0;"/><text fill="#000000" font-family="sans-serif" font-size="11" lengthAdjust="spacingAndGlyphs" textLength="61" x="27" y="162.6064">tick(int): void</text><ellipse cx="18" cy="172.0234" fill="#84BE84" rx="3" ry="3" style="stroke: #038048; stroke-width: 1.0;"/><text fill="#000000" font-family="sans-serif" font-size="11" lengthAdjust="spacingAndGlyphs" textLength="66" x="27" y="176.4424">render(): void</text><ellipse cx="18" cy="185.8594" fill="#84BE84" rx="3" ry="3" style="stroke: #038048; stroke-width: 1.0;"/><text fill="#000000" font-family="sans-serif" font-size="11" lengthAdjust="spacingAndGlyphs" textLength="102" x="27" y="190.2783">add(DoaObject): void</text><ellipse cx="18" cy="199.6953" fill="#84BE84" rx="3" ry="3" style="stroke: #038048; stroke-width: 1.0;"/><text fill="#000000" font-family="sans-serif" font-size="11" lengthAdjust="spacingAndGlyphs" textLength="120" x="27" y="204.1143">remove(DoaObject): void</text><ellipse cx="18" cy="213.5313" fill="#84BE84" rx="3" ry="3" style="stroke: #038048; stroke-width: 1.0;"/><text fill="#000000" font-family="sans-serif" font-size="11" lengthAdjust="spacingAndGlyphs" textLength="143" x="27" y="217.9502">contains(DoaObject): boolean</text><ellipse cx="18" cy="227.3672" fill="#84BE84" rx="3" ry="3" style="stroke: #038048; stroke-width: 1.0;"/><text fill="#000000" font-family="sans-serif" font-size="11" lengthAdjust="spacingAndGlyphs" textLength="58" x="27" y="231.7861">clear(): void</text><ellipse cx="18" cy="241.2031" fill="#84BE84" rx="3" ry="3" style="stroke: #038048; stroke-width: 1.0;"/><text fill="#000000" font-family="sans-serif" font-size="11" lengthAdjust="spacingAndGlyphs" textLength="84" x="27" y="245.6221">getName(): String</text><ellipse cx="18" cy="255.0391" fill="#84BE84" rx="3" ry="3" style="stroke: #038048; stroke-width: 1.0;"/><text fill="#000000" font-family="sans-serif" font-size="11" lengthAdjust="spacingAndGlyphs" textLength="96" x="27" y="259.458">isLoaded(): boolean</text><ellipse cx="18" cy="268.875" fill="#84BE84" rx="3" ry="3" style="stroke: #038048; stroke-width: 1.0;"/><text fill="#000000" font-family="sans-serif" font-size="11" lengthAdjust="spacingAndGlyphs" textLength="45" x="27" y="273.2939">size(): int</text><ellipse cx="18" cy="282.7109" fill="#84BE84" rx="3" ry="3" style="stroke: #038048; stroke-width: 1.0;"/><text fill="#000000" font-family="sans-serif" font-size="11" lengthAdjust="spacingAndGlyphs" textLength="168" x="27" y="287.1299">updatezOrder(DoaObject, int): void</text><ellipse cx="18" cy="296.5469" fill="#84BE84" rx="3" ry="3" style="stroke: #038048; stroke-width: 1.0;"/><text fill="#000000" font-family="sans-serif" font-size="11" lengthAdjust="spacingAndGlyphs" textLength="163" x="27" y="300.9658">registerBody(DoaRigidBody): void</text><ellipse cx="18" cy="310.3828" fill="#84BE84" rx="3" ry="3" style="stroke: #038048; stroke-width: 1.0;"/><text fill="#000000" font-family="sans-serif" font-size="11" lengthAdjust="spacingAndGlyphs" textLength="155" x="27" y="314.8018">deleteBody(DoaRigidBody): void</text></a><!--MD5=[5a5af9b0547913863cbe0ddf55a9ab5e]
class java.io.Serializable--><rect codeLine="20" fill="#FEFECE" filter="url(#f1d518p9zlde2d)" height="40.1875" id="java.io.Serializable" style="stroke: #A80036; stroke-width: 1.5;" width="105" x="51.5" y="7"/><ellipse cx="66.5" cy="27.0938" fill="#B4A7E5" rx="11" ry="11" style="stroke: #A80036; stroke-width: 1.0;"/><path d="M67.4531,23.7344 L67.4531,30.3906 L69.1719,30.3906 Q69.7813,30.3906 70.0469,30.625 Q70.3125,30.8594 70.3125,31.25 Q70.3125,31.625 70.0469,31.8594 Q69.7813,32.0938 69.1719,32.0938 L64.0313,32.0938 Q63.4219,32.0938 63.1563,31.8594 Q62.8906,31.625 62.8906,31.2344 Q62.8906,30.8594 63.1563,30.625 Q63.4219,30.3906 64.0313,30.3906 L65.75,30.3906 L65.75,23.7344 L64.0313,23.7344 Q63.4219,23.7344 63.1563,23.5 Q62.8906,23.2656 62.8906,22.875 Q62.8906,22.5 63.1563,22.2656 Q63.4219,22.0313 64.0313,22.0313 L69.1719,22.0313 Q69.7813,22.0313 70.0469,22.2656 Q70.3125,22.5 70.3125,22.875 Q70.3125,23.2656 70.0469,23.5 Q69.7813,23.7344 69.1719,23.7344 L67.4531,23.7344 Z "/><text fill="#000000" font-family="sans-serif" font-size="14" font-style="italic" lengthAdjust="spacingAndGlyphs" textLength="73" x="80.5" y="26.5332">Serializable</text><text fill="#000000" font-family="sans-serif" font-size="10" font-style="italic" lengthAdjust="spacingAndGlyphs" textLength="31" x="101.5" y="39.9902">java.io</text><!--MD5=[e9986c5260bf43ae7c1c7b860f0ad58b]
reverse link java.io.Serializable to doa.engine.scene.DoaScene--><path codeLine="22" d="M104,67.4 C104,79.26 104,92.9 104,106.95 " fill="none" id="java.io.Serializable-backto-doa.engine.scene.DoaScene" style="stroke: #A80036; stroke-width: 1.0; stroke-dasharray: 7.0,7.0;"/><polygon fill="none" points="97,67.1,104,47.1,111,67.1,97,67.1" style="stroke: #A80036; stroke-width: 1.0;"/><text fill="#888888" font-family="sans-serif" font-size="10" lengthAdjust="spacingAndGlyphs" textLength="190" x="6" y="344.5996">UMLDoclet 2.0.12, PlantUML 1.2020.16</text><!--MD5=[2279dbf3035cc3bf6988e8f1c51b1de6]
@startuml
    set namespaceSeparator none
    hide empty fields
    hide empty methods

    class "<size:14>DoaScene\n<size:10>doa.engine.scene" as doa.engine.scene.DoaScene [[DoaScene.html]] {
        +tick(int): void
        +render(): void
        +add(DoaObject): void
        +remove(DoaObject): void
        +contains(DoaObject): boolean
        +clear(): void
        +getName(): String
        +isLoaded(): boolean
        +size(): int
        +updatezOrder(DoaObject, int): void
        +registerBody(DoaRigidBody): void
        +deleteBody(DoaRigidBody): void
    }

    interface "<size:14>Serializable\n<size:10>java.io" as java.io.Serializable

    java.io.Serializable <|.. doa.engine.scene.DoaScene

    center footer UMLDoclet 2.0.12, PlantUML 1.2020.16
@enduml

PlantUML version 1.2020.16(Sun Aug 23 23:20:43 TRT 2020)
(APACHE source distribution)
Java Runtime: OpenJDK Runtime Environment
JVM: OpenJDK 64-Bit Server VM
Default Encoding: Cp1252
Language: en
Country: GB
--></g></svg>