<svg xmlns="http://www.w3.org/2000/svg" xmlns:xlink="http://www.w3.org/1999/xlink" width="291" height="169" contentScriptType="application/ecmascript" contentStyleType="text/css" style="width:291px;height:169px" preserveAspectRatio="none" version="1.1" viewBox="0 0 291 169" zoomAndPan="magnify"><defs><filter id="f4hhrsesgoqxu" width="300%" height="300%" x="-1" y="-1"><feGaussianBlur result="blurOut" stdDeviation="2"/><feColorMatrix in="blurOut" result="blurOut2" type="matrix" values="0 0 0 0 0 0 0 0 0 0 0 0 0 0 0 0 0 0 .4 0"/><feOffset dx="4" dy="4" in="blurOut2" result="blurOut3"/><feBlend in="SourceGraphic" in2="blurOut3" mode="normal"/></filter></defs><g><a href="DoaSceneHandler.html" target="_top" title="DoaSceneHandler.html" xlink:actuate="onRequest" xlink:href="DoaSceneHandler.html" xlink:show="new" xlink:title="DoaSceneHandler.html" xlink:type="simple"><rect id="doa.engine.scene.DoaSceneHandler" width="265" height="131.203" x="7" y="7" fill="#FEFECE" codeLine="5" filter="url(#f4hhrsesgoqxu)" style="stroke:#a80036;stroke-width:1.5"/><ellipse cx="77.75" cy="27.094" fill="#ADD1B2" rx="11" ry="11" style="stroke:#a80036;stroke-width:1"/><path d="M80.5156,22.9688 Q80.6719,22.75 80.8594,22.6406 Q81.0469,22.5313 81.2656,22.5313 Q81.6406,22.5313 81.875,22.7969 Q82.1094,23.0469 82.1094,23.6563 L82.1094,25.1094 Q82.1094,25.7188 81.875,25.9844 Q81.6406,26.25 81.2656,26.25 Q80.9219,26.25 80.7188,26.0469 Q80.5156,25.8594 80.4063,25.3438 Q80.3594,24.9844 80.1719,24.7969 Q79.8438,24.4219 79.2344,24.2031 Q78.625,23.9844 78,23.9844 Q77.2344,23.9844 76.5938,24.3125 Q75.9688,24.6406 75.4688,25.3906 Q74.9844,26.1406 74.9844,27.1719 L74.9844,28.2656 Q74.9844,29.5 75.875,30.3281 Q76.7656,31.1406 78.3594,31.1406 Q79.2969,31.1406 79.9531,30.8906 Q80.3438,30.7344 80.7656,30.2969 Q81.0313,30.0313 81.1719,29.9531 Q81.3281,29.875 81.5313,29.875 Q81.8594,29.875 82.1094,30.1406 Q82.375,30.3906 82.375,30.7344 Q82.375,31.0781 82.0313,31.4844 Q81.5313,32.0625 80.7344,32.3906 Q79.6563,32.8438 78.3594,32.8438 Q76.8438,32.8438 75.6406,32.2188 Q74.6563,31.7188 73.9688,30.6563 Q73.2813,29.5781 73.2813,28.2969 L73.2813,27.1406 Q73.2813,25.8125 73.8906,24.6719 Q74.5156,23.5156 75.6094,22.9063 Q76.7031,22.2813 77.9375,22.2813 Q78.6719,22.2813 79.3125,22.4531 Q79.9688,22.6094 80.5156,22.9688 Z"/><text x="98.25" y="26.533" fill="#000" font-family="sans-serif" font-size="14" lengthAdjust="spacingAndGlyphs" textLength="115">DoaSceneHandler</text><text x="113.25" y="39.99" fill="#000" font-family="sans-serif" font-size="10" lengthAdjust="spacingAndGlyphs" textLength="85">doa.engine.scene</text><line style="stroke:#a80036;stroke-width:1.5" x1="8" x2="271" y1="47.188" y2="47.188"/><ellipse cx="18" cy="58.188" fill="#84BE84" rx="3" ry="3" style="stroke:#038048;stroke-width:1"/><text x="27" y="62.606" fill="#000" font-family="sans-serif" font-size="11" lengthAdjust="spacingAndGlyphs" text-decoration="underline" textLength="154">createScene(String): DoaScene</text><ellipse cx="18" cy="72.023" fill="#84BE84" rx="3" ry="3" style="stroke:#038048;stroke-width:1"/><text x="27" y="76.442" fill="#000" font-family="sans-serif" font-size="11" lengthAdjust="spacingAndGlyphs" text-decoration="underline" textLength="219">createScene(String, DoaObject...): DoaScene</text><ellipse cx="18" cy="85.859" fill="#84BE84" rx="3" ry="3" style="stroke:#038048;stroke-width:1"/><text x="27" y="90.278" fill="#000" font-family="sans-serif" font-size="11" lengthAdjust="spacingAndGlyphs" text-decoration="underline" textLength="239">createScene(String, List&lt;DoaObject&gt;): DoaScene</text><ellipse cx="18" cy="99.695" fill="#84BE84" rx="3" ry="3" style="stroke:#038048;stroke-width:1"/><text x="27" y="104.114" fill="#000" font-family="sans-serif" font-size="11" lengthAdjust="spacingAndGlyphs" text-decoration="underline" textLength="113">loadScene(String): void</text><ellipse cx="18" cy="113.531" fill="#84BE84" rx="3" ry="3" style="stroke:#038048;stroke-width:1"/><text x="27" y="117.95" fill="#000" font-family="sans-serif" font-size="11" lengthAdjust="spacingAndGlyphs" text-decoration="underline" textLength="135">loadScene(DoaScene): void</text><ellipse cx="18" cy="127.367" fill="#84BE84" rx="3" ry="3" style="stroke:#038048;stroke-width:1"/><text x="27" y="131.786" fill="#000" font-family="sans-serif" font-size="11" lengthAdjust="spacingAndGlyphs" text-decoration="underline" textLength="146">getLoadedScene(): DoaScene</text></a><text x="44.5" y="155.584" fill="#888" font-family="sans-serif" font-size="10" lengthAdjust="spacingAndGlyphs" textLength="190">UMLDoclet 2.0.12, PlantUML 1.2020.16</text></g></svg>