<svg xmlns="http://www.w3.org/2000/svg" xmlns:xlink="http://www.w3.org/1999/xlink" width="1619" height="1007" contentScriptType="application/ecmascript" contentStyleType="text/css" style="width:1619px;height:1007px" preserveAspectRatio="none" version="1.1" viewBox="0 0 1619 1007" zoomAndPan="magnify"><defs><filter id="f1rgb5j8n7nsck" width="300%" height="300%" x="-1" y="-1"><feGaussianBlur result="blurOut" stdDeviation="2"/><feColorMatrix in="blurOut" result="blurOut2" type="matrix" values="0 0 0 0 0 0 0 0 0 0 0 0 0 0 0 0 0 0 .4 0"/><feOffset dx="4" dy="4" in="blurOut2" result="blurOut3"/><feBlend in="SourceGraphic" in2="blurOut3" mode="normal"/></filter></defs><g><polygon fill="#FFF" points="543 139 675 139 682 162.609 1494 162.609 1494 978 543 978 543 139" filter="url(#f1rgb5j8n7nsck)" style="stroke:#000;stroke-width:1.5"/><line style="stroke:#000;stroke-width:1.5" x1="543" x2="682" y1="162.609" y2="162.609"/><text x="547" y="155.533" fill="#000" font-family="sans-serif" font-size="14" font-weight="bold" lengthAdjust="spacingAndGlyphs" textLength="126">doa.engine.scene</text><polygon fill="#FFF" points="1465 6 1517 6 1524 29.609 1597 29.609 1597 106 1465 106 1465 6" filter="url(#f1rgb5j8n7nsck)" style="stroke:#000;stroke-width:1.5"/><line style="stroke:#000;stroke-width:1.5" x1="1465" x2="1524" y1="29.609" y2="29.609"/><text x="1469" y="22.533" fill="#000" font-family="sans-serif" font-size="14" font-weight="bold" lengthAdjust="spacingAndGlyphs" textLength="46">java.io</text><polygon fill="#FFF" points="308 795 509 795 516 818.609 519 818.609 519 895 308 895 308 795" filter="url(#f1rgb5j8n7nsck)" style="stroke:#000;stroke-width:1.5"/><line style="stroke:#000;stroke-width:1.5" x1="308" x2="516" y1="818.609" y2="818.609"/><text x="312" y="811.533" fill="#000" font-family="sans-serif" font-size="14" font-weight="bold" lengthAdjust="spacingAndGlyphs" textLength="195">doa.engine.scene.elements</text><polygon fill="#FFF" points="16 795 274 795 281 818.609 284 818.609 284 895 16 895 16 795" filter="url(#f1rgb5j8n7nsck)" style="stroke:#000;stroke-width:1.5"/><line style="stroke:#000;stroke-width:1.5" x1="16" x2="281" y1="818.609" y2="818.609"/><text x="20" y="811.533" fill="#000" font-family="sans-serif" font-size="14" font-weight="bold" lengthAdjust="spacingAndGlyphs" textLength="252">doa.engine.scene.elements.physics</text><polygon fill="#FFF" points="562 6 631 6 638 29.609 766 29.609 766 106 562 106 562 6" filter="url(#f1rgb5j8n7nsck)" style="stroke:#000;stroke-width:1.5"/><line style="stroke:#000;stroke-width:1.5" x1="562" x2="638" y1="29.609" y2="29.609"/><text x="566" y="22.533" fill="#000" font-family="sans-serif" font-size="14" font-weight="bold" lengthAdjust="spacingAndGlyphs" textLength="63">java.lang</text><a href="DoaComponent.html" target="_top" title="DoaComponent.html" xlink:actuate="onRequest" xlink:href="DoaComponent.html" xlink:show="new" xlink:title="DoaComponent.html" xlink:type="simple"><rect id="doa.engine.scene.DoaComponent" width="161" height="172.523" x="804.5" y="175" fill="#FEFECE" codeLine="3" filter="url(#f1rgb5j8n7nsck)" style="stroke:#a80036;stroke-width:1.5"/><ellipse cx="837.95" cy="191" fill="#A9DCDF" rx="11" ry="11" style="stroke:#a80036;stroke-width:1"/><path d="M840.1375,192.7656 L835.9969,192.7656 L835.575,193.7969 L835.9969,193.7969 Q836.6063,193.7969 836.8719,194.0313 Q837.1375,194.2656 837.1375,194.6563 Q837.1375,195.0313 836.8719,195.2656 Q836.6063,195.5 835.9969,195.5 L833.7,195.5 Q833.0906,195.5 832.8406,195.2656 Q832.575,195.0313 832.575,194.6406 Q832.575,194.2656 832.8563,194.0313 Q833.1219,193.7813 833.7469,193.7969 L836.4188,187.1406 L835.3094,187.1406 Q834.7,187.1406 834.4344,186.9063 Q834.1688,186.6719 834.1688,186.2813 Q834.1688,185.9063 834.4344,185.6719 Q834.7,185.4375 835.3094,185.4375 L838.9813,185.4375 L842.3719,193.7969 Q842.9656,193.7969 843.1531,193.9375 Q843.5438,194.2031 843.5438,194.6563 Q843.5438,195.0313 843.2781,195.2656 Q843.0281,195.5 842.4188,195.5 L840.1219,195.5 Q839.5125,195.5 839.2469,195.2656 Q838.9813,195.0313 838.9813,194.6406 Q838.9813,194.2656 839.2469,194.0313 Q839.5125,193.7969 840.1219,193.7969 L840.5438,193.7969 L840.1375,192.7656 Z M839.4188,191.0625 L838.0594,187.6875 L836.6844,191.0625 L839.4188,191.0625 Z"/><text x="856.05" y="195.91" fill="#000" font-family="sans-serif" font-size="12" font-style="italic" lengthAdjust="spacingAndGlyphs" textLength="88">DoaComponent</text><line style="stroke:#a80036;stroke-width:1.5" x1="805.5" x2="964.5" y1="207" y2="207"/><polygon fill="none" points="815.5 213 819.5 217 815.5 221 811.5 217" style="stroke:#b38d22;stroke-width:1"/><text x="824.5" y="222.419" fill="#000" font-family="sans-serif" font-size="11" lengthAdjust="spacingAndGlyphs" textLength="90">isEnabled: boolean</text><ellipse cx="815.5" cy="231.836" fill="none" rx="3" ry="3" style="stroke:#038048;stroke-width:1"/><text x="824.5" y="236.255" fill="#000" font-family="sans-serif" font-size="11" lengthAdjust="spacingAndGlyphs" textLength="60">name: String</text><ellipse cx="815.5" cy="245.672" fill="none" rx="3" ry="3" style="stroke:#038048;stroke-width:1"/><text x="824.5" y="250.091" fill="#000" font-family="sans-serif" font-size="11" lengthAdjust="spacingAndGlyphs" textLength="109">debugRender: boolean</text><line style="stroke:#a80036;stroke-width:1.5" x1="805.5" x2="964.5" y1="256.508" y2="256.508"/><polygon fill="#FF4" points="815.5 262.508 819.5 266.508 815.5 270.508 811.5 266.508" style="stroke:#b38d22;stroke-width:1"/><text x="824.5" y="271.927" fill="#000" font-family="sans-serif" font-size="11" lengthAdjust="spacingAndGlyphs" textLength="47">init(): void</text><polygon fill="#FF4" points="815.5 276.344 819.5 280.344 815.5 284.344 811.5 280.344" style="stroke:#b38d22;stroke-width:1"/><text x="824.5" y="285.763" fill="#000" font-family="sans-serif" font-size="11" lengthAdjust="spacingAndGlyphs" textLength="116">onAdd(DoaObject): void</text><polygon fill="#FF4" points="815.5 290.18 819.5 294.18 815.5 298.18 811.5 294.18" style="stroke:#b38d22;stroke-width:1"/><text x="824.5" y="299.599" fill="#000" font-family="sans-serif" font-size="11" lengthAdjust="spacingAndGlyphs" textLength="135">onRemove(DoaObject): void</text><ellipse cx="815.5" cy="309.016" fill="#84BE84" rx="3" ry="3" style="stroke:#038048;stroke-width:1"/><text x="824.5" y="313.435" fill="#000" font-family="sans-serif" font-size="11" lengthAdjust="spacingAndGlyphs" textLength="98">isEnabled(): boolean</text><ellipse cx="815.5" cy="322.852" fill="#84BE84" rx="3" ry="3" style="stroke:#038048;stroke-width:1"/><text x="824.5" y="327.271" fill="#000" font-family="sans-serif" font-size="11" lengthAdjust="spacingAndGlyphs" textLength="66">enable(): void</text><ellipse cx="815.5" cy="336.688" fill="#84BE84" rx="3" ry="3" style="stroke:#038048;stroke-width:1"/><text x="824.5" y="341.106" fill="#000" font-family="sans-serif" font-size="11" lengthAdjust="spacingAndGlyphs" textLength="68">disable(): void</text></a><a href="DoaObject.html" target="_top" title="DoaObject.html" xlink:actuate="onRequest" xlink:href="DoaObject.html" xlink:show="new" xlink:title="DoaObject.html" xlink:type="simple"><rect id="doa.engine.scene.DoaObject" width="433" height="227.867" x="592.5" y="442" fill="#FEFECE" codeLine="15" filter="url(#f1rgb5j8n7nsck)" style="stroke:#a80036;stroke-width:1.5"/><ellipse cx="775.75" cy="458" fill="#ADD1B2" rx="11" ry="11" style="stroke:#a80036;stroke-width:1"/><path d="M778.5156,453.875 Q778.6719,453.6563 778.8594,453.5469 Q779.0469,453.4375 779.2656,453.4375 Q779.6406,453.4375 779.875,453.7031 Q780.1094,453.9531 780.1094,454.5625 L780.1094,456.0156 Q780.1094,456.625 779.875,456.8906 Q779.6406,457.1563 779.2656,457.1563 Q778.9219,457.1563 778.7188,456.9531 Q778.5156,456.7656 778.4063,456.25 Q778.3594,455.8906 778.1719,455.7031 Q777.8438,455.3281 777.2344,455.1094 Q776.625,454.8906 776,454.8906 Q775.2344,454.8906 774.5938,455.2188 Q773.9688,455.5469 773.4688,456.2969 Q772.9844,457.0469 772.9844,458.0781 L772.9844,459.1719 Q772.9844,460.4063 773.875,461.2344 Q774.7656,462.0469 776.3594,462.0469 Q777.2969,462.0469 777.9531,461.7969 Q778.3438,461.6406 778.7656,461.2031 Q779.0313,460.9375 779.1719,460.8594 Q779.3281,460.7813 779.5313,460.7813 Q779.8594,460.7813 780.1094,461.0469 Q780.375,461.2969 780.375,461.6406 Q780.375,461.9844 780.0313,462.3906 Q779.5313,462.9688 778.7344,463.2969 Q777.6563,463.75 776.3594,463.75 Q774.8438,463.75 773.6406,463.125 Q772.6563,462.625 771.9688,461.5625 Q771.2813,460.4844 771.2813,459.2031 L771.2813,458.0469 Q771.2813,456.7188 771.8906,455.5781 Q772.5156,454.4219 773.6094,453.8125 Q774.7031,453.1875 775.9375,453.1875 Q776.6719,453.1875 777.3125,453.3594 Q777.9688,453.5156 778.5156,453.875 Z"/><text x="796.25" y="462.91" fill="#000" font-family="sans-serif" font-size="12" lengthAdjust="spacingAndGlyphs" textLength="58">DoaObject</text><line style="stroke:#a80036;stroke-width:1.5" x1="593.5" x2="1024.5" y1="474" y2="474"/><ellipse cx="603.5" cy="485" fill="none" rx="3" ry="3" style="stroke:#038048;stroke-width:1"/><text x="612.5" y="489.419" fill="#000" font-family="sans-serif" font-size="11" lengthAdjust="spacingAndGlyphs" textLength="60">name: String</text><line style="stroke:#a80036;stroke-width:1.5" x1="593.5" x2="1024.5" y1="495.836" y2="495.836"/><ellipse cx="603.5" cy="506.836" fill="#84BE84" rx="3" ry="3" style="stroke:#038048;stroke-width:1"/><text x="612.5" y="511.255" fill="#000" font-family="sans-serif" font-size="11" lengthAdjust="spacingAndGlyphs" textLength="58">DoaObject()</text><ellipse cx="603.5" cy="520.672" fill="#84BE84" rx="3" ry="3" style="stroke:#038048;stroke-width:1"/><text x="612.5" y="525.091" fill="#000" font-family="sans-serif" font-size="11" lengthAdjust="spacingAndGlyphs" textLength="86">DoaObject(String)</text><ellipse cx="603.5" cy="534.508" fill="#84BE84" rx="3" ry="3" style="stroke:#038048;stroke-width:1"/><text x="612.5" y="538.927" fill="#000" font-family="sans-serif" font-size="11" lengthAdjust="spacingAndGlyphs" textLength="116">makeStatic(): DoaObject</text><ellipse cx="603.5" cy="548.344" fill="#84BE84" rx="3" ry="3" style="stroke:#038048;stroke-width:1"/><text x="612.5" y="552.763" fill="#000" font-family="sans-serif" font-size="11" lengthAdjust="spacingAndGlyphs" textLength="130">makeDynamic(): DoaObject</text><ellipse cx="603.5" cy="562.18" fill="#84BE84" rx="3" ry="3" style="stroke:#038048;stroke-width:1"/><text x="612.5" y="566.599" fill="#000" font-family="sans-serif" font-size="11" lengthAdjust="spacingAndGlyphs" textLength="101">isDynamic(): boolean</text><ellipse cx="603.5" cy="576.016" fill="#84BE84" rx="3" ry="3" style="stroke:#038048;stroke-width:1"/><text x="612.5" y="580.435" fill="#000" font-family="sans-serif" font-size="11" lengthAdjust="spacingAndGlyphs" textLength="74">getzOrder(): int</text><ellipse cx="603.5" cy="589.852" fill="#84BE84" rx="3" ry="3" style="stroke:#038048;stroke-width:1"/><text x="612.5" y="594.27" fill="#000" font-family="sans-serif" font-size="11" lengthAdjust="spacingAndGlyphs" textLength="407">getComponentByType(Class&lt;T extends DoaComponent&gt;): Optional&lt;DoaComponent&gt;</text><ellipse cx="603.5" cy="603.688" fill="#84BE84" rx="3" ry="3" style="stroke:#038048;stroke-width:1"/><text x="612.5" y="608.106" fill="#000" font-family="sans-serif" font-size="11" lengthAdjust="spacingAndGlyphs" textLength="94">setzOrder(int): void</text><ellipse cx="603.5" cy="617.523" fill="#84BE84" rx="3" ry="3" style="stroke:#038048;stroke-width:1"/><text x="612.5" y="621.942" fill="#000" font-family="sans-serif" font-size="11" lengthAdjust="spacingAndGlyphs" textLength="159">onAddToScene(DoaScene): void</text><ellipse cx="603.5" cy="631.359" fill="#84BE84" rx="3" ry="3" style="stroke:#038048;stroke-width:1"/><text x="612.5" y="635.778" fill="#000" font-family="sans-serif" font-size="11" lengthAdjust="spacingAndGlyphs" textLength="190">onRemoveFromScene(DoaScene): void</text><ellipse cx="603.5" cy="645.195" fill="#84BE84" rx="3" ry="3" style="stroke:#038048;stroke-width:1"/><text x="612.5" y="649.614" fill="#000" font-family="sans-serif" font-size="11" lengthAdjust="spacingAndGlyphs" textLength="179">addComponent(DoaComponent): void</text><ellipse cx="603.5" cy="659.031" fill="#84BE84" rx="3" ry="3" style="stroke:#038048;stroke-width:1"/><text x="612.5" y="663.45" fill="#000" font-family="sans-serif" font-size="11" lengthAdjust="spacingAndGlyphs" textLength="197">removeComponent(DoaComponent): void</text></a><a href="DoaObjectBuilder.html" target="_top" title="DoaObjectBuilder.html" xlink:actuate="onRequest" xlink:href="DoaObjectBuilder.html" xlink:show="new" xlink:title="DoaObjectBuilder.html" xlink:type="simple"><rect id="doa.engine.scene.DoaObjectBuilder" width="316" height="125.367" x="1001" y="199" fill="#FEFECE" codeLine="31" filter="url(#f1rgb5j8n7nsck)" style="stroke:#a80036;stroke-width:1.5"/><ellipse cx="1046.75" cy="219.094" fill="#ADD1B2" rx="11" ry="11" style="stroke:#a80036;stroke-width:1"/><path d="M1049.5156,214.9688 Q1049.6719,214.75 1049.8594,214.6406 Q1050.0469,214.5313 1050.2656,214.5313 Q1050.6406,214.5313 1050.875,214.7969 Q1051.1094,215.0469 1051.1094,215.6563 L1051.1094,217.1094 Q1051.1094,217.7188 1050.875,217.9844 Q1050.6406,218.25 1050.2656,218.25 Q1049.9219,218.25 1049.7188,218.0469 Q1049.5156,217.8594 1049.4063,217.3438 Q1049.3594,216.9844 1049.1719,216.7969 Q1048.8438,216.4219 1048.2344,216.2031 Q1047.625,215.9844 1047,215.9844 Q1046.2344,215.9844 1045.5938,216.3125 Q1044.9688,216.6406 1044.4688,217.3906 Q1043.9844,218.1406 1043.9844,219.1719 L1043.9844,220.2656 Q1043.9844,221.5 1044.875,222.3281 Q1045.7656,223.1406 1047.3594,223.1406 Q1048.2969,223.1406 1048.9531,222.8906 Q1049.3438,222.7344 1049.7656,222.2969 Q1050.0313,222.0313 1050.1719,221.9531 Q1050.3281,221.875 1050.5313,221.875 Q1050.8594,221.875 1051.1094,222.1406 Q1051.375,222.3906 1051.375,222.7344 Q1051.375,223.0781 1051.0313,223.4844 Q1050.5313,224.0625 1049.7344,224.3906 Q1048.6563,224.8438 1047.3594,224.8438 Q1045.8438,224.8438 1044.6406,224.2188 Q1043.6563,223.7188 1042.9688,222.6563 Q1042.2813,221.5781 1042.2813,220.2969 L1042.2813,219.1406 Q1042.2813,217.8125 1042.8906,216.6719 Q1043.5156,215.5156 1044.6094,214.9063 Q1045.7031,214.2813 1046.9375,214.2813 Q1047.6719,214.2813 1048.3125,214.4531 Q1048.9688,214.6094 1049.5156,214.9688 Z"/><text x="1077.75" y="216.457" fill="#000" font-family="sans-serif" font-size="12" font-style="italic" lengthAdjust="spacingAndGlyphs" textLength="76">«deprecated»</text><text x="1067.25" y="231.551" fill="#000" font-family="sans-serif" font-size="12" lengthAdjust="spacingAndGlyphs" textLength="97">DoaObjectBuilder</text><rect style="stroke:#000;stroke-width:1;stroke-dasharray:2,2" width="117" height="17.094" x="1203" y="196" fill="#FFF"/><text x="1204" y="209.457" fill="#000" font-family="sans-serif" font-size="12" font-style="italic" lengthAdjust="spacingAndGlyphs" textLength="115">T extends DoaObject</text><line style="stroke:#a80036;stroke-width:1.5" x1="1002" x2="1316" y1="239.188" y2="239.188"/><line style="stroke:#a80036;stroke-width:1.5" x1="1002" x2="1316" y1="247.188" y2="247.188"/><ellipse cx="1012" cy="258.188" fill="#84BE84" rx="3" ry="3" style="stroke:#038048;stroke-width:1"/><text x="1021" y="262.606" fill="#000" font-family="sans-serif" font-size="11" lengthAdjust="spacingAndGlyphs" textLength="231">DoaObjectBuilder(Class&lt;T extends DoaObject&gt;)</text><ellipse cx="1012" cy="272.023" fill="#84BE84" rx="3" ry="3" style="stroke:#038048;stroke-width:1"/><text x="1021" y="276.442" fill="#000" font-family="sans-serif" font-size="11" lengthAdjust="spacingAndGlyphs" textLength="272">args(Object...): DoaObjectBuilder&lt;T extends DoaObject&gt;</text><ellipse cx="1012" cy="285.859" fill="#84BE84" rx="3" ry="3" style="stroke:#038048;stroke-width:1"/><text x="1021" y="290.278" fill="#000" font-family="sans-serif" font-size="11" lengthAdjust="spacingAndGlyphs" textLength="290">scene(DoaScene): DoaObjectBuilder&lt;T extends DoaObject&gt;</text><ellipse cx="1012" cy="299.695" fill="#84BE84" rx="3" ry="3" style="stroke:#038048;stroke-width:1"/><text x="1021" y="304.114" fill="#000" font-family="sans-serif" font-size="11" lengthAdjust="spacingAndGlyphs" textLength="164">instantiate(): T extends DoaObject</text><ellipse cx="1012" cy="313.531" fill="#84BE84" rx="3" ry="3" style="stroke:#038048;stroke-width:1"/><text x="1021" y="317.95" fill="#000" font-family="sans-serif" font-size="11" lengthAdjust="spacingAndGlyphs" textLength="212">instantiateAndReset(): T extends DoaObject</text></a><a href="DoaObjectInstantiationException.html" target="_top" title="DoaObjectInstantiationException.html" xlink:actuate="onRequest" xlink:href="DoaObjectInstantiationException.html" xlink:show="new" xlink:title="DoaObjectInstantiationException.html" xlink:type="simple"><rect id="doa.engine.scene.DoaObjectInstantiationException" width="210" height="56.188" x="559" y="233.5" fill="#FEFECE" codeLine="39" filter="url(#f1rgb5j8n7nsck)" style="stroke:#a80036;stroke-width:1.5"/><ellipse cx="574" cy="253.594" fill="#ADD1B2" rx="11" ry="11" style="stroke:#a80036;stroke-width:1"/><path d="M576.7656,249.4688 Q576.9219,249.25 577.1094,249.1406 Q577.2969,249.0313 577.5156,249.0313 Q577.8906,249.0313 578.125,249.2969 Q578.3594,249.5469 578.3594,250.1563 L578.3594,251.6094 Q578.3594,252.2188 578.125,252.4844 Q577.8906,252.75 577.5156,252.75 Q577.1719,252.75 576.9688,252.5469 Q576.7656,252.3594 576.6563,251.8438 Q576.6094,251.4844 576.4219,251.2969 Q576.0938,250.9219 575.4844,250.7031 Q574.875,250.4844 574.25,250.4844 Q573.4844,250.4844 572.8438,250.8125 Q572.2188,251.1406 571.7188,251.8906 Q571.2344,252.6406 571.2344,253.6719 L571.2344,254.7656 Q571.2344,256 572.125,256.8281 Q573.0156,257.6406 574.6094,257.6406 Q575.5469,257.6406 576.2031,257.3906 Q576.5938,257.2344 577.0156,256.7969 Q577.2813,256.5313 577.4219,256.4531 Q577.5781,256.375 577.7813,256.375 Q578.1094,256.375 578.3594,256.6406 Q578.625,256.8906 578.625,257.2344 Q578.625,257.5781 578.2813,257.9844 Q577.7813,258.5625 576.9844,258.8906 Q575.9063,259.3438 574.6094,259.3438 Q573.0938,259.3438 571.8906,258.7188 Q570.9063,258.2188 570.2188,257.1563 Q569.5313,256.0781 569.5313,254.7969 L569.5313,253.6406 Q569.5313,252.3125 570.1406,251.1719 Q570.7656,250.0156 571.8594,249.4063 Q572.9531,248.7813 574.1875,248.7813 Q574.9219,248.7813 575.5625,248.9531 Q576.2188,249.1094 576.7656,249.4688 Z"/><text x="639" y="250.957" fill="#000" font-family="sans-serif" font-size="12" font-style="italic" lengthAdjust="spacingAndGlyphs" textLength="76">«deprecated»</text><text x="588" y="266.051" fill="#000" font-family="sans-serif" font-size="12" lengthAdjust="spacingAndGlyphs" textLength="178">DoaObjectInstantiationException</text><line style="stroke:#a80036;stroke-width:1.5" x1="560" x2="768" y1="273.688" y2="273.688"/><line style="stroke:#a80036;stroke-width:1.5" x1="560" x2="768" y1="281.688" y2="281.688"/></a><a href="DoaPhysics.html" target="_top" title="DoaPhysics.html" xlink:actuate="onRequest" xlink:href="DoaPhysics.html" xlink:show="new" xlink:title="DoaPhysics.html" xlink:type="simple"><rect id="doa.engine.scene.DoaPhysics" width="126" height="117.18" x="1352" y="203" fill="#FEFECE" codeLine="42" filter="url(#f1rgb5j8n7nsck)" style="stroke:#a80036;stroke-width:1.5"/><ellipse cx="1379.6" cy="219" fill="#ADD1B2" rx="11" ry="11" style="stroke:#a80036;stroke-width:1"/><path d="M1382.3656,214.875 Q1382.5219,214.6563 1382.7094,214.5469 Q1382.8969,214.4375 1383.1156,214.4375 Q1383.4906,214.4375 1383.725,214.7031 Q1383.9594,214.9531 1383.9594,215.5625 L1383.9594,217.0156 Q1383.9594,217.625 1383.725,217.8906 Q1383.4906,218.1563 1383.1156,218.1563 Q1382.7719,218.1563 1382.5688,217.9531 Q1382.3656,217.7656 1382.2563,217.25 Q1382.2094,216.8906 1382.0219,216.7031 Q1381.6938,216.3281 1381.0844,216.1094 Q1380.475,215.8906 1379.85,215.8906 Q1379.0844,215.8906 1378.4438,216.2188 Q1377.8188,216.5469 1377.3188,217.2969 Q1376.8344,218.0469 1376.8344,219.0781 L1376.8344,220.1719 Q1376.8344,221.4063 1377.725,222.2344 Q1378.6156,223.0469 1380.2094,223.0469 Q1381.1469,223.0469 1381.8031,222.7969 Q1382.1938,222.6406 1382.6156,222.2031 Q1382.8813,221.9375 1383.0219,221.8594 Q1383.1781,221.7813 1383.3813,221.7813 Q1383.7094,221.7813 1383.9594,222.0469 Q1384.225,222.2969 1384.225,222.6406 Q1384.225,222.9844 1383.8813,223.3906 Q1383.3813,223.9688 1382.5844,224.2969 Q1381.5063,224.75 1380.2094,224.75 Q1378.6938,224.75 1377.4906,224.125 Q1376.5063,223.625 1375.8188,222.5625 Q1375.1313,221.4844 1375.1313,220.2031 L1375.1313,219.0469 Q1375.1313,217.7188 1375.7406,216.5781 Q1376.3656,215.4219 1377.4594,214.8125 Q1378.5531,214.1875 1379.7875,214.1875 Q1380.5219,214.1875 1381.1625,214.3594 Q1381.8188,214.5156 1382.3656,214.875 Z"/><text x="1396.4" y="223.91" fill="#000" font-family="sans-serif" font-size="12" lengthAdjust="spacingAndGlyphs" textLength="66">DoaPhysics</text><line style="stroke:#a80036;stroke-width:1.5" x1="1353" x2="1477" y1="235" y2="235"/><ellipse cx="1363" cy="246" fill="none" rx="3" ry="3" style="stroke:#038048;stroke-width:1"/><text x="1372" y="250.419" fill="#000" font-family="sans-serif" font-size="11" lengthAdjust="spacingAndGlyphs" text-decoration="underline" textLength="93">Gravity: DoaVector</text><ellipse cx="1363" cy="259.836" fill="none" rx="3" ry="3" style="stroke:#038048;stroke-width:1"/><text x="1372" y="264.255" fill="#000" font-family="sans-serif" font-size="11" lengthAdjust="spacingAndGlyphs" text-decoration="underline" textLength="47">PPM: float</text><ellipse cx="1363" cy="273.672" fill="none" rx="3" ry="3" style="stroke:#038048;stroke-width:1"/><text x="1372" y="278.091" fill="#000" font-family="sans-serif" font-size="11" lengthAdjust="spacingAndGlyphs" text-decoration="underline" textLength="100">VelocityIterations: int</text><ellipse cx="1363" cy="287.508" fill="none" rx="3" ry="3" style="stroke:#038048;stroke-width:1"/><text x="1372" y="291.927" fill="#000" font-family="sans-serif" font-size="11" lengthAdjust="spacingAndGlyphs" text-decoration="underline" textLength="98">PositionIterations: int</text><line style="stroke:#a80036;stroke-width:1.5" x1="1353" x2="1477" y1="298.344" y2="298.344"/><ellipse cx="1363" cy="309.344" fill="#84BE84" rx="3" ry="3" style="stroke:#038048;stroke-width:1"/><text x="1372" y="313.763" fill="#000" font-family="sans-serif" font-size="11" lengthAdjust="spacingAndGlyphs" textLength="61">tick(int): void</text></a><a href="DoaScene.html" target="_top" title="DoaScene.html" xlink:actuate="onRequest" xlink:href="DoaScene.html" xlink:show="new" xlink:title="DoaScene.html" xlink:type="simple"><rect id="doa.engine.scene.DoaScene" width="194" height="214.031" x="998" y="748" fill="#FEFECE" codeLine="50" filter="url(#f1rgb5j8n7nsck)" style="stroke:#a80036;stroke-width:1.5"/><ellipse cx="1061.75" cy="764" fill="#ADD1B2" rx="11" ry="11" style="stroke:#a80036;stroke-width:1"/><path d="M1064.5156,759.875 Q1064.6719,759.6563 1064.8594,759.5469 Q1065.0469,759.4375 1065.2656,759.4375 Q1065.6406,759.4375 1065.875,759.7031 Q1066.1094,759.9531 1066.1094,760.5625 L1066.1094,762.0156 Q1066.1094,762.625 1065.875,762.8906 Q1065.6406,763.1563 1065.2656,763.1563 Q1064.9219,763.1563 1064.7188,762.9531 Q1064.5156,762.7656 1064.4063,762.25 Q1064.3594,761.8906 1064.1719,761.7031 Q1063.8438,761.3281 1063.2344,761.1094 Q1062.625,760.8906 1062,760.8906 Q1061.2344,760.8906 1060.5938,761.2188 Q1059.9688,761.5469 1059.4688,762.2969 Q1058.9844,763.0469 1058.9844,764.0781 L1058.9844,765.1719 Q1058.9844,766.4063 1059.875,767.2344 Q1060.7656,768.0469 1062.3594,768.0469 Q1063.2969,768.0469 1063.9531,767.7969 Q1064.3438,767.6406 1064.7656,767.2031 Q1065.0313,766.9375 1065.1719,766.8594 Q1065.3281,766.7813 1065.5313,766.7813 Q1065.8594,766.7813 1066.1094,767.0469 Q1066.375,767.2969 1066.375,767.6406 Q1066.375,767.9844 1066.0313,768.3906 Q1065.5313,768.9688 1064.7344,769.2969 Q1063.6563,769.75 1062.3594,769.75 Q1060.8438,769.75 1059.6406,769.125 Q1058.6563,768.625 1057.9688,767.5625 Q1057.2813,766.4844 1057.2813,765.2031 L1057.2813,764.0469 Q1057.2813,762.7188 1057.8906,761.5781 Q1058.5156,760.4219 1059.6094,759.8125 Q1060.7031,759.1875 1061.9375,759.1875 Q1062.6719,759.1875 1063.3125,759.3594 Q1063.9688,759.5156 1064.5156,759.875 Z"/><text x="1082.25" y="768.91" fill="#000" font-family="sans-serif" font-size="12" lengthAdjust="spacingAndGlyphs" textLength="58">DoaScene</text><line style="stroke:#a80036;stroke-width:1.5" x1="999" x2="1191" y1="780" y2="780"/><line style="stroke:#a80036;stroke-width:1.5" x1="999" x2="1191" y1="788" y2="788"/><ellipse cx="1009" cy="799" fill="#84BE84" rx="3" ry="3" style="stroke:#038048;stroke-width:1"/><text x="1018" y="803.419" fill="#000" font-family="sans-serif" font-size="11" lengthAdjust="spacingAndGlyphs" textLength="61">tick(int): void</text><ellipse cx="1009" cy="812.836" fill="#84BE84" rx="3" ry="3" style="stroke:#038048;stroke-width:1"/><text x="1018" y="817.255" fill="#000" font-family="sans-serif" font-size="11" lengthAdjust="spacingAndGlyphs" textLength="66">render(): void</text><ellipse cx="1009" cy="826.672" fill="#84BE84" rx="3" ry="3" style="stroke:#038048;stroke-width:1"/><text x="1018" y="831.091" fill="#000" font-family="sans-serif" font-size="11" lengthAdjust="spacingAndGlyphs" textLength="102">add(DoaObject): void</text><ellipse cx="1009" cy="840.508" fill="#84BE84" rx="3" ry="3" style="stroke:#038048;stroke-width:1"/><text x="1018" y="844.927" fill="#000" font-family="sans-serif" font-size="11" lengthAdjust="spacingAndGlyphs" textLength="120">remove(DoaObject): void</text><ellipse cx="1009" cy="854.344" fill="#84BE84" rx="3" ry="3" style="stroke:#038048;stroke-width:1"/><text x="1018" y="858.763" fill="#000" font-family="sans-serif" font-size="11" lengthAdjust="spacingAndGlyphs" textLength="143">contains(DoaObject): boolean</text><ellipse cx="1009" cy="868.18" fill="#84BE84" rx="3" ry="3" style="stroke:#038048;stroke-width:1"/><text x="1018" y="872.599" fill="#000" font-family="sans-serif" font-size="11" lengthAdjust="spacingAndGlyphs" textLength="58">clear(): void</text><ellipse cx="1009" cy="882.016" fill="#84BE84" rx="3" ry="3" style="stroke:#038048;stroke-width:1"/><text x="1018" y="886.435" fill="#000" font-family="sans-serif" font-size="11" lengthAdjust="spacingAndGlyphs" textLength="84">getName(): String</text><ellipse cx="1009" cy="895.852" fill="#84BE84" rx="3" ry="3" style="stroke:#038048;stroke-width:1"/><text x="1018" y="900.27" fill="#000" font-family="sans-serif" font-size="11" lengthAdjust="spacingAndGlyphs" textLength="96">isLoaded(): boolean</text><ellipse cx="1009" cy="909.688" fill="#84BE84" rx="3" ry="3" style="stroke:#038048;stroke-width:1"/><text x="1018" y="914.106" fill="#000" font-family="sans-serif" font-size="11" lengthAdjust="spacingAndGlyphs" textLength="45">size(): int</text><ellipse cx="1009" cy="923.523" fill="#84BE84" rx="3" ry="3" style="stroke:#038048;stroke-width:1"/><text x="1018" y="927.942" fill="#000" font-family="sans-serif" font-size="11" lengthAdjust="spacingAndGlyphs" textLength="168">updatezOrder(DoaObject, int): void</text><ellipse cx="1009" cy="937.359" fill="#84BE84" rx="3" ry="3" style="stroke:#038048;stroke-width:1"/><text x="1018" y="941.778" fill="#000" font-family="sans-serif" font-size="11" lengthAdjust="spacingAndGlyphs" textLength="163">registerBody(DoaRigidBody): void</text><ellipse cx="1009" cy="951.195" fill="#84BE84" rx="3" ry="3" style="stroke:#038048;stroke-width:1"/><text x="1018" y="955.614" fill="#000" font-family="sans-serif" font-size="11" lengthAdjust="spacingAndGlyphs" textLength="155">deleteBody(DoaRigidBody): void</text></a><a href="DoaSceneHandler.html" target="_top" title="DoaSceneHandler.html" xlink:actuate="onRequest" xlink:href="DoaSceneHandler.html" xlink:show="new" xlink:title="DoaSceneHandler.html" xlink:type="simple"><rect id="doa.engine.scene.DoaSceneHandler" width="265" height="131.016" x="1060.5" y="490.5" fill="#FEFECE" codeLine="65" filter="url(#f1rgb5j8n7nsck)" style="stroke:#a80036;stroke-width:1.5"/><ellipse cx="1137.75" cy="506.5" fill="#ADD1B2" rx="11" ry="11" style="stroke:#a80036;stroke-width:1"/><path d="M1140.5156,502.375 Q1140.6719,502.1563 1140.8594,502.0469 Q1141.0469,501.9375 1141.2656,501.9375 Q1141.6406,501.9375 1141.875,502.2031 Q1142.1094,502.4531 1142.1094,503.0625 L1142.1094,504.5156 Q1142.1094,505.125 1141.875,505.3906 Q1141.6406,505.6563 1141.2656,505.6563 Q1140.9219,505.6563 1140.7188,505.4531 Q1140.5156,505.2656 1140.4063,504.75 Q1140.3594,504.3906 1140.1719,504.2031 Q1139.8438,503.8281 1139.2344,503.6094 Q1138.625,503.3906 1138,503.3906 Q1137.2344,503.3906 1136.5938,503.7188 Q1135.9688,504.0469 1135.4688,504.7969 Q1134.9844,505.5469 1134.9844,506.5781 L1134.9844,507.6719 Q1134.9844,508.9063 1135.875,509.7344 Q1136.7656,510.5469 1138.3594,510.5469 Q1139.2969,510.5469 1139.9531,510.2969 Q1140.3438,510.1406 1140.7656,509.7031 Q1141.0313,509.4375 1141.1719,509.3594 Q1141.3281,509.2813 1141.5313,509.2813 Q1141.8594,509.2813 1142.1094,509.5469 Q1142.375,509.7969 1142.375,510.1406 Q1142.375,510.4844 1142.0313,510.8906 Q1141.5313,511.4688 1140.7344,511.7969 Q1139.6563,512.25 1138.3594,512.25 Q1136.8438,512.25 1135.6406,511.625 Q1134.6563,511.125 1133.9688,510.0625 Q1133.2813,508.9844 1133.2813,507.7031 L1133.2813,506.5469 Q1133.2813,505.2188 1133.8906,504.0781 Q1134.5156,502.9219 1135.6094,502.3125 Q1136.7031,501.6875 1137.9375,501.6875 Q1138.6719,501.6875 1139.3125,501.8594 Q1139.9688,502.0156 1140.5156,502.375 Z"/><text x="1158.25" y="511.41" fill="#000" font-family="sans-serif" font-size="12" lengthAdjust="spacingAndGlyphs" textLength="102">DoaSceneHandler</text><line style="stroke:#a80036;stroke-width:1.5" x1="1061.5" x2="1324.5" y1="522.5" y2="522.5"/><line style="stroke:#a80036;stroke-width:1.5" x1="1061.5" x2="1324.5" y1="530.5" y2="530.5"/><ellipse cx="1071.5" cy="541.5" fill="#84BE84" rx="3" ry="3" style="stroke:#038048;stroke-width:1"/><text x="1080.5" y="545.919" fill="#000" font-family="sans-serif" font-size="11" lengthAdjust="spacingAndGlyphs" text-decoration="underline" textLength="154">createScene(String): DoaScene</text><ellipse cx="1071.5" cy="555.336" fill="#84BE84" rx="3" ry="3" style="stroke:#038048;stroke-width:1"/><text x="1080.5" y="559.755" fill="#000" font-family="sans-serif" font-size="11" lengthAdjust="spacingAndGlyphs" text-decoration="underline" textLength="219">createScene(String, DoaObject...): DoaScene</text><ellipse cx="1071.5" cy="569.172" fill="#84BE84" rx="3" ry="3" style="stroke:#038048;stroke-width:1"/><text x="1080.5" y="573.591" fill="#000" font-family="sans-serif" font-size="11" lengthAdjust="spacingAndGlyphs" text-decoration="underline" textLength="239">createScene(String, List&lt;DoaObject&gt;): DoaScene</text><ellipse cx="1071.5" cy="583.008" fill="#84BE84" rx="3" ry="3" style="stroke:#038048;stroke-width:1"/><text x="1080.5" y="587.427" fill="#000" font-family="sans-serif" font-size="11" lengthAdjust="spacingAndGlyphs" text-decoration="underline" textLength="113">loadScene(String): void</text><ellipse cx="1071.5" cy="596.844" fill="#84BE84" rx="3" ry="3" style="stroke:#038048;stroke-width:1"/><text x="1080.5" y="601.263" fill="#000" font-family="sans-serif" font-size="11" lengthAdjust="spacingAndGlyphs" text-decoration="underline" textLength="135">loadScene(DoaScene): void</text><ellipse cx="1071.5" cy="610.68" fill="#84BE84" rx="3" ry="3" style="stroke:#038048;stroke-width:1"/><text x="1080.5" y="615.099" fill="#000" font-family="sans-serif" font-size="11" lengthAdjust="spacingAndGlyphs" text-decoration="underline" textLength="146">getLoadedScene(): DoaScene</text></a><rect id="java.io.Serializable" width="99" height="48" x="1481.5" y="42" fill="#FEFECE" codeLine="86" filter="url(#f1rgb5j8n7nsck)" style="stroke:#a80036;stroke-width:1.5"/><ellipse cx="1496.5" cy="58" fill="#B4A7E5" rx="11" ry="11" style="stroke:#a80036;stroke-width:1"/><path d="M1497.4531,54.6406 L1497.4531,61.2969 L1499.1719,61.2969 Q1499.7813,61.2969 1500.0469,61.5313 Q1500.3125,61.7656 1500.3125,62.1563 Q1500.3125,62.5313 1500.0469,62.7656 Q1499.7813,63 1499.1719,63 L1494.0313,63 Q1493.4219,63 1493.1563,62.7656 Q1492.8906,62.5313 1492.8906,62.1406 Q1492.8906,61.7656 1493.1563,61.5313 Q1493.4219,61.2969 1494.0313,61.2969 L1495.75,61.2969 L1495.75,54.6406 L1494.0313,54.6406 Q1493.4219,54.6406 1493.1563,54.4063 Q1492.8906,54.1719 1492.8906,53.7813 Q1492.8906,53.4063 1493.1563,53.1719 Q1493.4219,52.9375 1494.0313,52.9375 L1499.1719,52.9375 Q1499.7813,52.9375 1500.0469,53.1719 Q1500.3125,53.4063 1500.3125,53.7813 Q1500.3125,54.1719 1500.0469,54.4063 Q1499.7813,54.6406 1499.1719,54.6406 L1497.4531,54.6406 Z"/><text x="1510.5" y="62.91" fill="#000" font-family="sans-serif" font-size="12" font-style="italic" lengthAdjust="spacingAndGlyphs" textLength="67">Serializable</text><line style="stroke:#a80036;stroke-width:1.5" x1="1482.5" x2="1579.5" y1="74" y2="74"/><line style="stroke:#a80036;stroke-width:1.5" x1="1482.5" x2="1579.5" y1="82" y2="82"/><rect id="doa.engine.scene.elements.DoaTransform" width="112" height="48" x="391" y="831" fill="#FEFECE" filter="url(#f1rgb5j8n7nsck)" style="stroke:#a80036;stroke-width:1.5"/><ellipse cx="406" cy="847" fill="#ADD1B2" rx="11" ry="11" style="stroke:#a80036;stroke-width:1"/><path d="M408.7656,842.875 Q408.9219,842.6563 409.1094,842.5469 Q409.2969,842.4375 409.5156,842.4375 Q409.8906,842.4375 410.125,842.7031 Q410.3594,842.9531 410.3594,843.5625 L410.3594,845.0156 Q410.3594,845.625 410.125,845.8906 Q409.8906,846.1563 409.5156,846.1563 Q409.1719,846.1563 408.9688,845.9531 Q408.7656,845.7656 408.6563,845.25 Q408.6094,844.8906 408.4219,844.7031 Q408.0938,844.3281 407.4844,844.1094 Q406.875,843.8906 406.25,843.8906 Q405.4844,843.8906 404.8438,844.2188 Q404.2188,844.5469 403.7188,845.2969 Q403.2344,846.0469 403.2344,847.0781 L403.2344,848.1719 Q403.2344,849.4063 404.125,850.2344 Q405.0156,851.0469 406.6094,851.0469 Q407.5469,851.0469 408.2031,850.7969 Q408.5938,850.6406 409.0156,850.2031 Q409.2813,849.9375 409.4219,849.8594 Q409.5781,849.7813 409.7813,849.7813 Q410.1094,849.7813 410.3594,850.0469 Q410.625,850.2969 410.625,850.6406 Q410.625,850.9844 410.2813,851.3906 Q409.7813,851.9688 408.9844,852.2969 Q407.9063,852.75 406.6094,852.75 Q405.0938,852.75 403.8906,852.125 Q402.9063,851.625 402.2188,850.5625 Q401.5313,849.4844 401.5313,848.2031 L401.5313,847.0469 Q401.5313,845.7188 402.1406,844.5781 Q402.7656,843.4219 403.8594,842.8125 Q404.9531,842.1875 406.1875,842.1875 Q406.9219,842.1875 407.5625,842.3594 Q408.2188,842.5156 408.7656,842.875 Z"/><text x="420" y="851.91" fill="#000" font-family="sans-serif" font-size="12" lengthAdjust="spacingAndGlyphs" textLength="80">DoaTransform</text><line style="stroke:#a80036;stroke-width:1.5" x1="392" x2="502" y1="863" y2="863"/><line style="stroke:#a80036;stroke-width:1.5" x1="392" x2="502" y1="871" y2="871"/><rect id="doa.engine.scene.elements.physics.DoaRigidBody" width="111" height="48" x="156.5" y="831" fill="#FEFECE" filter="url(#f1rgb5j8n7nsck)" style="stroke:#a80036;stroke-width:1.5"/><ellipse cx="171.5" cy="847" fill="#ADD1B2" rx="11" ry="11" style="stroke:#a80036;stroke-width:1"/><path d="M174.2656,842.875 Q174.4219,842.6563 174.6094,842.5469 Q174.7969,842.4375 175.0156,842.4375 Q175.3906,842.4375 175.625,842.7031 Q175.8594,842.9531 175.8594,843.5625 L175.8594,845.0156 Q175.8594,845.625 175.625,845.8906 Q175.3906,846.1563 175.0156,846.1563 Q174.6719,846.1563 174.4688,845.9531 Q174.2656,845.7656 174.1563,845.25 Q174.1094,844.8906 173.9219,844.7031 Q173.5938,844.3281 172.9844,844.1094 Q172.375,843.8906 171.75,843.8906 Q170.9844,843.8906 170.3438,844.2188 Q169.7188,844.5469 169.2188,845.2969 Q168.7344,846.0469 168.7344,847.0781 L168.7344,848.1719 Q168.7344,849.4063 169.625,850.2344 Q170.5156,851.0469 172.1094,851.0469 Q173.0469,851.0469 173.7031,850.7969 Q174.0938,850.6406 174.5156,850.2031 Q174.7813,849.9375 174.9219,849.8594 Q175.0781,849.7813 175.2813,849.7813 Q175.6094,849.7813 175.8594,850.0469 Q176.125,850.2969 176.125,850.6406 Q176.125,850.9844 175.7813,851.3906 Q175.2813,851.9688 174.4844,852.2969 Q173.4063,852.75 172.1094,852.75 Q170.5938,852.75 169.3906,852.125 Q168.4063,851.625 167.7188,850.5625 Q167.0313,849.4844 167.0313,848.2031 L167.0313,847.0469 Q167.0313,845.7188 167.6406,844.5781 Q168.2656,843.4219 169.3594,842.8125 Q170.4531,842.1875 171.6875,842.1875 Q172.4219,842.1875 173.0625,842.3594 Q173.7188,842.5156 174.2656,842.875 Z"/><text x="185.5" y="851.91" fill="#000" font-family="sans-serif" font-size="12" lengthAdjust="spacingAndGlyphs" textLength="79">DoaRigidBody</text><line style="stroke:#a80036;stroke-width:1.5" x1="157.5" x2="266.5" y1="863" y2="863"/><line style="stroke:#a80036;stroke-width:1.5" x1="157.5" x2="266.5" y1="871" y2="871"/><rect id="java.lang.IllegalArgumentException" width="171" height="48" x="578.5" y="42" fill="#FEFECE" codeLine="90" filter="url(#f1rgb5j8n7nsck)" style="stroke:#a80036;stroke-width:1.5"/><ellipse cx="593.5" cy="58" fill="#ADD1B2" rx="11" ry="11" style="stroke:#a80036;stroke-width:1"/><path d="M596.2656,53.875 Q596.4219,53.6563 596.6094,53.5469 Q596.7969,53.4375 597.0156,53.4375 Q597.3906,53.4375 597.625,53.7031 Q597.8594,53.9531 597.8594,54.5625 L597.8594,56.0156 Q597.8594,56.625 597.625,56.8906 Q597.3906,57.1563 597.0156,57.1563 Q596.6719,57.1563 596.4688,56.9531 Q596.2656,56.7656 596.1563,56.25 Q596.1094,55.8906 595.9219,55.7031 Q595.5938,55.3281 594.9844,55.1094 Q594.375,54.8906 593.75,54.8906 Q592.9844,54.8906 592.3438,55.2188 Q591.7188,55.5469 591.2188,56.2969 Q590.7344,57.0469 590.7344,58.0781 L590.7344,59.1719 Q590.7344,60.4063 591.625,61.2344 Q592.5156,62.0469 594.1094,62.0469 Q595.0469,62.0469 595.7031,61.7969 Q596.0938,61.6406 596.5156,61.2031 Q596.7813,60.9375 596.9219,60.8594 Q597.0781,60.7813 597.2813,60.7813 Q597.6094,60.7813 597.8594,61.0469 Q598.125,61.2969 598.125,61.6406 Q598.125,61.9844 597.7813,62.3906 Q597.2813,62.9688 596.4844,63.2969 Q595.4063,63.75 594.1094,63.75 Q592.5938,63.75 591.3906,63.125 Q590.4063,62.625 589.7188,61.5625 Q589.0313,60.4844 589.0313,59.2031 L589.0313,58.0469 Q589.0313,56.7188 589.6406,55.5781 Q590.2656,54.4219 591.3594,53.8125 Q592.4531,53.1875 593.6875,53.1875 Q594.4219,53.1875 595.0625,53.3594 Q595.7188,53.5156 596.2656,53.875 Z"/><text x="607.5" y="62.91" fill="#000" font-family="sans-serif" font-size="12" lengthAdjust="spacingAndGlyphs" textLength="139">IllegalArgumentException</text><line style="stroke:#a80036;stroke-width:1.5" x1="579.5" x2="748.5" y1="74" y2="74"/><line style="stroke:#a80036;stroke-width:1.5" x1="579.5" x2="748.5" y1="82" y2="82"/><path id="java.io.Serializable-backto-doa.engine.scene.DoaComponent" fill="none" d="M1461.08,68.47 C1332.4,72.26 1063.9,85.54 984,131 C965.06,141.78 948.56,157.79 934.74,174.9" codeLine="74" style="stroke:#a80036;stroke-width:1;stroke-dasharray:7,7"/><polygon fill="none" points="1461.03 61.47 1481.22 67.92 1461.42 75.47 1461.03 61.47" style="stroke:#a80036;stroke-width:1"/><path id="doa.engine.scene.DoaComponent-to-doa.engine.scene.DoaObject" fill="none" d="M818.52,348.26 C813.46,357.9 809.12,367.9 806,378 C800.27,396.54 797.54,416.71 796.69,436.56" codeLine="75" style="stroke:#a80036;stroke-width:1"/><polygon fill="#A80036" points="796.52 441.6 800.826 432.742 796.691 436.603 792.831 432.468 796.52 441.6" style="stroke:#a80036;stroke-width:1"/><text x="807" y="400.495" fill="#000" font-family="sans-serif" font-size="13" lengthAdjust="spacingAndGlyphs" textLength="34">owner</text><path id="doa.engine.scene.DoaObject-to-doa.engine.scene.DoaComponent" fill="none" d="M838.42,441.76 C846.02,412.51 854.1,381.41 861.37,353.46" codeLine="80" style="stroke:#a80036;stroke-width:1"/><polygon fill="#A80036" points="862.71 348.28 856.577 355.986 861.454 353.12 864.32 357.996 862.71 348.28" style="stroke:#a80036;stroke-width:1"/><text x="868" y="392.495" fill="#000" font-family="sans-serif" font-size="13" lengthAdjust="spacingAndGlyphs" textLength="71">components</text><text x="854" y="408.847" fill="#000" font-family="sans-serif" font-size="13" lengthAdjust="spacingAndGlyphs" textLength="99">componentsView</text><text x="855.812" y="369.063" fill="#000" font-family="sans-serif" font-size="13" lengthAdjust="spacingAndGlyphs" textLength="5">*</text><path id="java.io.Serializable-backto-doa.engine.scene.DoaObject" fill="none" d="M1539.53,110 C1548.97,171.2 1555.8,283.17 1496,348 C1356.59,499.14 1237.71,375.91 1043,442 C1037.23,443.96 1031.42,446.02 1025.59,448.18" codeLine="76" style="stroke:#a80036;stroke-width:1;stroke-dasharray:7,7"/><polygon fill="none" points="1532.64 111.18 1536.13 90.28 1546.43 108.79 1532.64 111.18" style="stroke:#a80036;stroke-width:1"/><path id="doa.engine.scene.DoaObject-to-doa.engine.scene.elements.DoaTransform" fill="none" d="M639.86,670.22 C606.74,694.64 573.01,721.21 543,748 C515.45,772.59 487.51,804.39 468.93,826.72" codeLine="77" style="stroke:#a80036;stroke-width:1"/><polygon fill="#A80036" points="465.57 830.78 474.385 826.388 468.754 826.925 468.217 821.294 465.57 830.78" style="stroke:#a80036;stroke-width:1"/><text x="599" y="714.495" fill="#000" font-family="sans-serif" font-size="13" lengthAdjust="spacingAndGlyphs" textLength="54">transform</text><path id="doa.engine.scene.DoaObject-to-doa.engine.scene.elements.physics.DoaRigidBody" fill="none" d="M592.4,644.12 C521.91,674.64 444.07,710.66 375,748 C329.81,772.43 280.75,805.27 248.39,827.89" codeLine="78" style="stroke:#a80036;stroke-width:1"/><polygon fill="#A80036" points="244.14 830.87 253.808 828.99 248.238 828.005 249.223 822.434 244.14 830.87" style="stroke:#a80036;stroke-width:1"/><text x="468" y="714.495" fill="#000" font-family="sans-serif" font-size="13" lengthAdjust="spacingAndGlyphs" textLength="54">rigidBody</text><path id="doa.engine.scene.DoaObject-to-doa.engine.scene.DoaScene" fill="none" d="M917.94,670.13 C942.92,696.07 969.36,723.53 993.99,749.1" codeLine="79" style="stroke:#a80036;stroke-width:1"/><polygon fill="#A80036" points="997.61 752.86 994.242 743.605 994.139 749.261 988.483 749.158 997.61 752.86" style="stroke:#a80036;stroke-width:1"/><text x="961" y="714.495" fill="#000" font-family="sans-serif" font-size="13" lengthAdjust="spacingAndGlyphs" textLength="35">scene</text><path id="java.lang.IllegalArgumentException-backto-doa.engine.scene.DoaObjectInstantiationException" fill="none" d="M664,110.43 C664,148.09 664,201.44 664,233.34" codeLine="81" style="stroke:#a80036;stroke-width:1"/><polygon fill="none" points="657 110.34 664 90.34 671 110.34 657 110.34" style="stroke:#a80036;stroke-width:1"/><path id="java.io.Serializable-backto-doa.engine.scene.DoaScene" fill="none" d="M1560.98,107.31 C1563.42,112.08 1565.52,117.02 1567,122 C1595.82,218.67 1578.48,252.49 1546,348 C1491.53,508.17 1458.01,545.93 1343,670 C1298.81,717.67 1240.85,761.46 1192.07,794.36" codeLine="82" style="stroke:#a80036;stroke-width:1;stroke-dasharray:7,7"/><polygon fill="none" points="1554.92 110.82 1550.42 90.11 1566.85 103.49 1554.92 110.82" style="stroke:#a80036;stroke-width:1"/><text x="705.5" y="994.381" fill="#888" font-family="sans-serif" font-size="10" lengthAdjust="spacingAndGlyphs" textLength="190">UMLDoclet 2.0.12, PlantUML 1.2020.16</text></g></svg>