<?xml version="1.0" encoding="UTF-8" standalone="no"?><svg xmlns="http://www.w3.org/2000/svg" xmlns:xlink="http://www.w3.org/1999/xlink" contentScriptType="application/ecmascript" contentStyleType="text/css" height="182px" preserveAspectRatio="none" style="width:236px;height:182px;" version="1.1" viewBox="0 0 236 182" width="236px" zoomAndPan="magnify"><defs><filter height="300%" id="f3nrxy092dzyn" width="300%" x="-1" y="-1"><feGaussianBlur result="blurOut" stdDeviation="2.0"/><feColorMatrix in="blurOut" result="blurOut2" type="matrix" values="0 0 0 0 0 0 0 0 0 0 0 0 0 0 0 0 0 0 .4 0"/><feOffset dx="4.0" dy="4.0" in="blurOut2" result="blurOut3"/><feBlend in="SourceGraphic" in2="blurOut3" mode="normal"/></filter></defs><g><!--MD5=[63b13a862132b1635b364aff665c3c72]
class doa.engine.maths.DoaMath--><a href="DoaMath.html" target="_top" title="DoaMath.html" xlink:actuate="onRequest" xlink:href="DoaMath.html" xlink:show="new" xlink:title="DoaMath.html" xlink:type="simple"><rect codeLine="5" fill="#FEFECE" filter="url(#f3nrxy092dzyn)" height="145.0391" id="doa.engine.maths.DoaMath" style="stroke: #A80036; stroke-width: 1.5;" width="210" x="7" y="7"/><ellipse cx="65.25" cy="27.0938" fill="#ADD1B2" rx="11" ry="11" style="stroke: #A80036; stroke-width: 1.0;"/><path d="M68.0156,22.9688 Q68.1719,22.75 68.3594,22.6406 Q68.5469,22.5313 68.7656,22.5313 Q69.1406,22.5313 69.375,22.7969 Q69.6094,23.0469 69.6094,23.6563 L69.6094,25.1094 Q69.6094,25.7188 69.375,25.9844 Q69.1406,26.25 68.7656,26.25 Q68.4219,26.25 68.2188,26.0469 Q68.0156,25.8594 67.9063,25.3438 Q67.8594,24.9844 67.6719,24.7969 Q67.3438,24.4219 66.7344,24.2031 Q66.125,23.9844 65.5,23.9844 Q64.7344,23.9844 64.0938,24.3125 Q63.4688,24.6406 62.9688,25.3906 Q62.4844,26.1406 62.4844,27.1719 L62.4844,28.2656 Q62.4844,29.5 63.375,30.3281 Q64.2656,31.1406 65.8594,31.1406 Q66.7969,31.1406 67.4531,30.8906 Q67.8438,30.7344 68.2656,30.2969 Q68.5313,30.0313 68.6719,29.9531 Q68.8281,29.875 69.0313,29.875 Q69.3594,29.875 69.6094,30.1406 Q69.875,30.3906 69.875,30.7344 Q69.875,31.0781 69.5313,31.4844 Q69.0313,32.0625 68.2344,32.3906 Q67.1563,32.8438 65.8594,32.8438 Q64.3438,32.8438 63.1406,32.2188 Q62.1563,31.7188 61.4688,30.6563 Q60.7813,29.5781 60.7813,28.2969 L60.7813,27.1406 Q60.7813,25.8125 61.3906,24.6719 Q62.0156,23.5156 63.1094,22.9063 Q64.2031,22.2813 65.4375,22.2813 Q66.1719,22.2813 66.8125,22.4531 Q67.4688,22.6094 68.0156,22.9688 Z "/><text fill="#000000" font-family="sans-serif" font-size="14" lengthAdjust="spacingAndGlyphs" textLength="57" x="99.75" y="26.5332">DoaMath</text><text fill="#000000" font-family="sans-serif" font-size="10" lengthAdjust="spacingAndGlyphs" textLength="85" x="85.75" y="39.9902">doa.engine.maths</text><line style="stroke: #A80036; stroke-width: 1.5;" x1="8" x2="216" y1="47.1875" y2="47.1875"/><ellipse cx="18" cy="58.1875" fill="#84BE84" rx="3" ry="3" style="stroke: #038048; stroke-width: 1.0;"/><text fill="#000000" font-family="sans-serif" font-size="11" lengthAdjust="spacingAndGlyphs" text-decoration="underline" textLength="138" x="27" y="62.6064">clamp(float, float, float): float</text><ellipse cx="18" cy="72.0234" fill="#84BE84" rx="3" ry="3" style="stroke: #038048; stroke-width: 1.0;"/><text fill="#000000" font-family="sans-serif" font-size="11" lengthAdjust="spacingAndGlyphs" text-decoration="underline" textLength="128" x="27" y="76.4424">lerp(float, float, float): float</text><ellipse cx="18" cy="85.8594" fill="#84BE84" rx="3" ry="3" style="stroke: #038048; stroke-width: 1.0;"/><text fill="#000000" font-family="sans-serif" font-size="11" lengthAdjust="spacingAndGlyphs" text-decoration="underline" textLength="184" x="27" y="90.2783">map(float, float, float, float, float): float</text><ellipse cx="18" cy="99.6953" fill="#84BE84" rx="3" ry="3" style="stroke: #038048; stroke-width: 1.0;"/><text fill="#000000" font-family="sans-serif" font-size="11" lengthAdjust="spacingAndGlyphs" text-decoration="underline" textLength="163" x="27" y="104.1143">randomBetween(float, float): float</text><ellipse cx="18" cy="113.5313" fill="#84BE84" rx="3" ry="3" style="stroke: #038048; stroke-width: 1.0;"/><text fill="#000000" font-family="sans-serif" font-size="11" lengthAdjust="spacingAndGlyphs" text-decoration="underline" textLength="144" x="27" y="117.9502">randomIntBetween(int, int): int</text><ellipse cx="18" cy="127.3672" fill="#84BE84" rx="3" ry="3" style="stroke: #038048; stroke-width: 1.0;"/><text fill="#000000" font-family="sans-serif" font-size="11" lengthAdjust="spacingAndGlyphs" text-decoration="underline" textLength="106" x="27" y="131.7861">toDegress(float): float</text><ellipse cx="18" cy="141.2031" fill="#84BE84" rx="3" ry="3" style="stroke: #038048; stroke-width: 1.0;"/><text fill="#000000" font-family="sans-serif" font-size="11" lengthAdjust="spacingAndGlyphs" text-decoration="underline" textLength="104" x="27" y="145.6221">toRadians(float): float</text></a><text fill="#888888" font-family="sans-serif" font-size="10" lengthAdjust="spacingAndGlyphs" textLength="190" x="17" y="169.4199">UMLDoclet 2.0.12, PlantUML 1.2020.16</text><!--MD5=[3329d6f422101f3b2360537fa65e63f3]
@startuml
    set namespaceSeparator none
    hide empty fields
    hide empty methods

    class "<size:14>DoaMath\n<size:10>doa.engine.maths" as doa.engine.maths.DoaMath [[DoaMath.html]] {
        {static} +clamp(float, float, float): float
        {static} +lerp(float, float, float): float
        {static} +map(float, float, float, float, float): float
        {static} +randomBetween(float, float): float
        {static} +randomIntBetween(int, int): int
        {static} +toDegress(float): float
        {static} +toRadians(float): float
    }

    center footer UMLDoclet 2.0.12, PlantUML 1.2020.16
@enduml

PlantUML version 1.2020.16(Sun Aug 23 23:20:43 TRT 2020)
(APACHE source distribution)
Java Runtime: Java(TM) SE Runtime Environment
JVM: Java HotSpot(TM) 64-Bit Server VM
Default Encoding: Cp1254
Language: en
Country: US
--></g></svg>