<svg xmlns="http://www.w3.org/2000/svg" xmlns:xlink="http://www.w3.org/1999/xlink" width="315" height="490" contentScriptType="application/ecmascript" contentStyleType="text/css" style="width:315px;height:490px" preserveAspectRatio="none" version="1.1" viewBox="0 0 315 490" zoomAndPan="magnify"><defs><filter id="f11pojor51d4e9" width="300%" height="300%" x="-1" y="-1"><feGaussianBlur result="blurOut" stdDeviation="2"/><feColorMatrix in="blurOut" result="blurOut2" type="matrix" values="0 0 0 0 0 0 0 0 0 0 0 0 0 0 0 0 0 0 .4 0"/><feOffset dx="4" dy="4" in="blurOut2" result="blurOut3"/><feBlend in="SourceGraphic" in2="blurOut3" mode="normal"/></filter></defs><g><a href="DoaVector.html" target="_top" title="DoaVector.html" xlink:actuate="onRequest" xlink:href="DoaVector.html" xlink:show="new" xlink:title="DoaVector.html" xlink:type="simple"><rect id="doa.engine.maths.DoaVector" width="289" height="346.742" x="7" y="107" fill="#FEFECE" codeLine="5" filter="url(#f11pojor51d4e9)" style="stroke:#a80036;stroke-width:1.5"/><ellipse cx="104.75" cy="127.094" fill="#ADD1B2" rx="11" ry="11" style="stroke:#a80036;stroke-width:1"/><path d="M107.5156,122.9688 Q107.6719,122.75 107.8594,122.6406 Q108.0469,122.5313 108.2656,122.5313 Q108.6406,122.5313 108.875,122.7969 Q109.1094,123.0469 109.1094,123.6563 L109.1094,125.1094 Q109.1094,125.7188 108.875,125.9844 Q108.6406,126.25 108.2656,126.25 Q107.9219,126.25 107.7188,126.0469 Q107.5156,125.8594 107.4063,125.3438 Q107.3594,124.9844 107.1719,124.7969 Q106.8438,124.4219 106.2344,124.2031 Q105.625,123.9844 105,123.9844 Q104.2344,123.9844 103.5938,124.3125 Q102.9688,124.6406 102.4688,125.3906 Q101.9844,126.1406 101.9844,127.1719 L101.9844,128.2656 Q101.9844,129.5 102.875,130.3281 Q103.7656,131.1406 105.3594,131.1406 Q106.2969,131.1406 106.9531,130.8906 Q107.3438,130.7344 107.7656,130.2969 Q108.0313,130.0313 108.1719,129.9531 Q108.3281,129.875 108.5313,129.875 Q108.8594,129.875 109.1094,130.1406 Q109.375,130.3906 109.375,130.7344 Q109.375,131.0781 109.0313,131.4844 Q108.5313,132.0625 107.7344,132.3906 Q106.6563,132.8438 105.3594,132.8438 Q103.8438,132.8438 102.6406,132.2188 Q101.6563,131.7188 100.9688,130.6563 Q100.2813,129.5781 100.2813,128.2969 L100.2813,127.1406 Q100.2813,125.8125 100.8906,124.6719 Q101.5156,123.5156 102.6094,122.9063 Q103.7031,122.2813 104.9375,122.2813 Q105.6719,122.2813 106.3125,122.4531 Q106.9688,122.6094 107.5156,122.9688 Z"/><text x="134.25" y="126.533" fill="#000" font-family="sans-serif" font-size="14" lengthAdjust="spacingAndGlyphs" textLength="67">DoaVector</text><text x="125.25" y="139.99" fill="#000" font-family="sans-serif" font-size="10" lengthAdjust="spacingAndGlyphs" textLength="85">doa.engine.maths</text><line style="stroke:#a80036;stroke-width:1.5" x1="8" x2="295" y1="147.188" y2="147.188"/><ellipse cx="18" cy="158.188" fill="none" rx="3" ry="3" style="stroke:#038048;stroke-width:1"/><text x="27" y="162.606" fill="#000" font-family="sans-serif" font-size="11" lengthAdjust="spacingAndGlyphs" textLength="33">x: float</text><ellipse cx="18" cy="172.023" fill="none" rx="3" ry="3" style="stroke:#038048;stroke-width:1"/><text x="27" y="176.442" fill="#000" font-family="sans-serif" font-size="11" lengthAdjust="spacingAndGlyphs" textLength="33">y: float</text><line style="stroke:#a80036;stroke-width:1.5" x1="8" x2="295" y1="182.859" y2="182.859"/><ellipse cx="18" cy="193.859" fill="#84BE84" rx="3" ry="3" style="stroke:#038048;stroke-width:1"/><text x="27" y="198.278" fill="#000" font-family="sans-serif" font-size="11" lengthAdjust="spacingAndGlyphs" textLength="60">DoaVector()</text><ellipse cx="18" cy="207.695" fill="#84BE84" rx="3" ry="3" style="stroke:#038048;stroke-width:1"/><text x="27" y="212.114" fill="#000" font-family="sans-serif" font-size="11" lengthAdjust="spacingAndGlyphs" textLength="108">DoaVector(float, float)</text><ellipse cx="18" cy="221.531" fill="#84BE84" rx="3" ry="3" style="stroke:#038048;stroke-width:1"/><text x="27" y="225.95" fill="#000" font-family="sans-serif" font-size="11" lengthAdjust="spacingAndGlyphs" textLength="112">DoaVector(DoaVector)</text><ellipse cx="18" cy="235.367" fill="#84BE84" rx="3" ry="3" style="stroke:#038048;stroke-width:1"/><text x="27" y="239.786" fill="#000" font-family="sans-serif" font-size="11" lengthAdjust="spacingAndGlyphs" text-decoration="underline" textLength="194">add(DoaVector, DoaVector): DoaVector</text><ellipse cx="18" cy="249.203" fill="#84BE84" rx="3" ry="3" style="stroke:#038048;stroke-width:1"/><text x="27" y="253.622" fill="#000" font-family="sans-serif" font-size="11" lengthAdjust="spacingAndGlyphs" text-decoration="underline" textLength="220">add(DoaVector, DoaVector, DoaVector): void</text><ellipse cx="18" cy="263.039" fill="#84BE84" rx="3" ry="3" style="stroke:#038048;stroke-width:1"/><text x="27" y="267.458" fill="#000" font-family="sans-serif" font-size="11" lengthAdjust="spacingAndGlyphs" text-decoration="underline" textLength="194">sub(DoaVector, DoaVector): DoaVector</text><ellipse cx="18" cy="276.875" fill="#84BE84" rx="3" ry="3" style="stroke:#038048;stroke-width:1"/><text x="27" y="281.294" fill="#000" font-family="sans-serif" font-size="11" lengthAdjust="spacingAndGlyphs" text-decoration="underline" textLength="220">sub(DoaVector, DoaVector, DoaVector): void</text><ellipse cx="18" cy="290.711" fill="#84BE84" rx="3" ry="3" style="stroke:#038048;stroke-width:1"/><text x="27" y="295.13" fill="#000" font-family="sans-serif" font-size="11" lengthAdjust="spacingAndGlyphs" text-decoration="underline" textLength="161">mul(DoaVector, float): DoaVector</text><ellipse cx="18" cy="304.547" fill="#84BE84" rx="3" ry="3" style="stroke:#038048;stroke-width:1"/><text x="27" y="308.966" fill="#000" font-family="sans-serif" font-size="11" lengthAdjust="spacingAndGlyphs" text-decoration="underline" textLength="187">mul(DoaVector, float, DoaVector): void</text><ellipse cx="18" cy="318.383" fill="#84BE84" rx="3" ry="3" style="stroke:#038048;stroke-width:1"/><text x="27" y="322.802" fill="#000" font-family="sans-serif" font-size="11" lengthAdjust="spacingAndGlyphs" text-decoration="underline" textLength="214">translate(DoaVector, float, float): DoaVector</text><ellipse cx="18" cy="332.219" fill="#84BE84" rx="3" ry="3" style="stroke:#038048;stroke-width:1"/><text x="27" y="336.638" fill="#000" font-family="sans-serif" font-size="11" lengthAdjust="spacingAndGlyphs" text-decoration="underline" textLength="240">translate(DoaVector, float, float, DoaVector): void</text><ellipse cx="18" cy="346.055" fill="#84BE84" rx="3" ry="3" style="stroke:#038048;stroke-width:1"/><text x="27" y="350.474" fill="#000" font-family="sans-serif" font-size="11" lengthAdjust="spacingAndGlyphs" text-decoration="underline" textLength="237">rotateAroundOrigin(DoaVector, float): DoaVector</text><ellipse cx="18" cy="359.891" fill="#84BE84" rx="3" ry="3" style="stroke:#038048;stroke-width:1"/><text x="27" y="364.31" fill="#000" font-family="sans-serif" font-size="11" lengthAdjust="spacingAndGlyphs" text-decoration="underline" textLength="263">rotateAroundOrigin(DoaVector, float, DoaVector): void</text><ellipse cx="18" cy="373.727" fill="#84BE84" rx="3" ry="3" style="stroke:#038048;stroke-width:1"/><text x="27" y="378.146" fill="#000" font-family="sans-serif" font-size="11" lengthAdjust="spacingAndGlyphs" text-decoration="underline" textLength="151">negate(DoaVector): DoaVector</text><ellipse cx="18" cy="387.563" fill="#84BE84" rx="3" ry="3" style="stroke:#038048;stroke-width:1"/><text x="27" y="391.981" fill="#000" font-family="sans-serif" font-size="11" lengthAdjust="spacingAndGlyphs" text-decoration="underline" textLength="177">negate(DoaVector, DoaVector): void</text><ellipse cx="18" cy="401.398" fill="#84BE84" rx="3" ry="3" style="stroke:#038048;stroke-width:1"/><text x="27" y="405.817" fill="#000" font-family="sans-serif" font-size="11" lengthAdjust="spacingAndGlyphs" text-decoration="underline" textLength="164">normalise(DoaVector): DoaVector</text><ellipse cx="18" cy="415.234" fill="#84BE84" rx="3" ry="3" style="stroke:#038048;stroke-width:1"/><text x="27" y="419.653" fill="#000" font-family="sans-serif" font-size="11" lengthAdjust="spacingAndGlyphs" text-decoration="underline" textLength="190">normalise(DoaVector, DoaVector): void</text><ellipse cx="18" cy="429.07" fill="#84BE84" rx="3" ry="3" style="stroke:#038048;stroke-width:1"/><text x="27" y="433.489" fill="#000" font-family="sans-serif" font-size="11" lengthAdjust="spacingAndGlyphs" textLength="84">magnitude(): float</text><ellipse cx="18" cy="442.906" fill="#84BE84" rx="3" ry="3" style="stroke:#038048;stroke-width:1"/><text x="27" y="447.325" fill="#000" font-family="sans-serif" font-size="11" lengthAdjust="spacingAndGlyphs" textLength="125">magnitudeSquared(): float</text></a><rect id="java.io.Serializable" width="105" height="40.188" x="99" y="7" fill="#FEFECE" codeLine="29" filter="url(#f11pojor51d4e9)" style="stroke:#a80036;stroke-width:1.5"/><ellipse cx="114" cy="27.094" fill="#B4A7E5" rx="11" ry="11" style="stroke:#a80036;stroke-width:1"/><path d="M114.9531,23.7344 L114.9531,30.3906 L116.6719,30.3906 Q117.2813,30.3906 117.5469,30.625 Q117.8125,30.8594 117.8125,31.25 Q117.8125,31.625 117.5469,31.8594 Q117.2813,32.0938 116.6719,32.0938 L111.5313,32.0938 Q110.9219,32.0938 110.6563,31.8594 Q110.3906,31.625 110.3906,31.2344 Q110.3906,30.8594 110.6563,30.625 Q110.9219,30.3906 111.5313,30.3906 L113.25,30.3906 L113.25,23.7344 L111.5313,23.7344 Q110.9219,23.7344 110.6563,23.5 Q110.3906,23.2656 110.3906,22.875 Q110.3906,22.5 110.6563,22.2656 Q110.9219,22.0313 111.5313,22.0313 L116.6719,22.0313 Q117.2813,22.0313 117.5469,22.2656 Q117.8125,22.5 117.8125,22.875 Q117.8125,23.2656 117.5469,23.5 Q117.2813,23.7344 116.6719,23.7344 L114.9531,23.7344 Z"/><text x="128" y="26.533" fill="#000" font-family="sans-serif" font-size="14" font-style="italic" lengthAdjust="spacingAndGlyphs" textLength="73">Serializable</text><text x="149" y="39.99" fill="#000" font-family="sans-serif" font-size="10" font-style="italic" lengthAdjust="spacingAndGlyphs" textLength="31">java.io</text><path id="java.io.Serializable-backto-doa.engine.maths.DoaVector" fill="none" d="M151.5,67.49 C151.5,79 151.5,92.39 151.5,106.72" codeLine="31" style="stroke:#a80036;stroke-width:1;stroke-dasharray:7,7"/><polygon fill="none" points="144.5 67.32 151.5 47.32 158.5 67.32 144.5 67.32" style="stroke:#a80036;stroke-width:1"/><text x="53.5" y="477.123" fill="#888" font-family="sans-serif" font-size="10" lengthAdjust="spacingAndGlyphs" textLength="190">UMLDoclet 2.0.12, PlantUML 1.2020.16</text></g></svg>