<svg xmlns="http://www.w3.org/2000/svg" xmlns:xlink="http://www.w3.org/1999/xlink" width="605" height="550" contentScriptType="application/ecmascript" contentStyleType="text/css" style="width:605px;height:550px" preserveAspectRatio="none" version="1.1" viewBox="0 0 605 550" zoomAndPan="magnify"><defs><filter id="fktq8unsa6ovb" width="300%" height="300%" x="-1" y="-1"><feGaussianBlur result="blurOut" stdDeviation="2"/><feColorMatrix in="blurOut" result="blurOut2" type="matrix" values="0 0 0 0 0 0 0 0 0 0 0 0 0 0 0 0 0 0 .4 0"/><feOffset dx="4" dy="4" in="blurOut2" result="blurOut3"/><feBlend in="SourceGraphic" in2="blurOut3" mode="normal"/></filter></defs><g><polygon fill="#FFF" points="16 130 147 130 154 153.609 583 153.609 583 521 16 521 16 130" filter="url(#fktq8unsa6ovb)" style="stroke:#000;stroke-width:1.5"/><line style="stroke:#000;stroke-width:1.5" x1="16" x2="154" y1="153.609" y2="153.609"/><text x="20" y="146.533" fill="#000" font-family="sans-serif" font-size="14" font-weight="bold" lengthAdjust="spacingAndGlyphs" textLength="125">doa.engine.maths</text><polygon fill="#FFF" points="111 6 163 6 170 29.609 243 29.609 243 106 111 106 111 6" filter="url(#fktq8unsa6ovb)" style="stroke:#000;stroke-width:1.5"/><line style="stroke:#000;stroke-width:1.5" x1="111" x2="170" y1="29.609" y2="29.609"/><text x="115" y="22.533" fill="#000" font-family="sans-serif" font-size="14" font-weight="bold" lengthAdjust="spacingAndGlyphs" textLength="46">java.io</text><a href="DoaMath.html" target="_top" title="DoaMath.html" xlink:actuate="onRequest" xlink:href="DoaMath.html" xlink:show="new" xlink:title="DoaMath.html" xlink:type="simple"><rect id="doa.engine.maths.DoaMath" width="210" height="144.852" x="357" y="263" fill="#FEFECE" codeLine="3" filter="url(#fktq8unsa6ovb)" style="stroke:#a80036;stroke-width:1.5"/><ellipse cx="433.25" cy="279" fill="#ADD1B2" rx="11" ry="11" style="stroke:#a80036;stroke-width:1"/><path d="M436.0156,274.875 Q436.1719,274.6563 436.3594,274.5469 Q436.5469,274.4375 436.7656,274.4375 Q437.1406,274.4375 437.375,274.7031 Q437.6094,274.9531 437.6094,275.5625 L437.6094,277.0156 Q437.6094,277.625 437.375,277.8906 Q437.1406,278.1563 436.7656,278.1563 Q436.4219,278.1563 436.2188,277.9531 Q436.0156,277.7656 435.9063,277.25 Q435.8594,276.8906 435.6719,276.7031 Q435.3438,276.3281 434.7344,276.1094 Q434.125,275.8906 433.5,275.8906 Q432.7344,275.8906 432.0938,276.2188 Q431.4688,276.5469 430.9688,277.2969 Q430.4844,278.0469 430.4844,279.0781 L430.4844,280.1719 Q430.4844,281.4063 431.375,282.2344 Q432.2656,283.0469 433.8594,283.0469 Q434.7969,283.0469 435.4531,282.7969 Q435.8438,282.6406 436.2656,282.2031 Q436.5313,281.9375 436.6719,281.8594 Q436.8281,281.7813 437.0313,281.7813 Q437.3594,281.7813 437.6094,282.0469 Q437.875,282.2969 437.875,282.6406 Q437.875,282.9844 437.5313,283.3906 Q437.0313,283.9688 436.2344,284.2969 Q435.1563,284.75 433.8594,284.75 Q432.3438,284.75 431.1406,284.125 Q430.1563,283.625 429.4688,282.5625 Q428.7813,281.4844 428.7813,280.2031 L428.7813,279.0469 Q428.7813,277.7188 429.3906,276.5781 Q430.0156,275.4219 431.1094,274.8125 Q432.2031,274.1875 433.4375,274.1875 Q434.1719,274.1875 434.8125,274.3594 Q435.4688,274.5156 436.0156,274.875 Z"/><text x="453.75" y="283.91" fill="#000" font-family="sans-serif" font-size="12" lengthAdjust="spacingAndGlyphs" textLength="49">DoaMath</text><line style="stroke:#a80036;stroke-width:1.5" x1="358" x2="566" y1="295" y2="295"/><line style="stroke:#a80036;stroke-width:1.5" x1="358" x2="566" y1="303" y2="303"/><ellipse cx="368" cy="314" fill="#84BE84" rx="3" ry="3" style="stroke:#038048;stroke-width:1"/><text x="377" y="318.419" fill="#000" font-family="sans-serif" font-size="11" lengthAdjust="spacingAndGlyphs" text-decoration="underline" textLength="138">clamp(float, float, float): float</text><ellipse cx="368" cy="327.836" fill="#84BE84" rx="3" ry="3" style="stroke:#038048;stroke-width:1"/><text x="377" y="332.255" fill="#000" font-family="sans-serif" font-size="11" lengthAdjust="spacingAndGlyphs" text-decoration="underline" textLength="128">lerp(float, float, float): float</text><ellipse cx="368" cy="341.672" fill="#84BE84" rx="3" ry="3" style="stroke:#038048;stroke-width:1"/><text x="377" y="346.091" fill="#000" font-family="sans-serif" font-size="11" lengthAdjust="spacingAndGlyphs" text-decoration="underline" textLength="184">map(float, float, float, float, float): float</text><ellipse cx="368" cy="355.508" fill="#84BE84" rx="3" ry="3" style="stroke:#038048;stroke-width:1"/><text x="377" y="359.927" fill="#000" font-family="sans-serif" font-size="11" lengthAdjust="spacingAndGlyphs" text-decoration="underline" textLength="163">randomBetween(float, float): float</text><ellipse cx="368" cy="369.344" fill="#84BE84" rx="3" ry="3" style="stroke:#038048;stroke-width:1"/><text x="377" y="373.763" fill="#000" font-family="sans-serif" font-size="11" lengthAdjust="spacingAndGlyphs" text-decoration="underline" textLength="144">randomIntBetween(int, int): int</text><ellipse cx="368" cy="383.18" fill="#84BE84" rx="3" ry="3" style="stroke:#038048;stroke-width:1"/><text x="377" y="387.599" fill="#000" font-family="sans-serif" font-size="11" lengthAdjust="spacingAndGlyphs" text-decoration="underline" textLength="106">toDegress(float): float</text><ellipse cx="368" cy="397.016" fill="#84BE84" rx="3" ry="3" style="stroke:#038048;stroke-width:1"/><text x="377" y="401.435" fill="#000" font-family="sans-serif" font-size="11" lengthAdjust="spacingAndGlyphs" text-decoration="underline" textLength="104">toRadians(float): float</text></a><a href="DoaVector.html" target="_top" title="DoaVector.html" xlink:actuate="onRequest" xlink:href="DoaVector.html" xlink:show="new" xlink:title="DoaVector.html" xlink:type="simple"><rect id="doa.engine.maths.DoaVector" width="289" height="338.555" x="32.5" y="166" fill="#FEFECE" codeLine="13" filter="url(#fktq8unsa6ovb)" style="stroke:#a80036;stroke-width:1.5"/><ellipse cx="144.25" cy="182" fill="#ADD1B2" rx="11" ry="11" style="stroke:#a80036;stroke-width:1"/><path d="M147.0156,177.875 Q147.1719,177.6563 147.3594,177.5469 Q147.5469,177.4375 147.7656,177.4375 Q148.1406,177.4375 148.375,177.7031 Q148.6094,177.9531 148.6094,178.5625 L148.6094,180.0156 Q148.6094,180.625 148.375,180.8906 Q148.1406,181.1563 147.7656,181.1563 Q147.4219,181.1563 147.2188,180.9531 Q147.0156,180.7656 146.9063,180.25 Q146.8594,179.8906 146.6719,179.7031 Q146.3438,179.3281 145.7344,179.1094 Q145.125,178.8906 144.5,178.8906 Q143.7344,178.8906 143.0938,179.2188 Q142.4688,179.5469 141.9688,180.2969 Q141.4844,181.0469 141.4844,182.0781 L141.4844,183.1719 Q141.4844,184.4063 142.375,185.2344 Q143.2656,186.0469 144.8594,186.0469 Q145.7969,186.0469 146.4531,185.7969 Q146.8438,185.6406 147.2656,185.2031 Q147.5313,184.9375 147.6719,184.8594 Q147.8281,184.7813 148.0313,184.7813 Q148.3594,184.7813 148.6094,185.0469 Q148.875,185.2969 148.875,185.6406 Q148.875,185.9844 148.5313,186.3906 Q148.0313,186.9688 147.2344,187.2969 Q146.1563,187.75 144.8594,187.75 Q143.3438,187.75 142.1406,187.125 Q141.1563,186.625 140.4688,185.5625 Q139.7813,184.4844 139.7813,183.2031 L139.7813,182.0469 Q139.7813,180.7188 140.3906,179.5781 Q141.0156,178.4219 142.1094,177.8125 Q143.2031,177.1875 144.4375,177.1875 Q145.1719,177.1875 145.8125,177.3594 Q146.4688,177.5156 147.0156,177.875 Z"/><text x="164.75" y="186.91" fill="#000" font-family="sans-serif" font-size="12" lengthAdjust="spacingAndGlyphs" textLength="57">DoaVector</text><line style="stroke:#a80036;stroke-width:1.5" x1="33.5" x2="320.5" y1="198" y2="198"/><ellipse cx="43.5" cy="209" fill="none" rx="3" ry="3" style="stroke:#038048;stroke-width:1"/><text x="52.5" y="213.419" fill="#000" font-family="sans-serif" font-size="11" lengthAdjust="spacingAndGlyphs" textLength="33">x: float</text><ellipse cx="43.5" cy="222.836" fill="none" rx="3" ry="3" style="stroke:#038048;stroke-width:1"/><text x="52.5" y="227.255" fill="#000" font-family="sans-serif" font-size="11" lengthAdjust="spacingAndGlyphs" textLength="33">y: float</text><line style="stroke:#a80036;stroke-width:1.5" x1="33.5" x2="320.5" y1="233.672" y2="233.672"/><ellipse cx="43.5" cy="244.672" fill="#84BE84" rx="3" ry="3" style="stroke:#038048;stroke-width:1"/><text x="52.5" y="249.091" fill="#000" font-family="sans-serif" font-size="11" lengthAdjust="spacingAndGlyphs" textLength="60">DoaVector()</text><ellipse cx="43.5" cy="258.508" fill="#84BE84" rx="3" ry="3" style="stroke:#038048;stroke-width:1"/><text x="52.5" y="262.927" fill="#000" font-family="sans-serif" font-size="11" lengthAdjust="spacingAndGlyphs" textLength="108">DoaVector(float, float)</text><ellipse cx="43.5" cy="272.344" fill="#84BE84" rx="3" ry="3" style="stroke:#038048;stroke-width:1"/><text x="52.5" y="276.763" fill="#000" font-family="sans-serif" font-size="11" lengthAdjust="spacingAndGlyphs" textLength="112">DoaVector(DoaVector)</text><ellipse cx="43.5" cy="286.18" fill="#84BE84" rx="3" ry="3" style="stroke:#038048;stroke-width:1"/><text x="52.5" y="290.599" fill="#000" font-family="sans-serif" font-size="11" lengthAdjust="spacingAndGlyphs" text-decoration="underline" textLength="194">add(DoaVector, DoaVector): DoaVector</text><ellipse cx="43.5" cy="300.016" fill="#84BE84" rx="3" ry="3" style="stroke:#038048;stroke-width:1"/><text x="52.5" y="304.435" fill="#000" font-family="sans-serif" font-size="11" lengthAdjust="spacingAndGlyphs" text-decoration="underline" textLength="220">add(DoaVector, DoaVector, DoaVector): void</text><ellipse cx="43.5" cy="313.852" fill="#84BE84" rx="3" ry="3" style="stroke:#038048;stroke-width:1"/><text x="52.5" y="318.271" fill="#000" font-family="sans-serif" font-size="11" lengthAdjust="spacingAndGlyphs" text-decoration="underline" textLength="194">sub(DoaVector, DoaVector): DoaVector</text><ellipse cx="43.5" cy="327.688" fill="#84BE84" rx="3" ry="3" style="stroke:#038048;stroke-width:1"/><text x="52.5" y="332.106" fill="#000" font-family="sans-serif" font-size="11" lengthAdjust="spacingAndGlyphs" text-decoration="underline" textLength="220">sub(DoaVector, DoaVector, DoaVector): void</text><ellipse cx="43.5" cy="341.523" fill="#84BE84" rx="3" ry="3" style="stroke:#038048;stroke-width:1"/><text x="52.5" y="345.942" fill="#000" font-family="sans-serif" font-size="11" lengthAdjust="spacingAndGlyphs" text-decoration="underline" textLength="161">mul(DoaVector, float): DoaVector</text><ellipse cx="43.5" cy="355.359" fill="#84BE84" rx="3" ry="3" style="stroke:#038048;stroke-width:1"/><text x="52.5" y="359.778" fill="#000" font-family="sans-serif" font-size="11" lengthAdjust="spacingAndGlyphs" text-decoration="underline" textLength="187">mul(DoaVector, float, DoaVector): void</text><ellipse cx="43.5" cy="369.195" fill="#84BE84" rx="3" ry="3" style="stroke:#038048;stroke-width:1"/><text x="52.5" y="373.614" fill="#000" font-family="sans-serif" font-size="11" lengthAdjust="spacingAndGlyphs" text-decoration="underline" textLength="214">translate(DoaVector, float, float): DoaVector</text><ellipse cx="43.5" cy="383.031" fill="#84BE84" rx="3" ry="3" style="stroke:#038048;stroke-width:1"/><text x="52.5" y="387.45" fill="#000" font-family="sans-serif" font-size="11" lengthAdjust="spacingAndGlyphs" text-decoration="underline" textLength="240">translate(DoaVector, float, float, DoaVector): void</text><ellipse cx="43.5" cy="396.867" fill="#84BE84" rx="3" ry="3" style="stroke:#038048;stroke-width:1"/><text x="52.5" y="401.286" fill="#000" font-family="sans-serif" font-size="11" lengthAdjust="spacingAndGlyphs" text-decoration="underline" textLength="237">rotateAroundOrigin(DoaVector, float): DoaVector</text><ellipse cx="43.5" cy="410.703" fill="#84BE84" rx="3" ry="3" style="stroke:#038048;stroke-width:1"/><text x="52.5" y="415.122" fill="#000" font-family="sans-serif" font-size="11" lengthAdjust="spacingAndGlyphs" text-decoration="underline" textLength="263">rotateAroundOrigin(DoaVector, float, DoaVector): void</text><ellipse cx="43.5" cy="424.539" fill="#84BE84" rx="3" ry="3" style="stroke:#038048;stroke-width:1"/><text x="52.5" y="428.958" fill="#000" font-family="sans-serif" font-size="11" lengthAdjust="spacingAndGlyphs" text-decoration="underline" textLength="151">negate(DoaVector): DoaVector</text><ellipse cx="43.5" cy="438.375" fill="#84BE84" rx="3" ry="3" style="stroke:#038048;stroke-width:1"/><text x="52.5" y="442.794" fill="#000" font-family="sans-serif" font-size="11" lengthAdjust="spacingAndGlyphs" text-decoration="underline" textLength="177">negate(DoaVector, DoaVector): void</text><ellipse cx="43.5" cy="452.211" fill="#84BE84" rx="3" ry="3" style="stroke:#038048;stroke-width:1"/><text x="52.5" y="456.63" fill="#000" font-family="sans-serif" font-size="11" lengthAdjust="spacingAndGlyphs" text-decoration="underline" textLength="164">normalise(DoaVector): DoaVector</text><ellipse cx="43.5" cy="466.047" fill="#84BE84" rx="3" ry="3" style="stroke:#038048;stroke-width:1"/><text x="52.5" y="470.466" fill="#000" font-family="sans-serif" font-size="11" lengthAdjust="spacingAndGlyphs" text-decoration="underline" textLength="190">normalise(DoaVector, DoaVector): void</text><ellipse cx="43.5" cy="479.883" fill="#84BE84" rx="3" ry="3" style="stroke:#038048;stroke-width:1"/><text x="52.5" y="484.302" fill="#000" font-family="sans-serif" font-size="11" lengthAdjust="spacingAndGlyphs" textLength="84">magnitude(): float</text><ellipse cx="43.5" cy="493.719" fill="#84BE84" rx="3" ry="3" style="stroke:#038048;stroke-width:1"/><text x="52.5" y="498.138" fill="#000" font-family="sans-serif" font-size="11" lengthAdjust="spacingAndGlyphs" textLength="125">magnitudeSquared(): float</text></a><rect id="java.io.Serializable" width="99" height="48" x="127.5" y="42" fill="#FEFECE" codeLine="41" filter="url(#fktq8unsa6ovb)" style="stroke:#a80036;stroke-width:1.5"/><ellipse cx="142.5" cy="58" fill="#B4A7E5" rx="11" ry="11" style="stroke:#a80036;stroke-width:1"/><path d="M143.4531,54.6406 L143.4531,61.2969 L145.1719,61.2969 Q145.7813,61.2969 146.0469,61.5313 Q146.3125,61.7656 146.3125,62.1563 Q146.3125,62.5313 146.0469,62.7656 Q145.7813,63 145.1719,63 L140.0313,63 Q139.4219,63 139.1563,62.7656 Q138.8906,62.5313 138.8906,62.1406 Q138.8906,61.7656 139.1563,61.5313 Q139.4219,61.2969 140.0313,61.2969 L141.75,61.2969 L141.75,54.6406 L140.0313,54.6406 Q139.4219,54.6406 139.1563,54.4063 Q138.8906,54.1719 138.8906,53.7813 Q138.8906,53.4063 139.1563,53.1719 Q139.4219,52.9375 140.0313,52.9375 L145.1719,52.9375 Q145.7813,52.9375 146.0469,53.1719 Q146.3125,53.4063 146.3125,53.7813 Q146.3125,54.1719 146.0469,54.4063 Q145.7813,54.6406 145.1719,54.6406 L143.4531,54.6406 Z"/><text x="156.5" y="62.91" fill="#000" font-family="sans-serif" font-size="12" font-style="italic" lengthAdjust="spacingAndGlyphs" textLength="67">Serializable</text><line style="stroke:#a80036;stroke-width:1.5" x1="128.5" x2="225.5" y1="74" y2="74"/><line style="stroke:#a80036;stroke-width:1.5" x1="128.5" x2="225.5" y1="82" y2="82"/><path id="java.io.Serializable-backto-doa.engine.maths.DoaVector" fill="none" d="M177,110.42 C177,126.34 177,145.46 177,165.73" codeLine="37" style="stroke:#a80036;stroke-width:1;stroke-dasharray:7,7"/><polygon fill="none" points="170 110.27 177 90.27 184 110.27 170 110.27" style="stroke:#a80036;stroke-width:1"/><text x="198.5" y="537.381" fill="#888" font-family="sans-serif" font-size="10" lengthAdjust="spacingAndGlyphs" textLength="190">UMLDoclet 2.0.12, PlantUML 1.2020.16</text></g></svg>