<svg xmlns="http://www.w3.org/2000/svg" xmlns:xlink="http://www.w3.org/1999/xlink" width="202" height="279" contentScriptType="application/ecmascript" contentStyleType="text/css" style="width:202px;height:279px" preserveAspectRatio="none" version="1.1" viewBox="0 0 202 279" zoomAndPan="magnify"><defs><filter id="f1h5ncw33qhbij" width="300%" height="300%" x="-1" y="-1"><feGaussianBlur result="blurOut" stdDeviation="2"/><feColorMatrix in="blurOut" result="blurOut2" type="matrix" values="0 0 0 0 0 0 0 0 0 0 0 0 0 0 0 0 0 0 .4 0"/><feOffset dx="4" dy="4" in="blurOut2" result="blurOut3"/><feBlend in="SourceGraphic" in2="blurOut3" mode="normal"/></filter></defs><g><a href="DoaDiscordActivity.html" target="_top" title="DoaDiscordActivity.html" xlink:actuate="onRequest" xlink:href="DoaDiscordActivity.html" xlink:show="new" xlink:title="DoaDiscordActivity.html" xlink:type="simple"><rect id="doa.engine.utils.discordapi.DoaDiscordActivity" width="160" height="241.891" x="15" y="7" fill="#FEFECE" codeLine="5" filter="url(#f1h5ncw33qhbij)" style="stroke:#a80036;stroke-width:1.5"/><ellipse cx="30" cy="27.094" fill="#ADD1B2" rx="11" ry="11" style="stroke:#a80036;stroke-width:1"/><path d="M32.7656,22.9688 Q32.9219,22.75 33.1094,22.6406 Q33.2969,22.5313 33.5156,22.5313 Q33.8906,22.5313 34.125,22.7969 Q34.3594,23.0469 34.3594,23.6563 L34.3594,25.1094 Q34.3594,25.7188 34.125,25.9844 Q33.8906,26.25 33.5156,26.25 Q33.1719,26.25 32.9688,26.0469 Q32.7656,25.8594 32.6563,25.3438 Q32.6094,24.9844 32.4219,24.7969 Q32.0938,24.4219 31.4844,24.2031 Q30.875,23.9844 30.25,23.9844 Q29.4844,23.9844 28.8438,24.3125 Q28.2188,24.6406 27.7188,25.3906 Q27.2344,26.1406 27.2344,27.1719 L27.2344,28.2656 Q27.2344,29.5 28.125,30.3281 Q29.0156,31.1406 30.6094,31.1406 Q31.5469,31.1406 32.2031,30.8906 Q32.5938,30.7344 33.0156,30.2969 Q33.2813,30.0313 33.4219,29.9531 Q33.5781,29.875 33.7813,29.875 Q34.1094,29.875 34.3594,30.1406 Q34.625,30.3906 34.625,30.7344 Q34.625,31.0781 34.2813,31.4844 Q33.7813,32.0625 32.9844,32.3906 Q31.9063,32.8438 30.6094,32.8438 Q29.0938,32.8438 27.8906,32.2188 Q26.9063,31.7188 26.2188,30.6563 Q25.5313,29.5781 25.5313,28.2969 L25.5313,27.1406 Q25.5313,25.8125 26.1406,24.6719 Q26.7656,23.5156 27.8594,22.9063 Q28.9531,22.2813 30.1875,22.2813 Q30.9219,22.2813 31.5625,22.4531 Q32.2188,22.6094 32.7656,22.9688 Z"/><text x="49" y="26.533" fill="#000" font-family="sans-serif" font-size="14" lengthAdjust="spacingAndGlyphs" textLength="118">DoaDiscordActivity</text><text x="44" y="39.99" fill="#000" font-family="sans-serif" font-size="10" lengthAdjust="spacingAndGlyphs" textLength="128">doa.engine.utils.discordapi</text><line style="stroke:#a80036;stroke-width:1.5" x1="16" x2="174" y1="47.188" y2="47.188"/><ellipse cx="26" cy="58.188" fill="none" rx="3" ry="3" style="stroke:#038048;stroke-width:1"/><text x="35" y="62.606" fill="#000" font-family="sans-serif" font-size="11" lengthAdjust="spacingAndGlyphs" textLength="60">start: Instant</text><ellipse cx="26" cy="72.023" fill="none" rx="3" ry="3" style="stroke:#038048;stroke-width:1"/><text x="35" y="76.442" fill="#000" font-family="sans-serif" font-size="11" lengthAdjust="spacingAndGlyphs" textLength="56">end: Instant</text><ellipse cx="26" cy="85.859" fill="none" rx="3" ry="3" style="stroke:#038048;stroke-width:1"/><text x="35" y="90.278" fill="#000" font-family="sans-serif" font-size="11" lengthAdjust="spacingAndGlyphs" textLength="60">name: String</text><ellipse cx="26" cy="99.695" fill="none" rx="3" ry="3" style="stroke:#038048;stroke-width:1"/><text x="35" y="104.114" fill="#000" font-family="sans-serif" font-size="11" lengthAdjust="spacingAndGlyphs" textLength="87">description: String</text><ellipse cx="26" cy="113.531" fill="none" rx="3" ry="3" style="stroke:#038048;stroke-width:1"/><text x="35" y="117.95" fill="#000" font-family="sans-serif" font-size="11" lengthAdjust="spacingAndGlyphs" textLength="68">partyID: String</text><ellipse cx="26" cy="127.367" fill="none" rx="3" ry="3" style="stroke:#038048;stroke-width:1"/><text x="35" y="131.786" fill="#000" font-family="sans-serif" font-size="11" lengthAdjust="spacingAndGlyphs" textLength="63">partySize: int</text><ellipse cx="26" cy="141.203" fill="none" rx="3" ry="3" style="stroke:#038048;stroke-width:1"/><text x="35" y="145.622" fill="#000" font-family="sans-serif" font-size="11" lengthAdjust="spacingAndGlyphs" textLength="83">partyMaxSize: int</text><ellipse cx="26" cy="155.039" fill="none" rx="3" ry="3" style="stroke:#038048;stroke-width:1"/><text x="35" y="159.458" fill="#000" font-family="sans-serif" font-size="11" lengthAdjust="spacingAndGlyphs" textLength="113">largeImageName: String</text><ellipse cx="26" cy="168.875" fill="none" rx="3" ry="3" style="stroke:#038048;stroke-width:1"/><text x="35" y="173.294" fill="#000" font-family="sans-serif" font-size="11" lengthAdjust="spacingAndGlyphs" textLength="107">largeImageText: String</text><ellipse cx="26" cy="182.711" fill="none" rx="3" ry="3" style="stroke:#038048;stroke-width:1"/><text x="35" y="187.13" fill="#000" font-family="sans-serif" font-size="11" lengthAdjust="spacingAndGlyphs" textLength="113">smallImageName: String</text><ellipse cx="26" cy="196.547" fill="none" rx="3" ry="3" style="stroke:#038048;stroke-width:1"/><text x="35" y="200.966" fill="#000" font-family="sans-serif" font-size="11" lengthAdjust="spacingAndGlyphs" textLength="107">smallImageText: String</text><ellipse cx="26" cy="210.383" fill="none" rx="3" ry="3" style="stroke:#038048;stroke-width:1"/><text x="35" y="214.802" fill="#000" font-family="sans-serif" font-size="11" lengthAdjust="spacingAndGlyphs" textLength="95">matchSecret: String</text><ellipse cx="26" cy="224.219" fill="none" rx="3" ry="3" style="stroke:#038048;stroke-width:1"/><text x="35" y="228.638" fill="#000" font-family="sans-serif" font-size="11" lengthAdjust="spacingAndGlyphs" textLength="82">joinSecret: String</text><ellipse cx="26" cy="238.055" fill="none" rx="3" ry="3" style="stroke:#038048;stroke-width:1"/><text x="35" y="242.474" fill="#000" font-family="sans-serif" font-size="11" lengthAdjust="spacingAndGlyphs" textLength="108">spectateSecret: String</text></a><text x="0" y="266.272" fill="#888" font-family="sans-serif" font-size="10" lengthAdjust="spacingAndGlyphs" textLength="190">UMLDoclet 2.0.12, PlantUML 1.2020.16</text></g></svg>