<svg xmlns="http://www.w3.org/2000/svg" xmlns:xlink="http://www.w3.org/1999/xlink" width="466" height="329" contentScriptType="application/ecmascript" contentStyleType="text/css" style="width:466px;height:329px" preserveAspectRatio="none" version="1.1" viewBox="0 0 466 329" zoomAndPan="magnify"><defs><filter id="f14akovm200lgb" width="300%" height="300%" x="-1" y="-1"><feGaussianBlur result="blurOut" stdDeviation="2"/><feColorMatrix in="blurOut" result="blurOut2" type="matrix" values="0 0 0 0 0 0 0 0 0 0 0 0 0 0 0 0 0 0 .4 0"/><feOffset dx="4" dy="4" in="blurOut2" result="blurOut3"/><feBlend in="SourceGraphic" in2="blurOut3" mode="normal"/></filter></defs><g><polygon fill="#FFF" points="16 6 213 6 220 29.609 444 29.609 444 300 16 300 16 6" filter="url(#f14akovm200lgb)" style="stroke:#000;stroke-width:1.5"/><line style="stroke:#000;stroke-width:1.5" x1="16" x2="220" y1="29.609" y2="29.609"/><text x="20" y="22.533" fill="#000" font-family="sans-serif" font-size="14" font-weight="bold" lengthAdjust="spacingAndGlyphs" textLength="191">doa.engine.utils.discordapi</text><a href="DoaDiscordActivity.html" target="_top" title="DoaDiscordActivity.html" xlink:actuate="onRequest" xlink:href="DoaDiscordActivity.html" xlink:show="new" xlink:title="DoaDiscordActivity.html" xlink:type="simple"><rect id="doa.engine.utils.discordapi.DoaDiscordActivity" width="139" height="241.703" x="288.5" y="42" fill="#FEFECE" codeLine="3" filter="url(#f14akovm200lgb)" style="stroke:#a80036;stroke-width:1.5"/><ellipse cx="306.2" cy="58" fill="#ADD1B2" rx="11" ry="11" style="stroke:#a80036;stroke-width:1"/><path d="M308.9656,53.875 Q309.1219,53.6563 309.3094,53.5469 Q309.4969,53.4375 309.7156,53.4375 Q310.0906,53.4375 310.325,53.7031 Q310.5594,53.9531 310.5594,54.5625 L310.5594,56.0156 Q310.5594,56.625 310.325,56.8906 Q310.0906,57.1563 309.7156,57.1563 Q309.3719,57.1563 309.1688,56.9531 Q308.9656,56.7656 308.8563,56.25 Q308.8094,55.8906 308.6219,55.7031 Q308.2938,55.3281 307.6844,55.1094 Q307.075,54.8906 306.45,54.8906 Q305.6844,54.8906 305.0438,55.2188 Q304.4188,55.5469 303.9188,56.2969 Q303.4344,57.0469 303.4344,58.0781 L303.4344,59.1719 Q303.4344,60.4063 304.325,61.2344 Q305.2156,62.0469 306.8094,62.0469 Q307.7469,62.0469 308.4031,61.7969 Q308.7938,61.6406 309.2156,61.2031 Q309.4813,60.9375 309.6219,60.8594 Q309.7781,60.7813 309.9813,60.7813 Q310.3094,60.7813 310.5594,61.0469 Q310.825,61.2969 310.825,61.6406 Q310.825,61.9844 310.4813,62.3906 Q309.9813,62.9688 309.1844,63.2969 Q308.1063,63.75 306.8094,63.75 Q305.2938,63.75 304.0906,63.125 Q303.1063,62.625 302.4188,61.5625 Q301.7313,60.4844 301.7313,59.2031 L301.7313,58.0469 Q301.7313,56.7188 302.3406,55.5781 Q302.9656,54.4219 304.0594,53.8125 Q305.1531,53.1875 306.3875,53.1875 Q307.1219,53.1875 307.7625,53.3594 Q308.4188,53.5156 308.9656,53.875 Z"/><text x="320.8" y="62.91" fill="#000" font-family="sans-serif" font-size="12" lengthAdjust="spacingAndGlyphs" textLength="101">DoaDiscordActivity</text><line style="stroke:#a80036;stroke-width:1.5" x1="289.5" x2="426.5" y1="74" y2="74"/><ellipse cx="299.5" cy="85" fill="none" rx="3" ry="3" style="stroke:#038048;stroke-width:1"/><text x="308.5" y="89.419" fill="#000" font-family="sans-serif" font-size="11" lengthAdjust="spacingAndGlyphs" textLength="60">start: Instant</text><ellipse cx="299.5" cy="98.836" fill="none" rx="3" ry="3" style="stroke:#038048;stroke-width:1"/><text x="308.5" y="103.255" fill="#000" font-family="sans-serif" font-size="11" lengthAdjust="spacingAndGlyphs" textLength="56">end: Instant</text><ellipse cx="299.5" cy="112.672" fill="none" rx="3" ry="3" style="stroke:#038048;stroke-width:1"/><text x="308.5" y="117.091" fill="#000" font-family="sans-serif" font-size="11" lengthAdjust="spacingAndGlyphs" textLength="60">name: String</text><ellipse cx="299.5" cy="126.508" fill="none" rx="3" ry="3" style="stroke:#038048;stroke-width:1"/><text x="308.5" y="130.927" fill="#000" font-family="sans-serif" font-size="11" lengthAdjust="spacingAndGlyphs" textLength="87">description: String</text><ellipse cx="299.5" cy="140.344" fill="none" rx="3" ry="3" style="stroke:#038048;stroke-width:1"/><text x="308.5" y="144.763" fill="#000" font-family="sans-serif" font-size="11" lengthAdjust="spacingAndGlyphs" textLength="68">partyID: String</text><ellipse cx="299.5" cy="154.18" fill="none" rx="3" ry="3" style="stroke:#038048;stroke-width:1"/><text x="308.5" y="158.599" fill="#000" font-family="sans-serif" font-size="11" lengthAdjust="spacingAndGlyphs" textLength="63">partySize: int</text><ellipse cx="299.5" cy="168.016" fill="none" rx="3" ry="3" style="stroke:#038048;stroke-width:1"/><text x="308.5" y="172.435" fill="#000" font-family="sans-serif" font-size="11" lengthAdjust="spacingAndGlyphs" textLength="83">partyMaxSize: int</text><ellipse cx="299.5" cy="181.852" fill="none" rx="3" ry="3" style="stroke:#038048;stroke-width:1"/><text x="308.5" y="186.27" fill="#000" font-family="sans-serif" font-size="11" lengthAdjust="spacingAndGlyphs" textLength="113">largeImageName: String</text><ellipse cx="299.5" cy="195.688" fill="none" rx="3" ry="3" style="stroke:#038048;stroke-width:1"/><text x="308.5" y="200.106" fill="#000" font-family="sans-serif" font-size="11" lengthAdjust="spacingAndGlyphs" textLength="107">largeImageText: String</text><ellipse cx="299.5" cy="209.523" fill="none" rx="3" ry="3" style="stroke:#038048;stroke-width:1"/><text x="308.5" y="213.942" fill="#000" font-family="sans-serif" font-size="11" lengthAdjust="spacingAndGlyphs" textLength="113">smallImageName: String</text><ellipse cx="299.5" cy="223.359" fill="none" rx="3" ry="3" style="stroke:#038048;stroke-width:1"/><text x="308.5" y="227.778" fill="#000" font-family="sans-serif" font-size="11" lengthAdjust="spacingAndGlyphs" textLength="107">smallImageText: String</text><ellipse cx="299.5" cy="237.195" fill="none" rx="3" ry="3" style="stroke:#038048;stroke-width:1"/><text x="308.5" y="241.614" fill="#000" font-family="sans-serif" font-size="11" lengthAdjust="spacingAndGlyphs" textLength="95">matchSecret: String</text><ellipse cx="299.5" cy="251.031" fill="none" rx="3" ry="3" style="stroke:#038048;stroke-width:1"/><text x="308.5" y="255.45" fill="#000" font-family="sans-serif" font-size="11" lengthAdjust="spacingAndGlyphs" textLength="82">joinSecret: String</text><ellipse cx="299.5" cy="264.867" fill="none" rx="3" ry="3" style="stroke:#038048;stroke-width:1"/><text x="308.5" y="269.286" fill="#000" font-family="sans-serif" font-size="11" lengthAdjust="spacingAndGlyphs" textLength="108">spectateSecret: String</text><line style="stroke:#a80036;stroke-width:1.5" x1="289.5" x2="426.5" y1="275.703" y2="275.703"/></a><a href="DoaDiscordService.html" target="_top" title="DoaDiscordService.html" xlink:actuate="onRequest" xlink:href="DoaDiscordService.html" xlink:show="new" xlink:title="DoaDiscordService.html" xlink:type="simple"><rect id="doa.engine.utils.discordapi.DoaDiscordService" width="221" height="89.508" x="32.5" y="118" fill="#FEFECE" codeLine="20" filter="url(#f14akovm200lgb)" style="stroke:#a80036;stroke-width:1.5"/><ellipse cx="85.75" cy="134" fill="#ADD1B2" rx="11" ry="11" style="stroke:#a80036;stroke-width:1"/><path d="M88.5156,129.875 Q88.6719,129.6563 88.8594,129.5469 Q89.0469,129.4375 89.2656,129.4375 Q89.6406,129.4375 89.875,129.7031 Q90.1094,129.9531 90.1094,130.5625 L90.1094,132.0156 Q90.1094,132.625 89.875,132.8906 Q89.6406,133.1563 89.2656,133.1563 Q88.9219,133.1563 88.7188,132.9531 Q88.5156,132.7656 88.4063,132.25 Q88.3594,131.8906 88.1719,131.7031 Q87.8438,131.3281 87.2344,131.1094 Q86.625,130.8906 86,130.8906 Q85.2344,130.8906 84.5938,131.2188 Q83.9688,131.5469 83.4688,132.2969 Q82.9844,133.0469 82.9844,134.0781 L82.9844,135.1719 Q82.9844,136.4063 83.875,137.2344 Q84.7656,138.0469 86.3594,138.0469 Q87.2969,138.0469 87.9531,137.7969 Q88.3438,137.6406 88.7656,137.2031 Q89.0313,136.9375 89.1719,136.8594 Q89.3281,136.7813 89.5313,136.7813 Q89.8594,136.7813 90.1094,137.0469 Q90.375,137.2969 90.375,137.6406 Q90.375,137.9844 90.0313,138.3906 Q89.5313,138.9688 88.7344,139.2969 Q87.6563,139.75 86.3594,139.75 Q84.8438,139.75 83.6406,139.125 Q82.6563,138.625 81.9688,137.5625 Q81.2813,136.4844 81.2813,135.2031 L81.2813,134.0469 Q81.2813,132.7188 81.8906,131.5781 Q82.5156,130.4219 83.6094,129.8125 Q84.7031,129.1875 85.9375,129.1875 Q86.6719,129.1875 87.3125,129.3594 Q87.9688,129.5156 88.5156,129.875 Z"/><text x="106.25" y="138.91" fill="#000" font-family="sans-serif" font-size="12" lengthAdjust="spacingAndGlyphs" textLength="106">DoaDiscordService</text><line style="stroke:#a80036;stroke-width:1.5" x1="33.5" x2="252.5" y1="150" y2="150"/><line style="stroke:#a80036;stroke-width:1.5" x1="33.5" x2="252.5" y1="158" y2="158"/><ellipse cx="43.5" cy="169" fill="#84BE84" rx="3" ry="3" style="stroke:#038048;stroke-width:1"/><text x="52.5" y="173.419" fill="#000" font-family="sans-serif" font-size="11" lengthAdjust="spacingAndGlyphs" text-decoration="underline" textLength="67">init(long): void</text><ellipse cx="43.5" cy="182.836" fill="#84BE84" rx="3" ry="3" style="stroke:#038048;stroke-width:1"/><text x="52.5" y="187.255" fill="#000" font-family="sans-serif" font-size="11" lengthAdjust="spacingAndGlyphs" text-decoration="underline" textLength="195">switchActivity(DoaDiscordActivity): void</text><ellipse cx="43.5" cy="196.672" fill="#84BE84" rx="3" ry="3" style="stroke:#038048;stroke-width:1"/><text x="52.5" y="201.091" fill="#000" font-family="sans-serif" font-size="11" lengthAdjust="spacingAndGlyphs" text-decoration="underline" textLength="193">getCurrentActivity(): DoaDiscordActivity</text></a><text x="129" y="316.381" fill="#888" font-family="sans-serif" font-size="10" lengthAdjust="spacingAndGlyphs" textLength="190">UMLDoclet 2.0.12, PlantUML 1.2020.16</text></g></svg>