<?xml version="1.0" encoding="UTF-8" standalone="no"?><svg xmlns="http://www.w3.org/2000/svg" xmlns:xlink="http://www.w3.org/1999/xlink" contentScriptType="application/ecmascript" contentStyleType="text/css" height="360px" preserveAspectRatio="none" style="width:241px;height:360px;" version="1.1" viewBox="0 0 241 360" width="241px" zoomAndPan="magnify"><defs><filter height="300%" id="flbvq0wm098s4" width="300%" x="-1" y="-1"><feGaussianBlur result="blurOut" stdDeviation="2.0"/><feColorMatrix in="blurOut" result="blurOut2" type="matrix" values="0 0 0 0 0 0 0 0 0 0 0 0 0 0 0 0 0 0 .4 0"/><feOffset dx="4.0" dy="4.0" in="blurOut2" result="blurOut3"/><feBlend in="SourceGraphic" in2="blurOut3" mode="normal"/></filter></defs><g><!--MD5=[0e53b8896f1547982a551bbe89b6d900]
class doa.engine.scene.elements.renderers.DoaArbitraryShapeRenderer--><a href="DoaArbitraryShapeRenderer.html" target="_top" title="DoaArbitraryShapeRenderer.html" xlink:actuate="onRequest" xlink:href="DoaArbitraryShapeRenderer.html" xlink:show="new" xlink:title="DoaArbitraryShapeRenderer.html" xlink:type="simple"><rect codeLine="5" fill="#FEFECE" filter="url(#flbvq0wm098s4)" height="194.5469" id="doa.engine.scene.elements.renderers.DoaArbitraryShapeRenderer" style="stroke: #A80036; stroke-width: 1.5;" width="213" x="9" y="129"/><ellipse cx="24" cy="149.0938" fill="#ADD1B2" rx="11" ry="11" style="stroke: #A80036; stroke-width: 1.0;"/><path d="M26.7656,144.9688 Q26.9219,144.75 27.1094,144.6406 Q27.2969,144.5313 27.5156,144.5313 Q27.8906,144.5313 28.125,144.7969 Q28.3594,145.0469 28.3594,145.6563 L28.3594,147.1094 Q28.3594,147.7188 28.125,147.9844 Q27.8906,148.25 27.5156,148.25 Q27.1719,148.25 26.9688,148.0469 Q26.7656,147.8594 26.6563,147.3438 Q26.6094,146.9844 26.4219,146.7969 Q26.0938,146.4219 25.4844,146.2031 Q24.875,145.9844 24.25,145.9844 Q23.4844,145.9844 22.8438,146.3125 Q22.2188,146.6406 21.7188,147.3906 Q21.2344,148.1406 21.2344,149.1719 L21.2344,150.2656 Q21.2344,151.5 22.125,152.3281 Q23.0156,153.1406 24.6094,153.1406 Q25.5469,153.1406 26.2031,152.8906 Q26.5938,152.7344 27.0156,152.2969 Q27.2813,152.0313 27.4219,151.9531 Q27.5781,151.875 27.7813,151.875 Q28.1094,151.875 28.3594,152.1406 Q28.625,152.3906 28.625,152.7344 Q28.625,153.0781 28.2813,153.4844 Q27.7813,154.0625 26.9844,154.3906 Q25.9063,154.8438 24.6094,154.8438 Q23.0938,154.8438 21.8906,154.2188 Q20.9063,153.7188 20.2188,152.6563 Q19.5313,151.5781 19.5313,150.2969 L19.5313,149.1406 Q19.5313,147.8125 20.1406,146.6719 Q20.7656,145.5156 21.8594,144.9063 Q22.9531,144.2813 24.1875,144.2813 Q24.9219,144.2813 25.5625,144.4531 Q26.2188,144.6094 26.7656,144.9688 Z "/><text fill="#000000" font-family="sans-serif" font-size="14" lengthAdjust="spacingAndGlyphs" textLength="181" x="38" y="148.5332">DoaArbitraryShapeRenderer</text><text fill="#000000" font-family="sans-serif" font-size="10" lengthAdjust="spacingAndGlyphs" textLength="177" x="40" y="161.9902">doa.engine.scene.elements.renderers</text><line style="stroke: #A80036; stroke-width: 1.5;" x1="10" x2="221" y1="169.1875" y2="169.1875"/><polygon fill="none" points="20,175.1875,24,179.1875,20,183.1875,16,179.1875" style="stroke: #B38D22; stroke-width: 1.0;"/><text fill="#000000" font-family="sans-serif" font-size="11" lengthAdjust="spacingAndGlyphs" textLength="82" x="29" y="184.6064">polygon: Polygon</text><polygon fill="none" points="20,189.0234,24,193.0234,20,197.0234,16,193.0234" style="stroke: #B38D22; stroke-width: 1.0;"/><text fill="#000000" font-family="sans-serif" font-size="11" lengthAdjust="spacingAndGlyphs" textLength="55" x="29" y="198.4424">color: Color</text><polygon fill="none" points="20,202.8594,24,206.8594,20,210.8594,16,206.8594" style="stroke: #B38D22; stroke-width: 1.0;"/><text fill="#000000" font-family="sans-serif" font-size="11" lengthAdjust="spacingAndGlyphs" textLength="54" x="29" y="212.2783">fill: boolean</text><line style="stroke: #A80036; stroke-width: 1.5;" x1="10" x2="221" y1="218.6953" y2="218.6953"/><ellipse cx="20" cy="229.6953" fill="#84BE84" rx="3" ry="3" style="stroke: #038048; stroke-width: 1.0;"/><text fill="#000000" font-family="sans-serif" font-size="11" lengthAdjust="spacingAndGlyphs" textLength="159" x="29" y="234.1143">setPoints(List&lt;DoaVector&gt;): void</text><ellipse cx="20" cy="243.5313" fill="#84BE84" rx="3" ry="3" style="stroke: #038048; stroke-width: 1.0;"/><text fill="#000000" font-family="sans-serif" font-size="11" lengthAdjust="spacingAndGlyphs" textLength="99" x="29" y="247.9502">setColor(Color): void</text><ellipse cx="20" cy="257.3672" fill="#84BE84" rx="3" ry="3" style="stroke: #038048; stroke-width: 1.0;"/><text fill="#000000" font-family="sans-serif" font-size="11" lengthAdjust="spacingAndGlyphs" textLength="99" x="29" y="261.7861">setFill(boolean): void</text><ellipse cx="20" cy="271.2031" fill="#84BE84" rx="3" ry="3" style="stroke: #038048; stroke-width: 1.0;"/><text fill="#000000" font-family="sans-serif" font-size="11" lengthAdjust="spacingAndGlyphs" textLength="139" x="29" y="275.6221">getPoints(): List&lt;DoaVector&gt;</text><ellipse cx="20" cy="285.0391" fill="#84BE84" rx="3" ry="3" style="stroke: #038048; stroke-width: 1.0;"/><text fill="#000000" font-family="sans-serif" font-size="11" lengthAdjust="spacingAndGlyphs" textLength="79" x="29" y="289.458">getColor(): Color</text><ellipse cx="20" cy="298.875" fill="#84BE84" rx="3" ry="3" style="stroke: #038048; stroke-width: 1.0;"/><text fill="#000000" font-family="sans-serif" font-size="11" lengthAdjust="spacingAndGlyphs" textLength="79" x="29" y="303.2939">getFill(): boolean</text><ellipse cx="20" cy="312.7109" fill="#84BE84" rx="3" ry="3" style="stroke: #038048; stroke-width: 1.0;"/><text fill="#000000" font-family="sans-serif" font-size="11" lengthAdjust="spacingAndGlyphs" textLength="66" x="29" y="317.1299">render(): void</text></a><!--MD5=[114aa1fa33921f7b5dbce8449ce1339c]
class doa.engine.scene.elements.renderers.DoaRenderer--><a href="DoaRenderer.html" target="_top" title="DoaRenderer.html" xlink:actuate="onRequest" xlink:href="DoaRenderer.html" xlink:show="new" xlink:title="DoaRenderer.html" xlink:type="simple"><rect codeLine="18" fill="#FEFECE" filter="url(#flbvq0wm098s4)" height="62.0234" id="doa.engine.scene.elements.renderers.DoaRenderer" style="stroke: #A80036; stroke-width: 1.5;" width="209" x="11" y="7"/><ellipse cx="26" cy="27.0938" fill="#A9DCDF" rx="11" ry="11" style="stroke: #A80036; stroke-width: 1.0;"/><path d="M28.1875,28.8594 L24.0469,28.8594 L23.625,29.8906 L24.0469,29.8906 Q24.6563,29.8906 24.9219,30.125 Q25.1875,30.3594 25.1875,30.75 Q25.1875,31.125 24.9219,31.3594 Q24.6563,31.5938 24.0469,31.5938 L21.75,31.5938 Q21.1406,31.5938 20.8906,31.3594 Q20.625,31.125 20.625,30.7344 Q20.625,30.3594 20.9063,30.125 Q21.1719,29.875 21.7969,29.8906 L24.4688,23.2344 L23.3594,23.2344 Q22.75,23.2344 22.4844,23 Q22.2188,22.7656 22.2188,22.375 Q22.2188,22 22.4844,21.7656 Q22.75,21.5313 23.3594,21.5313 L27.0313,21.5313 L30.4219,29.8906 Q31.0156,29.8906 31.2031,30.0313 Q31.5938,30.2969 31.5938,30.75 Q31.5938,31.125 31.3281,31.3594 Q31.0781,31.5938 30.4688,31.5938 L28.1719,31.5938 Q27.5625,31.5938 27.2969,31.3594 Q27.0313,31.125 27.0313,30.7344 Q27.0313,30.3594 27.2969,30.125 Q27.5625,29.8906 28.1719,29.8906 L28.5938,29.8906 L28.1875,28.8594 Z M27.4688,27.1563 L26.1094,23.7813 L24.7344,27.1563 L27.4688,27.1563 Z "/><text fill="#000000" font-family="sans-serif" font-size="14" font-style="italic" lengthAdjust="spacingAndGlyphs" textLength="86" x="85.5" y="26.5332">DoaRenderer</text><text fill="#000000" font-family="sans-serif" font-size="10" font-style="italic" lengthAdjust="spacingAndGlyphs" textLength="177" x="40" y="39.9902">doa.engine.scene.elements.renderers</text><line style="stroke: #A80036; stroke-width: 1.5;" x1="12" x2="219" y1="47.1875" y2="47.1875"/><ellipse cx="22" cy="58.1875" fill="#84BE84" rx="3" ry="3" style="stroke: #038048; stroke-width: 1.0;"/><text fill="#000000" font-family="sans-serif" font-size="11" font-style="italic" lengthAdjust="spacingAndGlyphs" textLength="66" x="31" y="62.6064">render(): void</text></a><!--MD5=[393c03125636d981ac5ba9537d8d763f]
reverse link doa.engine.scene.elements.renderers.DoaRenderer to doa.engine.scene.elements.renderers.DoaArbitraryShapeRenderer--><path codeLine="22" d="M115.5,89.65 C115.5,101.78 115.5,115.14 115.5,128.6 " fill="none" id="doa.engine.scene.elements.renderers.DoaRenderer-backto-doa.engine.scene.elements.renderers.DoaArbitraryShapeRenderer" style="stroke: #A80036; stroke-width: 1.0;"/><polygon fill="none" points="108.5,89.38,115.5,69.38,122.5,89.38,108.5,89.38" style="stroke: #A80036; stroke-width: 1.0;"/><text fill="#888888" font-family="sans-serif" font-size="10" lengthAdjust="spacingAndGlyphs" textLength="190" x="16.5" y="346.9277">UMLDoclet 2.0.12, PlantUML 1.2020.16</text><!--MD5=[8ac6eb6a4083c097888c6e6c623627ef]
@startuml
    set namespaceSeparator none
    hide empty fields
    hide empty methods

    class "<size:14>DoaArbitraryShapeRenderer\n<size:10>doa.engine.scene.elements.renderers" as doa.engine.scene.elements.renderers.DoaArbitraryShapeRenderer [[DoaArbitraryShapeRenderer.html]] {
        #polygon: Polygon
        #color: Color
        #fill: boolean
        +setPoints(List<DoaVector>): void
        +setColor(Color): void
        +setFill(boolean): void
        +getPoints(): List<DoaVector>
        +getColor(): Color
        +getFill(): boolean
        +render(): void
    }

    abstract class "<size:14>DoaRenderer\n<size:10>doa.engine.scene.elements.renderers" as doa.engine.scene.elements.renderers.DoaRenderer [[DoaRenderer.html]] {
        {abstract} +render(): void
    }

    doa.engine.scene.elements.renderers.DoaRenderer <|- - doa.engine.scene.elements.renderers.DoaArbitraryShapeRenderer

    center footer UMLDoclet 2.0.12, PlantUML 1.2020.16
@enduml

PlantUML version 1.2020.16(Sun Aug 23 23:20:43 TRT 2020)
(APACHE source distribution)
Java Runtime: OpenJDK Runtime Environment
JVM: OpenJDK 64-Bit Server VM
Default Encoding: Cp1252
Language: en
Country: GB
--></g></svg>