<svg xmlns="http://www.w3.org/2000/svg" xmlns:xlink="http://www.w3.org/1999/xlink" width="241" height="360" contentScriptType="application/ecmascript" contentStyleType="text/css" style="width:241px;height:360px" preserveAspectRatio="none" version="1.1" viewBox="0 0 241 360" zoomAndPan="magnify"><defs><filter id="flbvq0wm098s4" width="300%" height="300%" x="-1" y="-1"><feGaussianBlur result="blurOut" stdDeviation="2"/><feColorMatrix in="blurOut" result="blurOut2" type="matrix" values="0 0 0 0 0 0 0 0 0 0 0 0 0 0 0 0 0 0 .4 0"/><feOffset dx="4" dy="4" in="blurOut2" result="blurOut3"/><feBlend in="SourceGraphic" in2="blurOut3" mode="normal"/></filter></defs><g><a href="DoaArbitraryShapeRenderer.html" target="_top" title="DoaArbitraryShapeRenderer.html" xlink:actuate="onRequest" xlink:href="DoaArbitraryShapeRenderer.html" xlink:show="new" xlink:title="DoaArbitraryShapeRenderer.html" xlink:type="simple"><rect id="doa.engine.scene.elements.renderers.DoaArbitraryShapeRenderer" width="213" height="194.547" x="9" y="129" fill="#FEFECE" codeLine="5" filter="url(#flbvq0wm098s4)" style="stroke:#a80036;stroke-width:1.5"/><ellipse cx="24" cy="149.094" fill="#ADD1B2" rx="11" ry="11" style="stroke:#a80036;stroke-width:1"/><path d="M26.7656,144.9688 Q26.9219,144.75 27.1094,144.6406 Q27.2969,144.5313 27.5156,144.5313 Q27.8906,144.5313 28.125,144.7969 Q28.3594,145.0469 28.3594,145.6563 L28.3594,147.1094 Q28.3594,147.7188 28.125,147.9844 Q27.8906,148.25 27.5156,148.25 Q27.1719,148.25 26.9688,148.0469 Q26.7656,147.8594 26.6563,147.3438 Q26.6094,146.9844 26.4219,146.7969 Q26.0938,146.4219 25.4844,146.2031 Q24.875,145.9844 24.25,145.9844 Q23.4844,145.9844 22.8438,146.3125 Q22.2188,146.6406 21.7188,147.3906 Q21.2344,148.1406 21.2344,149.1719 L21.2344,150.2656 Q21.2344,151.5 22.125,152.3281 Q23.0156,153.1406 24.6094,153.1406 Q25.5469,153.1406 26.2031,152.8906 Q26.5938,152.7344 27.0156,152.2969 Q27.2813,152.0313 27.4219,151.9531 Q27.5781,151.875 27.7813,151.875 Q28.1094,151.875 28.3594,152.1406 Q28.625,152.3906 28.625,152.7344 Q28.625,153.0781 28.2813,153.4844 Q27.7813,154.0625 26.9844,154.3906 Q25.9063,154.8438 24.6094,154.8438 Q23.0938,154.8438 21.8906,154.2188 Q20.9063,153.7188 20.2188,152.6563 Q19.5313,151.5781 19.5313,150.2969 L19.5313,149.1406 Q19.5313,147.8125 20.1406,146.6719 Q20.7656,145.5156 21.8594,144.9063 Q22.9531,144.2813 24.1875,144.2813 Q24.9219,144.2813 25.5625,144.4531 Q26.2188,144.6094 26.7656,144.9688 Z"/><text x="38" y="148.533" fill="#000" font-family="sans-serif" font-size="14" lengthAdjust="spacingAndGlyphs" textLength="181">DoaArbitraryShapeRenderer</text><text x="40" y="161.99" fill="#000" font-family="sans-serif" font-size="10" lengthAdjust="spacingAndGlyphs" textLength="177">doa.engine.scene.elements.renderers</text><line style="stroke:#a80036;stroke-width:1.5" x1="10" x2="221" y1="169.188" y2="169.188"/><polygon fill="none" points="20 175.188 24 179.188 20 183.188 16 179.188" style="stroke:#b38d22;stroke-width:1"/><text x="29" y="184.606" fill="#000" font-family="sans-serif" font-size="11" lengthAdjust="spacingAndGlyphs" textLength="82">polygon: Polygon</text><polygon fill="none" points="20 189.023 24 193.023 20 197.023 16 193.023" style="stroke:#b38d22;stroke-width:1"/><text x="29" y="198.442" fill="#000" font-family="sans-serif" font-size="11" lengthAdjust="spacingAndGlyphs" textLength="55">color: Color</text><polygon fill="none" points="20 202.859 24 206.859 20 210.859 16 206.859" style="stroke:#b38d22;stroke-width:1"/><text x="29" y="212.278" fill="#000" font-family="sans-serif" font-size="11" lengthAdjust="spacingAndGlyphs" textLength="54">fill: boolean</text><line style="stroke:#a80036;stroke-width:1.5" x1="10" x2="221" y1="218.695" y2="218.695"/><ellipse cx="20" cy="229.695" fill="#84BE84" rx="3" ry="3" style="stroke:#038048;stroke-width:1"/><text x="29" y="234.114" fill="#000" font-family="sans-serif" font-size="11" lengthAdjust="spacingAndGlyphs" textLength="159">setPoints(List&lt;DoaVector&gt;): void</text><ellipse cx="20" cy="243.531" fill="#84BE84" rx="3" ry="3" style="stroke:#038048;stroke-width:1"/><text x="29" y="247.95" fill="#000" font-family="sans-serif" font-size="11" lengthAdjust="spacingAndGlyphs" textLength="99">setColor(Color): void</text><ellipse cx="20" cy="257.367" fill="#84BE84" rx="3" ry="3" style="stroke:#038048;stroke-width:1"/><text x="29" y="261.786" fill="#000" font-family="sans-serif" font-size="11" lengthAdjust="spacingAndGlyphs" textLength="99">setFill(boolean): void</text><ellipse cx="20" cy="271.203" fill="#84BE84" rx="3" ry="3" style="stroke:#038048;stroke-width:1"/><text x="29" y="275.622" fill="#000" font-family="sans-serif" font-size="11" lengthAdjust="spacingAndGlyphs" textLength="139">getPoints(): List&lt;DoaVector&gt;</text><ellipse cx="20" cy="285.039" fill="#84BE84" rx="3" ry="3" style="stroke:#038048;stroke-width:1"/><text x="29" y="289.458" fill="#000" font-family="sans-serif" font-size="11" lengthAdjust="spacingAndGlyphs" textLength="79">getColor(): Color</text><ellipse cx="20" cy="298.875" fill="#84BE84" rx="3" ry="3" style="stroke:#038048;stroke-width:1"/><text x="29" y="303.294" fill="#000" font-family="sans-serif" font-size="11" lengthAdjust="spacingAndGlyphs" textLength="79">getFill(): boolean</text><ellipse cx="20" cy="312.711" fill="#84BE84" rx="3" ry="3" style="stroke:#038048;stroke-width:1"/><text x="29" y="317.13" fill="#000" font-family="sans-serif" font-size="11" lengthAdjust="spacingAndGlyphs" textLength="66">render(): void</text></a><a href="DoaRenderer.html" target="_top" title="DoaRenderer.html" xlink:actuate="onRequest" xlink:href="DoaRenderer.html" xlink:show="new" xlink:title="DoaRenderer.html" xlink:type="simple"><rect id="doa.engine.scene.elements.renderers.DoaRenderer" width="209" height="62.023" x="11" y="7" fill="#FEFECE" codeLine="18" filter="url(#flbvq0wm098s4)" style="stroke:#a80036;stroke-width:1.5"/><ellipse cx="26" cy="27.094" fill="#A9DCDF" rx="11" ry="11" style="stroke:#a80036;stroke-width:1"/><path d="M28.1875,28.8594 L24.0469,28.8594 L23.625,29.8906 L24.0469,29.8906 Q24.6563,29.8906 24.9219,30.125 Q25.1875,30.3594 25.1875,30.75 Q25.1875,31.125 24.9219,31.3594 Q24.6563,31.5938 24.0469,31.5938 L21.75,31.5938 Q21.1406,31.5938 20.8906,31.3594 Q20.625,31.125 20.625,30.7344 Q20.625,30.3594 20.9063,30.125 Q21.1719,29.875 21.7969,29.8906 L24.4688,23.2344 L23.3594,23.2344 Q22.75,23.2344 22.4844,23 Q22.2188,22.7656 22.2188,22.375 Q22.2188,22 22.4844,21.7656 Q22.75,21.5313 23.3594,21.5313 L27.0313,21.5313 L30.4219,29.8906 Q31.0156,29.8906 31.2031,30.0313 Q31.5938,30.2969 31.5938,30.75 Q31.5938,31.125 31.3281,31.3594 Q31.0781,31.5938 30.4688,31.5938 L28.1719,31.5938 Q27.5625,31.5938 27.2969,31.3594 Q27.0313,31.125 27.0313,30.7344 Q27.0313,30.3594 27.2969,30.125 Q27.5625,29.8906 28.1719,29.8906 L28.5938,29.8906 L28.1875,28.8594 Z M27.4688,27.1563 L26.1094,23.7813 L24.7344,27.1563 L27.4688,27.1563 Z"/><text x="85.5" y="26.533" fill="#000" font-family="sans-serif" font-size="14" font-style="italic" lengthAdjust="spacingAndGlyphs" textLength="86">DoaRenderer</text><text x="40" y="39.99" fill="#000" font-family="sans-serif" font-size="10" font-style="italic" lengthAdjust="spacingAndGlyphs" textLength="177">doa.engine.scene.elements.renderers</text><line style="stroke:#a80036;stroke-width:1.5" x1="12" x2="219" y1="47.188" y2="47.188"/><ellipse cx="22" cy="58.188" fill="#84BE84" rx="3" ry="3" style="stroke:#038048;stroke-width:1"/><text x="31" y="62.606" fill="#000" font-family="sans-serif" font-size="11" font-style="italic" lengthAdjust="spacingAndGlyphs" textLength="66">render(): void</text></a><path id="doa.engine.scene.elements.renderers.DoaRenderer-backto-doa.engine.scene.elements.renderers.DoaArbitraryShapeRenderer" fill="none" d="M115.5,89.65 C115.5,101.78 115.5,115.14 115.5,128.6" codeLine="22" style="stroke:#a80036;stroke-width:1"/><polygon fill="none" points="108.5 89.38 115.5 69.38 122.5 89.38 108.5 89.38" style="stroke:#a80036;stroke-width:1"/><text x="16.5" y="346.928" fill="#888" font-family="sans-serif" font-size="10" lengthAdjust="spacingAndGlyphs" textLength="190">UMLDoclet 2.0.12, PlantUML 1.2020.16</text></g></svg>