<?xml version="1.0" encoding="UTF-8" standalone="no"?><svg xmlns="http://www.w3.org/2000/svg" xmlns:xlink="http://www.w3.org/1999/xlink" contentScriptType="application/ecmascript" contentStyleType="text/css" height="219px" preserveAspectRatio="none" style="width:235px;height:219px;" version="1.1" viewBox="0 0 235 219" width="235px" zoomAndPan="magnify"><defs><filter height="300%" id="f1tehhq9rqwmee" width="300%" x="-1" y="-1"><feGaussianBlur result="blurOut" stdDeviation="2.0"/><feColorMatrix in="blurOut" result="blurOut2" type="matrix" values="0 0 0 0 0 0 0 0 0 0 0 0 0 0 0 0 0 0 .4 0"/><feOffset dx="4.0" dy="4.0" in="blurOut2" result="blurOut3"/><feBlend in="SourceGraphic" in2="blurOut3" mode="normal"/></filter></defs><g><!--MD5=[114aa1fa33921f7b5dbce8449ce1339c]
class doa.engine.scene.elements.renderers.DoaRenderer--><a href="DoaRenderer.html" target="_top" title="DoaRenderer.html" xlink:actuate="onRequest" xlink:href="DoaRenderer.html" xlink:show="new" xlink:title="DoaRenderer.html" xlink:type="simple"><rect codeLine="5" fill="#FEFECE" filter="url(#f1tehhq9rqwmee)" height="75.8594" id="doa.engine.scene.elements.renderers.DoaRenderer" style="stroke: #A80036; stroke-width: 1.5;" width="209" x="7" y="107"/><ellipse cx="22" cy="127.0938" fill="#A9DCDF" rx="11" ry="11" style="stroke: #A80036; stroke-width: 1.0;"/><path d="M24.1875,128.8594 L20.0469,128.8594 L19.625,129.8906 L20.0469,129.8906 Q20.6563,129.8906 20.9219,130.125 Q21.1875,130.3594 21.1875,130.75 Q21.1875,131.125 20.9219,131.3594 Q20.6563,131.5938 20.0469,131.5938 L17.75,131.5938 Q17.1406,131.5938 16.8906,131.3594 Q16.625,131.125 16.625,130.7344 Q16.625,130.3594 16.9063,130.125 Q17.1719,129.875 17.7969,129.8906 L20.4688,123.2344 L19.3594,123.2344 Q18.75,123.2344 18.4844,123 Q18.2188,122.7656 18.2188,122.375 Q18.2188,122 18.4844,121.7656 Q18.75,121.5313 19.3594,121.5313 L23.0313,121.5313 L26.4219,129.8906 Q27.0156,129.8906 27.2031,130.0313 Q27.5938,130.2969 27.5938,130.75 Q27.5938,131.125 27.3281,131.3594 Q27.0781,131.5938 26.4688,131.5938 L24.1719,131.5938 Q23.5625,131.5938 23.2969,131.3594 Q23.0313,131.125 23.0313,130.7344 Q23.0313,130.3594 23.2969,130.125 Q23.5625,129.8906 24.1719,129.8906 L24.5938,129.8906 L24.1875,128.8594 Z M23.4688,127.1563 L22.1094,123.7813 L20.7344,127.1563 L23.4688,127.1563 Z "/><text fill="#000000" font-family="sans-serif" font-size="14" font-style="italic" lengthAdjust="spacingAndGlyphs" textLength="86" x="81.5" y="126.5332">DoaRenderer</text><text fill="#000000" font-family="sans-serif" font-size="10" font-style="italic" lengthAdjust="spacingAndGlyphs" textLength="177" x="36" y="139.9902">doa.engine.scene.elements.renderers</text><line style="stroke: #A80036; stroke-width: 1.5;" x1="8" x2="215" y1="147.1875" y2="147.1875"/><ellipse cx="18" cy="158.1875" fill="#84BE84" rx="3" ry="3" style="stroke: #038048; stroke-width: 1.0;"/><text fill="#000000" font-family="sans-serif" font-size="11" font-style="italic" lengthAdjust="spacingAndGlyphs" textLength="66" x="27" y="162.6064">render(): void</text><ellipse cx="18" cy="172.0234" fill="#84BE84" rx="3" ry="3" style="stroke: #038048; stroke-width: 1.0;"/><text fill="#000000" font-family="sans-serif" font-size="11" lengthAdjust="spacingAndGlyphs" textLength="99" x="27" y="176.4424">debugRender(): void</text></a><!--MD5=[446a402d650adfd9c60db59099938794]
class doa.engine.scene.DoaComponent--><a href="..\..\DoaComponent.html" target="_top" title="..\..\DoaComponent.html" xlink:actuate="onRequest" xlink:href="..\..\DoaComponent.html" xlink:show="new" xlink:title="..\..\DoaComponent.html" xlink:type="simple"><rect codeLine="10" fill="#FEFECE" filter="url(#f1tehhq9rqwmee)" height="40.1875" id="doa.engine.scene.DoaComponent" style="stroke: #A80036; stroke-width: 1.5;" width="131" x="46" y="7"/><ellipse cx="61" cy="27.0938" fill="#A9DCDF" rx="11" ry="11" style="stroke: #A80036; stroke-width: 1.0;"/><path d="M63.1875,28.8594 L59.0469,28.8594 L58.625,29.8906 L59.0469,29.8906 Q59.6563,29.8906 59.9219,30.125 Q60.1875,30.3594 60.1875,30.75 Q60.1875,31.125 59.9219,31.3594 Q59.6563,31.5938 59.0469,31.5938 L56.75,31.5938 Q56.1406,31.5938 55.8906,31.3594 Q55.625,31.125 55.625,30.7344 Q55.625,30.3594 55.9063,30.125 Q56.1719,29.875 56.7969,29.8906 L59.4688,23.2344 L58.3594,23.2344 Q57.75,23.2344 57.4844,23 Q57.2188,22.7656 57.2188,22.375 Q57.2188,22 57.4844,21.7656 Q57.75,21.5313 58.3594,21.5313 L62.0313,21.5313 L65.4219,29.8906 Q66.0156,29.8906 66.2031,30.0313 Q66.5938,30.2969 66.5938,30.75 Q66.5938,31.125 66.3281,31.3594 Q66.0781,31.5938 65.4688,31.5938 L63.1719,31.5938 Q62.5625,31.5938 62.2969,31.3594 Q62.0313,31.125 62.0313,30.7344 Q62.0313,30.3594 62.2969,30.125 Q62.5625,29.8906 63.1719,29.8906 L63.5938,29.8906 L63.1875,28.8594 Z M62.4688,27.1563 L61.1094,23.7813 L59.7344,27.1563 L62.4688,27.1563 Z "/><text fill="#000000" font-family="sans-serif" font-size="14" font-style="italic" lengthAdjust="spacingAndGlyphs" textLength="99" x="75" y="26.5332">DoaComponent</text><text fill="#000000" font-family="sans-serif" font-size="10" font-style="italic" lengthAdjust="spacingAndGlyphs" textLength="85" x="82" y="39.9902">doa.engine.scene</text></a><!--MD5=[cefb312f0f723730cf61f3186d828676]
reverse link doa.engine.scene.DoaComponent to doa.engine.scene.elements.renderers.DoaRenderer--><path codeLine="12" d="M111.5,67.49 C111.5,80.27 111.5,94.39 111.5,106.99 " fill="none" id="doa.engine.scene.DoaComponent-backto-doa.engine.scene.elements.renderers.DoaRenderer" style="stroke: #A80036; stroke-width: 1.0;"/><polygon fill="none" points="104.5,67.16,111.5,47.16,118.5,67.16,104.5,67.16" style="stroke: #A80036; stroke-width: 1.0;"/><text fill="#888888" font-family="sans-serif" font-size="10" lengthAdjust="spacingAndGlyphs" textLength="190" x="13.5" y="206.2402">UMLDoclet 2.0.12, PlantUML 1.2020.16</text><!--MD5=[76ccb235387b9d3f931a0dea9ea26feb]
@startuml
    set namespaceSeparator none
    hide empty fields
    hide empty methods

    abstract class "<size:14>DoaRenderer\n<size:10>doa.engine.scene.elements.renderers" as doa.engine.scene.elements.renderers.DoaRenderer [[DoaRenderer.html]] {
        {abstract} +render(): void
        +debugRender(): void
    }

    abstract class "<size:14>DoaComponent\n<size:10>doa.engine.scene" as doa.engine.scene.DoaComponent [[..\..\DoaComponent.html]]

    doa.engine.scene.DoaComponent <|- - doa.engine.scene.elements.renderers.DoaRenderer

    center footer UMLDoclet 2.0.12, PlantUML 1.2020.16
@enduml

PlantUML version 1.2020.16(Sun Aug 23 23:20:43 TRT 2020)
(APACHE source distribution)
Java Runtime: OpenJDK Runtime Environment
JVM: OpenJDK 64-Bit Server VM
Default Encoding: Cp1252
Language: en
Country: GB
--></g></svg>