<svg xmlns="http://www.w3.org/2000/svg" xmlns:xlink="http://www.w3.org/1999/xlink" width="246" height="374" contentScriptType="application/ecmascript" contentStyleType="text/css" style="width:246px;height:374px" preserveAspectRatio="none" version="1.1" viewBox="0 0 246 374" zoomAndPan="magnify"><defs><filter id="f15hun80e6gdg" width="300%" height="300%" x="-1" y="-1"><feGaussianBlur result="blurOut" stdDeviation="2"/><feColorMatrix in="blurOut" result="blurOut2" type="matrix" values="0 0 0 0 0 0 0 0 0 0 0 0 0 0 0 0 0 0 .4 0"/><feOffset dx="4" dy="4" in="blurOut2" result="blurOut3"/><feBlend in="SourceGraphic" in2="blurOut3" mode="normal"/></filter></defs><g><a href="DoaSpriteRenderer.html" target="_top" title="DoaSpriteRenderer.html" xlink:actuate="onRequest" xlink:href="DoaSpriteRenderer.html" xlink:show="new" xlink:title="DoaSpriteRenderer.html" xlink:type="simple"><rect id="doa.engine.scene.elements.renderers.DoaSpriteRenderer" width="218" height="208.383" x="9" y="129" fill="#FEFECE" codeLine="5" filter="url(#f15hun80e6gdg)" style="stroke:#a80036;stroke-width:1.5"/><ellipse cx="28.05" cy="149.094" fill="#ADD1B2" rx="11" ry="11" style="stroke:#a80036;stroke-width:1"/><path d="M30.8156,144.9688 Q30.9719,144.75 31.1594,144.6406 Q31.3469,144.5313 31.5656,144.5313 Q31.9406,144.5313 32.175,144.7969 Q32.4094,145.0469 32.4094,145.6563 L32.4094,147.1094 Q32.4094,147.7188 32.175,147.9844 Q31.9406,148.25 31.5656,148.25 Q31.2219,148.25 31.0188,148.0469 Q30.8156,147.8594 30.7063,147.3438 Q30.6594,146.9844 30.4719,146.7969 Q30.1438,146.4219 29.5344,146.2031 Q28.925,145.9844 28.3,145.9844 Q27.5344,145.9844 26.8938,146.3125 Q26.2688,146.6406 25.7688,147.3906 Q25.2844,148.1406 25.2844,149.1719 L25.2844,150.2656 Q25.2844,151.5 26.175,152.3281 Q27.0656,153.1406 28.6594,153.1406 Q29.5969,153.1406 30.2531,152.8906 Q30.6438,152.7344 31.0656,152.2969 Q31.3313,152.0313 31.4719,151.9531 Q31.6281,151.875 31.8313,151.875 Q32.1594,151.875 32.4094,152.1406 Q32.675,152.3906 32.675,152.7344 Q32.675,153.0781 32.3313,153.4844 Q31.8313,154.0625 31.0344,154.3906 Q29.9563,154.8438 28.6594,154.8438 Q27.1438,154.8438 25.9406,154.2188 Q24.9563,153.7188 24.2688,152.6563 Q23.5813,151.5781 23.5813,150.2969 L23.5813,149.1406 Q23.5813,147.8125 24.1906,146.6719 Q24.8156,145.5156 25.9094,144.9063 Q27.0031,144.2813 28.2375,144.2813 Q28.9719,144.2813 29.6125,144.4531 Q30.2688,144.6094 30.8156,144.9688 Z"/><text x="69.95" y="148.533" fill="#000" font-family="sans-serif" font-size="14" lengthAdjust="spacingAndGlyphs" textLength="123">DoaSpriteRenderer</text><text x="42.95" y="161.99" fill="#000" font-family="sans-serif" font-size="10" lengthAdjust="spacingAndGlyphs" textLength="177">doa.engine.scene.elements.renderers</text><line style="stroke:#a80036;stroke-width:1.5" x1="10" x2="226" y1="169.188" y2="169.188"/><polygon fill="none" points="20 175.188 24 179.188 20 183.188 16 179.188" style="stroke:#b38d22;stroke-width:1"/><text x="29" y="184.606" fill="#000" font-family="sans-serif" font-size="11" lengthAdjust="spacingAndGlyphs" textLength="104">sprite: BufferedImage</text><polygon fill="none" points="20 189.023 24 193.023 20 197.023 16 193.023" style="stroke:#b38d22;stroke-width:1"/><text x="29" y="198.442" fill="#000" font-family="sans-serif" font-size="11" lengthAdjust="spacingAndGlyphs" textLength="87">offset: DoaVector</text><polygon fill="none" points="20 202.859 24 206.859 20 210.859 16 206.859" style="stroke:#b38d22;stroke-width:1"/><text x="29" y="212.278" fill="#000" font-family="sans-serif" font-size="11" lengthAdjust="spacingAndGlyphs" textLength="112">dimensions: DoaVector</text><line style="stroke:#a80036;stroke-width:1.5" x1="10" x2="226" y1="218.695" y2="218.695"/><ellipse cx="20" cy="229.695" fill="#84BE84" rx="3" ry="3" style="stroke:#038048;stroke-width:1"/><text x="29" y="234.114" fill="#000" font-family="sans-serif" font-size="11" lengthAdjust="spacingAndGlyphs" textLength="148">setSprite(BufferedImage): void</text><ellipse cx="20" cy="243.531" fill="#84BE84" rx="3" ry="3" style="stroke:#038048;stroke-width:1"/><text x="29" y="247.95" fill="#000" font-family="sans-serif" font-size="11" lengthAdjust="spacingAndGlyphs" textLength="192">setSprite(BufferedImage, boolean): void</text><ellipse cx="20" cy="257.367" fill="#84BE84" rx="3" ry="3" style="stroke:#038048;stroke-width:1"/><text x="29" y="261.786" fill="#000" font-family="sans-serif" font-size="11" lengthAdjust="spacingAndGlyphs" textLength="132">setOffset(DoaVector): void</text><ellipse cx="20" cy="271.203" fill="#84BE84" rx="3" ry="3" style="stroke:#038048;stroke-width:1"/><text x="29" y="275.622" fill="#000" font-family="sans-serif" font-size="11" lengthAdjust="spacingAndGlyphs" textLength="156">setDimensions(DoaVector): void</text><ellipse cx="20" cy="285.039" fill="#84BE84" rx="3" ry="3" style="stroke:#038048;stroke-width:1"/><text x="29" y="289.458" fill="#000" font-family="sans-serif" font-size="11" lengthAdjust="spacingAndGlyphs" textLength="128">getSprite(): BufferedImage</text><ellipse cx="20" cy="298.875" fill="#84BE84" rx="3" ry="3" style="stroke:#038048;stroke-width:1"/><text x="29" y="303.294" fill="#000" font-family="sans-serif" font-size="11" lengthAdjust="spacingAndGlyphs" textLength="112">getOffset(): DoaVector</text><ellipse cx="20" cy="312.711" fill="#84BE84" rx="3" ry="3" style="stroke:#038048;stroke-width:1"/><text x="29" y="317.13" fill="#000" font-family="sans-serif" font-size="11" lengthAdjust="spacingAndGlyphs" textLength="136">getDimensions(): DoaVector</text><ellipse cx="20" cy="326.547" fill="#84BE84" rx="3" ry="3" style="stroke:#038048;stroke-width:1"/><text x="29" y="330.966" fill="#000" font-family="sans-serif" font-size="11" lengthAdjust="spacingAndGlyphs" textLength="66">render(): void</text></a><a href="DoaRenderer.html" target="_top" title="DoaRenderer.html" xlink:actuate="onRequest" xlink:href="DoaRenderer.html" xlink:show="new" xlink:title="DoaRenderer.html" xlink:type="simple"><rect id="doa.engine.scene.elements.renderers.DoaRenderer" width="209" height="62.023" x="13.5" y="7" fill="#FEFECE" codeLine="19" filter="url(#f15hun80e6gdg)" style="stroke:#a80036;stroke-width:1.5"/><ellipse cx="28.5" cy="27.094" fill="#A9DCDF" rx="11" ry="11" style="stroke:#a80036;stroke-width:1"/><path d="M30.6875,28.8594 L26.5469,28.8594 L26.125,29.8906 L26.5469,29.8906 Q27.1563,29.8906 27.4219,30.125 Q27.6875,30.3594 27.6875,30.75 Q27.6875,31.125 27.4219,31.3594 Q27.1563,31.5938 26.5469,31.5938 L24.25,31.5938 Q23.6406,31.5938 23.3906,31.3594 Q23.125,31.125 23.125,30.7344 Q23.125,30.3594 23.4063,30.125 Q23.6719,29.875 24.2969,29.8906 L26.9688,23.2344 L25.8594,23.2344 Q25.25,23.2344 24.9844,23 Q24.7188,22.7656 24.7188,22.375 Q24.7188,22 24.9844,21.7656 Q25.25,21.5313 25.8594,21.5313 L29.5313,21.5313 L32.9219,29.8906 Q33.5156,29.8906 33.7031,30.0313 Q34.0938,30.2969 34.0938,30.75 Q34.0938,31.125 33.8281,31.3594 Q33.5781,31.5938 32.9688,31.5938 L30.6719,31.5938 Q30.0625,31.5938 29.7969,31.3594 Q29.5313,31.125 29.5313,30.7344 Q29.5313,30.3594 29.7969,30.125 Q30.0625,29.8906 30.6719,29.8906 L31.0938,29.8906 L30.6875,28.8594 Z M29.9688,27.1563 L28.6094,23.7813 L27.2344,27.1563 L29.9688,27.1563 Z"/><text x="88" y="26.533" fill="#000" font-family="sans-serif" font-size="14" font-style="italic" lengthAdjust="spacingAndGlyphs" textLength="86">DoaRenderer</text><text x="42.5" y="39.99" fill="#000" font-family="sans-serif" font-size="10" font-style="italic" lengthAdjust="spacingAndGlyphs" textLength="177">doa.engine.scene.elements.renderers</text><line style="stroke:#a80036;stroke-width:1.5" x1="14.5" x2="221.5" y1="47.188" y2="47.188"/><ellipse cx="24.5" cy="58.188" fill="#84BE84" rx="3" ry="3" style="stroke:#038048;stroke-width:1"/><text x="33.5" y="62.606" fill="#000" font-family="sans-serif" font-size="11" font-style="italic" lengthAdjust="spacingAndGlyphs" textLength="66">render(): void</text></a><path id="doa.engine.scene.elements.renderers.DoaRenderer-backto-doa.engine.scene.elements.renderers.DoaSpriteRenderer" fill="none" d="M118,89.5 C118,101.71 118,115.2 118,128.86" codeLine="23" style="stroke:#a80036;stroke-width:1"/><polygon fill="none" points="111 89.16 118 69.16 125 89.16 111 89.16" style="stroke:#a80036;stroke-width:1"/><text x="19" y="360.764" fill="#888" font-family="sans-serif" font-size="10" lengthAdjust="spacingAndGlyphs" textLength="190">UMLDoclet 2.0.12, PlantUML 1.2020.16</text></g></svg>