<?xml version="1.0" encoding="UTF-8" standalone="no"?><svg xmlns="http://www.w3.org/2000/svg" xmlns:xlink="http://www.w3.org/1999/xlink" contentScriptType="application/ecmascript" contentStyleType="text/css" height="603px" preserveAspectRatio="none" style="width:728px;height:603px;" version="1.1" viewBox="0 0 728 603" width="728px" zoomAndPan="magnify"><defs><filter height="300%" id="f10ihemi2t1sdx" width="300%" x="-1" y="-1"><feGaussianBlur result="blurOut" stdDeviation="2.0"/><feColorMatrix in="blurOut" result="blurOut2" type="matrix" values="0 0 0 0 0 0 0 0 0 0 0 0 0 0 0 0 0 0 .4 0"/><feOffset dx="4.0" dy="4.0" in="blurOut2" result="blurOut3"/><feBlend in="SourceGraphic" in2="blurOut3" mode="normal"/></filter></defs><g><!--MD5=[0b3cb1439de8388a615f7c72b5843b0c]
cluster doa.engine.scene.elements.renderers--><polygon fill="#FFFFFF" filter="url(#f10ihemi2t1sdx)" points="16,172,292,172,299,195.6094,706,195.6094,706,574,16,574,16,172" style="stroke: #000000; stroke-width: 1.5;"/><line style="stroke: #000000; stroke-width: 1.5;" x1="16" x2="299" y1="195.6094" y2="195.6094"/><text fill="#000000" font-family="sans-serif" font-size="14" font-weight="bold" lengthAdjust="spacingAndGlyphs" textLength="270" x="20" y="188.5332">doa.engine.scene.elements.renderers</text><!--MD5=[8099be491052978abf5cae05cc1ddf0f]
cluster doa.engine.scene--><polygon fill="#FFFFFF" filter="url(#f10ihemi2t1sdx)" points="262,6,394,6,401,29.6094,430,29.6094,430,148,262,148,262,6" style="stroke: #000000; stroke-width: 1.5;"/><line style="stroke: #000000; stroke-width: 1.5;" x1="262" x2="401" y1="29.6094" y2="29.6094"/><text fill="#000000" font-family="sans-serif" font-size="14" font-weight="bold" lengthAdjust="spacingAndGlyphs" textLength="126" x="266" y="22.5332">doa.engine.scene</text><!--MD5=[0e53b8896f1547982a551bbe89b6d900]
class doa.engine.scene.elements.renderers.DoaArbitraryShapeRenderer--><a href="DoaArbitraryShapeRenderer.html" target="_top" title="DoaArbitraryShapeRenderer.html" xlink:actuate="onRequest" xlink:href="DoaArbitraryShapeRenderer.html" xlink:show="new" xlink:title="DoaArbitraryShapeRenderer.html" xlink:type="simple"><rect codeLine="3" fill="#FEFECE" filter="url(#f10ihemi2t1sdx)" height="186.3594" id="doa.engine.scene.elements.renderers.DoaArbitraryShapeRenderer" style="stroke: #A80036; stroke-width: 1.5;" width="187" x="32.5" y="358"/><ellipse cx="47.5" cy="374" fill="#ADD1B2" rx="11" ry="11" style="stroke: #A80036; stroke-width: 1.0;"/><path d="M50.2656,369.875 Q50.4219,369.6563 50.6094,369.5469 Q50.7969,369.4375 51.0156,369.4375 Q51.3906,369.4375 51.625,369.7031 Q51.8594,369.9531 51.8594,370.5625 L51.8594,372.0156 Q51.8594,372.625 51.625,372.8906 Q51.3906,373.1563 51.0156,373.1563 Q50.6719,373.1563 50.4688,372.9531 Q50.2656,372.7656 50.1563,372.25 Q50.1094,371.8906 49.9219,371.7031 Q49.5938,371.3281 48.9844,371.1094 Q48.375,370.8906 47.75,370.8906 Q46.9844,370.8906 46.3438,371.2188 Q45.7188,371.5469 45.2188,372.2969 Q44.7344,373.0469 44.7344,374.0781 L44.7344,375.1719 Q44.7344,376.4063 45.625,377.2344 Q46.5156,378.0469 48.1094,378.0469 Q49.0469,378.0469 49.7031,377.7969 Q50.0938,377.6406 50.5156,377.2031 Q50.7813,376.9375 50.9219,376.8594 Q51.0781,376.7813 51.2813,376.7813 Q51.6094,376.7813 51.8594,377.0469 Q52.125,377.2969 52.125,377.6406 Q52.125,377.9844 51.7813,378.3906 Q51.2813,378.9688 50.4844,379.2969 Q49.4063,379.75 48.1094,379.75 Q46.5938,379.75 45.3906,379.125 Q44.4063,378.625 43.7188,377.5625 Q43.0313,376.4844 43.0313,375.2031 L43.0313,374.0469 Q43.0313,372.7188 43.6406,371.5781 Q44.2656,370.4219 45.3594,369.8125 Q46.4531,369.1875 47.6875,369.1875 Q48.4219,369.1875 49.0625,369.3594 Q49.7188,369.5156 50.2656,369.875 Z "/><text fill="#000000" font-family="sans-serif" font-size="12" lengthAdjust="spacingAndGlyphs" textLength="155" x="61.5" y="378.9102">DoaArbitraryShapeRenderer</text><line style="stroke: #A80036; stroke-width: 1.5;" x1="33.5" x2="218.5" y1="390" y2="390"/><polygon fill="none" points="43.5,396,47.5,400,43.5,404,39.5,400" style="stroke: #B38D22; stroke-width: 1.0;"/><text fill="#000000" font-family="sans-serif" font-size="11" lengthAdjust="spacingAndGlyphs" textLength="82" x="52.5" y="405.4189">polygon: Polygon</text><polygon fill="none" points="43.5,409.8359,47.5,413.8359,43.5,417.8359,39.5,413.8359" style="stroke: #B38D22; stroke-width: 1.0;"/><text fill="#000000" font-family="sans-serif" font-size="11" lengthAdjust="spacingAndGlyphs" textLength="55" x="52.5" y="419.2549">color: Color</text><polygon fill="none" points="43.5,423.6719,47.5,427.6719,43.5,431.6719,39.5,427.6719" style="stroke: #B38D22; stroke-width: 1.0;"/><text fill="#000000" font-family="sans-serif" font-size="11" lengthAdjust="spacingAndGlyphs" textLength="54" x="52.5" y="433.0908">fill: boolean</text><line style="stroke: #A80036; stroke-width: 1.5;" x1="33.5" x2="218.5" y1="439.5078" y2="439.5078"/><ellipse cx="43.5" cy="450.5078" fill="#84BE84" rx="3" ry="3" style="stroke: #038048; stroke-width: 1.0;"/><text fill="#000000" font-family="sans-serif" font-size="11" lengthAdjust="spacingAndGlyphs" textLength="159" x="52.5" y="454.9268">setPoints(List&lt;DoaVector&gt;): void</text><ellipse cx="43.5" cy="464.3438" fill="#84BE84" rx="3" ry="3" style="stroke: #038048; stroke-width: 1.0;"/><text fill="#000000" font-family="sans-serif" font-size="11" lengthAdjust="spacingAndGlyphs" textLength="99" x="52.5" y="468.7627">setColor(Color): void</text><ellipse cx="43.5" cy="478.1797" fill="#84BE84" rx="3" ry="3" style="stroke: #038048; stroke-width: 1.0;"/><text fill="#000000" font-family="sans-serif" font-size="11" lengthAdjust="spacingAndGlyphs" textLength="99" x="52.5" y="482.5986">setFill(boolean): void</text><ellipse cx="43.5" cy="492.0156" fill="#84BE84" rx="3" ry="3" style="stroke: #038048; stroke-width: 1.0;"/><text fill="#000000" font-family="sans-serif" font-size="11" lengthAdjust="spacingAndGlyphs" textLength="139" x="52.5" y="496.4346">getPoints(): List&lt;DoaVector&gt;</text><ellipse cx="43.5" cy="505.8516" fill="#84BE84" rx="3" ry="3" style="stroke: #038048; stroke-width: 1.0;"/><text fill="#000000" font-family="sans-serif" font-size="11" lengthAdjust="spacingAndGlyphs" textLength="79" x="52.5" y="510.2705">getColor(): Color</text><ellipse cx="43.5" cy="519.6875" fill="#84BE84" rx="3" ry="3" style="stroke: #038048; stroke-width: 1.0;"/><text fill="#000000" font-family="sans-serif" font-size="11" lengthAdjust="spacingAndGlyphs" textLength="79" x="52.5" y="524.1064">getFill(): boolean</text><ellipse cx="43.5" cy="533.5234" fill="#84BE84" rx="3" ry="3" style="stroke: #038048; stroke-width: 1.0;"/><text fill="#000000" font-family="sans-serif" font-size="11" lengthAdjust="spacingAndGlyphs" textLength="66" x="52.5" y="537.9424">render(): void</text></a><!--MD5=[eb06255dd93204c4805d6261aa0cdc53]
class doa.engine.scene.elements.renderers.DoaRectRenderer--><a href="DoaRectRenderer.html" target="_top" title="DoaRectRenderer.html" xlink:actuate="onRequest" xlink:href="DoaRectRenderer.html" xlink:show="new" xlink:title="DoaRectRenderer.html" xlink:type="simple"><rect codeLine="16" fill="#FEFECE" filter="url(#f10ihemi2t1sdx)" height="214.0313" id="doa.engine.scene.elements.renderers.DoaRectRenderer" style="stroke: #A80036; stroke-width: 1.5;" width="182" x="255" y="344"/><ellipse cx="292.5" cy="360" fill="#ADD1B2" rx="11" ry="11" style="stroke: #A80036; stroke-width: 1.0;"/><path d="M295.2656,355.875 Q295.4219,355.6563 295.6094,355.5469 Q295.7969,355.4375 296.0156,355.4375 Q296.3906,355.4375 296.625,355.7031 Q296.8594,355.9531 296.8594,356.5625 L296.8594,358.0156 Q296.8594,358.625 296.625,358.8906 Q296.3906,359.1563 296.0156,359.1563 Q295.6719,359.1563 295.4688,358.9531 Q295.2656,358.7656 295.1563,358.25 Q295.1094,357.8906 294.9219,357.7031 Q294.5938,357.3281 293.9844,357.1094 Q293.375,356.8906 292.75,356.8906 Q291.9844,356.8906 291.3438,357.2188 Q290.7188,357.5469 290.2188,358.2969 Q289.7344,359.0469 289.7344,360.0781 L289.7344,361.1719 Q289.7344,362.4063 290.625,363.2344 Q291.5156,364.0469 293.1094,364.0469 Q294.0469,364.0469 294.7031,363.7969 Q295.0938,363.6406 295.5156,363.2031 Q295.7813,362.9375 295.9219,362.8594 Q296.0781,362.7813 296.2813,362.7813 Q296.6094,362.7813 296.8594,363.0469 Q297.125,363.2969 297.125,363.6406 Q297.125,363.9844 296.7813,364.3906 Q296.2813,364.9688 295.4844,365.2969 Q294.4063,365.75 293.1094,365.75 Q291.5938,365.75 290.3906,365.125 Q289.4063,364.625 288.7188,363.5625 Q288.0313,362.4844 288.0313,361.2031 L288.0313,360.0469 Q288.0313,358.7188 288.6406,357.5781 Q289.2656,356.4219 290.3594,355.8125 Q291.4531,355.1875 292.6875,355.1875 Q293.4219,355.1875 294.0625,355.3594 Q294.7188,355.5156 295.2656,355.875 Z "/><text fill="#000000" font-family="sans-serif" font-size="12" lengthAdjust="spacingAndGlyphs" textLength="100" x="311.5" y="364.9102">DoaRectRenderer</text><line style="stroke: #A80036; stroke-width: 1.5;" x1="256" x2="436" y1="376" y2="376"/><polygon fill="none" points="266,382,270,386,266,390,262,386" style="stroke: #B38D22; stroke-width: 1.0;"/><text fill="#000000" font-family="sans-serif" font-size="11" lengthAdjust="spacingAndGlyphs" textLength="73" x="275" y="391.4189">rect: Rectangle</text><polygon fill="none" points="266,395.8359,270,399.8359,266,403.8359,262,399.8359" style="stroke: #B38D22; stroke-width: 1.0;"/><text fill="#000000" font-family="sans-serif" font-size="11" lengthAdjust="spacingAndGlyphs" textLength="55" x="275" y="405.2549">color: Color</text><polygon fill="none" points="266,409.6719,270,413.6719,266,417.6719,262,413.6719" style="stroke: #B38D22; stroke-width: 1.0;"/><text fill="#000000" font-family="sans-serif" font-size="11" lengthAdjust="spacingAndGlyphs" textLength="54" x="275" y="419.0908">fill: boolean</text><line style="stroke: #A80036; stroke-width: 1.5;" x1="256" x2="436" y1="425.5078" y2="425.5078"/><ellipse cx="266" cy="436.5078" fill="#84BE84" rx="3" ry="3" style="stroke: #038048; stroke-width: 1.0;"/><text fill="#000000" font-family="sans-serif" font-size="11" lengthAdjust="spacingAndGlyphs" textLength="132" x="275" y="440.9268">setOffset(DoaVector): void</text><ellipse cx="266" cy="450.3438" fill="#84BE84" rx="3" ry="3" style="stroke: #038048; stroke-width: 1.0;"/><text fill="#000000" font-family="sans-serif" font-size="11" lengthAdjust="spacingAndGlyphs" textLength="156" x="275" y="454.7627">setDimensions(DoaVector): void</text><ellipse cx="266" cy="464.1797" fill="#84BE84" rx="3" ry="3" style="stroke: #038048; stroke-width: 1.0;"/><text fill="#000000" font-family="sans-serif" font-size="11" lengthAdjust="spacingAndGlyphs" textLength="99" x="275" y="468.5986">setColor(Color): void</text><ellipse cx="266" cy="478.0156" fill="#84BE84" rx="3" ry="3" style="stroke: #038048; stroke-width: 1.0;"/><text fill="#000000" font-family="sans-serif" font-size="11" lengthAdjust="spacingAndGlyphs" textLength="99" x="275" y="482.4346">setFill(boolean): void</text><ellipse cx="266" cy="491.8516" fill="#84BE84" rx="3" ry="3" style="stroke: #038048; stroke-width: 1.0;"/><text fill="#000000" font-family="sans-serif" font-size="11" lengthAdjust="spacingAndGlyphs" textLength="112" x="275" y="496.2705">getOffset(): DoaVector</text><ellipse cx="266" cy="505.6875" fill="#84BE84" rx="3" ry="3" style="stroke: #038048; stroke-width: 1.0;"/><text fill="#000000" font-family="sans-serif" font-size="11" lengthAdjust="spacingAndGlyphs" textLength="136" x="275" y="510.1064">getDimensions(): DoaVector</text><ellipse cx="266" cy="519.5234" fill="#84BE84" rx="3" ry="3" style="stroke: #038048; stroke-width: 1.0;"/><text fill="#000000" font-family="sans-serif" font-size="11" lengthAdjust="spacingAndGlyphs" textLength="79" x="275" y="523.9424">getColor(): Color</text><ellipse cx="266" cy="533.3594" fill="#84BE84" rx="3" ry="3" style="stroke: #038048; stroke-width: 1.0;"/><text fill="#000000" font-family="sans-serif" font-size="11" lengthAdjust="spacingAndGlyphs" textLength="79" x="275" y="537.7783">getFill(): boolean</text><ellipse cx="266" cy="547.1953" fill="#84BE84" rx="3" ry="3" style="stroke: #038048; stroke-width: 1.0;"/><text fill="#000000" font-family="sans-serif" font-size="11" lengthAdjust="spacingAndGlyphs" textLength="66" x="275" y="551.6143">render(): void</text></a><!--MD5=[114aa1fa33921f7b5dbce8449ce1339c]
class doa.engine.scene.elements.renderers.DoaRenderer--><a href="DoaRenderer.html" target="_top" title="DoaRenderer.html" xlink:actuate="onRequest" xlink:href="DoaRenderer.html" xlink:show="new" xlink:title="DoaRenderer.html" xlink:type="simple"><rect codeLine="31" fill="#FEFECE" filter="url(#f10ihemi2t1sdx)" height="75.6719" id="doa.engine.scene.elements.renderers.DoaRenderer" style="stroke: #A80036; stroke-width: 1.5;" width="125" x="283.5" y="208"/><ellipse cx="306.6" cy="224" fill="#A9DCDF" rx="11" ry="11" style="stroke: #A80036; stroke-width: 1.0;"/><path d="M308.7875,225.7656 L304.6469,225.7656 L304.225,226.7969 L304.6469,226.7969 Q305.2563,226.7969 305.5219,227.0313 Q305.7875,227.2656 305.7875,227.6563 Q305.7875,228.0313 305.5219,228.2656 Q305.2563,228.5 304.6469,228.5 L302.35,228.5 Q301.7406,228.5 301.4906,228.2656 Q301.225,228.0313 301.225,227.6406 Q301.225,227.2656 301.5063,227.0313 Q301.7719,226.7813 302.3969,226.7969 L305.0688,220.1406 L303.9594,220.1406 Q303.35,220.1406 303.0844,219.9063 Q302.8188,219.6719 302.8188,219.2813 Q302.8188,218.9063 303.0844,218.6719 Q303.35,218.4375 303.9594,218.4375 L307.6313,218.4375 L311.0219,226.7969 Q311.6156,226.7969 311.8031,226.9375 Q312.1938,227.2031 312.1938,227.6563 Q312.1938,228.0313 311.9281,228.2656 Q311.6781,228.5 311.0688,228.5 L308.7719,228.5 Q308.1625,228.5 307.8969,228.2656 Q307.6313,228.0313 307.6313,227.6406 Q307.6313,227.2656 307.8969,227.0313 Q308.1625,226.7969 308.7719,226.7969 L309.1938,226.7969 L308.7875,225.7656 Z M308.0688,224.0625 L306.7094,220.6875 L305.3344,224.0625 L308.0688,224.0625 Z "/><text fill="#000000" font-family="sans-serif" font-size="12" font-style="italic" lengthAdjust="spacingAndGlyphs" textLength="75" x="322.4" y="228.9102">DoaRenderer</text><line style="stroke: #A80036; stroke-width: 1.5;" x1="284.5" x2="407.5" y1="240" y2="240"/><line style="stroke: #A80036; stroke-width: 1.5;" x1="284.5" x2="407.5" y1="248" y2="248"/><ellipse cx="294.5" cy="259" fill="#84BE84" rx="3" ry="3" style="stroke: #038048; stroke-width: 1.0;"/><text fill="#000000" font-family="sans-serif" font-size="11" font-style="italic" lengthAdjust="spacingAndGlyphs" textLength="66" x="303.5" y="263.4189">render(): void</text><ellipse cx="294.5" cy="272.8359" fill="#84BE84" rx="3" ry="3" style="stroke: #038048; stroke-width: 1.0;"/><text fill="#000000" font-family="sans-serif" font-size="11" lengthAdjust="spacingAndGlyphs" textLength="99" x="303.5" y="277.2549">debugRender(): void</text></a><!--MD5=[f606576dcc3a9069e883cc9b380462ff]
class doa.engine.scene.elements.renderers.DoaSpriteRenderer--><a href="DoaSpriteRenderer.html" target="_top" title="DoaSpriteRenderer.html" xlink:actuate="onRequest" xlink:href="DoaSpriteRenderer.html" xlink:show="new" xlink:title="DoaSpriteRenderer.html" xlink:type="simple"><rect codeLine="36" fill="#FEFECE" filter="url(#f10ihemi2t1sdx)" height="200.1953" id="doa.engine.scene.elements.renderers.DoaSpriteRenderer" style="stroke: #A80036; stroke-width: 1.5;" width="218" x="472" y="351"/><ellipse cx="523.25" cy="367" fill="#ADD1B2" rx="11" ry="11" style="stroke: #A80036; stroke-width: 1.0;"/><path d="M526.0156,362.875 Q526.1719,362.6563 526.3594,362.5469 Q526.5469,362.4375 526.7656,362.4375 Q527.1406,362.4375 527.375,362.7031 Q527.6094,362.9531 527.6094,363.5625 L527.6094,365.0156 Q527.6094,365.625 527.375,365.8906 Q527.1406,366.1563 526.7656,366.1563 Q526.4219,366.1563 526.2188,365.9531 Q526.0156,365.7656 525.9063,365.25 Q525.8594,364.8906 525.6719,364.7031 Q525.3438,364.3281 524.7344,364.1094 Q524.125,363.8906 523.5,363.8906 Q522.7344,363.8906 522.0938,364.2188 Q521.4688,364.5469 520.9688,365.2969 Q520.4844,366.0469 520.4844,367.0781 L520.4844,368.1719 Q520.4844,369.4063 521.375,370.2344 Q522.2656,371.0469 523.8594,371.0469 Q524.7969,371.0469 525.4531,370.7969 Q525.8438,370.6406 526.2656,370.2031 Q526.5313,369.9375 526.6719,369.8594 Q526.8281,369.7813 527.0313,369.7813 Q527.3594,369.7813 527.6094,370.0469 Q527.875,370.2969 527.875,370.6406 Q527.875,370.9844 527.5313,371.3906 Q527.0313,371.9688 526.2344,372.2969 Q525.1563,372.75 523.8594,372.75 Q522.3438,372.75 521.1406,372.125 Q520.1563,371.625 519.4688,370.5625 Q518.7813,369.4844 518.7813,368.2031 L518.7813,367.0469 Q518.7813,365.7188 519.3906,364.5781 Q520.0156,363.4219 521.1094,362.8125 Q522.2031,362.1875 523.4375,362.1875 Q524.1719,362.1875 524.8125,362.3594 Q525.4688,362.5156 526.0156,362.875 Z "/><text fill="#000000" font-family="sans-serif" font-size="12" lengthAdjust="spacingAndGlyphs" textLength="107" x="543.75" y="371.9102">DoaSpriteRenderer</text><line style="stroke: #A80036; stroke-width: 1.5;" x1="473" x2="689" y1="383" y2="383"/><polygon fill="none" points="483,389,487,393,483,397,479,393" style="stroke: #B38D22; stroke-width: 1.0;"/><text fill="#000000" font-family="sans-serif" font-size="11" lengthAdjust="spacingAndGlyphs" textLength="104" x="492" y="398.4189">sprite: BufferedImage</text><polygon fill="none" points="483,402.8359,487,406.8359,483,410.8359,479,406.8359" style="stroke: #B38D22; stroke-width: 1.0;"/><text fill="#000000" font-family="sans-serif" font-size="11" lengthAdjust="spacingAndGlyphs" textLength="87" x="492" y="412.2549">offset: DoaVector</text><polygon fill="none" points="483,416.6719,487,420.6719,483,424.6719,479,420.6719" style="stroke: #B38D22; stroke-width: 1.0;"/><text fill="#000000" font-family="sans-serif" font-size="11" lengthAdjust="spacingAndGlyphs" textLength="112" x="492" y="426.0908">dimensions: DoaVector</text><line style="stroke: #A80036; stroke-width: 1.5;" x1="473" x2="689" y1="432.5078" y2="432.5078"/><ellipse cx="483" cy="443.5078" fill="#84BE84" rx="3" ry="3" style="stroke: #038048; stroke-width: 1.0;"/><text fill="#000000" font-family="sans-serif" font-size="11" lengthAdjust="spacingAndGlyphs" textLength="148" x="492" y="447.9268">setSprite(BufferedImage): void</text><ellipse cx="483" cy="457.3438" fill="#84BE84" rx="3" ry="3" style="stroke: #038048; stroke-width: 1.0;"/><text fill="#000000" font-family="sans-serif" font-size="11" lengthAdjust="spacingAndGlyphs" textLength="192" x="492" y="461.7627">setSprite(BufferedImage, boolean): void</text><ellipse cx="483" cy="471.1797" fill="#84BE84" rx="3" ry="3" style="stroke: #038048; stroke-width: 1.0;"/><text fill="#000000" font-family="sans-serif" font-size="11" lengthAdjust="spacingAndGlyphs" textLength="132" x="492" y="475.5986">setOffset(DoaVector): void</text><ellipse cx="483" cy="485.0156" fill="#84BE84" rx="3" ry="3" style="stroke: #038048; stroke-width: 1.0;"/><text fill="#000000" font-family="sans-serif" font-size="11" lengthAdjust="spacingAndGlyphs" textLength="156" x="492" y="489.4346">setDimensions(DoaVector): void</text><ellipse cx="483" cy="498.8516" fill="#84BE84" rx="3" ry="3" style="stroke: #038048; stroke-width: 1.0;"/><text fill="#000000" font-family="sans-serif" font-size="11" lengthAdjust="spacingAndGlyphs" textLength="128" x="492" y="503.2705">getSprite(): BufferedImage</text><ellipse cx="483" cy="512.6875" fill="#84BE84" rx="3" ry="3" style="stroke: #038048; stroke-width: 1.0;"/><text fill="#000000" font-family="sans-serif" font-size="11" lengthAdjust="spacingAndGlyphs" textLength="112" x="492" y="517.1064">getOffset(): DoaVector</text><ellipse cx="483" cy="526.5234" fill="#84BE84" rx="3" ry="3" style="stroke: #038048; stroke-width: 1.0;"/><text fill="#000000" font-family="sans-serif" font-size="11" lengthAdjust="spacingAndGlyphs" textLength="136" x="492" y="530.9424">getDimensions(): DoaVector</text><ellipse cx="483" cy="540.3594" fill="#84BE84" rx="3" ry="3" style="stroke: #038048; stroke-width: 1.0;"/><text fill="#000000" font-family="sans-serif" font-size="11" lengthAdjust="spacingAndGlyphs" textLength="66" x="492" y="544.7783">render(): void</text></a><!--MD5=[446a402d650adfd9c60db59099938794]
class doa.engine.scene.DoaComponent--><a href="..\..\DoaComponent.html" target="_top" title="..\..\DoaComponent.html" xlink:actuate="onRequest" xlink:href="..\..\DoaComponent.html" xlink:show="new" xlink:title="..\..\DoaComponent.html" xlink:type="simple"><rect codeLine="57" fill="#FEFECE" filter="url(#f10ihemi2t1sdx)" height="89.5078" id="doa.engine.scene.DoaComponent" style="stroke: #A80036; stroke-width: 1.5;" width="135" x="278.5" y="42"/><ellipse cx="300.25" cy="58" fill="#A9DCDF" rx="11" ry="11" style="stroke: #A80036; stroke-width: 1.0;"/><path d="M302.4375,59.7656 L298.2969,59.7656 L297.875,60.7969 L298.2969,60.7969 Q298.9063,60.7969 299.1719,61.0313 Q299.4375,61.2656 299.4375,61.6563 Q299.4375,62.0313 299.1719,62.2656 Q298.9063,62.5 298.2969,62.5 L296,62.5 Q295.3906,62.5 295.1406,62.2656 Q294.875,62.0313 294.875,61.6406 Q294.875,61.2656 295.1563,61.0313 Q295.4219,60.7813 296.0469,60.7969 L298.7188,54.1406 L297.6094,54.1406 Q297,54.1406 296.7344,53.9063 Q296.4688,53.6719 296.4688,53.2813 Q296.4688,52.9063 296.7344,52.6719 Q297,52.4375 297.6094,52.4375 L301.2813,52.4375 L304.6719,60.7969 Q305.2656,60.7969 305.4531,60.9375 Q305.8438,61.2031 305.8438,61.6563 Q305.8438,62.0313 305.5781,62.2656 Q305.3281,62.5 304.7188,62.5 L302.4219,62.5 Q301.8125,62.5 301.5469,62.2656 Q301.2813,62.0313 301.2813,61.6406 Q301.2813,61.2656 301.5469,61.0313 Q301.8125,60.7969 302.4219,60.7969 L302.8438,60.7969 L302.4375,59.7656 Z M301.7188,58.0625 L300.3594,54.6875 L298.9844,58.0625 L301.7188,58.0625 Z "/><text fill="#000000" font-family="sans-serif" font-size="12" font-style="italic" lengthAdjust="spacingAndGlyphs" textLength="88" x="315.75" y="62.9102">DoaComponent</text><line style="stroke: #A80036; stroke-width: 1.5;" x1="279.5" x2="412.5" y1="74" y2="74"/><polygon fill="none" points="289.5,80,293.5,84,289.5,88,285.5,84" style="stroke: #B38D22; stroke-width: 1.0;"/><text fill="#000000" font-family="sans-serif" font-size="11" lengthAdjust="spacingAndGlyphs" textLength="90" x="298.5" y="89.4189">isEnabled: boolean</text><ellipse cx="289.5" cy="98.8359" fill="none" rx="3" ry="3" style="stroke: #038048; stroke-width: 1.0;"/><text fill="#000000" font-family="sans-serif" font-size="11" lengthAdjust="spacingAndGlyphs" textLength="60" x="298.5" y="103.2549">name: String</text><ellipse cx="289.5" cy="112.6719" fill="none" rx="3" ry="3" style="stroke: #038048; stroke-width: 1.0;"/><text fill="#000000" font-family="sans-serif" font-size="11" lengthAdjust="spacingAndGlyphs" textLength="109" x="298.5" y="117.0908">debugRender: boolean</text><line style="stroke: #A80036; stroke-width: 1.5;" x1="279.5" x2="412.5" y1="123.5078" y2="123.5078"/></a><!--MD5=[393c03125636d981ac5ba9537d8d763f]
reverse link doa.engine.scene.elements.renderers.DoaRenderer to doa.engine.scene.elements.renderers.DoaArbitraryShapeRenderer--><path codeLine="50" d="M289.2,297.51 C272.62,312.39 254.51,328.78 238,344 C232,349.54 225.83,355.26 219.64,361.04 " fill="none" id="doa.engine.scene.elements.renderers.DoaRenderer-backto-doa.engine.scene.elements.renderers.DoaArbitraryShapeRenderer" style="stroke: #A80036; stroke-width: 1.0;"/><polygon fill="none" points="284.66,292.18,304.23,284.06,294,302.61,284.66,292.18" style="stroke: #A80036; stroke-width: 1.0;"/><!--MD5=[fed6250d44fa156cc1bd51014d7a4641]
reverse link doa.engine.scene.elements.renderers.DoaRenderer to doa.engine.scene.elements.renderers.DoaRectRenderer--><path codeLine="51" d="M346,304.49 C346,316.87 346,330.33 346,343.9 " fill="none" id="doa.engine.scene.elements.renderers.DoaRenderer-backto-doa.engine.scene.elements.renderers.DoaRectRenderer" style="stroke: #A80036; stroke-width: 1.0;"/><polygon fill="none" points="339,304.23,346,284.23,353,304.23,339,304.23" style="stroke: #A80036; stroke-width: 1.0;"/><!--MD5=[cefb312f0f723730cf61f3186d828676]
reverse link doa.engine.scene.DoaComponent to doa.engine.scene.elements.renderers.DoaRenderer--><path codeLine="52" d="M346,152.36 C346,171.24 346,191.24 346,207.81 " fill="none" id="doa.engine.scene.DoaComponent-backto-doa.engine.scene.elements.renderers.DoaRenderer" style="stroke: #A80036; stroke-width: 1.0;"/><polygon fill="none" points="339,152.15,346,132.15,353,152.15,339,152.15" style="stroke: #A80036; stroke-width: 1.0;"/><!--MD5=[51133277395591786fb2ed0e2ce8a251]
reverse link doa.engine.scene.elements.renderers.DoaRenderer to doa.engine.scene.elements.renderers.DoaSpriteRenderer--><path codeLine="53" d="M404.38,297.43 C424.8,315.07 448.45,335.5 471.67,355.56 " fill="none" id="doa.engine.scene.elements.renderers.DoaRenderer-backto-doa.engine.scene.elements.renderers.DoaSpriteRenderer" style="stroke: #A80036; stroke-width: 1.0;"/><polygon fill="none" points="399.66,302.6,389.1,284.23,408.81,292.01,399.66,302.6" style="stroke: #A80036; stroke-width: 1.0;"/><text fill="#888888" font-family="sans-serif" font-size="10" lengthAdjust="spacingAndGlyphs" textLength="190" x="260" y="590.3809">UMLDoclet 2.0.12, PlantUML 1.2020.16</text><!--MD5=[b8416429d2464e001a6e4a8d82d696ba]
@startuml
    namespace doa.engine.scene.elements.renderers {

        class DoaArbitraryShapeRenderer [[DoaArbitraryShapeRenderer.html]] {
            #polygon: Polygon
            #color: Color
            #fill: boolean
            +setPoints(List<DoaVector>): void
            +setColor(Color): void
            +setFill(boolean): void
            +getPoints(): List<DoaVector>
            +getColor(): Color
            +getFill(): boolean
            +render(): void
        }

        class DoaRectRenderer [[DoaRectRenderer.html]] {
            #rect: Rectangle
            #color: Color
            #fill: boolean
            +setOffset(DoaVector): void
            +setDimensions(DoaVector): void
            +setColor(Color): void
            +setFill(boolean): void
            +getOffset(): DoaVector
            +getDimensions(): DoaVector
            +getColor(): Color
            +getFill(): boolean
            +render(): void
        }

        abstract class DoaRenderer [[DoaRenderer.html]] {
            {abstract} +render(): void
            +debugRender(): void
        }

        class DoaSpriteRenderer [[DoaSpriteRenderer.html]] {
            #sprite: BufferedImage
            #offset: DoaVector
            #dimensions: DoaVector
            +setSprite(BufferedImage): void
            +setSprite(BufferedImage, boolean): void
            +setOffset(DoaVector): void
            +setDimensions(DoaVector): void
            +getSprite(): BufferedImage
            +getOffset(): DoaVector
            +getDimensions(): DoaVector
            +render(): void
        }

        DoaRenderer <|- - DoaArbitraryShapeRenderer
        DoaRenderer <|- - DoaRectRenderer
        doa.engine.scene.DoaComponent <|- - DoaRenderer
        DoaRenderer <|- - DoaSpriteRenderer
    }

    namespace doa.engine.scene {
        abstract class DoaComponent [[..\..\DoaComponent.html]] {
            #isEnabled: boolean
            +name: String
            +debugRender: boolean
        }
    }

    center footer UMLDoclet 2.0.12, PlantUML 1.2020.16
@enduml

PlantUML version 1.2020.16(Sun Aug 23 23:20:43 TRT 2020)
(APACHE source distribution)
Java Runtime: OpenJDK Runtime Environment
JVM: OpenJDK 64-Bit Server VM
Default Encoding: Cp1252
Language: en
Country: GB
--></g></svg>